<?xml version="1.0" encoding="UTF-8"?>
<svg width="32px" height="24px" viewBox="0 0 32 24" version="1.1" xmlns="http://www.w3.org/2000/svg" xmlns:xlink="http://www.w3.org/1999/xlink">
    <title>flags/L/AF - Afghanistan</title>
    <defs>
        <rect id="path-1" x="0" y="0" width="32" height="24"></rect>
    </defs>
    <g id="Symbols" stroke="none" stroke-width="1" fill="none" fill-rule="evenodd">
        <g id="flag">
            <mask id="mask-2" fill="white">
                <use xlink:href="#path-1"></use>
            </mask>
            <g id="mask"></g>
            <g id="contents" mask="url(#mask-2)">
                <polygon id="bottom" fill="#67BD38" points="22 0 32 0 32 24 22 24"></polygon>
                <polygon id="middle" fill="#D51700" points="10 0 22 0 22 24 10 24"></polygon>
                <polygon id="middle" fill="#272727" points="0 0 10 0 10 24 0 24"></polygon>
                <g id="mark" transform="translate(10.000000, 6.000000)">
                    <path d="M2.48772892,1.97685355 L2.83372538,2.19400426 C2.25696373,3.16474941 1.86958951,4.05426363 1.66934365,4.8628001 L1.68128539,4.87315694 C1.75927041,4.94685385 1.80991971,5.01326089 1.86160566,5.10278358 C2.01804763,5.37374901 2.14962454,5.63678298 2.25625513,5.8920048 L1.79640212,6.08778501 C1.72453155,5.91576177 1.63990379,5.73890352 1.54248735,5.55725654 C1.49433141,5.95056469 1.49764723,6.3227261 1.55061543,6.67324326 C1.63554872,6.68162842 1.7057828,6.6992721 1.78694399,6.72881236 C2.08095871,6.83582497 2.35082745,6.95274466 2.59656464,7.0797151 L2.3701419,7.52527926 C2.16140071,7.41742435 1.93220135,7.31671104 1.68255504,7.22325077 L1.68480143,7.23735811 L1.68480143,7.23735811 C1.89862244,7.88351609 2.22586887,8.47797224 2.66746856,9.02101988 C2.73756756,9.00549333 2.80119068,9 2.87539693,9 C3.18828087,9 3.48186342,9.01756803 3.7562073,9.05283415 L3.69583143,9.54896864 C3.51025423,9.52511322 3.31403502,9.50995058 3.10719839,9.50353166 C3.50126989,9.90132873 3.96633068,10.2667973 4.50059028,10.6016175 L4.28953183,10.9573651 C3.62612618,10.5416091 3.06151348,10.0780816 2.59639881,9.56700533 C2.53641461,9.59022465 2.46229795,9.62170919 2.36784899,9.66299038 L2.3323801,9.67815057 C2.73844037,10.1039269 3.21850927,10.4954857 3.77304684,10.8530073 L3.55761582,11.2059753 C2.91693928,10.7929181 2.36850051,10.3341066 1.9129065,9.82977859 C1.69579651,9.88543507 1.51217541,9.88433877 1.2972973,9.82129666 L1.43083374,9.34050191 C1.4634192,9.35006201 1.49530043,9.35711779 1.52731296,9.3615987 C1.10303926,8.79801089 0.784407147,8.18427181 0.570706275,7.51990687 C0.532869853,7.40227894 0.500471354,7.28251437 0.473501322,7.16061407 C0.308340984,7.12995595 0.168383243,7.06774564 0.0231154015,6.9608369 L0.313040103,6.55470978 C0.338195249,6.57322251 0.363515161,6.58954085 0.389629435,6.60383553 C0.337321564,5.99134475 0.408843949,5.33033236 0.602792221,4.62075213 C0.48141571,4.48030156 0.407081098,4.33531981 0.361292069,4.14675753 L0.785739521,4.03793503 C1.01468925,3.38935738 1.33857437,2.70305296 1.75668943,1.97908935 L2.10530541,2.19176845 C1.64978841,2.98049327 1.31223941,3.71734286 1.09161836,4.40241684 C1.12953299,4.43814255 1.17477081,4.47575576 1.22652984,4.51621686 L1.32131552,4.58863009 C1.54283981,3.78246804 1.93223079,2.91181013 2.48772892,1.97685355 Z M1.24051993,7.17010768 L1.2093683,7.17086771 C1.17144701,7.17283503 1.12963046,7.1753026 1.08324887,7.1782279 C1.01692232,7.18241115 0.95465074,7.18542485 0.895846227,7.18700545 C0.914682069,7.25493157 0.934180776,7.32246101 0.95562243,7.38912 C1.176863,8.07692475 1.51924016,8.70769057 1.98373166,9.28180071 C2.04199073,9.26060922 2.10616109,9.23403342 2.17746532,9.20286819 L2.26026335,9.16709082 C1.83551684,8.61838869 1.51550482,8.01978532 1.30098673,7.37152078 L1.24051993,7.17010768 L1.24051993,7.17010768 Z M0.805648105,6.69000774 L0.923409867,6.68769505 C0.96644595,6.68620383 1.01241475,6.68384899 1.06171779,6.68073943 L1.14104361,6.67624733 C1.07497431,6.19022265 1.09407651,5.67169878 1.19772351,5.12074596 C1.15545553,5.0851665 1.10063497,5.04408771 1.03366518,4.99472936 L0.943250118,4.92618781 C0.788668238,5.5624629 0.743114136,6.15037287 0.805648105,6.69000774 Z" id="Combined-Shape" fill="#F7FCFF" fill-rule="nonzero"></path>
                    <path d="M9.94718838,1.97685355 L10.2931848,2.19400426 C9.71642319,3.16474941 9.32904897,4.05426363 9.12880311,4.8628001 L9.14074485,4.87315694 C9.21872987,4.94685385 9.26937917,5.01326089 9.32106512,5.10278358 C9.47750709,5.37374901 9.609084,5.63678298 9.71571459,5.8920048 L9.25586158,6.08778501 C9.18399101,5.91576177 9.09936325,5.73890352 9.00194681,5.55725654 C8.95379087,5.95056469 8.95710669,6.3227261 9.01007489,6.67324326 C9.09500818,6.68162842 9.16524226,6.6992721 9.24640344,6.72881236 C9.54041817,6.83582497 9.81028691,6.95274466 10.0560241,7.0797151 L9.82960136,7.52527926 C9.62086017,7.41742435 9.39166081,7.31671104 9.1420145,7.22325077 L9.14426089,7.23735811 L9.14426089,7.23735811 C9.3580819,7.88351609 9.68532833,8.47797224 10.126928,9.02101988 C10.197027,9.00549333 10.2606501,9 10.3348564,9 C10.6477403,9 10.9413229,9.01756803 11.2156668,9.05283415 L11.1552909,9.54896864 C10.9697137,9.52511322 10.7734945,9.50995058 10.5666578,9.50353166 C10.9607293,9.90132873 11.4257901,10.2667973 11.9600497,10.6016175 L11.7489913,10.9573651 C11.0855856,10.5416091 10.5209729,10.0780816 10.0558583,9.56700533 C9.99587407,9.59022465 9.92175741,9.62170919 9.82730845,9.66299038 L9.79183956,9.67815057 C10.1978998,10.1039269 10.6779687,10.4954857 11.2325063,10.8530073 L11.0170753,11.2059753 C10.3763987,10.7929181 9.82795997,10.3341066 9.37236595,9.82977859 C9.15525597,9.88543507 8.97163487,9.88433877 8.75675676,9.82129666 L8.8902932,9.34050191 C8.92287866,9.35006201 8.95475989,9.35711779 8.98677242,9.3615987 C8.56249872,8.79801089 8.24386661,8.18427181 8.03016573,7.51990687 C7.99232931,7.40227894 7.95993081,7.28251437 7.93296078,7.16061407 C7.76780044,7.12995595 7.6278427,7.06774564 7.48257486,6.9608369 L7.77249956,6.55470978 C7.79765471,6.57322251 7.82297462,6.58954085 7.84908889,6.60383553 C7.79678102,5.99134475 7.86830341,5.33033236 8.06225168,4.62075213 C7.94087517,4.48030156 7.86654056,4.33531981 7.82075153,4.14675753 L8.24519898,4.03793503 C8.47414871,3.38935738 8.79803382,2.70305296 9.21614889,1.97908935 L9.56476487,2.19176845 C9.10924787,2.98049327 8.77169887,3.71734286 8.55107782,4.40241684 C8.58899245,4.43814255 8.63423027,4.47575576 8.6859893,4.51621686 L8.78077498,4.58863009 C9.00229927,3.78246804 9.39169025,2.91181013 9.94718838,1.97685355 Z M8.69997939,7.17010768 L8.66882776,7.17086771 C8.63090647,7.17283503 8.58908992,7.1753026 8.54270833,7.1782279 C8.47638178,7.18241115 8.4141102,7.18542485 8.35530569,7.18700545 C8.37414153,7.25493157 8.39364024,7.32246101 8.41508189,7.38912 C8.63632246,8.07692475 8.97869962,8.70769057 9.44319112,9.28180071 C9.50145019,9.26060922 9.56562055,9.23403342 9.63692478,9.20286819 L9.71972281,9.16709082 C9.2949763,8.61838869 8.97496428,8.01978532 8.76044619,7.37152078 L8.69997939,7.17010768 L8.69997939,7.17010768 Z M8.26510756,6.69000774 L8.38286933,6.68769505 C8.42590541,6.68620383 8.47187421,6.68384899 8.52117725,6.68073943 L8.60050307,6.67624733 C8.53443377,6.19022265 8.55353596,5.67169878 8.65718297,5.12074596 C8.61491499,5.0851665 8.56009443,5.04408771 8.49312464,4.99472936 L8.40270958,4.92618781 C8.2481277,5.5624629 8.2025736,6.15037287 8.26510756,6.69000774 Z" id="Combined-Shape" fill="#F7FCFF" fill-rule="nonzero" transform="translate(9.723098, 6.591414) scale(-1, 1) translate(-9.723098, -6.591414) "></path>
                    <path d="M4.25304988,10.2640999 L3.13672804,11.3686988 C3.77849249,11.7617308 4.70414104,11.9582469 5.91367367,11.9582469 C7.1232063,11.9582469 8.08012952,11.7617308 8.78444333,11.3686988 L7.93585721,10.2640999 C7.16498763,10.5628445 6.50656379,10.7122169 5.96058568,10.7122169 C5.41460757,10.7122169 4.84542897,10.5628445 4.25304988,10.2640999 Z" id="Path-403" fill="#F7FCFF"></path>
                    <path d="M4.27635258,10.968986 C4.9064248,11.11766 5.46297089,11.1919969 5.94599083,11.1919969 C6.42901078,11.1919969 6.98555686,11.11766 7.61562909,10.968986" id="Path-404" stroke="#C00001" stroke-width="0.5"></path>
                    <path d="M4.72379555,2.86800455 L4.72323472,4.45266667 L4.77534714,4.4527027 L5.03980514,4.25 L6.89925484,4.25 L7.2127354,4.4527027 L7.36923472,4.45266667 L7.3699163,2.86800455 L7.85640279,2.86800455 L7.85623472,4.45266667 L8.02702703,4.4527027 L8.02702703,4.72297297 L7.85623472,4.72266667 L7.85640279,7.59644617 C7.85640279,7.76519482 8.03675032,8.05512237 8.41403894,8.43211137 L8.8436308,8.86136207 L2.86623472,8.86136207 L3.85940155,8.38483145 C4.04628588,8.29516263 4.17961612,8.03706477 4.23730907,7.58058945 L4.23723472,4.72266667 L3.81081081,4.72297297 L3.81081081,4.4527027 L4.23723472,4.45266667 L4.23730907,2.86800455 L4.72379555,2.86800455 Z M7.36923472,4.72266667 L4.72323472,4.72266667 L4.72379555,7.61200433 C4.68652951,7.91853875 4.62105797,8.16425128 4.52313127,8.36136207 L7.6935086,8.36136207 C7.47948083,8.0796723 7.3699163,7.82819654 7.3699163,7.59644617 L7.36923472,4.72266667 Z M6.08108108,6 L7.13513514,8.08333333 L5.02702703,8.08333333 L5.02702703,6 L6.08108108,6 Z M6,2.66666667 C6.49257829,2.66666667 6.89189189,3.02110791 6.89189189,3.45833333 C6.89189189,3.89555876 6.49257829,4.25 6,4.25 C5.50742171,4.25 5.10810811,3.89555876 5.10810811,3.45833333 C5.10810811,3.02110791 5.50742171,2.66666667 6,2.66666667 Z" id="Combined-Shape" fill="#F7FCFF" fill-rule="nonzero"></path>
                    <path d="M6.48146323,0.394547627 C6.48044361,0.391099717 6.47956293,0.38859821 6.47886806,0.387078215 C6.47914476,0.387683485 6.47942843,0.388291652 6.47971908,0.388902592 L6.48146323,0.394547627 Z M6.24271609,0.716275587 C5.8881513,1.09783294 5.51754948,1.09783294 5.21508221,0.859758669 C5.14143654,0.801791611 5.08872186,0.743469397 5.05765392,0.700351917 L5.05162061,0.691378931 C5.04190133,0.675861849 5.01999144,0.647040472 4.99098733,0.61882271 C4.91426391,0.54417938 4.87599012,0.539219724 4.81093557,0.620817194 C4.79656874,0.638837398 4.78188087,0.660611403 4.76702708,0.686302874 C4.59979741,0.975547259 4.4658292,1.13980403 4.30730695,1.20960146 C4.09194775,1.30442424 3.88944459,1.20212656 3.70871591,0.939794507 C3.61746608,0.80734316 3.49655226,0.776319372 3.43269068,0.829417178 C3.34449909,0.9027442 3.33863437,1.11718715 3.49543158,1.44064957 C3.66882128,1.79834123 3.70178714,2.04352777 3.50793466,2.17239902 C3.34762609,2.27897061 3.10376622,2.21861923 2.73010882,2.02896006 L2.87372018,1.73008687 C3.02412854,1.8064304 3.14531964,1.85561335 3.23479188,1.87775628 C3.26977846,1.8864149 3.29552153,1.8900113 3.31166026,1.89149544 C3.31134157,1.88808195 3.31092069,1.88435901 3.31037898,1.88033001 C3.30163142,1.81526924 3.26686805,1.71663529 3.2051397,1.58929372 C2.98823944,1.1418426 2.99863969,0.761558307 3.22870927,0.570266623 C3.45192232,0.384675802 3.78202188,0.469371988 3.97340563,0.747170139 C4.07574053,0.895711722 4.13202507,0.924144749 4.17959238,0.903200834 C4.25370191,0.870570365 4.35512258,0.746219732 4.48821287,0.516023617 C4.51110943,0.47642119 4.53503025,0.440959822 4.56007322,0.409548605 C4.76549224,0.151892967 5.0162214,0.18438336 5.21394352,0.37674492 C5.26174066,0.423246205 5.29739339,0.46921083 5.32030237,0.504631809 C5.32371163,0.508997051 5.33021318,0.516856012 5.33955365,0.527190073 C5.36039412,0.550247458 5.38486062,0.573537766 5.41227635,0.595116895 C5.59109479,0.735866235 5.77603309,0.735866235 6.0081757,0.486050905 C6.31139391,0.159749097 6.48844544,0.0389578952 6.65770202,0.122533129 C6.75082409,0.16851479 6.78972001,0.253597234 6.80573415,0.367741107 C6.81417419,0.427899152 6.81564473,0.478444523 6.81564473,0.601163246 C6.81564473,0.691239301 6.79017261,0.787903154 6.74158186,0.917188765 C6.7451109,0.916043858 6.74948176,0.912743475 6.75390146,0.909394974 C6.99790991,0.724526467 7.04419015,0.573492539 6.98856499,0.441803076 C6.9451474,0.39973945 6.91551925,0.366164703 6.8972818,0.337178888 C6.88921382,0.324356005 6.88246016,0.311329462 6.87694599,0.295835897 C6.86117816,0.251531847 6.85761539,0.205366244 6.88872263,0.15041858 C6.93246092,0.0731594892 7.0048173,0.0563970533 7.06757975,0.07093582 C7.08900491,0.0758989056 7.10563609,0.0836793717 7.1216411,0.0936000792 C7.16829391,0.122517821 7.21866852,0.180810875 7.25737784,0.25027867 C7.33550931,0.347544211 7.37989004,0.46817421 7.401964,0.611393274 C7.40858257,0.654335481 7.41255264,0.689791886 7.4156175,0.735397686 C7.43488959,0.681615055 7.45126965,0.618757787 7.46430179,0.549436466 C7.46924803,0.523126144 7.4723324,0.504398578 7.47808188,0.467413247 C7.48062166,0.451075354 7.48170678,0.444315909 7.48306789,0.436787767 C7.48449582,0.429038613 7.48449582,0.429038613 7.48689798,0.418486288 C7.49195199,0.397938143 7.49669952,0.383950633 7.51113545,0.362011077 C7.52418465,0.343026504 7.52418465,0.343026504 7.55597681,0.316254233 C7.60685595,0.28847102 7.60685595,0.28847102 7.68247555,0.292559845 C7.78204444,0.351643662 7.78204444,0.351643662 7.79492712,0.388258143 C7.80317724,0.407433694 7.80590313,0.420274801 7.8082307,0.437325588 C7.80966019,0.447797448 7.81052875,0.458895169 7.81145463,0.475200261 C7.81211298,0.486793993 7.81279787,0.501177502 7.81377836,0.523504047 C7.81417704,0.532582202 7.81618006,0.579129423 7.81681635,0.593680163 C7.81804119,0.62168978 7.81851498,0.650293916 7.81828993,0.679664612 C7.81779566,0.744170444 7.81459654,0.803935022 7.80785591,0.879990199 C7.88986425,0.799933877 8.01384364,0.819916283 8.15347609,0.896519121 C8.29132996,0.972146216 8.37657526,1.08113799 8.41363725,1.21398354 C8.42434635,1.25236937 8.43057424,1.28726229 8.43358294,1.32459924 C8.4856079,1.26679208 8.53648575,1.17251724 8.58192358,1.04905587 C8.62665782,0.927506252 8.70962284,0.604914087 8.70408324,0.621417788 C8.71172543,0.598650022 8.7189399,0.581952818 8.73385534,0.561530595 C8.76120248,0.524086887 8.79870725,0.49556077 8.85979514,0.493126672 C8.93356509,0.490187247 8.9821866,0.529735561 9.00954837,0.579638719 C9.0306117,0.618054612 9.03324555,0.639548065 9.03615355,0.701642724 C9.03866848,0.755344064 9.03924629,0.83472733 9.03924629,1.04355089 C9.03924629,1.4562289 9.10000723,1.75565974 9.17881199,1.87945609 C9.17882154,1.87947108 9.24298509,1.87949354 9.37130265,1.87952347 C9.37130265,2.20665371 9.09251499,2.35273338 8.90741262,2.06195148 C8.82684236,1.93538166 8.76751474,1.73140562 8.73734346,1.46772487 C8.68170584,1.54931206 8.61804805,1.61362854 8.54358762,1.65863551 C8.38688976,1.7533502 8.30274101,1.78261793 8.20232717,1.71809598 C8.13817973,1.67687738 8.11432608,1.61731263 8.108554,1.54816725 C8.10620365,1.52001172 8.10661499,1.50547622 8.10955444,1.4485298 C8.11320977,1.3777146 8.11173761,1.34120822 8.10187587,1.30585965 C8.09689614,1.28801027 8.08968256,1.27171973 8.07927232,1.25655364 C8.09142251,1.34852846 8.09189286,1.4140967 8.07303466,1.48078274 C8.03768645,1.60578041 7.93666702,1.68163831 7.80034656,1.68163831 C7.61179598,1.68163831 7.4917925,1.5705533 7.4600603,1.39041736 C7.44990817,1.33278619 7.44680268,1.2855896 7.45084333,1.21040584 C7.33456537,1.27602199 7.21486056,1.26866841 7.14365652,1.13888134 C7.12517976,1.10520287 7.11498328,1.07604399 7.10864797,1.03409769 C7.06212546,1.08291139 7.00811084,1.13090976 6.94634328,1.17770681 C6.81483411,1.27734231 6.71759626,1.34197361 6.64488638,1.37728219 C6.51779747,1.43899772 6.40233487,1.44513946 6.33239313,1.31424469 C6.2910319,1.23683784 6.30068157,1.16963052 6.33557912,1.06437645 C6.34482314,1.03649567 6.3561169,1.00621696 6.37140777,0.967547063 C6.37953121,0.947003277 6.4085566,0.875093117 6.41144611,0.867869691 C6.42235049,0.840610049 6.43108557,0.818253946 6.43904426,0.797078214 C6.47401384,0.704034511 6.49132041,0.638358028 6.49132041,0.601163246 C6.49132041,0.546298664 6.4909807,0.508429479 6.48989324,0.479336974 C6.42779247,0.527367702 6.34552863,0.605636068 6.24271609,0.716275587 Z M8.05581057,1.08296237 C8.05612659,1.08087758 8.05635041,1.07897109 8.05649879,1.07723808 C8.05644044,1.07791955 8.05638768,1.07866149 8.05634093,1.07946313 L8.05581057,1.08296237 Z M9.01015018,0.734686004 C9.01067551,0.733175183 9.01119273,0.731656832 9.01170698,0.730124775 C9.0115005,0.730739908 9.01126174,0.731488987 9.01099196,0.73236684 L9.01015018,0.734686004 Z M8.71179108,0.707084489 C8.71145816,0.703200451 8.71114583,0.700089608 8.71086419,0.697791293 C8.71096791,0.698637763 8.71107268,0.69948033 8.71117879,0.70031947 L8.71179108,0.707084489 Z M7.79840437,1.34835531 C7.80025296,1.34832248 7.80216843,1.34830498 7.80415325,1.34830498 C7.80333318,1.34830498 7.80239197,1.34842324 7.80134055,1.3486542 L7.79840437,1.34835531 Z M7.17150681,0.159200697 C7.17087939,0.158179862 7.1702518,0.157171063 7.16962397,0.156173226 C7.16984491,0.156524367 7.17031996,0.157155448 7.17104386,0.158055078 L7.17150681,0.159200697 Z" id="Path-407" fill="#F7FCFF" fill-rule="nonzero"></path>
                    <path d="M2.99288212,4.66809643 L4.52643075,6.91912204 L4.32717598,7.06251383 L3.43132593,5.74766137 C3.30579428,5.79961454 3.20740869,5.90834288 3.13616919,6.0738464 C3.03233516,6.31507344 2.96052335,6.64776793 2.92073374,7.07192987 L2.92073374,7.07192987 L2.34851082,6.70444084 C2.47623326,6.40650323 2.54009448,6.07569156 2.54009448,5.71200584 C2.54009448,5.39460739 2.69142849,5.19267914 2.99409651,5.10622109 L2.79362734,4.81148823 L2.99288212,4.66809643 Z" id="Combined-Shape" fill="#F7FCFF" fill-rule="nonzero"></path>
                    <path d="M8.18207131,4.66809643 L9.71561994,6.91912204 L9.51636517,7.06251383 L8.62051512,5.74766137 C8.49498346,5.79961454 8.39659788,5.90834288 8.32535838,6.0738464 C8.22152435,6.31507344 8.14971254,6.64776793 8.10992293,7.07192987 L8.10992293,7.07192987 L7.53770001,6.70444084 C7.66542245,6.40650323 7.72928367,6.07569156 7.72928367,5.71200584 C7.72928367,5.39460739 7.88061768,5.19267914 8.18328569,5.10622109 L7.98281653,4.81148823 L8.18207131,4.66809643 Z" id="Combined-Shape" fill="#F7FCFF" fill-rule="nonzero" transform="translate(8.626660, 5.870013) scale(-1, 1) translate(-8.626660, -5.870013) "></path>
                </g>
            </g>
        </g>
    </g>
</svg>