<?xml version="1.0" encoding="UTF-8"?>
<svg width="32px" height="24px" viewBox="0 0 32 24" version="1.1" xmlns="http://www.w3.org/2000/svg" xmlns:xlink="http://www.w3.org/1999/xlink">
    <title>flags/L/African Union</title>
    <defs>
        <rect id="path-1" x="0" y="0" width="32" height="24"></rect>
        <rect id="path-3" x="0" y="0" width="32" height="24"></rect>
    </defs>
    <g id="Symbols" stroke="none" stroke-width="1" fill="none" fill-rule="evenodd" opacity="0.900000036">
        <g id="flag">
            <mask id="mask-2" fill="white">
                <use xlink:href="#path-1"></use>
            </mask>
            <g id="mask"></g>
            <g id="contents" mask="url(#mask-2)">
                <mask id="mask-4" fill="white">
                    <use xlink:href="#path-3"></use>
                </mask>
                <use id="background" fill="#006239" xlink:href="#path-3"></use>
                <polygon id="Star" fill="#F7FCFF" fill-rule="nonzero" mask="url(#mask-4)" points="15.7905078 15.9919387 15.0058245 20.9452239 15.3278604 15.940659 13.9726621 20.769479 14.8743025 15.8360886 12.966916 20.4751419 14.4359677 15.6796417 12.0021871 20.0661931 14.0187838 15.473434 11.0915218 19.5481629 13.6283925 15.2202541 10.2472352 18.9280566 13.270073 14.9235257 9.48074492 18.2142604 12.9486712 14.5872617 8.80241637 17.4164269 12.6685333 14.2160094 8.22142279 16.5453455 12.4334478 13.8147893 7.74562112 15.6127961 12.2465938 13.3890274 7.38144577 14.6313899 12.1104982 12.9444812 7.13382157 13.6143986 12.0270014 12.4871626 7.00609723 12.5755753 11.9972327 12.0232559 7 11.5289684 12.0215944 11.5590347 7.11561233 10.4887314 12.0997573 11.1007768 7.35137076 9.46893169 12.2306643 10.6546794 7.70408706 8.48336033 12.4125451 10.2267751 8.16899135 7.5453455 12.64294 9.82285067 8.7397966 6.66757222 12.9187335 9.44836843 9.40878365 5.86191088 13.2361957 9.10839263 10.1669056 5.13925667 13.5910337 8.80752085 11.0039101 4.50938224 13.9784488 8.54982188 11.9084782 3.98080557 14.393202 8.33878065 12.8683771 3.56067475 14.8296843 8.17725113 13.8706258 3.25467132 15.2819931 8.06741773 14.9016707 3.06693346 15.7440118 8.01076576 15.9475686 3 16.2094922 8.00806134 16.9941755 3.0547761 16.6721396 8.05934104 18.0273379 3.23052101 17.1256975 8.1639114 19.033084 3.52485808 17.5640323 8.32035827 19.9978129 3.9338069 17.9812162 8.52656598 20.9084782 4.45183715 18.3716075 8.77974593 21.7527648 5.07194335 18.729927 9.0764743 22.5192551 5.78573963 19.0513288 9.41273833 23.1975836 6.58357313 19.3314667 9.78399064 23.7785772 7.4546545 19.5665522 10.1852107 24.2543789 8.38720388 19.7534062 10.6109726 24.6185542 9.36861013 19.8895018 11.0555188 24.8661784 10.3856014 19.9729986 11.5128374 24.9939028 11.4244247 20.0027673 11.9767441 25 12.4710316 19.9784056 12.4409653 24.8843877 13.5112686 19.9002427 12.8992232 24.6486292 14.5310683 19.7693357 13.3453206 24.2959129 15.5166397 19.5874549 13.7732249 23.8310086 16.4546545 19.35706 14.1771493 23.2602034 17.3324278 19.0812665 14.5516316 22.5912163 18.1380891 18.7638043 14.8916074 21.8330944 18.8607433 18.4089663 15.1924791 20.9960899 19.4906178 18.0215512 15.4501781 20.0915218 20.0191944 17.606798 15.6612193 19.1316229 20.4393253 17.1703157 15.8227489 18.1293742 20.7453287 16.7180069 15.9325823 17.0983293 20.9330665 16.2559882 15.9892342 16.0524314 21"></polygon>
                <polygon id="star---55" fill="#FECA00" mask="url(#mask-4)" points="15.9955141 2.15 15.7016215 2.3045085 15.75775 1.97725425 15.5199859 1.7454915 15.8485678 1.69774575 15.9955141 1.4 16.1424604 1.69774575 16.4710424 1.7454915 16.2332783 1.97725425 16.2894067 2.3045085"></polygon>
                <polygon id="star---55" fill="#FECA00" mask="url(#mask-4)" transform="translate(17.168053, 1.968293) rotate(7.000000) translate(-17.168053, -1.968293) " points="17.1680526 2.21829259 16.8741599 2.37280108 16.9302884 2.04554684 16.6925243 1.81378409 17.0211062 1.76603834 17.1680526 1.46829259 17.3149989 1.76603834 17.6435808 1.81378409 17.4058167 2.04554684 17.4619452 2.37280108"></polygon>
                <polygon id="star---55" fill="#FECA00" mask="url(#mask-4)" transform="translate(18.324734, 2.172247) rotate(13.000000) translate(-18.324734, -2.172247) " points="18.3247344 2.42224681 18.0308418 2.5767553 18.0869703 2.24950106 17.8492062 2.01773831 18.1777881 1.96999256 18.3247344 1.67224681 18.4716807 1.96999256 18.8002627 2.01773831 18.5624985 2.24950106 18.618627 2.5767553"></polygon>
                <polygon id="star---55" fill="#FECA00" mask="url(#mask-4)" transform="translate(19.449918, 2.509105) rotate(20.000000) translate(-19.449918, -2.509105) " points="19.4499176 2.75910453 19.1560249 2.91361303 19.2121534 2.58635878 18.9743893 2.35459603 19.3029713 2.30685028 19.4499176 2.00910453 19.5968639 2.30685028 19.9254458 2.35459603 19.6876817 2.58635878 19.7438102 2.91361303"></polygon>
                <polygon id="star---55" fill="#FECA00" mask="url(#mask-4)" transform="translate(20.528386, 2.974310) rotate(27.000000) translate(-20.528386, -2.974310) " points="20.5283858 3.22431033 20.2344932 3.37881883 20.2906217 3.05156458 20.0528576 2.81980184 20.3814395 2.77205608 20.5283858 2.47431033 20.6753322 2.77205608 21.0039141 2.81980184 20.76615 3.05156458 20.8222785 3.37881883"></polygon>
                <polygon id="star---55" fill="#FECA00" mask="url(#mask-4)" transform="translate(21.545555, 3.561573) rotate(33.000000) translate(-21.545555, -3.561573) " points="21.5455548 3.8115731 21.2516622 3.9660816 21.3077907 3.63882735 21.0700265 3.40706461 21.3986085 3.35931886 21.5455548 3.0615731 21.6925011 3.35931886 22.0210831 3.40706461 21.7833189 3.63882735 21.8394474 3.9660816"></polygon>
                <polygon id="star---55" fill="#FECA00" mask="url(#mask-4)" transform="translate(22.487669, 4.262951) rotate(40.000000) translate(-22.487669, -4.262951) " points="22.487669 4.51295112 22.1937764 4.66745962 22.2499048 4.34020537 22.0121407 4.10844263 22.3407227 4.06069688 22.487669 3.76295112 22.6346153 4.06069688 22.9631972 4.10844263 22.7254331 4.34020537 22.7815616 4.66745962"></polygon>
                <polygon id="star---55" fill="#FECA00" mask="url(#mask-4)" transform="translate(23.341988, 5.068959) rotate(47.000000) translate(-23.341988, -5.068959) " points="23.3419879 5.31895946 23.0480953 5.47346795 23.1042238 5.14621371 22.8664596 4.91445096 23.1950416 4.86670521 23.3419879 4.56895946 23.4889342 4.86670521 23.8175162 4.91445096 23.579752 5.14621371 23.6358805 5.47346795"></polygon>
                <polygon id="star---55" fill="#FECA00" mask="url(#mask-4)" transform="translate(24.096958, 5.968698) rotate(53.000000) translate(-24.096958, -5.968698) " points="24.0969584 6.21869822 23.8030657 6.37320672 23.8591942 6.04595247 23.6214301 5.81418973 23.9500121 5.76644398 24.0969584 5.46869822 24.2439047 5.76644398 24.5724866 5.81418973 24.3347225 6.04595247 24.390851 6.37320672"></polygon>
                <polygon id="star---55" fill="#FECA00" mask="url(#mask-4)" transform="translate(24.742371, 6.950000) rotate(60.000000) translate(-24.742371, -6.950000) " points="24.7423707 7.2 24.4484781 7.3545085 24.5046066 7.02725425 24.2668424 6.7954915 24.5954244 6.74774575 24.7423707 6.45 24.889317 6.74774575 25.217899 6.7954915 24.9801348 7.02725425 25.0362633 7.3545085"></polygon>
                <polygon id="star---55" fill="#FECA00" mask="url(#mask-4)" transform="translate(25.269497, 7.999594) rotate(67.000000) translate(-25.269497, -7.999594) " points="25.2694968 8.24959436 24.9756042 8.40410286 25.0317327 8.07684861 24.7939685 7.84508587 25.1225505 7.79734011 25.2694968 7.49959436 25.4164431 7.79734011 25.7450251 7.84508587 25.5072609 8.07684861 25.5633894 8.40410286"></polygon>
                <polygon id="star---55" fill="#FECA00" mask="url(#mask-4)" transform="translate(25.671208, 9.103287) rotate(73.000000) translate(-25.671208, -9.103287) " points="25.6712082 9.35328735 25.3773156 9.50779585 25.4334441 9.1805416 25.1956799 8.94877885 25.5242619 8.9010331 25.6712082 8.60328735 25.8181545 8.9010331 26.1467365 8.94877885 25.9089723 9.1805416 25.9651008 9.50779585"></polygon>
                <polygon id="star---55" fill="#FECA00" mask="url(#mask-4)" transform="translate(25.942072, 10.246153) rotate(80.000000) translate(-25.942072, -10.246153) " points="25.9420724 10.4961534 25.6481798 10.6506619 25.7043083 10.3234077 25.4665442 10.0916449 25.7951261 10.0438992 25.9420724 9.74615341 26.0890187 10.0438992 26.4176007 10.0916449 26.1798366 10.3234077 26.2359651 10.6506619"></polygon>
                <polygon id="star---55" fill="#FECA00" mask="url(#mask-4)" transform="translate(26.078427, 11.412737) rotate(87.000000) translate(-26.078427, -11.412737) " points="26.0784265 11.6627372 25.7845339 11.8172457 25.8406624 11.4899915 25.6028983 11.2582287 25.9314802 11.210483 26.0784265 10.9127372 26.2253728 11.210483 26.5539548 11.2582287 26.3161906 11.4899915 26.3723191 11.8172457"></polygon>
                <polygon id="star---55" fill="#FECA00" mask="url(#mask-4)" transform="translate(26.078427, 12.587263) rotate(93.000000) translate(-26.078427, -12.587263) " points="26.0784265 12.8372628 25.7845339 12.9917713 25.8406624 12.664517 25.6028983 12.4327543 25.9314802 12.3850085 26.0784265 12.0872628 26.2253728 12.3850085 26.5539548 12.4327543 26.3161906 12.664517 26.3723191 12.9917713"></polygon>
                <polygon id="star---55" fill="#FECA00" mask="url(#mask-4)" transform="translate(25.942072, 13.753847) rotate(100.000000) translate(-25.942072, -13.753847) " points="25.9420724 14.0038466 25.6481798 14.1583551 25.7043083 13.8311008 25.4665442 13.5993381 25.7951261 13.5515923 25.9420724 13.2538466 26.0890187 13.5515923 26.4176007 13.5993381 26.1798366 13.8311008 26.2359651 14.1583551"></polygon>
                <polygon id="star---55" fill="#FECA00" mask="url(#mask-4)" transform="translate(25.671208, 14.896713) rotate(107.000000) translate(-25.671208, -14.896713) " points="25.6712082 15.1467127 25.3773156 15.3012211 25.4334441 14.9739669 25.1956799 14.7422042 25.5242619 14.6944584 25.6712082 14.3967127 25.8181545 14.6944584 26.1467365 14.7422042 25.9089723 14.9739669 25.9651008 15.3012211"></polygon>
                <polygon id="star---55" fill="#FECA00" mask="url(#mask-4)" transform="translate(25.269497, 16.000406) rotate(113.000000) translate(-25.269497, -16.000406) " points="25.2694968 16.2504056 24.9756042 16.4049141 25.0317327 16.0776599 24.7939685 15.8458971 25.1225505 15.7981514 25.2694968 15.5004056 25.4164431 15.7981514 25.7450251 15.8458971 25.5072609 16.0776599 25.5633894 16.4049141"></polygon>
                <polygon id="star---55" fill="#FECA00" mask="url(#mask-4)" transform="translate(24.742371, 17.050000) rotate(120.000000) translate(-24.742371, -17.050000) " points="24.7423707 17.3 24.4484781 17.4545085 24.5046066 17.1272542 24.2668424 16.8954915 24.5954244 16.8477458 24.7423707 16.55 24.889317 16.8477458 25.217899 16.8954915 24.9801348 17.1272542 25.0362633 17.4545085"></polygon>
                <polygon id="star---55" fill="#FECA00" mask="url(#mask-4)" transform="translate(24.096958, 18.031302) rotate(127.000000) translate(-24.096958, -18.031302) " points="24.0969584 18.2813018 23.8030657 18.4358103 23.8591942 18.108556 23.6214301 17.8767933 23.9500121 17.8290475 24.0969584 17.5313018 24.2439047 17.8290475 24.5724866 17.8767933 24.3347225 18.108556 24.390851 18.4358103"></polygon>
                <polygon id="star---55" fill="#FECA00" mask="url(#mask-4)" transform="translate(23.341988, 18.931041) rotate(133.000000) translate(-23.341988, -18.931041) " points="23.3419879 19.1810405 23.0480953 19.335549 23.1042238 19.0082948 22.8664596 18.776532 23.1950416 18.7287863 23.3419879 18.4310405 23.4889342 18.7287863 23.8175162 18.776532 23.579752 19.0082948 23.6358805 19.335549"></polygon>
                <polygon id="star---55" fill="#FECA00" mask="url(#mask-4)" transform="translate(22.487669, 19.737049) rotate(140.000000) translate(-22.487669, -19.737049) " points="22.487669 19.9870489 22.1937764 20.1415574 22.2499048 19.8143031 22.0121407 19.5825404 22.3407227 19.5347946 22.487669 19.2370489 22.6346153 19.5347946 22.9631972 19.5825404 22.7254331 19.8143031 22.7815616 20.1415574"></polygon>
                <polygon id="star---55" fill="#FECA00" mask="url(#mask-4)" transform="translate(21.545555, 20.438427) rotate(147.000000) translate(-21.545555, -20.438427) " points="21.5455548 20.6884269 21.2516622 20.8429354 21.3077907 20.5156811 21.0700265 20.2839184 21.3986085 20.2361726 21.5455548 19.9384269 21.6925011 20.2361726 22.0210831 20.2839184 21.7833189 20.5156811 21.8394474 20.8429354"></polygon>
                <polygon id="star---55" fill="#FECA00" mask="url(#mask-4)" transform="translate(20.528386, 21.025690) rotate(153.000000) translate(-20.528386, -21.025690) " points="20.5283858 21.2756897 20.2344932 21.4301982 20.2906217 21.1029439 20.0528576 20.8711812 20.3814395 20.8234354 20.5283858 20.5256897 20.6753322 20.8234354 21.0039141 20.8711812 20.76615 21.1029439 20.8222785 21.4301982"></polygon>
                <polygon id="star---55" fill="#FECA00" mask="url(#mask-4)" transform="translate(19.449918, 21.490895) rotate(160.000000) translate(-19.449918, -21.490895) " points="19.4499176 21.7408955 19.1560249 21.895404 19.2121534 21.5681497 18.9743893 21.336387 19.3029713 21.2886412 19.4499176 20.9908955 19.5968639 21.2886412 19.9254458 21.336387 19.6876817 21.5681497 19.7438102 21.895404"></polygon>
                <polygon id="star---55" fill="#FECA00" mask="url(#mask-4)" transform="translate(18.324734, 21.827753) rotate(167.000000) translate(-18.324734, -21.827753) " points="18.3247344 22.0777532 18.0308418 22.2322617 18.0869703 21.9050074 17.8492062 21.6732447 18.1777881 21.6254989 18.3247344 21.3277532 18.4716807 21.6254989 18.8002627 21.6732447 18.5624985 21.9050074 18.618627 22.2322617"></polygon>
                <polygon id="star---55" fill="#FECA00" mask="url(#mask-4)" transform="translate(17.168053, 22.031707) rotate(173.000000) translate(-17.168053, -22.031707) " points="17.1680526 22.2817074 16.8741599 22.4362159 16.9302884 22.1089617 16.6925243 21.8771989 17.0211062 21.8294532 17.1680526 21.5317074 17.3149989 21.8294532 17.6435808 21.8771989 17.4058167 22.1089617 17.4619452 22.4362159"></polygon>
                <polygon id="star---55" fill="#FECA00" mask="url(#mask-4)" transform="translate(15.995514, 22.100000) rotate(180.000000) translate(-15.995514, -22.100000) " points="15.9955141 22.35 15.7016215 22.5045085 15.75775 22.1772542 15.5199859 21.9454915 15.8485678 21.8977458 15.9955141 21.6 16.1424604 21.8977458 16.4710424 21.9454915 16.2332783 22.1772542 16.2894067 22.5045085"></polygon>
                <polygon id="star---55" fill="#FECA00" mask="url(#mask-4)" transform="translate(14.822976, 22.031707) rotate(187.000000) translate(-14.822976, -22.031707) " points="14.8229757 22.2817074 14.5290831 22.4362159 14.5852116 22.1089617 14.3474474 21.8771989 14.6760294 21.8294532 14.8229757 21.5317074 14.969922 21.8294532 15.2985039 21.8771989 15.0607398 22.1089617 15.1168683 22.4362159"></polygon>
                <polygon id="star---55" fill="#FECA00" mask="url(#mask-4)" transform="translate(13.666294, 21.827753) rotate(193.000000) translate(-13.666294, -21.827753) " points="13.6662938 22.0777532 13.3724012 22.2322617 13.4285297 21.9050074 13.1907656 21.6732447 13.5193475 21.6254989 13.6662938 21.3277532 13.8132401 21.6254989 14.1418221 21.6732447 13.904058 21.9050074 13.9601865 22.2322617"></polygon>
                <polygon id="star---55" fill="#FECA00" mask="url(#mask-4)" transform="translate(12.541111, 21.490895) rotate(200.000000) translate(-12.541111, -21.490895) " points="12.5411107 21.7408955 12.247218 21.895404 12.3033465 21.5681497 12.0655824 21.336387 12.3941644 21.2886412 12.5411107 20.9908955 12.688057 21.2886412 13.0166389 21.336387 12.7788748 21.5681497 12.8350033 21.895404"></polygon>
                <polygon id="star---55" fill="#FECA00" mask="url(#mask-4)" transform="translate(11.462642, 21.025690) rotate(207.000000) translate(-11.462642, -21.025690) " points="11.4626424 21.2756897 11.1687498 21.4301982 11.2248783 21.1029439 10.9871141 20.8711812 11.3156961 20.8234354 11.4626424 20.5256897 11.6095887 20.8234354 11.9381707 20.8711812 11.7004065 21.1029439 11.756535 21.4301982"></polygon>
                <polygon id="star---55" fill="#FECA00" mask="url(#mask-4)" transform="translate(10.445473, 20.438427) rotate(213.000000) translate(-10.445473, -20.438427) " points="10.4454734 20.6884269 10.1515808 20.8429354 10.2077093 20.5156811 9.96994518 20.2839184 10.2985271 20.2361726 10.4454734 19.9384269 10.5924198 20.2361726 10.9210017 20.2839184 10.6832376 20.5156811 10.7393661 20.8429354"></polygon>
                <polygon id="star---55" fill="#FECA00" mask="url(#mask-4)" transform="translate(9.503359, 19.737049) rotate(220.000000) translate(-9.503359, -19.737049) " points="9.50335926 19.9870489 9.20946664 20.1415574 9.26559513 19.8143031 9.02783101 19.5825404 9.35641295 19.5347946 9.50335926 19.2370489 9.65030558 19.5347946 9.97888752 19.5825404 9.74112339 19.8143031 9.79725189 20.1415574"></polygon>
                <polygon id="star---55" fill="#FECA00" mask="url(#mask-4)" transform="translate(8.649040, 18.931041) rotate(227.000000) translate(-8.649040, -18.931041) " points="8.64904034 19.1810405 8.35514772 19.335549 8.41127621 19.0082948 8.17351208 18.776532 8.50209403 18.7287863 8.64904034 18.4310405 8.79598665 18.7287863 9.1245686 18.776532 8.88680447 19.0082948 8.94293297 19.335549"></polygon>
                <polygon id="star---55" fill="#FECA00" mask="url(#mask-4)" transform="translate(7.894070, 18.031302) rotate(233.000000) translate(-7.894070, -18.031302) " points="7.89406987 18.2813018 7.60017725 18.4358103 7.65630575 18.108556 7.41854162 17.8767933 7.74712356 17.8290475 7.89406987 17.5313018 8.04101619 17.8290475 8.36959813 17.8767933 8.131834 18.108556 8.1879625 18.4358103"></polygon>
                <polygon id="star---55" fill="#FECA00" mask="url(#mask-4)" transform="translate(7.248658, 17.050000) rotate(240.000000) translate(-7.248658, -17.050000) " points="7.24865754 17.3 6.95476492 17.4545085 7.01089341 17.1272542 6.77312928 16.8954915 7.10171123 16.8477458 7.24865754 16.55 7.39560386 16.8477458 7.7241858 16.8954915 7.48642167 17.1272542 7.54255017 17.4545085"></polygon>
                <polygon id="star---55" fill="#FECA00" mask="url(#mask-4)" transform="translate(6.721531, 16.000406) rotate(247.000000) translate(-6.721531, -16.000406) " points="6.72153144 16.2504056 6.42763882 16.4049141 6.48376731 16.0776599 6.24600318 15.8458971 6.57458513 15.7981514 6.72153144 15.5004056 6.86847775 15.7981514 7.1970597 15.8458971 6.95929557 16.0776599 7.01542407 16.4049141"></polygon>
                <polygon id="star---55" fill="#FECA00" mask="url(#mask-4)" transform="translate(6.319820, 14.896713) rotate(253.000000) translate(-6.319820, -14.896713) " points="6.31982005 15.1467127 6.02592742 15.3012211 6.08205592 14.9739669 5.84429179 14.7422042 6.17287373 14.6944584 6.31982005 14.3967127 6.46676636 14.6944584 6.7953483 14.7422042 6.55758418 14.9739669 6.61371267 15.3012211"></polygon>
                <polygon id="star---55" fill="#FECA00" mask="url(#mask-4)" transform="translate(6.048956, 13.753847) rotate(260.000000) translate(-6.048956, -13.753847) " points="6.04895582 14.0038466 5.75506319 14.1583551 5.81119169 13.8311008 5.57342756 13.5993381 5.9020095 13.5515923 6.04895582 13.2538466 6.19590213 13.5515923 6.52448407 13.5993381 6.28671994 13.8311008 6.34284844 14.1583551"></polygon>
                <polygon id="star---55" fill="#FECA00" mask="url(#mask-4)" transform="translate(5.912602, 12.587263) rotate(267.000000) translate(-5.912602, -12.587263) " points="5.91260172 12.8372628 5.6187091 12.9917713 5.67483759 12.664517 5.43707346 12.4327543 5.76565541 12.3850085 5.91260172 12.0872628 6.05954804 12.3850085 6.38812998 12.4327543 6.15036585 12.664517 6.20649435 12.9917713"></polygon>
                <polygon id="star---55" fill="#FECA00" mask="url(#mask-4)" transform="translate(5.912602, 11.412737) rotate(273.000000) translate(-5.912602, -11.412737) " points="5.91260172 11.6627372 5.6187091 11.8172457 5.67483759 11.4899915 5.43707346 11.2582287 5.76565541 11.210483 5.91260172 10.9127372 6.05954804 11.210483 6.38812998 11.2582287 6.15036585 11.4899915 6.20649435 11.8172457"></polygon>
                <polygon id="star---55" fill="#FECA00" mask="url(#mask-4)" transform="translate(6.048956, 10.246153) rotate(280.000000) translate(-6.048956, -10.246153) " points="6.04895582 10.4961534 5.75506319 10.6506619 5.81119169 10.3234077 5.57342756 10.0916449 5.9020095 10.0438992 6.04895582 9.74615341 6.19590213 10.0438992 6.52448407 10.0916449 6.28671994 10.3234077 6.34284844 10.6506619"></polygon>
                <polygon id="star---55" fill="#FECA00" mask="url(#mask-4)" transform="translate(6.319820, 9.103287) rotate(287.000000) translate(-6.319820, -9.103287) " points="6.31982005 9.35328735 6.02592742 9.50779585 6.08205592 9.1805416 5.84429179 8.94877885 6.17287373 8.9010331 6.31982005 8.60328735 6.46676636 8.9010331 6.7953483 8.94877885 6.55758418 9.1805416 6.61371267 9.50779585"></polygon>
                <polygon id="star---55" fill="#FECA00" mask="url(#mask-4)" transform="translate(6.721531, 7.999594) rotate(293.000000) translate(-6.721531, -7.999594) " points="6.72153144 8.24959436 6.42763882 8.40410286 6.48376731 8.07684861 6.24600318 7.84508587 6.57458513 7.79734011 6.72153144 7.49959436 6.86847775 7.79734011 7.1970597 7.84508587 6.95929557 8.07684861 7.01542407 8.40410286"></polygon>
                <polygon id="star---55" fill="#FECA00" mask="url(#mask-4)" transform="translate(7.248658, 6.950000) rotate(300.000000) translate(-7.248658, -6.950000) " points="7.24865754 7.2 6.95476492 7.3545085 7.01089341 7.02725425 6.77312928 6.7954915 7.10171123 6.74774575 7.24865754 6.45 7.39560386 6.74774575 7.7241858 6.7954915 7.48642167 7.02725425 7.54255017 7.3545085"></polygon>
                <polygon id="star---55" fill="#FECA00" mask="url(#mask-4)" transform="translate(7.894070, 5.968698) rotate(307.000000) translate(-7.894070, -5.968698) " points="7.89406987 6.21869822 7.60017725 6.37320672 7.65630575 6.04595247 7.41854162 5.81418973 7.74712356 5.76644398 7.89406987 5.46869822 8.04101619 5.76644398 8.36959813 5.81418973 8.131834 6.04595247 8.1879625 6.37320672"></polygon>
                <polygon id="star---55" fill="#FECA00" mask="url(#mask-4)" transform="translate(8.649040, 5.068959) rotate(313.000000) translate(-8.649040, -5.068959) " points="8.64904034 5.31895946 8.35514772 5.47346795 8.41127621 5.14621371 8.17351208 4.91445096 8.50209403 4.86670521 8.64904034 4.56895946 8.79598665 4.86670521 9.1245686 4.91445096 8.88680447 5.14621371 8.94293297 5.47346795"></polygon>
                <polygon id="star---55" fill="#FECA00" mask="url(#mask-4)" transform="translate(9.503359, 4.262951) rotate(320.000000) translate(-9.503359, -4.262951) " points="9.50335926 4.51295112 9.20946664 4.66745962 9.26559513 4.34020537 9.02783101 4.10844263 9.35641295 4.06069688 9.50335926 3.76295112 9.65030558 4.06069688 9.97888752 4.10844263 9.74112339 4.34020537 9.79725189 4.66745962"></polygon>
                <polygon id="star---55" fill="#FECA00" mask="url(#mask-4)" transform="translate(10.445473, 3.561573) rotate(327.000000) translate(-10.445473, -3.561573) " points="10.4454734 3.8115731 10.1515808 3.9660816 10.2077093 3.63882735 9.96994518 3.40706461 10.2985271 3.35931886 10.4454734 3.0615731 10.5924198 3.35931886 10.9210017 3.40706461 10.6832376 3.63882735 10.7393661 3.9660816"></polygon>
                <polygon id="star---55" fill="#FECA00" mask="url(#mask-4)" transform="translate(11.462642, 2.974310) rotate(333.000000) translate(-11.462642, -2.974310) " points="11.4626424 3.22431033 11.1687498 3.37881883 11.2248783 3.05156458 10.9871141 2.81980184 11.3156961 2.77205608 11.4626424 2.47431033 11.6095887 2.77205608 11.9381707 2.81980184 11.7004065 3.05156458 11.756535 3.37881883"></polygon>
                <polygon id="star---55" fill="#FECA00" mask="url(#mask-4)" transform="translate(12.541111, 2.509105) rotate(340.000000) translate(-12.541111, -2.509105) " points="12.5411107 2.75910453 12.247218 2.91361303 12.3033465 2.58635878 12.0655824 2.35459603 12.3941644 2.30685028 12.5411107 2.00910453 12.688057 2.30685028 13.0166389 2.35459603 12.7788748 2.58635878 12.8350033 2.91361303"></polygon>
                <polygon id="star---55" fill="#FECA00" mask="url(#mask-4)" transform="translate(13.666294, 2.172247) rotate(347.000000) translate(-13.666294, -2.172247) " points="13.6662938 2.42224681 13.3724012 2.5767553 13.4285297 2.24950106 13.1907656 2.01773831 13.5193475 1.96999256 13.6662938 1.67224681 13.8132401 1.96999256 14.1418221 2.01773831 13.904058 2.24950106 13.9601865 2.5767553"></polygon>
                <polygon id="star---55" fill="#FECA00" mask="url(#mask-4)" transform="translate(14.822976, 1.968293) rotate(353.000000) translate(-14.822976, -1.968293) " points="14.8229757 2.21829259 14.5290831 2.37280108 14.5852116 2.04554684 14.3474474 1.81378409 14.6760294 1.76603834 14.8229757 1.46829259 14.969922 1.76603834 15.2985039 1.81378409 15.0607398 2.04554684 15.1168683 2.37280108"></polygon>
                <path d="M14.8159397,4.86455741 L14.8159397,5.66756174 L15.6759318,6.120044 L16.5488464,6.28967198 L18.0842922,6.28967198 L19.3295133,6.09293807 L19.3295133,6.9539686 L19.8789893,7.946114 L20.3453331,8.83138146 L20.9889374,9.64048054 L21.6234735,10.1401361 L22.2102858,10.3637606 L23.125,10.0806001 L23.125,10.8614855 L22.6809334,11.961676 L21.8409221,12.6511918 L20.8236332,13.936963 L20.8236332,14.4789556 L21.034625,15.3784515 L20.8069694,16.276262 L19.6738717,16.9422061 L19.6738717,18.260671 L19.1101802,18.260671 L19.1101802,18.800229 L17.7738971,19.9282572 L16.9576704,19.9282572 L16.1323961,19.6859841 L15.889576,18.9410063 L15.5161039,18.5346562 L15.3627779,17.5160842 L14.906629,16.7633527 L15.1066813,14.5081554 L14.9262942,13.9635759 L14.3705877,13.4527251 L14.3705877,12.5862958 L14.1491632,12.0103017 L13.1630157,11.546092 L12.5034929,11.7635707 L11.5807891,12.0103017 L10.4015956,12.0103017 L9.85590931,11.4778522 L9.59039512,10.9051752 L9.07331593,10.2960489 L9.07331593,8.27582344 L9.86579395,7.11719706 L10.3705465,6.68481885 L10.779914,6.32955679 L11.4800443,5.36968848 L11.9954635,5.09109863 L14.8159397,4.86455741 Z M22.7779761,14.708638 L23.0976254,15.8062802 L21.8991751,18.0495576 L20.8187926,17.1243402 L21.3053008,16.611506 L21.2094385,16.0699161 L22.2197665,15.5384682 L22.7779761,14.708638 Z" id="Combined-Shape" stroke="#F7FCFF" stroke-width="0.25" fill="#19724D" fill-rule="nonzero" mask="url(#mask-4)"></path>
            </g>
        </g>
    </g>
</svg>