<?xml version="1.0" encoding="UTF-8"?>
<svg width="32px" height="24px" viewBox="0 0 32 24" version="1.1" xmlns="http://www.w3.org/2000/svg" xmlns:xlink="http://www.w3.org/1999/xlink">
    <title>flags/L/AI - Anguilla</title>
    <defs>
        <rect id="path-1" x="0" y="0" width="32" height="24"></rect>
        <rect id="path-3" x="0" y="0" width="32" height="24"></rect>
        <path d="M0.0634968205,0.20481025 C0.0902728486,3.14113208 0.198639131,5.06270331 0.388595666,5.96952392 C0.67353047,7.32975484 2.54582395,10.9273055 4.27706997,10.9273055 C6.00831598,10.9273055 7.84855937,7.66071698 8.28738872,5.96952392 C8.57994162,4.84206188 8.71783365,2.92049066 8.70106483,0.20481025 C8.02859886,0.552898615 7.30348238,0.726942798 6.5257154,0.726942798 C5.74794841,0.726942798 4.99839994,0.494825931 4.27706997,0.0305921973 C3.51976816,0.494825931 2.79970036,0.726942798 2.11686657,0.726942798 C1.43403278,0.726942798 0.749576193,0.552898615 0.0634968205,0.20481025 Z" id="path-5"></path>
        <rect id="path-7" x="0" y="0" width="18" height="14"></rect>
    </defs>
    <g id="Symbols" stroke="none" stroke-width="1" fill="none" fill-rule="evenodd">
        <g id="flag">
            <mask id="mask-2" fill="white">
                <use xlink:href="#path-1"></use>
            </mask>
            <g id="mask"></g>
            <g id="contents" mask="url(#mask-2)">
                <mask id="mask-4" fill="white">
                    <use xlink:href="#path-3"></use>
                </mask>
                <use id="background" fill="#2E42A5" xlink:href="#path-3"></use>
                <g id="mark" mask="url(#mask-4)">
                    <g transform="translate(20.000000, 11.000000)">
                        <path d="M1.16349682,1.20481025 C1.19027285,4.14113208 1.29863913,6.06270331 1.48859567,6.96952392 C1.77353047,8.32975484 3.64582395,11.9273055 5.37706997,11.9273055 C7.10831598,11.9273055 8.94855937,8.66071698 9.38738872,6.96952392 C9.67994162,5.84206188 9.81783365,3.92049066 9.80106483,1.20481025 C9.12859886,1.55289862 8.40348238,1.7269428 7.6257154,1.7269428 C6.84794841,1.7269428 6.09839994,1.49482593 5.37706997,1.0305922 C4.61976816,1.49482593 3.89970036,1.7269428 3.21686657,1.7269428 C2.53403278,1.7269428 1.84957619,1.55289862 1.16349682,1.20481025 Z M0.94622127,1.20665257 L0.943025495,0.856196446 L1.26467105,1.01938613 C1.92051573,1.35213466 2.57052279,1.51741899 3.21686657,1.51741899 C3.85507718,1.51741899 4.53592586,1.29794457 5.2605003,0.853773042 L5.37995549,0.780545793 L5.49769123,0.856318191 C6.18428572,1.29819686 6.89219469,1.51741899 7.6257154,1.51741899 C8.36779436,1.51741899 9.05758713,1.35185329 9.69829705,1.0202028 L10.0161966,0.855648533 L10.0183449,1.20356271 C10.0352149,3.93562182 9.89630031,5.87144249 9.59817459,7.02038147 C9.35732009,7.9486044 8.75241282,9.2081917 8.04606515,10.201133 C7.18553313,11.4108174 6.26273812,12.1368293 5.37706997,12.1368293 C4.49456595,12.1368293 3.57246605,11.3560859 2.70822798,10.0726035 C2.02085259,9.05178045 1.4364398,7.77876738 1.27561329,7.01100862 C1.08196042,6.08654236 0.973121451,4.1565893 0.94622127,1.20665257 Z" id="Path" fill="#FBE625" fill-rule="nonzero"></path>
                        <g id="Group" stroke-width="1" fill="none" fill-rule="evenodd" transform="translate(1.100000, 1.000000)">
                            <mask id="mask-6" fill="white">
                                <use xlink:href="#path-5"></use>
                            </mask>
                            <use id="Path" fill="#F5FBFF" xlink:href="#path-5"></use>
                            <path d="M4.74178598,2.87428452 C4.66437903,2.56341195 5.23872298,3.07600388 5.39073525,3.15683023 C5.54274751,3.23765659 5.50194635,3.22108529 5.77961038,3.24450821 C6.81471491,3.29665862 6.94530969,3.84882641 7.0291004,3.96544667 C7.11289111,4.08206693 7.06303209,4.35147211 7.41533748,4.46668982 C7.65020773,4.54350163 7.84507702,4.76884522 7.99994534,5.14272059 C7.49455014,4.80326061 7.23790874,4.79896047 7.23002114,5.12982016 C7.21818976,5.6261097 6.21003663,6.22059027 5.910932,6.61563848 C5.61182737,7.01068669 5.81450634,7.31797839 5.76676498,7.40776682 C5.71902362,7.49755525 5.64472885,7.593909 5.57917472,7.55905325 C5.51362059,7.5241975 5.5355709,7.020056 5.58321916,6.78606008 C5.63086741,6.55206417 5.2499765,6.78752141 5.08789935,6.83522793 C4.9258222,6.88293444 4.29368245,6.66952664 4.78776366,6.62243983 C5.28184487,6.57535302 5.79969486,6.19122121 6.06784567,5.77330389 C6.33599648,5.35538656 6.29727935,4.62803719 5.98236506,4.37572136 C5.7724222,4.2075108 5.58550101,4.32913604 5.42160148,4.74059709 C5.40029925,4.69285203 5.40086248,4.59454401 5.42329115,4.44567304 C5.44571983,4.29680208 5.51118439,4.17368115 5.61968483,4.07631025 C5.36566515,3.94124559 4.81919294,3.1851571 4.74178598,2.87428452 Z M1.97158575,3.53405391 C2.01984924,3.37214175 2.54311607,2.95821496 2.31351048,3.39823164 C2.08390488,3.83824833 2.12402361,4.48176705 2.32847317,4.93427133 C2.53292273,5.38677561 3.1640161,5.75044755 3.54714058,5.62375927 C3.8025569,5.53930041 3.80235797,5.31629324 3.54654378,4.95473778 C3.59818818,4.96287606 3.68032947,5.0168908 3.79296763,5.11678202 C3.9056058,5.21667323 3.97320915,5.33863289 3.99577767,5.48266101 C4.24740146,5.34318366 5.17914073,5.29666881 5.48201926,5.40106322 C5.78489778,5.50545762 5.04219188,5.70796541 4.89161338,5.79143244 C4.74103489,5.87489946 4.77715465,5.84970611 4.60628387,6.06981772 C3.99878852,6.90952627 3.46457464,6.71832014 3.32113296,6.725077 C3.17769129,6.73183385 2.97890426,6.54328998 2.69039529,6.77600608 C2.49805598,6.93115014 2.20293352,6.97185036 1.80502792,6.89810674 C2.36498097,6.65912981 2.5083643,6.44623425 2.2351779,6.25942006 C1.82539831,5.97919876 1.87590449,4.80991308 1.70749325,4.34390416 C1.539082,3.87789523 1.17097862,3.88051306 1.12167751,3.7915715 C1.0723764,3.70262995 1.03203118,3.5878431 1.09696701,3.55184858 C1.16190284,3.51585406 1.57275648,3.80883829 1.74305087,3.97624278 C1.91334526,4.14364728 1.92332226,3.69596608 1.97158575,3.53405391 Z M3.36396373,0.885967389 C3.30150704,1.49157168 3.41819608,1.72019138 3.71403085,1.57182649 C4.15778301,1.34927916 5.15597742,1.96033381 5.6452054,2.03896363 C6.13443339,2.11759344 6.31060384,1.79437382 6.41229553,1.79437382 C6.51398722,1.79437382 6.63394181,1.81473687 6.63394181,1.88898151 C6.63394181,1.96322616 6.17850624,2.18052528 5.94953061,2.2483088 C5.72055498,2.31609232 6.10726884,2.54185855 6.2254818,2.66256732 C6.34369476,2.7832761 6.4520385,3.44161127 6.17850624,3.02746937 C5.90497397,2.61332747 5.32268987,2.33643204 4.82780159,2.29586922 C4.33291332,2.25530641 3.70887853,2.63096145 3.63394018,3.02746937 C3.58398127,3.29180799 3.77912417,3.39975001 4.21936889,3.35129545 C4.18721328,3.39251915 4.10014804,3.43817467 3.95817315,3.488262 C3.81619826,3.53834934 3.67675518,3.53834934 3.53984392,3.488262 C3.53984392,3.77595709 3.12881056,4.61342546 2.89066673,4.82771758 C2.65252291,5.0420097 2.83547657,4.29424675 2.83547657,4.12208221 C2.83547657,3.94991768 2.83999996,3.99372272 2.73032581,3.73756353 C2.29041975,2.79913735 2.71664443,2.42460193 2.78027665,2.29586922 C2.84390888,2.16713652 3.10518693,2.08468135 3.04152077,1.71952272 C2.99907666,1.47608363 3.10655765,1.19823186 3.36396373,0.885967389 Z" id="Combined-Shape" fill="#FF9800" mask="url(#mask-6)"></path>
                            <polygon id="Rectangle" fill="#36C6FF" mask="url(#mask-6)" points="0.325925926 7.75238095 7.60493827 7.75238095 7.60493827 11.2095238 0.325925926 11.2095238"></polygon>
                        </g>
                    </g>
                </g>
                <g id="gb---large" mask="url(#mask-4)">
                    <g id="flag">
                        <mask id="mask-8" fill="white">
                            <use xlink:href="#path-7"></use>
                        </mask>
                        <use id="mask" fill="#2B409A" xlink:href="#path-7"></use>
                        <g id="contents" mask="url(#mask-8)">
                            <g transform="translate(-3.000000, -2.000000)">
                                <g id="stripe">
                                    <polygon id="white" fill="#F7FCFF" fill-rule="nonzero" transform="translate(12.087462, 8.731805) scale(1, -1) translate(-12.087462, -8.731805) " points="0.995733743 2.46378897 4.95668418 0.726588534 21.0898804 13.5748663 23.1791912 16.1563978 18.9435246 16.7370214 12.3631795 11.2003309 7.066678 7.46989524"></polygon>
                                    <polygon id="red" fill="#F50100" fill-rule="nonzero" transform="translate(11.983464, 9.146214) scale(1, -1) translate(-11.983464, -9.146214) " points="1.53799381 2.07548339 3.55591517 1.0673567 22.4289341 17.2250722 19.5955377 17.2250722"></polygon>
                                </g>
                                <g id="stripe" transform="translate(12.000000, 8.500000) scale(-1, 1) translate(-12.000000, -8.500000) ">
                                    <polygon id="white" fill="#F7FCFF" fill-rule="nonzero" transform="translate(12.087462, 8.731805) scale(1, -1) translate(-12.087462, -8.731805) " points="0.995733743 2.46378897 4.95668418 0.726588534 21.0898804 13.5748663 23.1791912 16.1563978 18.9435246 16.7370214 12.3631795 11.2003309 7.066678 7.46989524"></polygon>
                                    <polygon id="red" fill="#F50100" fill-rule="nonzero" transform="translate(12.255557, 9.098760) scale(1, -1) translate(-12.255557, -9.098760) " points="1.13088612 2.32417911 3.14880748 1.31605242 11.1851345 8.23400982 13.567733 9.00693659 23.3802288 16.8814684 20.5468324 16.8814684 10.7398496 9.19384456 8.134898 8.26702255"></polygon>
                                </g>
                                <g id="cross" transform="translate(3.000000, 2.000000)">
                                    <path d="M10.7345755,-0.75 L10.7340639,5.25 L18.75,5.25 L18.75,8.75 L10.7340639,8.75 L10.7345755,14.75 L7.23457546,14.75 L7.23406394,8.75 L-0.75,8.75 L-0.75,5.25 L7.23406394,5.25 L7.23457546,-0.75 L10.7345755,-0.75 Z" id="red" stroke="#F7FCFF" stroke-width="1.5" fill="#F50100"></path>
                                </g>
                            </g>
                        </g>
                    </g>
                </g>
            </g>
        </g>
    </g>
</svg>