<?xml version="1.0" encoding="UTF-8"?>
<svg width="32px" height="24px" viewBox="0 0 32 24" version="1.1" xmlns="http://www.w3.org/2000/svg" xmlns:xlink="http://www.w3.org/1999/xlink">
    <title>flags/L/BO - Bolivia</title>
    <defs>
        <rect id="path-1" x="0" y="0" width="32" height="24"></rect>
        <rect id="path-3" x="0" y="0" width="32" height="24"></rect>
        <ellipse id="path-5" cx="1.85407725" cy="2.08955224" rx="1.85407725" ry="2.08955224"></ellipse>
    </defs>
    <g id="Symbols" stroke="none" stroke-width="1" fill="none" fill-rule="evenodd">
        <g id="flag">
            <mask id="mask-2" fill="white">
                <use xlink:href="#path-1"></use>
            </mask>
            <g id="mask"></g>
            <g id="contents" mask="url(#mask-2)">
                <mask id="mask-4" fill="white">
                    <use xlink:href="#path-3"></use>
                </mask>
                <use id="background" fill="#FECA00" xlink:href="#path-3"></use>
                <rect id="top" fill="#DB501C" mask="url(#mask-4)" x="0" y="0" width="32" height="8"></rect>
                <rect id="bottom" fill="#5EAA22" mask="url(#mask-4)" x="0" y="16" width="32" height="8"></rect>
                <g id="mark" mask="url(#mask-4)">
                    <g transform="translate(10.000000, 7.000000)">
                        <g id="left" stroke-width="1" fill="none" fill-rule="evenodd" transform="translate(0.000000, 2.089552)">
                            <g id="spears" fill-rule="nonzero">
                                <polygon id="Path-10" fill="#864C26" points="2.44606399 0.869508815 2.48240435 0.834254999 9.70204177 7.7789907 9.66570141 7.81424452"></polygon>
                                <polygon id="Path-11" fill="#864C26" points="10.2213264 7.32777945 10.1901531 7.36738195 1.79103071 1.19784685 1.82220409 1.15824435"></polygon>
                                <polygon id="Path-12" fill="#A05A2C" points="10.3982056 6.71208933 10.3729228 6.75543323 1.02997361 1.66989132 1.05525634 1.62654743"></polygon>
                                <path d="M0,1.09452736 L0.804574662,1.36353125 L0.573313503,1.63253513 L0,1.09452736 Z M0.767441346,1.16703033 L0.882295738,1.27150019 C1.06480712,1.43750984 1.12242865,1.57584001 1.04400251,1.6838643 C0.96740158,1.78937455 0.807902095,1.80994459 0.569258714,1.75137999 L0.472281125,1.72758107 L0.56910336,1.70319903 C0.647992972,1.68333284 0.712998252,1.65607409 0.764331545,1.62155484 L0.72345079,1.62027833 C0.673251235,1.62027833 0.632488206,1.58732048 0.600026052,1.5252082 L0.569263906,1.55937334 L0.20197562,1.21470337 L0.717419346,1.38703835 L0.715,1.38820996 L0.747918946,1.39529646 C0.77415559,1.40174623 0.801928606,1.40938715 0.83124526,1.41821773 C0.853783357,1.42500652 0.871175732,1.43582748 0.883541035,1.45030494 C0.886437302,1.40692685 0.872824689,1.35703603 0.841944224,1.30135869 L0.767441346,1.16703033 Z M0.753341345,0.551746471 L1.53140912,0.889850014 L1.49489453,0.923663194 C1.51348693,0.930344408 1.53278691,0.937679417 1.55279705,0.945667926 C1.57440928,0.954296029 1.59066773,0.966411852 1.60171825,0.98166374 C1.60883521,0.939110245 1.59962267,0.888222857 1.57371231,0.830065976 L1.51120042,0.689755424 L1.61651261,0.803837963 C1.78386079,0.985122818 1.82920678,1.12794865 1.74166414,1.22872658 C1.65615888,1.32715912 1.49547354,1.33374959 1.26284251,1.2546087 L1.16830816,1.2224482 L1.26688699,1.20659755 C1.34750669,1.19363459 1.41484089,1.17203318 1.46909185,1.14194507 L1.42780203,1.13756472 C1.39165803,1.13440253 1.36192521,1.11451905 1.33805128,1.07930744 L1.27758275,1.13767452 L0.753341345,0.551746471 Z M1.60179157,0.0226702339 L2.30932769,0.490747277 L2.26855358,0.516998757 C2.28506489,0.526474993 2.30211406,0.536658108 2.31970338,0.547548239 C2.34008859,0.560169397 2.35423406,0.575449736 2.36236369,0.593038197 C2.37615339,0.55118333 2.37600649,0.499222605 2.36049716,0.437083618 L2.32329965,0.288049624 L2.40720168,0.418686263 C2.54052768,0.626276699 2.56038332,0.774806931 2.45667074,0.858852203 C2.35537187,0.940941495 2.19598327,0.919529128 1.9806291,0.801194615 L1.89311556,0.75310698 L1.99294919,0.754615178 C2.07441398,0.755845877 2.14434648,0.746310294 2.2029184,0.726191757 L2.16328479,0.714824528 C2.1289278,0.705618601 2.10342945,0.681656316 2.08604936,0.644139989 L2.01632323,0.690730282 L1.60179157,0.0226702339 Z" id="Combined-Shape" fill="#E7E7E7"></path>
                            </g>
                            <g id="flags" transform="translate(0.927039, 0.149254)">
                                <polygon id="Path-15" fill="#925229" points="2.54433823 6.97438553 3.37901292 5.48563351 4.54994677 5.80092509 3.70728687 7.15969753 3.37901292 7.15969753 3.37901292 7.30789854"></polygon>
                                <path d="M2.18647229,1.24984747 L1.63398699,1.82402045 L1.43296038,5.61819658 L3.42379948,5.90842442 C2.84543975,5.4006413 2.51363323,4.99006315 2.42837993,4.67668998 C2.30049998,4.20663023 2.25970341,2.4518003 2.50161105,2.18498978 C2.62757646,2.25853266 2.69055916,2.2953041 2.69055916,2.2953041 L2.84259609,1.84384765" id="Path-2" fill="#FFE000"></path>
                                <path d="M0.262191578,1.50858024 C0.119558416,3.48368523 0.048241835,4.64467816 0.048241835,4.99155903 C0.048241835,5.51188034 0.489993573,6.75087659 1.49698482,6.75087659 C2.50397607,6.75087659 3.88573834,6.19653082 3.88573834,5.97043543 C3.88573834,5.81970516 3.74822939,5.69035238 3.47321148,5.58237707 C2.23861532,5.66679907 1.62131724,5.46985973 1.62131724,4.99155903 C1.62131724,4.27410799 1.7471278,2.15039417 1.85705894,1.89998393 C1.93034637,1.73304377 2.09401131,1.52370222 2.34805375,1.27195929 L1.62131724,0.731892371 L1.49698482,1.27195929 L1.03099164,1.11342325 L0.888837113,1.89998393 L0.262191578,1.50858024 Z" id="Path" fill="#D52C1E"></path>
                                <path d="M2.84947392,1.8373377 L2.71561159,2.25636998 L2.44512041,2.14224305 C2.17555139,3.40636526 2.17555139,4.30320407 2.44512041,4.83275948 C2.71468942,5.36231489 3.18893974,5.64630608 3.86787136,5.68473306 L3.43761306,2.25636998 L2.84947392,1.8373377 Z" id="Path-7" fill="#027934"></path>
                                <path d="M2.7900564,4.39945374 L1.81957024,5.16694061 C1.64213506,5.42127135 1.64213506,5.64470664 1.81957024,5.83724648 C2.085723,6.12605623 2.82369489,6.42051463 2.99779766,6.07187783 C3.11386617,5.8394533 3.34430555,5.58711787 3.68911579,5.31487154 L2.7900564,4.39945374 Z" id="Path-16" fill="#E8A30C"></path>
                                <ellipse id="Oval-3" fill="#E1E5E8" transform="translate(3.388564, 1.315954) rotate(-41.000000) translate(-3.388564, -1.315954) " cx="3.3885639" cy="1.31595397" rx="1" ry="1"></ellipse>
                                <path d="M2.95629971,0.064513505 C2.89292973,0.051537588 2.84690869,0.0428766954 2.81823657,0.0385308273 C2.51126958,-0.00799653691 2.35778608,0.0545998047 2.35778608,0.226319852 C2.35778608,0.519988654 2.55345521,0.837102369 2.55345521,1.05891798 C2.55345521,1.28073359 2.56294944,1.62596905 2.6570429,1.45335132 C2.71977187,1.33827283 2.91067292,1.10777451 3.22974605,0.761856351 L2.95629971,0.311778385 C3.40883696,0.362676928 3.535762,0.33419075 3.33707484,0.226319852" id="Path-17" fill="#D52C1E"></path>
                            </g>
                            <g id="Group" transform="translate(4.841202, 6.069652)">
                                <path d="M0.341470882,0.094267706 L0.827205528,0.246726941 C1.07122314,0.718968717 0.94893164,1.20798026 0.478224218,1.69362312 C0.387239201,1.76301925 0.332263378,1.79001312 0.313296749,1.77460472 C0.286741401,1.75303129 0.273434258,1.67056469 0.273375322,1.52720491 C0.478224218,0.970175032 0.240056023,0.479763941 0.341470882,0.094267706 Z" id="Path-20" fill="#D52C1E" transform="translate(0.611582, 0.936536) scale(-1, 1) rotate(-18.000000) translate(-0.611582, -0.936536) "></path>
                                <path d="M0.483973075,0.234354463 L0.667032539,0.149253731 C0.847467865,0.524067858 0.757041169,0.912191998 0.408983311,1.29764245 L0.25751073,1.16555779 C0.408983311,0.723448091 0.408983311,0.54031942 0.483973075,0.234354463 Z" id="Path-20" fill="#FFE000"></path>
                                <path d="M0.250214318,0.222367109 L0.441209579,0.166476232 C0.533060782,0.48035831 0.487192881,0.804227879 0.306815283,1.13284259 L0.132363209,1.03708533 C0.288312817,0.752973905 0.326526718,0.483148614 0.250214318,0.222367109 Z" id="Path-20" fill="#027934" fill-rule="nonzero"></path>
                            </g>
                        </g>
                        <g id="right" stroke-width="1" fill="none" fill-rule="evenodd" transform="translate(6.798283, 6.044776) scale(-1, 1) translate(-6.798283, -6.044776) translate(1.596567, 2.089552)">
                            <g id="spears" fill-rule="nonzero">
                                <polygon id="Path-10" fill="#864C26" points="2.44606399 0.869508815 2.48240435 0.834254999 9.70204177 7.7789907 9.66570141 7.81424452"></polygon>
                                <polygon id="Path-11" fill="#864C26" points="10.2213264 7.32777945 10.1901531 7.36738195 1.79103071 1.19784685 1.82220409 1.15824435"></polygon>
                                <polygon id="Path-12" fill="#A05A2C" points="10.3982056 6.71208933 10.3729228 6.75543323 1.02997361 1.66989132 1.05525634 1.62654743"></polygon>
                                <path d="M0,1.09452736 L0.804574662,1.36353125 L0.573313503,1.63253513 L0,1.09452736 Z M0.767441346,1.16703033 L0.882295738,1.27150019 C1.06480712,1.43750984 1.12242865,1.57584001 1.04400251,1.6838643 C0.96740158,1.78937455 0.807902095,1.80994459 0.569258714,1.75137999 L0.472281125,1.72758107 L0.56910336,1.70319903 C0.647992972,1.68333284 0.712998252,1.65607409 0.764331545,1.62155484 L0.72345079,1.62027833 C0.673251235,1.62027833 0.632488206,1.58732048 0.600026052,1.5252082 L0.569263906,1.55937334 L0.20197562,1.21470337 L0.717419346,1.38703835 L0.715,1.38820996 L0.747918946,1.39529646 C0.77415559,1.40174623 0.801928606,1.40938715 0.83124526,1.41821773 C0.853783357,1.42500652 0.871175732,1.43582748 0.883541035,1.45030494 C0.886437302,1.40692685 0.872824689,1.35703603 0.841944224,1.30135869 L0.767441346,1.16703033 Z M0.753341345,0.551746471 L1.53140912,0.889850014 L1.49489453,0.923663194 C1.51348693,0.930344408 1.53278691,0.937679417 1.55279705,0.945667926 C1.57440928,0.954296029 1.59066773,0.966411852 1.60171825,0.98166374 C1.60883521,0.939110245 1.59962267,0.888222857 1.57371231,0.830065976 L1.51120042,0.689755424 L1.61651261,0.803837963 C1.78386079,0.985122818 1.82920678,1.12794865 1.74166414,1.22872658 C1.65615888,1.32715912 1.49547354,1.33374959 1.26284251,1.2546087 L1.16830816,1.2224482 L1.26688699,1.20659755 C1.34750669,1.19363459 1.41484089,1.17203318 1.46909185,1.14194507 L1.42780203,1.13756472 C1.39165803,1.13440253 1.36192521,1.11451905 1.33805128,1.07930744 L1.27758275,1.13767452 L0.753341345,0.551746471 Z M1.60179157,0.0226702339 L2.30932769,0.490747277 L2.26855358,0.516998757 C2.28506489,0.526474993 2.30211406,0.536658108 2.31970338,0.547548239 C2.34008859,0.560169397 2.35423406,0.575449736 2.36236369,0.593038197 C2.37615339,0.55118333 2.37600649,0.499222605 2.36049716,0.437083618 L2.32329965,0.288049624 L2.40720168,0.418686263 C2.54052768,0.626276699 2.56038332,0.774806931 2.45667074,0.858852203 C2.35537187,0.940941495 2.19598327,0.919529128 1.9806291,0.801194615 L1.89311556,0.75310698 L1.99294919,0.754615178 C2.07441398,0.755845877 2.14434648,0.746310294 2.2029184,0.726191757 L2.16328479,0.714824528 C2.1289278,0.705618601 2.10342945,0.681656316 2.08604936,0.644139989 L2.01632323,0.690730282 L1.60179157,0.0226702339 Z" id="Combined-Shape" fill="#E7E7E7"></path>
                            </g>
                            <g id="flags" transform="translate(0.927039, 0.845771)">
                                <polygon id="Path-15" fill="#925229" points="2.54433823 6.27786812 3.37901292 4.7891161 4.54994677 5.10440767 3.70728687 6.46318012 3.37901292 6.46318012 3.37901292 6.61138112"></polygon>
                                <path d="M2.18647229,0.553330058 L1.63398699,1.12750303 L1.43296038,4.92167917 L3.42379948,5.21190701 C2.84543975,4.70412389 2.51363323,4.29354574 2.42837993,3.98017257 C2.30049998,3.51011281 2.25970341,1.75528289 2.50161105,1.48847237 C2.62757646,1.56201525 2.69055916,1.59878669 2.69055916,1.59878669 L2.84259609,1.14733024" id="Path-2" fill="#FFE000"></path>
                                <path d="M0.262191578,0.812062828 C0.119558416,2.78716782 0.048241835,3.94816075 0.048241835,4.29504162 C0.048241835,4.81536293 0.489993573,6.05435918 1.49698482,6.05435918 C2.50397607,6.05435918 3.88573834,5.50001341 3.88573834,5.27391801 C3.88573834,5.12318775 3.74822939,4.99383496 3.47321148,4.88585966 C2.23861532,4.97028166 1.62131724,4.77334231 1.62131724,4.29504162 C1.62131724,3.57759058 1.7471278,1.45387676 1.85705894,1.20346652 C1.93034637,1.03652636 2.09401131,0.827184811 2.34805375,0.575441878 L1.62131724,0.0353749578 L1.49698482,0.575441878 L1.03099164,0.416905842 L0.888837113,1.20346652 L0.262191578,0.812062828 Z" id="Path" fill="#D52C1E"></path>
                                <path d="M2.84947392,1.14082029 L2.71561159,1.55985257 L2.44512041,1.44572564 C2.17555139,2.70984785 2.17555139,3.60668666 2.44512041,4.13624207 C2.71468942,4.66579747 3.18893974,4.94978867 3.86787136,4.98821565 L3.43761306,1.55985257 L2.84947392,1.14082029 Z" id="Path-7" fill="#027934"></path>
                                <path d="M2.7900564,3.70293633 L1.81957024,4.47042319 C1.64213506,4.72475394 1.64213506,4.94818923 1.81957024,5.14072907 C2.085723,5.42953882 2.82369489,5.72399722 2.99779766,5.37536042 C3.11386617,5.14293589 3.34430555,4.89060045 3.68911579,4.61835413 L2.7900564,3.70293633 Z" id="Path-16" fill="#E8A30C"></path>
                                <ellipse id="Oval-3" fill="#E1E5E8" transform="translate(3.388564, 0.619437) rotate(-41.000000) translate(-3.388564, -0.619437) " cx="3.3885639" cy="0.619436553" rx="1" ry="1"></ellipse>
                            </g>
                            <g id="Group" transform="translate(4.841202, 6.069652)">
                                <path d="M0.341470882,0.094267706 L0.827205528,0.246726941 C1.07122314,0.718968717 0.94893164,1.20798026 0.478224218,1.69362312 C0.387239201,1.76301925 0.332263378,1.79001312 0.313296749,1.77460472 C0.286741401,1.75303129 0.273434258,1.67056469 0.273375322,1.52720491 C0.478224218,0.970175032 0.240056023,0.479763941 0.341470882,0.094267706 Z" id="Path-20" fill="#D52C1E" transform="translate(0.611582, 0.936536) scale(-1, 1) rotate(-18.000000) translate(-0.611582, -0.936536) "></path>
                                <path d="M0.483973075,0.234354463 L0.667032539,0.149253731 C0.847467865,0.524067858 0.757041169,0.912191998 0.408983311,1.29764245 L0.25751073,1.16555779 C0.408983311,0.723448091 0.408983311,0.54031942 0.483973075,0.234354463 Z" id="Path-20" fill="#FFE000"></path>
                                <path d="M0.250214318,0.222367109 L0.441209579,0.166476232 C0.533060782,0.48035831 0.487192881,0.804227879 0.306815283,1.13284259 L0.132363209,1.03708533 C0.288312817,0.752973905 0.326526718,0.483148614 0.250214318,0.222367109 Z" id="Path-20" fill="#027934" fill-rule="nonzero"></path>
                            </g>
                        </g>
                        <g id="middl" stroke-width="1" fill="none" fill-rule="evenodd" transform="translate(3.553648, 3.184080)">
                            <path d="M2.42060086,4.72636816 C3.44457945,4.72636816 4.27467811,3.79084376 4.27467811,2.63681592 C4.27467811,1.48278808 3.44457945,0.547263682 2.42060086,0.547263682 C1.39662227,0.547263682 0.566523605,1.48278808 0.566523605,2.63681592 C0.566523605,3.79084376 1.39662227,4.72636816 2.42060086,4.72636816 Z M2.42060086,5.27363184 C1.06269227,5.27363184 0,4.07597354 0,2.63681592 C0,1.1976583 1.06269227,0 2.42060086,0 C3.77850945,0 4.84120172,1.1976583 4.84120172,2.63681592 C4.84120172,4.07597354 3.77850945,5.27363184 2.42060086,5.27363184 Z" id="Oval" fill="#00A6DE" fill-rule="nonzero"></path>
                            <g id="middle" transform="translate(0.566524, 0.547264)">
                                <mask id="mask-6" fill="white">
                                    <use xlink:href="#path-5"></use>
                                </mask>
                                <use id="Mask" fill="#FFC036" xlink:href="#path-5"></use>
                                <polygon id="Star-2" fill="#D52C1E" mask="url(#mask-6)" points="1.85407725 1.71641791 1.61341084 2.21261125 1.61944484 1.66468523 1.17974494 2.01086871 1.43128426 1.51973348 0.879638821 1.64734122 1.32686302 1.31027213 0.772532189 1.19402985 1.32686302 1.07778757 0.879638821 0.740718482 1.43128426 0.868326223 1.17974494 0.377190988 1.61944484 0.723374472 1.61341084 0.17544845 1.85407725 0.671641791 2.09474367 0.17544845 2.08870966 0.723374472 2.52840957 0.377190988 2.27687024 0.868326223 2.82851569 0.740718482 2.38129149 1.07778757 2.93562232 1.19402985 2.38129149 1.31027213 2.82851569 1.64734122 2.27687024 1.51973348 2.52840957 2.01086871 2.08870966 1.66468523 2.09474367 2.21261125"></polygon>
                                <path d="M-0.0790153746,2.20970357 C0.887635375,1.52907222 1.489691,1.18875654 1.72715149,1.18875654 C2.08334224,1.18875654 3.60285887,2.21529148 3.91371624,2.35492841 C4.12095449,2.4480197 4.12095449,3.40731754 3.91371624,5.23282193 L-0.199170805,5.23282193 L-0.0790153746,2.20970357 Z" id="Path-6" fill="#027934" mask="url(#mask-6)"></path>
                            </g>
                            <path d="M2.43749467,0.258337122 C3.32938605,0.307877398 3.99748113,0.794787526 4.43708975,1.71251535 L4.34360859,1.75430162 C3.91922149,0.868350281 3.28344258,0.404992302 2.43453818,0.357757568 C1.67631733,0.357757568 1.0547063,0.766661471 0.566180834,1.59115367 L0.476784463,1.54172513 C0.982449293,0.688306558 1.63620862,0.25825508 2.43749467,0.258337122 Z" id="Path-9" fill="#FFC036" fill-rule="nonzero"></path>
                        </g>
                        <g id="top" stroke-width="1" fill="none" fill-rule="evenodd" transform="translate(2.678112, 0.000000)">
                            <path d="M2.00525694,0.00699343776 L2.20400697,0.151610897 C1.69455544,0.608702866 1.59882365,1.11841996 1.69636736,1.55631821 C1.79798906,2.01252363 2.24972668,2.499168 3.07100573,2.99889714 L2.76906477,3.46195509 C1.83124988,2.89131661 1.2911632,2.36329459 1.15109078,1.73447426 C1.00694037,1.08734677 1.36081394,0.585202941 2.00525694,0.00699343776 Z" id="Path-8" fill="#036A2D" fill-rule="nonzero"></path>
                            <path d="M4.52886209,0.00699343776 L4.72761212,0.151610897 C4.21816059,0.608702866 4.1224288,1.11841996 4.21997251,1.55631821 C4.32159421,2.01252363 4.77333183,2.499168 5.59461088,2.99889714 L5.29266992,3.46195509 C4.35485503,2.89131661 3.81476835,2.36329459 3.67469593,1.73447426 C3.53054552,1.08734677 3.88441909,0.585202941 4.52886209,0.00699343776 Z" id="Path-8" fill="#036A2D" fill-rule="nonzero" transform="translate(4.618678, 1.734474) scale(-1, 1) translate(-4.618678, -1.734474) "></path>
                            <path d="M0.0969799594,1.8615104 C0.676609922,1.4607603 1.10393402,1.26038525 1.37895226,1.26038525 C1.79147961,1.26038525 2.34208197,1.12269193 2.42841028,1.43895531 C2.5147386,1.7552187 2.67790099,1.66362561 2.99743521,1.66362561 C3.21045803,1.66362561 3.52626162,1.66362561 3.944846,1.66362561 C3.81984915,1.3947987 3.87318868,1.26038525 4.10486462,1.26038525 C4.45237852,1.26038525 5.90380078,1.46574082 6.34191854,1.66362561 C6.63399705,1.79554881 6.7873718,1.90050427 6.80204279,1.97849202 C6.53176119,1.82251653 6.24710201,1.78352266 5.94806526,1.8615104 C5.49951014,1.97849202 4.68602455,2.49355126 4.31543528,2.49355126 C4.06837576,2.49355126 3.84598447,2.62626405 3.64826141,2.89168963 C3.66456717,2.75563624 3.56017258,2.7216229 3.33507763,2.78964959 C2.99743521,2.89168963 3.00535755,3.37237109 2.71688392,3.28411861 C2.42841028,3.19586612 2.80000557,2.49355126 2.71688392,2.49355126 C2.66146948,2.49355126 2.43744342,2.41660609 2.04480574,2.26271574 C1.66382102,1.91725777 1.19045096,1.78352266 0.624695566,1.8615104 C0.0589401712,1.93949815 -0.116965031,1.93949815 0.0969799594,1.8615104 Z" id="Path-13" fill="#452C24"></path>
                            <ellipse id="Oval-2" fill="#E7E7E7" cx="3.19313305" cy="2.01492537" rx="1" ry="1"></ellipse>
                            <path d="M2.52561609,2.00716041 C2.5922224,1.88118955 2.69154502,1.81820412 2.82358395,1.81820412 C3.02164235,1.81820412 3.39298614,1.81820412 3.39298614,1.91268227 C3.39298614,2.00716041 3.42278921,2.13058027 3.12318658,2.13058027 C2.82358395,2.13058027 3.01554341,2.00716041 2.82358395,2.00716041 C2.69561098,2.00716041 2.59628836,2.00716041 2.52561609,2.00716041 Z" id="Path-14" fill="#E8A30C"></path>
                        </g>
                        <path d="M8.73633505,3.28338975 C8.8130853,3.20301298 8.87290103,3.06536015 8.91578225,2.87043129 C8.57302594,2.92529805 8.36174269,2.92529805 8.28193249,2.87043129 C8.20212229,2.81556452 8.14153109,2.70773411 8.10015889,2.54694007 C7.79131353,2.68805496 7.69578441,2.75861241 7.81357152,2.75861241 C7.93135864,2.75861241 8.02688776,2.81079658 8.10015889,2.91516491 L8.45961917,3.04760438 C8.30051012,3.20479463 8.26073286,3.28338975 8.34028738,3.28338975 C8.45961917,3.28338975 8.62120967,3.40395492 8.73633505,3.28338975 Z" id="Path-18" fill="#E1E5E8" fill-rule="evenodd"></path>
                        <polygon id="Path-19" fill="#925229" fill-rule="nonzero" points="7.83074576 3.3838322 7.76601711 3.30648864 8.2177019 2.95293205 8.28243055 3.03027561"></polygon>
                    </g>
                </g>
            </g>
        </g>
    </g>
</svg>