<?xml version="1.0" encoding="UTF-8"?>
<svg width="32px" height="24px" viewBox="0 0 32 24" version="1.1" xmlns="http://www.w3.org/2000/svg" xmlns:xlink="http://www.w3.org/1999/xlink">
    <title>flags/L/BQ-BO - Bonaire</title>
    <defs>
        <rect id="path-1" x="0" y="0" width="32" height="24"></rect>
    </defs>
    <g id="Symbols" stroke="none" stroke-width="1" fill="none" fill-rule="evenodd">
        <g id="flag">
            <mask id="mask-2" fill="white">
                <use xlink:href="#path-1"></use>
            </mask>
            <g id="mask"></g>
            <g id="contents" mask="url(#mask-2)">
                <polygon id="bg" fill="#FFFFFF" points="0 0 32 0 32 24 0 24"></polygon>
                <polygon id="Path-448" fill="#FEDA00" points="0 10.9333333 0 0 16 0"></polygon>
                <polygon id="Path-451" fill="#00268D" points="2.98427949e-13 24 32.0090023 24 32.0090023 0"></polygon>
                <path d="M9.3421363,5.91307963 L9.61793688,6.50459611 C10.6689318,6.57298952 11.6091494,7.04720003 12.2839683,7.77171585 C12.9518597,8.48879394 13.3597798,9.45130353 13.3573135,10.5091452 L13.3573135,10.5091452 L13.8897446,10.8331259 L13.3090289,11.1241553 C13.1671519,12.0314518 12.720334,12.8375724 12.0770683,13.4348656 C11.4337805,14.0321794 10.5938227,14.4207127 9.66498716,14.492064 L9.66498716,14.492064 L9.35353533,15.1145679 L9.04246884,14.4921246 C8.11326684,14.4209286 7.27297246,14.0323042 6.6294881,13.4347632 C5.98601099,12.837229 5.53913082,12.0307216 5.39745884,11.1230101 L5.39745884,11.1230101 L4.88439698,10.8663297 L5.35147381,10.6322101 C5.31654975,9.54958641 5.7116297,8.55944036 6.37887446,7.81953283 C7.04772448,7.07784521 7.9899738,6.58732107 9.04701094,6.50752966 L9.04701094,6.50752966 L9.3421363,5.91307963 Z" id="Combined-Shape" stroke="#000000" stroke-width="0.791999975" fill="#FFFFFF"></path>
                <polygon id="Path-450" fill="#F00A17" points="9.37579518 8.3 8.7267643 9.38906063 7.44666667 9.38906063 8.08497406 10.5332357 7.44666667 11.6307285 8.7267643 11.6307285 9.37579518 12.7504626 10.0347247 11.6307285 11.3033045 11.6307285 10.6806088 10.5332357 11.3033045 9.38906063 10.0347247 9.38906063"></polygon>
            </g>
        </g>
    </g>
</svg>