<?xml version="1.0" encoding="UTF-8"?>
<svg width="32px" height="24px" viewBox="0 0 32 24" version="1.1" xmlns="http://www.w3.org/2000/svg" xmlns:xlink="http://www.w3.org/1999/xlink">
    <title>flags/L/BQ-SE - Sint Eustatius</title>
    <defs>
        <rect id="path-1" x="0" y="0" width="32" height="24"></rect>
        <polygon id="path-3" points="16 7 26 12 16 17 6 12"></polygon>
    </defs>
    <g id="Symbols" stroke="none" stroke-width="1" fill="none" fill-rule="evenodd">
        <g id="flag">
            <mask id="mask-2" fill="white">
                <use xlink:href="#path-1"></use>
            </mask>
            <g id="mask"></g>
            <g id="contents" mask="url(#mask-2)">
                <polygon id="bg" fill="#00268D" points="0 0 32 0 32 24 0 24"></polygon>
                <path d="M31,1 L31,23 L1,23 L1,1 L31,1 Z" id="bg" stroke="#E31D1C" stroke-width="2" fill="#00268D"></path>
                <rect id="Rectangle" fill="#E31D1C" fill-rule="nonzero" x="15" y="0" width="2" height="24"></rect>
                <rect id="Rectangle" fill="#E31D1C" fill-rule="nonzero" transform="translate(16.000000, 12.000000) rotate(-90.000000) translate(-16.000000, -12.000000) " x="15" y="-4" width="2" height="32"></rect>
                <mask id="mask-4" fill="white">
                    <use xlink:href="#path-3"></use>
                </mask>
                <path stroke="#E31D1C" stroke-width="2" d="M16,5.88196601 L28.236068,12 L16,18.118034 L3.76393202,12 L16,5.88196601 Z"></path>
                <path d="M11.608833,16 C11.7881705,16 16.2518928,16 25,16 L23.5841003,14.7238513 C21.6965596,13.0416296 20.6920607,12.1619709 20.5706036,12.0848753 C20.388418,11.9692319 20.0874076,11.9193217 19.744858,12.2868691 C19.4023084,12.6544166 19.2058793,12.0848753 18.9207001,12.0848753 C18.6355209,12.0848753 18.5149283,12.0848753 18.1011406,12.5564502 C17.8252821,12.8708334 17.1906644,13.5933005 16.1972875,14.7238513 L14.0075234,14.7238513 C13.7612561,14.5381404 13.5679493,14.4784163 13.427603,14.5446792 C13.2170835,14.6440734 12.0312277,13.4452433 11.608833,13.3556755 C11.1864384,13.2661077 10.9085183,13.6806453 10.9085183,14.0105133 C10.9085183,14.3403813 10.7097623,13.7082366 10.3056163,13.8937945 C10.0361857,14.0174998 9.94490212,14.2344614 10.0317656,14.5446792 C10.9038065,15.5148931 11.4294956,16 11.608833,16 Z" id="Path-452" fill="#059334" fill-rule="nonzero" mask="url(#mask-4)"></path>
                <polygon id="Star" fill="#FEDA00" mask="url(#mask-4)" points="15.504767 11.3012312 14.5784533 12 14.918366 10.8457238 14 10.1391491 15.144135 10.1391491 15.504767 9 15.8870174 10.1391491 17 10.1391491 16.0896306 10.8457238 16.4356756 12"></polygon>
            </g>
        </g>
    </g>
</svg>