<?xml version="1.0" encoding="UTF-8"?>
<svg width="32px" height="24px" viewBox="0 0 32 24" version="1.1" xmlns="http://www.w3.org/2000/svg" xmlns:xlink="http://www.w3.org/1999/xlink">
    <title>flags/L/BY - Belarus</title>
    <defs>
        <rect id="path-1" x="0" y="0" width="32" height="24"></rect>
    </defs>
    <g id="Symbols" stroke="none" stroke-width="1" fill="none" fill-rule="evenodd">
        <g id="flag">
            <mask id="mask-2" fill="white">
                <use xlink:href="#path-1"></use>
            </mask>
            <g id="mask"></g>
            <g id="contents" mask="url(#mask-2)">
                <polygon id="middle" fill="#73BE4A" points="0 0 32 0 32 24 0 24"></polygon>
                <rect id="top" fill="#AF0100" x="0" y="0" width="32" height="16"></rect>
                <rect id="Rectangle-11" fill="#F7FCFF" x="0" y="0" width="6" height="24"></rect>
                <g id="mark" fill="#B20000">
                    <g id="top">
                        <path d="M1.89683664,0.0568294942 L3.31206746,2.2359995 L1.89679577,4.31536214 L0.444211847,2.23606016 L1.89683664,0.0568294942 Z M1.89144914,0.97542857 L1.05578815,2.22908887 L1.89149001,3.42535471 L2.7056603,2.22914954 L1.89144914,0.97542857 Z M2,2.06451613 L2,2.58064516 L1.75,2.58064516 L1.75,2.06451613 L2,2.06451613 Z" id="Path-428" fill-rule="nonzero"></path>
                        <path d="M1.13705739,4.18586175 L1.81206746,5.17652424 L1.1370379,6.12181376 L0.444211847,5.17655182 L1.13705739,4.18586175 Z M1.14809197,4.70300285 L0.832997339,5.16806142 L1.14892956,5.61712466 L1.46111256,5.19334105 L1.14809197,4.70300285 Z" id="Path-428" fill-rule="nonzero"></path>
                        <path d="M2.63705739,4.18586175 L3.31206746,5.17652424 L2.6370379,6.12181376 L1.94421185,5.17655182 L2.63705739,4.18586175 Z M2.64809197,4.70300285 L2.33299734,5.16806142 L2.64892956,5.61712466 L2.96111256,5.19334105 L2.64809197,4.70300285 Z" id="Path-428" fill-rule="nonzero"></path>
                        <path d="M3.63705739,4.18586175 L4.31206746,5.17652424 L3.6370379,6.12181376 L2.94421185,5.17655182 L3.63705739,4.18586175 Z M3.64809197,4.70300285 L3.33299734,5.16806142 L3.64892956,5.61712466 L3.96111256,5.19334105 L3.64809197,4.70300285 Z" id="Path-428" fill-rule="nonzero"></path>
                        <path d="M5.13705739,4.18586175 L5.81206746,5.17652424 L5.1370379,6.12181376 L4.44421185,5.17655182 L5.13705739,4.18586175 Z M5.14809197,4.70300285 L4.83299734,5.16806142 L5.14892956,5.61712466 L5.46111256,5.19334105 L5.14809197,4.70300285 Z" id="Path-428" fill-rule="nonzero"></path>
                        <path d="M4.39683664,0.0568294942 L5.81206746,2.2359995 L4.39679577,4.31536214 L2.94421185,2.23606016 L4.39683664,0.0568294942 Z M4.39144914,0.97542857 L3.55578815,2.22908887 L4.39149001,3.42535471 L5.2056603,2.22914954 L4.39144914,0.97542857 Z M4.5,2.06451613 L4.5,2.58064516 L4.25,2.58064516 L4.25,2.06451613 L4.5,2.06451613 Z" id="Path-428" fill-rule="nonzero"></path>
                        <polygon id="Path-429" fill-rule="nonzero" points="1.6561792 12.4060984 0.0370201768 9.68705608 0.462979823 9.41677318 1.63676352 11.3878999 3.06898533 8.75592898 4.53678902 11.3941739 5.57387793 9.67285994 5.99846114 9.94544077 4.51969888 12.3998245 3.07380222 9.80095546"></polygon>
                        <polygon id="Path" points="0.75 0.516129032 1.0188172 0.516129032 1.0188172 1.03225806 0.75 1.03225806"></polygon>
                        <polygon id="Path" points="3 0 3.2688172 0 3.2688172 0.516129032 3 0.516129032"></polygon>
                        <polygon id="Path" points="5.25 0.516129032 5.5188172 0.516129032 5.5188172 1.03225806 5.25 1.03225806"></polygon>
                        <path d="M1,3.61290323 L1,4.12903226 L0.75,4.12903226 L0.75,3.61290323 L1,3.61290323 Z M3.25,3.61290323 L3.25,4.12903226 L3,4.12903226 L3,3.61290323 L3.25,3.61290323 Z M5.5,3.61290323 L5.5,4.12903226 L5.25,4.12903226 L5.25,3.61290323 L5.5,3.61290323 Z" id="Combined-Shape"></path>
                        <path d="M1,6.19354839 L1,6.70967742 L0.75,6.70967742 L0.75,6.19354839 L1,6.19354839 Z M3.25,6.19354839 L3.25,6.70967742 L3,6.70967742 L3,6.19354839 L3.25,6.19354839 Z M5.5,6.19354839 L5.5,6.70967742 L5.25,6.70967742 L5.25,6.19354839 L5.5,6.19354839 Z" id="Combined-Shape"></path>
                        <path d="M4.24924061,5.88022192 L5.62900076,8.03605567 L4.58133803,9.92295495 L3.91714319,8.95472809 L4.44153591,7.86445854 L4.24924061,7.42147778 L3.12834683,9.23922192 L3.12900076,9.45373664 L3.06234683,9.34622192 L2.99634683,9.45373664 L2.99634683,9.23922192 L1.87610698,7.42147778 L1.68381168,7.86445854 L2.2082044,8.95472809 L1.54400956,9.92295495 L0.496346828,8.03605567 L1.87610698,5.88022192 L3.06234683,7.75922192 L4.24924061,5.88022192 Z" id="Combined-Shape"></path>
                        <path d="M3.25,13.1612903 L3.25,13.6774194 L3,13.6774194 L3,13.1612903 L3.25,13.1612903 Z M3.25,11.8709677 L3.25,12.3870968 L3,12.3870968 L3,12.6451613 L2.75,12.6451613 L2.75,12.1290323 L3,12.1290323 L3,11.8709677 L3.25,11.8709677 Z M3.5,12.1290323 L3.5,12.6451613 L3.25,12.6451613 L3.25,12.1290323 L3.5,12.1290323 Z M2.5,11.8709677 L2.5,12.3870968 L2.25,12.3870968 L2.25,11.8709677 L2.5,11.8709677 Z M4,11.8709677 L4,12.3870968 L3.75,12.3870968 L3.75,11.8709677 L4,11.8709677 Z M0.75,11.8709677 L0.75,12.3870968 L0.5,12.3870968 L0.5,11.8709677 L0.75,11.8709677 Z M5.75,11.8709677 L5.75,12.3870968 L5.5,12.3870968 L5.5,11.8709677 L5.75,11.8709677 Z M3,11.3548387 L3,11.8709677 L2.75,11.8709677 L2.75,11.3548387 L3,11.3548387 Z M3.5,11.3548387 L3.5,11.8709677 L3.25,11.8709677 L3.25,11.3548387 L3.5,11.3548387 Z M3.25,10.5806452 L3.25,11.0967742 L3,11.0967742 L3,10.5806452 L3.25,10.5806452 Z" id="Combined-Shape"></path>
                    </g>
                    <g id="bottom" transform="translate(3.000000, 17.677419) scale(1, -1) translate(-3.000000, -17.677419) translate(0.000000, 11.354839)">
                        <path d="M1.89683664,0.0568294942 L3.31206746,2.2359995 L1.89679577,4.31536214 L0.444211847,2.23606016 L1.89683664,0.0568294942 Z M1.89144914,0.97542857 L1.05578815,2.22908887 L1.89149001,3.42535471 L2.7056603,2.22914954 L1.89144914,0.97542857 Z M2,2.06451613 L2,2.58064516 L1.75,2.58064516 L1.75,2.06451613 L2,2.06451613 Z" id="Path-428" fill-rule="nonzero"></path>
                        <path d="M1.13705739,4.18586175 L1.81206746,5.17652424 L1.1370379,6.12181376 L0.444211847,5.17655182 L1.13705739,4.18586175 Z M1.14809197,4.70300285 L0.832997339,5.16806142 L1.14892956,5.61712466 L1.46111256,5.19334105 L1.14809197,4.70300285 Z" id="Path-428" fill-rule="nonzero"></path>
                        <path d="M2.63705739,4.18586175 L3.31206746,5.17652424 L2.6370379,6.12181376 L1.94421185,5.17655182 L2.63705739,4.18586175 Z M2.64809197,4.70300285 L2.33299734,5.16806142 L2.64892956,5.61712466 L2.96111256,5.19334105 L2.64809197,4.70300285 Z" id="Path-428" fill-rule="nonzero"></path>
                        <path d="M3.63705739,4.18586175 L4.31206746,5.17652424 L3.6370379,6.12181376 L2.94421185,5.17655182 L3.63705739,4.18586175 Z M3.64809197,4.70300285 L3.33299734,5.16806142 L3.64892956,5.61712466 L3.96111256,5.19334105 L3.64809197,4.70300285 Z" id="Path-428" fill-rule="nonzero"></path>
                        <path d="M5.13705739,4.18586175 L5.81206746,5.17652424 L5.1370379,6.12181376 L4.44421185,5.17655182 L5.13705739,4.18586175 Z M5.14809197,4.70300285 L4.83299734,5.16806142 L5.14892956,5.61712466 L5.46111256,5.19334105 L5.14809197,4.70300285 Z" id="Path-428" fill-rule="nonzero"></path>
                        <path d="M4.39683664,0.0568294942 L5.81206746,2.2359995 L4.39679577,4.31536214 L2.94421185,2.23606016 L4.39683664,0.0568294942 Z M4.39144914,0.97542857 L3.55578815,2.22908887 L4.39149001,3.42535471 L5.2056603,2.22914954 L4.39144914,0.97542857 Z M4.5,2.06451613 L4.5,2.58064516 L4.25,2.58064516 L4.25,2.06451613 L4.5,2.06451613 Z" id="Path-428" fill-rule="nonzero"></path>
                        <polygon id="Path-429" fill-rule="nonzero" points="1.6561792 12.4060984 0.0370201768 9.68705608 0.462979823 9.41677318 1.63676352 11.3878999 3.06898533 8.75592898 4.53678902 11.3941739 5.57387793 9.67285994 5.99846114 9.94544077 4.51969888 12.3998245 3.07380222 9.80095546"></polygon>
                        <polygon id="Path" points="0.75 0.516129032 1.0188172 0.516129032 1.0188172 1.03225806 0.75 1.03225806"></polygon>
                        <polygon id="Path" points="3 0 3.2688172 0 3.2688172 0.516129032 3 0.516129032"></polygon>
                        <polygon id="Path" points="5.25 0.516129032 5.5188172 0.516129032 5.5188172 1.03225806 5.25 1.03225806"></polygon>
                        <path d="M1,3.61290323 L1,4.12903226 L0.75,4.12903226 L0.75,3.61290323 L1,3.61290323 Z M3.25,3.61290323 L3.25,4.12903226 L3,4.12903226 L3,3.61290323 L3.25,3.61290323 Z M5.5,3.61290323 L5.5,4.12903226 L5.25,4.12903226 L5.25,3.61290323 L5.5,3.61290323 Z" id="Combined-Shape"></path>
                        <path d="M1,6.19354839 L1,6.70967742 L0.75,6.70967742 L0.75,6.19354839 L1,6.19354839 Z M3.25,6.19354839 L3.25,6.70967742 L3,6.70967742 L3,6.19354839 L3.25,6.19354839 Z M5.5,6.19354839 L5.5,6.70967742 L5.25,6.70967742 L5.25,6.19354839 L5.5,6.19354839 Z" id="Combined-Shape"></path>
                        <path d="M4.24924061,5.73268131 L5.62900076,7.88851505 L4.58133803,9.77541434 L3.91714319,8.80718747 L4.44153591,7.71691792 L4.24924061,7.27393716 L3.12834683,9.09168131 L3.12900076,9.30619603 L3.06234683,9.19868131 L2.99634683,9.30619603 L2.99634683,9.09168131 L1.87610698,7.27393716 L1.68381168,7.71691792 L2.2082044,8.80718747 L1.54400956,9.77541434 L0.496346828,7.88851505 L1.87610698,5.73268131 L3.06234683,7.61168131 L4.24924061,5.73268131 Z" id="Combined-Shape"></path>
                    </g>
                </g>
            </g>
        </g>
    </g>
</svg>