<?xml version="1.0" encoding="UTF-8"?>
<svg width="32px" height="24px" viewBox="0 0 32 24" version="1.1" xmlns="http://www.w3.org/2000/svg" xmlns:xlink="http://www.w3.org/1999/xlink">
    <title>flags/L/CC - Cocos (Keeling) Islands</title>
    <defs>
        <rect id="path-1" x="0" y="0" width="32" height="24"></rect>
    </defs>
    <g id="Symbols" stroke="none" stroke-width="1" fill="none" fill-rule="evenodd">
        <g id="flag">
            <mask id="mask-2" fill="white">
                <use xlink:href="#path-1"></use>
            </mask>
            <g id="mask"></g>
            <g id="contents" mask="url(#mask-2)">
                <polygon id="green" fill="#5EAA22" points="0 0 32 0 32 24 0 24"></polygon>
                <g id="mark-3" transform="translate(20.000000, 4.000000)" fill="#FECA00">
                    <polygon id="Star-7" points="4 3 3 3.73205081 3.1339746 2.5 2 2 3.1339746 1.5 3 0.267949192 4 1 5 0.267949192 4.8660254 1.5 6 2 4.8660254 2.5 5 3.73205081"></polygon>
                    <polygon id="Star-7" points="2.96279092 9.67866703 1.96279092 10.4107178 2.09676552 9.17866703 0.962790919 8.67866703 2.09676552 8.17866703 1.96279092 6.94661622 2.96279092 7.67866703 3.96279092 6.94661622 3.82881632 8.17866703 4.96279092 8.67866703 3.82881632 9.17866703 3.96279092 10.4107178"></polygon>
                    <polygon id="Star-7" points="6 15 5 15.7320508 5.1339746 14.5 4 14 5.1339746 13.5 5 12.2679492 6 13 7 12.2679492 6.8660254 13.5 8 14 6.8660254 14.5 7 15.7320508"></polygon>
                    <polygon id="Star-7" points="7 5.5 6.5 5.8660254 6.5669873 5.25 6 5 6.5669873 4.75 6.5 4.1339746 7 4.5 7.5 4.1339746 7.4330127 4.75 8 5 7.4330127 5.25 7.5 5.8660254"></polygon>
                </g>
                <g id="mark-2" transform="translate(2.000000, 4.000000)" fill="#FECA00">
                    <circle id="Oval-13" cx="5" cy="5" r="5"></circle>
                </g>
                <g id="mark-1" transform="translate(12.000000, 8.000000)" fill="#FECA00">
                    <path d="M4.79358807,1 C6.39185756,1 7.66715324,1.55910261 8.25242327,3.08185204 C7.78943679,2.62321025 7.072494,2.3081418 6,2.34807784 C4.34314575,2.34807784 3.2653432,3.6388572 3.2653432,4.7434267 C3.2653432,5.8479962 4.34314575,7.34948404 6,7.34948404 C6.83438254,7.33699461 7.45045258,7.18425105 7.89941686,6.94406913 C7.24011178,8.0742314 6.19398182,8.58717614 4.79358807,8.58717614 C2.69844723,8.58717614 1,6.88872891 1,4.79358807 C1,2.69844723 2.69844723,1 4.79358807,1 Z" id="Oval-13"></path>
                </g>
                <g id="tree" transform="translate(2.000000, 5.000000)">
                    <path d="M5.58247366,3.69370532 C4.93071332,6.0809908 4.47027397,7.38758552 4.20115559,7.61348947 C4.08203013,7.66602763 4.6215816,7.66602763 5.81980999,7.61348947 C5.37063154,7.41695405 5.22515443,7.18789984 5.38337865,6.92632684 C5.62071499,6.53396735 5.9307613,4.00954404 5.81980999,3.14967617 C5.74584246,2.57643092 5.66673034,2.75777397 5.58247366,3.69370532 Z" id="Path-2" fill="#915E2B" fill-rule="nonzero"></path>
                    <path d="M5.7904819,3.82668276 C6.48936786,4.03655969 6.83881083,4.32006617 6.83881083,4.67720223 C6.83881083,5.2129063 7.71092223,5.96585959 7.71092223,5.25280065 C7.71092223,4.53974171 7.54777536,3.82668276 7.19329309,3.82668276 C6.83881083,3.82668276 7.36667445,3.34728744 7.66981899,3.74539878 C7.97296352,4.14351011 9.03593945,3.70796408 8.82003755,3.42857143 C8.60413565,3.14917878 7.83773817,2.80102147 7.71092223,2.80102147 C7.58410629,2.80102147 8.58303364,2.12046457 7.71092223,2.12046457 C6.83881083,2.12046457 7.33895917,2.70178132 6.74794543,2.08460879 C6.15693169,1.46743626 6.99956685,2.38587094 6.99956685,1.34945782 C6.99956685,0.313044706 6.76047776,-0.110427483 5.97104214,0.471330069 C5.18160652,1.05308762 5.33296659,0.684107274 5.05199174,0.464758361 C4.77101689,0.245409448 4.52443787,1.26784541 4.83364751,1.47655583 C5.14285714,1.68526625 5.48562866,2.20255633 5.17641903,2.20255633 C4.8672094,2.20255633 4.64890098,1.90405524 4.64890098,1.69030554 C4.64890098,1.47655583 3.80752293,1.09902933 3.00895361,1.09902933 C2.21038428,1.09902933 2.72706856,1.69030554 3.00895361,1.69030554 C3.29083866,1.69030554 4.55317976,2.12046457 3.92200921,2.12046457 C3.29083866,2.12046457 3.97076428,1.80219918 3.17518703,1.80219918 C2.37960978,1.80219918 1.45480637,1.43990768 1.45480637,2.12046457 C1.45480637,2.80102147 2.24975371,3.10251208 2.49809601,2.80102147 C2.74643831,2.49953085 3.03353923,1.99127071 3.03353923,2.4986988 C3.03353923,3.00612688 2.4007748,2.79895617 1.45480637,3.1137638 C0.508837932,3.42857143 0.780288688,4.25851912 1.90877376,4.05582785 C3.03725882,3.85313657 2.91515901,3.86418091 3.3682223,3.54937329 C3.8212856,3.23456566 4.38200152,3.32233424 3.92200921,3.82668276 C3.4620169,4.33103129 3.00202459,5.25280065 3.4620169,5.25280065 C3.92200921,5.25280065 4.21853968,5.37822287 4.21853968,4.89095193 C4.21853968,4.40368099 4.48556761,3.45502524 4.48556761,4.05582785 C4.48556761,4.65663046 4.83364751,5.10949255 5.14285714,4.89095193 C5.45206678,4.67241131 5.07084798,3.98860329 5.42383199,3.98860329 C5.65915467,3.98860329 5.78137131,3.93462978 5.7904819,3.82668276 Z" id="Path-3" fill="#5EAA22"></path>
                </g>
            </g>
        </g>
    </g>
</svg>