<?xml version="1.0" encoding="UTF-8"?>
<svg width="32px" height="24px" viewBox="0 0 32 24" version="1.1" xmlns="http://www.w3.org/2000/svg" xmlns:xlink="http://www.w3.org/1999/xlink">
    <title>flags/L/CK - Cook Islands</title>
    <defs>
        <rect id="path-1" x="0" y="0" width="32" height="24"></rect>
        <rect id="path-3" x="0" y="0" width="32" height="24"></rect>
        <rect id="path-5" x="0" y="0" width="18" height="14"></rect>
    </defs>
    <g id="Symbols" stroke="none" stroke-width="1" fill="none" fill-rule="evenodd">
        <g id="flag">
            <mask id="mask-2" fill="white">
                <use xlink:href="#path-1"></use>
            </mask>
            <g id="mask"></g>
            <g id="contents" mask="url(#mask-2)">
                <mask id="mask-4" fill="white">
                    <use xlink:href="#path-3"></use>
                </mask>
                <use id="background" fill="#2E42A5" xlink:href="#path-3"></use>
                <g id="gb---large" mask="url(#mask-4)">
                    <g id="flag">
                        <mask id="mask-6" fill="white">
                            <use xlink:href="#path-5"></use>
                        </mask>
                        <use id="mask" fill="#2B409A" xlink:href="#path-5"></use>
                        <g id="contents" mask="url(#mask-6)">
                            <g transform="translate(-3.000000, -2.000000)">
                                <g id="stripe">
                                    <polygon id="white" fill="#F7FCFF" fill-rule="nonzero" transform="translate(12.087462, 8.731805) scale(1, -1) translate(-12.087462, -8.731805) " points="0.995733743 2.46378897 4.95668418 0.726588534 21.0898804 13.5748663 23.1791912 16.1563978 18.9435246 16.7370214 12.3631795 11.2003309 7.066678 7.46989524"></polygon>
                                    <polygon id="red" fill="#F50100" fill-rule="nonzero" transform="translate(11.983464, 9.146214) scale(1, -1) translate(-11.983464, -9.146214) " points="1.53799381 2.07548339 3.55591517 1.0673567 22.4289341 17.2250722 19.5955377 17.2250722"></polygon>
                                </g>
                                <g id="stripe" transform="translate(12.000000, 8.500000) scale(-1, 1) translate(-12.000000, -8.500000) ">
                                    <polygon id="white" fill="#F7FCFF" fill-rule="nonzero" transform="translate(12.087462, 8.731805) scale(1, -1) translate(-12.087462, -8.731805) " points="0.995733743 2.46378897 4.95668418 0.726588534 21.0898804 13.5748663 23.1791912 16.1563978 18.9435246 16.7370214 12.3631795 11.2003309 7.066678 7.46989524"></polygon>
                                    <polygon id="red" fill="#F50100" fill-rule="nonzero" transform="translate(12.255557, 9.098760) scale(1, -1) translate(-12.255557, -9.098760) " points="1.13088612 2.32417911 3.14880748 1.31605242 11.1851345 8.23400982 13.567733 9.00693659 23.3802288 16.8814684 20.5468324 16.8814684 10.7398496 9.19384456 8.134898 8.26702255"></polygon>
                                </g>
                                <g id="cross" transform="translate(3.000000, 2.000000)">
                                    <path d="M10.7345755,-0.75 L10.7340639,5.25 L18.75,5.25 L18.75,8.75 L10.7340639,8.75 L10.7345755,14.75 L7.23457546,14.75 L7.23406394,8.75 L-0.75,8.75 L-0.75,5.25 L7.23406394,5.25 L7.23457546,-0.75 L10.7345755,-0.75 Z" id="red" stroke="#F7FCFF" stroke-width="1.5" fill="#F50100"></path>
                                </g>
                            </g>
                        </g>
                    </g>
                </g>
                <g id="mark-2" mask="url(#mask-4)" fill="#FFFFFF">
                    <g transform="translate(19.000000, 11.000000)" id="Combined-Shape">
                        <path d="M5.498716,7.79675392 L5.82988716,8.53582132 L6.54774343,8.53582132 L5.983707,9.10973327 L6.20206849,10.0153432 L5.49973046,9.50645557 L4.77385098,10.0153432 L5.01891591,9.10973327 L4.37419944,8.53582132 L5.21628674,8.53582132 L5.498716,7.79675392 Z M3.12499197,6.59009282 L3.45616313,7.32916022 L4.1740194,7.32916022 L3.60998297,7.90307217 L3.82834446,8.80868208 L3.12600643,8.29979447 L2.40012695,8.80868208 L2.64519189,7.90307217 L2.00047541,7.32916022 L2.84256271,7.32916022 L3.12499197,6.59009282 Z M8.04695972,6.55064753 L8.37813088,7.28971492 L9.09598715,7.28971492 L8.53195072,7.86362688 L8.75031221,8.76923679 L8.04797418,8.26034918 L7.3220947,8.76923679 L7.56715964,7.86362688 L6.92244316,7.28971492 L7.76453046,7.28971492 L8.04695972,6.55064753 Z M1.85863035,4.29218586 L2.18980151,5.03125326 L2.90765778,5.03125326 L2.34362135,5.60516521 L2.56198284,6.51077512 L1.85964481,6.00188751 L1.13376533,6.51077512 L1.37883026,5.60516521 L0.734113791,5.03125326 L1.57620109,5.03125326 L1.85863035,4.29218586 Z M9.04371019,4.2757023 L9.37488135,5.0147697 L10.0927376,5.0147697 L9.52870119,5.58868166 L9.74706268,6.49429157 L9.04472465,5.98540395 L8.31884517,6.49429157 L8.5639101,5.58868166 L7.91919363,5.0147697 L8.76128093,5.0147697 L9.04371019,4.2757023 Z M2.77181441,1.94125028 L3.10298558,2.68031768 L3.82084185,2.68031768 L3.25680541,3.25422963 L3.47516691,4.15983954 L2.77282888,3.65095193 L2.0469494,4.15983954 L2.29201433,3.25422963 L1.64729786,2.68031768 L2.48938516,2.68031768 L2.77181441,1.94125028 Z M8.20464874,1.89480691 L8.53581991,2.63387431 L9.25367618,2.63387431 L8.68963974,3.20778626 L8.90800124,4.11339617 L8.20566321,3.60450856 L7.47978373,4.11339617 L7.72484866,3.20778626 L7.08013219,2.63387431 L7.92221949,2.63387431 L8.20464874,1.89480691 Z M5.39189051,0.636483136 L5.72306168,1.37555053 L6.44091795,1.37555053 L5.87688151,1.94946249 L6.09524301,2.8550724 L5.39290498,2.34618479 L4.66702549,2.8550724 L4.91209043,1.94946249 L4.26737396,1.37555053 L5.10946126,1.37555053 L5.39189051,0.636483136 Z"></path>
                    </g>
                </g>
            </g>
        </g>
    </g>
</svg>