<?xml version="1.0" encoding="UTF-8"?>
<svg width="32px" height="24px" viewBox="0 0 32 24" version="1.1" xmlns="http://www.w3.org/2000/svg" xmlns:xlink="http://www.w3.org/1999/xlink">
    <title>flags/L/CN - China</title>
    <defs>
        <rect id="path-1" x="0" y="0" width="32" height="24"></rect>
    </defs>
    <g id="Symbols" stroke="none" stroke-width="1" fill="none" fill-rule="evenodd">
        <g id="flag">
            <mask id="mask-2" fill="white">
                <use xlink:href="#path-1"></use>
            </mask>
            <g id="mask"></g>
            <g id="contents" mask="url(#mask-2)">
                <polygon id="background" fill="#E31D1C" points="0 0 32 0 32 24 0 24"></polygon>
                <g id="mark" transform="translate(2.000000, 1.000000)" fill="#FECA00">
                    <polygon id="Star-5" points="13.0157156 3.5483116 12.0055532 4.15814522 12.2359648 2.96811581 11.3947468 2.07749583 12.5338031 2.02933931 13.0157156 0.918145453 13.4976281 2.02933931 14.6347465 2.02933931 13.7954664 2.96811581 14.0481395 4.15814522"></polygon>
                    <polygon id="Star-5" points="5.01751004 8.60721025 2.13667619 10.1581452 2.79377616 7.13165054 0.394746778 4.8666169 3.64316692 4.74414477 5.01751004 1.91814545 6.39185316 4.74414477 9.63474655 4.74414477 7.24124392 7.13165054 7.96183004 10.1581452"></polygon>
                    <polygon id="Star-5" points="15.0157156 7.5483116 14.0055532 8.15814522 14.2359648 6.96811581 13.3947468 6.07749583 14.5338031 6.02933931 15.0157156 4.91814545 15.4976281 6.02933931 16.6347465 6.02933931 15.7954664 6.96811581 16.0481395 8.15814522"></polygon>
                    <polygon id="Star-5" points="14.0157156 11.5483116 13.0055532 12.1581452 13.2359648 10.9681158 12.3947468 10.0774958 13.5338031 10.0293393 14.0157156 8.91814545 14.4976281 10.0293393 15.6347465 10.0293393 14.7954664 10.9681158 15.0481395 12.1581452"></polygon>
                    <polygon id="Star-5" points="11.0157156 14.5483116 10.0055532 15.1581452 10.2359648 13.9681158 9.39474678 13.0774958 10.5338031 13.0293393 11.0157156 11.9181455 11.4976281 13.0293393 12.6347465 13.0293393 11.7954664 13.9681158 12.0481395 15.1581452"></polygon>
                </g>
            </g>
        </g>
    </g>
</svg>