<?xml version="1.0" encoding="UTF-8"?>
<svg width="32px" height="24px" viewBox="0 0 32 24" version="1.1" xmlns="http://www.w3.org/2000/svg" xmlns:xlink="http://www.w3.org/1999/xlink">
    <title>flags/L/CX - Christmas Island</title>
    <defs>
        <rect id="path-1" x="0" y="0" width="32" height="24"></rect>
    </defs>
    <g id="Symbols" stroke="none" stroke-width="1" fill="none" fill-rule="evenodd">
        <g id="flag">
            <mask id="mask-2" fill="white">
                <use xlink:href="#path-1"></use>
            </mask>
            <g id="mask"></g>
            <g id="contents" mask="url(#mask-2)">
                <polygon id="green" fill="#5EAA22" points="0 0 32 0 32 24 0 24"></polygon>
                <polygon id="blue" fill="#4141DB" points="0 0 32 24 0 24"></polygon>
                <g id="mark-3" transform="translate(2.000000, 6.000000)" fill="#FFFFFF">
                    <polygon id="Star-7" points="4 3 3 3.73205081 3.1339746 2.5 2 2 3.1339746 1.5 3 0.267949192 4 1 5 0.267949192 4.8660254 1.5 6 2 4.8660254 2.5 5 3.73205081"></polygon>
                    <polygon id="Star-7" points="2 9 1 9.73205081 1.1339746 8.5 0 8 1.1339746 7.5 1 6.26794919 2 7 3 6.26794919 2.8660254 7.5 4 8 2.8660254 8.5 3 9.73205081"></polygon>
                    <polygon id="Star-7" points="6 15 5 15.7320508 5.1339746 14.5 4 14 5.1339746 13.5 5 12.2679492 6 13 7 12.2679492 6.8660254 13.5 8 14 6.8660254 14.5 7 15.7320508"></polygon>
                    <polygon id="Star-7" points="7 5.5 6.5 5.8660254 6.5669873 5.25 6 5 6.5669873 4.75 6.5 4.1339746 7 4.5 7.5 4.1339746 7.4330127 4.75 8 5 7.4330127 5.25 7.5 5.8660254"></polygon>
                </g>
                <g id="mark-2" transform="translate(20.000000, 2.000000)" fill="#FECA00">
                    <path d="M1.5610849,10.2239216 C1.18727437,9.8339456 4.55130374,8.91764098 4.90000767,7.73610576 C5.36207392,6.70741862 5.0533814,5.87386802 3.30723315,5.14181676 C1.5610849,4.4097655 -0.203643113,2.99428816 1.82561105,2.99428816 C3.85486521,2.99428816 3.85486521,3.28362173 4.40002334,4.13712146 C4.94518148,4.9906212 6.12348337,5.17345101 6.14846815,4.13712146 C6.14846815,2.37132509 6.31513134,2.13383188 4.88964699,0.598662259 C3.46416264,-0.936507363 8.4641276,1.22909255 8.05088308,3.8608855 C7.63763856,6.49267846 7.14006532,5.64345884 7.45590707,6.08524857 C7.77174883,6.52703829 9.67220417,5.15563495 9.43489773,6.98244717 C8.7700304,8.03309391 7.45140002,9.59634522 1.5610849,10.2239216 Z" id="Path-12"></path>
                </g>
                <g id="mark-1" transform="translate(10.000000, 6.000000)">
                    <circle id="Oval-13" fill="#FECA00" cx="6" cy="6" r="5"></circle>
                    <path d="M2.95296727,4.1620388 C3.52011126,4.03558571 4.29564004,5.55428802 5.69536319,4.9846831 C7.09508635,4.41507817 7.38740104,3.3276082 8.05246325,3.72561249 C8.71752546,4.12361677 8.8048153,5.08190348 8.36178335,5.56354394 C7.91875139,6.04518439 7.1669479,6.1591187 7.1669479,6.76787814 C7.1669479,7.37663758 7.01952201,9.54751556 6.73221294,8.91837979 C5.87062858,8.21932525 6.39628761,7.10588546 5.33502688,6.76787814 C4.27376615,6.42987082 3.62920642,6.441191 2.84634064,6.58382529 C2.06347486,6.72645959 3.37227395,6.19201381 3.64984605,5.6846033 C4.2150015,5.14090161 2.69363484,4.34282877 2.95296727,4.1620388 Z" id="Path-11" fill="#548650"></path>
                </g>
            </g>
        </g>
    </g>
</svg>