<?xml version="1.0" encoding="UTF-8"?>
<svg width="32px" height="24px" viewBox="0 0 32 24" version="1.1" xmlns="http://www.w3.org/2000/svg" xmlns:xlink="http://www.w3.org/1999/xlink">
    <title>flags/L/CY - Cyprus</title>
    <defs>
        <rect id="path-1" x="0" y="0" width="32" height="24"></rect>
        <rect id="path-3" x="0" y="0" width="32" height="24"></rect>
    </defs>
    <g id="Symbols" stroke="none" stroke-width="1" fill="none" fill-rule="evenodd">
        <g id="flag">
            <mask id="mask-2" fill="white">
                <use xlink:href="#path-1"></use>
            </mask>
            <g id="mask"></g>
            <g id="contents" mask="url(#mask-2)">
                <mask id="mask-4" fill="white">
                    <use xlink:href="#path-3"></use>
                </mask>
                <use id="background" fill="#F7FCFF" xlink:href="#path-3"></use>
                <g id="mark" mask="url(#mask-4)">
                    <g transform="translate(7.000000, 3.000000)">
                        <path d="M8.94756141,14.9371382 L8.94756141,15.0586755 C8.89818248,15.0756748 8.83996224,15.1062039 8.77290069,15.1502629 C9.04660582,15.2586929 9.31539267,15.3887747 9.57853234,15.5409062 L9.13287201,15.9121021 C8.89899861,15.6682414 8.69864677,15.4756789 8.53181649,15.3344148 C8.3656331,15.4749328 8.16495807,15.6677688 7.93063142,15.9121021 L7.93063142,15.9121021 L7.48497109,15.5409062 C7.74811077,15.3887747 8.01689761,15.2586929 8.29133162,15.1506608 C8.22354119,15.1062039 8.16532096,15.0756748 8.11594203,15.0586755 L8.11594203,14.9371382 C8.25619164,14.973496 8.39505717,15.0152581 8.53253862,15.0624244 L8.64641235,15.0241915 L8.64641235,15.0241915 L8.94756141,14.9371382 Z M10.2770464,14.6477911 C10.437839,14.6741381 10.7201506,14.7487268 11.1239813,14.8715574 C10.889185,15.2192374 10.6230466,15.3627697 10.325566,15.3021542 C10.0280854,15.2415386 9.73982529,15.1169651 9.46078572,14.9284334 C9.84416691,14.7149916 10.1162538,14.6214442 10.2770464,14.6477911 Z M6.78645704,14.6477911 C6.94724963,14.6214442 7.21933653,14.7149916 7.60271772,14.9284334 C7.32367815,15.1169651 7.03541806,15.2415386 6.73793746,15.3021542 C6.44045686,15.3627697 6.17431841,15.2192374 5.93952213,14.8715574 C6.3433528,14.7487268 6.62566444,14.6741381 6.78645704,14.6477911 Z M6.4553801,13.7012814 C6.84651526,13.859963 7.11285283,13.9796611 7.25439282,14.0603757 C7.39593281,14.1410904 7.54851273,14.3850202 7.71213258,14.7921652 C7.37663131,14.7630765 7.07421446,14.6784804 6.80488203,14.5383769 C6.53554959,14.3982734 6.41904895,14.1192416 6.4553801,13.7012814 Z M10.6081233,13.7012814 C10.6444545,14.1192416 10.5279538,14.3982734 10.2586214,14.5383769 C9.98928898,14.6784804 9.68687212,14.7630765 9.35137085,14.7921652 C9.51499071,14.3850202 9.66757063,14.1410904 9.80911062,14.0603757 C9.95065061,13.9796611 10.2169882,13.859963 10.6081233,13.7012814 Z M5.2078215,14.105616 C5.58449078,14.1087983 5.84427634,14.1203493 5.98717818,14.140269 C6.13008001,14.1601887 6.32856866,14.3081009 6.58264411,14.5840056 C6.2898606,14.6675098 6.0094166,14.6957429 5.7413121,14.6687048 C5.4732076,14.6416667 5.2953774,14.4539704 5.2078215,14.105616 Z M11.8556819,14.105616 C11.768126,14.4539704 11.5902958,14.6416667 11.3221913,14.6687048 C11.0540868,14.6957429 10.7736428,14.6675098 10.4808593,14.5840056 C10.7349348,14.3081009 10.9334234,14.1601887 11.0763253,14.140269 C11.2192271,14.1203493 11.4790127,14.1087983 11.8556819,14.105616 Z M4.28655383,14.089117 C4.43081244,14.0864367 4.64999592,14.2014774 4.94410428,14.434239 C4.66798837,14.5625167 4.39541373,14.6342733 4.12638035,14.6495088 C3.85734697,14.6647444 3.65234399,14.5071778 3.51137141,14.1768089 C3.88390109,14.121028 4.14229523,14.0917974 4.28655383,14.089117 Z M12.7769496,14.089117 C12.9212082,14.0917974 13.1796023,14.121028 13.552132,14.1768089 C13.4111594,14.5071778 13.2061565,14.6647444 12.9371231,14.6495088 C12.6680897,14.6342733 12.3955151,14.5625167 12.1193992,14.434239 C12.4135075,14.2014774 12.632691,14.0864367 12.7769496,14.089117 Z M3.43539943,13.2301579 C3.80579366,13.2986998 4.05962668,13.3551866 4.1968985,13.3996183 C4.33417032,13.44405 4.50395879,13.6241822 4.70626393,13.940015 C4.40342809,13.9714094 4.12234204,13.950515 3.86300577,13.8773318 C3.6036695,13.8041486 3.46113405,13.5884239 3.43539943,13.2301579 Z M13.628104,13.2301579 C13.6023694,13.5884239 13.4598339,13.8041486 13.2004977,13.8773318 C12.9411614,13.950515 12.6600753,13.9714094 12.3572395,13.940015 C12.5595446,13.6241822 12.7293331,13.44405 12.8666049,13.3996183 C13.0038767,13.3551866 13.2577098,13.2986998 13.628104,13.2301579 Z M4.38666691,12.8925175 C4.73717755,13.0304746 4.97556875,13.1343572 5.10184053,13.2041653 C5.22811231,13.2739733 5.36041044,13.4831932 5.49873492,13.8318249 C5.1954727,13.8048587 4.92353784,13.7307144 4.68293032,13.6093921 C4.4423228,13.4880698 4.34356833,13.2491116 4.38666691,12.8925175 Z M12.6768365,12.8925175 C12.7199351,13.2491116 12.6211806,13.4880698 12.3805731,13.6093921 C12.1399656,13.7307144 11.8680307,13.8048587 11.5647685,13.8318249 C11.703093,13.4831932 11.8353911,13.2739733 11.9616629,13.2041653 C12.0879347,13.1343572 12.3263259,13.0304746 12.6768365,12.8925175 Z M2.44020871,13.0138468 C2.59160892,13.0100144 2.86548206,13.1315189 3.26182814,13.3783604 C3.01736661,13.5173356 2.75584365,13.5958683 2.47725924,13.6139583 C2.19867484,13.6320484 1.92412976,13.4649901 1.65362399,13.1127836 C2.0266136,13.0506581 2.2888085,13.0176792 2.44020871,13.0138468 Z M14.6232947,13.0138468 C14.7746949,13.0176792 15.0368898,13.0506581 15.4098794,13.1127836 C15.1393737,13.4649901 14.8648286,13.6320484 14.5862442,13.6139583 C14.3076598,13.5958683 14.0461368,13.5173356 13.8016753,13.3783604 C14.1980214,13.1315189 14.4718945,13.0100144 14.6232947,13.0138468 Z M0.460003298,11.8513064 C0.791619125,11.8499529 1.02297669,11.8582067 1.15407598,11.8760679 C1.28517527,11.8939291 1.50126317,12.0368123 1.80233967,12.3047175 L1.72643076,12.2408662 C1.71889621,12.1390415 1.73510688,12.024436 1.77506278,11.8970496 C2.13270094,12.0881402 2.37420689,12.2280364 2.49958062,12.3167383 C2.62495435,12.4054402 2.73285826,12.6327802 2.82329237,12.9987584 C2.49793931,12.9246835 2.21480681,12.808912 1.97389486,12.6514441 C1.84738422,12.5687526 1.7690315,12.4601401 1.73883669,12.3256067 C1.5266402,12.3952709 1.30910668,12.4191848 1.08759327,12.3978915 C0.844553483,12.3745289 0.635356825,12.1923339 0.460003298,11.8513064 Z M16.6035001,11.8513064 C16.4281466,12.1923339 16.21895,12.3745289 15.9759102,12.3978915 C15.7545888,12.4191664 15.5372405,12.3953123 15.3238651,12.3263293 C15.2944719,12.4601401 15.2161192,12.5687526 15.0896086,12.6514441 C14.8486966,12.808912 14.5655641,12.9246835 14.2402111,12.9987584 C14.3306452,12.6327802 14.4385491,12.4054402 14.5639228,12.3167383 C14.6892965,12.2280364 14.9308025,12.0881402 15.2884407,11.8970496 C15.3282642,12.0240142 15.3444996,12.1382824 15.3371467,12.2398543 L15.2611638,12.3047175 C15.5622403,12.0368123 15.7783282,11.8939291 15.9094275,11.8760679 C16.0405267,11.8582067 16.2718843,11.8499529 16.6035001,11.8513064 Z M1.74011443,12.6721661 C1.8205484,12.6680021 1.96425468,12.729163 2.17123325,12.8556486 C2.03950453,12.9333918 1.89956171,12.9790462 1.75140479,12.9926117 C1.60324787,13.0061773 1.45982099,12.9206619 1.32112415,12.7360656 C1.52001703,12.6976299 1.65968045,12.67633 1.74011443,12.6721661 Z M15.323389,12.6721661 C15.403823,12.67633 15.5434864,12.6976299 15.7423793,12.7360656 C15.6036824,12.9206619 15.4602556,13.0061773 15.3120986,12.9926117 C15.1639417,12.9790462 15.0239989,12.9333918 14.8922702,12.8556486 C15.0992488,12.729163 15.242955,12.6680021 15.323389,12.6721661 Z M2.64964789,11.6528604 C2.91007285,11.8553549 3.08807226,12.0056043 3.18364612,12.1036088 C3.27921999,12.2016133 3.39123513,12.4738507 3.51969155,12.9203213 C3.30243773,12.8602462 3.10326459,12.7441222 2.92217213,12.5719494 C2.74107967,12.3997766 2.65023826,12.0934136 2.64964789,11.6528604 Z M14.4138555,11.6528604 C14.4132652,12.0934136 14.3224238,12.3997766 14.1413313,12.5719494 C13.9602388,12.7441222 13.7610657,12.8602462 13.5438119,12.9203213 C13.6722683,12.4738507 13.7842834,12.2016133 13.8798573,12.1036088 C13.9754312,12.0056043 14.1534306,11.8553549 14.4138555,11.6528604 Z M0.36408539,10.3703704 C0.787771841,10.6111112 1.07387888,10.7873561 1.22240652,10.899105 C1.37093415,11.0108539 1.49876567,11.2972628 1.60590107,11.7583315 C1.2204621,11.66501 0.885040946,11.5191582 0.599637597,11.320776 C0.314234247,11.1223938 0.235716845,10.805592 0.36408539,10.3703704 Z M16.699418,10.3703704 C16.8277866,10.805592 16.7492692,11.1223938 16.4638658,11.320776 C16.1784625,11.5191582 15.8430413,11.66501 15.4576024,11.7583315 C15.5647378,11.2972628 15.6925693,11.0108539 15.8410969,10.899105 C15.9896245,10.7873561 16.2757316,10.6111112 16.699418,10.3703704 Z M1.93641166,10.8544751 C2.00880086,11.043672 2.05402941,11.1775149 2.07209732,11.2560039 C2.09016522,11.3344928 2.05488789,11.4866363 1.96626531,11.7124344 C1.86682877,11.5962069 1.79756718,11.466318 1.75848052,11.3227675 C1.71939387,11.1792171 1.77870425,11.0231196 1.93641166,10.8544751 Z M15.1270918,10.8544751 C15.2847992,11.0231196 15.3441096,11.1792171 15.3050229,11.3227675 C15.2659363,11.466318 15.1966747,11.5962069 15.0972381,11.7124344 C15.0086155,11.4866363 14.9733382,11.3344928 14.9914061,11.2560039 C15.009474,11.1775149 15.0547026,11.043672 15.1270918,10.8544751 Z" id="Combined-Shape" fill="#006B49"></path>
                        <path d="M20.8060543,0.017042971 C21.0368334,0.313613384 21.0368334,0.461898591 20.8060543,0.461898591 C20.5752752,0.461898591 20.1664655,0.6223458 19.5796252,0.943240217 C19.3004905,1.35984959 18.9918795,1.61528203 18.6537925,1.70953754 C18.1466619,1.85092081 17.9756399,2.37595443 17.2333037,2.59477925 C16.4909676,2.81360407 16.4151143,2.8733499 16.4151143,3.09481995 C16.4151143,3.31629 16.5416706,3.69136614 16.0347412,3.69136614 C15.5278118,3.69136614 15.169571,2.98162212 14.8952315,3.69136614 C14.6208921,4.40111016 14.3430316,4.6091716 14.7230023,5.04335507 C15.102973,5.47753853 15.6063813,5.89329656 15.8205613,6.14404663 C16.0347412,6.3947967 17.463278,7.12862149 16.4151143,7.12862149 C15.3669505,7.12862149 15.8938995,6.46439376 15.0869774,6.70702569 C14.2800553,6.94965763 14.7433238,7.30758534 14.1266385,7.12862149 C13.5099532,6.94965763 13.0987962,6.78638276 12.9074527,6.86802019 C12.7161092,6.94965763 12.408672,6.41440793 12.408672,7.12862149 C12.408672,7.84283504 12.9842114,7.55331859 11.7502372,8.34223724 C10.5162631,9.13115589 10.7613276,8.91315201 10.1949429,8.91315201 C9.62855821,8.91315201 9.42956906,9.27025878 9.0519122,9.27025878 C8.67425535,9.27025878 8.72033069,9.27025878 8.29498887,9.27025878 C7.86964705,9.27025878 8.32537043,8.81847082 7.60003587,9.27025878 C6.87470132,9.72204675 6.61484845,9.81198475 6.61484845,9.98556692 C6.61484845,10.1591491 6.61484845,10.61942 6.61484845,10.61942 C6.61484845,10.61942 5.95027701,10.9996042 5.95027701,10.61942 C5.95027701,10.2392359 5.74545299,10.1419095 5.46990634,9.98556692 C5.19435969,9.82922439 4.64376939,9.94178371 4.05575546,9.98556692 C3.46774152,10.0293501 2.80296887,9.3924869 2.29251845,9.3924869 C1.78206803,9.3924869 1.68710051,8.91315201 1.54746606,8.91315201 C1.40783161,8.91315201 1.69313658,8.50350538 1.09878477,8.13590888 C0.504432955,7.76831237 0.2963897,7.72261365 0.2963897,7.12862149 C0.2963897,6.53462932 0.0234586799,6.37217538 0.0234586799,6.01123757 C0.0234586799,5.65029977 0.314296711,6.14404663 0.930881386,6.14404663 C1.54746606,6.14404663 1.58790774,5.7620787 2.29251845,5.40271688 C2.99712917,5.04335507 3.23625819,4.8466955 3.82376912,5.04335507 C4.41128005,5.24001464 4.98953567,5.97283605 5.46990634,5.26947708 C5.95027701,4.56611812 5.95027701,3.76178413 5.95027701,3.35569489 C5.95027701,2.94960565 5.66617926,2.83394501 6.4330621,3.09481995 C7.19994495,3.35569489 7.64611122,3.35569489 8.92052705,3.35569489 C10.1949429,3.35569489 11.7187491,3.77245629 12.1883554,3.35569489 C12.6579618,2.93893349 13.1599617,2.59477925 14.3783426,2.59477925 C15.5967236,2.59477925 15.9948025,1.99595269 16.8140986,1.70953754 C17.6333947,1.4231224 16.4251744,2.02860766 18.2629569,1.24525313 C19.4881452,0.723016769 20.3358443,0.313613384 20.8060543,0.017042971 Z" id="Path" fill="#F57A01"></path>
                    </g>
                </g>
            </g>
        </g>
    </g>
</svg>