<?xml version="1.0" encoding="UTF-8"?>
<svg width="32px" height="24px" viewBox="0 0 32 24" version="1.1" xmlns="http://www.w3.org/2000/svg" xmlns:xlink="http://www.w3.org/1999/xlink">
    <title>flags/L/DM - Dominica</title>
    <defs>
        <rect id="path-1" x="0" y="0" width="32" height="24"></rect>
        <rect id="path-3" x="0" y="0" width="32" height="24"></rect>
    </defs>
    <g id="Symbols" stroke="none" stroke-width="1" fill="none" fill-rule="evenodd">
        <g id="flag">
            <mask id="mask-2" fill="white">
                <use xlink:href="#path-1"></use>
            </mask>
            <g id="mask"></g>
            <g id="contents" mask="url(#mask-2)">
                <mask id="mask-4" fill="white">
                    <use xlink:href="#path-3"></use>
                </mask>
                <use id="background" fill="#279E19" xlink:href="#path-3"></use>
                <g id="mark" mask="url(#mask-4)">
                    <polygon id="cross-white" fill="#F7FCFF" points="17 0 19 0 19 13 32 13 32 15 19 15 19 24 17 24 17 15 0 15 0 13 17 13"></polygon>
                    <polygon id="cross-black" fill="#272727" points="15 0 17 0 17 11 32 11 32 13 17 13 17 24 15 24 15 13 0 13 0 11 15 11"></polygon>
                    <polygon id="cross-yellow" fill="#FECA00" points="13 0 15 0 15 9 32 9 32 11 15 11 15 24 13 24 13 11 0 11 0 9 13 9"></polygon>
                    <circle id="Oval-16" fill="#C51918" cx="16" cy="12" r="8"></circle>
                    <g id="mark-3" transform="translate(8.199951, 4.600006)">
                        <path d="M6.52596291,3.81294871 C6.77925481,2.99099587 7.20010962,2.79233555 7.78852736,3.21696777 C9.17259477,3.89866509 9.62911012,4.68183548 10.1634509,5.5687479 C10.6977917,6.45566031 8.85335168,5.80610663 8.50926345,5.30693478 C8.16517521,4.80776292 6.25652355,4.64591023 6.52596291,4.22942947 C6.70558914,3.95177563 6.70558914,3.81294871 6.52596291,3.81294871 Z" id="Path-16" fill="#804BFF"></path>
                        <path d="M6.21314525,10.1254428 C5.58668457,10.9824385 5.58668457,11.4109364 6.21314525,11.4109364 C7.15283627,11.4109364 10.9625386,11.134375 10.5059098,10.7681896 C10.2014906,10.524066 8.92107693,10.524066 6.66466888,10.7681896 L6.21314525,10.1254428 Z" id="Path-20" fill="#A95601"></path>
                        <path d="M7.61808713,10.0849796 C7.56046835,10.0199899 6.70286091,9.45667249 6.36847307,8.16859499 C6.13730306,7.27811736 6.279152,5.61240389 6.60454136,5.28234131 C7.40060702,4.4748426 7.86710581,4.94933898 7.86710581,6.16017787 C7.86710581,7.37101676 7.91495447,10.3841675 7.61808713,10.0849796 Z" id="Path-17" fill="#804BFF"></path>
                        <path d="M7.51734517,9.45446001 C7.45146961,10.0840552 7.58042234,10.7663408 7.90420336,11.5013167 C8.38987488,12.6037806 9.37086102,12.5825363 9.37086102,11.6801866 C9.37086102,10.777837 10.0868323,11.6246542 10.3617172,12.2268807 C10.636602,12.8291071 9.92471489,6.87918703 8.91445912,5.54806208 C7.90420336,4.21693714 6.92945686,4.13147286 7.22340102,4.99166194 C7.41936378,5.56512132 7.51734517,7.05272068 7.51734517,9.45446001 Z" id="Path-18" fill="#279E19"></path>
                        <path d="M6.92735918,3 C6.64245306,3.18269354 6.5,3.52564309 6.5,4.02884866 C6.5,4.53205422 6.83728135,4.45415316 7.51184404,3.79514547 L6.92735918,3 Z" id="Path-19" fill="#FECA00"></path>
                        <path d="M8.68915748,12.2138393 L8.39799362,13.1381878 L9.17686854,13.7148596 L8.20778631,13.7235857 L7.90002441,14.6425412 L7.59226252,13.7235857 L6.62318029,13.7148596 L7.40205521,13.1381878 L7.11089135,12.2138393 L7.90002441,12.776392 L8.68915748,12.2138393 Z M11.3679538,10.8306359 L11.6757157,11.7495913 L12.6447979,11.7583174 L11.865923,12.3349892 L12.1570869,13.2593377 L11.3679538,12.696785 L10.5788207,13.2593377 L10.8699846,12.3349892 L10.0911097,11.7583174 L11.0601919,11.7495913 L11.3679538,10.8306359 Z M4.43209501,10.8306359 L4.73985691,11.7495913 L5.70893914,11.7583174 L4.93006422,12.3349892 L5.22122808,13.2593377 L4.43209501,12.696785 L3.64296195,13.2593377 L3.9341258,12.3349892 L3.15525089,11.7583174 L4.12433312,11.7495913 L4.43209501,10.8306359 Z M14.3003851,8.13704379 L14.0092213,9.06139227 L14.7880962,9.63806408 L13.819014,9.64679019 L13.5112521,10.5657456 L13.2034902,9.64679019 L12.2344079,9.63806408 L13.0132828,9.06139227 L12.722119,8.13704379 L13.5112521,8.69959647 L14.3003851,8.13704379 Z M3.07792984,8.13704379 L2.78676598,9.06139227 L3.5656409,9.63806408 L2.59655867,9.64679019 L2.28879677,10.5657456 L1.98103488,9.64679019 L1.01195265,9.63806408 L1.79082756,9.06139227 L1.49966371,8.13704379 L2.28879677,8.69959647 L3.07792984,8.13704379 Z M13.5112521,4.23424215 L13.819014,5.15319761 L14.7880962,5.16192371 L14.0092213,5.73859552 L14.3003851,6.662944 L13.5112521,6.10039133 L12.722119,6.662944 L13.0132828,5.73859552 L12.2344079,5.16192371 L13.2034902,5.15319761 L13.5112521,4.23424215 Z M2.28879677,4.23424215 L2.59655867,5.15319761 L3.5656409,5.16192371 L2.78676598,5.73859552 L3.07792984,6.662944 L2.28879677,6.10039133 L1.49966371,6.662944 L1.79082756,5.73859552 L1.01195265,5.16192371 L1.98103488,5.15319761 L2.28879677,4.23424215 Z M12.1570869,1.54065008 L11.865923,2.46499856 L12.6447979,3.04167037 L11.6757157,3.05039648 L11.3679538,3.96935193 L11.0601919,3.05039648 L10.0911097,3.04167037 L10.8699846,2.46499856 L10.5788207,1.54065008 L11.3679538,2.10320276 L12.1570869,1.54065008 Z M5.22122808,1.54065008 L4.93006422,2.46499856 L5.70893914,3.04167037 L4.73985691,3.05039648 L4.43209501,3.96935193 L4.12433312,3.05039648 L3.15525089,3.04167037 L3.9341258,2.46499856 L3.64296195,1.54065008 L4.43209501,2.10320276 L5.22122808,1.54065008 Z M7.90002441,0.157446638 L8.20778631,1.07640209 L9.17686854,1.0851282 L8.39799362,1.6618 L8.68915748,2.58614849 L7.90002441,2.02359581 L7.11089135,2.58614849 L7.40205521,1.6618 L6.62318029,1.0851282 L7.59226252,1.07640209 L7.90002441,0.157446638 Z" id="Combined-Shape" stroke="#FECA00" stroke-width="0.1" fill="#279E19"></path>
                    </g>
                </g>
            </g>
        </g>
    </g>
</svg>