<?xml version="1.0" encoding="UTF-8"?>
<svg width="32px" height="24px" viewBox="0 0 32 24" version="1.1" xmlns="http://www.w3.org/2000/svg" xmlns:xlink="http://www.w3.org/1999/xlink">
    <title>flags/L/DO - Dominican Republic</title>
    <defs>
        <rect id="path-1" x="0" y="0" width="32" height="24"></rect>
        <rect id="path-3" x="0" y="0" width="32" height="24"></rect>
    </defs>
    <g id="Symbols" stroke="none" stroke-width="1" fill="none" fill-rule="evenodd">
        <g id="flag">
            <mask id="mask-2" fill="white">
                <use xlink:href="#path-1"></use>
            </mask>
            <g id="mask"></g>
            <g id="contents" mask="url(#mask-2)">
                <mask id="mask-4" fill="white">
                    <use xlink:href="#path-3"></use>
                </mask>
                <use id="background" fill="#C51918" xlink:href="#path-3"></use>
                <rect id="blue" fill="#4257BF" mask="url(#mask-4)" x="0" y="0" width="14" height="10"></rect>
                <rect id="blue" fill="#4257BF" mask="url(#mask-4)" x="18" y="14" width="14" height="10"></rect>
                <g id="mark" mask="url(#mask-4)" fill="#F7FCFF">
                    <polygon id="cross" points="13 0 19 0 19 9 32 9 32 15 19 15 19 24 13 24 13 15 0 15 0 9 13 9"></polygon>
                </g>
                <g id="mark" mask="url(#mask-4)">
                    <g transform="translate(12.500000, 8.000000)">
                        <path d="M2.68579196,6.77138772 C2.68512092,6.77121035 2.68450923,6.77104864 2.68393264,6.77089617 C2.68455143,6.77105979 2.6851712,6.77122364 2.68579196,6.77138772 Z M1.28511851,2.13333333 C1.31685729,2.29449862 1.34363288,2.42540461 1.36544528,2.52605132 C1.4016559,2.47490505 1.44069691,2.42203441 1.48185629,2.36707174 L1.59421925,2.46280912 C1.49372247,2.59700872 1.40624173,2.71829845 1.33183709,2.82652121 C1.40647712,2.80230483 1.4938816,2.77523561 1.59408858,2.74363579 C1.46797925,2.92898848 1.32366084,3.02163149 1.16981445,3.07752193 C1.12154915,3.15493453 1.0856141,3.2212037 1.06036333,3.27665713 L1.00172387,3.41686827 C1.08408448,3.36687551 1.19133879,3.2997814 1.3234868,3.21558593 C1.23255786,3.47625299 1.07856953,3.608268 0.904225949,3.70836976 C0.896399885,3.75109286 0.88636076,3.79635156 0.877826563,3.84138942 L0.87215403,3.87188065 C0.954429342,3.82192931 1.06146867,3.7549657 1.193272,3.67098983 C1.10234306,3.9316569 0.948354732,4.0636719 0.774011151,4.16377366 L0.843926829,4.11918159 C0.840890008,4.17558076 0.840244501,4.23157961 0.841945144,4.28715434 C0.918941413,4.22271325 1.02061754,4.13128497 1.14883726,4.0137832 C1.1045541,4.28627979 0.975829362,4.44302899 0.821516939,4.57188442 L0.864925626,4.53205009 C0.875503026,4.59898613 0.889548476,4.66522299 0.906977195,4.73071599 L0.922606499,4.79166149 C0.969941005,4.70575009 1.03170024,4.58961278 1.1078842,4.44324954 C1.15947096,4.71445831 1.09212066,4.90578083 0.99118557,5.07964328 L1.00345274,5.05659405 C1.01572319,5.09402065 1.02825486,5.13090959 1.04103679,5.16724463 C1.06530445,5.09399904 1.09329389,5.00678364 1.12492427,4.90645002 C1.20568184,5.11938599 1.19729419,5.29284058 1.1530305,5.45300412 C1.20016217,5.56776028 1.25112621,5.67467786 1.30424527,5.7738692 C1.30261103,5.68007779 1.29830589,5.56108098 1.29198041,5.41634492 C1.47226024,5.62542522 1.50959442,5.82479053 1.5091133,6.02582738 L1.5091133,6.02582738 L1.42434457,5.97926539 C1.51453181,6.12010296 1.60945624,6.23967863 1.70726373,6.33524639 C1.70483663,6.24376133 1.70068662,6.13086229 1.69476753,5.9954251 C1.84113333,6.16517347 1.89327636,6.32851818 1.90745736,6.49155278 C1.92640277,6.50606853 1.94681055,6.51759663 1.96727016,6.52805063 C2.03556385,6.56294579 2.11459979,6.5960505 2.2063242,6.62873646 C2.22405625,6.53071805 2.24590574,6.37853538 2.2727597,6.1744922 C2.38509478,6.36316352 2.40943945,6.53007896 2.39689461,6.69006685 C2.41222135,6.6954711 2.43121582,6.70109307 2.45062926,6.70673487 C2.51996864,6.7268858 2.59082119,6.74627659 2.68393264,6.77089618 C2.63262138,6.75732761 2.85919892,6.8169443 2.90635373,6.82974306 C3.07211949,6.87473523 3.16468976,6.90571864 3.22175133,6.94001151 C3.24595948,6.95456013 3.26470326,6.97032312 3.27819103,6.99012755 L3.16184162,7.08028451 C3.16261238,7.08141623 3.15895621,7.0783415 3.15115966,7.07365592 C3.10958312,7.04866925 3.02297587,7.01968168 2.87089055,6.97840266 C2.8369528,6.96919127 2.70791372,6.93516235 2.660038,6.92257056 L2.649,6.91933333 L2.65282649,6.92071053 C2.55701345,6.89539319 2.48429201,6.87550586 2.41282632,6.854737 C2.25211453,6.90353109 2.08478626,6.91989154 1.87541086,6.85679854 C1.9693176,6.8198123 2.05141339,6.78701131 2.12169821,6.75839556 C2.03977358,6.72949669 1.96869524,6.69886693 1.90514236,6.66639411 L1.89493815,6.6607782 C1.74036501,6.71400194 1.57007133,6.73269386 1.35569998,6.66809538 C1.4985827,6.61181941 1.61412211,6.56523259 1.70231822,6.52833494 C1.56921423,6.42099195 1.44311268,6.2747076 1.3254566,6.09623459 L1.36814456,6.10925815 C1.17476292,6.05430737 0.993411375,5.96346692 0.842122345,5.73254048 C0.976404923,5.77747716 1.08758243,5.81378067 1.17565488,5.84145102 C1.13435249,5.76549989 1.09490361,5.6847567 1.05696108,5.60013579 L1.08373797,5.60836852 C0.890356331,5.55341774 0.70900479,5.46257729 0.557715759,5.23165085 C0.729421351,5.28911086 0.863349134,5.33245527 0.959499108,5.36168408 C0.923291782,5.27128441 0.890195694,5.1773425 0.858857691,5.08010052 L0.947166332,5.12455393 C0.766264697,5.03685761 0.603442572,4.91590587 0.494551917,4.66221666 C0.607782788,4.72370224 0.703415242,4.77482649 0.781449279,4.8155894 L0.768633218,4.77260386 L0.768633218,4.77260386 C0.748612586,4.69737106 0.732723897,4.62124156 0.721065787,4.54429566 L0.767189765,4.59301145 C0.627191743,4.44873186 0.515556925,4.27938595 0.5,4.00375327 C0.577320444,4.09115563 0.643983064,4.16563448 0.699987858,4.22718983 L0.700113459,4.11525334 L0.700113459,4.11525334 L0.760423076,4.18541911 C0.620425054,4.04113952 0.571925664,3.87681641 0.556368739,3.60118373 C0.626622261,3.6805977 0.688077131,3.74934257 0.740733351,3.80741833 C0.752138913,3.73146159 0.770261245,3.65640062 0.792283495,3.58092391 L0.823885561,3.617748 C0.683887539,3.47346841 0.607577007,3.26127679 0.592020082,2.98564411 C0.720246554,3.13383113 0.818922834,3.2444285 0.888048922,3.31743624 L0.931005149,3.20963819 L0.931005149,3.20963819 L0.933,3.20433333 L0.903223344,3.15979123 C0.828282567,3.00212374 0.873604453,2.75141604 0.860269946,2.51515946 C0.950720012,2.70619917 1.02710988,2.8441481 1.08943954,2.92900622 C1.1210967,2.87662927 1.15806562,2.82047841 1.19896653,2.76047551 L1.20670965,2.79660328 C1.15703239,2.60015792 1.18435877,2.37850794 1.28511851,2.13333333 Z" id="Combined-Shape" fill="#5AB92D" fill-rule="nonzero"></path>
                        <path d="M5.68579196,6.77138772 C5.68512092,6.77121035 5.68450923,6.77104864 5.68393264,6.77089617 C5.68455143,6.77105979 5.6851712,6.77122364 5.68579196,6.77138772 Z M4.28511851,2.13333333 C4.31685729,2.29449862 4.34363288,2.42540461 4.36544528,2.52605132 C4.4016559,2.47490505 4.44069691,2.42203441 4.48185629,2.36707174 L4.59421925,2.46280912 C4.49372247,2.59700872 4.40624173,2.71829845 4.33183709,2.82652121 C4.40647712,2.80230483 4.4938816,2.77523561 4.59408858,2.74363579 C4.46797925,2.92898848 4.32366084,3.02163149 4.16981445,3.07752193 C4.12154915,3.15493453 4.0856141,3.2212037 4.06036333,3.27665713 L4.00172387,3.41686827 C4.08408448,3.36687551 4.19133879,3.2997814 4.3234868,3.21558593 C4.23255786,3.47625299 4.07856953,3.608268 3.90422595,3.70836976 C3.89639988,3.75109286 3.88636076,3.79635156 3.87782656,3.84138942 L3.87215403,3.87188065 C3.95442934,3.82192931 4.06146867,3.7549657 4.193272,3.67098983 C4.10234306,3.9316569 3.94835473,4.0636719 3.77401115,4.16377366 L3.84392683,4.11918159 C3.84089001,4.17558076 3.8402445,4.23157961 3.84194514,4.28715434 C3.91894141,4.22271325 4.02061754,4.13128497 4.14883726,4.0137832 C4.1045541,4.28627979 3.97582936,4.44302899 3.82151694,4.57188442 L3.86492563,4.53205009 C3.87550303,4.59898613 3.88954848,4.66522299 3.90697719,4.73071599 L3.9226065,4.79166149 C3.969941,4.70575009 4.03170024,4.58961278 4.1078842,4.44324954 C4.15947096,4.71445831 4.09212066,4.90578083 3.99118557,5.07964328 L4.00345274,5.05659405 C4.01572319,5.09402065 4.02825486,5.13090959 4.04103679,5.16724463 C4.06530445,5.09399904 4.09329389,5.00678364 4.12492427,4.90645002 C4.20568184,5.11938599 4.19729419,5.29284058 4.1530305,5.45300412 C4.20016217,5.56776028 4.25112621,5.67467786 4.30424527,5.7738692 C4.30261103,5.68007779 4.29830589,5.56108098 4.29198041,5.41634492 C4.47226024,5.62542522 4.50959442,5.82479053 4.5091133,6.02582738 L4.5091133,6.02582738 L4.42434457,5.97926539 C4.51453181,6.12010296 4.60945624,6.23967863 4.70726373,6.33524639 C4.70483663,6.24376133 4.70068662,6.13086229 4.69476753,5.9954251 C4.84113333,6.16517347 4.89327636,6.32851818 4.90745736,6.49155278 C4.92640277,6.50606853 4.94681055,6.51759663 4.96727016,6.52805063 C5.03556385,6.56294579 5.11459979,6.5960505 5.2063242,6.62873646 C5.22405625,6.53071805 5.24590574,6.37853538 5.2727597,6.1744922 C5.38509478,6.36316352 5.40943945,6.53007896 5.39689461,6.69006685 C5.41222135,6.6954711 5.43121582,6.70109307 5.45062926,6.70673487 C5.51996864,6.7268858 5.59082119,6.74627659 5.68393264,6.77089618 C5.63262138,6.75732761 5.85919892,6.8169443 5.90635373,6.82974306 C6.07211949,6.87473523 6.16468976,6.90571864 6.22175133,6.94001151 C6.24595948,6.95456013 6.26470326,6.97032312 6.27819103,6.99012755 L6.16184162,7.08028451 C6.16261238,7.08141623 6.15895621,7.0783415 6.15115966,7.07365592 C6.10958312,7.04866925 6.02297587,7.01968168 5.87089055,6.97840266 C5.8369528,6.96919127 5.70791372,6.93516235 5.660038,6.92257056 L5.649,6.91933333 L5.65282649,6.92071053 C5.55701345,6.89539319 5.48429201,6.87550586 5.41282632,6.854737 C5.25211453,6.90353109 5.08478626,6.91989154 4.87541086,6.85679854 C4.9693176,6.8198123 5.05141339,6.78701131 5.12169821,6.75839556 C5.03977358,6.72949669 4.96869524,6.69886693 4.90514236,6.66639411 L4.89493815,6.6607782 C4.74036501,6.71400194 4.57007133,6.73269386 4.35569998,6.66809538 C4.4985827,6.61181941 4.61412211,6.56523259 4.70231822,6.52833494 C4.56921423,6.42099195 4.44311268,6.2747076 4.3254566,6.09623459 L4.36814456,6.10925815 C4.17476292,6.05430737 3.99341138,5.96346692 3.84212234,5.73254048 C3.97640492,5.77747716 4.08758243,5.81378067 4.17565488,5.84145102 C4.13435249,5.76549989 4.09490361,5.6847567 4.05696108,5.60013579 L4.08373797,5.60836852 C3.89035633,5.55341774 3.70900479,5.46257729 3.55771576,5.23165085 C3.72942135,5.28911086 3.86334913,5.33245527 3.95949911,5.36168408 C3.92329178,5.27128441 3.89019569,5.1773425 3.85885769,5.08010052 L3.94716633,5.12455393 C3.7662647,5.03685761 3.60344257,4.91590587 3.49455192,4.66221666 C3.60778279,4.72370224 3.70341524,4.77482649 3.78144928,4.8155894 L3.76863322,4.77260386 L3.76863322,4.77260386 C3.74861259,4.69737106 3.7327239,4.62124156 3.72106579,4.54429566 L3.76718976,4.59301145 C3.62719174,4.44873186 3.51555692,4.27938595 3.5,4.00375327 C3.57732044,4.09115563 3.64398306,4.16563448 3.69998786,4.22718983 L3.70011346,4.11525334 L3.70011346,4.11525334 L3.76042308,4.18541911 C3.62042505,4.04113952 3.57192566,3.87681641 3.55636874,3.60118373 C3.62662226,3.6805977 3.68807713,3.74934257 3.74073335,3.80741833 C3.75213891,3.73146159 3.77026124,3.65640062 3.7922835,3.58092391 L3.82388556,3.617748 C3.68388754,3.47346841 3.60757701,3.26127679 3.59202008,2.98564411 C3.72024655,3.13383113 3.81892283,3.2444285 3.88804892,3.31743624 L3.93100515,3.20963819 L3.93100515,3.20963819 L3.933,3.20433333 L3.90322334,3.15979123 C3.82828257,3.00212374 3.87360445,2.75141604 3.86026995,2.51515946 C3.95072001,2.70619917 4.02710988,2.8441481 4.08943954,2.92900622 C4.1210967,2.87662927 4.15806562,2.82047841 4.19896653,2.76047551 L4.20670965,2.79660328 C4.15703239,2.60015792 4.18435877,2.37850794 4.28511851,2.13333333 Z" id="Combined-Shape" fill="#5AB92D" fill-rule="nonzero" transform="translate(4.889096, 4.606926) scale(-1, 1) translate(-4.889096, -4.606926) "></path>
                        <g id="Group" stroke-width="1" fill="none" fill-rule="evenodd">
                            <path d="M0.751522209,1.31577624 C1.15119595,1.03476039 1.8839029,0.792154257 2.26085582,0.792154257 C2.26273437,0.792154257 2.26678656,0.791250875 2.27739554,0.786862385 C2.30870015,0.773912977 2.51515628,0.646024985 2.52808842,0.638623172 C2.79453941,0.486117893 3.07327358,0.4058656 3.45300506,0.4058656 L3.45300506,1.07253227 C3.18037403,1.07253227 3.00222945,1.12382311 2.82359949,1.22606335 C2.85468931,1.20826885 2.58822989,1.37332552 2.50337547,1.40842624 C2.42433658,1.44112132 2.34494355,1.45882092 2.26085582,1.45882092 C2.00833285,1.45882092 1.39475547,1.66198214 1.09549631,1.87239518 C0.987942803,1.94801747 0.997866028,1.92493238 1.00117879,1.97001684 C1.01322401,2.13394403 1.0008559,2.23416341 0.900014037,2.36214465 C0.886885235,2.37880678 0.866049298,2.47050581 0.864271467,2.63128949 L0.239314934,2.62342708 C0.242217539,2.36092098 0.282049212,2.15380461 0.376593135,1.9981232 C0.362851301,1.72894995 0.457458166,1.52253654 0.751522209,1.31577624 Z" id="Path" fill="#003994" fill-rule="nonzero"></path>
                            <path d="M1.08569458,1.56534277 L1.01671808,1.45414696 C1.33752762,1.22772558 1.63667489,1.11349032 1.91429635,1.11349032 C2.00626441,1.11349032 2.11114154,1.08902684 2.23308037,1.04192771 C2.31480245,1.01036238 2.39847041,0.971362279 2.51085325,0.914231109 C2.91797555,0.707265583 2.92959351,0.702001318 3.03715558,0.702001318 L3.40569972,0.702001318 L3.40569972,0.835334652 L3.03715558,0.835334652 C2.95933358,0.835334652 2.93413299,0.846753401 2.56463164,1.03459387 C2.44889601,1.09342947 2.36195293,1.1339562 2.27563991,1.16729479 C2.14119643,1.21922387 2.02287368,1.24682366 1.91429635,1.24682366 C1.66377512,1.24682366 1.38752904,1.35231365 1.08569458,1.56534277 Z" id="Path-5" fill="#EBCA5E" fill-rule="nonzero"></path>
                        </g>
                        <g id="Group" stroke-width="1" fill="none" fill-rule="evenodd" transform="translate(3.700000, 2.500000) scale(-1, 1) translate(-3.700000, -2.500000) translate(0.700000, 0.000000)">
                            <path d="M0.701522153,1.31577624 C1.10119589,1.03476039 1.83390284,0.792154257 2.21085576,0.792154257 C2.21273432,0.792154257 2.21678651,0.791250875 2.22739549,0.786862385 C2.2587001,0.773912977 2.46515622,0.646024985 2.47808837,0.638623172 C2.74453935,0.486117893 3.02327352,0.4058656 3.403005,0.4058656 L3.403005,1.07253227 C3.13037397,1.07253227 2.9522294,1.12382311 2.77359943,1.22606335 C2.80468926,1.20826885 2.53822983,1.37332552 2.45337542,1.40842624 C2.37433653,1.44112132 2.2949435,1.45882092 2.21085576,1.45882092 C1.95833279,1.45882092 1.34475542,1.66198214 1.04549625,1.87239518 C0.937942747,1.94801747 0.947865972,1.92493238 0.951178736,1.97001684 C0.963223954,2.13394403 0.950855845,2.23416341 0.850013981,2.36214465 C0.836885179,2.37880678 0.816049242,2.47050581 0.81427141,2.63128949 L0.189314877,2.62342708 C0.192217483,2.36092098 0.232049156,2.15380461 0.326593079,1.9981232 C0.312851245,1.72894995 0.407458109,1.52253654 0.701522153,1.31577624 Z" id="Path" fill="#003994" fill-rule="nonzero"></path>
                            <path d="M1.08569458,1.56534277 L1.01671808,1.45414696 C1.33752762,1.22772558 1.63667489,1.11349032 1.91429635,1.11349032 C2.00626441,1.11349032 2.11114154,1.08902684 2.23308037,1.04192771 C2.31480245,1.01036238 2.39847041,0.971362279 2.51085325,0.914231109 C2.91797555,0.707265583 2.92959351,0.702001318 3.03715558,0.702001318 L3.40569972,0.702001318 L3.40569972,0.835334652 L3.03715558,0.835334652 C2.95933358,0.835334652 2.93413299,0.846753401 2.56463164,1.03459387 C2.44889601,1.09342947 2.36195293,1.1339562 2.27563991,1.16729479 C2.14119643,1.21922387 2.02287368,1.24682366 1.91429635,1.24682366 C1.66377512,1.24682366 1.38752904,1.35231365 1.08569458,1.56534277 Z" id="Path-5" fill="#EBCA5E" fill-rule="nonzero"></path>
                            <path d="M5.37792275,2.01929355 L5.051762,2.37390677 L5.051762,3.84666874 L4.72253872,3.84666874 L4.72253872,3.94041169 L4.24062582,4.17211489 C4.19209911,3.52258371 4.24337847,3.11224195 4.39446388,2.94108959 C4.5455493,2.76993723 4.49426994,2.66332187 4.24062582,2.62124352 L3.66213348,3.20044316 L3.66213348,2.01929355 L5.37792275,2.01929355 Z" id="Path-6" fill="#003994" fill-rule="nonzero"></path>
                            <path d="M3.1779225,2.01929355 L2.85176176,2.37390677 L2.85176176,3.84666874 L2.52253847,3.84666874 L2.52253847,3.94041169 L2.04062558,4.17211489 C1.99209887,3.52258371 2.04337822,3.11224195 2.19446363,2.94108959 C2.34554905,2.76993723 2.2942697,2.66332187 2.04062558,2.62124352 L1.46213323,3.20044316 L1.46213323,2.01929355 L3.1779225,2.01929355 Z" id="Path-6" fill="#D62818" fill-rule="nonzero" transform="translate(2.320028, 3.095704) scale(-1, 1) translate(-2.320028, -3.095704) "></path>
                            <polygon id="Path-7" fill="#FFC300" fill-rule="nonzero" points="4.32309195 2.59661501 4.37220953 2.65707218 3.4104619 3.54608443 3.35877437 3.54347162 2.5633884 2.65445937 2.61764589 2.59922781 3.38835544 3.46065895"></polygon>
                            <polygon id="Path-7" fill="#FFC300" fill-rule="nonzero" points="4.45951468 2.96994827 4.5222095 3.03040543 3.29461258 3.91941769 3.22863742 3.91680488 2.21338838 3.02779263 2.28264389 2.97256107 3.26639538 3.83399221"></polygon>
                        </g>
                        <path d="M1.67667589,4.42196 L2.09886921,4.42196 L2.38691224,4.50992788 C2.44867351,4.95062284 2.6338297,5.17097032 2.94238083,5.17097032 L3.01823344,6.01722365 L2.65953318,5.82349598 C2.50409094,5.89213581 2.41321729,5.92645573 2.38691224,5.92645573 C2.34745466,5.92645573 2.01503211,6.11289163 2.01503211,5.92645573 C2.01503211,5.80216513 1.90224671,5.63945178 1.67667589,5.43831567 L1.67667589,4.42196 Z" id="Path-8" fill="#D62818" fill-rule="nonzero"></path>
                        <path d="M3.67667589,4.42196 L4.09886921,4.42196 L4.38691224,4.50992788 C4.44867351,4.95062284 4.6338297,5.17097032 4.94238083,5.17097032 L5.01823344,6.01722365 L4.65953318,5.82349598 C4.50409094,5.89213581 4.41321729,5.92645573 4.38691224,5.92645573 C4.34745466,5.92645573 4.01503211,6.11289163 4.01503211,5.92645573 C4.01503211,5.80216513 3.90224671,5.63945178 3.67667589,5.43831567 L3.67667589,4.42196 Z" id="Path-8" fill="#003994" fill-rule="nonzero" transform="translate(4.347455, 5.219592) scale(-1, 1) translate(-4.347455, -5.219592) "></path>
                        <path d="M4.11378325,4.50188805 L4.61378321,4.50210082 C4.61364334,4.8760972 4.4816785,5.17919853 4.2216344,5.38428462 L3.92437718,4.95543932 C4.05181758,4.85493231 4.11370438,4.71278862 4.11378325,4.50188805 Z" id="Path-9" fill="#D62818" fill-rule="nonzero"></path>
                        <path d="M2.80396486,3.47333026 L2.80396486,4.17462326 L3.385301,4.17462326 C3.34888105,4.52521013 3.33067108,4.81107963 3.33067108,5.03223178 C3.33067108,5.25338392 3.34888105,5.50746139 3.385301,5.79446419 C3.48014042,5.74710917 3.52756013,5.57388658 3.52756013,5.27479643 C3.52756013,4.97570628 3.52756013,4.59277807 3.52756013,4.12601182 L3.98687468,4.17462326 L3.93833606,3.54217281 L3.74464771,3.54217281 C3.94319407,3.80493461 3.94319407,3.93631552 3.74464771,3.93631552 C3.44682816,3.93631552 3.10454078,4.01328123 3.03959474,4.01328123 C2.99629738,4.01328123 2.91775409,3.83329758 2.80396486,3.47333026 Z" id="Path-10" fill="#D62818" fill-rule="nonzero"></path>
                        <path d="M3.30954031,4.32087894 C3.09181053,4.44911094 2.98294563,4.61753836 2.98294563,4.8261612 C2.98294563,5.03478404 3.03737808,5.25803545 3.14624297,5.49591543 C3.09459689,5.02607761 3.10890159,4.72867792 3.18915708,4.60371635 C3.26941257,4.47875479 3.30954031,4.38447565 3.30954031,4.32087894 Z" id="Path-11" fill="#003994" fill-rule="nonzero"></path>
                        <path d="M2.77800825,4.55253846 C2.7657234,4.70350883 2.80430777,4.77899401 2.89376136,4.77899401 C2.98321495,4.77899401 2.94463058,4.70350883 2.77800825,4.55253846 Z" id="Path-12" fill="#003994" fill-rule="nonzero"></path>
                        <polygon id="Path-14" fill="#373737" fill-rule="nonzero" points="3.9276368 3.94397801 3.9789913 4.12242632 3.1244395 4.40223548 2.93287451 3.6064877 3.1023754 3.56006075 3.24834337 4.16640165"></polygon>
                        <g id="left" stroke-width="1" fill="none" fill-rule="evenodd" transform="translate(0.000000, 6.400000)">
                            <path d="M0.341350908,1.01614713 C0.444000869,0.987376138 0.589596011,0.987376138 0.778136333,1.01614713 C0.966676655,1.04491812 1.14974784,1.0711479 1.32734988,1.09483646 C1.27222343,1.15390317 1.15571417,1.2096884 0.9778221,1.26219215 C0.799930028,1.31469589 0.587772964,1.23268089 0.341350908,1.01614713 Z M3.30152305,0.0192020163 L3.30152305,0.445868683 C3.02655238,0.445868683 1.95913492,0.592182466 1.78103726,0.693592896 C1.72501336,0.725493416 1.71437742,0.725667015 1.74310634,0.765516505 L1.76243232,0.7609889 L1.76243232,0.7609889 L1.93979423,0.948924405 C1.86638324,1.02775052 1.70366338,1.04107053 1.53655078,1.0087642 L1.46094591,1.07230607 C1.43541262,1.038104 1.41361684,1.00370817 1.39553782,0.969364427 C1.32108451,0.945027847 1.25008002,0.910460657 1.19158046,0.869321377 C1.11037926,0.812217383 1.02662868,0.812217383 0.920637348,0.874700728 L0.799709524,0.641306697 C0.983996957,0.532666721 1.1670534,0.532666721 1.32918751,0.646686048 C1.35810535,0.518499121 1.44437212,0.401639577 1.59266799,0.317198558 C1.84757015,0.172054943 2.96269329,0.0192020163 3.30152305,0.0192020163 Z" id="Combined-Shape" fill="#D62818" fill-rule="nonzero"></path>
                            <path d="M1.61012703,0.715393532 L1.56513544,0.779400258 C1.36595963,0.620106123 1.44495813,0.484157454 1.74989028,0.415737411 C2.24997958,0.303528412 2.87717444,0.223692876 3.38063913,0.223692876 L3.38063913,0.303692876 C2.88279025,0.303692876 2.26064992,0.382885021 1.76532897,0.494024107 C1.51245026,0.55076451 1.47812983,0.609826597 1.61012703,0.715393532 Z M1.83223037,0.479399665 L1.81754076,0.400949138 C2.31179951,0.295649706 2.90117696,0.223692876 3.38063913,0.223692876 L3.38063913,0.303692876 C2.90654823,0.303692876 2.32196162,0.375064796 1.83223037,0.479399665 Z" id="Path-16" fill="#EBCA5E" fill-rule="nonzero"></path>
                        </g>
                        <g id="left" stroke-width="1" fill="none" fill-rule="evenodd" transform="translate(4.750000, 7.200000) scale(-1, 1) translate(-4.750000, -7.200000) translate(3.000000, 6.400000)">
                            <path d="M0.341350908,1.01614713 C0.444000869,0.987376138 0.589596011,0.987376138 0.778136333,1.01614713 C0.966676655,1.04491812 1.14974784,1.0711479 1.32734988,1.09483646 C1.27222343,1.15390317 1.15571417,1.2096884 0.9778221,1.26219215 C0.799930028,1.31469589 0.587772964,1.23268089 0.341350908,1.01614713 Z M3.30152305,0.0192020163 L3.30152305,0.445868683 C3.02655238,0.445868683 1.95913492,0.592182466 1.78103726,0.693592896 C1.72501336,0.725493416 1.71437742,0.725667015 1.74310634,0.765516505 L1.76243232,0.7609889 L1.76243232,0.7609889 L1.93979423,0.948924405 C1.86638324,1.02775052 1.70366338,1.04107053 1.53655078,1.0087642 L1.46094591,1.07230607 C1.43541262,1.038104 1.41361684,1.00370817 1.39553782,0.969364427 C1.32108451,0.945027847 1.25008002,0.910460657 1.19158046,0.869321377 C1.11037926,0.812217383 1.02662868,0.812217383 0.920637348,0.874700728 L0.799709524,0.641306697 C0.983996957,0.532666721 1.1670534,0.532666721 1.32918751,0.646686048 C1.35810535,0.518499121 1.44437212,0.401639577 1.59266799,0.317198558 C1.84757015,0.172054943 2.96269329,0.0192020163 3.30152305,0.0192020163 Z" id="Combined-Shape" fill="#D62818" fill-rule="nonzero"></path>
                            <path d="M1.61012703,0.715393532 L1.56513544,0.779400258 C1.36595963,0.620106123 1.44495813,0.484157454 1.74989028,0.415737411 C2.24997958,0.303528412 2.87717444,0.223692876 3.38063913,0.223692876 L3.38063913,0.303692876 C2.88279025,0.303692876 2.26064992,0.382885021 1.76532897,0.494024107 C1.51245026,0.55076451 1.47812983,0.609826597 1.61012703,0.715393532 Z M1.83223037,0.479399665 L1.81754076,0.400949138 C2.31179951,0.295649706 2.90117696,0.223692876 3.38063913,0.223692876 L3.38063913,0.303692876 C2.90654823,0.303692876 2.32196162,0.375064796 1.83223037,0.479399665 Z" id="Path-16" fill="#EBCA5E" fill-rule="nonzero"></path>
                        </g>
                        <path d="M2.86562137,7.51055079 L2.67125313,7.16847496 C2.84823499,7.05405834 3.07547215,6.99946974 3.35139788,6.99946974 C3.62857639,6.99946974 3.8532518,7.05452287 4.02397999,7.17104794 L3.82186608,7.50797781 C3.71901295,7.4377787 3.5626716,7.39946974 3.35139788,7.39946974 C3.13887139,7.39946974 2.97746812,7.43824323 2.86562137,7.51055079 Z" id="Path-15" fill="#D62818" fill-rule="nonzero"></path>
                    </g>
                </g>
            </g>
        </g>
    </g>
</svg>