<?xml version="1.0" encoding="UTF-8"?>
<svg width="32px" height="24px" viewBox="0 0 32 24" version="1.1" xmlns="http://www.w3.org/2000/svg" xmlns:xlink="http://www.w3.org/1999/xlink">
    <title>flags/L/EC - Ecuador</title>
    <defs>
        <rect id="path-1" x="0" y="0" width="32" height="24"></rect>
        <rect id="path-3" x="0" y="0" width="32" height="24"></rect>
        <path d="M3.41440893,9.66177569 C4.97921572,9.66177569 6.24774227,7.64705707 6.24774227,5.16177569 C6.24774227,2.67649432 4.97921572,0.661775694 3.41440893,0.661775694 C1.84960214,0.661775694 0.5810756,2.67649432 0.5810756,5.16177569 C0.5810756,7.64705707 1.84960214,9.66177569 3.41440893,9.66177569 Z" id="path-5"></path>
    </defs>
    <g id="Symbols" stroke="none" stroke-width="1" fill="none" fill-rule="evenodd">
        <g id="flag">
            <mask id="mask-2" fill="white">
                <use xlink:href="#path-1"></use>
            </mask>
            <g id="mask"></g>
            <g id="contents" mask="url(#mask-2)">
                <mask id="mask-4" fill="white">
                    <use xlink:href="#path-3"></use>
                </mask>
                <use id="background" fill="#2E42A5" xlink:href="#path-3"></use>
                <rect id="top" fill="#FECA00" mask="url(#mask-4)" x="0" y="0" width="32" height="12"></rect>
                <rect id="bottom" fill="#E31D1C" mask="url(#mask-4)" x="0" y="18" width="32" height="6"></rect>
                <g id="mark" mask="url(#mask-4)">
                    <g transform="translate(8.000000, 4.000000)">
                        <path d="M1.71707396,1.71423838 C4.4879026,0.46249041 5.99924051,-0.0922816574 6.25108767,0.0499221746 C6.62885842,0.263227923 6.71998733,0.871200095 7.04613961,0.871200095 C7.37229188,0.871200095 8.02880239,0.67908557 8.30295383,0.67908557 C8.48572146,0.67908557 8.66742698,0.743123745 8.8480704,0.871200095 L10.0187264,0.871200095 L10.0187264,0.220212529 L15.3268897,1.71423838 C13.2629155,1.98388586 12.1531396,2.1187096 11.997562,2.1187096 C11.8419843,2.1187096 11.8419843,2.22991704 11.997562,2.45233193 C11.7032304,2.22991704 11.3319598,2.1187096 10.88375,2.1187096 C10.4355402,2.1187096 9.75698036,2.35023363 8.8480704,2.81328169 L9.34360773,3.87943089 L8.8480704,4.1929372 L8.30295383,3.87943089 C8.32649016,3.29492759 8.26000216,3.00267594 8.10348986,3.00267594 C7.86872139,3.00267594 7.69755199,3.56592457 7.69755199,3.87943089 C7.69755199,4.08843509 7.48041453,4.1929372 7.04613961,4.1929372 L7.33711485,3.6060301 C7.52990878,2.95734109 7.43291704,2.63299659 7.04613961,2.63299659 C6.65936218,2.63299659 5.58442341,2.46156759 3.82132331,2.1187096 L3.14505759,2.45233193 L3.38683597,1.71423838 L1.71707396,1.71423838 Z" id="Path-434" fill="#7B2900"></path>
                        <g id="l" stroke-width="1" fill="none" transform="translate(1.133333, 4.500000)">
                            <path d="M6.78815361,9.55510189 C6.8188273,11.6809901 6.74834578,12.834857 6.57670905,13.0167025 C6.31925395,13.2894707 6.00603816,13.0167025 5.59990911,13.0167025 C5.32915641,13.0167025 5.59990911,12.1137166 6.4121672,10.3077448 L6.4121672,10.3077448 Z M2.36791171,2.58648154 L3.62859326,3.24752694 C3.47902479,4.00132565 3.45560662,5.42575058 3.92734314,6.59070866 C4.24183415,7.36734738 4.99350958,8.06149776 6.18236941,8.6731598 C6.78213,8.80688936 6.62638241,8.92193446 5.71512664,9.01829507 C4.34824299,9.162836 3.01661711,8.7320394 2.36791171,7.27416154 C1.93544144,6.30224297 1.93544144,4.73968297 2.36791171,2.58648154 L2.36791171,2.58648154 Z" id="Combined-Shape" fill="#E31D1C"></path>
                            <path d="M6.54089475,10.0588881 C6.06337077,12.1126623 5.65790024,13.1395494 5.32448314,13.1395494 C5.02440775,13.1395494 5.08442283,12.9874722 5.18044695,12.8082043 L5.24624126,12.6860346 C5.28891865,12.6037299 5.32448314,12.5215362 5.32448314,12.4504175 C5.32448314,12.2726205 5.15713732,12.361519 4.82244569,12.7171129 L4.82244569,12.7171129 L5.32448314,10.9247626 L6.0321023,10.0588881 Z M1.49785477,1.66493998 L2.35115273,2.27461993 C2.22584533,3.40023158 2.22584533,6.3111086 2.94761178,7.57234526 C3.42878941,8.41316969 4.72451929,9.01019806 6.83480142,9.36343035 C6.41845489,9.67120128 5.82855983,9.8970321 5.06511624,10.0409228 C3.91995086,10.2567589 1.73695663,8.97504758 1.19347587,6.79806816 C0.831155368,5.34674855 0.932615,3.63570583 1.49785477,1.66493998 L1.49785477,1.66493998 Z" id="Combined-Shape" fill="#2E42A5"></path>
                            <path d="M5.92810064,10.2189306 C5.66282842,10.8748732 5.36645766,11.2028445 5.03898837,11.2028445 C4.54778444,11.2028445 5.03898837,10.915527 4.55313746,10.915527 C4.22923686,10.915527 4.29984583,10.6833282 4.76496438,10.2189306 L4.76496438,10.2189306 Z M0.634212026,0.819940522 L1.48750999,1.42962047 C1.10183715,2.51411447 1.22126063,5.62602519 1.48750999,7.17103693 C1.66500956,8.20104476 2.59354729,9.02651861 4.27312318,9.64745847 C3.85677665,9.9552294 3.26688159,10.1810602 2.50343801,10.3249509 C1.35827263,10.540787 0.634212026,9.04486341 0.364521437,7.17103693 C0.184727711,5.92181928 0.274624574,3.80478715 0.634212026,0.819940522 L0.634212026,0.819940522 Z" id="Combined-Shape" fill="#FECA00"></path>
                        </g>
                        <g id="l" stroke-width="1" fill="none" transform="translate(10.766667, 11.250000) scale(-1, 1) translate(-10.766667, -11.250000) translate(6.800000, 4.500000)">
                            <path d="M6.78815361,9.55510189 C6.8188273,11.6809901 6.74834578,12.834857 6.57670905,13.0167025 C6.31925395,13.2894707 6.00603816,13.0167025 5.59990911,13.0167025 C5.32915641,13.0167025 5.59990911,12.1137166 6.4121672,10.3077448 L6.4121672,10.3077448 Z M2.36791171,2.58648154 L3.62859326,3.24752694 C3.47902479,4.00132565 3.45560662,5.42575058 3.92734314,6.59070866 C4.24183415,7.36734738 4.99350958,8.06149776 6.18236941,8.6731598 C6.78213,8.80688936 6.62638241,8.92193446 5.71512664,9.01829507 C4.34824299,9.162836 3.01661711,8.7320394 2.36791171,7.27416154 C1.93544144,6.30224297 1.93544144,4.73968297 2.36791171,2.58648154 L2.36791171,2.58648154 Z" id="Combined-Shape" fill="#E31D1C"></path>
                            <path d="M6.54089475,10.0588881 C6.06337077,12.1126623 5.65790024,13.1395494 5.32448314,13.1395494 C5.02440775,13.1395494 5.08442283,12.9874722 5.18044695,12.8082043 L5.24624126,12.6860346 C5.28891865,12.6037299 5.32448314,12.5215362 5.32448314,12.4504175 C5.32448314,12.2726205 5.15713732,12.361519 4.82244569,12.7171129 L4.82244569,12.7171129 L5.32448314,10.9247626 L6.0321023,10.0588881 Z M1.49785477,1.66493998 L2.35115273,2.27461993 C2.22584533,3.40023158 2.22584533,6.3111086 2.94761178,7.57234526 C3.42878941,8.41316969 4.72451929,9.01019806 6.83480142,9.36343035 C6.41845489,9.67120128 5.82855983,9.8970321 5.06511624,10.0409228 C3.91995086,10.2567589 1.73695663,8.97504758 1.19347587,6.79806816 C0.831155368,5.34674855 0.932615,3.63570583 1.49785477,1.66493998 L1.49785477,1.66493998 Z" id="Combined-Shape" fill="#2E42A5"></path>
                            <path d="M5.92810064,10.2189306 C5.66282842,10.8748732 5.36645766,11.2028445 5.03898837,11.2028445 C4.54778444,11.2028445 5.03898837,10.915527 4.55313746,10.915527 C4.22923686,10.915527 4.29984583,10.6833282 4.76496438,10.2189306 L4.76496438,10.2189306 Z M0.634212026,0.819940522 L1.48750999,1.42962047 C1.10183715,2.51411447 1.22126063,5.62602519 1.48750999,7.17103693 C1.66500956,8.20104476 2.59354729,9.02651861 4.27312318,9.64745847 C3.85677665,9.9552294 3.26688159,10.1810602 2.50343801,10.3249509 C1.35827263,10.540787 0.634212026,9.04486341 0.364521437,7.17103693 C0.184727711,5.92181928 0.274624574,3.80478715 0.634212026,0.819940522 L0.634212026,0.819940522 Z" id="Combined-Shape" fill="#FECA00"></path>
                        </g>
                        <g id="grass" stroke-width="1" fill="none" transform="translate(1.133333, 2.250000)">
                            <polygon id="Path-441" fill="#6FAE21" fill-rule="nonzero" points="1.06949741 4.19602386 1.16106139 3.64364839 2.76197993 3.74728946 1.54765719 2.48936647 1.95680263 2.10018917 3.59913104 3.80148537 2.19504416 1.16148664 2.68043262 0.872799712 3.9587775 2.75317466 3.34901942 0.798680472 3.87332072 0.59015539 5.83895776 4.51018339 5.08491256 4.46136764 5.15878936 4.69816939 5.80074174 4.86839791 5.65449233 5.41184132 5.35681243 5.33290461 5.63487778 6.22420419 5.15185181 5.51369957 5.99288302 7.09419811 3.92650333 4.95362507"></polygon>
                            <polygon id="Path-441" fill="#6FAE21" fill-rule="nonzero" transform="translate(10.331190, 3.842177) scale(-1, 1) translate(-10.331190, -3.842177) " points="7.86949741 4.19602386 7.96106139 3.64364839 9.56197993 3.74728946 8.34765719 2.48936647 8.75680263 2.10018917 10.399131 3.80148537 8.99504416 1.16148664 9.48043262 0.872799712 10.7587775 2.75317466 10.1490194 0.798680472 10.6733207 0.59015539 12.6389578 4.51018339 11.8849126 4.46136764 11.9587894 4.69816939 12.6007417 4.86839791 12.4544923 5.41184132 12.1568124 5.33290461 12.4348778 6.22420419 11.9518518 5.51369957 12.792883 7.09419811 10.7265033 4.95362507"></polygon>
                        </g>
                        <g id="spear" stroke-width="1" fill="none" transform="translate(1.133333, 3.375000)">
                            <polygon id="Path-439" fill="#171401" fill-rule="nonzero" points="1.93340449 13.9362398 1.52109375 13.5503682 13.7114652 0.715586747 14.123776 1.10145837"></polygon>
                            <polygon id="Path-440" fill="#CECECC" points="13.4018182 0.814394754 14.0268478 1.40383217 14.379128 0.429406978"></polygon>
                            <polygon id="Path-440" fill="#CECECC" transform="translate(1.643353, 13.796061) rotate(-190.000000) translate(-1.643353, -13.796061) " points="1.07668682 13.5565019 1.70171642 14.1459393 2.09875458 13.2335615"></polygon>
                        </g>
                        <g id="spear" stroke-width="1" fill="none" transform="translate(0.226667, 1.462500)">
                            <polygon id="Path-439" fill="#171401" fill-rule="nonzero" points="1.93340449 13.9362398 1.52109375 13.5503682 13.7114652 0.715586747 14.123776 1.10145837"></polygon>
                            <polygon id="Path-440" fill="#CECECC" points="13.4018182 0.814394754 14.0268478 1.40383217 14.379128 0.429406978"></polygon>
                            <polygon id="Path-440" fill="#CECECC" transform="translate(1.643353, 13.796061) rotate(-190.000000) translate(-1.643353, -13.796061) " points="1.07668682 13.5565019 1.70171642 14.1459393 2.09875458 13.2335615"></polygon>
                        </g>
                        <g id="spear" stroke-width="1" fill="none" transform="translate(7.820000, 10.687500) scale(-1, 1) translate(-7.820000, -10.687500) translate(0.453333, 3.375000)">
                            <polygon id="Path-439" fill="#171401" fill-rule="nonzero" points="1.93340449 13.9362398 1.52109375 13.5503682 13.7114652 0.715586747 14.123776 1.10145837"></polygon>
                            <polygon id="Path-440" fill="#CECECC" points="13.4018182 0.814394754 14.0268478 1.40383217 14.379128 0.429406978"></polygon>
                            <polygon id="Path-440" fill="#CECECC" transform="translate(1.643353, 13.796061) rotate(-190.000000) translate(-1.643353, -13.796061) " points="1.07668682 13.5565019 1.70171642 14.1459393 2.09875458 13.2335615"></polygon>
                        </g>
                        <g id="spear" stroke-width="1" fill="none" transform="translate(8.953333, 9.225000) scale(-1, 1) translate(-8.953333, -9.225000) translate(1.586667, 1.912500)">
                            <polygon id="Path-439" fill="#171401" fill-rule="nonzero" points="1.93340449 13.9362398 1.52109375 13.5503682 13.7114652 0.715586747 14.123776 1.10145837"></polygon>
                            <polygon id="Path-440" fill="#CECECC" points="13.4018182 0.814394754 14.0268478 1.40383217 14.379128 0.429406978"></polygon>
                            <polygon id="Path-440" fill="#CECECC" transform="translate(1.643353, 13.796061) rotate(-190.000000) translate(-1.643353, -13.796061) " points="1.07668682 13.5565019 1.70171642 14.1459393 2.09875458 13.2335615"></polygon>
                        </g>
                        <rect id="Rectangle" fill="#B74E01" x="5.66666667" y="12.375" width="4.53333333" height="2.25"></rect>
                        <g id="inner" stroke-width="1" fill="none" transform="translate(4.533333, 3.375000)">
                            <mask id="mask-6" fill="white">
                                <use xlink:href="#path-5"></use>
                            </mask>
                            <path stroke="#FECA00" stroke-width="0.5" d="M3.41440893,0.411775694 C4.27264239,0.411775694 5.0625614,0.946261055 5.62943636,1.84659186 C6.16363273,2.69502139 6.49774227,3.86633395 6.49774227,5.16177569 C6.49774227,6.45721744 6.16363273,7.62853 5.62943636,8.47695953 C5.0625614,9.37729033 4.27264239,9.91177569 3.41440893,9.91177569 C2.55617547,9.91177569 1.76625646,9.37729033 1.19938151,8.47695953 C0.665185139,7.62853 0.3310756,6.45721744 0.3310756,5.16177569 C0.3310756,3.86633395 0.665185139,2.69502139 1.19938151,1.84659186 C1.76625646,0.946261055 2.55617547,0.411775694 3.41440893,0.411775694 Z"></path>
                            <path d="M0.346104946,5.23485907 L1.95838564,5.23485907 C2.69727328,5.3985706 2.88199519,5.54482294 2.51255137,5.67361609 C1.95838564,5.86680581 1.95838564,5.93069633 1.95838564,6.20624788 C1.95838564,6.48179943 1.95838564,7.49013087 1.95838564,7.70546088 C1.95838564,7.92079088 2.35264031,8.38181469 1.52168911,8.38181469 C0.967721644,8.38181469 0.452103374,7.24312973 -0.0251656994,4.96575982 L0.346104946,5.23485907 Z" id="Path-442" fill="#6FAE21" mask="url(#mask-6)"></path>
                            <path d="M6.64572533,5.42045784 C5.64725838,5.61769608 4.80602597,5.68344215 4.1220281,5.61769608 C3.43803023,5.55195 2.94593412,5.48620392 2.64573977,5.42045784 C3.12249903,5.66842894 3.44559244,5.89632618 3.61501999,6.10414958 C3.86916131,6.41588467 4.38955198,6.95484225 4.92001145,6.95484225 C5.45047092,6.95484225 6.26362118,7.45799585 6.26362118,7.45799585 C6.26362118,7.45799585 6.39098923,6.77881651 6.64572533,5.42045784 Z" id="Path-443" fill="#6FAE21" mask="url(#mask-6)"></path>
                            <path d="M0.785435504,2.7605883 C1.6085271,2.91966092 2.11918887,3.11829082 2.3174208,3.35647803 C2.61476869,3.71375883 1.92461059,4.07103963 3.72360996,3.71375883 C5.52260933,3.35647803 6.95059295,2.73326088 6.95059295,3.71375883 C6.95059295,4.69425678 6.79344338,5.59745354 6.01929374,5.59745354 C5.2451441,5.59745354 4.93632544,5.59745354 2.57538571,5.59745354 C0.214445977,5.59745354 -1.07257461,6.31960609 -0.907268046,5.15768439 C-0.797063669,4.38306992 -0.232829152,3.58403789 0.785435504,2.7605883 Z" id="Path-2" fill="#F7FCFF" mask="url(#mask-6)"></path>
                        </g>
                    </g>
                </g>
            </g>
        </g>
    </g>
</svg>