<?xml version="1.0" encoding="UTF-8"?>
<svg width="32px" height="24px" viewBox="0 0 32 24" version="1.1" xmlns="http://www.w3.org/2000/svg" xmlns:xlink="http://www.w3.org/1999/xlink">
    <title>flags/L/EG - Egypt</title>
    <defs>
        <rect id="path-1" x="0" y="0" width="32" height="24"></rect>
        <rect id="path-3" x="0" y="0" width="32" height="24"></rect>
    </defs>
    <g id="Symbols" stroke="none" stroke-width="1" fill="none" fill-rule="evenodd">
        <g id="flag">
            <mask id="mask-2" fill="white">
                <use xlink:href="#path-1"></use>
            </mask>
            <g id="mask"></g>
            <g id="contents" mask="url(#mask-2)">
                <mask id="mask-4" fill="white">
                    <use xlink:href="#path-3"></use>
                </mask>
                <use id="background" fill="#F7FCFF" xlink:href="#path-3"></use>
                <rect id="top" fill="#BF2714" mask="url(#mask-4)" x="0" y="0" width="32" height="8"></rect>
                <rect id="bottom" fill="#272727" mask="url(#mask-4)" x="0" y="16" width="32" height="8"></rect>
                <g id="mark" mask="url(#mask-4)">
                    <g transform="translate(12.000000, 7.000000)">
                        <g id="wing" stroke-width="1" fill="none" fill-rule="evenodd" transform="translate(0.000000, 3.068966)">
                            <polygon id="Path-23" fill="#C09302" fill-rule="nonzero" points="0.260327061 0.151266866 1.25927792 0.197061793 1.00852559 5.66686533 0.00957473256 5.6210704"></polygon>
                            <polygon id="Path-23" fill="#C09302" fill-rule="nonzero" points="1.3040779 0.490769317 2.3024836 0.547214514 2.05173127 4.98253529 1.05332557 4.9260901"></polygon>
                            <polygon id="Path-23" fill="#C09302" fill-rule="nonzero" points="2.3484337 0.822930822 3.34508432 0.904708182 3.094332 3.96071862 2.09768137 3.87894126"></polygon>
                        </g>
                        <g id="wing" stroke-width="1" fill="none" fill-rule="evenodd" transform="translate(6.260870, 6.000000) scale(-1, 1) translate(-6.260870, -6.000000) translate(4.521739, 3.068966)">
                            <polygon id="Path-23" fill="#C09302" fill-rule="nonzero" points="0.260327061 0.151266866 1.25927792 0.197061793 1.00852559 5.66686533 0.00957473256 5.6210704"></polygon>
                            <polygon id="Path-23" fill="#C09302" fill-rule="nonzero" points="1.3040779 0.490769317 2.3024836 0.547214514 2.05173127 4.98253529 1.05332557 4.9260901"></polygon>
                            <polygon id="Path-23" fill="#C09302" fill-rule="nonzero" points="2.3484337 0.822930822 3.34508432 0.904708182 3.094332 3.96071862 2.09768137 3.87894126"></polygon>
                        </g>
                        <g id="feathers" stroke-width="1" fill="none" fill-rule="evenodd" transform="translate(3.478261, 6.260010)">
                            <polygon id="Path-30" fill="#C09302" fill-rule="nonzero" points="0.495081032 2.06668264 -0.479661578 1.8433514 -0.0670868381 0.0426441763 0.907655773 0.265975417"></polygon>
                            <polygon id="Path-30" fill="#C09302" fill-rule="nonzero" transform="translate(1.215991, 1.054663) scale(-1, 1) translate(-1.215991, -1.054663) " points="1.19073321 2.06668264 0.215990596 1.8433514 0.628565336 0.0426441763 1.60330795 0.265975417"></polygon>
                            <polygon id="Path-31" fill="#C09302" fill-rule="nonzero" points="0.993913066 2.05017706 -0.00608693387 2.05017706 -0.00608693387 0.282248491 0.993913066 0.282248491"></polygon>
                        </g>
                        <g id="center" stroke-width="1" fill="none" fill-rule="evenodd" transform="translate(0.782609, 3.758621)">
                            <polygon id="Path-23" fill="#C09302" fill-rule="nonzero" points="1.85214258 0.154629771 2.85184183 0.179153472 2.79343577 2.56005415 1.79373652 2.53553045"></polygon>
                            <polygon id="Path-23" fill="#C09302" fill-rule="nonzero" points="3.59127302 0.154629771 4.59097227 0.179153472 4.53256621 2.56005415 3.53286696 2.53553045"></polygon>
                        </g>
                        <g id="bottom" stroke-width="1" fill="none" fill-rule="evenodd" transform="translate(0.695652, 6.931034)">
                            <path d="M0.642321259,1.99181207 L0.902025429,1.02612385 C1.96306972,1.31147228 2.7777839,1.45259007 3.33333331,1.45259007 C3.88888271,1.45259007 4.7035969,1.31147228 5.76464119,1.02612385 L6.02434536,1.99181207 C4.8859607,2.29795978 3.99323491,2.45259007 3.33333331,2.45259007 C2.67343171,2.45259007 1.78070592,2.29795978 0.642321259,1.99181207 Z" id="Path-28" fill="#C09302" fill-rule="nonzero"></path>
                        </g>
                        <path d="M0.282304357,3.22270931 C0.215641266,2.56210888 0.602282301,2.11492759 1.25754351,2.17196297 C1.47300052,2.19071683 1.71499447,2.2544567 2.03730812,2.36380771 C2.13147658,2.39611456 2.13147658,2.39611456 2.22300265,2.42851507 C2.66609336,2.58611142 2.78640601,2.62662206 2.81137756,2.63195653 C2.71320012,2.60972074 3.00237044,2.08695054 3.06870207,1.99883834 C3.07654472,2.05479095 3.0432567,2.0468278 2.96332424,2.03083049 L2.06128609,1.8503007 L2.70340047,1.19154964 C2.92784602,0.96128889 3.22673992,0.847103889 3.56782384,0.847103889 C3.60318495,0.847103889 3.63617534,0.845460656 3.74453612,0.838794363 C3.82467283,0.833922239 3.82467283,0.833922239 3.91477341,0.83019345 C4.53873078,0.809974628 4.98620372,0.986416523 4.98620372,1.62807007 C4.98620372,1.85762801 5.01519635,2.22677621 5.06304916,2.50682626 C5.07914651,2.60103318 5.11024606,2.6892129 5.0185272,2.72794355 C5.0223157,2.6945228 5.24086579,2.60827828 5.58070884,2.46615098 L5.62151275,2.44910165 C6.60894342,2.03695862 6.72430766,1.99872218 7.04260813,2.19216406 C7.25472558,2.32107496 7.45668936,2.55294864 7.68299473,2.89865992 L6.84631721,3.44635575 C6.70035063,3.22337258 6.5841082,3.08807263 6.52875654,3.05028135 C6.6545599,3.13768135 6.23085729,3.27837922 6.00669631,3.37194163 L5.96654064,3.38872013 C5.19775249,3.71023848 5.09640628,3.74859329 4.87658079,3.74859329 C4.27838688,3.74859329 4.06359253,3.13583556 4.00479249,2.25828263 C3.82023,2.86585532 3.26955835,3.63260476 2.8157886,3.63260476 C2.61714171,3.63260476 2.71264441,3.66403779 1.88789295,3.37069418 C1.80148286,3.34010762 1.80148286,3.34010762 1.71602601,3.31079124 C1.46616301,3.22602049 1.28591074,3.17846751 1.1721904,3.16831619 C1.17688954,3.16295511 1.19363311,3.14494293 1.21242068,3.12884859 L0.282304357,3.22270931 Z" id="Path-32" fill="#C09302" fill-rule="nonzero"></path>
                    </g>
                </g>
            </g>
        </g>
    </g>
</svg>