<?xml version="1.0" encoding="UTF-8"?>
<svg width="32px" height="24px" viewBox="0 0 32 24" version="1.1" xmlns="http://www.w3.org/2000/svg" xmlns:xlink="http://www.w3.org/1999/xlink">
    <title>flags/L/ER - Eritrea</title>
    <defs>
        <rect id="path-1" x="0" y="0" width="34" height="24"></rect>
    </defs>
    <g id="Symbols" stroke="none" stroke-width="1" fill="none" fill-rule="evenodd">
        <g id="flag">
            <mask id="mask-2" fill="white">
                <use xlink:href="#path-1"></use>
            </mask>
            <g id="mask"></g>
            <g id="contents" mask="url(#mask-2)">
                <rect id="top" fill="#43B764" x="0" y="0" width="32" height="12"></rect>
                <rect id="bottom" fill="#B4D7F4" x="0" y="12" width="32" height="12"></rect>
                <polygon id="blue" fill="#BE0027" points="0 0 33 12 0 24"></polygon>
                <path d="M9.29318398,6 C10.0707474,6.19150433 10.7703513,6.42685942 11.3912635,6.70597419 C11.2833049,6.5419637 11.1670907,6.36264307 11.07049,6.1940778 C10.7381213,5.61410473 11.7756122,6.51480116 12.1863771,7.11112122 C12.1872548,7.11239541 12.1881363,7.11367277 12.1890216,7.11495327 C12.8576784,7.50208995 13.4079688,7.95398463 13.8403736,8.47020689 L13.8401484,7.29623371 C14.228265,7.42916544 14.4491149,8.68355594 14.5651236,9.62802783 C14.6497723,9.81708541 14.7227209,10.0133547 14.7839084,10.2159547 C14.9338396,9.81324122 15.2193321,9.3842638 15.4760935,9.75503709 C15.7228733,10.1113965 15.5556452,11.4776372 14.9744092,13.853759 L15.0414205,13.5821796 C15.0333087,13.6653336 15.0240663,13.7479387 15.0136928,13.8299941 C15.894591,13.2700887 15.9853318,11.3408431 15.9853318,12.7826085 C15.9853318,13.5642324 15.5722429,14.3406721 14.7460651,15.1119276 C14.6707337,15.3664713 14.5829729,15.6134006 14.4826727,15.8541753 C15.5263439,15.5249687 16.1595733,14.5096809 15.9853318,15.6835217 C15.8818619,16.380584 15.195954,16.7955433 13.9276082,16.9283994 L13.7713494,17.1652209 L13.7398872,17.2033992 C13.6240542,17.3206014 13.5070093,17.4323915 13.3887616,17.5387583 L13.3219558,17.5654485 C13.7382318,17.3965295 14.0569394,17.1883931 14.4972775,17.1883931 C14.9376157,17.1883931 13.1036884,17.6900848 12.7671282,18.053556 C12.4664677,18.3782571 12.5722851,18.4593171 12.0718612,18.4729156 C11.4959126,18.7784795 10.8979596,18.9712121 10.2768584,19.0508938 C10.2945332,19.099647 10.3107003,19.1524654 10.3253865,19.2074045 L10.3253865,19.2074045 L7.69334752,19.2074045 C7.71123066,19.1405058 7.73130972,19.0767517 7.75358469,19.0161423 C7.21071779,18.9256333 6.68519761,18.7443191 6.17837615,18.4756969 L6.13504882,18.4752012 C5.39664995,18.4752012 5.56943203,18.4170273 5.2328718,18.053556 C4.89631157,17.6900848 3.06238432,17.1883931 3.50272246,17.1883931 C3.94306061,17.1883931 4.26176824,17.3965295 4.67804419,17.5654485 C4.77495499,17.6047736 4.89724877,17.6502068 5.04492553,17.7017483 C4.86201571,17.5494256 4.68192308,17.3827491 4.50466839,17.2033992 L4.47320626,17.1652209 L4.33003687,16.9499278 C2.90573489,16.8461046 2.13862895,16.4239692 2.02871906,15.6835217 C1.85096931,14.4860465 2.51353345,15.5667402 3.59477976,15.8736877 C3.66791317,15.894449 3.73487016,15.9124515 3.79565073,15.9276951 C3.71812871,15.7534512 3.64963244,15.575122 3.58783024,15.3935148 C2.5484808,14.5295954 2.02871906,13.6593634 2.02871906,12.7826085 C2.02871906,11.3200511 2.1220959,13.326434 3.03964167,13.853759 C2.45840568,11.4776372 2.29117757,10.1113965 2.53795736,9.75503709 C2.90812704,9.22049793 3.33801303,10.3482105 3.33801303,10.6657107 C3.33801303,10.9832108 3.51467594,7.52202182 4.17390242,7.29623371 L4.17390242,8.58826051 L4.17390242,8.58826051 C4.17390242,8.64909865 4.20131509,8.67244218 4.24934389,8.66613265 C4.61015921,8.18834421 5.0654831,7.76372022 5.61437358,7.39069615 C5.69860619,7.28872413 5.77104786,7.19332669 5.8276737,7.11112122 C6.23843863,6.51480116 7.27592958,5.61410473 6.94356083,6.1940778 C6.8152079,6.41804964 6.65222893,6.66100933 6.52156825,6.86422928 C7.22081958,6.51444676 8.03154782,6.22654131 8.95137163,6 L9.08508142,6.53075026 C8.27980773,6.72907928 7.56758931,6.97369061 6.94745097,7.26470553 C7.31166357,7.31773468 7.72201486,7.45755478 7.94258527,7.45755478 C8.28977944,7.45755478 7.28592025,7.91204737 6.7779751,7.91204737 C6.27002996,7.91204737 5.85716929,8.12578629 5.60979442,8.12578629 C5.36241954,8.12578629 6.53729754,8.48655401 6.07354598,8.83033491 C5.69086808,9.11401557 5.10082899,8.78545197 4.5940824,9.13072828 C4.4133911,9.38757718 4.26317082,9.66091406 4.14278015,9.94974305 C4.26608458,10.1082596 4.73818474,9.92451975 4.84663478,9.75503709 C5.00702542,9.50438312 5.94749738,9.75111401 5.23026101,10.4699982 C4.76405737,10.9372729 4.12031613,11.2237799 3.78700469,11.4301545 L3.75711447,11.7221775 L3.75711447,11.7221775 C3.85085985,11.6241129 3.92919435,11.3806948 4.17390242,11.513632 C4.26880306,11.5651866 4.32151799,11.5694593 4.34767815,11.5641321 L4.36,11.56 L4.3541484,11.5685966 C4.33004802,11.6100282 4.28598567,11.7426426 4.28598567,12.1207846 C4.28598567,12.4351151 4.21352667,12.7400348 4.12409227,12.9879168 L4.12,12.998 L4.13146084,12.9872882 C4.32741948,12.8047921 4.53452485,12.7484814 4.53452485,13.1093594 C4.53452485,13.7326942 4.28598567,13.9118561 4.28598567,14.5401027 C4.28598567,15.1683493 4.53452485,16.0638538 4.53452485,15.8736877 C4.53452485,15.6835217 4.83641671,14.4619932 5.00702542,15.0133899 C5.17763413,15.5647867 5.18668791,16.5699701 5.5071808,16.9684377 C5.740593,17.2586383 6.57118005,17.9372239 7.10074261,18.2845549 C7.41182739,18.3946302 7.73061275,18.4700181 8.05601194,18.5105665 C8.19948041,18.3561705 8.37643735,18.2510684 8.58637537,18.1931969 L8.58511836,18.3027914 C8.59968747,17.6307021 8.59306147,16.8874716 8.55038052,16.1850445 L8.51899101,16.1514033 C8.45648872,16.0970908 8.36600491,16.0699345 8.24753957,16.0699345 C7.84771906,16.0699345 6.96952662,15.7281825 6.96952662,15.2362376 C7.40623111,15.4335272 7.68552436,15.4828496 7.80740635,15.3842048 C7.99022934,15.2362376 6.62489391,14.358872 6.79721026,13.9367664 C7.22539071,14.3158428 7.48518478,14.505381 7.57659247,14.505381 C7.71370402,14.505381 7.34577859,13.6213384 7.57659247,13.7790524 C7.80740635,13.9367664 8.4484977,15.0246688 8.4484977,15.3842048 C8.4484977,15.5554125 8.47804081,15.7910917 8.53712704,16.0912426 L8.5474982,16.1385412 C8.54712346,16.1326125 8.54674612,16.126687 8.54636616,16.1207646 C8.51979309,15.7065724 8.48148643,15.334556 8.43050856,15.0161397 C8.14222504,13.2154726 8.13206502,11.3697349 8.53348064,10.388218 C8.33352453,10.2662922 8.18739386,10.1082597 8.18739386,9.92774606 C8.62409835,10.1052148 8.9033916,10.149582 9.02527359,10.0608476 C9.20809658,9.92774606 7.84276115,9.13852558 8.0150775,8.75882714 C8.44325795,9.09981935 8.70305202,9.27031546 8.79445971,9.27031546 C8.93157126,9.27031546 8.56364583,8.47508884 8.79445971,8.61695799 C9.02527359,8.75882714 9.66636494,9.73743261 9.66636494,10.0608476 C9.9145651,9.76084853 10.2042503,9.4734047 10.3565572,9.4014149 C10.6567059,9.25954576 10.1782583,10.0547724 10.3565572,10.0547724 C10.4754231,10.0547724 10.8132574,9.88427627 11.3700602,9.54328405 C11.5941392,9.9229825 9.81866674,10.712203 10.0564085,10.8453045 C10.2149029,10.9340389 10.5780939,10.8896717 11.1459813,10.712203 C11.1459813,11.1547242 10.0039861,11.4621419 9.48406236,11.4621419 C9.33001088,11.4621419 9.21234637,11.4865699 9.13106884,11.5354258 L9.10597088,11.5539174 C9.06950555,11.8663158 9.05272721,12.2218937 9.05456701,12.6035879 C9.31407832,12.2696399 9.63885594,11.9405277 9.80336368,11.862771 C10.1035124,11.7209019 9.62506481,12.5161285 9.80336368,12.5161285 C9.9222296,12.5161285 10.260064,12.3456324 10.8168667,12.0046402 C11.0409457,12.3843386 9.26547326,13.1735591 9.50321496,13.3066607 C9.66170944,13.395395 10.0249004,13.3510278 10.5927878,13.1735591 C10.5927878,13.5672028 9.68913317,13.8539397 9.12353995,13.912479 C9.15601904,14.2347196 9.1980754,14.5629465 9.25009383,14.8878623 C9.30555835,15.234303 9.34639659,15.6309049 9.3744919,16.0688241 C9.38678441,16.2604263 9.396434,16.4547514 9.40372815,16.649829 C9.43282867,16.4696139 9.44670523,16.3219941 9.44670523,16.2046569 C9.44670523,15.8451208 10.0877966,14.7572185 10.3186105,14.5995045 C10.5494243,14.4417905 10.1814989,15.325833 10.3186105,15.325833 C10.4100181,15.325833 10.6698122,15.1362948 11.0979927,14.7572185 C11.270309,15.179324 9.90497358,16.0566897 10.0877966,16.2046569 C10.2096786,16.3033017 10.4889718,16.2539793 10.9256763,16.0566897 C10.9256763,16.5486345 10.0474839,16.8903866 9.64766335,16.8903866 C9.54913209,16.8903866 9.46995777,16.9091726 9.4101404,16.9467447 C9.42012693,17.2250972 9.42273392,17.5019281 9.42171024,17.7726173 L9.41686501,18.1890274 C9.6429691,18.248405 9.83139957,18.361733 9.98215643,18.5290116 C10.223934,18.5125506 10.4635319,18.4743276 10.6995456,18.4169075 C11.1788715,18.1506487 12.2382702,17.302387 12.50687,16.9684377 C12.8273629,16.5699701 12.8364167,15.5647867 13.0070254,15.0133899 C13.1776341,14.4619932 13.479526,15.6835217 13.479526,15.8736877 C13.479526,16.0638538 13.7280652,15.1683493 13.7280652,14.5401027 C13.7280652,13.9118561 13.479526,13.7326942 13.479526,13.1093594 C13.479526,12.7484814 13.6866314,12.8047921 13.88259,12.9872882 L13.893,12.998 L13.8899586,12.9879168 C13.8133005,12.7754465 13.7491142,12.5210709 13.7323397,12.2547826 L13.7280652,12.1207846 C13.7280652,11.7426426 13.6840028,11.6100282 13.6599024,11.5685966 L13.6537381,11.5600853 C13.6731343,11.5692772 13.7262677,11.5754975 13.8401484,11.513632 C14.2007708,11.3177245 14.2000723,11.9391649 14.4192711,11.7095394 C14.6384699,11.479914 13.5010262,11.1888824 12.7837898,10.4699982 C12.0665535,9.75111401 13.0070254,9.50438312 13.1674161,9.75503709 C13.3278067,10.0056911 14.2835914,10.287529 13.7280652,9.45314138 C13.172539,8.61875377 12.4042564,9.1741158 11.9405049,8.83033491 C11.4767533,8.48655401 12.6516313,8.12578629 12.4042564,8.12578629 C12.1568815,8.12578629 11.7440209,7.91204737 11.2360757,7.91204737 C10.7281306,7.91204737 9.7242714,7.45755478 10.0714656,7.45755478 C10.3314272,7.45755478 10.8550077,7.26333493 11.2551924,7.24344396 C10.6448579,6.96270261 9.94662274,6.72461529 9.15947419,6.53075026 L9.15947419,6.53075026 Z" id="Combined-Shape" fill="#F3E294" fill-rule="nonzero"></path>
            </g>
        </g>
    </g>
</svg>