<?xml version="1.0" encoding="UTF-8"?>
<svg width="32px" height="24px" viewBox="0 0 32 24" version="1.1" xmlns="http://www.w3.org/2000/svg" xmlns:xlink="http://www.w3.org/1999/xlink">
    <title>flags/L/ES - Spain</title>
    <defs>
        <rect id="path-1" x="0" y="0" width="32" height="24"></rect>
        <rect id="path-3" x="0" y="0" width="32" height="24"></rect>
        <path d="M0,0 L2.016,0 L2.016,0.896 C1.848,0.821333333 1.68,0.784 1.512,0.784 C1.344,0.784 1.176,0.821333333 1.008,0.896 C0.84,0.821333333 0.672,0.784 0.504,0.784 C0.336,0.784 0.168,0.821333333 0,0.896 L0,0 Z" id="path-5"></path>
        <path d="M0,0 L2.016,0 L2.016,0.896 C1.848,0.821333333 1.68,0.784 1.512,0.784 C1.344,0.784 1.176,0.821333333 1.008,0.896 C0.84,0.821333333 0.672,0.784 0.504,0.784 C0.336,0.784 0.168,0.821333333 0,0.896 L0,0 Z" id="path-7"></path>
        <path d="M0,0 L7.28,0 L7.28,6.54083119 C6.9194832,8.00427706 5.70614987,8.736 3.64,8.736 C1.57385013,8.736 0.360516799,7.98498349 0,6.48295047 L0,0 Z" id="path-9"></path>
    </defs>
    <g id="Symbols" stroke="none" stroke-width="1" fill="none" fill-rule="evenodd">
        <g id="flag">
            <mask id="mask-2" fill="white">
                <use xlink:href="#path-1"></use>
            </mask>
            <g id="mask"></g>
            <g id="contents" mask="url(#mask-2)">
                <mask id="mask-4" fill="white">
                    <use xlink:href="#path-3"></use>
                </mask>
                <use id="background" fill="#FFB400" xlink:href="#path-3"></use>
                <rect id="top" fill="#C51918" mask="url(#mask-4)" x="0" y="0" width="32" height="6"></rect>
                <rect id="bottom" fill="#C51918" mask="url(#mask-4)" x="0" y="18" width="32" height="6"></rect>
                <g id="mark" mask="url(#mask-4)">
                    <g transform="translate(4.000000, 4.000000)">
                        <g id="pillars" transform="translate(0.000000, 4.144000)">
                            <rect id="Rectangle-76" fill="#F1F9FF" x="1.008" y="2.128" width="1.12" height="5.824"></rect>
                            <path d="M2.576,1.12 L2.576,1.68 L2.24,1.68 L2.24,2.128 L0.896,2.128 L0.895,1.68 L0.56,1.68 L0.56,1.12 L2.576,1.12 Z" id="Combined-Shape" fill="#C88A02"></path>
                            <polygon id="Combined-Shape" fill="#C88A02" points="2.24 8.288 2.576 8.288 2.576 8.848 0.56 8.848 0.56 8.288 0.896 8.288 0.896 7.84 2.24 7.84"></polygon>
                            <path d="M1.568,1.232 C1.81173233,1.232 1.8365055,1.14022376 1.98029977,1.00314997 C2.09195648,0.896711737 2.352,0.764703433 2.352,0.616 C2.352,0.275792594 2.00099124,0 1.568,0 C1.13500876,0 0.784,0.275792594 0.784,0.616 C0.784,0.781667479 0.963079255,0.892440322 1.09848359,1.00314997 C1.2411396,1.11978875 1.34585827,1.232 1.568,1.232 Z" id="Oval-56" fill="#AD1619"></path>
                            <g id="water" transform="translate(0.560000, 8.848000)">
                                <mask id="mask-6" fill="white">
                                    <use xlink:href="#path-5"></use>
                                </mask>
                                <use id="Rectangle-76" fill="#005BBF" xlink:href="#path-5"></use>
                                <path d="M-0.0182278976,0.719924765 L-0.06223046,0.612639295 C0.119347998,0.531830447 0.301573561,0.49128203 0.484073637,0.49128203 C0.601982033,0.49128203 0.663553928,0.507723035 0.768226327,0.554305962 C0.860167484,0.595223035 0.907825342,0.607948697 1.00837645,0.607948697 C1.10892756,0.607948697 1.15658542,0.595223035 1.24852658,0.554305962 C1.35319898,0.507723035 1.41477087,0.49128203 1.53267927,0.49128203 C1.71517935,0.49128203 1.89740491,0.531830447 2.07898337,0.612639295 L2.0349808,0.719924765 C1.86702405,0.645178058 1.6997144,0.607948697 1.53267927,0.607948697 C1.43212816,0.607948697 1.3844703,0.620674358 1.29252914,0.661591432 C1.18785674,0.708174358 1.12628485,0.724615363 1.00837645,0.724615363 C0.890468058,0.724615363 0.828896163,0.708174358 0.724223764,0.661591432 C0.632282607,0.620674358 0.584624748,0.607948697 0.484073637,0.607948697 C0.317038503,0.607948697 0.149728855,0.645178058 -0.0182278976,0.719924765 Z" id="Path-308" fill="#FFFFFF" fill-rule="nonzero" mask="url(#mask-6)"></path>
                                <path d="M-0.0182278976,0.383924765 L-0.06223046,0.276639295 C0.119347998,0.195830447 0.301573561,0.15528203 0.484073637,0.15528203 C0.601982033,0.15528203 0.663553928,0.171723035 0.768226327,0.218305962 C0.860167484,0.259223035 0.907825342,0.271948697 1.00837645,0.271948697 C1.10892756,0.271948697 1.15658542,0.259223035 1.24852658,0.218305962 C1.35319898,0.171723035 1.41477087,0.15528203 1.53267927,0.15528203 C1.71517935,0.15528203 1.89740491,0.195830447 2.07898337,0.276639295 L2.0349808,0.383924765 C1.86702405,0.309178058 1.6997144,0.271948697 1.53267927,0.271948697 C1.43212816,0.271948697 1.3844703,0.284674358 1.29252914,0.325591432 C1.18785674,0.372174358 1.12628485,0.388615363 1.00837645,0.388615363 C0.890468058,0.388615363 0.828896163,0.372174358 0.724223764,0.325591432 C0.632282607,0.284674358 0.584624748,0.271948697 0.484073637,0.271948697 C0.317038503,0.271948697 0.149728855,0.309178058 -0.0182278976,0.383924765 Z" id="Path-308" fill="#FFFFFF" fill-rule="nonzero" mask="url(#mask-6)"></path>
                            </g>
                            <rect id="Rectangle-76" fill="#F1F9FF" x="11.984" y="2.128" width="1.12" height="5.824"></rect>
                            <path d="M13.552,1.12 L13.552,1.68 L13.216,1.68 L13.216,2.128 L11.872,2.128 L11.871,1.68 L11.536,1.68 L11.536,1.12 L13.552,1.12 Z" id="Combined-Shape" fill="#C88A02"></path>
                            <polygon id="Combined-Shape" fill="#C88A02" points="13.216 8.288 13.552 8.288 13.552 8.848 11.536 8.848 11.536 8.288 11.872 8.288 11.872 7.84 13.216 7.84"></polygon>
                            <path d="M12.544,1.232 C12.7877323,1.232 12.8125055,1.14022376 12.9562998,1.00314997 C13.0679565,0.896711737 13.328,0.764703433 13.328,0.616 C13.328,0.275792594 12.9769912,0 12.544,0 C12.1110088,0 11.76,0.275792594 11.76,0.616 C11.76,0.781667479 11.9390793,0.892440322 12.0744836,1.00314997 C12.2171396,1.11978875 12.3218583,1.232 12.544,1.232 Z" id="Oval-56" fill="#AD1619"></path>
                            <g id="water" transform="translate(11.536000, 8.848000)">
                                <mask id="mask-8" fill="white">
                                    <use xlink:href="#path-7"></use>
                                </mask>
                                <use id="Rectangle-76" fill="#005BBF" xlink:href="#path-7"></use>
                                <path d="M-0.0182278976,0.719924765 L-0.06223046,0.612639295 C0.119347998,0.531830447 0.301573561,0.49128203 0.484073637,0.49128203 C0.601982033,0.49128203 0.663553928,0.507723035 0.768226327,0.554305962 C0.860167484,0.595223035 0.907825342,0.607948697 1.00837645,0.607948697 C1.10892756,0.607948697 1.15658542,0.595223035 1.24852658,0.554305962 C1.35319898,0.507723035 1.41477087,0.49128203 1.53267927,0.49128203 C1.71517935,0.49128203 1.89740491,0.531830447 2.07898337,0.612639295 L2.0349808,0.719924765 C1.86702405,0.645178058 1.6997144,0.607948697 1.53267927,0.607948697 C1.43212816,0.607948697 1.3844703,0.620674358 1.29252914,0.661591432 C1.18785674,0.708174358 1.12628485,0.724615363 1.00837645,0.724615363 C0.890468058,0.724615363 0.828896163,0.708174358 0.724223764,0.661591432 C0.632282607,0.620674358 0.584624748,0.607948697 0.484073637,0.607948697 C0.317038503,0.607948697 0.149728855,0.645178058 -0.0182278976,0.719924765 Z" id="Path-308" fill="#FFFFFF" fill-rule="nonzero" mask="url(#mask-8)"></path>
                                <path d="M-0.0182278976,0.383924765 L-0.06223046,0.276639295 C0.119347998,0.195830447 0.301573561,0.15528203 0.484073637,0.15528203 C0.601982033,0.15528203 0.663553928,0.171723035 0.768226327,0.218305962 C0.860167484,0.259223035 0.907825342,0.271948697 1.00837645,0.271948697 C1.10892756,0.271948697 1.15658542,0.259223035 1.24852658,0.218305962 C1.35319898,0.171723035 1.41477087,0.15528203 1.53267927,0.15528203 C1.71517935,0.15528203 1.89740491,0.195830447 2.07898337,0.276639295 L2.0349808,0.383924765 C1.86702405,0.309178058 1.6997144,0.271948697 1.53267927,0.271948697 C1.43212816,0.271948697 1.3844703,0.284674358 1.29252914,0.325591432 C1.18785674,0.372174358 1.12628485,0.388615363 1.00837645,0.388615363 C0.890468058,0.388615363 0.828896163,0.372174358 0.724223764,0.325591432 C0.632282607,0.284674358 0.584624748,0.271948697 0.484073637,0.271948697 C0.317038503,0.271948697 0.149728855,0.309178058 -0.0182278976,0.383924765 Z" id="Path-308" fill="#FFFFFF" fill-rule="nonzero" mask="url(#mask-8)"></path>
                            </g>
                            <path d="M1.30280278,6.8318571 C1.30280278,7.06840651 1.18988518,7.2911102 0.987959966,7.53592781 L0.300227982,6.96868746 L0.234566828,6.94851089 L0.197960519,6.66190039 C0.130335914,6.13243094 0.356635899,5.83913527 0.822919159,5.62711224 C0.834799204,5.62171028 1.04537092,5.52992035 1.10547386,5.50110195 C1.20392307,5.45389713 1.28508784,5.40710801 1.36084611,5.35201347 C1.43554383,5.2976902 1.51571707,5.24644445 1.61241864,5.19034831 C1.03536835,5.09763706 0.723541074,5.0292521 0.484338004,4.92619382 C-0.0881148376,4.67955818 -0.161945708,4.10679234 0.388251881,3.7278862 C1.13838382,3.2112907 3.14651402,3.16482374 4.02785965,3.61987053 L3.61680238,4.41601619 C3.18430508,4.19271389 2.20106548,4.1506057 1.51250062,4.26518362 C1.61720897,4.28347167 1.73464215,4.30276193 1.86625389,4.32342567 C1.94809294,4.33627483 2.23643744,4.38078963 2.25961086,4.38439243 C2.53464027,4.42715158 2.7222635,4.48147165 2.86130423,4.57613593 C3.14509784,4.76935354 3.18714614,5.11747544 2.9846266,5.37428741 C2.89912303,5.4827132 2.7873283,5.56381483 2.61816094,5.6619426 C2.56387049,5.6934345 2.5054336,5.72552255 2.42696103,5.76739128 C2.41091609,5.77595199 2.27406018,5.84847936 2.23426717,5.86984733 C2.07280388,5.95654955 1.96688452,6.01916234 1.88783309,6.07665181 C1.76400903,6.16670178 1.63701492,6.23991017 1.49286206,6.30902917 C1.415318,6.34621031 1.19258939,6.44329952 1.19379691,6.44275045 C1.18924893,6.44481846 1.18487131,6.44678562 1.18065812,6.44865857 C1.25841989,6.5538929 1.30280278,6.68271858 1.30280278,6.8318571 Z M9.98089676,3.61987053 C10.8622424,3.16482374 12.8703726,3.2112907 13.6205045,3.7278862 C14.1707021,4.10679234 14.0968713,4.67955818 13.5244184,4.92619382 C13.2852153,5.0292521 12.9733881,5.09763706 12.3963378,5.19034831 C12.4930393,5.24644445 12.5732126,5.2976902 12.6479103,5.35201347 C12.7236686,5.40710801 12.8048333,5.45389713 12.9032826,5.50110195 C12.9633855,5.52992035 13.1739572,5.62171028 13.1858373,5.62711224 C13.6521205,5.83913527 13.8784205,6.13243094 13.8107959,6.66190039 L13.8107959,6.66190039 L13.7741896,6.94851089 L13.7085284,6.96868746 L13.0207964,7.53592781 C12.8188712,7.2911102 12.7059536,7.06840651 12.7059536,6.8318571 C12.7059536,6.68271858 12.7503365,6.5538929 12.8280983,6.44865857 C12.8238851,6.44678562 12.8195075,6.44481846 12.8149595,6.44275045 C12.816167,6.44329952 12.5934384,6.34621031 12.5158944,6.30902917 C12.3717415,6.23991017 12.2447474,6.16670178 12.1209233,6.07665181 C12.0418719,6.01916234 11.9359525,5.95654955 11.7744892,5.86984733 C11.7346962,5.84847936 11.5978403,5.77595199 11.5817954,5.76739128 C11.5033228,5.72552255 11.4448859,5.6934345 11.3905955,5.6619426 C11.2214281,5.56381483 11.1096334,5.4827132 11.0241298,5.37428741 C10.8216103,5.11747544 10.8636586,4.76935354 11.1474522,4.57613593 C11.2864929,4.48147165 11.4741161,4.42715158 11.7491455,4.38439243 C11.772319,4.38078963 12.0606635,4.33627483 12.1425025,4.32342567 C12.2741143,4.30276193 12.3915474,4.28347167 12.4962558,4.26518362 C11.8076909,4.1506057 10.8244513,4.19271389 10.391954,4.41601619 L10.391954,4.41601619 Z" id="ribbons" fill="#AD1619" fill-rule="nonzero"></path>
                            <path d="M1.92335686,4.256 L2.25393959,4.3243896 L2.25393959,4.8171279 C2.01921028,5.0044194 1.60389708,5.25589836 1.008,5.57156478 L1.008,4.256 L1.92335686,4.256 Z" id="Path-329" fill="#F1F9FF" fill-rule="nonzero"></path>
                            <path d="M12.8993569,4.256 L13.2299396,4.3243896 L13.2299396,4.8171279 C12.9952103,5.0044194 12.5798971,5.25589836 11.984,5.57156478 L11.984,4.256 L12.8993569,4.256 Z" id="Path-329" fill="#F1F9FF" fill-rule="nonzero" transform="translate(12.606970, 4.913782) scale(-1, 1) translate(-12.606970, -4.913782) "></path>
                        </g>
                        <g id="crown" transform="translate(3.136000, 0.000000)">
                            <path d="M3.9950389,2.10746447 L3.99500264,2.11075209 L4.22283458,2.09570152 C4.76428365,2.07852795 5.30006116,2.18723574 5.83016711,2.42182491 C6.46063788,2.42182491 7.06391348,2.62854727 7.63999393,3.04199199 L7.63999393,3.2059767 L6.5103653,4.34050443 C6.28452787,4.96660051 5.88196796,4.99962816 5.56838513,5.10392476 C5.52694584,5.11770733 5.2661864,5.13241572 4.96819322,5.14510406 L4.66453273,5.15700994 C4.31151823,5.16985998 3.99043775,5.17862397 3.99043775,5.17862397 L3.99000264,5.17575209 L3.76549465,5.19880396 C2.42001743,5.3172351 1.64672964,5.03113525 1.44563127,4.34050443 L0.316002641,3.2059767 L0.316002641,3.04199199 C0.892083083,2.62854727 1.49535869,2.42182491 2.12582946,2.42182491 C2.75131822,2.15152022 3.37438803,2.0467334 3.9950389,2.10746447 Z M3.99000264,2.16275209 L3.9950389,2.10746447 C3.83474463,3.89473236 3.83301897,4.91469214 3.98986193,5.16734381 L3.99000264,2.16275209 Z" id="Combined-Shape" fill="#AD1619"></path>
                            <path d="M4.08969606,3.35990365 C4.08969606,3.61294888 4.2189193,3.7742258 4.41236577,3.7742258 C4.54762281,3.7742258 4.64274792,3.71241287 4.71172432,3.57617881 L4.71172432,3.57617881 L4.90318907,3.19802017 L4.92351788,3.62139878 C4.9306857,3.77067956 4.99561944,3.8299028 5.15716534,3.8299028 C5.32256552,3.8299028 5.43874728,3.72231479 5.51490404,3.47825585 L5.51490404,3.47825585 L5.68320283,2.9389101 L5.73337721,3.50167191 C5.75823133,3.78043873 5.8342381,3.91125689 5.94688107,3.92958676 C6.10024364,3.95454274 6.21668785,3.94271019 6.29799668,3.89870814 L6.29799668,3.89870814 L6.46330271,3.80924916 L6.46330271,3.96144609 C6.51527731,3.96696807 6.60444842,3.95721639 6.72644768,3.93068988 L6.72644768,3.93068988 L6.76173411,4.0929101 L7.58739894,3.31686312 L7.66414473,3.39843568 L6.63684266,4.36495083 C6.48696086,4.640978 6.41148389,4.82316863 6.41148389,4.89884935 C6.41148389,5.01431036 6.11109594,5.08283926 5.52483532,5.15322972 C5.02593534,5.21313107 4.42939822,5.25163896 3.96773411,5.25163896 L4.07973411,5.2489101 L4.08014473,5.25163896 L4.02373411,5.2499101 L3.96773411,5.25163896 L3.96773411,5.2489101 L3.78882159,5.24715493 C3.38377126,5.23538007 2.92216351,5.2011508 2.52304353,5.15322972 C1.9367829,5.08283926 1.63639496,5.01431036 1.63639496,4.89884935 L1.63414154,4.87519763 C1.57272771,4.81548641 1.52415496,4.69531384 1.48842329,4.51467993 C1.46632948,4.4684025 1.44007976,4.41843841 1.41103619,4.36495083 L1.18397508,4.15093342 C1.18188754,4.15048446 1.17979453,4.15003183 1.17769606,4.14957555 L1.17773411,4.1449101 L0.383734113,3.39843568 L0.46047991,3.31686312 L1.20573411,4.0179101 L1.22528874,3.93068988 C1.347288,3.95721639 1.43645911,3.96696807 1.48843372,3.96144609 L1.48843372,3.80924916 L1.65373975,3.89870814 C1.73504857,3.94271019 1.85149279,3.95454274 2.00485536,3.92958676 C2.11749832,3.91125689 2.19350509,3.78043873 2.21835921,3.50167191 L2.26853359,2.9389101 L2.43683238,3.47825585 C2.51298914,3.72231479 2.6291709,3.8299028 2.79457109,3.8299028 C2.95611698,3.8299028 3.02105072,3.77067956 3.02821854,3.62139878 L3.04854735,3.19802017 L3.24001211,3.57617881 C3.3089885,3.71241287 3.40411362,3.7742258 3.53937065,3.7742258 C3.73281712,3.7742258 3.86204036,3.61294888 3.86204036,3.35990365 Z M3.96273411,4.6599101 L4.00800858,4.65776762 C2.72149824,4.73601805 1.98855667,4.81710945 1.80918388,4.90104184 L1.79573411,4.9049101 L1.82098239,4.91437226 C1.85403686,4.92510195 1.8953665,4.93616105 1.94422994,4.94730849 C2.08829597,4.98017494 2.2933636,5.01284837 2.53639512,5.0420284 C3.01185554,5.09911543 3.57738527,5.13664464 4.02641595,5.13946773 C4.47065191,5.13663413 5.03608986,5.09910744 5.51148372,5.0420284 C5.75451525,5.01284837 5.95958288,4.98017494 6.10364891,4.94730849 C6.17694406,4.93058733 6.23328817,4.91406494 6.2701791,4.8985549 C6.28339597,4.89299813 6.29347028,4.88782176 6.30003509,4.88351973 C6.3004872,4.87697667 6.30121749,4.87011689 6.30222618,4.86293775 C6.25115384,4.92212036 6.18899754,4.93472646 6.11700979,4.90104184 C5.937637,4.81710945 5.20469543,4.73601805 3.91818509,4.65776762 L3.96273411,4.6599101 Z M5.57828243,3.84700561 C5.49753455,3.94987835 5.3967462,4.01579496 5.276928,4.04158031 C5.68588147,4.09642989 6.08414301,4.18025838 6.47200858,4.29063291 C6.46284727,4.36912457 6.45212524,4.44026768 6.4398425,4.50406227 L6.48095401,4.41958365 L6.48095401,4.41958365 L6.54275367,4.30353085 L6.55356069,4.28952769 L6.68237046,4.1677468 C6.49934442,4.20006922 6.3671656,4.19671716 6.29699003,4.139576 C6.18706011,4.17156347 6.05812167,4.17463476 5.91090381,4.15067868 C5.75366879,4.12509255 5.64417175,4.02050511 5.57828243,3.84700561 Z" id="Combined-Shape" fill="#C88A02" fill-rule="nonzero"></path>
                            <path d="M3.97623286,1.3470704 C4.16180053,1.3470704 4.31223286,1.19663807 4.31223286,1.0110704 C4.31223286,0.825502722 4.16180053,0.675070398 3.97623286,0.675070398 C3.79066518,0.675070398 3.64023286,0.825502722 3.64023286,1.0110704 C3.64023286,1.19663807 3.79066518,1.3470704 3.97623286,1.3470704 Z" id="Oval-55" fill="#005BBF"></path>
                            <path d="M0.891684816,3.48334503 C0.903042491,3.52049431 0.909320814,3.55726439 0.910948411,3.59193151 C0.939170101,3.55519797 0.981011149,3.5214977 1.03107537,3.49487808 C1.16761414,3.42227912 1.31361254,3.42983797 1.35717192,3.51176124 C1.40073129,3.5936845 1.32535659,3.71894952 1.18881781,3.79154847 C1.05227904,3.86414743 0.906280638,3.85658858 0.862721264,3.77466531 C0.847706151,3.78383626 0.83146983,3.7945483 0.812889695,3.80022881 C0.724160069,3.82735618 0.6155787,3.72946464 0.570366418,3.58158193 C0.525154137,3.43369922 0.560431915,3.29182552 0.64916154,3.26469815 C0.737891166,3.23757078 0.846472535,3.33546233 0.891684816,3.48334503 Z M7.17836979,3.22689633 L7.22400363,3.23038912 C7.31273326,3.25751649 7.34801104,3.39939019 7.30279876,3.5472729 C7.25758647,3.69515561 7.1490051,3.79304715 7.06027548,3.76591978 C7.04169534,3.76023927 7.02545902,3.74952723 7.01181478,3.7347821 C6.96688454,3.82227955 6.82088614,3.8298384 6.68434736,3.75723944 C6.54780858,3.68464049 6.47243388,3.55937548 6.51599326,3.47745221 C6.55955263,3.39552894 6.70555103,3.3879701 6.84208981,3.46056905 C6.89224691,3.48723806 6.9341503,3.52101402 6.96493625,3.55713771 L6.96545654,3.5219732 L6.96545654,3.5219732 L6.98148036,3.44903601 C7.02669264,3.3011533 7.13527401,3.20326175 7.22400363,3.23038912 Z M5.64419265,2.76073045 C5.73684933,2.75587452 5.81852327,2.87712648 5.82661648,3.03155428 C5.8295933,3.08835531 5.82220085,3.14173315 5.80705366,3.18676312 L5.84404145,3.18117135 L5.84404145,3.18117135 L5.91858734,3.18558799 C6.07172213,3.20710968 6.18539433,3.29904062 6.17248132,3.39092149 C6.1595683,3.48280237 6.02495996,3.53983975 5.87182518,3.51831806 C5.71869039,3.49679637 5.60501819,3.40486543 5.6179312,3.31298456 C5.61818741,3.31116152 5.61849153,3.30935221 5.61884275,3.30755695 C5.6188884,3.30808049 5.61784557,3.30755601 5.61680634,3.3070157 C5.60501819,3.40486543 5.47040985,3.46190282 5.31727506,3.44038112 C5.16414027,3.41885943 5.05046807,3.32692849 5.06338108,3.23504762 C5.0762941,3.14316675 5.21090243,3.08612936 5.36403722,3.10765105 C5.41999032,3.11551475 5.47067492,3.13277849 5.51184111,3.15600522 L5.50096549,3.12315816 L5.50096549,3.12315816 L5.49107696,3.04913916 C5.48298374,2.89471136 5.55153597,2.76558638 5.64419265,2.76073045 Z M2.18914696,2.80188927 C2.2802261,2.78418528 2.3779802,2.89289041 2.40748685,3.04468897 C2.41828983,3.1002655 2.4184469,3.15391318 2.40983553,3.20046354 L2.44556491,3.19042489 L2.44556491,3.19042489 L2.52,3.18442377 C2.67463973,3.18442377 2.8,3.25963993 2.8,3.35242377 C2.8,3.44520761 2.67463973,3.52042377 2.52,3.52042377 C2.36536027,3.52042377 2.24,3.44520761 2.24,3.35242377 C2.24,3.35036191 2.24006191,3.34830872 2.24018466,3.34626484 C2.24014254,3.34739224 2.23913521,3.34705062 2.23812901,3.34669555 C2.24,3.44520761 2.11463973,3.52042377 1.96,3.52042377 C1.80536027,3.52042377 1.68,3.44520761 1.68,3.35242377 C1.68,3.25963993 1.80536027,3.18442377 1.96,3.18442377 C2.01697253,3.18442377 2.06997084,3.19463317 2.11419019,3.21216911 L2.09775386,3.18072324 L2.09775386,3.18072324 L2.07766011,3.1088008 C2.04815346,2.95700223 2.09806783,2.81959326 2.18914696,2.80188927 Z M3.86914696,2.68988927 C3.9602261,2.67218528 4.0579802,2.78089041 4.08748685,2.93268897 C4.09828983,2.9882655 4.0984469,3.04191318 4.08983553,3.08846354 L4.12556491,3.07842489 L4.12556491,3.07842489 L4.2,3.07242377 C4.35463973,3.07242377 4.48,3.14763993 4.48,3.24042377 C4.48,3.33320761 4.35463973,3.40842377 4.2,3.40842377 C4.04536027,3.40842377 3.92,3.33320761 3.92,3.24042377 C3.92,3.23836191 3.92006191,3.23630872 3.92018466,3.23426484 C3.92014254,3.23539224 3.91913521,3.23505062 3.91812901,3.23469555 C3.92,3.33320761 3.79463973,3.40842377 3.64,3.40842377 C3.48536027,3.40842377 3.36,3.33320761 3.36,3.24042377 C3.36,3.14763993 3.48536027,3.07242377 3.64,3.07242377 C3.69697253,3.07242377 3.74997084,3.08263317 3.79419019,3.10016911 L3.77775386,3.06872324 L3.77775386,3.06872324 L3.75766011,2.9968008 C3.72815346,2.84500223 3.77806783,2.70759326 3.86914696,2.68988927 Z" id="Combined-Shape" fill="#C88A02" fill-rule="nonzero"></path>
                            <path d="M4.08416418,0.0765971719 L4.084,0.223597172 L4.23661968,0.224 L4.23661968,0.457333333 L4.084,0.456597172 L4.084,0.923597172 L4.23661968,0.924 L4.23661968,1.15733333 L3.696,1.15733333 L3.696,0.924 L3.85,0.923597172 L3.85,0.456597172 L3.696,0.457333333 L3.696,0.224 L3.85,0.223597172 L3.85083085,0.0765971719 L4.08416418,0.0765971719 Z" id="Combined-Shape" fill="#C88A02" fill-rule="nonzero"></path>
                            <rect id="Rectangle-77" fill="#C88A02" x="3.808" y="1.344" width="1" height="1.456"></rect>
                            <g id="top" transform="translate(0.000000, 1.008000)" fill-rule="nonzero">
                                <path d="M2.00458314,0.579837661 L2.0026281,0.691820596 C1.00952691,0.674482654 0.439873605,0.819409467 0.295269858,1.10825936 C0.145771269,1.40688682 0.173570562,1.76990654 0.383049257,2.20113464 L0.282306643,2.25007262 C0.0588037469,1.78997461 0.0282806337,1.39138563 0.195118823,1.05812184 C0.366851855,0.715080474 0.969472734,0.561766306 2.00458314,0.579837661 Z" id="Path-311" fill="#FFFFFF"></path>
                                <path d="M2.1967304,1.57298147 L2.1393127,1.66914387 C1.92304169,1.54001042 1.81479962,1.31963517 1.81479962,1.01593425 C1.81479962,0.579453927 2.03964314,0.323498885 2.53699671,0.148340112 C2.85441808,0.0365501443 3.28802778,0.0823850111 3.83904554,0.282163085 L3.80087025,0.387456234 C3.27190445,0.19567336 2.86260819,0.152408554 2.5742012,0.253980188 C2.11801464,0.414640696 1.92679962,0.632314084 1.92679962,1.01593425 C1.92679962,1.28244653 2.01670549,1.46549023 2.1967304,1.57298147 Z" id="Path-312" fill="#FFFFFF"></path>
                                <path d="M0.524152737,2.0293832 L0.312808731,2.10361063 C0.0935282436,1.4792644 0.156148741,1.05525018 0.530843645,0.872345476 C0.861009932,0.711177109 1.34219372,0.645586495 1.97678875,0.671303099 L1.96771872,0.895119395 C1.3668844,0.870770925 0.919882083,0.93170223 0.629105518,1.07364278 C0.382857569,1.19384699 0.337815502,1.49883463 0.524152737,2.0293832 Z" id="Path-309" fill="#C88A02"></path>
                                <path d="M2.99329242,0.430693436 C2.48114938,0.430693436 2.27083619,0.555427447 2.15068493,0.923713969 C2.07411493,1.15841564 2.14837722,1.35873201 2.38916572,1.54571578 L2.25177865,1.72263609 C1.94003902,1.48055537 1.83012527,1.18407215 1.93773131,0.85423913 C2.09085331,0.384890995 2.39131103,0.206693436 2.99329242,0.206693436 C3.38784293,0.206693436 3.69519828,0.310351023 3.90920606,0.521312428 L3.94257983,0.55421113 L3.94257983,1.63417593 L3.71857983,1.63417593 L3.71857983,0.64995123 C3.55144016,0.504775382 3.31135829,0.430693436 2.99329242,0.430693436 Z" id="Path-310" fill="#C88A02"></path>
                                <path d="M7.82858314,0.691837661 L7.8266281,0.803820596 C6.83352691,0.786482654 6.2638736,0.931409467 6.11926986,1.22025936 C5.96977127,1.51888682 5.99757056,1.88190654 6.20704926,2.31313464 L6.10630664,2.36207262 C5.88280375,1.90197461 5.85228063,1.50338563 6.01911882,1.17012184 C6.19085185,0.827080474 6.79347273,0.673766306 7.82858314,0.691837661 Z" id="Path-311" fill="#FFFFFF" transform="translate(6.870796, 1.526242) scale(-1, 1) translate(-6.870796, -1.526242) "></path>
                                <path d="M4.30193078,1.59626893 L4.24451309,1.69243133 C4.02824208,1.56329788 3.92,1.34292263 3.92,1.03922171 C3.92,0.602741389 4.14484352,0.346786347 4.64219709,0.171627573 C4.95961847,0.0598376063 5.39322817,0.105672473 5.94424593,0.305450547 L5.90607064,0.410743696 C5.37710483,0.218960822 4.96780857,0.175696016 4.67940158,0.27726765 C4.22321503,0.437928158 4.032,0.655601546 4.032,1.03922171 C4.032,1.30573399 4.12190588,1.4887777 4.30193078,1.59626893 Z" id="Path-312" fill="#FFFFFF" transform="translate(4.932123, 0.902216) scale(-1, 1) translate(-4.932123, -0.902216) "></path>
                                <path d="M6.34815274,2.1413832 L6.13680873,2.21561063 C5.91752824,1.5912644 5.98014874,1.16725018 6.35484365,0.984345476 C6.68500993,0.823177109 7.16619372,0.757586495 7.80078875,0.783303099 L7.79171872,1.0071194 C7.1908844,0.982770925 6.74388208,1.04370223 6.45310552,1.18564278 C6.20685757,1.30584699 6.1618155,1.61083463 6.34815274,2.1413832 Z" id="Path-309" fill="#C88A02" transform="translate(6.905696, 1.496747) scale(-1, 1) translate(-6.905696, -1.496747) "></path>
                                <path d="M5.12772601,0.448 C4.61558296,0.448 4.40526978,0.572734011 4.28511852,0.941020533 C4.20854851,1.1757222 4.2828108,1.37603857 4.5235993,1.56302235 L4.38621224,1.73994265 C4.0744726,1.49786193 3.96455885,1.20137872 4.07216489,0.871545694 C4.22528689,0.402197559 4.52574461,0.224 5.12772601,0.224 C5.52227652,0.224 5.82963186,0.327657587 6.04363964,0.538618992 L6.07701342,0.571517694 L6.07701342,1.6514825 L5.85301342,1.6514825 L5.85301342,0.667257794 C5.68587374,0.522081946 5.44579188,0.448 5.12772601,0.448 Z" id="Path-310" fill="#C88A02" transform="translate(5.054507, 0.981971) scale(-1, 1) translate(-5.054507, -0.981971) "></path>
                            </g>
                        </g>
                        <g id="shield" transform="translate(3.472000, 5.264000)">
                            <mask id="mask-10" fill="white">
                                <use xlink:href="#path-9"></use>
                            </mask>
                            <use id="Rectangle-78" fill="#E1E5E8" opacity="0.300000012" xlink:href="#path-9"></use>
                            <rect id="Rectangle-79" fill="#FFC034" fill-rule="nonzero" mask="url(#mask-10)" x="0" y="4.032" width="3.696" height="4.368"></rect>
                            <rect id="Rectangle-80" fill="#AD1619" fill-rule="nonzero" mask="url(#mask-10)" x="0.448" y="4.256" width="1" height="4.144"></rect>
                            <rect id="Rectangle-80" fill="#AD1619" fill-rule="nonzero" mask="url(#mask-10)" x="2.016" y="4.256" width="1" height="4.144"></rect>
                            <rect id="Rectangle-80" fill="#AD1619" fill-rule="nonzero" mask="url(#mask-10)" x="1.232" y="4.256" width="1" height="4.144"></rect>
                            <rect id="Rectangle-80" fill="#AD1619" fill-rule="nonzero" mask="url(#mask-10)" x="2.8" y="4.256" width="1" height="4.144"></rect>
                            <rect id="Rectangle-79" fill="#AD1619" fill-rule="nonzero" mask="url(#mask-10)" x="0" y="-0.112" width="3.696" height="4.256"></rect>
                            <rect id="Rectangle-79" fill="#AD1619" fill-rule="nonzero" mask="url(#mask-10)" x="3.584" y="3.92" width="3.696" height="4.256"></rect>
                            <rect id="Rectangle-79" fill="#F1F9FF" mask="url(#mask-10)" x="3.584" y="0" width="3.92" height="4.144"></rect>
                            <path d="M1.904,0.336 L1.904,1.265 L2.128,1.265 L2.128,0.800592593 L2.464,0.800592593 L2.464,1.265 L2.8,1.26518519 L2.8,1.84592593 L2.464,1.845 L2.464,2.891 L2.8,2.89125926 L2.8,3.472 L0.784,3.472 L0.784,2.89125926 L1.119,2.891 L1.119,1.845 L0.784,1.84592593 L0.784,1.26518519 L1.008,1.265 L1.008,0.800592593 L1.344,0.800592593 L1.344,1.265 L1.568,1.265 L1.568,0.336 L1.904,0.336 Z" id="castle" fill="#C88A02" mask="url(#mask-10)"></path>
                            <path d="M6.05591585,3.44172226 C6.06157299,3.43733836 6.07152558,3.42792463 6.08441395,3.41369452 L6.09917998,3.42706828 C6.07940102,3.43024781 6.06638813,3.4354548 6.05823058,3.44034012 L6.05591585,3.44172226 Z M5.99472721,0.92217607 C6.14518224,1.13682418 6.14518224,1.37361274 5.99849635,1.5611171 C5.92454309,1.65564942 5.82324933,1.72763428 5.69910553,1.7860503 C5.79230822,1.91926294 5.8499736,1.99251489 5.94621972,2.10146438 C5.99243474,2.15377924 6.03379232,2.20305093 6.07033559,2.24949467 C6.10304095,2.22960931 6.14684778,2.21271731 6.20149787,2.19628291 L6.22921508,2.18828772 L6.22921508,2.18828772 C6.26404262,2.1786294 6.28899609,2.1712132 6.30955673,2.16431061 C6.40218454,2.13321372 6.39820729,2.1441455 6.39784482,1.8746885 L6.39780787,1.83183128 C6.39780787,1.76432406 6.39600296,1.70752646 6.39049973,1.5755222 L6.38994807,1.56227766 L6.38994807,1.56227766 C6.36980376,1.07782424 6.38786746,0.892623526 6.53621947,0.759731434 L6.68567899,0.926578232 C6.61356709,0.991175273 6.59732056,1.15774516 6.61375467,1.55297144 C6.61402962,1.55957828 6.61402962,1.55957828 6.61430532,1.56619179 C6.6185326,1.66759016 6.62063914,1.7259729 6.62142821,1.77908209 L6.62184461,1.87438718 L6.62184461,1.87438718 C6.62232444,2.23108046 6.59558671,2.30457124 6.38084747,2.37666322 C6.35577923,2.38507909 6.32741575,2.39350876 6.28907523,2.40414128 C6.28093969,2.40639742 6.27325972,2.40861194 6.26600557,2.41079341 C6.23380315,2.42047734 6.21133645,2.42592817 6.19584487,2.4328657 C6.21916633,2.46859919 6.23577747,2.50143295 6.24856531,2.53238216 C6.30898347,2.67860659 6.29066221,2.81909846 6.17855431,2.89745864 C6.17861892,2.8986324 6.17879216,2.89948783 6.17896777,2.90031903 C6.17981998,2.90435282 6.18065351,2.90760708 6.18375992,2.91956024 C6.19694994,2.97266588 6.19455073,3.02555385 6.17027982,3.24097911 C6.15659788,3.36241805 6.15659788,3.4417596 6.1643807,3.46340962 C6.15616518,3.44055591 6.12423289,3.41377001 6.07936667,3.41972087 L6.07668263,3.42011392 L6.23562054,3.56406572 C6.14136067,3.66813853 6.00637927,3.68604185 5.9535872,3.53918628 C5.93016209,3.47402292 5.93016209,3.37145913 5.94768809,3.21590079 C5.96838999,3.03215359 5.97032498,2.9894988 5.96636504,2.97355532 C5.96408638,2.96499797 5.96181161,2.95611688 5.95980542,2.94662093 C5.95186047,2.90901484 5.94776463,2.85909578 5.94708559,2.77643627 L5.85871402,2.96709323 C5.75902375,2.92097344 5.7080315,2.8795658 5.69514445,2.8064438 C5.69056066,2.78043503 5.69288238,2.75670812 5.69962545,2.73255218 C5.70274971,2.72136003 5.70686205,2.71007039 5.71184706,2.69704717 C5.72357322,2.66488692 5.72085184,2.64584242 5.6699973,2.57641335 L5.63074361,2.52153694 C5.62676246,2.52035259 5.62283394,2.51919226 5.61894322,2.51805169 C5.56621254,2.50259356 5.5210378,2.49121503 5.48434317,2.483952 C5.49641659,2.5156419 5.51074156,2.55004889 5.52797403,2.5892681 C5.52570648,2.58410741 5.58890403,2.72492342 5.60393523,2.76139514 C5.63382353,2.83391616 5.65013919,2.88751679 5.65324993,2.94135003 C5.66652387,3.17106323 5.48082082,3.22628394 5.24936049,3.15829066 C5.07696781,3.10764896 4.98943763,3.08735987 4.96494969,3.08805392 C5.04135228,3.08588846 5.08298682,3.00231858 5.07808725,2.97107455 L4.74614392,3.02312858 C4.72374311,2.88028088 4.78515426,2.7570149 4.95543034,2.7521888 C5.01988074,2.75036209 5.10224064,2.76703473 5.25849743,2.81119874 C5.24782897,2.78692183 5.23523257,2.75828155 5.22035888,2.72443067 C5.18318654,2.6398305 5.15672382,2.57202751 5.13592964,2.50340006 C5.07768,2.31115767 5.17495902,2.15996707 5.36110724,2.14071033 L5.38884901,2.14052115 C5.34941722,2.0744732 5.30770693,2.00316702 5.2637045,1.92658595 L5.19386473,1.93647418 L5.19386473,1.93647418 L5.18088903,1.85333917 L5.1456337,1.89350063 C5.06420056,1.98122605 4.98122223,2.06045217 4.90102071,2.12365677 C4.67799587,2.29941647 4.47086948,2.35774023 4.31467198,2.18267054 L4.56538864,1.95898067 C4.55705938,1.94964505 4.54317153,1.94681286 4.55114458,1.94456777 C4.58428749,1.93523521 4.63409498,1.90621574 4.69304813,1.8597564 C4.75613207,1.81004169 4.82449802,1.74491818 4.89294817,1.67170543 C4.79739455,1.60840229 4.70498983,1.52170452 4.61523957,1.41261274 C4.54759553,1.33039117 4.48863437,1.2756795 4.43294394,1.23735394 C4.40520741,1.21826596 4.32301333,1.17353397 4.31139706,1.16573035 C4.17274041,1.07258314 4.18068648,0.984355593 4.26457576,0.773195161 L4.57683622,0.897249193 C4.57286727,0.907239566 4.56930997,0.9163355 4.56613917,0.924562231 C4.58620091,0.936436329 4.60713701,0.949354249 4.62342716,0.960564958 C4.70548616,1.01703709 4.78751795,1.09315662 4.87471317,1.19914272 C4.96115607,1.30421438 5.04069775,1.37448015 5.11482865,1.41415456 L5.11013527,1.38276904 C5.12495228,1.38052846 5.15538827,1.37494595 5.19581597,1.36579499 C5.26339271,1.35049874 5.3306645,1.33122785 5.39133144,1.308379 C5.45423973,1.284686 5.50318663,1.25922414 5.53241901,1.23829558 C5.45710921,1.13199857 5.39651286,1.08115519 5.35487988,1.06616219 C5.34883882,1.06398667 5.35430298,1.06371839 5.36188397,1.06069037 C5.36985167,1.05750789 5.37958671,1.05190293 5.39227061,1.04253164 L5.05949817,0.592129042 C5.0834601,0.574425169 5.11490396,0.556321328 5.15416402,0.540639969 C5.4206743,0.434189705 5.73101694,0.545951257 5.99472721,0.92217607 Z" id="Combined-Shape" fill="#C37C9C" fill-rule="nonzero" mask="url(#mask-10)"></path>
                            <polygon id="Path-326" fill="#C88A02" fill-rule="nonzero" mask="url(#mask-10)" points="5.50682599 0.531021077 5.73619103 0.285485586 6.21772873 0.735310232 5.98836369 0.980845723"></polygon>
                            <path d="M4.424,6.81592339 C4.53141472,7.23960204 4.86929491,7.448 5.488,7.448 C6.10694773,7.448 6.44486281,7.24523139 6.552,6.83539865 L6.552,4.76 L4.424,4.76 L4.424,6.81592339 Z M6.888,4.424 L6.888,6.87608198 L6.88332864,6.89547541 C6.74100796,7.4863278 6.25838065,7.784 5.488,7.784 C4.7168808,7.784 4.23418238,7.47843397 4.09244375,6.87448251 L4.088,6.8555476 L4.088,4.424 L6.888,4.424 Z" id="Rectangle-78" fill="#FFC034" fill-rule="nonzero" mask="url(#mask-10)"></path>
                            <path d="M5.60360308,4.62894467 L5.60355277,5.62294467 L6.41591088,4.74019463 L6.58080534,4.89180537 L5.74755277,5.79594467 L6.6795913,5.79653866 L6.6795913,6.13253866 L5.72955277,6.13194467 L6.58080534,7.05720907 L6.41591088,7.2088198 L5.60355277,6.32494467 L5.60360308,7.50784876 L5.37026975,7.50784876 L5.36955277,6.20794467 L4.45044723,7.2088198 L4.28555277,7.05720907 L5.13655277,6.13194467 L4.36370375,6.13253866 L4.36370375,5.79653866 L5.11755277,5.79594467 L4.28555277,4.89180537 L4.45044723,4.74019463 L5.36955277,5.73994467 L5.37026975,4.62894467 L5.60360308,4.62894467 Z" id="Combined-Shape" fill="#FFC034" fill-rule="nonzero" mask="url(#mask-10)"></path>
                            <path d="M6.01071818,8.17869846 C4.42925285,8.30303238 3.63852018,7.85521359 3.63852018,6.8352421 C3.62343965,7.73087967 2.79023257,8.17869846 1.13889896,8.17869846 L1.13889896,9.38651782 L6.01071818,9.38651782 L6.01071818,8.17869846 Z" id="Path-330" fill="#F1F9FF" mask="url(#mask-10)"></path>
                            <ellipse id="Oval-57" stroke="#AD1619" stroke-width="1.16666667" fill="#005BBF" mask="url(#mask-10)" cx="3.64" cy="4.032" rx="1" ry="1"></ellipse>
                        </g>
                    </g>
                </g>
            </g>
        </g>
    </g>
</svg>