<?xml version="1.0" encoding="UTF-8"?>
<svg width="32px" height="24px" viewBox="0 0 32 24" version="1.1" xmlns="http://www.w3.org/2000/svg" xmlns:xlink="http://www.w3.org/1999/xlink">
    <title>flags/L/FJ - Fiji</title>
    <defs>
        <rect id="path-1" x="0" y="0" width="32" height="24"></rect>
        <rect id="path-3" x="0" y="0" width="32" height="24"></rect>
        <path d="M0,0 L9.65517241,0 L9.65517241,8.33333333 C9.11540036,10.7777778 7.50620496,12 4.82758621,12 C2.14896746,12 0.539772055,10.7777778 0,8.33333333 L0,0 Z" id="path-5"></path>
        <rect id="path-7" x="0" y="0" width="18" height="14"></rect>
    </defs>
    <g id="Symbols" stroke="none" stroke-width="1" fill="none" fill-rule="evenodd">
        <g id="flag">
            <mask id="mask-2" fill="white">
                <use xlink:href="#path-1"></use>
            </mask>
            <g id="mask"></g>
            <g id="contents" mask="url(#mask-2)">
                <mask id="mask-4" fill="white">
                    <use xlink:href="#path-3"></use>
                </mask>
                <use id="background" fill="#67BFE5" xlink:href="#path-3"></use>
                <g id="mark" mask="url(#mask-4)">
                    <g transform="translate(20.000000, 10.000000)">
                        <mask id="mask-6" fill="white">
                            <use xlink:href="#path-5"></use>
                        </mask>
                        <use id="Rectangle-17" stroke="none" fill="#F7FCFF" fill-rule="evenodd" xlink:href="#path-5"></use>
                        <g id="red" stroke="none" stroke-width="1" fill="none" fill-rule="evenodd" mask="url(#mask-6)">
                            <rect id="Rectangle-18" fill="#C3352C" x="0" y="0" width="9.65517241" height="3"></rect>
                            <rect id="Rectangle-19" fill="#C3352C" x="4.13793103" y="2.66666667" width="1.37931034" height="9.33333333"></rect>
                            <rect id="Rectangle-20" fill="#C3352C" x="0" y="6.33333333" width="9.65517241" height="1.33333333"></rect>
                        </g>
                        <g id="dove" stroke="none" stroke-width="1" fill="none" fill-rule="evenodd" mask="url(#mask-6)">
                            <g transform="translate(0.689655, 8.333333)" fill="#979797" fill-rule="nonzero" id="Path-48">
                                <path d="M3.23893159,3.06108501 C2.90452192,3.54472008 2.43142343,3.22438553 1.85086742,2.40374146 C1.53968562,1.9892248 1.2592802,1.76496704 1.02502715,1.71781493 C0.557325822,1.62367269 -0.323657477,0.840082286 -0.174861304,0.412602773 C-0.0770544494,0.131611495 0.0741307185,0.129242503 0.677661153,0.205055668 L0.718843318,0.210263598 C0.928765169,0.236928147 1.00444147,0.244785965 1.07435946,0.244785965 C1.13390873,0.244785965 0.869922702,0.34966402 1.49298204,0.0865855436 C1.82427916,-0.0533002317 2.127133,-0.12162049 2.51475666,-0.109770912 L2.70031564,0.245851286 C2.73650976,0.256729721 2.79390722,0.269308707 2.87289116,0.281991053 C2.91316923,0.288332902 2.91316923,0.288332902 2.95488332,0.294730041 C3.22179752,0.335944482 3.30641072,0.358766696 3.4005385,0.472633344 C3.57965644,0.689312847 3.45842523,0.886016648 3.18513941,1.09494715 C2.88342206,1.32561393 2.83690034,1.41000406 2.84391934,1.47213161 C2.86245027,1.51752294 2.85895138,1.6392584 2.76503975,1.73057249 C2.76124862,1.73425876 2.75749313,1.73778764 2.75376455,1.74116566 C2.83205568,1.87544072 2.96917029,2.06796735 3.16338312,2.31478745 C3.49819673,2.38132105 3.4739429,2.72120337 3.23893159,3.06108501 Z M2.64617747,1.8025097 C2.60764558,1.81293027 2.56386596,1.81525274 2.50711778,1.81525274 C2.57924561,1.81525274 2.62646491,1.79823416 2.65786307,1.77686285 L2.64617747,1.8025097 Z M0.304457986,0.634817331 C0.292083867,0.620336238 0.288767409,0.60162679 0.297350186,0.576969158 C0.295580709,0.582052725 0.301223073,0.593015936 0.312971674,0.608594031 L0.304457986,0.634817331 Z M0.312971674,0.608594031 C0.410950464,0.738509318 0.933612869,1.18938586 1.12369177,1.22764629 C1.50230889,1.30385702 1.87286334,1.60021261 2.25487716,2.10924768 C2.64292717,2.65766052 2.82482989,2.78082669 2.82767057,2.7767184 C2.90286468,2.66797003 2.90286468,2.80309419 3.03330108,2.80309419 L2.83798764,2.70914758 C2.56597481,2.36870152 2.38320596,2.11135776 2.28646786,1.92974442 C2.14770547,1.66923589 2.12663463,1.40858736 2.35787989,1.33543604 C2.39863311,1.16281991 2.52772176,0.98580541 2.78484856,0.774250037 C2.57799396,0.740621282 2.45768561,0.705900957 2.35124755,0.623312268 C2.27186104,0.561713739 2.22319277,0.485997738 2.20356034,0.402255118 C2.02614737,0.424034812 1.86450797,0.472457592 1.6874737,0.547207946 C0.804741668,0.919929742 1.24559186,0.744785965 1.07435946,0.744785965 C0.974026375,0.744785965 0.89170413,0.736238069 0.655838898,0.706278157 L0.615342832,0.701156894 C0.481081159,0.684291461 0.344750746,0.68197085 0.304457986,0.634817331 L0.312971674,0.608594031 Z M2.34308411,1.52725941 C2.3466344,1.5243183 2.34622673,1.52037705 2.34585752,1.51643898 L2.34308411,1.52725941 Z M2.48796785,1.3155145 C2.49424217,1.31534049 2.50062512,1.31525274 2.50711778,1.31525274 C2.50301335,1.31525274 2.49910175,1.3153635 2.49496784,1.31603902 L2.48796785,1.3155145 Z"></path>
                            </g>
                        </g>
                        <g id="tree" stroke="none" stroke-width="1" fill="none" fill-rule="evenodd" mask="url(#mask-6)">
                            <g transform="translate(0.000000, 3.666667)">
                                <path d="M1.65504983,2.44351726 C1.33699587,2.00350538 1.17796889,1.70506832 1.17796889,1.54820608" id="Path-50" stroke="#964C36"></path>
                                <path d="M1.35876862,1.87616386 C0.952108146,1.702487 0.748777907,1.702487 0.748777907,1.87616386" id="Path-49" stroke="#2A8E51"></path>
                                <path d="M1.34883561,1.60220658 C1.06279921,1.23832889 0.812258715,1.05639005 0.597214136,1.05639005 C0.382169556,1.05639005 0.277215815,1.14735947 0.282352912,1.32929831" id="Path-51" stroke="#2A8E51"></path>
                                <path d="M1.10396733,1.05529802 C0.976324744,0.460122808 0.81029663,0.162535204 0.605882987,0.162535204 C0.401469344,0.162535204 0.299262522,0.311329006 0.299262522,0.60891661" id="Path-52" stroke="#2A8E51"></path>
                                <path d="M1.18145187,1.0535468 C1.12451572,0.543475903 1.22765007,0.288440452 1.49085493,0.288440452" id="Path-53" stroke="#2A8E51"></path>
                            </g>
                        </g>
                        <g id="tree" stroke="none" stroke-width="1" fill="none" fill-rule="evenodd" mask="url(#mask-6)">
                            <g transform="translate(1.895635, 4.666667) rotate(20.000000) translate(-1.895635, -4.666667) translate(1.033566, 3.333333)">
                                <path d="M1.65504983,2.44351726 C1.33699587,2.00350538 1.17796889,1.70506832 1.17796889,1.54820608" id="Path-50" stroke="#964C36"></path>
                                <path d="M1.35876862,1.87616386 C0.952108146,1.702487 0.748777907,1.702487 0.748777907,1.87616386" id="Path-49" stroke="#2A8E51"></path>
                                <path d="M1.34883561,1.60220658 C1.06279921,1.23832889 0.812258715,1.05639005 0.597214136,1.05639005 C0.382169556,1.05639005 0.277215815,1.14735947 0.282352912,1.32929831" id="Path-51" stroke="#2A8E51"></path>
                                <path d="M1.10396733,1.05529802 C0.976324744,0.460122808 0.81029663,0.162535204 0.605882987,0.162535204 C0.401469344,0.162535204 0.299262522,0.311329006 0.299262522,0.60891661" id="Path-52" stroke="#2A8E51"></path>
                                <path d="M1.18145187,1.0535468 C1.12451572,0.543475903 1.22765007,0.288440452 1.49085493,0.288440452" id="Path-53" stroke="#2A8E51"></path>
                            </g>
                        </g>
                        <g id="tree" stroke="none" stroke-width="1" fill="none" fill-rule="evenodd" mask="url(#mask-6)">
                            <g transform="translate(3.290517, 5.680608) scale(-1, 1) rotate(13.000000) translate(-3.290517, -5.680608) translate(2.290517, 3.680608)" stroke-width="0.7">
                                <path d="M1.65504983,2.44351726 C1.33699587,2.00350538 1.17796889,1.70506832 1.17796889,1.54820608" id="Path-50" stroke="#964C36"></path>
                                <path d="M1.35876862,1.87616386 C0.952108146,1.702487 0.748777907,1.702487 0.748777907,1.87616386" id="Path-49" stroke="#2A8E51"></path>
                                <path d="M1.34883561,1.60220658 C1.06279921,1.23832889 0.812258715,1.05639005 0.597214136,1.05639005 C0.382169556,1.05639005 0.277215815,1.14735947 0.282352912,1.32929831" id="Path-51" stroke="#2A8E51"></path>
                                <path d="M1.10396733,1.05529802 C0.976324744,0.460122808 0.81029663,0.162535204 0.605882987,0.162535204 C0.401469344,0.162535204 0.299262522,0.311329006 0.299262522,0.60891661" id="Path-52" stroke="#2A8E51"></path>
                                <path d="M1.18145187,1.0535468 C1.12451572,0.543475903 1.22765007,0.288440452 1.49085493,0.288440452" id="Path-53" stroke="#2A8E51"></path>
                            </g>
                        </g>
                        <g id="tree" stroke="none" stroke-width="1" fill="none" fill-rule="evenodd" mask="url(#mask-6)">
                            <g transform="translate(5.862069, 3.666667)">
                                <g id="Group-3" stroke="none" fill-rule="evenodd">
                                    <path d="M0.835934483,2.1351711 C0.997244936,1.39286687 1.30745308,1.02171475 1.76655893,1.02171475 C2.22566477,1.02171475 2.55792773,1.41385173 2.76334781,2.19812568" id="Path-46" stroke="#2A8E51" stroke-width="0.7"></path>
                                    <path d="M0.267219545,1.37499325 C0.514449565,0.936529162 1.04600935,0.73522358 1.86189889,0.771076505 C2.67778843,0.806929429 3.16008508,1.00823501 3.30878882,1.37499325" id="Path-47" stroke="#2A8E51" stroke-width="0.7"></path>
                                    <path d="M0.0199341111,0.538667248 C0.468123375,-0.0164712348 1.00627743,-0.0587660488 1.63439629,0.411782806 L1.95358152,0.538667248 C2.16695353,-0.0904490621 2.78907381,-0.0904490621 3.81994236,0.538667248" id="Path-58" stroke="#2A8E51" stroke-width="0.7"></path>
                                </g>
                                <path d="M2.22191941,2.33502643 C1.90386545,1.71862195 1.74483847,1.30054701 1.74483847,1.0808016" id="Path-50" stroke="#964C36" transform="translate(1.983379, 1.707914) rotate(30.000000) translate(-1.983379, -1.707914) "></path>
                            </g>
                        </g>
                        <g id="thingy" stroke="none" stroke-width="1" fill="none" fill-rule="evenodd" mask="url(#mask-6)">
                            <g transform="translate(5.862069, 8.000000)">
                                <path d="M3.23671932,0.313890967 C2.82461,0.120084478 2.55691018,0.120084478 2.43361985,0.313890967 C2.31032953,0.507697457 1.50605282,1.49497254 0.0207897074,3.27571623" id="Path-55" stroke="#964C36" stroke-width="1" fill="none"></path>
                                <path d="M1.1022556,0.595186258 L2.48306441,1.56042534 C2.9067322,1.25819757 3.01264915,1.02176745 2.80081525,0.85113497 C2.48306441,0.595186258 1.61724956,0.14391371 1.61724956,0.14391371 C1.61724956,0.14391371 1.44558491,0.294337893 1.1022556,0.595186258 Z" id="Path-54" stroke="none" fill="#FFF203" fill-rule="evenodd"></path>
                                <path d="M1.05452341,0.644534494 C0.841262548,0.867791293 0.734632115,1.06473593 0.734632115,1.23536841 C0.734632115,1.49131712 0.43700157,2.17743347 0.43700157,2.17743347 C0.43700157,2.17743347 1.26942529,2.68984817 1.4422672,2.36344632 C1.6151091,2.03704447 2.73767177,2.23247176 2.5396795,1.73392008 C2.40768465,1.4015523 1.91263262,1.03842377 1.05452341,0.644534494 Z" id="Path-56" stroke="none" fill="#00A651" fill-rule="evenodd"></path>
                            </g>
                        </g>
                        <path d="M1.05632416,1.18229491 C1.54785,0.930070598 1.91526953,0.930070598 2.15858277,1.18229491 C2.52355263,1.56063139 2.82257213,1.15094792 2.82257213,0.922725263 C2.82257213,0.694502603 3.40209541,-0.0889653031 3.40209541,0.546664806 C3.40209541,1.18229491 3.2217102,1.54118177 3.73108367,1.54118177 C4.24045713,1.54118177 6.53421254,0.66315561 7.08424426,0.922725263 C7.63427598,1.18229491 8.0551748,1.11773873 7.9153524,0.745299215 C7.77553001,0.372859698 7.41619122,0.140085 6.72423738,0.343374903 C6.03228354,0.546664806 6.19558464,0.745299215 5.59754564,0.745299215 C4.99950664,0.745299215 4.33389476,0.546664806 4.33389476,0.546664806 C4.33389476,0.546664806 4.52088392,0.212665643 5.20363129,0.45024367 C5.88637865,0.687821698 6.82811558,0.156018815 7.08424426,0.156018815 C7.34037294,0.156018815 8.04527359,0.140085 8.11514166,0.343374903 C8.18500973,0.546664806 8.61063692,0.733208627 8.28620483,0.922725263 C7.96177273,1.1122419 7.42679917,1.23095395 7.79488461,1.47376565 C8.16297005,1.71657735 9.00942455,1.66978214 9.05020933,1.92235311 C9.0909941,2.17492407 9.49216747,2.55208728 9.33115849,2.55208728 C9.17014951,2.55208728 8.87917456,2.90779241 8.60822278,2.79948614 C8.337271,2.69117987 8.30540435,2.59608093 8.56522268,2.50833992 C8.82504101,2.4205989 8.82251326,2.05162487 8.60822278,2.05162487 C8.3939323,2.05162487 8.49850719,2.18089662 8.01059518,2.05162487 C7.52268316,1.92235311 6.87691474,1.77864257 6.91573981,2.05162487 C6.95456487,2.32460716 7.27223737,2.74363975 6.68614083,2.79948614 C6.1000443,2.85533252 5.82570091,3.07954929 5.71162327,2.89898752 C5.59754564,2.71842576 5.18979968,2.47783067 5.51042595,2.40068016 C5.83105223,2.32352964 6.13744928,2.66291803 6.2529304,2.60750265 C6.36841153,2.55208728 6.63016117,2.52123938 6.4109288,2.28643212 C6.19169643,2.05162487 5.83025698,1.91338653 6.1653397,1.73763519 C6.50042242,1.56188386 6.23599824,1.5582741 5.59754564,1.92235311 C4.95909304,2.28643212 4.60398716,2.59583464 4.04348051,2.55208728 C3.48297387,2.50833992 3.27302884,2.56735729 3.09287715,2.50833992 C2.91272545,2.44932254 2.03531315,3.16042495 1.78265203,2.97995554 C1.52999092,2.79948614 0.71432381,2.73024771 0.861160362,2.50833992 C1.00799691,2.28643212 1.2051328,2.17218409 1.42470599,2.28643212 C1.64427917,2.40068016 1.86245424,2.51492819 2.01051851,2.40068016 C2.15858277,2.28643212 2.58619164,1.89439913 2.47863457,1.81601716 C2.37107751,1.73763519 2.47511277,1.47376565 1.8661245,1.47376565 C1.25713623,1.47376565 1.04304456,1.76784347 0.898480136,1.58255256 C0.802103856,1.45902528 0.854718532,1.32560607 1.05632416,1.18229491 Z" id="lion" stroke="none" fill="#FFD100" fill-rule="evenodd" mask="url(#mask-6)"></path>
                    </g>
                </g>
                <g id="gb---large" mask="url(#mask-4)">
                    <g id="flag">
                        <mask id="mask-8" fill="white">
                            <use xlink:href="#path-7"></use>
                        </mask>
                        <use id="mask" fill="#2B409A" xlink:href="#path-7"></use>
                        <g id="contents" mask="url(#mask-8)">
                            <g transform="translate(-3.000000, -2.000000)">
                                <g id="stripe">
                                    <polygon id="white" fill="#F7FCFF" fill-rule="nonzero" transform="translate(12.087462, 8.731805) scale(1, -1) translate(-12.087462, -8.731805) " points="0.995733743 2.46378897 4.95668418 0.726588534 21.0898804 13.5748663 23.1791912 16.1563978 18.9435246 16.7370214 12.3631795 11.2003309 7.066678 7.46989524"></polygon>
                                    <polygon id="red" fill="#F50100" fill-rule="nonzero" transform="translate(11.983464, 9.146214) scale(1, -1) translate(-11.983464, -9.146214) " points="1.53799381 2.07548339 3.55591517 1.0673567 22.4289341 17.2250722 19.5955377 17.2250722"></polygon>
                                </g>
                                <g id="stripe" transform="translate(12.000000, 8.500000) scale(-1, 1) translate(-12.000000, -8.500000) ">
                                    <polygon id="white" fill="#F7FCFF" fill-rule="nonzero" transform="translate(12.087462, 8.731805) scale(1, -1) translate(-12.087462, -8.731805) " points="0.995733743 2.46378897 4.95668418 0.726588534 21.0898804 13.5748663 23.1791912 16.1563978 18.9435246 16.7370214 12.3631795 11.2003309 7.066678 7.46989524"></polygon>
                                    <polygon id="red" fill="#F50100" fill-rule="nonzero" transform="translate(12.255557, 9.098760) scale(1, -1) translate(-12.255557, -9.098760) " points="1.13088612 2.32417911 3.14880748 1.31605242 11.1851345 8.23400982 13.567733 9.00693659 23.3802288 16.8814684 20.5468324 16.8814684 10.7398496 9.19384456 8.134898 8.26702255"></polygon>
                                </g>
                                <g id="cross" transform="translate(3.000000, 2.000000)">
                                    <path d="M10.7345755,-0.75 L10.7340639,5.25 L18.75,5.25 L18.75,8.75 L10.7340639,8.75 L10.7345755,14.75 L7.23457546,14.75 L7.23406394,8.75 L-0.75,8.75 L-0.75,5.25 L7.23406394,5.25 L7.23457546,-0.75 L10.7345755,-0.75 Z" id="red" stroke="#F7FCFF" stroke-width="1.5" fill="#F50100"></path>
                                </g>
                            </g>
                        </g>
                    </g>
                </g>
            </g>
        </g>
    </g>
</svg>