<?xml version="1.0" encoding="UTF-8"?>
<svg width="32px" height="24px" viewBox="0 0 32 24" version="1.1" xmlns="http://www.w3.org/2000/svg" xmlns:xlink="http://www.w3.org/1999/xlink">
    <title>flags/L/FK - Falkland Islands</title>
    <defs>
        <rect id="path-1" x="0" y="0" width="32" height="24"></rect>
        <rect id="path-3" x="0" y="0" width="32" height="24"></rect>
        <path d="M0.0379462781,0.0326909109 C0.0379462781,5.9194717 -0.322833339,9.96398849 3.95022629,9.96398849 C8.22328593,9.96398849 8.22328593,4.9983397 7.9400373,0.0326909109 L0.0379462781,0.0326909109 Z" id="path-5"></path>
        <rect id="path-7" x="0" y="0" width="18" height="14"></rect>
    </defs>
    <g id="Symbols" stroke="none" stroke-width="1" fill="none" fill-rule="evenodd">
        <g id="flag">
            <mask id="mask-2" fill="white">
                <use xlink:href="#path-1"></use>
            </mask>
            <g id="mask"></g>
            <g id="contents" mask="url(#mask-2)">
                <mask id="mask-4" fill="white">
                    <use xlink:href="#path-3"></use>
                </mask>
                <use id="background" fill="#2E42A5" xlink:href="#path-3"></use>
                <g id="masked" mask="url(#mask-4)">
                    <g transform="translate(22.000000, 10.000000)">
                        <mask id="mask-6" fill="white">
                            <use xlink:href="#path-5"></use>
                        </mask>
                        <path stroke="#F7FCFF" stroke-width="0.5" d="M7.70368348,0.282690911 C7.85368847,2.99957711 7.90719978,5.69473103 7.17156908,7.52583717 C6.89116289,8.22381442 6.49457977,8.79280983 5.93244063,9.17452667 C5.41784639,9.52395845 4.76669758,9.71398849 3.95022629,9.71398849 C3.20878372,9.71398849 2.6144488,9.58837904 2.14002558,9.34182168 C1.65246767,9.08843825 1.29579532,8.70698453 1.03305229,8.21549392 C0.362378216,6.96092211 0.284319542,5.02444109 0.280546608,2.63197158 L0.280546608,2.63197158 L0.280960424,2.08039919 C0.281627761,1.82851421 0.282820246,1.57205656 0.284032783,1.31124878 C0.285594017,0.975438915 0.287188168,0.632428427 0.287742048,0.282690911 L0.287742048,0.282690911 Z"></path>
                        <g id="mark" stroke="none" stroke-width="1" fill="none" fill-rule="evenodd" mask="url(#mask-6)">
                            <g transform="translate(-2.000000, 0.000000)">
                                <path d="M4.52188516,3.58698348 C4.25876438,3.39238772 4.07079175,3.13745219 3.95796728,2.8221769 C3.78873057,2.34926396 3.45386119,1.09033124 3.45386119,0.981012546 C3.45386119,0.871693854 3.00826331,0.981012546 3.00826331,0.981012546 C3.00826331,0.981012546 3.01447453,0.448631932 3.1826377,0.448631932 C3.35080086,0.448631932 3.35708877,-0.0449992357 3.76507424,0.0793101172 C4.1730597,0.20361947 4.49389631,0.659491142 4.90966498,0.659491142 C5.32543364,0.659491142 7.06342642,0.792073643 7.34277818,0.792073643 C7.62212994,0.792073643 8.35858186,1.3817364 8.35858186,1.82310913 C8.35858186,2.26448187 8.15775225,2.92209107 7.99978776,2.92209107 C7.84182327,2.92209107 7.64306407,3.30470649 7.34277818,3.17841724 C7.04249229,3.05212799 6.32559423,2.79205415 5.68342258,2.92209107 C5.04125093,3.05212799 4.90966498,2.97038646 4.90966498,3.17841724 C4.90966498,3.31710443 4.78040504,3.45329317 4.52188516,3.58698348 Z" id="sheep" stroke="none" fill="#E1E5E8" fill-rule="evenodd"></path>
                                <polygon id="grass" stroke="none" fill="#49801E" fill-rule="evenodd" points="3.6 3.27868852 8.75555556 3.27868852 7.86758835 4.42622951 4.22481991 4.42622951"></polygon>
                                <path d="M3.53292012,8.29561809 C4.12692541,8.50808722 4.5480618,8.60140896 4.79632929,8.57558331 C5.20872259,8.53268473 5.57382524,8.06258213 5.84944095,8.06258213 C6.12455452,8.06258213 6.65425697,8.5328409 7.06565019,8.57558331 C7.31426826,8.60141392 7.68103879,8.50809218 8.16596179,8.29561809" id="Path-45" stroke="#FFFFFF" stroke-width="1.06666667" fill="none"></path>
                                <path d="M2.55438379,6.93623905 C2.75978875,6.76230944 3.08596752,6.6689877 3.53292012,6.65627383 C4.12692541,6.86874296 4.5480618,6.9620647 4.79632929,6.93623905 C5.20872259,6.89334047 5.57382524,6.42323787 5.84944095,6.42323787 C6.12455452,6.42323787 6.65425697,6.89349664 7.06565019,6.93623905 C7.31426826,6.96206965 7.68103879,6.86874791 8.16596179,6.65627383 C8.43695218,6.35156441 8.74260426,6.36008591 9.08291805,6.68183836" id="Path-45" stroke="#FFFFFF" stroke-width="1.06666667" fill="none"></path>
                                <path d="M2.4607613,5.5297506 L1.78640969,4.70329571 C2.050823,4.48754583 2.4948055,4.27491772 3.14291339,4.03989667 L3.45747285,4.02473262 C4.12940968,4.19740807 4.57863789,4.27224227 4.74313516,4.25575325 C4.79742111,4.25031169 4.88812972,4.20622458 5.05383087,4.09631502 C5.52438992,3.78419325 5.57006227,3.758757 5.84944095,3.758757 C6.10477486,3.758757 6.15744165,3.78324395 6.69115638,4.07148152 C6.79025471,4.12458817 6.82745931,4.14390794 6.88107648,4.16964721 C6.99375532,4.22373941 7.0744881,4.25131245 7.11878016,4.25574683 C7.24701089,4.26858486 7.50498769,4.2087407 7.86605912,4.06344712 C8.33560728,3.6366604 8.93043091,3.68087143 9.44210169,4.14703417 C9.78343842,4.45801239 10.0574163,4.70923704 10.2642418,4.90090378 L9.53921065,5.68327688 C9.33491948,5.4939587 9.06302524,5.24464463 8.72373441,4.93553035 C8.58883084,4.81262512 8.61783999,4.81340446 8.55788789,4.87836371 L8.37341221,5.0079815 C7.81316809,5.24452723 7.37083385,5.35298074 7.01252023,5.31710756 C6.82016591,5.29784968 6.6341593,5.23432199 6.41945253,5.13125061 C6.34755418,5.09673534 6.29623506,5.07008612 6.18428781,5.01002403 C5.92670824,4.8709158 5.82886327,4.82542366 5.84944095,4.82542366 C5.89432403,4.82542366 5.83206602,4.86009695 5.64343759,4.98521417 C5.33997326,5.18650203 5.12888248,5.28909851 4.84952342,5.31710113 C4.54069608,5.34805762 4.05902485,5.27357909 3.354606,5.09891 C2.89700851,5.27194454 2.59302412,5.42182984 2.4607613,5.5297506 Z" id="Path-45" stroke="none" fill="#FFFFFF" fill-rule="nonzero"></path>
                            </g>
                        </g>
                    </g>
                </g>
                <g id="bottom" mask="url(#mask-4)">
                    <g transform="translate(22.000000, 16.799988)">
                        <path d="M0.963263817,1.59371762 C1.61922906,2.22202645 1.7491638,2.74904048 1.35306802,3.17475972 C0.956972241,3.60047895 0.577328349,3.68970197 0.214136343,3.44242879" id="Path-43" stroke="#B85F3C"></path>
                        <path d="M7.18548604,1.59371762 C7.84145129,2.22202645 7.97138602,2.74904048 7.57529024,3.17475972 C7.17919446,3.60047895 6.79955057,3.68970197 6.43635857,3.44242879" id="Path-43" stroke="#B85F3C" transform="translate(7.117670, 2.586214) scale(-1, 1) translate(-7.117670, -2.586214) "></path>
                        <path d="M0.320702364,2.35315835 C1.45084146,3.43313172 2.7105636,3.97311841 4.09986876,3.97311841 C5.48917392,3.97311841 6.74279987,3.56058804 7.86074659,2.7355273" id="Path-44" stroke="#CB8B73"></path>
                    </g>
                </g>
                <g id="gb---large" mask="url(#mask-4)">
                    <g id="flag">
                        <mask id="mask-8" fill="white">
                            <use xlink:href="#path-7"></use>
                        </mask>
                        <use id="mask" fill="#2B409A" xlink:href="#path-7"></use>
                        <g id="contents" mask="url(#mask-8)">
                            <g transform="translate(-3.000000, -2.000000)">
                                <g id="stripe">
                                    <polygon id="white" fill="#F7FCFF" fill-rule="nonzero" transform="translate(12.087462, 8.731805) scale(1, -1) translate(-12.087462, -8.731805) " points="0.995733743 2.46378897 4.95668418 0.726588534 21.0898804 13.5748663 23.1791912 16.1563978 18.9435246 16.7370214 12.3631795 11.2003309 7.066678 7.46989524"></polygon>
                                    <polygon id="red" fill="#F50100" fill-rule="nonzero" transform="translate(11.983464, 9.146214) scale(1, -1) translate(-11.983464, -9.146214) " points="1.53799381 2.07548339 3.55591517 1.0673567 22.4289341 17.2250722 19.5955377 17.2250722"></polygon>
                                </g>
                                <g id="stripe" transform="translate(12.000000, 8.500000) scale(-1, 1) translate(-12.000000, -8.500000) ">
                                    <polygon id="white" fill="#F7FCFF" fill-rule="nonzero" transform="translate(12.087462, 8.731805) scale(1, -1) translate(-12.087462, -8.731805) " points="0.995733743 2.46378897 4.95668418 0.726588534 21.0898804 13.5748663 23.1791912 16.1563978 18.9435246 16.7370214 12.3631795 11.2003309 7.066678 7.46989524"></polygon>
                                    <polygon id="red" fill="#F50100" fill-rule="nonzero" transform="translate(12.255557, 9.098760) scale(1, -1) translate(-12.255557, -9.098760) " points="1.13088612 2.32417911 3.14880748 1.31605242 11.1851345 8.23400982 13.567733 9.00693659 23.3802288 16.8814684 20.5468324 16.8814684 10.7398496 9.19384456 8.134898 8.26702255"></polygon>
                                </g>
                                <g id="cross" transform="translate(3.000000, 2.000000)">
                                    <path d="M10.7345755,-0.75 L10.7340639,5.25 L18.75,5.25 L18.75,8.75 L10.7340639,8.75 L10.7345755,14.75 L7.23457546,14.75 L7.23406394,8.75 L-0.75,8.75 L-0.75,5.25 L7.23406394,5.25 L7.23457546,-0.75 L10.7345755,-0.75 Z" id="red" stroke="#F7FCFF" stroke-width="1.5" fill="#F50100"></path>
                                </g>
                            </g>
                        </g>
                    </g>
                </g>
            </g>
        </g>
    </g>
</svg>