<?xml version="1.0" encoding="UTF-8"?>
<svg width="32px" height="24px" viewBox="0 0 32 24" version="1.1" xmlns="http://www.w3.org/2000/svg" xmlns:xlink="http://www.w3.org/1999/xlink">
    <title>flags/L/GB-WLS - Wales</title>
    <defs>
        <rect id="path-1" x="0" y="0" width="32" height="24"></rect>
        <rect id="path-3" x="0" y="0" width="32" height="24"></rect>
    </defs>
    <g id="Symbols" stroke="none" stroke-width="1" fill="none" fill-rule="evenodd">
        <g id="flag">
            <mask id="mask-2" fill="white">
                <use xlink:href="#path-1"></use>
            </mask>
            <g id="mask"></g>
            <g id="contents" mask="url(#mask-2)">
                <mask id="mask-4" fill="white">
                    <use xlink:href="#path-3"></use>
                </mask>
                <use id="background" fill="#5DAA22" xlink:href="#path-3"></use>
                <rect id="1" fill="#F7FCFF" mask="url(#mask-4)" x="0" y="0" width="32" height="12"></rect>
                <path d="M21.5593902,2.61144316 C21.4372416,2.75945018 21.3313165,2.91523801 21.2494352,3.06116699 C21.0190087,3.4718335 20.8211687,4.0857028 20.9006279,4.54916533 C21.8770312,5.11926654 25.7225164,3.38285339 25.7225164,3.38285339 C25.7225164,3.38285339 26.246694,3.14616314 26.9194256,2.8343437 C26.5570353,3.06016569 26.1893408,3.33185471 25.8504508,3.59555228 C25.0862925,4.19016016 24.2467574,4.91674838 24.0264953,5.54799501 C23.9548266,5.75338956 23.9530722,5.9479759 24.0660932,6.11859636 C24.1763619,6.28506194 24.3863145,6.42511044 24.7122664,6.53972733 C24.9050841,6.60752926 25.0718134,6.64298437 25.2151996,6.64807714 C25.0435659,6.6790366 24.8742559,6.72182302 24.7101789,6.77628465 C23.8496677,7.06191182 23.0658158,7.69100154 22.7081036,8.43013746 C22.5521613,8.7523589 22.478005,9.09553527 22.5187134,9.43912325 C22.5557327,9.75157429 22.6880221,10.0634901 22.9360694,10.3600045 C22.4145611,10.4416096 21.9669594,10.5136209 21.5872675,10.6863911 C21.2568803,10.8367261 20.9729975,11.06418 20.8314703,11.3190275 C21.0505031,11.3294441 21.3515249,11.3557945 21.7006615,11.3865825 C22.688165,11.4736638 24.0681699,11.5965217 25.0441269,11.4755624 C25.3718161,11.4349488 25.652636,11.367783 25.8518071,11.2581271 C25.469742,11.3421241 24.9208537,11.3380438 24.4792669,11.1500084 C24.2306747,11.0441535 24.0156573,10.8809168 23.8638167,10.6549936 C23.7280355,10.4529652 23.6421091,10.2001944 23.6311419,9.88487144 C23.6344952,9.56695495 23.7491551,9.2838102 23.943638,9.05324688 C24.1426429,8.81732263 24.4262679,8.63649747 24.7598422,8.53296647 C25.3242341,8.35779689 26.0331297,8.40371226 26.7008395,8.77648362 C26.4586234,8.24482919 26.0850585,8.27445552 25.6711664,8.17132249 C26.666596,6.89583853 27.658458,5.84632629 28.5565032,4.66355719 C28.6614688,4.52531239 28.7643365,4.38632207 28.8653397,4.24683381 C28.8307361,4.42135466 28.8019063,4.5919167 28.7799507,4.75574979 C28.5849806,6.21062312 28.7732589,8.32013665 29.1121902,9.00997562 C28.6409977,9.03823246 28.2690154,8.80012294 28.0053059,8.46443714 L27.9214253,8.34915948 L27.7613803,8.87996478 C27.6845144,9.13496515 27.6076485,9.38996552 27.530809,9.64523657 C28.2972033,11.3775538 27.4646403,13.917884 27.0155652,15.2651716 C26.8835098,15.6613558 26.7834448,15.9468598 26.7834448,16.0642078 C26.1236247,16.1284592 25.9096633,16.0306123 25.7579714,15.9125776 L25.6855387,15.8525349 C25.6601724,16.378656 25.5283011,17.2281303 25.4055602,17.9864202 C25.352989,18.3112035 25.3031528,18.6184149 25.2777615,18.8822061 C25.2465596,19.2063637 25.3712549,19.4401002 25.4450391,19.5664993 C25.7788286,19.7180972 25.9541157,19.8096214 26.2104185,19.9887801 C26.7196672,20.3447508 26.7941374,20.5192013 26.8399477,20.7673675 C25.1066132,20.2629468 24.7082943,20.252515 24.2872523,20.4477766 C22.8238339,20.4491599 22.2784077,20.8254744 22.2784077,20.8254744 C22.0383962,20.8158261 21.7188178,20.8160823 21.2981485,21.1032398 C21.2222686,20.3306217 21.5904837,20.2258178 21.7450131,20.2107954 C21.5265235,19.1141057 21.3797942,18.9337321 21.2205044,18.8763562 C20.2449001,18.5680364 20.860717,18.4133555 21.0944451,18.2952229 C22.9546033,19.1136018 23.2176283,19.1389212 23.4788499,19.0645544 C23.6803281,19.0071959 23.8840701,18.9034085 24.0244276,18.7438387 C24.2070511,18.5362177 24.1992567,18.1455613 24.2013642,17.9464801 C24.2191199,17.5608525 24.2024134,17.2245733 24.1884781,16.9418381 C24.1768979,16.7068871 24.1792076,16.5127734 24.1937086,16.384143 C23.581529,16.0596451 22.6630008,16.2175761 21.7545547,15.9517008 C20.9837112,15.7260977 20.2061972,15.2798681 19.7226536,14.9989867 C19.2441312,15.0053662 19.1800489,15.0423759 19.0765717,15.1285941 C18.7781027,15.4194118 18.7209896,15.5908155 18.7272236,15.7638992 C18.7326312,15.9140374 18.7762989,16.0629361 18.8441386,16.1794305 L18.8993304,16.2602385 L19.9450717,16.6848342 C20.3449676,16.7132079 20.607502,16.8428999 20.7781206,17.0192555 C20.9973155,17.2458207 21.0684141,17.5564147 21.0610162,17.8648447 C20.6532377,17.902658 20.2403556,17.7472251 19.9657418,17.6430256 C19.2545727,18.6379657 18.3973651,19.3846209 17.2328477,19.7946413 C18.1789684,20.0295904 18.3704376,20.1044676 18.5003263,20.224098 C17.5222795,20.8399223 17.2911495,20.6770025 17.0729681,20.5229563 C15.7520216,20.2010177 15.496072,20.2371782 15.2304155,20.2794364 C14.7006717,20.3421872 14.2614391,20.4293519 14.0726829,20.658348 C13.4650987,20.5458499 13.2489206,20.8170348 13.2192576,20.8594212 L13.215609,20.8648968 L12.8546121,19.9063139 C9.9567291,19.2706522 9.440651,19.0891793 9.81911862,19.0798419 L9.89248417,19.0798748 C10.0964178,19.0839094 10.449046,19.1166004 10.8332959,19.1557454 L11.0014306,19.1730453 C11.0296654,19.1759736 11.0579768,19.1789189 11.0863209,19.1818727 L11.3411081,19.2084629 C11.9602531,19.2729229 12.531154,19.3293873 12.5842013,19.2887962 C13.7358182,19.3729958 14.1987039,19.4182465 14.464782,19.398677 C14.2423175,19.1559986 14.140275,19.1011398 14.0614578,19.0959318 C14.739629,18.7482815 15.1450316,18.8870252 15.4767738,18.9445036 C16.0114638,18.8720465 16.5460013,18.4423584 16.9105358,18.1396743 C16.7117295,17.6576336 16.5918865,17.4827971 16.4408314,17.2629101 C16.2136498,16.9322077 15.9187569,16.4860004 15.440102,16.3505502 C14.6168344,16.1175813 12.7634192,16.8032395 12.3116325,16.974491 C12.2118518,17.4025137 11.9539913,17.7807109 11.8658308,17.8996368 C11.3898401,17.4020401 11.2301907,17.1069496 11.1621155,16.8535534 C10.8481169,17.2621357 10.6006511,17.5155341 10.3536326,17.7683415 C10.2064866,17.9189359 10.059492,18.0693039 9.89639547,18.2556639 C9.54226835,18.6437058 9.35267257,19.0969181 9.2214836,19.5947946 C9.42173179,19.6920033 9.74945937,19.7819494 10.2026786,19.8688096 C10.6836713,20.2692677 10.2282847,20.5719084 10.2282847,20.5719084 C9.59904057,20.7380342 9.40008495,20.6624041 9.20558655,20.584619 C9.02973664,20.4049754 8.87148636,20.2892174 8.70497276,20.2525683 C8.08826027,20.5474025 7.91369077,20.5106776 7.70889663,20.4590958 C7.55516678,20.4203757 7.37892438,20.3750008 7.10223211,20.5358032 C6.87170037,20.7549861 6.60014985,20.8789589 6.35870582,20.9198716 C5.6761,20.7784846 5.43141601,20.7948825 5.05997505,20.9288973 C4.95466671,20.4007242 5.06582177,20.2030831 5.18630135,20.1128991 C4.95552816,19.3828511 5.1491992,19.3678832 5.33134624,19.3817644 C5.800934,18.3717231 6.35987368,18.6655965 6.62567355,18.8324192 C7.24490273,18.6547959 7.44961706,18.4699785 7.65692034,18.246864 C8.289483,17.5660553 8.95902378,16.5625008 9.20829512,16.1555178 C8.75817215,16.1521563 8.28494963,16.2067843 7.92741102,16.3276033 C7.79570501,16.7094247 7.57843915,16.9232157 7.32184922,17.1702469 C6.99228954,16.1099842 6.49606077,15.5529627 5.79365214,14.7548162 C4.95799753,14.1219559 4.5254509,13.1688018 4.34404672,12.5859291 C4.06050137,12.9753572 3.782331,13.2159528 3.59211074,13.321806 C3.42813144,12.6646953 3.53141553,12.4255405 3.62291973,12.2685599 C3.81296863,11.8302022 3.84102857,11.5496907 3.86955945,11.2693121 C3.89775522,10.9922267 3.92595069,10.7151443 3.95409147,10.4376305 C3.42721924,9.16917756 3.1092663,8.6605044 2.9655418,8.6192875 C2.87954576,8.59462579 2.65196171,8.67882608 2.24337706,8.92094253 C2.32603868,8.72704908 2.4612231,8.4716515 2.97726821,8.37621511 C3.51952597,8.275931 3.73223224,8.49099096 3.87924717,8.64518704 C4.11565959,8.81647316 4.225867,9.03963619 4.32066878,9.28983655 L4.346,9.36 L4.34189678,9.31887438 C4.32544135,9.08604785 4.3768132,8.85361327 4.45575394,8.59838892 L4.49733534,8.46877028 C4.49294521,8.21880616 4.39458924,7.97492166 4.16126606,7.82925601 C4.94256376,7.88696797 5.06197264,8.09092356 5.12674228,8.2132111 C5.32900262,8.51119355 5.3393028,8.75529232 5.3003845,8.95738589 C5.47810632,8.87583206 5.5465075,8.76198557 5.55804157,8.57893439 L5.55931252,8.48147085 L5.54477091,7.97645392 L5.79311666,8.41642886 C6.10093674,8.96176989 6.03320824,9.16647626 5.96131459,9.36338612 C5.78764179,10.406108 5.74587588,11.270091 5.73988562,11.7867824 L5.73942673,12.0154067 C5.74024289,12.1144681 5.74229366,12.190068 5.74407699,12.2395727 C7.33427208,13.1172458 7.71347238,13.2498215 7.86025082,13.1958779 C7.80170337,12.9031162 7.79267576,12.3672827 7.85338211,11.814125 C7.89573841,11.4281734 7.97129433,11.0340202 8.05608314,10.7412535 C8.25952963,9.96115292 8.45176893,9.36660122 8.70094955,8.79702756 C8.92084792,8.29438689 9.18816862,7.83762968 9.3901583,7.57544074 C8.84870449,7.56082046 8.65952971,7.71855179 8.60609857,8.01138261 C8.02116974,8.14451093 7.79947105,8.3908458 7.69183524,8.50980702 C7.20107094,8.43031489 7.21335441,8.0392326 7.23441705,7.87983087 C7.11926952,7.72261807 7.07957057,7.54529441 7.05015782,7.36427735 C6.64603475,7.10396953 6.37581565,7.08801143 6.10575796,7.07136878 C5.84578134,7.05534739 5.58573722,7.03931968 5.25884694,7.02320552 C5.23403048,7.29401758 4.82482436,6.93787515 4.39917034,6.4409266 L4.31392925,6.33980351 L3.36775495,5.19971484 C4.21473665,5.59488644 4.96493529,5.72480954 5.74338136,5.89095226 L6.03686693,5.95554238 L5.51085627,6.25377542 C6.11307213,6.28811549 6.70993973,6.27922681 7.25182692,6.24947509 C7.43322742,6.2395155 7.6084794,6.2272141 7.77572856,6.21340228 L7.872,6.204 L7.78889867,6.11924571 C7.3268549,5.67130764 6.91923416,5.62373023 6.86335999,5.61921885 C6.46959895,5.56648221 6.15178138,5.60676545 5.83387601,5.64595326 C5.66722567,5.66649605 5.50053275,5.68693976 5.32663665,5.69570991 C5.87727264,4.61727558 6.73612816,4.53359015 7.60662359,4.46722381 C8.06525503,4.23987432 8.15329831,4.10835815 8.27820877,4.016408 C8.45369702,3.88722609 8.6919833,3.82259495 8.95326999,3.7838055 C8.97841155,3.78263474 10.6226402,3.87217414 10.9529929,3.88970613 C11.2412726,3.56693325 11.915786,3.40560378 12.0392695,3.37826628 C12.3385854,3.22617887 12.796254,3.19618075 13.2372607,3.19618075 C13.2889321,3.81091579 12.7519642,4.35281561 12.4614971,4.58051851 L12.3992221,4.62737802 L12.5339338,5.53465316 C12.9630133,5.68341445 13.2587384,5.89559861 13.3562361,6.19816076 C13.3557155,7.02538058 13.4238936,7.249328 13.4356996,7.5522472 C13.0650579,7.58722588 12.9129589,7.52160995 12.7924883,7.48297831 C13.2341283,9.13568276 12.8943088,9.01376279 12.6663889,9.04238919 C12.4510579,10.0425539 12.4300491,10.5588846 12.4469532,10.7990923 L12.4510988,10.8464147 L14.2462969,10.45873 C14.4913199,10.2013266 14.594386,9.78824126 14.5690436,9.34527661 C14.5479066,8.29332825 14.5414871,7.72560878 15.2764277,7.04119301 C17.1156578,5.40710661 18.9865791,4.12466688 21.0769416,2.89231956 C21.2380823,2.7973211 21.398852,2.70360776 21.5593902,2.61144316 Z M26.0197707,10.0758896 C25.7683886,9.82205191 25.4889173,9.74936361 24.843976,9.96458941 C24.8276583,9.99398439 24.8173605,10.0239691 24.8209895,10.0523367 C24.833394,10.1492561 24.8817568,10.2190258 24.9520375,10.2654352 C25.0477484,10.3286374 25.1777572,10.352179 25.3130594,10.3508355 C25.4843024,10.3491352 25.6655509,10.3059521 25.8105524,10.2343948 C25.8981221,10.1911798 25.9751544,10.1387868 26.0197707,10.0758896 Z M8.53985276,5.68447071 L7.931,6.199 L8.02036841,6.19165565 C8.0997598,6.18409845 8.1769187,6.17626757 8.25161332,6.16826694 L8.46807255,6.14385967 C8.67092089,6.11983258 8.85080823,6.09524666 9.00196451,6.07262265 C9.06259807,5.72178637 8.67628741,5.6862166 8.53985276,5.68447071 Z" id="Shape" stroke="#000000" stroke-width="0.25" fill="#D21034" fill-rule="nonzero" mask="url(#mask-4)"></path>
                <path d="" id="Path-2" stroke="#000000" stroke-width="0.25" fill="#D21034" fill-rule="nonzero" mask="url(#mask-4)"></path>
            </g>
        </g>
    </g>
</svg>