<?xml version="1.0" encoding="UTF-8"?>
<svg width="32px" height="24px" viewBox="0 0 32 24" version="1.1" xmlns="http://www.w3.org/2000/svg" xmlns:xlink="http://www.w3.org/1999/xlink">
    <title>flags/L/GD - Grenada</title>
    <defs>
        <rect id="path-1" x="0" y="0" width="32" height="24"></rect>
        <polygon id="path-3" points="0 0 20 0 20 12 0 12"></polygon>
        <polygon id="path-5" points="0 0 10 6 0 12"></polygon>
        <polygon id="path-7" points="10 0 20 6 10 12"></polygon>
    </defs>
    <g id="Symbols" stroke="none" stroke-width="1" fill="none" fill-rule="evenodd">
        <g id="flag">
            <mask id="mask-2" fill="white">
                <use xlink:href="#path-1"></use>
            </mask>
            <g id="mask"></g>
            <g id="contents" mask="url(#mask-2)">
                <polygon id="background" fill="#C51918" points="0 0 32 0 32 24 0 24"></polygon>
                <g id="top" transform="translate(6.000000, 6.000000)">
                    <mask id="mask-4" fill="white">
                        <use xlink:href="#path-3"></use>
                    </mask>
                    <use fill="#FECA00" xlink:href="#path-3"></use>
                    <g id="triangles" mask="url(#mask-4)">
                        <mask id="mask-6" fill="white">
                            <use xlink:href="#path-5"></use>
                        </mask>
                        <use id="right" fill="#23875F" xlink:href="#path-5"></use>
                        <mask id="mask-8" fill="white">
                            <use xlink:href="#path-7"></use>
                        </mask>
                        <use id="left" fill="#23875F" transform="translate(15.000000, 6.000000) scale(-1, 1) translate(-15.000000, -6.000000) " xlink:href="#path-7"></use>
                    </g>
                    <circle id="Oval-22" fill="#C51918" mask="url(#mask-4)" cx="10" cy="6" r="4"></circle>
                    <polygon id="Star-5" fill="#FECA00" mask="url(#mask-4)" points="9.92945822 7.31328117 7.85853572 8.74971259 8.52027174 6.28944726 7 4.71782788 9.05853308 4.6328492 9.92945822 2.20001221 10.8003834 4.6328492 12.8554141 4.6328492 11.3386447 6.28944726 12.0982669 8.60450165"></polygon>
                </g>
                <g id="stars" transform="translate(8.000000, 0.000000)" fill="#FECA00">
                    <path d="M1.90753053,18.9671623 L2.38349353,20.1557783 L3.50657354,20.1557783 L2.67765485,20.9651457 L3.09279051,22.0962164 L1.90753053,21.4653622 L0.775765642,22.1671624 L1.13740621,20.9651457 L0.306573492,20.1972965 L1.43156753,20.1557783 L1.90753053,18.9671623 Z M7.90753053,18.9671623 L8.38349353,20.1557783 L9.50657354,20.1557783 L8.67765485,20.9651457 L9.09279051,22.0962164 L7.90753053,21.4653622 L6.77576564,22.1671624 L7.13740621,20.9651457 L6.30657349,20.1972965 L7.43156753,20.1557783 L7.90753053,18.9671623 Z M13.9075305,18.9671623 L14.3834935,20.1557783 L15.5065735,20.1557783 L14.6776548,20.9651457 L15.0927905,22.0962164 L13.9075305,21.4653622 L12.7757656,22.1671624 L13.1374062,20.9651457 L12.3065735,20.1972965 L13.4315675,20.1557783 L13.9075305,18.9671623 Z M1.90848754,1.24203445 L2.38445055,2.43065042 L3.50753055,2.43065042 L2.67861186,3.24001781 L3.09374753,4.3710885 L1.90848754,3.74023436 L0.776722656,4.4420345 L1.13836323,3.24001781 L0.307530506,2.47216863 L1.43252454,2.43065042 L1.90848754,1.24203445 Z M7.90848754,1.24203445 L8.38445055,2.43065042 L9.50753055,2.43065042 L8.67861186,3.24001781 L9.09374753,4.3710885 L7.90848754,3.74023436 L6.77672266,4.4420345 L7.13836323,3.24001781 L6.30753051,2.47216863 L7.43252454,2.43065042 L7.90848754,1.24203445 Z M13.9084875,1.24203445 L14.3844505,2.43065042 L15.5075306,2.43065042 L14.6786119,3.24001781 L15.0937475,4.3710885 L13.9084875,3.74023436 L12.7767227,4.4420345 L13.1383632,3.24001781 L12.3075305,2.47216863 L13.4325245,2.43065042 L13.9084875,1.24203445 Z" id="Combined-Shape"></path>
                </g>
                <g id="flame" transform="translate(6.000000, 10.000000)">
                    <path d="M2.6347216,2.77200654 C2.99376362,3.09163763 3.27105741,3.30586649 3.46660297,3.41469313 C3.53402894,3.15913916 3.49252126,2.74188332 3.34207994,2.16292561 C3.29986832,2.02452715 3.04726411,1.83126555 2.58426732,1.58314082 C2.4542236,2.02004495 2.47104169,2.41633353 2.6347216,2.77200654 Z" id="Path-71" fill="#C51918"></path>
                    <path d="M3.19574772,3.93019075 C2.2735906,3.49947328 1.7656575,2.97951604 1.67194844,2.37031903 C1.57823938,1.76112202 1.63075223,0.970935078 1.829487,-0.000241809861 C3.32695728,0.340535969 4.12663286,0.87599356 4.22851376,1.60613096 C4.33039466,2.33626836 4.21222199,2.93068001 3.87399575,3.38936589 C3.52762855,2.4993091 3.19101843,2.00491694 2.8641654,1.90618941 C2.8641654,2.78829461 2.97469284,3.46296172 3.19574772,3.93019075 Z" id="Path-70" fill="#FECA00"></path>
                </g>
            </g>
        </g>
    </g>
</svg>