<?xml version="1.0" encoding="UTF-8"?>
<svg width="32px" height="24px" viewBox="0 0 32 24" version="1.1" xmlns="http://www.w3.org/2000/svg" xmlns:xlink="http://www.w3.org/1999/xlink">
    <title>flags/L/GE - Georgia</title>
    <defs>
        <rect id="path-1" x="0" y="0" width="32" height="24"></rect>
        <rect id="path-3" x="0" y="0" width="32" height="24"></rect>
    </defs>
    <g id="Symbols" stroke="none" stroke-width="1" fill="none" fill-rule="evenodd">
        <g id="flag">
            <mask id="mask-2" fill="white">
                <use xlink:href="#path-1"></use>
            </mask>
            <g id="mask"></g>
            <g id="contents" mask="url(#mask-2)">
                <mask id="mask-4" fill="white">
                    <use xlink:href="#path-3"></use>
                </mask>
                <use id="background" fill="#F7FCFF" xlink:href="#path-3"></use>
                <g id="mark-1" mask="url(#mask-4)" fill="#E31D1C">
                    <polygon id="cross" points="14 0 18 0 18 10 32 10 32 14 18 14 18 24 14 24 14 14 0 14 0 10 14 10"></polygon>
                </g>
                <g id="mark-2" mask="url(#mask-4)" fill="#E31D1C">
                    <g transform="translate(6.000000, 2.000000)" id="Combined-Shape">
                        <path d="M3.99868283,15.2219509 L6.19999695,15 L6.19999695,17 C4.7324542,16.9081094 3.99868283,16.8754288 3.99868283,16.901958 C3.99868283,16.9284873 4.06578753,17.6278346 4.19999695,19 L2.19999695,19 L2.36021656,17 L0.199996948,17 L0.199996948,15 L2.36021656,15.2219509 L2.19999695,13 L4.19999695,13 L3.99868283,15.2219509 Z"></path>
                        <path d="M3.99868283,3.22195091 L6.19999695,3 L6.19999695,5 C4.7324542,4.90810942 3.99868283,4.87542875 3.99868283,4.90195801 C3.99868283,4.92848727 4.06578753,5.6278346 4.19999695,7 L2.19999695,7 L2.36021656,5 L0.199996948,5 L0.199996948,3 L2.36021656,3.22195091 L2.19999695,1 L4.19999695,1 L3.99868283,3.22195091 Z"></path>
                        <path d="M17.9986828,3.22195091 L20.1999969,3 L20.1999969,5 C18.7324542,4.90810942 17.9986828,4.87542875 17.9986828,4.90195801 C17.9986828,4.92848727 18.0657875,5.6278346 18.1999969,7 L16.1999969,7 L16.3602166,5 L14.1999969,5 L14.1999969,3 L16.3602166,3.22195091 L16.1999969,1 L18.1999969,1 L17.9986828,3.22195091 Z"></path>
                        <path d="M17.9986828,15.2219509 L20.1999969,15 L20.1999969,17 C18.7324542,16.9081094 17.9986828,16.8754288 17.9986828,16.901958 C17.9986828,16.9284873 18.0657875,17.6278346 18.1999969,19 L16.1999969,19 L16.3602166,17 L14.1999969,17 L14.1999969,15 L16.3602166,15.2219509 L16.1999969,13 L18.1999969,13 L17.9986828,15.2219509 Z"></path>
                    </g>
                </g>
            </g>
        </g>
    </g>
</svg>