<?xml version="1.0" encoding="UTF-8"?>
<svg width="32px" height="24px" viewBox="0 0 32 24" version="1.1" xmlns="http://www.w3.org/2000/svg" xmlns:xlink="http://www.w3.org/1999/xlink">
    <title>flags/L/GG - Guernsey</title>
    <defs>
        <rect id="path-1" x="0" y="0" width="32" height="24"></rect>
        <rect id="path-3" x="0" y="0" width="32" height="24"></rect>
    </defs>
    <g id="Symbols" stroke="none" stroke-width="1" fill="none" fill-rule="evenodd">
        <g id="flag">
            <mask id="mask-2" fill="white">
                <use xlink:href="#path-1"></use>
            </mask>
            <g id="mask"></g>
            <g id="contents" mask="url(#mask-2)">
                <mask id="mask-4" fill="white">
                    <use xlink:href="#path-3"></use>
                </mask>
                <use id="background" fill="#F7FCFF" xlink:href="#path-3"></use>
                <g id="mark-1" mask="url(#mask-4)">
                    <polygon id="cross" fill="#E31D1C" points="12 0 20 0 20 8 32 8 32 16 20 16 20 24 12 24 12 16 0 16 0 8 12 8"></polygon>
                    <path d="M18.9656963,3.04595047 L18.00855,4.80520709 L17.9999729,4.80495047 L18,10 L25.1059729,9.99995047 L25.1059729,9.94283841 L26.8652295,8.94548372 L26.8652295,14.9056738 L25.2019729,13.9999505 L18,14 L17.9999729,19.0459505 L18.00855,19.0459505 L18.9656963,20.8052071 L13.0055062,20.8052071 L13.9999729,19.0489505 L14,14 L6.7689729,13.9999505 L5.1059729,14.9056738 L5.1059729,8.94548372 L6.86522952,9.94283841 L6.8649729,9.99995047 L14,10 L13.9999729,4.80095047 L13.0055062,3.04595047 L18.9656963,3.04595047 Z" id="cross---yellow" fill="#FECA00"></path>
                </g>
            </g>
        </g>
    </g>
</svg>