<?xml version="1.0" encoding="UTF-8"?>
<svg width="32px" height="24px" viewBox="0 0 32 24" version="1.1" xmlns="http://www.w3.org/2000/svg" xmlns:xlink="http://www.w3.org/1999/xlink">
    <title>flags/L/GI - Gibraltar</title>
    <defs>
        <rect id="path-1" x="0" y="0" width="32" height="24"></rect>
    </defs>
    <g id="Symbols" stroke="none" stroke-width="1" fill="none" fill-rule="evenodd">
        <g id="flag">
            <mask id="mask-2" fill="white">
                <use xlink:href="#path-1"></use>
            </mask>
            <g id="mask"></g>
            <rect id="background" fill="#F7FCFF" mask="url(#mask-2)" x="0" y="0" width="32" height="24"></rect>
            <g id="contents" mask="url(#mask-2)">
                <g transform="translate(0.000000, 4.000000)">
                    <path d="M0,12 L32,12 L32,18 C32,19.1045695 31.1045695,20 30,20 L2,20 C0.8954305,20 1.3527075e-16,19.1045695 0,18 L0,12 L0,12 Z" id="bottom" fill="#C51918"></path>
                    <g id="mark" stroke-width="1" fill="none" transform="translate(7.000000, 0.000000)">
                        <g id="castle">
                            <path d="M10.3888889,1 L10.388,5.615 L11.333,5.615 L11.3333333,2.84615385 L15.1111111,2.84615385 L15.111,5.615 L17,5.61538462 L17,6.53846154 L16.0555556,6.53846154 L16.0555556,11.1538462 L17,11.1538462 L17,12.0769231 L0,12.0769231 L0,11.1538462 L0.944444444,11.1538462 L0.944444444,6.53846154 L0,6.53846154 L0,5.61538462 L1.888,5.615 L1.88888889,2.84615385 L5.66666667,2.84615385 L5.666,5.615 L6.611,5.615 L6.61111111,1 L10.3888889,1 Z" id="Combined-Shape" fill="#DB000B"></path>
                            <path d="M3.65350877,3.76923077 C4.10647916,3.76923077 4.47368421,4.13643582 4.47368421,4.58940621 L4.47368421,5.8 L4.47368421,5.8 L2.83333333,5.8 L2.83333333,4.58940621 C2.83333333,4.13643582 3.20053839,3.76923077 3.65350877,3.76923077 Z" id="Rectangle-24" fill="#272727"></path>
                            <path d="M13.0979532,3.76923077 C13.5509236,3.76923077 13.9181287,4.13643582 13.9181287,4.58940621 L13.9181287,5.8 L13.9181287,5.8 L12.2777778,5.8 L12.2777778,4.58940621 C12.2777778,4.13643582 12.6449828,3.76923077 13.0979532,3.76923077 Z" id="Rectangle-24" fill="#272727"></path>
                            <path d="M3.65350877,8.38461538 C4.25335138,8.38461538 4.73961988,8.87088389 4.73961988,9.4707265 L4.73961988,11.3384615 L4.73961988,11.3384615 L2.56739766,11.3384615 L2.56739766,9.4707265 C2.56739766,8.87088389 3.05366617,8.38461538 3.65350877,8.38461538 Z" id="Rectangle-24" fill="#272727"></path>
                            <path d="M13.0979532,8.38461538 C13.6977958,8.38461538 14.1840643,8.87088389 14.1840643,9.4707265 L14.1840643,11.3384615 L14.1840643,11.3384615 L12.0118421,11.3384615 L12.0118421,9.4707265 C12.0118421,8.87088389 12.4981106,8.38461538 13.0979532,8.38461538 Z" id="Rectangle-24" fill="#272727"></path>
                            <path d="M8.28632502,8.24773838 C9.05500204,8.24773838 9.67813789,8.87087423 9.67813789,9.63955125 L9.67813789,12.3092768 L9.67813789,12.3092768 L6.89451216,12.3092768 L6.89451216,9.63955125 C6.89451216,8.87087423 7.517648,8.24773838 8.28632502,8.24773838 Z" id="Rectangle-24" fill="#272727"></path>
                            <path d="M8.37573099,2.84615385 C8.82870138,2.84615385 9.19590643,3.2133589 9.19590643,3.66632928 L9.19590643,5.8 L9.19590643,5.8 L7.55555556,5.8 L7.55555556,3.66632928 C7.55555556,3.2133589 7.92276061,2.84615385 8.37573099,2.84615385 Z" id="Rectangle-24" fill="#272727"></path>
                            <rect id="Rectangle-113" fill="#DE1A23" x="0" y="4.69230769" width="1" height="1"></rect>
                            <path d="M2.5,2 L2.5,3 L1.5,3 L1.5,2 L2.5,2 Z M6.5,2 L6.5,3 L5.5,3 L5.5,2 L6.5,2 Z M4.75,2 L4.75,3 L3.25,3 L3.25,2 L4.75,2 Z" id="Combined-Shape" fill="#DE1A23"></path>
                            <path d="M12.5,2 L12.5,3 L11.5,3 L11.5,2 L12.5,2 Z M16.5,2 L16.5,3 L15.5,3 L15.5,2 L16.5,2 Z M14.75,2 L14.75,3 L13.25,3 L13.25,2 L14.75,2 Z" id="Combined-Shape" fill="#DE1A23"></path>
                            <path d="M7.3,0 L7.3,1 L6.3,1 L6.3,0 L7.3,0 Z M8.8,0 L8.8,1 L7.8,1 L7.8,0 L8.8,0 Z M10.3,0 L10.3,1 L9.3,1 L9.3,0 L10.3,0 Z M11.8,0 L11.8,1 L10.8,1 L10.8,0 L11.8,0 Z" id="Combined-Shape" fill="#DE1A23"></path>
                            <rect id="Rectangle-113" fill="#DE1A23" x="17" y="5" width="1" height="1"></rect>
                        </g>
                        <g id="key" transform="translate(5.421053, 10.400000)" fill="#E8AA00">
                            <path d="M3.52904242,1.73324749 L2.64156082,2.32802395 L3.623457,2.79530909 L4.46662924,2.24393987 L3.52904242,1.73324749 Z M6.41350779,2.16566061 L3.70078058,3.9395737 L0.624894508,2.4757572 L3.51920115,0.81217683 L6.41350779,2.16566061 Z" id="Path-69" fill-rule="nonzero"></path>
                            <polygon id="Rectangle-25" points="1.73684211 6.49297924 3.21052632 6.49297924 3.21052632 7.6 3.21052632 7.22631257 2.29472223 7.22631257 2.29472223 7.6 1.73684211 7.6"></polygon>
                            <polygon id="Rectangle-26" points="3.07696258 3.6 4.32775756 3.6 4.32775756 7.6 3.07696258 7.6"></polygon>
                        </g>
                    </g>
                </g>
            </g>
        </g>
    </g>
</svg>