<?xml version="1.0" encoding="UTF-8"?>
<svg width="32px" height="24px" viewBox="0 0 32 24" version="1.1" xmlns="http://www.w3.org/2000/svg" xmlns:xlink="http://www.w3.org/1999/xlink">
    <title>flags/L/GP - Guadeloupe</title>
    <g id="Symbols" stroke="none" stroke-width="1" fill="none" fill-rule="evenodd">
        <g id="flags/L/GP---Guadeloupe" fill-rule="nonzero">
            <g id="flag">
                <polygon id="bg-blue" fill="#002488" points="-5.68415822e-11 8.36735126e-11 -5.68415822e-11 7 32 7 32 8.3674117e-11"></polygon>
                <polygon id="bg-red" fill="#DA121A" points="0.000693753486 7 0.000693753486 24 32.0006938 24 32.0006938 7"></polygon>
                <g id="deco" transform="translate(3.000000, 0.300000)" fill="#FCDD09">
                    <path d="M2.02814021,0.48950284 C1.64595114,1.11976519 1.60035375,1.62391114 1.86119786,2.49444793 C1.98678946,2.90069844 2.12474914,3.50736373 2.1827145,3.83623319 C2.26000164,4.30051948 2.25190639,4.34465705 2.26276108,4.44560894 C2.35937001,4.44560894 2.57891718,4.4459765 2.68043635,4.44536713 C2.69503377,4.2846258 2.7068359,4.09909274 2.74110888,3.84396268 C2.78106972,3.54649213 2.89958868,2.92433719 3.02706088,2.49221114 C3.2817936,1.62868004 3.26473449,1.0988786 2.86863788,0.499175471 C2.72372449,0.276704957 2.53050664,0.0929249666 2.4435586,0.0929249666 C2.35661057,0.0929249666 2.15991585,0.262780556 2.02814021,0.48950284 Z" id="path1350"></path>
                    <path d="M2.86091439,4.03316689 C2.8280889,4.19946602 2.82008427,4.25817076 2.80362384,4.44560285 C2.92072507,4.44607681 2.96675053,4.4468777 3.08089949,4.44619288 C3.10588758,4.32010269 3.12388186,4.25353719 3.17895417,4.0745673 C3.39727991,3.38238957 4.04031309,3.10459373 4.01133041,3.75266001 C4.00166952,3.93160368 3.92623988,4.03151887 3.84227715,4.12744825 C3.94606567,4.10153924 4.1664885,3.99854139 4.34521502,3.89697876 C5.34028698,3.29727563 4.94843701,1.82780643 3.90506059,2.27274746 C3.36405059,2.50489118 3.03865916,3.14753663 2.86091439,4.03316689 Z" id="path1354"></path>
                    <path d="M1.69436003,4.68962806 C2.13098553,4.69186468 2.88559816,4.69587945 3.24804143,4.69364283 C3.24846651,4.58613536 3.24981904,4.64100005 3.25070881,4.55412519 C2.98387891,4.55155837 1.96210298,4.55579513 1.69642843,4.55579513 C1.69703707,4.61200067 1.6958198,4.63921465 1.69436003,4.68962784 L1.69436003,4.68962806 Z" id="path1356"></path>
                    <path d="M1.41950396,5.48023361 C1.41950396,5.48023361 1.63700399,5.50471861 1.83983936,5.48990624 C2.04267483,5.47509386 2.15522085,5.44975128 2.2750991,5.39144582 C2.24254904,5.6334446 2.24067985,5.86713885 2.24067985,5.86713885 C2.27018209,6.17857049 2.30356222,6.25827355 2.37101525,6.40984667 C2.46253395,6.5362845 2.51575542,6.53697813 2.58303533,6.40346854 C2.6557518,6.25397619 2.70361988,6.10022672 2.71880748,5.86568379 C2.71352684,5.68989901 2.70370992,5.6093495 2.66212674,5.394466 C2.80247429,5.45527154 2.89111859,5.47103116 3.10049931,5.48990604 C3.31475714,5.50922055 3.51169348,5.49975211 3.51169348,5.49975211 C3.51169348,5.49975211 3.22227603,5.35433077 3.09488952,5.17597906 C2.96914508,4.99992654 2.9959615,5.02985869 2.90452936,4.80305774 C2.79342909,4.79779292 2.23013392,4.80297581 2.05140741,4.80297581 C1.9535186,5.00974261 1.94367696,5.05292124 1.82276914,5.18339739 C1.66537291,5.35324985 1.41950396,5.48023361 1.41950396,5.48023361 Z" id="path1358"></path>
                    <path d="M1.02742156,2.27243029 C1.56843155,2.50457344 1.89382298,3.14721889 2.07156776,4.03284915 C2.10439325,4.19914827 2.11239788,4.25785302 2.1288583,4.4452851 C2.01175707,4.44575906 1.96573162,4.44655996 1.85158266,4.44587513 C1.82659457,4.31978494 1.80860029,4.25321944 1.75352798,4.07424955 C1.53520224,3.38207182 0.892169056,3.10427598 0.921151735,3.75234226 C0.930812627,3.93128594 1.00624227,4.03120112 1.09020499,4.1271305 C0.986416476,4.10122149 0.765993642,3.99822364 0.587267125,3.89666101 C-0.407804834,3.29695789 -0.0159548679,1.82748868 1.02742156,2.27242971 L1.02742156,2.27243029 Z" id="path1317"></path>
                </g>
                <g id="deco" transform="translate(13.000000, 0.300000)" fill="#FCDD09">
                    <path d="M2.02814021,0.48950284 C1.64595114,1.11976519 1.60035375,1.62391114 1.86119786,2.49444793 C1.98678946,2.90069844 2.12474914,3.50736373 2.1827145,3.83623319 C2.26000164,4.30051948 2.25190639,4.34465705 2.26276108,4.44560894 C2.35937001,4.44560894 2.57891718,4.4459765 2.68043635,4.44536713 C2.69503377,4.2846258 2.7068359,4.09909274 2.74110888,3.84396268 C2.78106972,3.54649213 2.89958868,2.92433719 3.02706088,2.49221114 C3.2817936,1.62868004 3.26473449,1.0988786 2.86863788,0.499175471 C2.72372449,0.276704957 2.53050664,0.0929249666 2.4435586,0.0929249666 C2.35661057,0.0929249666 2.15991585,0.262780556 2.02814021,0.48950284 Z" id="path1328"></path>
                    <path d="M3.90506059,2.27274804 C3.36405059,2.50489118 3.03865916,3.14753663 2.86091439,4.03316689 C2.8280889,4.19946602 2.82008427,4.25817076 2.80362384,4.44560285 C2.92072507,4.44607681 2.96675053,4.4468777 3.08089949,4.44619288 C3.10588758,4.32010269 3.12388186,4.25353719 3.17895417,4.0745673 C3.39727991,3.38238957 4.04031309,3.10459373 4.01133041,3.75266001 C4.00166952,3.93160368 3.92623988,4.03151887 3.84227715,4.12744825 C3.94606567,4.10153924 4.1664885,3.99854139 4.34521502,3.89697876 C5.34028698,3.29727563 4.94843701,1.82780643 3.90506059,2.27274746 L3.90506059,2.27274804 Z" id="path1330"></path>
                    <path d="M1.69436003,4.68962806 C2.13098553,4.69186468 2.88559816,4.69587945 3.24804143,4.69364283 C3.24846651,4.58613536 3.24981904,4.64100005 3.25070881,4.55412519 C2.98387891,4.55155837 1.96210298,4.55579513 1.69642843,4.55579513 C1.69703707,4.61200067 1.6958198,4.63921465 1.69436003,4.68962784 L1.69436003,4.68962806 Z" id="path1332"></path>
                    <path d="M1.82276914,5.18339758 C1.66537291,5.35324985 1.41950396,5.48023361 1.41950396,5.48023361 C1.41950396,5.48023361 1.63700399,5.50471861 1.83983936,5.48990624 C2.04267483,5.47509386 2.15522085,5.44975128 2.2750991,5.39144582 C2.24254904,5.6334446 2.24067985,5.86713885 2.24067985,5.86713885 C2.27018209,6.17857049 2.30356222,6.25827355 2.37101525,6.40984667 C2.46253395,6.5362845 2.51575542,6.53697813 2.58303533,6.40346854 C2.6557518,6.25397619 2.70361988,6.10022672 2.71880748,5.86568379 C2.71352684,5.68989901 2.70370992,5.6093495 2.66212674,5.394466 C2.80247429,5.45527154 2.89111859,5.47103116 3.10049931,5.48990604 C3.31475714,5.50922055 3.51169348,5.49975211 3.51169348,5.49975211 C3.51169348,5.49975211 3.22227603,5.35433077 3.09488952,5.17597906 C2.96914508,4.99992654 2.9959615,5.02985869 2.90452936,4.80305774 C2.79342909,4.79779292 2.23013392,4.80297581 2.05140741,4.80297581 C1.9535186,5.00974261 1.94367696,5.05292124 1.82276914,5.18339739 L1.82276914,5.18339758 Z" id="path1334"></path>
                    <path d="M1.02742156,2.27243029 C1.56843155,2.50457344 1.89382298,3.14721889 2.07156776,4.03284915 C2.10439325,4.19914827 2.11239788,4.25785302 2.1288583,4.4452851 C2.01175707,4.44575906 1.96573162,4.44655996 1.85158266,4.44587513 C1.82659457,4.31978494 1.80860029,4.25321944 1.75352798,4.07424955 C1.53520224,3.38207182 0.892169056,3.10427598 0.921151735,3.75234226 C0.930812627,3.93128594 1.00624227,4.03120112 1.09020499,4.1271305 C0.986416476,4.10122149 0.765993642,3.99822364 0.587267125,3.89666101 C-0.407804834,3.29695789 -0.0159548679,1.82748868 1.02742156,2.27242971 L1.02742156,2.27243029 Z" id="path1336"></path>
                </g>
                <g id="deco" transform="translate(23.000000, 0.300000)" fill="#FCDD09">
                    <path d="M2.02814021,0.48950284 C1.64595114,1.11976519 1.60035375,1.62391114 1.86119786,2.49444793 C1.98678946,2.90069844 2.12474914,3.50736373 2.1827145,3.83623319 C2.26000164,4.30051948 2.25190639,4.34465705 2.26276108,4.44560894 C2.35937001,4.44560894 2.57891718,4.4459765 2.68043635,4.44536713 C2.69503377,4.2846258 2.7068359,4.09909274 2.74110888,3.84396268 C2.78106972,3.54649213 2.89958868,2.92433719 3.02706088,2.49221114 C3.2817936,1.62868004 3.26473449,1.0988786 2.86863788,0.499175471 C2.72372449,0.276704957 2.53050664,0.0929249666 2.4435586,0.0929249666 C2.35661057,0.0929249666 2.15991585,0.262780556 2.02814021,0.48950284 Z" id="path1340"></path>
                    <path d="M3.90506059,2.27274804 C3.36405059,2.50489118 3.03865916,3.14753663 2.86091439,4.03316689 C2.8280889,4.19946602 2.82008427,4.25817076 2.80362384,4.44560285 C2.92072507,4.44607681 2.96675053,4.4468777 3.08089949,4.44619288 C3.10588758,4.32010269 3.12388186,4.25353719 3.17895417,4.0745673 C3.39727991,3.38238957 4.04031309,3.10459373 4.01133041,3.75266001 C4.00166952,3.93160368 3.92623988,4.03151887 3.84227715,4.12744825 C3.94606567,4.10153924 4.1664885,3.99854139 4.34521502,3.89697876 C5.34028698,3.29727563 4.94843701,1.82780643 3.90506059,2.27274746 L3.90506059,2.27274804 Z" id="path1342"></path>
                    <path d="M1.69436003,4.68962806 C2.13098553,4.69186468 2.88559816,4.69587945 3.24804143,4.69364283 C3.24846651,4.58613536 3.24981904,4.64100005 3.25070881,4.55412519 C2.98387891,4.55155837 1.96210298,4.55579513 1.69642843,4.55579513 C1.69703707,4.61200067 1.6958198,4.63921465 1.69436003,4.68962784 L1.69436003,4.68962806 Z" id="path1344"></path>
                    <path d="M1.82276914,5.18339758 C1.66537291,5.35324985 1.41950396,5.48023361 1.41950396,5.48023361 C1.41950396,5.48023361 1.63700399,5.50471861 1.83983936,5.48990624 C2.04267483,5.47509386 2.15522085,5.44975128 2.2750991,5.39144582 C2.24254904,5.6334446 2.24067985,5.86713885 2.24067985,5.86713885 C2.27018209,6.17857049 2.30356222,6.25827355 2.37101525,6.40984667 C2.46253395,6.5362845 2.51575542,6.53697813 2.58303533,6.40346854 C2.6557518,6.25397619 2.70361988,6.10022672 2.71880748,5.86568379 C2.71352684,5.68989901 2.70370992,5.6093495 2.66212674,5.394466 C2.80247429,5.45527154 2.89111859,5.47103116 3.10049931,5.48990604 C3.31475714,5.50922055 3.51169348,5.49975211 3.51169348,5.49975211 C3.51169348,5.49975211 3.22227603,5.35433077 3.09488952,5.17597906 C2.96914508,4.99992654 2.9959615,5.02985869 2.90452936,4.80305774 C2.79342909,4.79779292 2.23013392,4.80297581 2.05140741,4.80297581 C1.9535186,5.00974261 1.94367696,5.05292124 1.82276914,5.18339739 L1.82276914,5.18339758 Z" id="path1346"></path>
                    <path d="M1.02742156,2.27243029 C1.56843155,2.50457344 1.89382298,3.14721889 2.07156776,4.03284915 C2.10439325,4.19914827 2.11239788,4.25785302 2.1288583,4.4452851 C2.01175707,4.44575906 1.96573162,4.44655996 1.85158266,4.44587513 C1.82659457,4.31978494 1.80860029,4.25321944 1.75352798,4.07424955 C1.53520224,3.38207182 0.892169056,3.10427598 0.921151735,3.75234226 C0.930812627,3.93128594 1.00624227,4.03120112 1.09020499,4.1271305 C0.986416476,4.10122149 0.765993642,3.99822364 0.587267125,3.89666101 C-0.407804834,3.29695789 -0.0159548679,1.82748868 1.02742156,2.27242971 L1.02742156,2.27243029 Z" id="path1348"></path>
                </g>
                <g id="grass" transform="translate(3.912773, 9.754876)" fill="#008000">
                    <path d="M7.38599714,3.37352051 C7.59575348,3.47143171 7.86358434,3.54859029 7.99865328,3.55314417 C8.15828166,3.5585236 8.11590706,3.51924595 7.81798251,3.4032237 C7.58477436,3.31209253 7.30586776,3.15886306 7.18206487,3.06384977 C6.96012518,2.88226112 6.96012518,2.88226112 6.9833833,3.04201332 C6.99667427,3.13329926 7.16395987,3.27519821 7.38599714,3.37352051 L7.38599714,3.37352051 Z" id="path1415"></path>
                    <path d="M6.08123125,1.48634859 C6.21648375,2.02801545 6.77681553,3.02429645 6.97003339,3.06298697 C7.14392946,3.09200487 7.14392946,3.08233223 6.99901607,2.91789751 C6.75749375,2.63739121 6.23580554,1.6120928 6.23580554,1.41864018 C6.23580554,1.31224123 6.18750107,1.23486019 6.12953572,1.23486019 C6.06190947,1.23486019 6.04258768,1.3315865 6.08123125,1.48634859 L6.08123125,1.48634859 Z" id="path2221"></path>
                    <path d="M0.274333728,0.807159171 C0.270978499,0.826210385 0.452321573,0.966265246 0.679557558,1.12424398 C0.906793784,1.28222271 1.17153461,1.50575334 1.25941396,1.61948607 C1.40998573,1.82286185 2.26294789,2.3270313 2.34296762,2.26258352 C2.42130973,2.20766136 1.32261117,1.31634388 0.858073661,1.05754103 C0.305105217,0.743838742 0.286076929,0.740478954 0.274333728,0.807159171 L0.274333728,0.807159171 Z" id="path2495"></path>
                    <path d="M0.585570934,1.55130418 C0.585570934,1.57064944 0.788449683,1.67704838 1.03963299,1.79311996 C1.29081621,1.90919153 1.59030388,2.08329937 1.6965737,2.18002568 C1.88013067,2.35413304 2.80757638,2.70234776 2.87520263,2.62496671 C2.94282888,2.55725829 1.7062346,1.870501 1.20386817,1.69639365 C0.60489272,1.48359576 0.585570934,1.48359576 0.585570934,1.55130418 Z" id="path2223"></path>
                    <path d="M5.36910028,1.62868523 C5.36910028,1.73508417 5.74587558,2.47020461 5.96807515,2.77972881 C6.09366675,2.95383617 6.23858015,3.05056248 6.40281532,3.05056248 C6.64433764,3.05056248 6.64433764,3.05056248 6.27722372,2.63463934 C6.06468408,2.41216883 5.78451915,2.07362674 5.63960527,1.88984627 C5.49469188,1.70606628 5.36910028,1.5899947 5.36910028,1.62868523 L5.36910028,1.62868523 Z" id="path2227"></path>
                    <path d="M3.81370958,4.6064284 C3.17609065,4.85791681 3.04083815,4.94497049 3.04083815,5.08038732 C3.04083815,5.13842311 3.1084644,5.12875048 3.21473422,5.0416968 C3.30168226,4.95464312 3.62049172,4.83857154 3.9103185,4.77086313 C4.20014529,4.70315471 4.54793743,4.58708314 4.68318993,4.51937472 L4.92471225,4.39363051 L4.63488546,4.39363051 C4.48031118,4.40330315 4.10353636,4.50002946 3.81370958,4.6064284 L3.81370958,4.6064284 Z" id="path2249"></path>
                    <path d="M2.5495204,3.09059073 C2.38528523,3.21633493 2.39494612,3.22600756 2.75239915,3.16797178 C2.9649388,3.13895388 3.27408737,3.0809181 3.42866165,3.04222757 C3.67984486,2.97451915 3.66052308,2.96484652 3.2257829,2.95517389 C2.93595612,2.94550126 2.66545112,3.00353705 2.5495204,3.09059073 Z" id="path2241"></path>
                    <path d="M0.14944326,2.07360062 C1.74349038,2.36377956 4.9412459,3.4374416 4.74802804,3.62122159 C4.69972358,3.66958475 3.80126055,3.44711424 3.67566894,3.36006056 C3.62736448,3.3116974 3.15398073,3.33104266 2.63229252,3.39875108 C1.65654235,3.50515002 1.49230717,3.5922037 1.51162895,3.98878157 C1.52128985,4.1822342 1.52128985,4.1822342 1.56959431,3.98878157 C1.65654235,3.63089423 1.80145574,3.55351318 2.35212663,3.55351318 C2.95110198,3.55351318 4.59345376,3.79532895 5.31802072,3.98878157 C6.28411,4.25961524 6.31309268,4.25961524 5.99428322,4.08550788 C5.57886483,3.85336474 4.95090679,3.42776897 4.83497608,3.30202477 C4.62243644,3.06020899 0.7677404,1.99621958 0.207408617,2.01556484 C-0.0534354887,2.0349101 -0.0630963815,2.0349101 0.14944326,2.07360062 Z" id="path2231"></path>
                    <path d="M0.882309411,2.5890029 C0.766378697,2.67605658 0.640787091,2.87918183 0.611804412,3.04361656 C0.553839055,3.32412286 0.553839055,3.32412286 0.70841334,3.14034287 C1.11417065,2.62769343 1.14315332,2.60834816 1.64551975,2.59867553 C2.05127725,2.5890029 2.1092426,2.56965764 1.91602475,2.51162185 C1.51026725,2.38587765 1.10450975,2.41489554 0.882309411,2.5890029 Z" id="path2235"></path>
                    <path d="M5.80661554,3.18592805 C5.88390269,3.32134488 6.63745233,3.69857749 6.69541768,3.64054171 C6.72440036,3.61152381 6.63745233,3.53414277 6.52152161,3.46643435 C6.39593001,3.39872593 6.23169483,3.29232699 6.16406858,3.21494594 C6.00949429,3.06985647 5.71966751,3.04083858 5.80661554,3.18592805 L5.80661554,3.18592805 Z" id="path2243"></path>
                    <path d="M5.86474031,4.10490925 C5.94202745,4.24032608 6.69557709,4.61755869 6.75354244,4.55952291 C6.78252512,4.53050501 6.69557709,4.45312397 6.57964637,4.38541555 C6.45405477,4.31770713 6.28981959,4.21130819 6.22219334,4.13392714 C6.06761905,3.98883768 5.77779227,3.95981978 5.86474031,4.10490925 L5.86474031,4.10490925 Z" id="path1533"></path>
                    <path d="M4.78467568,2.95322147 C4.79857577,2.93978425 5.01594924,3.01199093 5.27383083,3.11226709 C5.53171291,3.21254326 5.86483933,3.30729248 6.00815674,3.31663673 C6.26075769,3.32789084 7.15519696,3.75396008 7.14657703,3.85641694 C7.14491052,3.95215809 5.792486,3.53860523 5.31842455,3.2977427 C4.74944723,3.01417162 4.73602487,3.00025899 4.78467568,2.95322147 Z" id="path3304"></path>
                    <path d="M6.38485186,3.66012975 C6.20462549,3.72986652 6.02337941,3.8559957 5.9670651,3.94622683 C5.90051169,4.05286372 5.9568347,4.0538837 6.18928351,3.93697835 C6.37155702,3.84570934 6.63473278,3.7708393 6.77912159,3.75852169 C7.0494696,3.74516766 7.0494696,3.74516766 6.87741972,3.63752723 C6.77910468,3.57601849 6.57019802,3.58219011 6.38485186,3.66012975 L6.38485186,3.66012975 Z" id="path3302"></path>
                    <path d="M1.86359653,0.400248026 C2.16308421,0.970933258 3.3803567,2.28641108 4.0566192,2.7893879 C4.24017616,2.92480473 4.56864652,3.06022157 4.77152527,3.08923946 L5.14830009,3.14727525 L4.8681342,2.83775105 C4.41407223,2.34444687 3.71848795,1.39652902 3.49628742,0.980605889 C3.2547651,0.525992229 3.22578242,0.642063802 3.42866117,1.22242167 C3.50594831,1.45456481 3.81509688,1.9188511 4.11458456,2.24772056 C4.41407223,2.58626265 4.60729009,2.86676895 4.55898563,2.86676895 C4.43339402,2.86676895 3.62187902,1.90917847 3.04222546,1.0773322 C2.41426742,0.16810488 2.38528474,0.139086987 2.55918081,0.642063802 C2.64612885,0.883879579 2.83934671,1.24176693 3.00358188,1.43521955 C3.15815617,1.6383448 3.2547651,1.80277953 3.20646063,1.80277953 C3.1098517,1.80277953 2.68477242,1.31914798 2.15342332,0.62271854 C2.00850992,0.419593288 1.80563118,0.158432249 1.71868314,0.0423606764 C1.62207421,-0.0833835274 1.68970046,0.0810512006 1.86359653,0.400248026 L1.86359653,0.400248026 Z" id="path2215"></path>
                    <path d="M2.42941377,4.14354367 C2.01399538,4.24026998 1.79179484,4.38535945 1.79179484,4.55946681 C1.79179484,4.62717522 1.83043842,4.61750259 1.87874288,4.54012154 C1.95603002,4.41437734 2.74822323,4.1822342 2.82551038,4.25961524 C2.84483216,4.27896051 2.81584948,4.42404997 2.75788413,4.56913944 C2.69991877,4.7142289 2.68059698,4.85931837 2.70957966,4.88833626 C2.73856234,4.92702679 2.7868668,4.84964574 2.81584948,4.7432468 C2.9317802,4.32732366 3.28923323,4.20157946 4.14905269,4.27896051 C4.58379287,4.31765103 5.06683751,4.36601419 5.22141179,4.37568682 C5.38564697,4.38535945 5.6078475,4.44339523 5.72377822,4.51110365 C5.97496143,4.64652049 6.95071161,4.65619312 6.86376357,4.52077628 C6.83478089,4.47241313 6.65122393,4.40470471 6.44834518,4.37568682 C6.25512732,4.34666892 5.84936982,4.24994261 5.54988215,4.17256156 C4.95090679,4.01779947 3.03805002,3.99845421 2.42941377,4.14354367 L2.42941377,4.14354367 Z" id="path2247"></path>
                    <path d="M5.95727234,5.26005547 C5.22915355,5.13002291 4.88287141,5.24618782 4.58835281,5.70065978 L4.33705077,6.09097946 L4.66024724,5.7842139 C5.09931067,5.35735392 5.4183916,5.3161577 6.20760008,5.54578209 C6.57678095,5.65509201 6.88989387,5.7265389 6.90069813,5.71050071 C6.9601218,5.62229212 6.33744441,5.3184535 5.95727234,5.26005547 Z" id="path3298"></path>
                    <path d="M6.15575635,5.46316332 C5.47949385,5.76301488 5.25729331,6.05319381 5.26695421,6.59486115 L5.2766151,7.05914744 L5.37322403,6.62387904 C5.49881563,6.02417592 5.74033795,5.81137803 6.52287027,5.55988963 C6.8899842,5.44381805 7.18947188,5.32774648 7.18947188,5.30840122 C7.18947188,5.20200228 6.50354849,5.29872859 6.15575635,5.46316332 Z" id="path2257"></path>
                    <path d="M6.02740269,6.29359448 C5.91147198,6.44835658 5.82452394,6.65148183 5.82452394,6.75788077 C5.82452394,6.88362498 5.8728284,6.85460708 6.0080809,6.63213657 C6.11435072,6.45802921 6.29790769,6.25490396 6.4138384,6.16785028 C6.63603894,6.01308818 6.63603894,6.01308818 6.43316019,6.01308818 C6.31722947,6.01308818 6.1433334,6.12915975 6.02740269,6.29359448 L6.02740269,6.29359448 Z" id="path2263"></path>
                    <path d="M16.4724083,7.8698919 C16.786126,8.00600178 18.4137271,8.41696769 19.565333,8.75462425 C20.716939,9.09228032 22.0633911,9.48100837 22.3614229,9.52288845 C22.7874166,8.59325816 22.0121623,10.3320727 22.4546008,9.27822263 C21.8794511,9.1316431 19.6124202,8.59759489 18.7026385,8.33584575 C17.9183435,8.11597621 16.8057227,7.77300502 16.5207626,7.71018515 C16.2358024,7.64736528 16.2318912,7.76519244 16.4724083,7.8698919 Z" id="path2267"></path>
                    <path d="M16.6714193,7.62856314 C16.9896907,7.75362881 18.6306247,8.10747252 19.7932997,8.40468393 C20.9559731,8.70189487 22.315155,9.04333874 22.6144649,9.07477963 C23.0077956,8.13083095 22.2936233,9.89567503 22.6990581,8.82700697 C22.119149,8.70061324 19.8348835,8.24610502 18.9165326,8.01630458 C18.1250514,7.82397399 17.0011538,7.52008894 16.7141775,7.46726428 C16.4272012,7.41443962 16.4273992,7.53233159 16.6714193,7.62856314 L16.6714193,7.62856314 Z" id="path2162"></path>
                    <path d="M16.2208102,8.04525767 C16.5269827,8.19761999 18.1308711,8.69330799 19.263249,9.09084539 C20.3956264,9.48838182 21.7199136,9.94713101 22.015348,10.0045705 C22.4893515,9.0985361 21.6242673,10.7943442 22.1211874,9.76512208 C21.5544877,9.58860624 19.3184798,8.93649873 18.4236276,8.62743592 C17.6519005,8.36677061 16.5587318,7.96596869 16.2774462,7.88830375 C15.9961601,7.81063785 15.9860959,7.92809889 16.2208102,8.04525767 Z" id="path2183"></path>
                    <path d="M16.0254413,8.24332752 C16.3232301,8.41152442 17.8990097,8.99057599 19.0090554,9.44690461 C20.1191007,9.90323178 21.4175928,10.4307447 21.7096199,10.5035859 C22.2303343,9.62363083 21.277792,11.2717853 21.827831,10.2700117 C21.2711347,10.0640427 19.0722783,9.29566335 18.1948079,8.94013419 C17.4377639,8.63938839 16.3670447,8.18185408 16.0902041,8.0895559 C15.8133635,7.99725772 15.7971728,8.11403008 16.0254413,8.24332752 L16.0254413,8.24332752 Z" id="path2185"></path>
                    <path d="M15.8414467,8.49283739 C16.1331907,8.67133709 17.6878269,9.30509658 18.7812902,9.79993485 C19.8747531,10.2947712 21.1540659,10.8673339 21.4433768,10.9503347 C21.9944467,10.0891112 20.9850341,11.7029771 21.5696572,10.7210339 C21.0204794,10.495738 18.8497459,9.65099471 17.9852032,9.26502142 C17.2391031,8.93800573 16.1849847,8.44333722 15.9115297,8.34142202 C15.6380748,8.23950683 15.6178241,8.35564224 15.8414467,8.49283739 L15.8414467,8.49283739 Z" id="path2187"></path>
                </g>
                <g id="sun" transform="translate(9.075037, 9.291402)" fill="#FCDD09">
                    <path d="M7.42019843,11.4636243 C7.86876836,11.7764738 8.11544223,12.2113156 8.09101244,12.6600646 L8.07444161,13.0306775 L8.22169049,12.6660422 C8.38276871,12.28445 8.36059304,11.7066331 8.1703331,11.2786838 L8.05933291,11.0291484 L8.41182858,11.1827978 C8.91553308,11.3954915 9.24719337,11.7693982 9.31646188,12.2135725 L9.37720128,12.5795496 L9.44549504,12.1921018 C9.52378002,11.7852572 9.3821969,11.2248852 9.10713331,10.8459159 L8.94672523,10.6248047 L9.32346793,10.7017209 C9.86031409,10.8049264 10.2623395,11.1016729 10.422382,11.5217537 L10.557812,11.8671141 L10.5441045,11.4738717 C10.5362456,11.0596465 10.2812863,10.5409349 9.93360346,10.2274755 L9.73079356,10.0446089 L10.1152734,10.0414981 C10.6618062,10.0307018 11.116712,10.2372349 11.3604616,10.6149233 L11.5645509,10.924418 L11.4695732,10.5427038 C11.3758749,10.139336 11.0188101,9.68497534 10.6136167,9.45074996 L10.3772387,9.31405749 L10.752702,9.23104168 C11.28504,9.10654845 11.7729047,9.21402374 12.0897,9.53260685 L12.3536148,9.7928776 L12.1813878,9.43928268 C12.0059929,9.0641561 11.5623577,8.69397021 11.1173821,8.54922625 L10.8577928,8.46492951 L11.2077906,8.30548546 C11.7026005,8.07296798 12.2021014,8.07650576 12.5781739,8.32207643 L12.890461,8.52183896 L12.6486,8.21173432 C12.3990627,7.88125695 11.8882913,7.61165378 11.4229677,7.56273484 L11.1516204,7.53424961 L11.4608613,7.3053919 C11.8965767,6.97503653 12.3859036,6.87433181 12.8047435,7.0363987 L13.1516952,7.16668656 L12.8507397,6.91379635 C12.5380262,6.64254629 11.982416,6.48505412 11.5170925,6.53409506 L11.2457452,6.56258028 L11.5006435,6.27437327 C11.8582566,5.86051411 12.3160258,5.66026361 12.7593565,5.73162916 L13.1257424,5.78676971 L12.7787906,5.60213424 C12.4166083,5.40188374 11.8404674,5.36351714 11.3954918,5.5082611 L11.1359025,5.59261884 L11.3253704,5.25774974 C11.5892243,4.77844167 11.9953924,4.48730684 12.4438405,4.46467726 L12.813699,4.44247464 L12.4359816,4.33408441 C12.0401093,4.21361693 11.4685984,4.29608378 11.0634051,4.53018717 L10.8270271,4.66681864 L10.942901,4.29974355 C11.1014815,3.77603025 11.4382592,3.40675931 11.8722687,3.29129351 L12.2294554,3.19254068 L11.8374822,3.16515339 C11.4252219,3.12965361 10.8833192,3.32917215 10.5356363,3.64263158 L10.3328264,3.82549816 L10.369928,3.44238108 C10.4162289,2.89695313 10.668995,2.46571006 11.0695582,2.26234875 L11.3984161,2.09149842 L11.0093062,2.14621201 C10.5986908,2.19732681 10.110095,2.50535758 9.83509231,2.88432692 L9.67468424,3.10543812 L9.6314295,2.722931 C9.56350128,2.1799429 9.72110693,1.70527053 10.0706783,1.42316315 L10.3568298,1.18753486 L9.9875805,1.32203146 C9.59658202,1.457504 9.1826768,1.86050584 8.99235594,2.28845512 L8.88135574,2.53817353 L8.75957233,2.17298933 C8.5803393,1.65598561 8.63602217,1.15892764 8.91937118,0.810212416 L9.15038805,0.520176744 L8.81714378,0.728538515 C8.46282044,0.94245216 8.14157784,1.42279717 8.04428513,1.88100056 L7.98756659,2.14834687 L7.79261565,1.81658858 C7.50993678,1.34801584 7.46119905,0.850408906 7.66589754,0.450211672 L7.83160584,0.118455824 L7.54892697,0.391594332 C7.24675301,0.674678878 7.03230697,1.21150636 7.03230697,1.67989612 L7.03230697,1.95309806 L6.77271761,1.66916079 C6.39902102,1.26987972 6.24799496,0.793072486 6.36508737,0.359085801 L6.45817644,0 L6.23843018,0.326208854 C6.0016257,0.66583443 5.90335825,1.23553886 6.00065095,1.69386425 L6.05730857,1.96108856 L5.74447323,1.73735453 C5.29590329,1.42450506 5.04922943,0.989663212 5.07365922,0.540730631 L5.09016912,0.170118379 L4.94292024,0.534937822 C4.78190295,0.916528778 4.80407861,1.49416271 4.99427763,1.922112 L5.10527782,2.17183041 L4.75278215,2.01812 C4.24907765,1.80548728 3.91741736,1.43151963 3.84814885,0.987406353 L3.78740945,0.621429202 L3.71917662,1.00881602 C3.64089163,1.41553862 3.78241383,1.97609363 4.05753835,2.35506297 L4.2178855,2.57605217 L3.84120372,2.49907498 C3.30435756,2.39593041 2.90233217,2.09924494 2.74228963,1.67910317 L2.60685964,1.33380373 L2.62056713,1.72698518 C2.62842609,2.14121032 2.88338537,2.65992193 3.23106819,2.97332037 L3.4338781,3.15618695 L3.04939828,3.15929776 C2.5028655,3.17015508 2.04795966,2.96356098 1.80421006,2.58605554 L1.60005987,2.27643887 L1.69509845,2.65809205 C1.78879675,3.06164285 2.14586158,3.51600349 2.55105493,3.75022886 L2.78737203,3.88686033 L2.41196962,3.96987615 C1.8796317,4.09424738 1.39176697,3.98695508 1.07497168,3.66837197 L0.810995923,3.40804023 L0.983222897,3.76163515 C1.15867875,4.13682273 1.60231399,4.50682563 2.04728951,4.65156959 L2.30687888,4.73604931 L1.95688101,4.89543236 C1.46201023,5.12801084 0.962509359,5.12441207 0.586436806,4.8787804 L0.274149764,4.67907887 L0.516010777,4.98906152 C0.765547985,5.31953888 1.27631946,5.58914205 1.74164299,5.63812199 L2.01305125,5.66672921 L1.70381032,5.89546493 C1.26803404,6.2259423 0.778707173,6.32646402 0.359867256,6.16445813 L0.0129155,6.03423126 L0.313871018,6.28706048 C0.626584515,6.55843254 1.1821947,6.71580271 1.64751824,6.66682277 L1.9189265,6.63833755 L1.66396722,6.92642256 C1.30635409,7.34040372 0.848584902,7.54053222 0.405254273,7.46928867 L0.0388683443,7.41402612 L0.385820101,7.59878358 C0.748063322,7.79909508 1.32420428,7.83740069 1.76917981,7.69265672 L2.02876917,7.60823799 L1.8392403,7.94322908 C1.57538639,8.42247616 1.16921828,8.71367198 0.72077019,8.73617957 L0.350911698,8.75832119 L0.72862915,8.86683342 C1.12450141,8.9873009 1.69601228,8.90483404 2.10120563,8.67066966 L2.33758365,8.5339772 L2.22177061,8.90105228 C2.0631902,9.42488758 1.72641245,9.79421952 1.29240291,9.90962431 L0.935216227,10.0083771 L1.32718947,10.0358254 C1.73944979,10.0712032 2.28135249,9.87162368 2.62903531,9.55816425 L2.83184521,9.37529767 L2.79474361,9.75859774 C2.74844276,10.3038427 2.49567668,10.7352078 2.09511342,10.9384471 L1.76625554,11.1094194 L2.15536544,11.0547668 C2.56598087,11.003652 3.05457667,10.6954383 3.32957934,10.3164689 L3.48998741,10.0954797 L3.53330308,10.4780478 C3.6012313,11.0210359 3.44356472,11.4955253 3.09399331,11.7777547 L2.80778096,12.013383 L3.17703023,11.8788864 C3.56802871,11.7434748 3.98199486,11.34029 4.17231571,10.9124017 L4.28325499,10.6628053 L4.4050384,11.0278065 C4.58427143,11.5449932 4.52858856,12.0418682 4.24523955,12.3907054 L4.01422268,12.6808033 L4.34746695,12.4723183 C4.70179029,12.2584657 5.02303289,11.7779987 5.1203256,11.3197953 L5.17704414,11.052571 L5.37199508,11.3843902 C5.65467395,11.852841 5.70341168,12.3505699 5.49871319,12.7507049 L5.33300489,13.0825242 L5.61568376,12.8092003 C5.91785772,12.5262999 6.13230376,11.9894725 6.13230376,11.5210217 L6.13230376,11.2477588 L6.39189312,11.531757 C6.76558971,11.9310991 6.91661577,12.4078453 6.79958428,12.8418332 L6.70637336,13.2009178 L6.92611963,12.8747102 C7.1629241,12.5349614 7.26119156,11.965379 7.16395978,11.5071146 L7.10724124,11.2398903 L7.42019843,11.4636243 Z"></path>
                </g>
            </g>
        </g>
    </g>
</svg>