<?xml version="1.0" encoding="UTF-8"?>
<svg width="32px" height="24px" viewBox="0 0 32 24" version="1.1" xmlns="http://www.w3.org/2000/svg" xmlns:xlink="http://www.w3.org/1999/xlink">
    <title>flags/L/GT - Guatemala</title>
    <defs>
        <rect id="path-1" x="0" y="0" width="32" height="24"></rect>
    </defs>
    <g id="Symbols" stroke="none" stroke-width="1" fill="none" fill-rule="evenodd">
        <g id="flag">
            <mask id="mask-2" fill="white">
                <use xlink:href="#path-1"></use>
            </mask>
            <g id="mask"></g>
            <g id="contents" mask="url(#mask-2)">
                <polygon id="bottom" fill="#58A5FF" points="22 0 32 0 32 24 22 24"></polygon>
                <polygon id="left" fill="#58A5FF" points="0 0 12 0 12 24 0 24"></polygon>
                <polygon id="middle" fill="#FFFFFF" points="10 0 22 0 22 24 10 24"></polygon>
                <g id="mark" transform="translate(10.600000, 7.300000)">
                    <polygon id="Path-431" fill="#6C301F" points="1.16844447 8.41844438 1.69016894 9.10150478 4.0595533 5.88959849 4.0595533 5.32095238"></polygon>
                    <path d="M2.80428571,4.83565569 L2.97750811,4.59705772 C5.22127769,6.2841534 6.81096192,7.57930684 7.69982735,8.6584961 L7.14480337,9.11563707 C6.29995137,8.08988538 5.00635964,6.49140031 2.80428571,4.83565569 Z" id="Path-432" fill="#979797" fill-rule="nonzero"></path>
                    <polygon id="Path-433" fill="#979797" fill-rule="nonzero" points="6.42098422 3.42558202 6.16286232 3.17532125 7.57761962 1.71612394 7.88756712 2.01724781 9.35636583 0.649556705 9.60137014 0.912673142 7.8823098 2.51339863 7.58522456 2.22477085"></polygon>
                    <path d="M4.54646549,9.10794199 C4.54512341,9.10760943 4.54390004,9.10730622 4.54274684,9.10702034 C4.54398442,9.10732714 4.54522397,9.10763435 4.54646549,9.10794199 Z M1.74511859,0.411590025 C1.80850377,0.713335162 1.86199144,0.95850915 1.9055816,1.14711199 C1.97813225,1.05211459 2.05624318,0.95294488 2.13859414,0.849849536 L2.36332007,1.02935712 C2.1642007,1.27863508 1.9906302,1.50415634 1.84272535,1.70563452 C1.98675293,1.66596805 2.15356421,1.62010369 2.34409058,1.56668771 C2.10177072,1.91998809 1.81695273,2.08856491 1.51096824,2.18589268 C1.41683921,2.32906538 1.34570853,2.45217304 1.29560822,2.55532215 C1.25341763,2.64218632 1.21436861,2.72872835 1.17841898,2.81492742 C1.34005695,2.72383256 1.55137342,2.60091876 1.81170382,2.44658318 C1.63934278,2.93479791 1.33720087,3.17847971 0.993484816,3.36134692 L0.993484816,3.36134692 C0.963246129,3.46093325 0.939442008,3.56459753 0.920124123,3.66763601 C1.08215985,3.57624173 1.29250269,3.45387692 1.55127423,3.3004655 C1.4010513,3.72597376 1.15224472,3.96573083 0.863251833,4.14136761 C0.856566767,4.24570424 0.855417693,4.34948015 0.858853505,4.45247859 C1.00823167,4.33179076 1.21162592,4.16044424 1.46870645,3.93962148 C1.38374156,4.45034932 1.12850477,4.74279544 0.82176509,4.98257015 L0.905412034,4.91319901 C0.926487569,5.03733791 0.954350275,5.16019278 0.988835959,5.2816825 L1.02205672,5.395642 C1.1186498,5.23286538 1.2444841,5.01352441 1.39955963,4.73761909 C1.49439795,5.24660598 1.35457629,5.60871156 1.14834306,5.93893724 L1.17947629,5.88608882 C1.20563435,5.9610558 1.23238836,6.03487544 1.25971168,6.10751072 C1.31131756,5.96566445 1.37149473,5.79704121 1.43970966,5.60267014 C1.58766425,5.99724281 1.56563325,6.32298569 1.47372146,6.62521028 C1.57244664,6.84595835 1.67728669,7.05234138 1.78667908,7.24337693 C1.78857939,7.06418395 1.78766688,6.83347274 1.78442571,6.55269641 C2.12105155,6.94607282 2.18101523,7.32957629 2.16752485,7.71867673 L2.16752485,7.71867673 L2.04538329,7.6543857 C2.2204757,7.90654452 2.40428193,8.12125746 2.59345239,8.29387369 C2.59401628,8.11780838 2.59301697,7.89982991 2.58999995,7.63847176 C2.85182005,7.94443119 2.94627662,8.2444181 2.9689806,8.5457112 L2.97034055,8.57710461 C3.01653726,8.60452515 3.06291261,8.62940595 3.10942189,8.65168495 C3.24616903,8.71718991 3.40445095,8.7793299 3.58817375,8.84068591 C3.6271624,8.64861482 3.67795254,8.36041636 3.74099528,7.97705809 C3.94936404,8.33002632 3.98804737,8.64679124 3.95500561,8.95241997 C3.99198394,8.9635597 4.03355807,8.97511645 4.0761401,8.98671791 C4.1685926,9.01190656 4.26239014,9.03646178 4.36982649,9.06371073 L4.53788157,9.10559002 L4.52771879,9.10327971 C4.52759615,9.10323038 4.54604611,9.10776992 4.57575171,9.11509828 L4.69131838,9.14364978 C4.80356804,9.17141468 4.94043422,9.20535942 4.98758902,9.21735827 C5.31912054,9.30171858 5.50426109,9.35981248 5.61838423,9.42411161 C5.66680052,9.45139026 5.7042881,9.48094587 5.73126363,9.51807918 L5.49856481,9.68712348 C5.50010632,9.68924546 5.49279399,9.68348034 5.47720088,9.67469488 C5.39404782,9.62784488 5.22083332,9.57349317 4.91666268,9.49609501 C4.85014467,9.47916907 4.60095605,9.41755299 4.50089462,9.39287394 L4.45938736,9.38267012 L4.45938736,9.38267012 L4.46788157,9.38459002 L4.34479196,9.35404384 C4.21634399,9.32170458 4.10773274,9.29342811 4.00053422,9.2642219 L3.96858744,9.25570193 C3.6773155,9.36451115 3.35779864,9.4059111 2.96031088,9.28775658 C3.13500905,9.21238 3.28827289,9.14537623 3.4201024,9.08674528 C3.25624125,9.03012818 3.1130821,8.97235354 2.98516629,8.91107898 L2.9509454,8.8936031 C2.65381099,9.00852443 2.32830791,9.05504472 1.92088912,8.93393817 C2.18730989,8.81898626 2.40388017,8.72350728 2.57059998,8.64750121 C2.30873929,8.4458571 2.05951721,8.17416783 1.82680042,7.8434595 L1.89275636,7.86021551 C1.51501056,7.76593268 1.1628916,7.60258401 0.877540578,7.17056925 C1.13707058,7.2482413 1.35240323,7.31098511 1.52353853,7.35880069 C1.44100997,7.21698028 1.3632123,7.06747514 1.28834835,6.91089233 L1.32394319,6.92104745 C0.946197389,6.82676462 0.594078426,6.66341595 0.308727407,6.23140119 C0.641649658,6.33103804 0.901843048,6.40610978 1.08930758,6.45661639 C1.0190886,6.28895851 0.95388685,6.11515939 0.892104484,5.93534555 C0.603236813,5.78100307 0.350052965,5.56040713 0.176581539,5.1604053 C0.397169019,5.27116296 0.583774095,5.36334427 0.736396767,5.43694922 L0.712148006,5.36022226 L0.712148006,5.36022226 C0.671724287,5.21781341 0.639723074,5.07369098 0.616347346,4.92800987 C0.380636384,4.67760429 0.202431405,4.37623922 0.17488157,3.91862741 C0.328242631,4.08115055 0.460639405,4.21984153 0.572071892,4.33470037 C0.569394763,4.26428958 0.571361983,4.19483671 0.575251519,4.12511038 C0.386426759,3.88497961 0.313763324,3.59807455 0.287619048,3.16380952 C0.426558063,3.31104901 0.54829035,3.43872794 0.652815907,3.54684629 C0.679384976,3.40721095 0.715529378,3.2669488 0.759420532,3.12591241 L0.822652692,3.19486753 C0.542656648,2.9243433 0.390035585,2.52648401 0.358921735,2.00967274 C0.61304028,2.28499421 0.809129483,2.49111239 0.947189345,2.62802728 L1.03689187,2.42966163 L1.03689187,2.42966163 L1.04088157,2.42259002 L1.00565916,2.379209 C0.822089045,2.08764747 0.923423927,1.59264415 0.895421462,1.12751401 C1.07597364,1.4850245 1.22851349,1.74337233 1.35304101,1.90255748 C1.41798709,1.80396543 1.49168111,1.69905739 1.57317581,1.58698489 L1.58830088,1.65522117 C1.48894635,1.28688613 1.54359912,0.871292413 1.74511859,0.411590025 Z" id="Combined-Shape" fill="#5AB92D" fill-rule="nonzero"></path>
                    <path d="M9.57979882,9.10794199 C9.57845674,9.10760943 9.57723337,9.10730622 9.57608018,9.10702034 C9.57731776,9.10732714 9.5785573,9.10763435 9.57979882,9.10794199 Z M6.77845192,0.411590025 C6.8418371,0.713335162 6.89532477,0.95850915 6.93891493,1.14711199 C7.01146558,1.05211459 7.08957651,0.95294488 7.17192747,0.849849536 L7.3966534,1.02935712 C7.19753403,1.27863508 7.02396353,1.50415634 6.87605868,1.70563452 C7.02008626,1.66596805 7.18689754,1.62010369 7.37742391,1.56668771 C7.13510405,1.91998809 6.85028606,2.08856491 6.54430157,2.18589268 C6.45017254,2.32906538 6.37904187,2.45217304 6.32894156,2.55532215 C6.28675096,2.64218632 6.24770194,2.72872835 6.21175231,2.81492742 C6.37339028,2.72383256 6.58470675,2.60091876 6.84503716,2.44658318 C6.67267611,2.93479791 6.37053421,3.17847971 6.02681815,3.36134692 L6.02681815,3.36134692 C5.99657946,3.46093325 5.97277534,3.56459753 5.95345746,3.66763601 C6.11549318,3.57624173 6.32583602,3.45387692 6.58460756,3.3004655 C6.43438463,3.72597376 6.18557806,3.96573083 5.89658517,4.14136761 C5.8899001,4.24570424 5.88875103,4.34948015 5.89218684,4.45247859 C6.04156501,4.33179076 6.24495925,4.16044424 6.50203979,3.93962148 C6.41707489,4.45034932 6.1618381,4.74279544 5.85509842,4.98257015 L5.93874537,4.91319901 C5.9598209,5.03733791 5.98768361,5.16019278 6.02216929,5.2816825 L6.05539006,5.395642 C6.15198313,5.23286538 6.27781743,5.01352441 6.43289296,4.73761909 C6.52773129,5.24660598 6.38790962,5.60871156 6.18167639,5.93893724 L6.21280963,5.88608882 C6.23896768,5.9610558 6.2657217,6.03487544 6.29304501,6.10751072 C6.3446509,5.96566445 6.40482806,5.79704121 6.47304299,5.60267014 C6.62099758,5.99724281 6.59896658,6.32298569 6.50705479,6.62521028 C6.60577998,6.84595835 6.71062002,7.05234138 6.82001241,7.24337693 C6.82191272,7.06418395 6.82100022,6.83347274 6.81775904,6.55269641 C7.15438489,6.94607282 7.21434856,7.32957629 7.20085818,7.71867673 L7.20085818,7.71867673 L7.07871663,7.6543857 C7.25380903,7.90654452 7.43761527,8.12125746 7.62678572,8.29387369 C7.62734961,8.11780838 7.6263503,7.89982991 7.62333328,7.63847176 C7.88515338,7.94443119 7.97960995,8.2444181 8.00231393,8.5457112 L8.00367388,8.57710461 C8.0498706,8.60452515 8.09624595,8.62940595 8.14275523,8.65168495 C8.27950236,8.71718991 8.43778428,8.7793299 8.62150708,8.84068591 C8.66049573,8.64861482 8.71128587,8.36041636 8.77432862,7.97705809 C8.98269738,8.33002632 9.0213807,8.64679124 8.98833894,8.95241997 C9.02531727,8.9635597 9.0668914,8.97511645 9.10947343,8.98671791 C9.20192593,9.01190656 9.29572347,9.03646178 9.40315982,9.06371073 L9.5712149,9.10559002 L9.56105213,9.10327971 C9.56092948,9.10323038 9.57937945,9.10776992 9.60908504,9.11509828 L9.72465172,9.14364978 C9.83690137,9.17141468 9.97376755,9.20535942 10.0209224,9.21735827 C10.3524539,9.30171858 10.5375944,9.35981248 10.6517176,9.42411161 C10.7001339,9.45139026 10.7376214,9.48094587 10.764597,9.51807918 L10.5318981,9.68712348 C10.5334397,9.68924546 10.5261273,9.68348034 10.5105342,9.67469488 C10.4273811,9.62784488 10.2541666,9.57349317 9.94999601,9.49609501 C9.88347801,9.47916907 9.63428938,9.41755299 9.53422796,9.39287394 L9.49272069,9.38267012 L9.49272069,9.38267012 L9.5012149,9.38459002 L9.3781253,9.35404384 C9.24967733,9.32170458 9.14106607,9.29342811 9.03386755,9.2642219 L9.00192078,9.25570193 C8.71064883,9.36451115 8.39113198,9.4059111 7.99364422,9.28775658 C8.16834239,9.21238 8.32160623,9.14537623 8.45343574,9.08674528 C8.28957458,9.03012818 8.14641543,8.97235354 8.01849963,8.91107898 L7.98427873,8.8936031 C7.68714432,9.00852443 7.36164124,9.05504472 6.95422246,8.93393817 C7.22064322,8.81898626 7.4372135,8.72350728 7.60393331,8.64750121 C7.34207262,8.4458571 7.09285054,8.17416783 6.86013375,7.8434595 L6.9260897,7.86021551 C6.54834389,7.76593268 6.19622493,7.60258401 5.91087391,7.17056925 C6.17040392,7.2482413 6.38573657,7.31098511 6.55687186,7.35880069 C6.4743433,7.21698028 6.39654563,7.06747514 6.32168168,6.91089233 L6.35727653,6.92104745 C5.97953072,6.82676462 5.62741176,6.66341595 5.34206074,6.23140119 C5.67498299,6.33103804 5.93517638,6.40610978 6.12264091,6.45661639 C6.05242193,6.28895851 5.98722018,6.11515939 5.92543782,5.93534555 C5.63657015,5.78100307 5.3833863,5.56040713 5.20991487,5.1604053 C5.43050235,5.27116296 5.61710743,5.36334427 5.7697301,5.43694922 L5.74548134,5.36022226 L5.74548134,5.36022226 C5.70505762,5.21781341 5.67305641,5.07369098 5.64968068,4.92800987 C5.41396972,4.67760429 5.23576474,4.37623922 5.2082149,3.91862741 C5.36157596,4.08115055 5.49397274,4.21984153 5.60540523,4.33470037 C5.6027281,4.26428958 5.60469532,4.19483671 5.60858485,4.12511038 C5.41976009,3.88497961 5.34709666,3.59807455 5.32095238,3.16380952 C5.4598914,3.31104901 5.58162368,3.43872794 5.68614924,3.54684629 C5.71271831,3.40721095 5.74886271,3.2669488 5.79275387,3.12591241 L5.85598603,3.19486753 C5.57598998,2.9243433 5.42336892,2.52648401 5.39225507,2.00967274 C5.64637361,2.28499421 5.84246282,2.49111239 5.98052268,2.62802728 L6.0702252,2.42966163 L6.0702252,2.42966163 L6.0742149,2.42259002 L6.03899249,2.379209 C5.85542238,2.08764747 5.95675726,1.59264415 5.9287548,1.12751401 C6.10930698,1.4850245 6.26184683,1.74337233 6.38637435,1.90255748 C6.45132042,1.80396543 6.52501444,1.69905739 6.60650914,1.58698489 L6.62163421,1.65522117 C6.52227968,1.28688613 6.57693245,0.871292413 6.77845192,0.411590025 Z" id="Combined-Shape" fill="#5AB92D" fill-rule="nonzero" transform="translate(7.986406, 5.049577) scale(-1, 1) translate(-7.986406, -5.049577) "></path>
                    <g id="Group" transform="translate(2.157143, 0.719048)">
                        <path d="M0.660191337,1.3039194 L1.86734344,4.50313711 L0.979993223,4.50313711 C0.766791966,5.17621538 0.861383353,5.51275452 1.26376739,5.51275452 C1.66615142,5.51275452 2.90415588,5.51275452 4.97778077,5.51275452 C5.24736591,5.34398593 5.31476219,5.00744679 5.17996962,4.50313711 C5.04517705,3.99882742 4.63724692,3.05058947 3.95617923,1.65842326 C4.24720344,1.42737697 4.39271555,1.22622198 4.39271555,1.05495829 C4.39271555,0.883694598 4.24720344,0.788631274 3.95617923,0.769768315 L1.20065626,0.769768315 C0.966178593,0.807767999 0.78602362,0.985818362 0.660191337,1.3039194 Z" id="Path-74" fill="#EFE298"></path>
                        <line x1="1.68682284" y1="2.48169719" x2="3.56173931" y2="2.36525553" id="Path-5" stroke="#B47D00" stroke-width="0.5" fill="#C5A042" fill-rule="nonzero"></line>
                        <line x1="2.14304373" y1="3.50204779" x2="4.0179602" y2="3.38560613" id="Path-5" stroke="#B47D00" stroke-width="0.5" fill="#C5A042" fill-rule="nonzero"></line>
                        <line x1="2.49941831" y1="4.52239839" x2="4.37433478" y2="4.40595673" id="Path-5" stroke="#B47D00" stroke-width="0.5" fill="#C5A042" fill-rule="nonzero"></line>
                    </g>
                    <path d="M5.28041955,0.287619048 C5.08791973,0.326722477 4.99166983,0.407078043 4.99166983,0.528685745 C4.99166983,0.711097299 4.9136306,0.86662715 4.9136306,0.86662715 C4.9136306,0.86662715 5.00177333,1.69858842 5.66010074,1.89165207 C6.31842815,2.08471573 6.7043726,2.13107295 6.98151015,2.5183432 C7.2586477,2.90561344 8.10885012,3.99893983 7.76789139,4.9418567 C7.54058556,5.57046794 7.33769271,6.04516468 7.15921283,6.3659469 C7.98830916,5.58500601 8.40285732,5.00941145 8.40285732,4.63916324 C8.40285732,4.08379092 8.21907425,3.54565398 7.6681365,2.84046646 C7.11719874,2.13527893 6.86086251,1.72304711 6.45040925,1.4053127 C6.17677374,1.19348976 5.84392365,0.989850193 5.45185898,0.794394003 C5.59138781,0.645173123 5.62627002,0.535482366 5.5565056,0.465321732 C5.48674119,0.395161097 5.3947125,0.335926869 5.28041955,0.287619048 Z" id="Path-430" fill="#5AB92D"></path>
                </g>
            </g>
        </g>
    </g>
</svg>