<?xml version="1.0" encoding="UTF-8"?>
<svg width="32px" height="24px" viewBox="0 0 32 24" version="1.1" xmlns="http://www.w3.org/2000/svg" xmlns:xlink="http://www.w3.org/1999/xlink">
    <title>flags/L/GU - Guam</title>
    <defs>
        <rect id="path-1" x="0" y="0" width="32" height="24"></rect>
        <polygon id="path-3" points="4 4 28 4 28 20 4 20"></polygon>
        <path d="M4,0.0367877823 C6.66666667,1.47018526 8,3.38047041 8,5.76764323 C8,8.15481605 6.66666667,10.2048467 4,11.9177353 C1.33333333,10.1377305 0,8.08769986 0,5.76764323 C0,3.44758661 1.33333333,1.53730146 4,0.0367877823 Z" id="path-5"></path>
    </defs>
    <g id="Symbols" stroke="none" stroke-width="1" fill="none" fill-rule="evenodd">
        <g id="flag">
            <mask id="mask-2" fill="white">
                <use xlink:href="#path-1"></use>
            </mask>
            <g id="mask"></g>
            <g id="contents" mask="url(#mask-2)">
                <path d="M0,0 L32,0 L32,22 C32,23.1045695 31.1045695,24 30,24 L2,24 C0.8954305,24 1.3527075e-16,23.1045695 0,22 L0,0 L0,0 Z" id="background" fill="#C51918"></path>
                <mask id="mask-4" fill="white">
                    <use xlink:href="#path-3"></use>
                </mask>
                <path stroke-opacity="0.3" stroke="#CBDAFF" stroke-width="2" d="M27,5 L27,19 L5,19 L5,5 L27,5 Z"></path>
                <g id="mark" mask="url(#mask-4)">
                    <g transform="translate(12.400024, 6.000000)">
                        <mask id="mask-6" fill="white">
                            <use xlink:href="#path-5"></use>
                        </mask>
                        <g id="base" stroke="none" fill="none">
                            <path stroke-opacity="0.748216712" stroke="#C1C9F1" stroke-width="2.9" d="M3.98293515,-1.59309544 C4.21525083,-1.48515836 4.44978944,-1.36764119 4.68651635,-1.24039478 C6.25107214,-0.399408409 7.40843845,0.596301304 8.18901575,1.71464521 C9.02734039,2.91572454 9.45,4.26598083 9.45,5.76764323 C9.45,8.59018999 7.97930197,11.0850589 4.78364617,13.1377347 C4.51467587,13.3105033 4.24793817,13.470856 3.98302014,13.6184562 C3.72262129,13.4654478 3.45994308,13.3006014 3.19498759,13.1237432 C0.00539850309,10.9946868 -1.45,8.50275232 -1.45,5.76764323 C-1.45,4.30430684 -1.03006382,2.96996358 -0.189015747,1.76498235 C0.586078599,0.654493942 1.735663,-0.352877286 3.2889363,-1.22689272 C3.52243924,-1.3582831 3.75378298,-1.48031139 3.98293515,-1.59309544 Z" fill="#CCE0E5" fill-rule="evenodd"></path>
                            <path stroke="#C51918" stroke-width="2" d="M3.98856882,-1.09222517 C4.14909833,-1.01421764 4.31073155,-0.931497995 4.47345955,-0.844027778 C5.96625665,-0.0416134297 7.07478514,0.904506576 7.82001086,1.97220179 C8.60506234,3.09695593 9,4.36159062 9,5.76764323 C9,8.45507394 7.57193239,10.8118896 4.54044563,12.7591142 C4.35541836,12.8779634 4.17148731,12.9907458 3.98856484,13.0971266 C3.80843768,12.9870691 3.6271889,12.8711971 3.44481903,12.7494649 C0.417516209,10.7287348 -1,8.37394293 -1,5.76764323 C-1,4.39843693 -0.606940562,3.14998403 0.17998914,2.02253894 C0.921433516,0.960261302 2.02459517,0.000891580989 3.50961124,-0.834716012 C3.67031275,-0.925141565 3.82993207,-1.01099265 3.98856882,-1.09222517 Z"></path>
                        </g>
                        <rect id="Rectangle-5" stroke="none" fill="#91CBCB" fill-rule="evenodd" mask="url(#mask-6)" x="0.533333333" y="8" width="7.46666667" height="1.5"></rect>
                        <path d="M1.20172916,9.1979405 C4.73109554,9.19919836 6.65796952,9.13893176 6.98235111,9.01714068 C7.46892349,8.83445406 6.06887362,12.5247016 4.28003939,12.5247016 C3.08748324,12.5247016 2.06137983,11.4157812 1.20172916,9.1979405 Z" id="sand" stroke="none" fill="#FDF9A1" fill-rule="evenodd" mask="url(#mask-6)"></path>
                        <path d="M6.19360591,8.75512106 L5.24257736,9.48693025 C3.74370325,7.53905629 3.11495928,5.52400108 3.3833136,3.46745367 L4.57322601,3.62272271 C4.34845718,5.34525039 4.87959443,7.04748683 6.19360591,8.75512106 Z" id="Path-72" stroke="none" fill="#A68861" fill-rule="nonzero" mask="url(#mask-6)"></path>
                        <path d="M3.99360697,3.63674016 L3.08629803,4.69988514 C3.06837204,4.72089002 3.03681234,4.72338597 3.01580745,4.70545998 C3.00156056,4.6933014 2.99530369,4.67420005 2.99959601,4.65596873 L3.31168183,3.33040673 L3.31168183,3.33040673 L1.89236024,3.33040673 C1.86474601,3.33040673 1.84236024,3.30802096 1.84236024,3.28040673 C1.84236024,3.26055555 1.8541039,3.2425845 1.87228467,3.23461403 L3.08509144,2.70291818 L3.08509144,2.70291818 L2.22427122,1.5680283 C2.20758316,1.54602705 2.21189034,1.51466317 2.23389158,1.49797511 C2.24774643,1.48746613 2.26606635,1.48491046 2.28226832,1.49122645 L3.6359222,2.01891926 L3.6359222,2.01891926 L3.94495696,0.775483365 C3.95161739,0.748684395 3.97874159,0.732358879 4.00554056,0.739019306 C4.02353027,0.74349034 4.03757005,0.757547175 4.04201923,0.7755423 L4.34943664,2.01891926 L4.34943664,2.01891926 L5.69135668,1.49643884 C5.71708924,1.4864198 5.74607165,1.49915812 5.7560907,1.52489068 C5.76265843,1.54175903 5.75959602,1.56085988 5.74808407,1.57482953 L4.81846151,2.70291818 L4.81846151,2.70291818 L6.10118785,3.23421239 C6.12670028,3.24477942 6.13881592,3.27402759 6.12824889,3.29954002 C6.12051006,3.31822421 6.10227801,3.33040673 6.08205455,3.33040673 L4.81846151,3.33040673 L4.81846151,3.33040673 L5.01077045,4.68655744 C5.0146475,4.71389815 4.99562644,4.73920515 4.96828573,4.7430822 C4.95134036,4.74548514 4.93434326,4.73905384 4.923233,4.72603533 L3.99360697,3.63674016 L3.99360697,3.63674016 Z" id="Star-11" stroke="none" fill="#239E46" fill-rule="evenodd" mask="url(#mask-6)"></path>
                        <polygon id="Rectangle-27" stroke="none" fill="#239E46" fill-rule="evenodd" mask="url(#mask-6)" points="3.2 7 8 7 8 8.05 3.2 8.05"></polygon>
                        <path d="M2.472,6.3926 L2.4672,6.3926 C2.45333326,6.44405026 2.41946694,6.48683733 2.3656,6.5209625 C2.31173306,6.55508767 2.24213376,6.57215 2.1568,6.57215 C2.08853299,6.57215 2.02586695,6.55981262 1.9688,6.5351375 C1.91173305,6.51046238 1.86293354,6.47423774 1.8224,6.4264625 C1.78186646,6.37868726 1.75013345,6.31936285 1.7272,6.2484875 C1.70426655,6.17761215 1.6928,6.09597546 1.6928,6.003575 C1.6928,5.91222454 1.70399989,5.83111285 1.7264,5.7602375 C1.74880011,5.68936215 1.78079979,5.63003774 1.8224,5.5822625 C1.86400021,5.53448726 1.91413304,5.49800013 1.9728,5.4728 C2.03146696,5.44759987 2.09653298,5.435 2.168,5.435 C2.26826717,5.435 2.35199966,5.45704978 2.4192,5.50115 C2.48640034,5.54525022 2.53813315,5.60352464 2.5744,5.675975 L2.464,5.742125 C2.43839987,5.68332471 2.40026692,5.63712517 2.3496,5.603525 C2.29893308,5.56992483 2.23840035,5.553125 2.168,5.553125 C2.11893309,5.553125 2.07413354,5.56178741 2.0336,5.5791125 C1.99306646,5.59643759 1.95813348,5.62084984 1.9288,5.65235 C1.89946652,5.68385016 1.87680008,5.72164978 1.8608,5.76575 C1.84479992,5.80985022 1.8368,5.85919973 1.8368,5.9138 L1.8368,6.091775 C1.8368,6.14637527 1.84479992,6.19598728 1.8608,6.2406125 C1.87680008,6.28523772 1.89946652,6.32329984 1.9288,6.3548 C1.95813348,6.38630016 1.99413312,6.41071241 2.0368,6.4280375 C2.07946688,6.44536259 2.1274664,6.454025 2.1808,6.454025 C2.21920019,6.454025 2.25573316,6.44903755 2.2904,6.4390625 C2.32506684,6.42908745 2.35546654,6.4141251 2.3816,6.394175 C2.40773346,6.3742249 2.42826659,6.34928765 2.4432,6.3193625 C2.45813341,6.28943735 2.4656,6.2540002 2.4656,6.21305 L2.4656,6.104375 L2.2192,6.104375 L2.2192,5.987825 L2.5968,5.987825 L2.5968,6.55325 L2.472,6.55325 L2.472,6.3926 Z M3.30720001,5.4539 L3.30720001,6.1343 C3.30720001,6.23930052 3.32693315,6.31883723 3.36640001,6.3729125 C3.40586688,6.42698777 3.47519952,6.454025 3.57440001,6.454025 C3.67360051,6.454025 3.74293315,6.42698777 3.78240001,6.3729125 C3.82186688,6.31883723 3.84160001,6.23930052 3.84160001,6.1343 L3.84160001,5.4539 L3.97600001,5.4539 L3.97600001,6.1028 C3.97600001,6.1826004 3.96880008,6.25189971 3.95440001,6.3107 C3.93999994,6.36950029 3.91680017,6.41832481 3.88480001,6.457175 C3.85279985,6.49602519 3.8109336,6.52489991 3.75920001,6.5438 C3.70746642,6.56270009 3.64426705,6.57215 3.56960001,6.57215 C3.49493297,6.57215 3.43226693,6.56270009 3.38160001,6.5438 C3.33093309,6.52489991 3.2901335,6.49602519 3.25920001,6.457175 C3.22826652,6.41832481 3.20613341,6.36950029 3.19280001,6.3107 C3.17946661,6.25189971 3.17280001,6.1826004 3.17280001,6.1028 L3.17280001,5.4539 L3.30720001,5.4539 Z M5.26400003,6.55325 L5.15200003,6.2288 L4.70080003,6.2288 L4.58880003,6.55325 L4.45280003,6.55325 L4.84320003,5.4539 L5.01440003,5.4539 L5.40480003,6.55325 L5.26400003,6.55325 Z M4.92960003,5.57675 L4.92160003,5.57675 L4.73280003,6.11225 L5.11840003,6.11225 L4.92960003,5.57675 Z M6.78080004,5.62715 L6.77280004,5.62715 L6.67840004,5.811425 L6.41120004,6.290225 L6.14400004,5.811425 L6.04960004,5.62715 L6.04160004,5.62715 L6.04160004,6.55325 L5.91040004,6.55325 L5.91040004,5.4539 L6.08960004,5.4539 L6.40960004,6.0461 L6.41760004,6.0461 L6.73920004,5.4539 L6.91200004,5.4539 L6.91200004,6.55325 L6.78080004,6.55325 L6.78080004,5.62715 Z" id="GUAM" stroke="none" fill="#C51918" fill-rule="evenodd" mask="url(#mask-6)"></path>
                    </g>
                </g>
            </g>
        </g>
    </g>
</svg>