<?xml version="1.0" encoding="UTF-8"?>
<svg width="32px" height="24px" viewBox="0 0 32 24" version="1.1" xmlns="http://www.w3.org/2000/svg" xmlns:xlink="http://www.w3.org/1999/xlink">
    <title>flags/L/HK - Hong Kong</title>
    <defs>
        <rect id="path-1" x="0" y="0" width="32" height="24"></rect>
        <rect id="path-3" x="0" y="0" width="32" height="24"></rect>
    </defs>
    <g id="Symbols" stroke="none" stroke-width="1" fill="none" fill-rule="evenodd">
        <g id="flag">
            <mask id="mask-2" fill="white">
                <use xlink:href="#path-1"></use>
            </mask>
            <g id="mask"></g>
            <g id="contents" mask="url(#mask-2)">
                <mask id="mask-4" fill="white">
                    <use xlink:href="#path-3"></use>
                </mask>
                <use id="background" fill="#EA1A1A" xlink:href="#path-3"></use>
                <path d="M18.238144,11.827056 C18.238144,11.827056 25.670056,14.051976 20.686024,19.703616 C20.686024,19.703616 17.926696,18.546432 18.238144,15.654 C18.549832,12.76164 19.127944,12.138456 18.238144,11.827056 Z M16.284736,13.561704 C16.284736,13.561704 17.617072,21.204024 10.333672,19.272696 C10.333672,19.272696 10.135384,16.287312 12.861856,15.272832 C15.588496,14.258112 16.40416,14.496912 16.284736,13.561704 Z M11.75812,9.522312 C13.2581856,11.9009616 13.2459762,12.7722925 14.0480724,12.5490533 L14.128,12.524 L14.1181238,12.5282626 C13.7448555,12.6715449 6.93800603,15.186192 7.324744,7.867512 C7.324744,7.867512 10.206184,7.061352 11.75812,9.522312 Z M25.47868,10.275312 C25.47868,10.275312 23.799376,12.751368 21.025432,11.874672 C18.251344,10.997976 17.754952,10.30752 17.273824,11.11848 C17.273824,11.11848 20.923192,4.273128 25.47868,10.275312 Z M16.98868,3.403128 C16.98868,3.403128 18.997888,5.619744 17.490592,8.108208 C15.982912,10.596528 15.195088,10.915776 15.869512,11.574768 C15.869512,11.574768 15.8101401,11.5218199 15.7105955,11.4235234 L15.6287047,11.3414169 C14.6072379,10.3021405 10.9543627,6.03069691 16.98868,3.403128 Z" id="Combined-shape-1061" fill="#FFFFFF" mask="url(#mask-4)"></path>
                <path d="M9.95023537,10.342153 L10.3722497,10.0740039 C11.2985897,11.5318821 12.5008489,12.2492356 14.0011413,12.2492356 L14.0011413,12.7492356 C12.3226458,12.7492356 10.9649725,11.939151 9.95023537,10.342153 Z" id="Path-76" fill="#EA1A1A" fill-rule="nonzero" mask="url(#mask-4)"></path>
                <path d="M21.75,10.75 C22.1642136,10.75 22.5,10.4142136 22.5,10 C22.5,9.58578644 22.1642136,9.25 21.75,9.25 C21.3357864,9.25 21,9.58578644 21,10 C21,10.4142136 21.3357864,10.75 21.75,10.75 Z" id="Oval" fill="#EA1A1A" mask="url(#mask-4)"></path>
                <path d="M19.9585308,15.7280766 C20.3727444,15.7280766 20.7085308,15.3922902 20.7085308,14.9780766 C20.7085308,14.563863 20.3727444,14.2280766 19.9585308,14.2280766 C19.5443173,14.2280766 19.2085308,14.563863 19.2085308,14.9780766 C19.2085308,15.3922902 19.5443173,15.7280766 19.9585308,15.7280766 Z" id="Oval" fill="#EA1A1A" mask="url(#mask-4)"></path>
                <path d="M13.9585308,17.7280766 C14.3727444,17.7280766 14.7085308,17.3922902 14.7085308,16.9780766 C14.7085308,16.563863 14.3727444,16.2280766 13.9585308,16.2280766 C13.5443173,16.2280766 13.2085308,16.563863 13.2085308,16.9780766 C13.2085308,17.3922902 13.5443173,17.7280766 13.9585308,17.7280766 Z" id="Oval" fill="#EA1A1A" mask="url(#mask-4)"></path>
                <path d="M9.95853084,10.7280766 C10.3727444,10.7280766 10.7085308,10.3922902 10.7085308,9.97807661 C10.7085308,9.56386305 10.3727444,9.22807661 9.95853084,9.22807661 C9.54431728,9.22807661 9.20853084,9.56386305 9.20853084,9.97807661 C9.20853084,10.3922902 9.54431728,10.7280766 9.95853084,10.7280766 Z" id="Oval" fill="#EA1A1A" mask="url(#mask-4)"></path>
                <path d="M15.9585308,7.72807661 C16.3727444,7.72807661 16.7085308,7.39229017 16.7085308,6.97807661 C16.7085308,6.56386305 16.3727444,6.22807661 15.9585308,6.22807661 C15.5443173,6.22807661 15.2085308,6.56386305 15.2085308,6.97807661 C15.2085308,7.39229017 15.5443173,7.72807661 15.9585308,7.72807661 Z" id="Oval" fill="#EA1A1A" mask="url(#mask-4)"></path>
                <path d="M13.608849,8.30344464 L14.025599,8.02718488 C14.9909229,9.4834184 16.2142514,10.2004013 17.7160779,10.2004013 L17.7160779,10.7004013 C16.0391165,10.7004013 14.6632091,9.89399311 13.608849,8.30344464 Z" id="Path-76" fill="#EA1A1A" fill-rule="nonzero" mask="url(#mask-4)" transform="translate(15.662463, 9.363793) rotate(62.000000) translate(-15.662463, -9.363793) "></path>
                <path d="M17.5377504,9.26571365 L17.9552722,8.99062178 C19.0436152,10.6424588 20.329847,11.4543109 21.8279412,11.4543109 L21.8279412,11.9543109 C20.1472474,11.9543109 18.712526,11.0487342 17.5377504,9.26571365 Z" id="Path-76" fill="#EA1A1A" fill-rule="nonzero" mask="url(#mask-4)" transform="translate(19.682846, 10.472466) rotate(132.000000) translate(-19.682846, -10.472466) "></path>
                <path d="M16.6692854,12.2356788 L17.0868072,11.960587 C18.1751502,13.612424 19.4613821,14.424276 20.9594762,14.424276 L20.9594762,14.924276 C19.2787825,14.924276 17.8440611,14.0186994 16.6692854,12.2356788 Z" id="Path-76" fill="#EA1A1A" fill-rule="nonzero" mask="url(#mask-4)" transform="translate(18.814381, 13.442432) rotate(202.000000) translate(-18.814381, -13.442432) "></path>
                <path d="M13.0422822,13.8416076 L13.459804,13.5665157 C14.5481469,15.2183527 15.8343788,16.0302048 17.3324729,16.0302048 L17.3324729,16.5302048 C15.6517792,16.5302048 14.2170578,15.6246281 13.0422822,13.8416076 Z" id="Path-76" fill="#EA1A1A" fill-rule="nonzero" mask="url(#mask-4)" transform="translate(15.187378, 15.048360) rotate(272.000000) translate(-15.187378, -15.048360) "></path>
            </g>
        </g>
    </g>
</svg>