<?xml version="1.0" encoding="UTF-8"?>
<svg width="32px" height="24px" viewBox="0 0 32 24" version="1.1" xmlns="http://www.w3.org/2000/svg" xmlns:xlink="http://www.w3.org/1999/xlink">
    <title>flags/L/HM - Heard and McDonald Islands</title>
    <defs>
        <rect id="path-1" x="0" y="0" width="32" height="24"></rect>
        <rect id="path-3" x="0" y="0" width="32" height="24"></rect>
        <rect id="path-5" x="0" y="0" width="18" height="14"></rect>
    </defs>
    <g id="Symbols" stroke="none" stroke-width="1" fill="none" fill-rule="evenodd">
        <g id="flag">
            <mask id="mask-2" fill="white">
                <use xlink:href="#path-1"></use>
            </mask>
            <g id="mask"></g>
            <g id="contents" mask="url(#mask-2)">
                <mask id="mask-4" fill="white">
                    <use xlink:href="#path-3"></use>
                </mask>
                <use id="background" fill="#2E42A5" xlink:href="#path-3"></use>
                <g id="gb---large" mask="url(#mask-4)">
                    <g id="flag">
                        <mask id="mask-6" fill="white">
                            <use xlink:href="#path-5"></use>
                        </mask>
                        <use id="mask" fill="#2B409A" xlink:href="#path-5"></use>
                        <g id="contents" mask="url(#mask-6)">
                            <g transform="translate(-3.000000, -2.000000)">
                                <g id="stripe">
                                    <polygon id="white" fill="#F7FCFF" fill-rule="nonzero" transform="translate(12.087462, 8.731805) scale(1, -1) translate(-12.087462, -8.731805) " points="0.995733743 2.46378897 4.95668418 0.726588534 21.0898804 13.5748663 23.1791912 16.1563978 18.9435246 16.7370214 12.3631795 11.2003309 7.066678 7.46989524"></polygon>
                                    <polygon id="red" fill="#F50100" fill-rule="nonzero" transform="translate(11.983464, 9.146214) scale(1, -1) translate(-11.983464, -9.146214) " points="1.53799381 2.07548339 3.55591517 1.0673567 22.4289341 17.2250722 19.5955377 17.2250722"></polygon>
                                </g>
                                <g id="stripe" transform="translate(12.000000, 8.500000) scale(-1, 1) translate(-12.000000, -8.500000) ">
                                    <polygon id="white" fill="#F7FCFF" fill-rule="nonzero" transform="translate(12.087462, 8.731805) scale(1, -1) translate(-12.087462, -8.731805) " points="0.995733743 2.46378897 4.95668418 0.726588534 21.0898804 13.5748663 23.1791912 16.1563978 18.9435246 16.7370214 12.3631795 11.2003309 7.066678 7.46989524"></polygon>
                                    <polygon id="red" fill="#F50100" fill-rule="nonzero" transform="translate(12.255557, 9.098760) scale(1, -1) translate(-12.255557, -9.098760) " points="1.13088612 2.32417911 3.14880748 1.31605242 11.1851345 8.23400982 13.567733 9.00693659 23.3802288 16.8814684 20.5468324 16.8814684 10.7398496 9.19384456 8.134898 8.26702255"></polygon>
                                </g>
                                <g id="cross" transform="translate(3.000000, 2.000000)">
                                    <path d="M10.7345755,-0.75 L10.7340639,5.25 L18.75,5.25 L18.75,8.75 L10.7340639,8.75 L10.7345755,14.75 L7.23457546,14.75 L7.23406394,8.75 L-0.75,8.75 L-0.75,5.25 L7.23406394,5.25 L7.23457546,-0.75 L10.7345755,-0.75 Z" id="red" stroke="#F7FCFF" stroke-width="1.5" fill="#F50100"></path>
                                </g>
                            </g>
                        </g>
                    </g>
                </g>
                <g id="stars" mask="url(#mask-4)" fill="#F7FCFF" fill-rule="nonzero">
                    <g transform="translate(6.000000, 2.000000)" id="Star">
                        <polygon points="3 18.5 1.69834878 19.7029066 1.82725278 17.9352347 0.0752162635 17.6675628 1.53760813 16.6662186 0.654505553 15.1295306 2.34917439 15.6485467 3 14 3.65082561 15.6485467 5.34549445 15.1295306 4.46239187 16.6662186 5.92478374 17.6675628 4.17274722 17.9352347 4.30165122 19.7029066"></polygon>
                        <polygon points="16 11 15.1322325 11.8019377 15.2181685 10.6234898 14.0501442 10.4450419 15.0250721 9.77747907 14.436337 8.7530204 15.5661163 9.09903113 16 8 16.4338837 9.09903113 17.563663 8.7530204 16.9749279 9.77747907 17.9498558 10.4450419 16.7818315 10.6234898 16.8677675 11.8019377"></polygon>
                        <polygon points="18 3 17.1322325 3.80193774 17.2181685 2.6234898 16.0501442 2.44504187 17.0250721 1.77747907 16.436337 0.753020396 17.5661163 1.09903113 18 0 18.4338837 1.09903113 19.563663 0.753020396 18.9749279 1.77747907 19.9498558 2.44504187 18.7818315 2.6234898 18.8677675 3.80193774"></polygon>
                        <polygon points="23 7 22.1322325 7.80193774 22.2181685 6.6234898 21.0501442 6.44504187 22.0250721 5.77747907 21.436337 4.7530204 22.5661163 5.09903113 23 4 23.4338837 5.09903113 24.563663 4.7530204 23.9749279 5.77747907 24.9498558 6.44504187 23.7818315 6.6234898 23.8677675 7.80193774"></polygon>
                        <polygon points="19 20 18.1322325 20.8019377 18.2181685 19.6234898 17.0501442 19.4450419 18.0250721 18.7774791 17.436337 17.7530204 18.5661163 18.0990311 19 17 19.4338837 18.0990311 20.563663 17.7530204 19.9749279 18.7774791 20.9498558 19.4450419 19.7818315 19.6234898 19.8677675 20.8019377"></polygon>
                        <polygon points="22.5 12.25 21.6183221 12.7135255 21.7867076 11.7317627 21.0734152 11.0364745 22.0591611 10.8932373 22.5 10 22.9408389 10.8932373 23.9265848 11.0364745 23.2132924 11.7317627 23.3816779 12.7135255"></polygon>
                    </g>
                </g>
            </g>
        </g>
    </g>
</svg>