<?xml version="1.0" encoding="UTF-8"?>
<svg width="32px" height="24px" viewBox="0 0 32 24" version="1.1" xmlns="http://www.w3.org/2000/svg" xmlns:xlink="http://www.w3.org/1999/xlink">
    <title>flags/L/HN - Honduras</title>
    <defs>
        <rect id="path-1" x="0" y="0" width="32" height="24"></rect>
        <rect id="path-3" x="0" y="0" width="32" height="24"></rect>
    </defs>
    <g id="Symbols" stroke="none" stroke-width="1" fill="none" fill-rule="evenodd">
        <g id="flag">
            <mask id="mask-2" fill="white">
                <use xlink:href="#path-1"></use>
            </mask>
            <g id="mask"></g>
            <g id="contents" mask="url(#mask-2)">
                <mask id="mask-4" fill="white">
                    <use xlink:href="#path-3"></use>
                </mask>
                <use id="background" fill="#F7FCFF" xlink:href="#path-3"></use>
                <rect id="top" fill="#4564F9" mask="url(#mask-4)" x="0" y="0" width="32" height="8"></rect>
                <rect id="bottom" fill="#4564F9" mask="url(#mask-4)" x="0" y="16" width="32" height="8"></rect>
                <g id="mark" mask="url(#mask-4)" fill="#4564F9">
                    <g transform="translate(8.000000, 8.000000)" id="Star-10">
                        <polygon points="8.40211303 4.67082039 7.53555952 5.11803399 7.70105652 4.17082039 7 3.4309017 7.96883628 3.4309017 8.40211303 2.5 8.83538979 3.4309017 9.80422607 3.4309017 9.10316955 4.17082039 9.26866654 5.11803399"></polygon>
                        <polygon points="2.31807524 2.50272139 1.45152173 2.94993499 1.61701872 2.00272139 0.915962207 1.2628027 1.88479848 1.2628027 2.31807524 0.331901 2.75135199 1.2628027 3.72018827 1.2628027 3.01913176 2.00272139 3.18462875 2.94993499"></polygon>
                        <polygon points="2.31807524 6.70272139 1.45152173 7.14993499 1.61701872 6.20272139 0.915962207 5.4628027 1.88479848 5.4628027 2.31807524 4.531901 2.75135199 5.4628027 3.72018827 5.4628027 3.01913176 6.20272139 3.18462875 7.14993499"></polygon>
                        <polygon points="14.3180752 2.50272139 13.4515217 2.94993499 13.6170187 2.00272139 12.9159622 1.2628027 13.8847985 1.2628027 14.3180752 0.331901 14.751352 1.2628027 15.7201883 1.2628027 15.0191318 2.00272139 15.1846287 2.94993499"></polygon>
                        <polygon points="14.3180752 6.70272139 13.4515217 7.14993499 13.6170187 6.20272139 12.9159622 5.4628027 13.8847985 5.4628027 14.3180752 4.531901 14.751352 5.4628027 15.7201883 5.4628027 15.0191318 6.20272139 15.1846287 7.14993499"></polygon>
                    </g>
                </g>
            </g>
        </g>
    </g>
</svg>