<?xml version="1.0" encoding="UTF-8"?>
<svg width="32px" height="24px" viewBox="0 0 32 24" version="1.1" xmlns="http://www.w3.org/2000/svg" xmlns:xlink="http://www.w3.org/1999/xlink">
    <title>flags/L/HR - Croatia (Hrvatska)</title>
    <defs>
        <rect id="path-1" x="0" y="0" width="32" height="24"></rect>
        <rect id="path-3" x="0" y="0" width="32" height="24"></rect>
        <path d="M0.0103063146,0 C0.0103063146,0.692222882 0.0352960671,3.08181079 0.0852755723,7.16876372 C0.337497325,10.2432247 2.16681984,11.7804552 5.57324312,11.7804552 C8.9796664,11.7804552 10.8819468,10.2464641 11.2800845,7.17848195 C11.3032278,3.05949398 11.2920072,0.666666667 11.2464225,0 L0.0103063146,0 Z" id="path-5"></path>
        <path d="M1.05925824,4.2469959 C1.48964643,4.11084039 1.83442047,4.02475744 2.09358036,3.98874705 C2.35274025,3.95273666 2.67027234,3.92700955 3.04617663,3.91156572 L2.79389973,0.987150528 L1.43117696,0.0193431771 L0.192699497,1.30325776 L1.05925824,4.2469959 Z" id="path-7"></path>
        <path d="M0.988475449,4.2469959 C1.41886364,4.11084039 1.76363767,4.02475744 2.02279756,3.98874705 C2.28195745,3.95273666 2.59948954,3.92700955 2.97539383,3.91156572 L2.72311694,0.987150528 L1.36039417,0.0193431771 L0.192699497,1.29840776 L0.988475449,4.2469959 Z" id="path-9"></path>
        <path d="M1.43117696,4.40128241 C1.86613313,4.16895337 2.26910531,3.99292249 2.64009351,3.87318978 C3.01108171,3.75345706 3.34318805,3.66088226 3.63641254,3.59546538 L2.7904181,0.619577155 L1.1320989,0 L0.192882511,1.5481004 L1.43117696,4.40128241 Z" id="path-11"></path>
    </defs>
    <g id="Symbols" stroke="none" stroke-width="1" fill="none" fill-rule="evenodd">
        <g id="flag">
            <mask id="mask-2" fill="white">
                <use xlink:href="#path-1"></use>
            </mask>
            <g id="mask"></g>
            <g id="contents" mask="url(#mask-2)">
                <mask id="mask-4" fill="white">
                    <use xlink:href="#path-3"></use>
                </mask>
                <use id="background" fill="#F7FCFF" xlink:href="#path-3"></use>
                <rect id="top" fill="#E31D1C" mask="url(#mask-4)" x="0" y="0" width="32" height="8"></rect>
                <rect id="bottom" fill="#3D58DB" mask="url(#mask-4)" x="0" y="16" width="32" height="8"></rect>
                <g id="mark" mask="url(#mask-4)">
                    <g transform="translate(9.200000, 2.400000)">
                        <rect id="Rectangle-90" fill="#E31D1C" x="0.8765625" y="3.99732262" width="11.4" height="4"></rect>
                        <g id="shield" stroke-width="1" fill="none" transform="translate(0.876563, 5.997323)">
                            <mask id="mask-6" fill="white">
                                <use xlink:href="#path-5"></use>
                            </mask>
                            <path stroke="#E31D1C" stroke-width="1.125" d="M0.577326561,0.730325312 C5.13875039,0.838096227 7.72914561,1.07158265 9.1993535,1.43026194 C9.88988729,1.59872803 10.3012743,1.7753328 10.5267083,2.00825169 C10.775717,2.26552789 10.7278761,2.58104125 10.7285707,2.90723515 L10.7285707,2.90723515 L10.7286371,4.33351873 C10.7272583,5.15662091 10.7236431,6.09203938 10.7177883,7.13999291 C10.5370216,8.48733947 10.0443053,9.51259894 9.20167496,10.1920926 C8.33488521,10.8910682 7.1190849,11.2179552 5.57324312,11.2179552 C4.03448007,11.2179552 2.83868198,10.8946757 2.00831207,10.1968928 C1.19971348,9.51740499 0.761400294,8.49011298 0.647485623,7.14161167 C0.609011263,3.99458355 0.585396084,1.85744867 0.577326561,0.730325312 Z"></path>
                            <path d="M10.96875,9.21017403 L10.96875,11.352075 L8.859375,11.352075 L8.859375,9.21017403 L10.96875,9.21017403 Z M6.75,9.21017403 L6.75,11.352075 L4.640625,11.352075 L4.640625,9.21017403 L6.75,9.21017403 Z M2.53125,9.21017403 L2.53125,11.352075 L0.421875,11.352075 L0.421875,9.21017403 L2.53125,9.21017403 Z M4.640625,7.06827309 L4.640625,9.21017403 L2.53125,9.21017403 L2.53125,7.06827309 L4.640625,7.06827309 Z M8.859375,7.06827309 L8.859375,9.21017403 L6.75,9.21017403 L6.75,7.06827309 L8.859375,7.06827309 Z M2.53125,4.92637216 L2.53125,7.06827309 L0.421875,7.06827309 L0.421875,4.92637216 L2.53125,4.92637216 Z M6.75,4.92637216 L6.75,7.06827309 L4.640625,7.06827309 L4.640625,4.92637216 L6.75,4.92637216 Z M10.96875,4.92637216 L10.96875,7.06827309 L8.859375,7.06827309 L8.859375,4.92637216 L10.96875,4.92637216 Z M4.640625,2.78447122 L4.640625,4.92637216 L2.53125,4.92637216 L2.53125,2.78447122 L4.640625,2.78447122 Z M8.859375,2.78447122 L8.859375,4.92637216 L6.75,4.92637216 L6.75,2.78447122 L8.859375,2.78447122 Z M2.53125,0.642570281 L2.53125,2.78447122 L0.421875,2.78447122 L0.421875,0.642570281 L2.53125,0.642570281 Z M6.75,0.642570281 L6.75,2.78447122 L4.640625,2.78447122 L4.640625,0.642570281 L6.75,0.642570281 Z M10.96875,0.642570281 L10.96875,2.78447122 L8.859375,2.78447122 L8.859375,0.642570281 L10.96875,0.642570281 Z" id="Combined-Shape" fill="#F50100" mask="url(#mask-6)"></path>
                        </g>
                        <g id="top" stroke-width="1" fill="none" transform="translate(0.032813, 0.000000)">
                            <g id="Group-11" transform="translate(0.000000, 1.285141)">
                                <path d="M1.22023946,4.47748815 C1.65519563,4.24515911 2.05816781,4.06912823 2.42915601,3.94939551 C2.80014421,3.82966279 3.13225055,3.737088 3.42547504,3.67167112 L2.59753559,0.619577155 L0.939216392,0 L0,1.5481004 L1.22023946,4.47748815 Z" id="Path-333" stroke="#FFFFFF" stroke-width="0.5" fill="#56C6F5"></path>
                                <path d="M0.948250558,2.80563495 L1.13880715,2.7137812 C1.33558703,3.1347006 1.59497288,3.26471074 1.95051323,3.13202462 C2.31368215,2.99649156 2.46174973,2.74019495 2.40950133,2.33388299 L2.61866329,2.3061506 C2.68352053,2.81051581 2.48013092,3.16257173 2.02327983,3.33306657 C1.55880017,3.50640836 1.18927424,3.32119348 0.948250558,2.80563495 Z" id="Path-347" fill="#FFFFFF" fill-rule="nonzero"></path>
                                <path d="M1.4237154,1.85647174 L1.25184815,1.9822873 C1.22768708,1.99997443 1.1937624,1.99472626 1.17607527,1.97056519 C1.16808176,1.95964586 1.16446072,1.94613192 1.16592363,1.93267875 L1.18894947,1.72092957 L1.18894947,1.72092957 L0.994056386,1.63499595 C0.966658342,1.62291541 0.95424105,1.5909117 0.966321587,1.56351366 C0.971781254,1.55113141 0.981674138,1.54123852 0.994056386,1.53577886 L1.18894947,1.44984523 L1.18894947,1.44984523 L1.16592363,1.23809606 C1.16268666,1.20832839 1.18419404,1.18157284 1.21396171,1.17833587 C1.22741489,1.17687296 1.24092882,1.180494 1.25184815,1.18848751 L1.4237154,1.31430307 L1.4237154,1.31430307 L1.59558264,1.18848751 C1.61974372,1.17080038 1.65366839,1.17604854 1.67135552,1.20020962 C1.67934903,1.21112895 1.68297008,1.22464288 1.68150716,1.23809606 L1.65848132,1.44984523 L1.65848132,1.44984523 L1.85337441,1.53577886 C1.88077245,1.54785939 1.89318975,1.57986311 1.88110921,1.60726115 C1.87564954,1.6196434 1.86575666,1.62953628 1.85337441,1.63499595 L1.65848132,1.72092957 L1.65848132,1.72092957 L1.68150716,1.93267875 C1.68474413,1.96244642 1.66323675,1.98920197 1.63346908,1.99243894 C1.62001591,1.99390185 1.60650198,1.9902808 1.59558264,1.9822873 L1.4237154,1.85647174 L1.4237154,1.85647174 Z" id="Star-22" fill="#FECA00" transform="translate(1.408890, 1.579591) rotate(5.000000) translate(-1.408890, -1.579591) "></path>
                            </g>
                            <g id="Group-12" transform="translate(4.218750, 0.000000)">
                                <path d="M1.76974496,4.95405662 C2.10969225,4.8019911 2.46515999,4.66609198 2.83614819,4.54635927 C3.20713638,4.42662655 3.54895983,4.3143959 3.86161853,4.20966732 L3.15183027,1.27118001 L1.59938623,0.609151696 L0.660169835,2.15725209 L1.76974496,4.95405662 Z" id="Path-333" stroke="#FFFFFF" stroke-width="0.5" fill="#56C6F5" transform="translate(2.260894, 2.781604) rotate(19.000000) translate(-2.260894, -2.781604) "></path>
                                <path d="M2.29865741,4.18481978 C2.78100112,4.18481978 2.82720098,3.66385826 2.82720098,3.30897649 C2.70386744,3.11214399 2.72871338,2.97128773 2.33337236,2.97128773 C1.93803135,2.97128773 1.89290106,3.09075054 1.7775525,3.30897649 C1.7775525,3.66385826 1.8163137,4.18481978 2.29865741,4.18481978 Z" id="Oval-62" fill="#FECA00"></path>
                                <path d="M2.84141741,2.7128627 C3.32376112,2.7128627 3.36996098,2.19190119 3.36996098,1.83701942 C3.24662744,1.64018692 3.27147339,1.49933066 2.87613237,1.49933066 C2.48079135,1.49933066 2.43566106,1.61879347 2.3203125,1.83701942 C2.3203125,2.19190119 2.3590737,2.7128627 2.84141741,2.7128627 Z" id="Oval-62" fill="#FECA00"></path>
                                <path d="M1.78672991,2.7128627 C2.26907362,2.7128627 2.31527348,2.19190119 2.31527348,1.83701942 C2.19193994,1.64018692 2.21678589,1.49933066 1.82144487,1.49933066 C1.42610385,1.49933066 1.38097356,1.61879347 1.265625,1.83701942 C1.265625,2.19190119 1.3043862,2.7128627 1.78672991,2.7128627 Z" id="Oval-62" fill="#FECA00"></path>
                            </g>
                            <g id="Group-8" transform="translate(2.320312, 0.642570)">
                                <mask id="mask-8" fill="white">
                                    <use xlink:href="#path-7"></use>
                                </mask>
                                <path stroke="#FFFFFF" stroke-width="0.5" d="M1.40057179,-0.309026167 L3.03302661,0.850345219 L3.31789218,4.15253096 C2.83525447,4.16552481 2.43859378,4.19320913 2.12798742,4.23636804 C1.83209209,4.27748284 1.42032997,4.38784804 0.892067568,4.56433512 L0.892067568,4.56433512 L-0.0881904418,1.23435559 L1.40057179,-0.309026167 Z"></path>
                                <path d="M0.883314895,3.59526453 L0.6328125,3.00518405 C1.17082007,2.76968986 2.0796547,2.62519029 3.03602239,2.56869114 L3.07277707,3.21017667 C2.18370898,3.26269996 1.34270912,3.39418062 0.883314895,3.59526453 Z" id="Path-344" fill="#C51918" fill-rule="nonzero" mask="url(#mask-8)"></path>
                                <path d="M0.460563869,2.16790139 L0.210061474,1.57782091 C0.74806904,1.34232672 1.90447717,1.15167816 2.86084486,1.09517901 L2.89759954,1.73666454 C2.00853145,1.78918783 0.919958093,1.96681748 0.460563869,2.16790139 Z" id="Path-344" fill="#C51918" fill-rule="nonzero" mask="url(#mask-8)"></path>
                            </g>
                            <g id="Group-10" transform="translate(7.382812, 0.642570)">
                                <mask id="mask-10" fill="white">
                                    <use xlink:href="#path-9"></use>
                                </mask>
                                <path stroke="#FFFFFF" stroke-width="0.5" d="M1.32485781,-0.312528296 L2.96224382,0.850345219 L3.24710938,4.15253096 C2.76447168,4.16552481 2.36781099,4.19320913 2.05720462,4.23636804 C1.76026384,4.27762811 1.34663605,4.38862879 0.815681039,4.56620829 L0.815681039,4.56620829 L-0.0843999702,1.23113869 L1.32485781,-0.312528296 Z"></path>
                                <path d="M1.78218477,3.42391803 C1.97816237,3.31483455 2.0902784,3.16833183 2.11853284,2.98440987 C2.1609145,2.70852694 2.61563064,2.3687322 2.38827257,2.40917306 C2.1609145,2.44961391 2.29091498,2.48120356 1.96169064,2.40917306 C1.63246629,2.33714255 1.20636528,2.28949865 1.20636528,2.08711125 C1.20636528,1.88472385 1.41815335,1.72408972 1.24501976,1.72408972 C1.07188616,1.72408972 0.702504442,1.53253742 0.776687377,1.67894857 C0.850870312,1.82535972 0.606018533,1.65981165 0.728444423,1.96377427 C0.850870312,2.26773689 0.702504442,2.57395809 0.776687377,2.65453459 C0.850870312,2.73511108 0.728444423,3.13030216 0.728444423,3.13030216 C0.728444423,3.13030216 0.773411064,3.27707958 0.852072629,3.05723393 C0.930734194,2.83738829 1.10284582,2.68328575 1.01679001,2.87025984 C0.930734194,3.05723393 0.820932629,3.50196125 0.918861317,3.42391803 C1.01679001,3.34587481 1.11414759,3.13005799 1.11414759,3.05723393 C1.11414759,2.98440987 1.36125372,2.69854645 1.36125372,2.91442431 C1.36125372,3.13030216 1.1287858,3.30030636 1.24501976,3.30030636 C1.36125372,3.30030636 1.42640952,3.34618002 1.49949007,3.13030216 C1.57257062,2.91442431 1.75005285,2.77161468 1.82285312,2.91442431 C1.8956534,3.05723393 1.87954235,3.04960358 1.78218477,3.23676081 C1.71727971,3.36153229 1.71727971,3.42391803 1.78218477,3.42391803 Z" id="Path-345" fill="#FECA00" mask="url(#mask-10)"></path>
                                <path d="M1.51724236,1.55504463 C1.58925239,1.58572494 1.64350734,1.62066985 1.78488476,1.72012175 C1.79414361,1.72663358 1.79414361,1.72663358 1.80335675,1.73310028 C1.95057922,1.83635223 2.02852099,1.87841046 2.07651187,1.87841046 L2.07651187,2.09260056 C1.96668945,2.09260056 1.87169099,2.04133835 1.68347975,1.90933962 C1.67409491,1.90275241 1.67409491,1.90275241 1.66476315,1.89618928 C1.53751653,1.80667769 1.48837383,1.77502552 1.43562894,1.75255324 C1.34803184,1.71523197 1.23533084,1.73538378 1.09161754,1.82394565 L0.982179967,1.64083744 C1.17856196,1.51981902 1.35888555,1.48757577 1.51724236,1.55504463 Z" id="Path-346" fill="#C51918" fill-rule="nonzero" mask="url(#mask-10)"></path>
                            </g>
                            <g id="Group-9" transform="translate(9.492188, 1.285141)">
                                <mask id="mask-12" fill="white">
                                    <use xlink:href="#path-11"></use>
                                </mask>
                                <path stroke="#FFFFFF" stroke-width="0.5" d="M1.02571424,-0.306626139 L2.99632479,0.429628548 L3.95074807,3.78692837 C3.60517673,3.84887504 3.19394124,3.95713866 2.71687854,4.11110585 C2.29170871,4.24832514 1.82333496,4.46266983 1.31115996,4.75269063 L1.31115996,4.75269063 L-0.0879386669,1.52899611 L1.02571424,-0.306626139 Z"></path>
                                <path d="M2.34531223,1.4126455 L2.17344498,1.53846105 C2.14928391,1.55614819 2.11535923,1.55090002 2.0976721,1.52673895 C2.08967859,1.51581961 2.08605755,1.50230568 2.08752046,1.48885251 L2.1105463,1.27710333 L2.1105463,1.27710333 L1.91565321,1.19116971 C1.88825517,1.17908917 1.87583788,1.14708546 1.88791842,1.11968741 C1.89337808,1.10730517 1.90327097,1.09741228 1.91565321,1.09195261 L2.1105463,1.00601899 L2.1105463,1.00601899 L2.08752046,0.794269815 C2.08428349,0.764502145 2.10579087,0.737746597 2.13555854,0.734509627 C2.14901172,0.733046714 2.16252565,0.736667761 2.17344498,0.744661269 L2.34531223,0.870476823 L2.34531223,0.870476823 L2.51717947,0.744661269 C2.54134054,0.726974135 2.57526522,0.7322223 2.59295235,0.756383374 C2.60094586,0.767302709 2.60456691,0.78081664 2.60310399,0.794269815 L2.58007815,1.00601899 L2.58007815,1.00601899 L2.77497124,1.09195261 C2.80236928,1.10403315 2.81478657,1.13603686 2.80270604,1.16343491 C2.79724637,1.17581716 2.78735349,1.18571004 2.77497124,1.19116971 L2.58007815,1.27710333 L2.58007815,1.27710333 L2.60310399,1.48885251 C2.60634096,1.51862018 2.58483358,1.54537572 2.55506591,1.54861269 C2.54161274,1.55007561 2.5280988,1.54645456 2.51717947,1.53846105 L2.34531223,1.4126455 L2.34531223,1.4126455 Z" id="Star-22" fill="#FECA00" mask="url(#mask-12)" transform="translate(2.332679, 1.136532) rotate(-12.000000) translate(-2.332679, -1.136532) "></path>
                                <path d="M0.270134444,2.80247841 L0.482556224,1.97331436 C1.4233082,2.2218135 2.40399466,2.54029936 3.12344146,2.84827312 L2.79567689,3.6377477 C2.11602792,3.34681021 1.1734957,3.04110081 0.270134444,2.80247841 Z" id="Path-348" fill="#E31D1C" fill-rule="nonzero" mask="url(#mask-12)"></path>
                                <path d="M0.558134874,2.03682504 L0.608212827,1.82875856 C1.51011774,2.05257726 2.46873614,2.40969963 3.16533882,2.74232332 L3.0755762,2.93615229 C2.39236026,2.60992069 1.44696033,2.25739791 0.558134874,2.03682504 Z" id="Path-349" fill="#FFFFFF" fill-rule="nonzero" mask="url(#mask-12)"></path>
                                <path d="M0.290829099,2.89137949 L0.340907052,2.68331301 C1.24281197,2.90713172 2.07642023,3.21082533 2.77302291,3.54344902 L2.68326029,3.73727798 C2.00004435,3.41104639 1.17965456,3.11195237 0.290829099,2.89137949 Z" id="Path-349" fill="#FFFFFF" fill-rule="nonzero" mask="url(#mask-12)"></path>
                                <path d="M0.697915508,2.48984637 L0.891046484,2.4026381 C0.972346518,2.59295012 1.0727652,2.63487726 1.24065442,2.55330708 C1.63718942,2.36064774 2.62079546,2.6298835 2.62079546,2.99291484 C2.62079546,3.13454367 2.53869752,3.2204103 2.41336227,3.21543594 C2.34262461,3.21262848 2.26712535,3.18467788 2.15635665,3.12992113 C2.14291983,3.12327885 2.13409578,3.11883213 2.11231233,3.10775357 C1.98982999,3.04528816 1.98053836,3.04073167 1.94795271,3.02898477 L2.01774877,2.82433321 C2.06290273,2.8406109 2.07000759,2.84409503 2.20604885,2.91347542 C2.22702417,2.92414242 2.23521026,2.92826766 2.2477621,2.93447246 C2.33267304,2.97644684 2.38942477,2.9974569 2.42149907,2.99872988 C2.42448858,2.99884853 2.40985796,3.01415076 2.40985796,2.99291484 C2.40985796,2.8331836 1.60931283,2.61405585 1.3307806,2.74938272 C1.05301113,2.88433898 0.825938798,2.78953101 0.697915508,2.48984637 Z" id="Path-350" fill="#272727" fill-rule="nonzero" mask="url(#mask-12)"></path>
                            </g>
                        </g>
                    </g>
                </g>
            </g>
        </g>
    </g>
</svg>