<?xml version="1.0" encoding="UTF-8"?>
<svg width="32px" height="24px" viewBox="0 0 32 24" version="1.1" xmlns="http://www.w3.org/2000/svg" xmlns:xlink="http://www.w3.org/1999/xlink">
    <title>flags/L/HT - Haiti</title>
    <defs>
        <rect id="path-1" x="0" y="0" width="32" height="24"></rect>
        <rect id="path-3" x="0" y="0" width="32" height="24"></rect>
        <rect id="path-5" x="0" y="0" width="12" height="8"></rect>
    </defs>
    <g id="Symbols" stroke="none" stroke-width="1" fill="none" fill-rule="evenodd">
        <g id="flag">
            <mask id="mask-2" fill="white">
                <use xlink:href="#path-1"></use>
            </mask>
            <g id="mask"></g>
            <g id="contents" mask="url(#mask-2)">
                <mask id="mask-4" fill="white">
                    <use xlink:href="#path-3"></use>
                </mask>
                <use id="background" fill="#2E42A5" xlink:href="#path-3"></use>
                <rect id="bottom" fill="#E31D1C" mask="url(#mask-4)" x="0" y="12" width="32" height="12"></rect>
                <g id="mark" mask="url(#mask-4)">
                    <g transform="translate(10.000000, 8.000000)">
                        <mask id="mask-6" fill="white">
                            <use xlink:href="#path-5"></use>
                        </mask>
                        <use id="bg" stroke="none" fill="#FFFFFF" fill-rule="evenodd" xlink:href="#path-5"></use>
                        <path d="M0,6.57777778 C1.92022727,6.07289226 3.92022727,5.83585522 6,5.86666667 C8.07977273,5.89747811 10.0797727,6.19377441 12,6.75555556 L12,8 L0,8 L0,6.57777778 Z" id="grass" stroke="none" fill="#279E19" fill-rule="evenodd" mask="url(#mask-6)"></path>
                        <g id="tree" stroke="none" stroke-width="1" fill="none" fill-rule="evenodd" mask="url(#mask-6)">
                            <g transform="translate(3.310345, 0.355556)">
                                <g id="left" stroke-width="1" fill="none">
                                    <path d="M2.76326422,0.545603208 C2.14256355,0.266017388 1.61556659,0.126224478 1.18227332,0.126224478 C0.748980047,0.126224478 0.411980566,0.339595128 0.171274873,0.76633643" id="Path-81" stroke="#026A16" stroke-width="0.5"></path>
                                    <path d="M2.97016077,0.965977117 C2.39900538,0.76169758 1.91407412,0.659557811 1.51536698,0.659557811 C1.11665984,0.659557811 0.806560173,0.815457197 0.585067977,1.12725597" id="Path-81" stroke="#026A16" stroke-width="0.5"></path>
                                    <path d="M2.97016077,1.32153267 C2.54764121,1.11725314 2.18890706,1.01511337 1.89395831,1.01511337 C1.59900957,1.01511337 1.36960934,1.17101275 1.20575763,1.48281153" id="Path-81" stroke="#026A16" stroke-width="0.5"></path>
                                    <path d="M2.70961785,1.67708823 C2.44858075,1.47280869 2.22695096,1.37066892 2.04472847,1.37066892 C1.86250598,1.37066892 1.72078007,1.52656831 1.61955074,1.83836708" id="Path-81" stroke="#026A16" stroke-width="0.5"></path>
                                    <path d="M2.67609358,1.91968436 C2.57172033,1.7907111 2.48310372,1.72622448 2.41024375,1.72622448 C2.33738379,1.72622448 2.280716,1.8246526 2.24024039,2.02150884" id="Path-81" stroke="#026A16" stroke-width="0.5"></path>
                                </g>
                                <g id="right" stroke-width="1" fill="none" transform="translate(2.979310, 2.000000) scale(-1, 1) translate(-2.979310, -2.000000) translate(0.579310, 0.000000)">
                                    <path d="M2.76326422,0.545603208 C2.14256355,0.266017388 1.61556659,0.126224478 1.18227332,0.126224478 C0.748980047,0.126224478 0.411980566,0.339595128 0.171274873,0.76633643" id="Path-81" stroke="#026A16" stroke-width="0.5"></path>
                                    <path d="M2.97016077,0.965977117 C2.39900538,0.76169758 1.91407412,0.659557811 1.51536698,0.659557811 C1.11665984,0.659557811 0.806560173,0.815457197 0.585067977,1.12725597" id="Path-81" stroke="#026A16" stroke-width="0.5"></path>
                                    <path d="M2.97016077,1.32153267 C2.54764121,1.11725314 2.18890706,1.01511337 1.89395831,1.01511337 C1.59900957,1.01511337 1.36960934,1.17101275 1.20575763,1.48281153" id="Path-81" stroke="#026A16" stroke-width="0.5"></path>
                                    <path d="M2.70961785,1.67708823 C2.44858075,1.47280869 2.22695096,1.37066892 2.04472847,1.37066892 C1.86250598,1.37066892 1.72078007,1.52656831 1.61955074,1.83836708" id="Path-81" stroke="#026A16" stroke-width="0.5"></path>
                                    <path d="M2.67609358,1.91968436 C2.57172033,1.7907111 2.48310372,1.72622448 2.41024375,1.72622448 C2.33738379,1.72622448 2.280716,1.8246526 2.24024039,2.02150884" id="Path-81" stroke="#026A16" stroke-width="0.5"></path>
                                </g>
                                <path d="M2.57723821,2.04265313 C2.50107037,2.93426144 2.46298646,3.56149808 2.46298646,3.92436308 C2.46298646,4.28722807 2.50107037,4.86013635 2.57723821,5.64308793 L2.87106952,5.64308793 C2.87106952,4.80019464 2.87106952,4.22728635 2.87106952,3.92436308 C2.87106952,3.6214398 2.81359826,2.99420315 2.69865573,2.04265313 L2.57723821,2.04265313 Z" id="base" fill="#FECA00"></path>
                            </g>
                        </g>
                        <g id="left" stroke="none" stroke-width="1" fill="none" fill-rule="evenodd" mask="url(#mask-6)">
                            <g transform="translate(1.241379, 1.955556)">
                                <path d="M3.49064948,1.96293233 C3.00785671,2.22134443 2.76646033,2.73304985 2.76646033,3.49804859 L3.49064948,4.88360729 L4.79756429,4.88360729 L4.79756429,2.60187872 L3.49064948,1.96293233 Z" id="red" stroke="none" fill="#C51918" fill-rule="evenodd"></path>
                                <path d="M2.41757522,0.870405531 C1.29036807,1.20433826 0.726764497,1.98724038 0.726764497,3.21911189 L2.91737624,3.40598464 C2.83760147,2.69029439 3.02241878,2.16691716 3.47182816,1.83585293 L2.41757522,0.870405531 Z" id="blue" stroke="none" fill="#0A328C" fill-rule="evenodd"></path>
                                <line x1="1.71954597" y1="0.165348512" x2="4.62001504" y2="2.82340754" id="spear" stroke="#FFD018" stroke-width="0.5" fill="none"></line>
                                <line x1="0.712173657" y1="0.767213789" x2="4.75763515" y2="3.39418918" id="spear" stroke="#FFD018" stroke-width="0.5" fill="none"></line>
                                <line x1="0.0157848062" y1="1.78399741" x2="4.57537915" y2="3.86927179" id="spear" stroke="#FFD018" stroke-width="0.5" fill="none"></line>
                                <path d="M0.738419902,3.20464575 L3.76407664,3.54293069 L3.59373506,3.96519337 L3.1140504,3.96519337 L3.44074708,4.20377327 L4.177455,4.37617989 L4.177455,3.96519337 L4.82264641,3.96519337 L4.82264641,4.83835426 L3.44074708,4.83835426 L2.91072834,4.20377327 C2.61396159,4.49631061 2.32076341,4.64257928 2.0311338,4.64257928 C1.59668937,4.64257928 1.16837483,4.50006933 1.16837483,4.02150001 C1.16837483,3.70245379 1.16837483,3.5914726 1.16837483,3.68855642 L0.738419902,3.54293069 L0.738419902,3.20464575 Z" id="canon" stroke="none" fill="#FECA00" fill-rule="evenodd"></path>
                            </g>
                        </g>
                        <g id="right" stroke="none" stroke-width="1" fill="none" fill-rule="evenodd" mask="url(#mask-6)">
                            <g transform="translate(6.744828, 4.955556) scale(-1, 1) translate(-6.744828, -4.955556) translate(3.144828, 1.955556)">
                                <path d="M3.49064948,1.96293233 C3.00785671,2.22134443 2.76646033,2.73304985 2.76646033,3.49804859 L3.49064948,4.88360729 L4.79756429,4.88360729 L4.79756429,2.60187872 L3.49064948,1.96293233 Z" id="red" stroke="none" fill="#C51918" fill-rule="evenodd"></path>
                                <path d="M2.41757522,0.870405531 C1.29036807,1.20433826 0.726764497,1.98724038 0.726764497,3.21911189 L2.91737624,3.40598464 C2.83760147,2.69029439 3.02241878,2.16691716 3.47182816,1.83585293 L2.41757522,0.870405531 Z" id="blue" stroke="none" fill="#0A328C" fill-rule="evenodd"></path>
                                <line x1="1.71954597" y1="0.165348512" x2="4.62001504" y2="2.82340754" id="spear" stroke="#FFD018" stroke-width="0.5" fill="none"></line>
                                <line x1="0.712173657" y1="0.767213789" x2="4.75763515" y2="3.39418918" id="spear" stroke="#FFD018" stroke-width="0.5" fill="none"></line>
                                <line x1="0.0157848062" y1="1.78399741" x2="4.57537915" y2="3.86927179" id="spear" stroke="#FFD018" stroke-width="0.5" fill="none"></line>
                                <path d="M0.738419902,3.20464575 L3.76407664,3.54293069 L3.59373506,3.96519337 L3.1140504,3.96519337 L3.44074708,4.20377327 L4.177455,4.37617989 L4.177455,3.96519337 L4.82264641,3.96519337 L4.82264641,4.83835426 L3.44074708,4.83835426 L2.91072834,4.20377327 C2.61396159,4.49631061 2.32076341,4.64257928 2.0311338,4.64257928 C1.59668937,4.64257928 1.16837483,4.50006933 1.16837483,4.02150001 C1.16837483,3.70245379 1.16837483,3.5914726 1.16837483,3.68855642 L0.738419902,3.54293069 L0.738419902,3.20464575 Z" id="canon" stroke="none" fill="#FECA00" fill-rule="evenodd"></path>
                            </g>
                        </g>
                    </g>
                </g>
            </g>
        </g>
    </g>
</svg>