<?xml version="1.0" encoding="UTF-8"?>
<svg width="32px" height="24px" viewBox="0 0 32 24" version="1.1" xmlns="http://www.w3.org/2000/svg" xmlns:xlink="http://www.w3.org/1999/xlink">
    <title>flags/L/IM - Isle of Man</title>
    <defs>
        <rect id="path-1" x="0" y="0" width="32" height="24"></rect>
        <rect id="path-3" x="0" y="0" width="32" height="24"></rect>
    </defs>
    <g id="Symbols" stroke="none" stroke-width="1" fill="none" fill-rule="evenodd">
        <g id="flag">
            <mask id="mask-2" fill="white">
                <use xlink:href="#path-1"></use>
            </mask>
            <g id="mask"></g>
            <g id="contents" mask="url(#mask-2)">
                <mask id="mask-4" fill="white">
                    <use xlink:href="#path-3"></use>
                </mask>
                <use id="background" fill="#E31D1C" xlink:href="#path-3"></use>
                <g id="mark" mask="url(#mask-4)">
                    <g transform="translate(6.000000, -0.399994)">
                        <g id="leg" stroke-width="1" fill="none" fill-rule="evenodd" transform="translate(0.000000, 3.707317)">
                            <path d="M0.212979369,0.717378153 C1.24294324,1.89275758 2.03256055,2.48044729 2.58183131,2.48044729 C3.44083981,2.48044729 6.81443118,-0.362196229 7.81158504,0.100875587 C8.47635427,0.40959013 9.48170524,2.17782471 10.8276379,5.40557933 L9.51200238,7.05584379 L7.81158504,6.12821833 L7.49021026,2.48044729 C5.30817274,3.60276721 3.67204643,3.96023769 2.58183131,3.55285874 L1.66254996,4.3253254 C1.07235832,3.15665562 0.66105646,2.3935956 0.428644391,2.03614532 C0.21947353,1.71444007 0.104429556,1.28477611 0.0835124691,0.747153437 L0.144186478,0.744792816 C0.143343084,0.723115424 0.160232376,0.704858719 0.181909768,0.704015325 C0.193751845,0.70355459 0.205168937,0.708465005 0.212979369,0.717378153 Z" id="Path-87" fill="#F7FCFF"></path>
                            <polygon id="Star-13" fill="#FECA00" points="2.26190476 4.81707317 1.70210928 5.15623816 1.80902071 4.43787518 1.35613665 3.92912769 1.98200702 3.82431994 2.26190476 3.17073171 2.5418025 3.82431994 3.16767287 3.92912769 2.71478882 4.43787518 2.82170024 5.15623816"></polygon>
                            <path d="M7.37538228,0.12195122 C7.57570311,0.12195122 7.73809524,0.284343343 7.73809524,0.484664179 L7.73809524,2.19826265 C7.73809524,2.39858349 7.57570311,2.56097561 7.37538228,2.56097561 C7.17506144,2.56097561 7.01266932,2.39858349 7.01266932,2.19826265 L7.01266932,0.484664179 C7.01266932,0.284343343 7.17506144,0.12195122 7.37538228,0.12195122 Z" id="Rectangle-30" fill="#FECA00"></path>
                        </g>
                        <g id="leg" stroke-width="1" fill="none" fill-rule="evenodd" transform="translate(13.405025, 8.834488) rotate(122.000000) translate(-13.405025, -8.834488) translate(7.405025, 4.834488)">
                            <path d="M0.212979369,0.717378153 C1.24294324,1.89275758 2.03256055,2.48044729 2.58183131,2.48044729 C3.44083981,2.48044729 6.81443118,-0.362196229 7.81158504,0.100875587 C8.47635427,0.40959013 9.48170524,2.17782471 10.8276379,5.40557933 L9.51200238,7.05584379 L7.81158504,6.12821833 L7.49021026,2.48044729 C5.30817274,3.60276721 3.67204643,3.96023769 2.58183131,3.55285874 L1.66254996,4.3253254 C1.07235832,3.15665562 0.66105646,2.3935956 0.428644391,2.03614532 C0.21947353,1.71444007 0.104429556,1.28477611 0.0835124691,0.747153437 L0.144186478,0.744792816 C0.143343084,0.723115424 0.160232376,0.704858719 0.181909768,0.704015325 C0.193751845,0.70355459 0.205168937,0.708465005 0.212979369,0.717378153 Z" id="Path-87" fill="#F7FCFF"></path>
                            <polygon id="Star-13" fill="#FECA00" points="2.26190476 4.81707317 1.70210928 5.15623816 1.80902071 4.43787518 1.35613665 3.92912769 1.98200702 3.82431994 2.26190476 3.17073171 2.5418025 3.82431994 3.16767287 3.92912769 2.71478882 4.43787518 2.82170024 5.15623816"></polygon>
                            <path d="M7.41718468,0.0104112683 C7.62316708,0.00288066971 7.79625356,0.163757642 7.80378416,0.369740042 C7.80408823,0.378057042 7.80411401,0.386381886 7.80386146,0.394700609 L7.74910234,2.19841249 C7.74265115,2.41090816 7.59101515,2.59111603 7.3827496,2.6337949 C7.22208663,2.6667188 7.06515347,2.56316583 7.03222957,2.40250286 C7.02827651,2.38321264 7.02625198,2.36357706 7.02618585,2.34388608 L7.01973867,0.424040913 C7.01899148,0.201541683 7.19483274,0.0185403278 7.41718468,0.0104112683 Z" id="Rectangle-30" fill="#FECA00"></path>
                        </g>
                        <g id="leg" stroke-width="1" fill="none" fill-rule="evenodd" transform="translate(8.002365, 15.151493) rotate(242.000000) translate(-8.002365, -15.151493) translate(2.002365, 10.151493)">
                            <path d="M0.212979369,2.71737815 C1.24294324,3.89275758 2.03256055,4.48044729 2.58183131,4.48044729 C3.44083981,4.48044729 6.81443118,1.63780377 7.81158504,2.10087559 C8.47635427,2.40959013 9.48170524,4.17782471 10.8276379,7.40557933 L9.51200238,9.05584379 L7.81158504,8.12821833 L7.49021026,4.48044729 C5.30817274,5.60276721 3.67204643,5.96023769 2.58183131,5.55285874 L1.66254996,6.3253254 C1.07235832,5.15665562 0.66105646,4.3935956 0.428644391,4.03614532 C0.21947353,3.71444007 0.104429556,3.28477611 0.0835124691,2.74715344 L0.144186478,2.74479282 C0.143343084,2.72311542 0.160232376,2.70485872 0.181909768,2.70401533 C0.193751845,2.70355459 0.205168937,2.70846501 0.212979369,2.71737815 Z" id="Path-87" fill="#F7FCFF"></path>
                            <polygon id="Star-13" fill="#FECA00" points="2.26190476 6.81707317 1.70210928 7.15623816 1.80902071 6.43787518 1.35613665 5.92912769 1.98200702 5.82431994 2.26190476 5.17073171 2.5418025 5.82431994 3.16767287 5.92912769 2.71478882 6.43787518 2.82170024 7.15623816"></polygon>
                            <path d="M7.63187641,1.98886323 C7.8573535,2.03767341 8.00890009,2.24973213 7.98205302,2.47886437 L7.7872199,4.14171036 C7.75874337,4.38474959 7.56106907,4.57296271 7.31692632,4.58949452 C7.12512155,4.60248233 6.95910435,4.45752254 6.94611654,4.26571777 C6.94461284,4.24351107 6.94524251,4.22121134 6.94799691,4.19912488 L7.18403815,2.30640074 C7.20946236,2.10253369 7.39533966,1.95787719 7.59920672,1.98330141 C7.61017383,1.98466911 7.62107454,1.9865249 7.63187641,1.98886323 Z" id="Rectangle-30" fill="#FECA00"></path>
                        </g>
                        <path d="M7.66258736,10.1649304 C7.53813246,10.1214418 7.47165695,9.98283589 7.51411015,9.85534551 C7.55656334,9.72785513 7.75595005,9.51489975 7.88040495,9.55838839 L9.61619444,10.1649304 C9.7057525,10.1962249 9.76872003,10.2788763 9.77659533,10.3754731 L9.93181198,12.2793274 C9.94275593,12.4135637 9.7472346,12.5221541 9.61619444,12.533365 C9.48515427,12.5445759 9.3700534,12.4448441 9.35910944,12.3106078 L9.21538367,10.6733525 L7.66258736,10.1649304 Z" id="Path-88" fill="#FECA00" fill-rule="nonzero"></path>
                        <path d="M10.6805651,9.16754279 C10.7843175,9.08478409 10.9695775,9.18070364 11.0503658,9.28698655 C11.131154,9.39326946 11.1125379,9.54651797 11.0087856,9.62927666 L9.80637164,10.8616947 C9.70261928,10.9444534 9.46927969,10.7830238 9.38849144,10.6767409 C9.30770318,10.570458 9.28473907,10.2809318 9.38849144,10.1981731 L10.6805651,9.16754279 Z" id="Path-89" fill="#FECA00" fill-rule="nonzero"></path>
                    </g>
                </g>
            </g>
        </g>
    </g>
</svg>