<?xml version="1.0" encoding="UTF-8"?>
<svg width="32px" height="24px" viewBox="0 0 32 24" version="1.1" xmlns="http://www.w3.org/2000/svg" xmlns:xlink="http://www.w3.org/1999/xlink">
    <title>flags/L/IO - British Indian Ocean Territory</title>
    <defs>
        <rect id="path-1" x="0" y="0" width="32" height="24"></rect>
        <rect id="path-3" x="0" y="0" width="32" height="24"></rect>
        <rect id="path-5" x="0" y="0" width="14" height="10"></rect>
    </defs>
    <g id="Symbols" stroke="none" stroke-width="1" fill="none" fill-rule="evenodd">
        <g id="flag">
            <mask id="mask-2" fill="white">
                <use xlink:href="#path-1"></use>
            </mask>
            <g id="mask"></g>
            <g id="contents" mask="url(#mask-2)">
                <mask id="mask-4" fill="white">
                    <use xlink:href="#path-3"></use>
                </mask>
                <use id="background" fill="#F7FCFF" xlink:href="#path-3"></use>
                <g id="mark-2" mask="url(#mask-4)" fill="#2E42A5" fill-rule="nonzero">
                    <g transform="translate(-2.000000, 0.000000)" id="Combined-Shape">
                        <path d="M8.32866958,22.2914876 C8.94224289,22.8714956 9.16881132,23 9.70083818,23 C10.232865,23 10.4594335,22.8714956 11.0730068,22.2914876 C12.0462392,21.3714956 12.7012295,21 13.9323201,21 C15.1634107,21 15.818401,21.3714956 16.7916334,22.2914876 C17.4052067,22.8714956 17.6317751,23 18.163802,23 C18.6958289,23 18.9223973,22.8714956 19.5359706,22.2914876 C20.509203,21.3714956 21.1641933,21 22.3952839,21 C23.6263745,21 24.2813648,21.3714956 25.2545972,22.2914876 C25.8681705,22.8714956 26.094739,23 26.6267658,23 C27.1587927,23 27.3853611,22.8714956 27.9989344,22.2914876 C28.9721668,21.3714956 29.6271571,21 30.8582477,21 C32.5780694,21 34.2403405,21.7856685 35.833302,23.2914876 L34.3461573,24.7085124 C33.1181309,23.5476648 31.959414,23 30.8582477,23 C30.3262209,23 30.0996524,23.1285044 29.4860791,23.7085124 C28.5736737,24.5710049 27.9409733,24.9514205 26.8510625,24.9956033 L26.6267658,25 L26.6267658,25 C25.3956752,25 24.7406849,24.6285044 23.7674525,23.7085124 C23.1538792,23.1285044 22.9273108,23 22.3952839,23 C21.8632571,23 21.6366886,23.1285044 21.0231153,23.7085124 C20.1107099,24.5710049 19.4780095,24.9514205 18.3880987,24.9956033 L18.163802,25 L18.163802,25 C16.9327114,25 16.2777211,24.6285044 15.3044887,23.7085124 C14.6909154,23.1285044 14.4643469,23 13.9323201,23 C13.4002932,23 13.1737248,23.1285044 12.5601515,23.7085124 C11.6477461,24.5710049 11.0150457,24.9514205 9.92513484,24.9956033 L9.70083818,25 L9.70083818,25 C8.46974758,25 7.81475728,24.6285044 6.84152487,23.7085124 C6.22795156,23.1285044 6.00138313,23 5.46935627,23 C4.4370129,23 3.35408791,23.481346 2.21089232,24.4980232 L1.98144672,24.7085124 L1.98144672,24.7085124 L0.494302,23.2914876 C2.08726355,21.7856685 3.74953459,21 5.46935627,21 C6.70044687,21 7.35543717,21.3714956 8.32866958,22.2914876 Z M30.8582477,17 C32.5780694,17 34.2403405,17.7856685 35.833302,19.2914876 L34.3461573,20.7085124 C33.1181309,19.5476648 31.959414,19 30.8582477,19 C30.3262209,19 30.0996524,19.1285044 29.4860791,19.7085124 C28.5736737,20.5710049 27.9409733,20.9514205 26.8510625,20.9956033 L26.6267658,21 L26.6267658,21 C25.3956752,21 24.7406849,20.6285044 23.7674525,19.7085124 C23.1538792,19.1285044 22.9273108,19 22.3952839,19 C21.8632571,19 21.6366886,19.1285044 21.0231153,19.7085124 C20.1107099,20.5710049 19.4780095,20.9514205 18.3880987,20.9956033 L18.163802,21 L18.163802,21 C16.9327114,21 16.2777211,20.6285044 15.3044887,19.7085124 C14.6909154,19.1285044 14.4643469,19 13.9323201,19 C13.4002932,19 13.1737248,19.1285044 12.5601515,19.7085124 C11.6477461,20.5710049 11.0150457,20.9514205 9.92513484,20.9956033 L9.70083818,21 L9.70083818,21 C8.46974758,21 7.81475728,20.6285044 6.84152487,19.7085124 C6.22795156,19.1285044 6.00138313,19 5.46935627,19 C4.4370129,19 3.35408791,19.481346 2.21089232,20.4980232 L1.98144672,20.7085124 L1.98144672,20.7085124 L0.494302,19.2914876 C2.08726355,17.7856685 3.74953459,17 5.46935627,17 C6.70044687,17 7.35543717,17.3714956 8.32866958,18.2914876 C8.94224289,18.8714956 9.16881132,19 9.70083818,19 C10.232865,19 10.4594335,18.8714956 11.0730068,18.2914876 C12.0462392,17.3714956 12.7012295,17 13.9323201,17 C15.1634107,17 15.818401,17.3714956 16.7916334,18.2914876 C17.4052067,18.8714956 17.6317751,19 18.163802,19 C18.6958289,19 18.9223973,18.8714956 19.5359706,18.2914876 C20.509203,17.3714956 21.1641933,17 22.3952839,17 C23.6263745,17 24.2813648,17.3714956 25.2545972,18.2914876 C25.8681705,18.8714956 26.094739,19 26.6267658,19 C27.1587927,19 27.3853611,18.8714956 27.9989344,18.2914876 C28.9721668,17.3714956 29.6271571,17 30.8582477,17 Z M30.8582477,13 C32.5780694,13 34.2403405,13.7856685 35.833302,15.2914876 L34.3461573,16.7085124 C33.1181309,15.5476648 31.959414,15 30.8582477,15 C30.3262209,15 30.0996524,15.1285044 29.4860791,15.7085124 C28.5736737,16.5710049 27.9409733,16.9514205 26.8510625,16.9956033 L26.6267658,17 L26.6267658,17 C25.3956752,17 24.7406849,16.6285044 23.7674525,15.7085124 C23.1538792,15.1285044 22.9273108,15 22.3952839,15 C21.8632571,15 21.6366886,15.1285044 21.0231153,15.7085124 C20.1107099,16.5710049 19.4780095,16.9514205 18.3880987,16.9956033 L18.163802,17 L18.163802,17 C16.9327114,17 16.2777211,16.6285044 15.3044887,15.7085124 C14.6909154,15.1285044 14.4643469,15 13.9323201,15 C13.4002932,15 13.1737248,15.1285044 12.5601515,15.7085124 C11.6477461,16.5710049 11.0150457,16.9514205 9.92513484,16.9956033 L9.70083818,17 L9.70083818,17 C8.46974758,17 7.81475728,16.6285044 6.84152487,15.7085124 C6.22795156,15.1285044 6.00138313,15 5.46935627,15 C4.4370129,15 3.35408791,15.481346 2.21089232,16.4980232 L1.98144672,16.7085124 L1.98144672,16.7085124 L0.494302,15.2914876 C2.08726355,13.7856685 3.74953459,13 5.46935627,13 C6.70044687,13 7.35543717,13.3714956 8.32866958,14.2914876 C8.94224289,14.8714956 9.16881132,15 9.70083818,15 C10.232865,15 10.4594335,14.8714956 11.0730068,14.2914876 C12.0462392,13.3714956 12.7012295,13 13.9323201,13 C15.1634107,13 15.818401,13.3714956 16.7916334,14.2914876 C17.4052067,14.8714956 17.6317751,15 18.163802,15 C18.6958289,15 18.9223973,14.8714956 19.5359706,14.2914876 C20.509203,13.3714956 21.1641933,13 22.3952839,13 C23.6263745,13 24.2813648,13.3714956 25.2545972,14.2914876 C25.8681705,14.8714956 26.094739,15 26.6267658,15 C27.1587927,15 27.3853611,14.8714956 27.9989344,14.2914876 C28.9721668,13.3714956 29.6271571,13 30.8582477,13 Z M30.8582477,9 C32.5780694,9 34.2403405,9.78566851 35.833302,11.2914876 L34.3461573,12.7085124 C33.1181309,11.5476648 31.959414,11 30.8582477,11 C30.3262209,11 30.0996524,11.1285044 29.4860791,11.7085124 C28.5736737,12.5710049 27.9409733,12.9514205 26.8510625,12.9956033 L26.6267658,13 L26.6267658,13 C25.3956752,13 24.7406849,12.6285044 23.7674525,11.7085124 C23.1538792,11.1285044 22.9273108,11 22.3952839,11 C21.8632571,11 21.6366886,11.1285044 21.0231153,11.7085124 C20.1107099,12.5710049 19.4780095,12.9514205 18.3880987,12.9956033 L18.163802,13 L18.163802,13 C16.9327114,13 16.2777211,12.6285044 15.3044887,11.7085124 C14.6909154,11.1285044 14.4643469,11 13.9323201,11 C13.4002932,11 13.1737248,11.1285044 12.5601515,11.7085124 C11.6477461,12.5710049 11.0150457,12.9514205 9.92513484,12.9956033 L9.70083818,13 L9.70083818,13 C8.46974758,13 7.81475728,12.6285044 6.84152487,11.7085124 C6.22795156,11.1285044 6.00138313,11 5.46935627,11 C4.4370129,11 3.35408791,11.481346 2.21089232,12.4980232 L1.98144672,12.7085124 L1.98144672,12.7085124 L0.494302,11.2914876 C2.08726355,9.78566851 3.74953459,9 5.46935627,9 C6.70044687,9 7.35543717,9.37149555 8.32866958,10.2914876 C8.94224289,10.8714956 9.16881132,11 9.70083818,11 C10.232865,11 10.4594335,10.8714956 11.0730068,10.2914876 C12.0462392,9.37149555 12.7012295,9 13.9323201,9 C15.1634107,9 15.818401,9.37149555 16.7916334,10.2914876 C17.4052067,10.8714956 17.6317751,11 18.163802,11 C18.6958289,11 18.9223973,10.8714956 19.5359706,10.2914876 C20.509203,9.37149555 21.1641933,9 22.3952839,9 C23.6263745,9 24.2813648,9.37149555 25.2545972,10.2914876 C25.8681705,10.8714956 26.094739,11 26.6267658,11 C27.1587927,11 27.3853611,10.8714956 27.9989344,10.2914876 C28.9721668,9.37149555 29.6271571,9 30.8582477,9 Z M30.8582477,5 C32.5780694,5 34.2403405,5.78566851 35.833302,7.29148759 L34.3461573,8.70851241 C33.1181309,7.54766483 31.959414,7 30.8582477,7 C30.3262209,7 30.0996524,7.12850445 29.4860791,7.70851241 C28.5736737,8.57100494 27.9409733,8.95142049 26.8510625,8.99560332 L26.6267658,9 L26.6267658,9 C25.3956752,9 24.7406849,8.62850445 23.7674525,7.70851241 C23.1538792,7.12850445 22.9273108,7 22.3952839,7 C21.8632571,7 21.6366886,7.12850445 21.0231153,7.70851241 C20.1107099,8.57100494 19.4780095,8.95142049 18.3880987,8.99560332 L18.163802,9 L18.163802,9 C16.9327114,9 16.2777211,8.62850445 15.3044887,7.70851241 C14.6909154,7.12850445 14.4643469,7 13.9323201,7 C13.4002932,7 13.1737248,7.12850445 12.5601515,7.70851241 C11.6477461,8.57100494 11.0150457,8.95142049 9.92513484,8.99560332 L9.70083818,9 L9.70083818,9 C8.46974758,9 7.81475728,8.62850445 6.84152487,7.70851241 C6.22795156,7.12850445 6.00138313,7 5.46935627,7 C4.4370129,7 3.35408791,7.48134604 2.21089232,8.49802323 L1.98144672,8.70851241 L1.98144672,8.70851241 L0.494302,7.29148759 C2.08726355,5.78566851 3.74953459,5 5.46935627,5 C6.70044687,5 7.35543717,5.37149555 8.32866958,6.29148759 C8.94224289,6.87149555 9.16881132,7 9.70083818,7 C10.232865,7 10.4594335,6.87149555 11.0730068,6.29148759 C12.0462392,5.37149555 12.7012295,5 13.9323201,5 C15.1634107,5 15.818401,5.37149555 16.7916334,6.29148759 C17.4052067,6.87149555 17.6317751,7 18.163802,7 C18.6958289,7 18.9223973,6.87149555 19.5359706,6.29148759 C20.509203,5.37149555 21.1641933,5 22.3952839,5 C23.6263745,5 24.2813648,5.37149555 25.2545972,6.29148759 C25.8681705,6.87149555 26.094739,7 26.6267658,7 C27.1587927,7 27.3853611,6.87149555 27.9989344,6.29148759 C28.9721668,5.37149555 29.6271571,5 30.8582477,5 Z M30.8582477,1 C32.5780694,1 34.2403405,1.78566851 35.833302,3.29148759 L34.3461573,4.70851241 C33.1181309,3.54766483 31.959414,3 30.8582477,3 C30.3262209,3 30.0996524,3.12850445 29.4860791,3.70851241 C28.5736737,4.57100494 27.9409733,4.95142049 26.8510625,4.99560332 L26.6267658,5 L26.6267658,5 C25.3956752,5 24.7406849,4.62850445 23.7674525,3.70851241 C23.1538792,3.12850445 22.9273108,3 22.3952839,3 C21.8632571,3 21.6366886,3.12850445 21.0231153,3.70851241 C20.1107099,4.57100494 19.4780095,4.95142049 18.3880987,4.99560332 L18.163802,5 L18.163802,5 C16.9327114,5 16.2777211,4.62850445 15.3044887,3.70851241 C14.6909154,3.12850445 14.4643469,3 13.9323201,3 C13.4002932,3 13.1737248,3.12850445 12.5601515,3.70851241 C11.6477461,4.57100494 11.0150457,4.95142049 9.92513484,4.99560332 L9.70083818,5 L9.70083818,5 C8.46974758,5 7.81475728,4.62850445 6.84152487,3.70851241 C6.22795156,3.12850445 6.00138313,3 5.46935627,3 C4.4370129,3 3.35408791,3.48134604 2.21089232,4.49802323 L1.98144672,4.70851241 L1.98144672,4.70851241 L0.494302,3.29148759 C2.08726355,1.78566851 3.74953459,1 5.46935627,1 C6.70044687,1 7.35543717,1.37149555 8.32866958,2.29148759 C8.94224289,2.87149555 9.16881132,3 9.70083818,3 C10.232865,3 10.4594335,2.87149555 11.0730068,2.29148759 C12.0462392,1.37149555 12.7012295,1 13.9323201,1 C15.1634107,1 15.818401,1.37149555 16.7916334,2.29148759 C17.4052067,2.87149555 17.6317751,3 18.163802,3 C18.6958289,3 18.9223973,2.87149555 19.5359706,2.29148759 C20.509203,1.37149555 21.1641933,1 22.3952839,1 C23.6263745,1 24.2813648,1.37149555 25.2545972,2.29148759 C25.8681705,2.87149555 26.094739,3 26.6267658,3 C27.1587927,3 27.3853611,2.87149555 27.9989344,2.29148759 C28.9721668,1.37149555 29.6271571,1 30.8582477,1 Z"></path>
                    </g>
                </g>
                <g id="mark-1" mask="url(#mask-4)">
                    <mask id="mask-6" fill="white">
                        <use xlink:href="#path-5"></use>
                    </mask>
                    <g id="mask"></g>
                    <rect id="Rectangle-4" fill="#2E42A5" mask="url(#mask-6)" x="0" y="0" width="14" height="12"></rect>
                    <g id="contents" mask="url(#mask-6)">
                        <g transform="translate(-4.000000, -2.000000)">
                            <g id="stripe">
                                <polygon id="white" fill="#FFFFFF" fill-rule="nonzero" transform="translate(12.080735, 7.761604) scale(1, -1) translate(-12.080735, -7.761604) " points="1.84221576 2.19003464 5.49847771 0.645856474 20.3906588 12.0665478 22.3192534 14.3612425 18.4094073 14.8773524 12.3352426 9.95584973 7.44616431 6.63990688"></polygon>
                                <polygon id="red" fill="#F50100" fill-rule="nonzero" transform="translate(11.984736, 8.129968) scale(1, -1) translate(-11.984736, -8.129968) " points="2.34276352 1.84487413 4.20546016 0.948761515 21.6267084 15.3111753 19.0112656 15.3111753"></polygon>
                            </g>
                            <g id="stripe" transform="translate(12.000000, 8.000000) scale(-1, 1) translate(-12.000000, -8.000000) translate(1.000000, 0.000000)">
                                <polygon id="white" fill="#FFFFFF" fill-rule="nonzero" transform="translate(11.080735, 7.761604) scale(1, -1) translate(-11.080735, -7.761604) " points="0.842215763 2.19003464 4.49847771 0.645856474 19.3906588 12.0665478 21.3192534 14.3612425 17.4094073 14.8773524 11.3352426 9.95584973 6.44616431 6.63990688"></polygon>
                                <polygon id="red" fill="#F50100" fill-rule="nonzero" transform="translate(11.235899, 8.087787) scale(1, -1) translate(-11.235899, -8.087787) " points="0.966971807 2.06593698 2.82966844 1.16982437 10.2478165 7.31911984 12.4471382 8.00616586 21.5048266 15.0057497 18.8893837 15.0057497 9.83678427 8.17230628 7.43221354 7.34846449"></polygon>
                            </g>
                            <g id="cross" transform="translate(4.000000, 2.000000)">
                                <path d="M8.50006394,-0.5 L8.49955242,3.5 L14.5154885,3.5 L14.5154885,6.5 L8.49955242,6.5 L8.50006394,10.5 L5.50006394,10.5 L5.49955242,6.5 L-0.484511519,6.5 L-0.484511519,3.5 L5.49955242,3.5 L5.50006394,-0.5 L8.50006394,-0.5 Z" id="red" stroke="#F7FCFF" fill="#F50100"></path>
                            </g>
                        </g>
                    </g>
                </g>
                <g id="mark" mask="url(#mask-4)">
                    <g transform="translate(15.000000, 2.000000)">
                        <rect id="Rectangle-6" fill="#D86D00" x="5.4" y="7.37864078" width="1" height="12.6213592" rx="0.5"></rect>
                        <g id="Group-20" stroke-width="1" fill="none">
                            <path d="M5.22935797,0.0522909756 C6.28539277,0.968862829 6.64671872,2.14354882 6.74811146,3.35534204 C7.44262796,2.5140118 8.46520849,1.70967656 9.81758174,0.945792715 C9.28531691,1.75904501 8.93451276,2.46373733 8.54349451,3.23415888 C8.42870947,3.46031935 8.31092421,3.69222829 8.18110281,3.92731672 C8.99971811,3.66755817 9.91384882,3.4906133 10.9217474,3.39702501 C12.0657558,3.29079828 13.1107991,3.31236832 14.0539,3.46140822 C13.0181133,3.45430745 11.9611568,3.46283376 10.9856992,3.73962879 C9.940721,4.03615094 8.97785445,4.64378331 8.04137407,5.23192186 C7.80095332,5.38291349 7.56228454,5.53278043 7.3245539,5.67639145 C9.22405428,6.4220956 10.3110226,7.37189652 10.6287632,8.49689725 C10.6851938,8.69669704 10.7180557,8.90448004 10.7269839,9.12015676 C10.5854607,8.92454568 10.4614327,8.77884792 10.3445378,8.67565804 C9.97459269,8.34908612 9.17332483,8.00444204 7.66706529,7.34493065 C7.47204203,7.25954029 7.2653606,7.16904533 7.04647519,7.07291757 C7.25064364,7.74324264 7.4840123,8.2968052 7.70805908,8.82891278 C6.83928853,9.05785139 6.21902307,8.75610716 5.76734994,8.36222715 C5.38580749,8.02950435 5.12404903,7.63230392 4.98147218,7.17090212 C3.83572369,8.03762467 2.64612575,8.5386568 2.06929839,8.74475771 C1.90743968,8.80258996 1.69354159,8.87303286 1.43790819,8.9455515 C1.58073444,8.78891431 1.72866619,8.62752834 1.88170359,8.46139467 C2.77527617,7.49135405 3.52179045,6.70805564 4.12103166,6.11148832 C3.28944089,6.0289615 2.08379513,5.94857632 0.503885582,5.87093323 C0.0730113091,5.84975835 -0.330180603,5.83151583 -0.705508796,5.81618692 C-0.291242663,5.70782886 0.107060623,5.61281344 0.471926868,5.52590665 C1.54171365,5.2710962 2.8995049,4.94892731 4.21162339,4.8757095 C3.2857997,4.29709398 2.5213209,3.5882911 1.91652306,2.75075018 C2.3104151,2.61666297 2.80038613,2.80224723 3.49824924,3.07355084 C3.95249981,3.25014683 4.49296911,3.4602718 5.08643895,3.70408389 C5.13773987,2.73982841 5.18542851,1.52208724 5.22935797,0.0522909756 Z" id="Combined-Shape" stroke="#FFFFFF" stroke-width="0.35" fill="#449A01" fill-rule="nonzero"></path>
                        </g>
                        <g id="crown" stroke-width="1" fill="none" transform="translate(2.300000, 11.262136)">
                            <path d="M3.65260699,1.34801915 L3.6519167,1.35163013 L3.86087733,1.33507611 C4.35591648,1.31617962 4.8457702,1.43579338 5.3304385,1.69391738 C5.90686892,1.69391738 6.45843519,1.92137887 6.9851373,2.37630186 L6.9851373,2.55673811 L5.95233399,3.80508578 C5.74585406,4.49399409 5.37779927,4.53033519 5.09109498,4.64509521 C4.99637659,4.68300843 3.64840023,4.72728851 3.64840023,4.72728851 L3.6479167,4.72363013 L3.43136263,4.75068691 C2.20822812,4.87785814 1.50501391,4.56265777 1.32172002,3.80508578 L0.288916701,2.55673811 L0.288916701,2.37630186 C0.815618818,1.92137887 1.36718509,1.69391738 1.9436155,1.69391738 C2.51549094,1.39649474 3.08515477,1.28119533 3.65260699,1.34801915 Z M3.6479167,1.40363013 L3.65260699,1.34801915 C3.50590033,3.31663049 3.50447137,4.43920356 3.64832011,4.71573835 L3.6479167,1.40363013 Z" id="Combined-Shape" fill="#F50100"></path>
                            <path d="M3.8912,2.11003236 L3.69931748,2.10883795 C3.73168571,2.14680277 3.7564726,2.1977023 3.76781097,2.25603317 C3.77945305,2.31592648 3.77501398,2.37386692 3.75815092,2.42195144 L3.77194506,2.41638985 L3.77194506,2.41638985 L3.84,2.40978667 C3.9813849,2.40978667 4.096,2.49254879 4.096,2.59464104 C4.096,2.69673329 3.9813849,2.77949541 3.84,2.77949541 C3.80446063,2.77949541 3.7706127,2.77426609 3.73985143,2.76481492 C3.75031782,3.02073248 3.86556029,3.18199602 4.03416299,3.18199602 C4.15782657,3.18199602 4.2447981,3.11398179 4.30786223,2.96408025 L4.30786223,2.96408025 L4.48291572,2.54798336 L4.50150206,3.01383685 C4.5080555,3.17809402 4.56742349,3.24325874 4.71512259,3.24325874 C4.86634562,3.24325874 4.97256895,3.12487712 5.04219798,2.8563333 L5.04219798,2.8563333 L5.0653359,2.77340535 C5.01296942,2.80901337 4.93753437,2.82595488 4.85715886,2.81465884 C4.71714991,2.79498187 4.61516849,2.69707384 4.62937699,2.59597515 C4.64358548,2.49487646 4.76860342,2.42887111 4.90861237,2.44854808 C4.94562623,2.45375004 4.97998233,2.4644196 5.01023649,2.47917024 L4.99935753,2.45178215 L4.99935753,2.45178215 L4.98920168,2.38416606 C4.98180217,2.24297493 5.05845238,2.12418547 5.16040471,2.11884237 C5.26235705,2.11349928 5.35100424,2.22362587 5.35840375,2.364817 C5.36180101,2.42964061 5.34748137,2.48974214 5.32113031,2.53631048 L5.347318,2.53137143 L5.347318,2.53137143 L5.41562962,2.53430394 C5.55563857,2.55398091 5.65761999,2.65188894 5.64341149,2.75298763 C5.629203,2.85408632 5.50418506,2.92009167 5.36417611,2.90041469 C5.31750646,2.8938557 5.27506209,2.87860437 5.23973791,2.85743998 L5.24194488,2.88209854 C5.26466865,3.18883226 5.33416055,3.33277457 5.4371484,3.35294336 C5.57736561,3.38040301 5.68382889,3.36738338 5.75816839,3.31896688 L5.75816839,3.31896688 L5.90930533,3.22053306 L5.90930533,3.38799893 C5.95682497,3.3940749 6.03835284,3.38334489 6.14989502,3.35415715 L6.14989502,3.35415715 L6.18160844,3.5336821 L6.54953637,3.11884104 C6.53479532,3.12430655 6.51977905,3.1276543 6.50477698,3.12866484 L6.45510901,3.12304222 C6.44031639,3.11851966 6.42671742,3.11161061 6.41443378,3.10267179 L6.40954872,3.12027354 C6.36161931,3.21041564 6.22156572,3.22968173 6.09673026,3.16330554 C5.97189481,3.09692935 5.90955014,2.9700462 5.95747955,2.8799041 C6.00540896,2.78976199 6.14546255,2.77049591 6.270298,2.8368721 C6.29698384,2.85106121 6.32081405,2.8680153 6.34132186,2.88678439 L6.35317905,2.82418201 C6.394516,2.68897497 6.50717202,2.6035653 6.60480332,2.63341418 C6.70243463,2.66326307 6.74807022,2.79706734 6.70673328,2.93227439 C6.70509292,2.93763975 6.70334026,2.94292669 6.70148069,2.94813113 L6.93705045,2.67874906 L7.00721804,2.76850528 L6.06797043,3.83198473 C5.93093564,4.13570395 5.86192813,4.3361726 5.86192813,4.41944588 C5.86192813,4.54649036 5.58728772,4.62189433 5.051278,4.69934662 C4.59514088,4.76525749 4.04973552,4.80762863 3.62764262,4.80762863 L3.72960844,4.8046821 L3.73041804,4.80762863 L3.67860844,4.8056821 L3.62764262,4.80762863 L3.62760844,4.8046821 L3.46406545,4.80269474 C3.09373372,4.78973858 2.67169235,4.75207532 2.30678265,4.69934662 C1.77077294,4.62189433 1.49613253,4.54649036 1.49613253,4.41944588 L1.49362012,4.39289054 C1.43765841,4.32697877 1.39338483,4.19483621 1.3607994,3.99646285 C1.34046415,3.94540286 1.31654482,3.89061779 1.29009023,3.83198473 L1.08201425,3.59637273 C1.08026392,3.59591928 1.0785094,3.59546244 1.07675069,3.59500223 L1.07760844,3.5906821 L0.701608439,3.1646821 C0.61001121,3.16078899 0.526036619,3.08269796 0.491589167,2.97002542 L0.479608439,2.9136821 L0.350842618,2.76850528 L0.421010203,2.67874906 L0.496625666,2.76495497 C0.516331631,2.7189239 0.54968466,2.68456676 0.593519122,2.67116522 C0.691150426,2.64131633 0.803806448,2.726726 0.845143391,2.86193305 L0.856699577,2.92481126 C0.877275094,2.90593243 0.901207937,2.88888172 0.928024442,2.87462313 C1.0528599,2.80824694 1.19291349,2.82751303 1.24084289,2.91765513 C1.2887723,3.00779724 1.22642763,3.13468038 1.10159218,3.20105657 C1.03838933,3.23466213 0.971285622,3.24631509 0.914211588,3.23793179 L1.10260844,3.4506821 L1.12026399,3.35415715 C1.23180617,3.38334489 1.31333405,3.3940749 1.36085369,3.38799893 L1.36085369,3.22053306 L1.51199063,3.31896688 C1.58633012,3.36738338 1.69279341,3.38040301 1.83301061,3.35294336 C1.93599847,3.33277457 2.00549037,3.18883226 2.02821414,2.88209854 L2.03671635,2.77232077 C2.00453128,2.84784072 1.907143,2.90273166 1.792,2.90273166 C1.6506151,2.90273166 1.536,2.81996954 1.536,2.71787729 C1.536,2.61578504 1.6506151,2.53302292 1.792,2.53302292 C1.83449273,2.53302292 1.87456739,2.54049867 1.90983918,2.55372813 L1.88836218,2.51535781 L1.88836218,2.51535781 L1.86889482,2.44981317 C1.84191731,2.31102592 1.90128927,2.18272486 2.00150579,2.16324474 C2.10172232,2.14376462 2.20483346,2.24048216 2.23181097,2.37926942 C2.24345305,2.43916273 2.23901398,2.49710316 2.22215092,2.54518769 L2.23594506,2.5396261 L2.23594506,2.5396261 L2.304,2.53302292 C2.4453849,2.53302292 2.56,2.61578504 2.56,2.71787729 C2.56,2.81996954 2.4453849,2.90273166 2.304,2.90273166 C2.28182198,2.90273166 2.26030265,2.90069522 2.23978108,2.89686717 L2.22796103,2.8563333 C2.29759007,3.12487712 2.4038134,3.24325874 2.55503642,3.24325874 C2.70273553,3.24325874 2.76210352,3.17809402 2.76865695,3.01383685 L2.78724329,2.54798336 L2.96229678,2.96408025 C3.02536092,3.11398179 3.11233245,3.18199602 3.23599603,3.18199602 C3.41286137,3.18199602 3.53100833,3.00453922 3.53100833,2.72610758 L3.66077116,2.72663313 C3.6133932,2.69308493 3.584,2.6463416 3.584,2.59464104 C3.584,2.57685224 3.58747976,2.55965031 3.59397458,2.54337081 C3.58632647,2.54341019 3.57855103,2.54189818 3.57086284,2.53976672 L3.57485543,2.54549943 L3.584,2.59464104 C3.584,2.69673329 3.4693849,2.77949541 3.328,2.77949541 C3.1866151,2.77949541 3.072,2.69673329 3.072,2.59464104 C3.072,2.49254879 3.1866151,2.40978667 3.328,2.40978667 C3.37049273,2.40978667 3.41056739,2.41726242 3.44583918,2.43049189 L3.42436218,2.39212156 L3.42436218,2.39212156 L3.40489482,2.32657693 C3.38356645,2.21685196 3.41621043,2.11368134 3.48034008,2.06565818 L3.48060844,1.9356821 L3.39984442,1.93637481 L3.39984442,0.853409121 C3.247031,0.693668705 3.02752758,0.61215459 2.7367245,0.61215459 C2.26847943,0.61215459 2.07619309,0.749402369 1.96634051,1.15463673 C1.89633365,1.41288452 1.9642306,1.63329736 2.18438009,1.83904002 L2.05876905,2.03370961 C1.78536185,1.77819447 1.68175195,1.46759713 1.76060482,1.1223649 L1.79905711,1.12317344 C1.24972288,1.09638225 0.841035048,1.1634264 0.575182188,1.31960694 C0.350041206,1.45187048 0.308859887,1.78745558 0.479225359,2.37123071 L0.285996554,2.4529049 C0.085511537,1.765922 0.142764563,1.29936912 0.485342761,1.09811476 C0.787209081,0.920777402 1.22714854,0.848606499 1.80734971,0.876903086 L1.80360844,0.972682098 L1.80952734,0.955685453 C1.95933578,0.53043955 2.23220676,0.365682098 2.7367245,0.365682098 C3.04384112,0.365682098 3.29317317,0.44835422 3.48124943,0.616174296 L3.4816,0.507961165 L3.8912,0.507961165 L3.89071158,0.570906208 C4.06742104,0.446255445 4.28936677,0.384724919 4.55431992,0.384724919 C5.10470291,0.384724919 5.37940711,0.580799903 5.51940437,1.09723474 L5.49560844,1.0226821 L5.49540844,1.00013933 C6.00308446,0.975379818 6.40337262,1.02754073 6.69773907,1.15977 L6.81741539,1.22135101 C7.15999359,1.42260537 7.21724661,1.88915824 7.0167616,2.57614115 L7.0167616,2.57614115 L6.82353279,2.49446695 C6.99389826,1.91069182 6.95271695,1.57510673 6.72757596,1.44284319 C6.4617231,1.28666265 6.05303527,1.21961849 5.50370104,1.24640969 L5.5488013,1.24525462 C5.58655433,1.54901276 5.47798148,1.82312559 5.23227536,2.05275243 L5.23227536,2.05275243 L5.10666433,1.85808284 C5.32681382,1.65234018 5.39471077,1.43192734 5.32470391,1.17367955 C5.21485133,0.76844519 5.02256499,0.631197411 4.55431992,0.631197411 C4.26351683,0.631197411 4.04401342,0.712711526 3.8912,0.872451942 L3.8912,0.872451942 L3.8912,2.11003236 Z M3.62260844,4.1566821 L3.66446499,4.15417796 C2.48822696,4.24027876 1.81810896,4.32950555 1.65411097,4.42185834 L1.64260844,4.4256821 L1.66489819,4.43652611 C1.69511942,4.44833225 1.73290652,4.46050083 1.77758166,4.47276663 C1.90929917,4.50893036 2.09678958,4.5448817 2.31898982,4.57698917 C2.75374984,4.6398111 3.27087915,4.68110779 3.68144572,4.68420512 C4.08733955,4.68109517 4.60437725,4.6398015 5.03907083,4.57698917 C5.26127108,4.5448817 5.44876149,4.50893036 5.580479,4.47276663 C5.64749171,4.45436794 5.69900633,4.43618796 5.73273518,4.41912189 C5.74481918,4.41300765 5.75402997,4.40731197 5.76003208,4.40257834 C5.76045022,4.39529556 5.76112861,4.38765617 5.76206748,4.37965717 C5.71553599,4.44500369 5.65862517,4.45898602 5.59269467,4.42185834 C5.42869668,4.32950555 4.75857868,4.24027876 3.58234065,4.15417796 L3.62260844,4.1566821 Z M5.10014394,3.26207737 C5.02581686,3.37603797 4.93291782,3.44878171 4.82238973,3.4767434 C5.19697845,3.53613439 5.56189431,3.62850616 5.91726499,3.75021097 C5.90893145,3.83613878 5.89918542,3.91406271 5.8880269,3.98398275 L5.92544366,3.89209851 L5.92544366,3.89209851 L5.98194621,3.76440288 L5.99182692,3.74899487 L6.11030195,3.61484623 C5.94259769,3.65057186 5.82149876,3.64696165 5.75724803,3.58399948 C5.65674067,3.61919605 5.5388541,3.62257546 5.40425491,3.59621602 C5.26049718,3.568063 5.1603856,3.45298297 5.10014394,3.26207737 Z" id="Combined-Shape" fill="#FECA00" fill-rule="nonzero"></path>
                            <g id="top" transform="translate(0.000000, 0.138252)" fill="#FFFFFF" fill-rule="nonzero">
                                <path d="M1.83276173,0.638009077 L1.83097426,0.761226546 C0.922996034,0.742149199 0.402170153,0.901615594 0.269961013,1.21944395 C0.133276589,1.54803081 0.158693085,1.94746997 0.350216464,2.42196045 L0.25810893,2.47580806 C0.0537634258,1.96955135 0.0258565794,1.53097448 0.178394352,1.16427646 C0.33540741,0.786819939 0.886375071,0.618124738 1.83276173,0.638009077 Z" id="Path-311"></path>
                                <path d="M2.00843922,1.73078867 L1.95594304,1.83659843 C1.75820955,1.69450984 1.65924536,1.45202576 1.65924536,1.11785646 C1.65924536,0.637586845 1.86481658,0.355953466 2.31953984,0.163222129 C2.60975368,0.0402169872 3.00619683,0.090650174 3.5099845,0.310470708 L3.47508137,0.426327248 C2.9914555,0.215304021 2.61724177,0.167698733 2.35355538,0.279460402 C1.93647053,0.456238954 1.76164536,0.695750125 1.76164536,1.11785646 C1.76164536,1.41110622 1.84384502,1.61251353 2.00843922,1.73078867 Z" id="Path-312"></path>
                                <path d="M7.15756173,0.761245323 L7.15577426,0.884462792 C6.24779603,0.865385445 5.72697015,1.02485184 5.59476101,1.3426802 C5.45807659,1.67126706 5.48349309,2.07070622 5.67501646,2.5451967 L5.58290893,2.59904431 C5.37856343,2.0927876 5.35065658,1.65421073 5.50319435,1.28751271 C5.66020741,0.910056185 6.21117507,0.741360984 7.15756173,0.761245323 Z" id="Path-311" transform="translate(6.281871, 1.679360) scale(-1, 1) translate(-6.281871, -1.679360) "></path>
                                <path d="M3.93319386,1.75641241 L3.88069768,1.86222218 C3.68296418,1.72013359 3.584,1.4776495 3.584,1.1434802 C3.584,0.66321059 3.78957122,0.381577211 4.24429448,0.188845874 C4.53450831,0.0658407318 4.93095147,0.116273919 5.43473913,0.336094453 L5.39983601,0.451950992 C4.91621013,0.240927766 4.54199641,0.193322477 4.27831002,0.305084146 C3.86122517,0.481862698 3.6864,0.72137387 3.6864,1.1434802 C3.6864,1.43672996 3.76859966,1.63813727 3.93319386,1.75641241 Z" id="Path-312" transform="translate(4.509370, 0.992729) scale(-1, 1) translate(-4.509370, -0.992729) "></path>
                            </g>
                        </g>
                    </g>
                </g>
            </g>
        </g>
    </g>
</svg>