<?xml version="1.0" encoding="UTF-8"?>
<svg width="32px" height="24px" viewBox="0 0 32 24" version="1.1" xmlns="http://www.w3.org/2000/svg" xmlns:xlink="http://www.w3.org/1999/xlink">
    <title>flags/L/IQ - Iraq</title>
    <defs>
        <rect id="path-1" x="0" y="0" width="32" height="24"></rect>
        <rect id="path-3" x="0" y="0" width="32" height="24"></rect>
    </defs>
    <g id="Symbols" stroke="none" stroke-width="1" fill="none" fill-rule="evenodd">
        <g id="flag">
            <mask id="mask-2" fill="white">
                <use xlink:href="#path-1"></use>
            </mask>
            <g id="mask"></g>
            <g id="contents" mask="url(#mask-2)">
                <mask id="mask-4" fill="white">
                    <use xlink:href="#path-3"></use>
                </mask>
                <use id="background" fill="#F7FCFF" xlink:href="#path-3"></use>
                <rect id="top" fill="#BF2714" mask="url(#mask-4)" x="0" y="0" width="32" height="8"></rect>
                <rect id="bottom" fill="#272727" mask="url(#mask-4)" x="0" y="16" width="32" height="8"></rect>
                <g id="mark" mask="url(#mask-4)" fill="#009C4E">
                    <g transform="translate(4.000000, 8.000000)" id="Combined-Shape">
                        <path d="M8.77878058,1 L9.36881845,1.52086764 L6.33411598,4.19981147 L9.47059799,4.19981147 C9.58987364,3.58326161 9.91419359,3.27498668 10.4435579,3.27498668 C10.9729221,3.27498668 11.299774,3.58326161 11.4241136,4.19981147 L11.4241136,6.12563607 L2.50674446,6.12563607 C2.22857544,6.70854536 1.72632729,7 1,7 C1.83081804,6.41106736 1.94302622,5.68146921 1.33662455,4.81120556 L2.08949094,4.23511416 C2.1093675,4.6191751 2.28775686,4.81120556 2.62465901,4.81120556 C2.96156117,4.81120556 3.39656914,4.88359683 3.92968294,5.02837938 L3.92968294,4.23511416 L4.58261131,3.94368661 L4.58261131,5.02837938 L10.6127046,5.02837938 L10.6127046,4.23511416 C10.6489854,4.0917832 10.5926031,4.02011772 10.4435579,4.02011772 C10.2945126,4.02011772 10.2110337,4.0917832 10.1931212,4.23511416 L10.1931212,4.60651124 L5.40801154,4.60651124 L5.40801154,3.97561325 L8.77878058,1 Z M3.49178227,6.46553779 C3.64822368,6.46553779 3.7750445,6.57749138 3.7750445,6.71559314 C3.7750445,6.8536949 3.64822368,6.96564849 3.49178227,6.96564849 C3.33534086,6.96564849 3.20852005,6.8536949 3.20852005,6.71559314 C3.20852005,6.57749138 3.33534086,6.46553779 3.49178227,6.46553779 Z M21.0540403,1.21437543 L21.8748645,1.47713074 L21.8748645,4.88530394 L22.51097,4.88530394 L23,6.1030653 L21.0540403,6.1030653 L21.0540403,1.21437543 Z M11.989649,1.21437543 L12.8104733,1.47713074 L12.8104733,4.88530394 L13.4465788,4.88530394 L13.9356088,6.1030653 L11.989649,6.1030653 L11.989649,1.21437543 Z M20.1014861,1.26496452 L20.0964598,6.06283158 L15.7653422,6.06283158 C15.7653422,4.89025964 16.1800294,4.27538407 17.0094039,4.21820489 L17.0094039,4.21820489 L17.0094039,3.81576432 L17.6561694,3.39950226 L17.6561694,4.88193041 L18.2271486,4.88193041 L18.2271486,2.74680452 L19.0779543,2.25628872 L19.0779543,4.88193041 L19.5944672,4.88193041 L19.5944672,1.60814913 L20.1014861,1.26496452 Z M18.9197529,1.4223932 C18.7894485,1.67678269 18.4543698,1.74987198 17.9145168,1.64166106 C17.7679155,1.83493953 17.4721265,1.83493953 17.0271499,1.64166106 L17.0271499,1.64166106 Z"></path>
                    </g>
                </g>
            </g>
        </g>
    </g>
</svg>