<?xml version="1.0" encoding="UTF-8"?>
<svg width="32px" height="24px" viewBox="0 0 32 24" version="1.1" xmlns="http://www.w3.org/2000/svg" xmlns:xlink="http://www.w3.org/1999/xlink">
    <title>flags/L/KG - Kyrgyzstan</title>
    <defs>
        <rect id="path-1" x="0" y="0" width="32" height="24"></rect>
        <rect id="path-3" x="0" y="0" width="32" height="24"></rect>
    </defs>
    <g id="Symbols" stroke="none" stroke-width="1" fill="none" fill-rule="evenodd">
        <g id="flag">
            <mask id="mask-2" fill="white">
                <use xlink:href="#path-1"></use>
            </mask>
            <g id="mask"></g>
            <g id="contents" mask="url(#mask-2)">
                <mask id="mask-4" fill="white">
                    <use xlink:href="#path-3"></use>
                </mask>
                <use id="background" fill="#C51918" xlink:href="#path-3"></use>
                <g id="mark" mask="url(#mask-4)" fill="#FFDC17">
                    <g transform="translate(8.000000, 4.000000)" id="sun">
                        <path d="M7.98922664,2.84217094e-14 L8.36962654,2.0122558 C8.58220671,2.02574076 8.79176682,2.05023912 8.99773312,2.08518176 L9.83531193,0.214022823 L9.73782882,2.25969134 C9.94022981,2.32123873 10.1380622,2.39314872 10.3306971,2.47479744 L11.5818743,0.844553265 L11.0098848,2.8151058 C11.1915225,2.9210474 11.3670235,3.03622976 11.535731,3.16000156 L13.1347561,1.85759927 L12.1194424,3.6480557 C12.2703901,3.79147239 12.4137746,3.94265813 12.548943,4.10096523 L14.410241,3.19854726 L13.0041893,4.70854747 C13.1177921,4.88224378 13.2224843,5.06220458 13.3176237,5.24779281 L15.3395674,4.79510638 L13.6195822,5.9442288 C13.6891331,6.13814155 13.748803,6.33670114 13.797991,6.53931152 L15.8726351,6.56120572 L13.9288766,7.28636182 C13.9521132,7.49887676 13.9640364,7.71475865 13.9640364,7.93340271 L13.963,7.904 L15.9807061,8.40163441 L13.919312,8.66258657 C13.8937691,8.86932706 13.8575051,9.07278004 13.8110885,9.27238174 L15.6579545,10.2171745 L13.5911945,10.0000041 C13.5184778,10.1941004 13.4358139,10.3833996 13.343817,10.5672922 L14.9217797,11.9099496 L12.9600614,11.2247488 C12.8445285,11.3963177 12.7202197,11.5615781 12.5877716,11.7198986 L13.8118692,13.388702 L12.0608051,12.2737188 C11.9090568,12.4140761 11.7499401,12.546697 11.5840934,12.6709484 L12.3880585,14.5737116 L10.9449552,13.0890281 C10.7649768,13.1910067 10.5791435,13.2839809 10.388079,13.3673318 L10.7271057,15.4010943 L9.66881777,13.6276457 C9.47038212,13.6853827 9.26766725,13.7331923 9.06125698,13.7704954 L8.91855306,15.8262456 L8.30162314,13.8584817 C8.19579374,13.8640076 8.08923536,13.8668054 7.98201818,13.8668054 C7.87987437,13.8668054 7.77832849,13.8642662 7.67744121,13.8592478 L7.05990022,15.8262456 L6.91665549,13.7729863 C6.70961146,13.7360707 6.50626649,13.6885878 6.30720835,13.6311206 L5.25134762,15.4010943 L5.58901706,13.3730105 C5.39655664,13.2895962 5.20937653,13.1964276 5.02811195,13.0941347 L3.59039478,14.5737116 L4.39082278,12.6790803 C4.22285016,12.5538288 4.06174245,12.4200078 3.90815961,12.2782721 L2.16658411,13.388702 L3.38466671,11.7299195 C3.25010771,11.5697892 3.12389238,11.4025193 3.00668302,11.2287668 L1.0566736,11.9099496 L2.62471565,10.5762608 C2.53122929,10.3901834 2.44730698,10.1985494 2.37358715,10.0019922 L0.320498825,10.2171745 L2.15435156,9.27840357 C2.10711134,9.07622833 2.07028945,8.87009296 2.04447725,8.66058401 L-0.00225285229,8.40163441 L2.00005213,7.90836697 C2.00093422,7.69656944 2.01300426,7.48739055 2.03570641,7.28138162 L0.105818199,6.56120572 L2.1660454,6.53931152 C2.21591358,6.33389913 2.27655565,6.13265035 2.3473454,5.93618628 L0.638885839,4.79510638 L2.64742417,5.24582063 C2.74393642,5.05772853 2.8502629,4.87542155 2.96573458,4.69956327 L1.56821225,3.19854726 L3.41934149,4.09599541 C3.55626883,3.93598297 3.70159911,3.78326681 3.8546561,3.63851768 L2.84369722,1.85759927 L4.43622509,3.1542012 C4.60620448,3.02992354 4.7830524,2.91435373 4.96609977,2.80815542 L4.396579,0.844553265 L5.64444869,2.47010192 C5.83803923,2.38850895 6.03685601,2.31674331 6.2402626,2.25543626 L6.14314135,0.214022823 L6.98022971,2.08283594 C7.18655489,2.04833121 7.39646781,2.02430362 7.60939306,2.0113239 L7.98922664,2.84217094e-14 Z M7.94601638,3.41653854 C5.44084607,3.41653854 3.41000428,5.43087581 3.41000428,7.91568676 C3.41000428,10.4004977 5.44084607,12.414835 7.94601638,12.414835 C10.4511867,12.414835 12.4820285,10.4004977 12.4820285,7.91568676 C12.4820285,5.43087581 10.4511867,3.41653854 7.94601638,3.41653854 Z M9.1225678,11.2202525 L9.05930324,11.2432554 C8.71862199,11.3566672 8.3541832,11.41808 7.97540068,11.41808 C7.46720082,11.41808 6.98482064,11.3075327 6.5509954,11.1091734 C6.56611267,9.92652447 6.96547347,8.8705752 7.75022063,7.93603618 C8.40803679,8.78367548 8.86191583,9.9586701 9.1225678,11.2202525 Z M9.86636875,10.8500559 L9.8560637,10.8568427 C9.79557051,10.8965911 9.73374435,10.9344771 9.67066677,10.9704191 L9.70070736,11.1178893 C9.44010022,9.7208154 8.91918815,8.62746244 8.18347908,7.76010585 L8.35540191,7.63036535 C8.37784831,7.61344011 8.40070679,7.59653355 8.42397626,7.57966248 C9.33345642,8.62321101 9.90593867,9.51888074 9.86636875,10.8500559 Z M7.31535765,7.52899604 L7.3935794,7.59290315 C6.55739561,8.54399969 6.09981952,9.61642724 6.02165067,10.8061565 C5.91888434,10.7361028 5.82010233,10.6591744 5.72584223,10.5771817 C6.04154955,9.31813654 6.56405021,8.28042039 7.31535765,7.52899604 Z M8.93283088,7.35981027 L8.78330204,7.29217146 C9.99685521,7.78363053 10.6830506,9.14279608 10.7247086,10.0401951 C10.6263168,10.1704881 10.5193248,10.2942143 10.4041399,10.4097689 C10.3410137,9.22948704 9.83687791,8.32989588 8.93283088,7.35981027 Z M6.899,7.355 L6.85155011,7.40122143 C6.12669382,8.11718158 5.58301503,8.934255 5.24824247,10.0676365 C5.2219202,10.0336917 5.19575667,9.99804447 5.17027472,9.96188244 C5.23237461,9.06771237 5.81627442,7.7894111 6.99912301,7.31038663 L6.899,7.355 Z M11.1236072,6.6270776 C11.3044163,7.04451161 11.4046327,7.50497636 11.4046327,7.98884792 C11.4046327,8.48426773 11.2995756,8.95515013 11.110524,9.38043232 C10.8735306,8.53397863 10.3333315,7.67432696 9.1397778,7.15180314 C9.71405983,6.86910584 10.4355849,6.65228114 11.2938093,6.61629317 Z M4.82027535,6.64937745 C5.60586879,6.73810412 6.2259952,6.92935076 6.69060654,7.15062317 C5.5038605,7.65417205 5.03740126,8.46506313 4.80272999,9.2921097 C4.63735019,8.89064123 4.54616865,8.45039287 4.54616865,7.98884792 C4.54616865,7.54693499 4.62975826,7.12454546 4.78198871,6.73662812 Z M7.97540068,4.55961588 C8.93229876,4.55961588 9.79765631,4.95154748 10.4197009,5.58363828 C9.43986482,5.69729066 8.61033171,5.94264189 7.93672154,6.32422178 C7.33619035,5.97966544 6.52452272,5.74669299 5.50364761,5.61395134 C6.12619511,4.96385872 7.00358991,4.55961588 7.97540068,4.55961588 Z"></path>
                    </g>
                </g>
            </g>
        </g>
    </g>
</svg>