<?xml version="1.0" encoding="UTF-8"?>
<svg width="32px" height="24px" viewBox="0 0 32 24" version="1.1" xmlns="http://www.w3.org/2000/svg" xmlns:xlink="http://www.w3.org/1999/xlink">
    <title>flags/L/KI -  Kiribati</title>
    <defs>
        <rect id="path-1" x="0" y="0" width="32" height="24"></rect>
        <rect id="path-3" x="0" y="0" width="32" height="24"></rect>
        <path d="M0.207966326,2.48589756 L2.82281301,1.42470626 C3.20396266,1.27002312 3.63073935,1.27190683 4.01050869,1.42994853 L7.6412582,2.9408915 C8.05205378,3.11184482 8.51625431,3.09951989 8.9173996,2.90700884 L11.8460088,1.50155883 C12.2660497,1.29997968 12.7541414,1.29639758 13.1770957,1.49179001 L16.2445414,2.90885945 C16.6577858,3.09976619 17.133744,3.1009334 17.5479198,2.91205578 L20.6866596,1.48068844 C21.1007045,1.29187055 21.5764998,1.2929746 21.9896639,1.48371196 L25.0885287,2.9143041 C25.4952183,3.10205253 25.9629342,3.10619667 26.3728868,2.92568402 L29.7589833,1.43469867 C30.1255823,1.27327568 30.5401809,1.25883769 30.917121,1.39436767 L33.9529176,2.48589756 L33.9529176,2.48589756 L33.9529176,12.4995438 L0.118995791,12.4995438 L0.207966326,2.48589756 Z" id="path-5"></path>
    </defs>
    <g id="Symbols" stroke="none" stroke-width="1" fill="none" fill-rule="evenodd">
        <g id="flag">
            <mask id="mask-2" fill="white">
                <use xlink:href="#path-1"></use>
            </mask>
            <g id="mask"></g>
            <g id="contents" mask="url(#mask-2)">
                <mask id="mask-4" fill="white">
                    <use xlink:href="#path-3"></use>
                </mask>
                <use id="background" fill="#E31D1C" xlink:href="#path-3"></use>
                <g id="mark" mask="url(#mask-4)">
                    <g transform="translate(-1.000000, 2.000000)">
                        <path d="M17.0512264,6.1827534 C16.9100581,6.4421026 16.8537852,6.74816126 16.8824077,7.10092938 C16.9057841,7.38904009 16.9476039,7.67616395 17.0078672,7.96230095 C17.0268034,7.96246886 17.0430332,7.96405957 17.0592279,7.96576706 L17.007205,8.15238399 C17.096515,7.80175121 17.2097779,7.46574736 17.3469938,7.14437244 C17.4842097,6.82299752 17.7510159,6.57210905 18.1474127,6.39170703 C17.9515216,6.61265316 17.8278427,6.89820891 17.7763761,7.24837426 C17.7350206,7.52974548 17.7112757,7.81420201 17.7051412,8.10174384 C17.7220651,8.10558414 17.7354084,8.10990855 17.7487139,8.11431516 L17.6470759,8.29255975 C17.8185587,7.97394831 18.0097439,7.67532599 18.2206315,7.3966928 C18.4315191,7.11805961 18.7510956,6.93916989 19.1793608,6.86002362 C18.9358368,7.02701637 18.7467496,7.27416926 18.612099,7.60148229 C18.5079329,7.85469266 18.418913,8.11462662 18.3450391,8.38128419 C18.3679759,8.39345274 18.3887708,8.40566372 18.4094164,8.41809412 L18.2488002,8.59067647 C18.48756,8.31880626 18.7410205,8.07084494 19.0091819,7.84679249 C19.2773433,7.62274003 19.6289705,7.52032429 20.0640633,7.53954526 C19.7892157,7.64747703 19.5493774,7.84576002 19.3445485,8.13439426 C19.1926554,8.3484342 19.0529331,8.57162469 18.9253819,8.80396574 C18.9490063,8.82358665 18.97064,8.84381292 18.9919937,8.86432422 L18.7642868,9.02007339 C19.0580846,8.80888046 19.3608282,8.62429059 19.6725175,8.46630377 C19.9842067,8.30831696 20.3498602,8.28762502 20.7694779,8.40422796 C20.4773952,8.44756617 20.1991,8.58681531 19.9345923,8.82197539 C19.7494694,8.98655853 19.5730763,9.16152221 19.4054129,9.34686644 C19.4245956,9.37395809 19.4431068,9.40123241 19.4612087,9.42879542 L19.1643531,9.53875531 C19.5005161,9.40491184 19.8389232,9.29904537 20.1795744,9.2211559 C20.5202256,9.14326643 20.8800235,9.21164871 21.2589679,9.42630275 C20.9650769,9.39769243 20.6613608,9.46547958 20.3478197,9.6296642 C20.1440007,9.73639329 19.9453225,9.85363356 19.7517853,9.981385 C19.7692096,10.0230051 19.7852409,10.0646983 19.8004233,10.106792 C20.0325588,10.0838803 20.2643292,10.0723378 20.4943206,10.0728227 C20.8437622,10.0735594 21.1789558,10.2211259 21.4999013,10.5155223 C21.2199786,10.4215342 20.9087979,10.4192627 20.5663594,10.5087079 C20.35879,10.5629252 20.1535201,10.627053 19.9505497,10.7010914 C19.960775,10.7540225 19.9676878,10.8067761 19.9733125,10.8599103 C20.1875581,10.8871487 20.3977902,10.9256558 20.6042509,10.9737797 C20.9445707,11.0531048 21.237978,11.2722914 21.4844729,11.6313395 C21.2328673,11.4767913 20.9301732,11.4045777 20.5763905,11.4146985 C20.3776175,11.4203848 20.178854,11.4348123 19.9801001,11.4579808 C19.9768569,11.5179859 19.9708608,11.5748305 19.9634103,11.631221 C20.1496918,11.7047357 20.3311928,11.7876739 20.5074694,11.8779599 C20.8184898,12.0372595 21.0501557,12.320917 21.202467,12.7289323 C20.9957237,12.518106 20.719491,12.3748091 20.3737688,12.2990415 C20.1951946,12.2599056 20.014841,12.2279399 19.8327081,12.2031443 C19.8120844,12.2703848 19.7891231,12.3339589 19.7642616,12.3965846 C19.9158073,12.5021818 20.0613454,12.6148864 20.2011381,12.7326895 C20.4683524,12.9578706 20.6302717,13.2863714 20.6868958,13.7181919 C20.532877,13.466262 20.2959588,13.2644989 19.9761415,13.1129026 C19.8216915,13.0396919 19.664316,12.9722386 19.5040149,12.9105425 C19.464767,12.9751993 19.4236605,13.0364731 19.3805666,13.0962409 C19.4959142,13.2242012 19.6039981,13.3572672 19.7062256,13.4935244 C19.9159365,13.7730443 19.9998092,14.1295496 19.9578435,14.5630402 C19.8644441,14.2829205 19.678985,14.0330336 19.4014662,13.8133795 C19.2744661,13.7128598 19.1437434,13.6167864 19.0092981,13.5251594 C18.9550425,13.5797056 18.8990545,13.6306343 18.8413333,13.6796115 C18.9184876,13.8256832 18.9876335,13.9740538 19.0508909,14.1239567 C19.1867505,14.4459074 19.1818853,14.8121135 19.0362954,15.2225752 C19.0134374,14.9281809 18.8939404,14.6408501 18.6778042,14.3605828 C18.5838439,14.2387429 18.4856533,14.1199835 18.3832325,14.0043047 C18.3127099,14.0469604 18.2409479,14.0857462 18.1676305,14.1218934 C18.2076555,14.2744003 18.240036,14.4280284 18.2668179,14.5818116 C18.3267723,14.9260724 18.2396534,15.2817983 18.0054611,15.6489893 C18.0494133,15.3569983 17.9976143,15.0501508 17.8500642,14.7284467 C17.7874384,14.5919034 17.720223,14.4573143 17.6484181,14.3246793 C17.5674272,14.3489285 17.4874178,14.3693273 17.4062914,14.386752 C17.4099963,14.5412247 17.4069316,14.6944009 17.3986376,14.8465214 C17.3796136,15.1954456 17.2147066,15.5224568 16.9039167,15.8275549 C17.012426,15.5529347 17.0309803,15.2422994 16.9595796,14.895649 C16.9292185,14.7482463 16.8939279,14.6017185 16.8537075,14.4560654 L16.7081545,14.4605263 C16.6755461,14.4605263 16.6430488,14.4600548 16.610669,14.4591183 C16.5774097,14.6105146 16.5368774,14.7605447 16.4913881,14.9082195 C16.3885167,15.2421768 16.149397,15.5195798 15.7740289,15.7404283 C15.9457517,15.5002163 16.0389043,15.2032969 16.0534868,14.8496701 C16.0597169,14.6985901 16.0609048,14.547163 16.0570504,14.3953889 C15.9741769,14.3798948 15.894756,14.3608516 15.8165193,14.3390048 C15.7484403,14.4819854 15.6746307,14.620208 15.5964499,14.7549642 C15.4210911,15.0572213 15.1256979,15.2737242 14.7102704,15.4044729 C14.9316279,15.2090468 15.0891853,14.9406922 15.1829428,14.5994091 C15.2244038,14.4484883 15.2606848,14.2959901 15.2917858,14.1419143 C15.2180433,14.1076801 15.1473617,14.0708275 15.0782574,14.0315545 C14.9782443,14.1592774 14.8716076,14.2818251 14.7612331,14.3996882 C14.5223756,14.6547512 14.1858508,14.7992561 13.7516586,14.8332029 C14.011304,14.6925802 14.22519,14.4665462 14.3933164,14.1551011 C14.4717754,14.00976 14.5450088,13.8614095 14.6130165,13.7100496 C14.5543528,13.6630303 14.4997148,13.6148438 14.4467547,13.5649226 C14.3103277,13.6724834 14.1698457,13.7711744 14.0265808,13.8637829 C13.7331131,14.0534846 13.3716256,14.1122844 12.9421183,14.0401822 C13.2280708,13.9665505 13.490286,13.7989744 13.7287638,13.537454 C13.8465832,13.4082504 13.9595356,13.2743572 14.0676212,13.1357744 C14.0225961,13.0791619 13.9826899,13.0217556 13.9446326,12.963058 C13.7785054,13.0406324 13.6097736,13.1095696 13.4395289,13.1711274 C13.1109092,13.2899513 12.7454595,13.265927 12.3431799,13.0990547 C12.6383671,13.0916354 12.9315581,12.9873399 13.222753,12.786168 C13.3771426,12.6795081 13.5272857,12.5663247 13.6731822,12.446618 C13.6472939,12.3862764 13.6244381,12.3263817 13.603341,12.2656745 C13.4117747,12.3072675 13.219823,12.3389706 13.0280828,12.3621031 C12.681156,12.4039582 12.3304771,12.2983414 11.976046,12.0452527 C12.2653365,12.1044263 12.5744744,12.0687575 12.9034598,11.9382462 C13.0929692,11.8630663 13.2793265,11.7792558 13.4625317,11.6868146 C13.4527001,11.6330144 13.4461465,11.5803526 13.4408757,11.5273172 C13.2277683,11.5215295 13.0174363,11.505292 12.8097797,11.4793505 C12.4630325,11.436033 12.1483213,11.2487166 11.865646,10.9174011 C12.1320279,11.0448027 12.4406122,11.0849806 12.7913989,11.0379349 C13.0081206,11.0088693 13.2237259,10.9692937 13.438215,10.9192079 C13.4417002,10.8687314 13.4470977,10.8200267 13.4535655,10.7716572 C13.2322616,10.7156166 13.0160277,10.6485972 12.8053023,10.5713959 C12.4771865,10.4511876 12.2126783,10.1978774 12.0117777,9.81146547 C12.2426732,9.99552464 12.5343104,10.1040892 12.8866895,10.1371591 C13.1216088,10.1592057 13.3580146,10.1690357 13.5959067,10.1666492 L13.6036856,10.1412289 C13.6144012,10.1104272 13.6255696,10.0798348 13.6371829,10.0494596 L13.9438409,10.1968409 C13.6140436,10.048001 13.3028123,9.87811229 13.010147,9.68717488 C12.7174818,9.49623746 12.5167353,9.18991822 12.4079076,8.76821718 C12.5914809,8.99949911 12.8512218,9.17088525 13.1871303,9.2823756 C13.4276102,9.36219256 13.6729294,9.42866823 13.9230879,9.48180264 L13.970646,9.4057534 L13.9167084,9.36151777 C13.7376492,9.20496759 13.5688596,9.04133654 13.4103397,8.87062462 C13.1725598,8.61455673 13.0518817,8.26877152 13.0483053,7.83326898 C13.1704736,8.10209126 13.381037,8.33122351 13.6799956,8.52066573 C13.9050577,8.66328172 14.138881,8.79287802 14.3814655,8.90945463 L14.438646,8.8507534 L14.3734953,8.76443283 C14.2342415,8.57161547 14.1065869,8.37420888 13.9905317,8.17221306 C13.8164488,7.86921934 13.7766484,7.50514991 13.8711305,7.08000477 C13.9296957,7.36941903 14.0833189,7.6400451 14.3319999,7.89188298 C14.5273713,8.08973441 14.7352292,8.27591634 14.9555736,8.45042876 C14.9748594,8.43754727 14.9932753,8.42625463 15.011811,8.41513865 L15.1034622,8.61712577 C14.9464953,8.29111812 14.8172806,7.96092023 14.7158182,7.6265321 C14.6143559,7.29214397 14.6574733,6.92845247 14.8451707,6.5354576 C14.8371308,6.83062851 14.925939,7.12887614 15.1115952,7.4302005 C15.2618565,7.67407812 15.4278162,7.90886935 15.6094741,8.13457419 C15.6238462,8.12911965 15.6362367,8.12484899 15.6486606,8.12065013 L15.683735,8.31320557 C15.610299,7.95890799 15.5648047,7.60725853 15.547252,7.25825719 C15.5296993,6.90925584 15.6595209,6.5667986 15.9367169,6.23088545 C15.8575076,6.51534351 15.8715251,6.82621656 15.9787696,7.16350459 C16.0663746,7.43902589 16.1717353,7.70943477 16.2948516,7.97473123 C16.3129285,7.97068159 16.3290413,7.96880399 16.3451894,7.96704255 L16.3363083,8.15479525 C16.3444541,7.79305879 16.3792297,7.44018808 16.4406351,7.09618312 C16.5020405,6.75217817 16.705571,6.44770159 17.0512264,6.1827534 Z" id="sun" fill="#FFC84A"></path>
                        <g id="waves" stroke-width="1" fill="none" transform="translate(0.000000, 9.434211)">
                            <mask id="mask-6" fill="white">
                                <use xlink:href="#path-5"></use>
                            </mask>
                            <use id="white" fill="#F7FCFF" xlink:href="#path-5"></use>
                            <path d="M0.207966326,4.81153035 L2.82281301,3.75033906 C3.20396266,3.59565592 3.63073935,3.59753963 4.01050869,3.75558133 L7.6412582,5.26652429 C8.05205378,5.43747762 8.51625431,5.42515269 8.9173996,5.23264163 L11.8460088,3.82719163 C12.2660497,3.62561247 12.7541414,3.62203037 13.1770957,3.8174228 L16.2445414,5.23449224 C16.6577858,5.42539898 17.133744,5.4265662 17.5479198,5.23768858 L20.6866596,3.80632124 C21.1007045,3.61750335 21.5764998,3.61860739 21.9896639,3.80934475 L25.0885287,5.2399369 C25.4952183,5.42768532 25.9629342,5.43182947 26.3728868,5.25131681 L29.7589833,3.76033146 C30.1255823,3.59890847 30.5401809,3.58447049 30.917121,3.72000046 L33.9529176,4.81153035 L33.9529176,4.81153035" id="wave" stroke="#015989" stroke-width="2" mask="url(#mask-6)"></path>
                            <path d="M0.207966326,8.14047772 L2.82281301,7.07928643 C3.20396266,6.92460328 3.63073935,6.926487 4.01050869,7.0845287 L7.6412582,8.59547166 C8.05205378,8.76642498 8.51625431,8.75410006 8.9173996,8.561589 L11.8460088,7.156139 C12.2660497,6.95455984 12.7541414,6.95097774 13.1770957,7.14637017 L16.2445414,8.56343961 C16.6577858,8.75434635 17.133744,8.75551357 17.5479198,8.56663595 L20.6866596,7.1352686 C21.1007045,6.94645072 21.5764998,6.94755476 21.9896639,7.13829212 L25.0885287,8.56888427 C25.4952183,8.75663269 25.9629342,8.76077684 26.3728868,8.58026418 L29.7589833,7.08927883 C30.1255823,6.92785584 30.5401809,6.91341786 30.917121,7.04894783 L33.9529176,8.14047772 L33.9529176,8.14047772" id="wave" stroke="#015989" stroke-width="2" mask="url(#mask-6)"></path>
                            <path d="M0.207966326,10.7930991 L1.29963143,10.3500652 C2.65663527,9.79934818 4.17608462,9.80605476 5.52817415,10.3687293 L7.6412582,11.248093 C8.05205378,11.4190463 8.51625431,11.4067214 8.9173996,11.2142103 L10.3980824,10.5036254 C11.7351147,9.86197882 13.288759,9.85057664 14.6350648,10.4725302 L16.2445414,11.2160609 C16.6577858,11.4069677 17.133744,11.4081349 17.5479198,11.2192573 L19.1395339,10.4934295 C20.5357675,9.85670164 22.140235,9.86042468 23.5334986,10.5036254 L25.0885287,11.2215056 C25.4952183,11.409254 25.9629342,11.4133982 26.3728868,11.2328855 L28.2970179,10.3856411 C29.6022173,9.81092824 31.078309,9.75952481 32.4203258,10.242051 L33.9529176,10.7930991 L33.9529176,10.7930991 L33.9529176,14.1079713 L0.391583359,14.1079713 L0.207966326,10.7930991 Z" id="wave" fill="#015989" mask="url(#mask-6)"></path>
                        </g>
                        <path d="M10.7800293,1.41841102 C11.707982,1.41841102 12.3281615,1.41841102 12.6405679,1.41841102 C13.1091776,1.41841102 14.1663692,0.701884756 14.7778518,0.940726845 C15.1855068,1.0999549 15.7324649,1.43660529 16.4187261,1.95067799 C17.5516836,1.05633387 18.456052,0.609161816 19.1318312,0.609161816 C19.8076105,0.609161816 20.7549699,0.559438362 21.9739094,0.459991455 C21.6879356,1.20230235 21.1427625,1.63632783 20.33839,1.76206789 C19.5340175,1.88780796 18.6506509,2.25858671 17.6882902,2.87440415 C18.7963342,2.87440415 19.4500103,2.87440415 19.6493185,2.87440415 C19.8486266,2.87440415 20.0783171,3.02466692 20.33839,3.32519246 C19.8018378,3.68975578 19.3996516,3.87203744 19.1318312,3.87203744 C18.8640109,3.87203744 18.5821767,3.87203744 18.2863286,3.87203744 C17.7168876,4.36068338 17.0804345,4.55302274 16.3769693,4.44905552 C15.6735042,4.3450883 15.0395577,3.97046728 14.4751297,3.32519246 C13.8596594,3.236971 13.5519243,3.13978425 13.5519243,3.03363221 C13.4791036,3.00014895 13.4259212,2.98386499 13.392377,2.98478034 C13.1019626,2.99270517 12.9083531,3.04487857 12.8118104,3.03363221 C13.1657265,2.8955276 13.4124311,2.76538023 13.5519243,2.64319009 C13.7955147,2.41468822 14.0102799,2.30043729 14.1962198,2.30043729 C14.4751297,2.30043729 15.4065384,2.87440415 15.4065384,2.87440415 C15.4065384,2.87440415 15.4806713,2.7973328 15.6289371,2.64319009 L14.4751297,1.76206789 C12.9061856,1.92645664 11.6744854,1.81190435 10.7800293,1.41841102 Z" id="bird" fill="#FFC84A"></path>
                    </g>
                </g>
            </g>
        </g>
    </g>
</svg>