<?xml version="1.0" encoding="UTF-8"?>
<svg width="32px" height="24px" viewBox="0 0 32 24" version="1.1" xmlns="http://www.w3.org/2000/svg" xmlns:xlink="http://www.w3.org/1999/xlink">
    <title>flags/L/KM - Comoros</title>
    <defs>
        <rect id="path-1" x="0" y="0" width="32" height="24"></rect>
        <rect id="path-3" x="0" y="0" width="32" height="24"></rect>
    </defs>
    <g id="Symbols" stroke="none" stroke-width="1" fill="none" fill-rule="evenodd">
        <g id="flag">
            <mask id="mask-2" fill="white">
                <use xlink:href="#path-1"></use>
            </mask>
            <g id="mask"></g>
            <g id="contents" mask="url(#mask-2)">
                <mask id="mask-4" fill="white">
                    <use xlink:href="#path-3"></use>
                </mask>
                <use id="background" fill="#5196ED" xlink:href="#path-3"></use>
                <rect id="3" fill="#AF0100" mask="url(#mask-4)" x="0" y="12" width="32" height="6"></rect>
                <rect id="2" fill="#F7FCFF" mask="url(#mask-4)" x="0" y="6" width="32" height="6"></rect>
                <rect id="1" fill="#FECA00" mask="url(#mask-4)" x="0" y="0" width="32" height="6"></rect>
                <polygon id="triangle" fill="#5EAA22" mask="url(#mask-4)" points="0 0 19 12 0 24"></polygon>
                <path d="M7.62342677,6.87017045 C7.62342677,6.87017045 3.9747438,7.62041571 3.84800228,11.4492149 C3.72126076,15.2780142 7.30462032,16.5011569 7.30462032,16.5011569 C5.94212332,16.8517702 1.48061607,15.8696902 1.62694335,11.4492149 C1.77327063,7.02873964 6.34561485,5.94738862 7.62342677,6.87017045 Z M8,14 L8.29389263,14.5954915 L8.95105652,14.690983 L8.47552826,15.1545085 L8.58778525,15.809017 L8,15.5 L7.41221475,15.809017 L7.52447174,15.1545085 L7.04894348,14.690983 L7.70610737,14.5954915 L8,14 Z M8,12 L8.29389263,12.5954915 L8.95105652,12.690983 L8.47552826,13.1545085 L8.58778525,13.809017 L8,13.5 L7.41221475,13.809017 L7.52447174,13.1545085 L7.04894348,12.690983 L7.70610737,12.5954915 L8,12 Z M8,10 L8.29389263,10.5954915 L8.95105652,10.690983 L8.47552826,11.1545085 L8.58778525,11.809017 L8,11.5 L7.41221475,11.809017 L7.52447174,11.1545085 L7.04894348,10.690983 L7.70610737,10.5954915 L8,10 Z M8,8 L8.29389263,8.5954915 L8.95105652,8.69098301 L8.47552826,9.1545085 L8.58778525,9.80901699 L8,9.5 L7.41221475,9.80901699 L7.52447174,9.1545085 L7.04894348,8.69098301 L7.70610737,8.5954915 L8,8 Z" id="Combined-Shape" fill="#F7FCFF" mask="url(#mask-4)"></path>
            </g>
        </g>
    </g>
</svg>