<?xml version="1.0" encoding="UTF-8"?>
<svg width="32px" height="24px" viewBox="0 0 32 24" version="1.1" xmlns="http://www.w3.org/2000/svg" xmlns:xlink="http://www.w3.org/1999/xlink">
    <title>flags/L/KY - Cayman Islands</title>
    <defs>
        <rect id="path-1" x="0" y="0" width="32" height="24"></rect>
        <rect id="path-3" x="0" y="0" width="32" height="24"></rect>
        <rect id="path-5" x="0" y="0" width="18" height="14"></rect>
        <path d="M0.00752976227,0 C0.00752976227,1.26785427 0.00752976227,2.7510468 0.00752976227,3.72195716 C0.00752976227,8.45454545 3.95857527,10 4.1,10 C4.2496297,10 7.90962078,8.45454545 7.90962078,3.72195716 C7.90962078,2.84350335 7.90962078,1.0636631 7.90962078,0 L0.00752976227,0 Z" id="path-7"></path>
    </defs>
    <g id="Symbols" stroke="none" stroke-width="1" fill="none" fill-rule="evenodd">
        <g id="flag">
            <mask id="mask-2" fill="white">
                <use xlink:href="#path-1"></use>
            </mask>
            <g id="mask"></g>
            <g id="contents" mask="url(#mask-2)">
                <mask id="mask-4" fill="white">
                    <use xlink:href="#path-3"></use>
                </mask>
                <use id="background" fill="#2E42A5" xlink:href="#path-3"></use>
                <g id="gb---large" mask="url(#mask-4)">
                    <g id="flag">
                        <mask id="mask-6" fill="white">
                            <use xlink:href="#path-5"></use>
                        </mask>
                        <use id="mask" fill="#2B409A" xlink:href="#path-5"></use>
                        <g id="contents" mask="url(#mask-6)">
                            <g transform="translate(-3.000000, -2.000000)">
                                <g id="stripe">
                                    <polygon id="white" fill="#F7FCFF" fill-rule="nonzero" transform="translate(12.087462, 8.731805) scale(1, -1) translate(-12.087462, -8.731805) " points="0.995733743 2.46378897 4.95668418 0.726588534 21.0898804 13.5748663 23.1791912 16.1563978 18.9435246 16.7370214 12.3631795 11.2003309 7.066678 7.46989524"></polygon>
                                    <polygon id="red" fill="#F50100" fill-rule="nonzero" transform="translate(11.983464, 9.146214) scale(1, -1) translate(-11.983464, -9.146214) " points="1.53799381 2.07548339 3.55591517 1.0673567 22.4289341 17.2250722 19.5955377 17.2250722"></polygon>
                                </g>
                                <g id="stripe" transform="translate(12.000000, 8.500000) scale(-1, 1) translate(-12.000000, -8.500000) ">
                                    <polygon id="white" fill="#F7FCFF" fill-rule="nonzero" transform="translate(12.087462, 8.731805) scale(1, -1) translate(-12.087462, -8.731805) " points="0.995733743 2.46378897 4.95668418 0.726588534 21.0898804 13.5748663 23.1791912 16.1563978 18.9435246 16.7370214 12.3631795 11.2003309 7.066678 7.46989524"></polygon>
                                    <polygon id="red" fill="#F50100" fill-rule="nonzero" transform="translate(12.255557, 9.098760) scale(1, -1) translate(-12.255557, -9.098760) " points="1.13088612 2.32417911 3.14880748 1.31605242 11.1851345 8.23400982 13.567733 9.00693659 23.3802288 16.8814684 20.5468324 16.8814684 10.7398496 9.19384456 8.134898 8.26702255"></polygon>
                                </g>
                                <g id="cross" transform="translate(3.000000, 2.000000)">
                                    <path d="M10.7345755,-0.75 L10.7340639,5.25 L18.75,5.25 L18.75,8.75 L10.7340639,8.75 L10.7345755,14.75 L7.23457546,14.75 L7.23406394,8.75 L-0.75,8.75 L-0.75,5.25 L7.23406394,5.25 L7.23457546,-0.75 L10.7345755,-0.75 Z" id="red" stroke="#F7FCFF" stroke-width="1.5" fill="#F50100"></path>
                                </g>
                            </g>
                        </g>
                    </g>
                </g>
                <g id="weapon" mask="url(#mask-4)">
                    <g transform="translate(20.289268, 6.287251)">
                        <g id="Group-2" stroke-width="1" fill="none" fill-rule="evenodd" transform="translate(0.710732, 4.712749)">
                            <mask id="mask-8" fill="white">
                                <use xlink:href="#path-7"></use>
                            </mask>
                            <g id="Path-2">
                                <path stroke="#0B50A0" stroke-width="0.1" d="M7.85962078,0.05 L7.85962078,3.72195716 C7.85962078,5.32996324 7.43458537,6.56765609 6.86880502,7.50003059 C5.79005613,9.27774867 4.19725988,9.95 4.1,9.95 C4.00785596,9.95 2.28498402,9.27653868 1.12030404,7.48986453 C0.513404914,6.55885258 0.0575297623,5.32434126 0.0575297623,3.72195716 L0.0575297623,3.72195716 L0.0575297623,0.05 L7.85962078,0.05 Z" stroke-linejoin="square" fill="#FFFFFF" fill-rule="evenodd"></path>
                                <path stroke="#F7FCFF" stroke-width="0.3" d="M8.05962078,-0.15 L8.05962078,3.72195716 C8.05962078,5.37452566 7.62110529,6.64580574 7.03978727,7.60378546 C5.89442231,9.49128311 4.20196966,10.15 4.1,10.15 C4.00366998,10.15 2.18292745,9.48621949 0.952758652,7.5990824 C0.328267741,6.64108382 -0.142470238,5.37117458 -0.142470238,3.72195716 L-0.142470238,3.72195716 L-0.142470238,-0.15 L8.05962078,-0.15 Z"></path>
                            </g>
                            <rect id="Rectangle" fill="#F50100" fill-rule="nonzero" mask="url(#mask-8)" x="-0.5" y="-0.5" width="9" height="3.4"></rect>
                            <path d="M3.51199561,3.6 C3.79999599,3.6 4.37599726,3.28654125 4.51999669,3.21420492 C5.04799798,2.90074617 5.43199481,3.19009248 5.74399694,3.33476613 C6.0799973,3.47943929 6.70399653,3.64822438 7.08799838,3.33476613 C7.47199872,3.02130738 7.68799938,3.04541932 7.95200002,3.04541932 C8,2.68373618 8,2.32205103 8,1.91214351 L8,1.6227972 C7.66400014,1.55046037 7.49600196,1.64690914 7.13599836,1.96036789 C6.77599826,2.27382665 6.36799968,2.20148982 5.8399984,2.00859228 C5.33600036,1.79158229 4.83199732,1.40578621 4.32799928,2.00859228 C4.18399884,2.17737788 3.84799898,2.4184998 3.51199912,2.4184998 C3.15199902,2.4184998 2.8399984,2.17737788 2.69599896,2.00859228 C2.16799768,1.40578621 1.68799788,1.79158229 1.18399984,2.00859228 C0.655998558,2.20148982 0.22400024,2.27382665 -0.135998357,1.96036789 C-0.471998217,1.64690914 -0.639996394,1.55046037 -1,1.6227972 L-1,1.91214351 C-1,2.32205103 -0.97600026,2.68373266 -0.92800028,3.04541932 C-0.66400014,3.04541932 -0.47199972,3.02130738 -0.088001883,3.33476613 C0.295998458,3.64822438 0.943997436,3.47943929 1.25599956,3.33476613 C1.59199992,3.19009248 1.97600176,2.90074617 2.50399804,3.21420492 C2.64799798,3.28654125 3.199997,3.6 3.51199912,3.6 L3.51199561,3.6 Z" id="Path" fill="#F50100" fill-rule="nonzero" mask="url(#mask-8)"></path>
                            <path d="M1.08369466,1.04886625 C1.22831536,1.0555689 1.38624437,1.14730671 1.5574817,1.32407967 C1.8143377,1.58923911 2.75952512,1.42047174 2.75952512,1.26052049 C2.75952512,1.10056924 2.18598124,1.00501424 2.40633714,0.731515043 C2.62669305,0.458015843 3.00000034,0.457523323 3.30000034,0.600000297 C3.38602998,0.600000297 3.37650772,1.53556526 3.57286695,1.48420942 C4.19473173,1.32156675 5.1977885,0.999293116 5.49198954,1.13755629 C5.87908711,1.31947728 6.17530441,1.27423268 6.07690115,1.01320616 C5.9784979,0.752179642 5.7256049,0.589038069 5.23862635,0.731515043 C4.75164779,0.873992018 4.86657473,1.01320616 4.44569092,1.01320616 C4.02480712,1.01320616 3.30268074,1.24090213 3.62338776,0.731515043 C3.9107727,0.275054274 4.25355606,0.266126417 4.38437843,0.458015843 C4.45130549,0.556184038 3.90532892,0.772968851 3.90532892,0.873992018 C3.90532892,1.01320616 5.31173304,0.600205381 5.49198954,0.600205381 C5.67224603,0.600205381 6.16833621,0.589038069 6.21750748,0.731515043 C6.26667875,0.873992018 6.56622375,1.0047324 6.33789714,1.13755629 C6.10957054,1.27038019 5.7330705,1.35358026 5.99211915,1.52375632 C6.25116781,1.69393239 6.90760366,1.77132078 6.93630689,1.94833669 C6.96501012,2.1253526 7.24734518,2.38968974 7.13403138,2.38968974 C7.02071758,2.38968974 6.81593721,2.63898786 6.62524862,2.56308075 C6.43456002,2.48717363 6.41213312,2.42052296 6.5949863,2.35902913 C6.77783947,2.29753531 6.77606051,2.03893759 6.62524862,2.03893759 C6.47443672,2.03893759 6.48730986,2.0193534 6.14393046,1.9287525 C5.80055107,1.8381516 5.34607659,1.73743118 5.37340062,1.9287525 C5.40072466,2.12007381 5.63322299,2.53071186 5.22074397,2.56985214 C4.80826495,2.60899242 4.61518943,2.76613612 4.53490465,2.6395883 C4.45461987,2.51304048 4.1676592,2.34441794 4.39330738,2.29034652 C4.61895555,2.23627511 4.83458957,2.47413754 4.91586209,2.43529934 C4.99713461,2.39646113 5.17241804,2.25788471 5.01812818,2.0933186 C4.86383832,1.9287525 4.56417811,1.9231767 4.80000034,1.8000003 C5.03582257,1.6768239 4.89501674,1.58298459 4.44569092,1.8381516 C3.99636511,2.0933186 3.74645112,2.31016525 3.35198157,2.27950465 C2.95751203,2.24884404 2.78050824,2.38915454 2.65372231,2.34779185 C2.52693638,2.30642916 1.90943714,2.80480964 1.73162102,2.67832655 C1.5538049,2.55184346 0.97976027,2.50331728 1.0830999,2.34779185 C1.18643952,2.19226641 1.32517847,2.11219498 1.47970819,2.19226641 C1.63423791,2.27233785 1.78778367,2.35240928 1.89198733,2.27233785 C1.99619099,2.19226641 2.32638075,1.81855988 2.25068497,1.7636254 C2.17498919,1.70869091 1.9082978,1.61463007 1.47970819,1.61463007 C1.05111858,1.61463007 1.04121584,1.32986257 0.939475282,1.2000003 C0.871648241,1.11342545 0.919721366,1.06304743 1.08369466,1.04886625 Z" id="lion" fill="#FFD100" mask="url(#mask-8)"></path>
                            <g id="Group" mask="url(#mask-8)" fill="#0B50A0" fill-rule="nonzero">
                                <g transform="translate(-1.000000, 4.000000)" id="Path">
                                    <path d="M4.51199561,2 C4.79999599,2 5.37599726,1.68654125 5.51999669,1.61420492 C6.04799798,1.30074617 6.43199481,1.59009248 6.74399694,1.73476613 C7.0799973,1.87943929 7.70399653,2.04822438 8.08799838,1.73476613 C8.47199872,1.42130738 8.68799938,1.44541932 8.95200002,1.44541932 C9,1.08373618 9,0.722051032 9,0.312143509 L9,0.0227971992 C8.66400014,-0.0495396298 8.49600196,0.0469091401 8.13599836,0.360367894 C7.77599826,0.673826647 7.36799968,0.601489818 6.8399984,0.408592279 C6.33600036,0.191582295 5.83199732,-0.194213791 5.32799928,0.408592279 C5.18399884,0.577377877 4.84799898,0.818499802 4.51199912,0.818499802 C4.15199902,0.818499802 3.8399984,0.577377877 3.69599896,0.408592279 C3.16799768,-0.194213791 2.68799788,0.191582295 2.18399984,0.408592279 C1.65599856,0.601489818 1.22400024,0.673826647 0.864001643,0.360367894 C0.528001783,0.0469091401 0.360003606,-0.0495396298 0,0.0227971992 L0,0.312143509 C0,0.722051032 0.0239997396,1.08373266 0.0719997196,1.44541932 C0.33599986,1.44541932 0.52800028,1.42130738 0.911998117,1.73476613 C1.29599846,2.04822438 1.94399744,1.87943929 2.25599956,1.73476613 C2.59199992,1.59009248 2.97600176,1.30074617 3.50399804,1.61420492 C3.64799798,1.68654125 4.199997,2 4.51199912,2 L4.51199561,2 Z"></path>
                                    <path d="M4.51199561,4.3 C4.79999599,4.3 5.37599726,3.98654125 5.51999669,3.91420492 C6.04799798,3.60074617 6.43199481,3.89009248 6.74399694,4.03476613 C7.0799973,4.17943929 7.70399653,4.34822438 8.08799838,4.03476613 C8.47199872,3.72130738 8.68799938,3.74541932 8.95200002,3.74541932 C9,3.38373618 9,3.02205103 9,2.61214351 L9,2.3227972 C8.66400014,2.25046037 8.49600196,2.34690914 8.13599836,2.66036789 C7.77599826,2.97382665 7.36799968,2.90148982 6.8399984,2.70859228 C6.33600036,2.49158229 5.83199732,2.10578621 5.32799928,2.70859228 C5.18399884,2.87737788 4.84799898,3.1184998 4.51199912,3.1184998 C4.15199902,3.1184998 3.8399984,2.87737788 3.69599896,2.70859228 C3.16799768,2.10578621 2.68799788,2.49158229 2.18399984,2.70859228 C1.65599856,2.90148982 1.22400024,2.97382665 0.864001643,2.66036789 C0.528001783,2.34690914 0.360003606,2.25046037 0,2.3227972 L0,2.61214351 C0,3.02205103 0.0239997396,3.38373266 0.0719997196,3.74541932 C0.33599986,3.74541932 0.52800028,3.72130738 0.911998117,4.03476613 C1.29599846,4.34822438 1.94399744,4.17943929 2.25599956,4.03476613 C2.59199992,3.89009248 2.97600176,3.60074617 3.50399804,3.91420492 C3.64799798,3.98654125 4.199997,4.3 4.51199912,4.3 L4.51199561,4.3 Z"></path>
                                </g>
                            </g>
                            <path d="M3.51199561,10.6 C3.79999599,10.6 4.37599726,10.2865412 4.51999669,10.2142049 C5.04799798,9.90074617 5.43199481,10.1900925 5.74399694,10.3347661 C6.0799973,10.4794393 6.70399653,10.6482244 7.08799838,10.3347661 C7.47199872,10.0213074 7.68799938,10.0454193 7.95200002,10.0454193 C8,9.68373618 8,9.32205103 8,8.91214351 L8,8.6227972 C7.66400014,8.55046037 7.49600196,8.64690914 7.13599836,8.96036789 C6.77599826,9.27382665 6.36799968,9.20148982 5.8399984,9.00859228 C5.33600036,8.79158229 4.83199732,8.40578621 4.32799928,9.00859228 C4.18399884,9.17737788 3.84799898,9.4184998 3.51199912,9.4184998 C3.15199902,9.4184998 2.8399984,9.17737788 2.69599896,9.00859228 C2.16799768,8.40578621 1.68799788,8.79158229 1.18399984,9.00859228 C0.655998558,9.20148982 0.22400024,9.27382665 -0.135998357,8.96036789 C-0.471998217,8.64690914 -0.639996394,8.55046037 -1,8.6227972 L-1,8.91214351 C-1,9.32205103 -0.97600026,9.68373266 -0.92800028,10.0454193 C-0.66400014,10.0454193 -0.47199972,10.0213074 -0.088001883,10.3347661 C0.295998458,10.6482244 0.943997436,10.4794393 1.25599956,10.3347661 C1.59199992,10.1900925 1.97600176,9.90074617 2.50399804,10.2142049 C2.64799798,10.2865412 3.199997,10.6 3.51199912,10.6 L3.51199561,10.6 Z" id="Path" fill="#0B50A0" fill-rule="nonzero" mask="url(#mask-8)"></path>
                            <path d="M4.04211018,6.26940454 L4.27370912,6.80589805 L4.36712714,7.22887286 L4.55651491,7.79498547 L4.03285343,7.51839338 L3.5680108,7.79388384 L3.70402434,7.22026432 L3.25557693,6.80589805 L3.84459807,6.80589805 L4.04211018,6.26940454 Z" id="Star-21" stroke="#FFD100" stroke-width="0.2" fill="#059334" mask="url(#mask-8)"></path>
                            <path d="M2.04211018,4.26940454 L2.27370912,4.80589805 L2.36712714,5.22887286 L2.55651491,5.79498547 L2.03285343,5.51839338 L1.5680108,5.79388384 L1.70402434,5.22026432 L1.25557693,4.80589805 L1.84459807,4.80589805 L2.04211018,4.26940454 Z" id="Star-21" stroke="#FFD100" stroke-width="0.2" fill="#059334" mask="url(#mask-8)"></path>
                            <path d="M6.04211018,4.26940454 L6.27370912,4.80589805 L6.36712714,5.22887286 L6.55651491,5.79498547 L6.03285343,5.51839338 L5.5680108,5.79388384 L5.70402434,5.22026432 L5.25557693,4.80589805 L5.84459807,4.80589805 L6.04211018,4.26940454 Z" id="Star-21" stroke="#FFD100" stroke-width="0.2" fill="#059334" mask="url(#mask-8)"></path>
                        </g>
                        <g id="line" stroke-width="1" fill="none" fill-rule="evenodd" transform="translate(0.000000, 12.412749)">
                            <path d="M0.047651877,1.93436977 C0.139516094,2.13097901 0.797891494,2.38902875 1.56344421,2.05725054 C2.08401929,1.82377695 2.42086274,1.49199926 2.74239309,0.902171057 C2.83425699,0.754714134 2.88018894,0.570391569 2.66583558,0.459799262 C2.49741418,0.361494646 2.22181641,0.250901569 2.0993276,0.152596698 C2.0380851,0.10344439 1.97683814,0.066580031 1.93090619,0.029715672 C1.9615276,0.0542920822 1.992149,0.0788682361 2.02277041,0.115732339 C2.32899181,0.410645159 2.00745954,0.840729775 1.67061705,1.09877849 C1.42564229,1.28309952 0.981620248,1.73775798 0.338559545,1.30767567 C0.200759545,1.20937106 -0.120772724,1.61487824 0.0476486821,1.93436798 L0.047651877,1.93436977 Z" id="Path" fill="#FFD100" fill-rule="nonzero"></path>
                            <path d="M9.35669341,1.93436977 C9.2495145,2.13097901 8.59114069,2.38902875 7.84090108,2.05725054 C7.320326,1.82377695 6.98348255,1.49199926 6.6466391,0.902171057 C6.57008159,0.754714134 6.52414964,0.570391569 6.738503,0.459799262 C6.9069244,0.361494646 7.18252536,0.250901569 7.30501098,0.152596698 C7.36625763,0.10344439 7.41218958,0.066580031 7.47343239,0.029715672 C7.44281098,0.0542920822 7.41218958,0.0788682361 7.38156817,0.115732339 C7.07534677,0.410645159 7.39687903,0.840729775 7.71841162,1.09877849 C7.96338574,1.28309952 8.42271833,1.73775798 9.06578223,1.30767567 C9.20358415,1.20937106 9.5098014,1.61487824 9.35669277,1.93436798 L9.35669341,1.93436977 Z" id="Path" fill="#FFD100" fill-rule="nonzero"></path>
                            <path d="M4.70222057,2.99116465 C5.92710236,2.99116465 7.81036114,2.54879285 8.82087871,1.00049542 C8.98930044,0.742446698 8.82087871,0.607277467 8.62183718,0.521259518 C8.40748255,0.447531057 8.14719181,0.275497723 8.00939629,0.164905672 C8.25437073,0.361515416 8.20844101,0.496685159 8.04001929,0.717869775 C7.25915347,1.76235695 6.18738351,2.29074413 4.70222376,2.29074413 C3.21705124,2.29074413 2.14528127,1.76235695 1.36442823,0.717869775 C1.19600683,0.496683877 1.15007073,0.361515928 1.37973878,0.164905672 C1.25724932,0.275498493 0.981649321,0.447531313 0.767294688,0.521259518 C0.568251877,0.607276185 0.39983143,0.742444903 0.568251877,1.00049542 C1.57877903,2.54879542 3.47734772,2.99116465 4.70224549,2.99116465 L4.70222057,2.99116465 Z" id="Path" fill="#FFD100" fill-rule="nonzero"></path>
                            <path d="M1.86966466,0.914472339 C1.83904261,0.791591569 1.63999916,0.840743877 1.57875507,0.9882008 C1.50220012,0.90218439 1.42564485,0.816167723 1.36440076,0.717862339 C1.18066817,0.496676954 1.15004613,0.349218749 1.41033367,0.140321313 C1.53282216,0.0420166976 1.77779692,-0.0685761229 1.94621865,0.0543049028 C2.298372,0.287778493 2.11464006,0.668710031 1.86966338,0.914471569 L1.86966466,0.914472339 Z" id="Path" fill="#F50100" fill-rule="nonzero"></path>
                            <path d="M7.51944101,0.914472339 C7.55006306,0.791591569 7.76441737,0.840743877 7.82566146,0.9882008 C7.90221609,0.90218439 7.978772,0.816167723 8.04001482,0.717862339 C8.22374964,0.496676954 8.25436945,0.349218749 7.978772,0.140321313 C7.87159469,0.0420166976 7.62661865,-0.0685761229 7.44288702,0.0543049028 C7.10604357,0.287778493 7.27446561,0.668710031 7.51944229,0.914471569 L7.51944101,0.914472339 Z" id="Path" fill="#F50100" fill-rule="nonzero"></path>
                        </g>
                        <path d="M7.12830435,0.00376840009 C7.14768594,0.0570188907 6.34712162,0.643221741 6.06051126,1.31475474 L6.03855065,1.37099182 C6.03989684,1.37396479 6.0412361,1.3769454 6.04256839,1.37993358 L6.10802201,1.32612043 C6.89817982,0.691390776 7.69831533,0.440872509 7.69831533,0.53029004 C7.69831533,0.628655549 6.75797897,1.09038573 6.19594527,1.97122876 L6.20722415,2.09048958 L6.20722415,2.09048958 L6.20773173,2.123 L6.30294233,2.0401862 C6.61627082,1.77985626 6.89831533,1.67937905 6.89831533,1.72234808 C6.89831533,1.77841979 6.43189923,2.0502516 6.18037537,2.57232506 C6.07414535,3.22743784 5.68022204,3.71274904 5.21073173,3.71274904 C4.75234504,3.71274904 4.36599325,3.25012198 4.24787023,2.61915867 C4.00387787,2.06578536 3.51073173,1.78000413 3.51073173,1.72234808 C3.51073173,1.67917247 3.79549472,1.7808257 4.11062602,2.04395204 L4.21387335,2.13525297 L4.21589461,2.05938276 C4.21752142,2.03535445 4.21952631,2.0114938 4.22190021,1.9878144 C3.66290704,1.0961951 2.71073173,0.62927283 2.71073173,0.53029004 C2.71073173,0.440872509 3.51086723,0.691390776 4.30102505,1.32612043 L4.37473173,1.388 L4.34853579,1.31475474 C4.0810328,0.687990608 3.36581878,0.135558516 3.28740377,0.0213919009 L3.28074271,0.00376840009 C3.29854039,-0.0451303341 4.02178696,0.386613619 4.60348066,1.02172664 C4.70033408,0.909952768 4.8113086,0.824405817 4.93169285,0.771970801 L4.51073173,0.212749044 L6.01073173,0.212749044 L5.56377309,0.808903452 C5.65340888,0.859648081 5.73690765,0.92915445 5.81214092,1.01422982 C6.39256299,0.383448846 7.11057203,-0.044950748 7.12830435,0.00376840009 Z" id="pineapple" fill="#FFD100" fill-rule="nonzero"></path>
                        <path d="M3.13476283,3.07713062 C3.01444566,2.91285054 2.68787152,2.83983726 2.55036567,2.98586382 C2.49880107,3.02237047 2.4300485,3.02237047 2.37848426,3.04062398 C2.29254337,3.04062398 2.18282583,3.08658816 2.21720212,3.26912175 C2.3097317,3.26912175 2.3097317,3.31442398 2.36129594,3.31442398 C2.39567222,3.29617047 2.48506919,3.63100217 2.65694917,3.61274904 C2.8460189,3.61274904 3.01444423,3.69774391 3.04882087,3.73425056 C3.10038511,3.78901071 3.16913768,3.93503728 3.08319715,4.00805056 C2.96287998,4.11757049 2.8769391,4.37311736 3.08319715,4.57390408 C3.30664317,4.75643729 3.87385129,5.03023806 4.50981269,4.50089042 C5.1285872,3.98979667 6.09112096,4.28185057 6.15987567,4.46438378 C6.24581656,4.64691737 6.28019284,4.75643729 6.29738116,4.84770599 C6.31456912,4.92071928 6.77864947,5.0302392 6.84740204,5.08499936 C6.93334256,5.13975913 7.05365973,5.121506 7.01928345,4.95722592 C6.95053088,4.44613217 6.65833374,4.37312041 6.62395638,4.13582552 C6.79583779,4.15407865 6.91615496,4.15407865 6.98490609,4.08106537 C7.03647069,4.00805208 7.10522326,3.88027865 7.17397582,3.84377201 C7.22554043,3.80726536 7.22554043,3.77075872 7.1567875,3.78901223 C7.07084698,3.80726536 7.01928237,3.84377201 6.86458892,3.82551887 C6.49862667,3.78327512 6.58914034,2.3986454 5.37888335,2.12929628 C4.63099582,1.96284993 3.69841496,3.10426628 3.44267195,3.2172686 C3.43711066,3.2197259 3.43186942,3.2216969 3.4269571,3.22315757 C3.3066446,3.22315719 3.20351539,3.16839703 3.13476283,3.07713062 Z" id="turtle" fill="#059334" fill-rule="nonzero"></path>
                    </g>
                </g>
            </g>
        </g>
    </g>
</svg>