<?xml version="1.0" encoding="UTF-8"?>
<svg width="32px" height="24px" viewBox="0 0 32 24" version="1.1" xmlns="http://www.w3.org/2000/svg" xmlns:xlink="http://www.w3.org/1999/xlink">
    <title>flags/L/LI - Liechtenstein</title>
    <defs>
        <rect id="path-1" x="0" y="0" width="32" height="24"></rect>
        <rect id="path-3" x="0" y="0" width="32" height="24"></rect>
    </defs>
    <g id="Symbols" stroke="none" stroke-width="1" fill="none" fill-rule="evenodd">
        <g id="flag">
            <mask id="mask-2" fill="white">
                <use xlink:href="#path-1"></use>
            </mask>
            <g id="mask"></g>
            <g id="contents" mask="url(#mask-2)">
                <mask id="mask-4" fill="white">
                    <use xlink:href="#path-3"></use>
                </mask>
                <use id="background" fill="#E31D1C" xlink:href="#path-3"></use>
                <rect id="top" fill="#2E42A5" mask="url(#mask-4)" x="0" y="0" width="32" height="12"></rect>
                <g id="mark" mask="url(#mask-4)">
                    <g transform="translate(4.000000, 0.000000)">
                        <path d="M0.798452857,11.0531734 C1.60289515,11.553903 2.9371736,11.8042679 4.80128821,11.8042679 C6.66540282,11.8042679 8.092193,11.553903 9.08165875,11.0531734 C7.61976726,10.2033546 6.23526067,9.77844525 4.92813898,9.77844525 C3.6210173,9.77844525 2.24445525,10.2033546 0.798452857,11.0531734 Z" id="Path-131" stroke="none" fill="#000000"></path>
                        <path d="M6.06531683,3.48263193 C7.052272,3.17856056 8.13984908,2.8945161 8.92330771,3.5755894 C9.32885275,3.92813629 9.57419776,4.3830982 9.65617314,4.9422463 C9.73964763,5.51161969 9.65041831,6.19509855 9.37664061,6.99220456 L9.37664061,6.99220456 L0.728591443,6.99220456 C0.2307473,6.17533983 0.0261199181,5.4822271 0.0836780848,4.91707817 C0.142078676,4.34365768 0.457457083,3.88272583 1.05073073,3.54672845 C2.14878673,2.92485027 3.09678171,3.22105104 3.93534366,3.5004507 C4.29324932,3.61970094 4.62661574,3.73623783 4.94107156,3.73623783 C5.25940869,3.73623783 5.64899985,3.61089517 6.06531683,3.48263193 Z" id="Path-130" stroke="#000000" stroke-width="0.5" fill="#FFD83D"></path>
                        <path d="M4.97518936,6.0175797 C7.39280257,6.0175797 9.1511529,6.35655939 10.2569459,7.0138582 L10.2569459,7.0138582 L8.91357505,10.6059677 C7.63979639,10.1871501 6.33331451,9.97775205 4.99413267,9.97775205 C3.65645223,9.97775205 2.32573597,10.1866659 1.00192518,10.6040832 L1.00192518,10.6040832 L-0.304910954,7.01287422 C0.800981221,6.3562211 2.55878281,6.0175797 4.97518936,6.0175797 Z" id="Path-129" stroke="#000000" stroke-width="0.5" fill="#FFD83D"></path>
                        <ellipse id="Oval-28" stroke="#000000" stroke-width="0.5" fill="#FFD83D" cx="4.87394958" cy="3.16981132" rx="1" ry="1.09528302"></ellipse>
                        <path d="M5.39404186,-0.25 L5.33248683,0.635046249 L5.8802521,0.557287602 L5.8802521,1.76722436 L5.31601068,1.68715916 L5.38933404,3.10283019 L4.35883653,3.10283019 L4.43064558,1.68818868 L3.86764706,1.76635127 L3.86764706,0.559314004 L4.41573429,0.633211364 L4.35366204,-0.25 L5.39404186,-0.25 Z" id="Combined-Shape" stroke="#000000" stroke-width="0.5" fill="#FFD83D"></path>
                    </g>
                </g>
            </g>
        </g>
    </g>
</svg>