<?xml version="1.0" encoding="UTF-8"?>
<svg width="32px" height="24px" viewBox="0 0 32 24" version="1.1" xmlns="http://www.w3.org/2000/svg" xmlns:xlink="http://www.w3.org/1999/xlink">
    <title>flags/L/LS - Lesotho</title>
    <defs>
        <rect id="path-1" x="0" y="0" width="32" height="24"></rect>
    </defs>
    <g id="Symbols" stroke="none" stroke-width="1" fill="none" fill-rule="evenodd">
        <g id="flag">
            <mask id="mask-2" fill="white">
                <use xlink:href="#path-1"></use>
            </mask>
            <g id="mask"></g>
            <g id="contents" mask="url(#mask-2)">
                <polygon id="bottom" fill="#55BA07" points="0 16 32 16 32 24 0 24"></polygon>
                <polygon id="middle" fill="#F7FCFF" points="0 8 32 8 32 16 0 16"></polygon>
                <polygon id="top" fill="#3D58DB" points="0 0 32 0 32 8 0 8"></polygon>
                <g id="mark" transform="translate(11.000000, 6.000000)" fill="#1D1D1D">
                    <path d="M4.87499237,1.33333842 C5.14001949,1.33333842 5.36651833,1.49829756 5.45741547,1.73114241 C6.27527419,1.91312088 6.86855319,2.47066951 6.86855319,3.37699638 C6.86855319,4.03566431 6.55520853,4.83639494 6.06940202,5.38584886 L8.50319094,7.77278109 L9.10351448,7.57511541 L10,8.93477953 C8.48938427,9.64492651 6.80052619,10 4.93342577,10 C3.06632535,10 1.42185009,9.64492651 0,8.93477953 L0.763159298,7.77278109 L1.37948198,7.97482166 L3.63679914,5.42645523 C3.13016452,4.87639498 2.80100681,4.05207971 2.80100681,3.37699638 C2.80100681,2.43915099 3.43626718,1.87476394 4.30010851,1.71426528 C4.39447475,1.4903937 4.61639245,1.33333842 4.87499237,1.33333842 Z M5.28678884,9.05323168 L4.5258665,9.30237628 L4.65175873,9.49698511 L5.69051025,9.49698511 L5.28678884,9.05323168 Z M3.73507429,9.05646188 L3.12029495,9.22057262 L3.21974868,9.4085952 L4.08884383,9.48876279 L3.73507429,9.05646188 Z M6.69837937,8.99911541 L6.0284167,9.21912532 L6.15875284,9.43913523 L7.04461112,9.34063523 L6.69837937,8.99911541 Z M2.42395004,8.86797784 L1.81091451,9.0014227 L1.9039555,9.15764672 L2.71679854,9.31789801 L2.42395004,8.86797784 Z M7.96129556,8.75399807 L7.39534305,9.09363011 L7.50295334,9.25862181 L8.24891262,9.09363011 L7.96129556,8.75399807 Z M5.06251166,8.7070973 L4.03422303,8.7070973 L4.36768556,9.09648275 L5.15999657,8.88698146 L5.06251166,8.7070973 Z M2.76421907,8.57331684 L3.01690356,9.02793547 L3.57239318,8.85874871 L3.41786863,8.65499466 L2.76421907,8.57331684 Z M6.43421944,8.63494227 L5.61451365,8.7208571 L5.85791654,9.019 L6.5168538,8.79057899 L6.43421944,8.63494227 Z M8.92753811,8.48048017 L8.63452085,8.7703588 L8.63452085,8.93228811 L9.13797727,8.7703588 L8.92753811,8.48048017 Z M7.66630948,8.48534644 L6.98847152,8.57696655 L7.23659959,8.88203129 L7.83135318,8.57696655 L7.66630948,8.48534644 Z M1.51305957,8.28033387 L1.73587419,8.80056323 L2.28939498,8.64958303 L2.17964711,8.44041735 L1.51305957,8.28033387 Z M8.66320943,8.1701716 L8.0648557,8.30969929 L8.4241942,8.65260347 L8.77380109,8.30969929 L8.66320943,8.1701716 Z M3.45131847,3.38096216 C3.45131847,4.11098098 3.80957543,4.79621031 4.24930726,5.14993072 L4.24855364,2.24068041 C3.72681889,2.381295 3.45131847,2.7424377 3.45131847,3.38096216 Z M5.50042074,2.25340675 L5.49973699,5.13113961 C5.92769771,4.77275664 6.27175402,4.09983156 6.27175402,3.38283716 C6.27175402,2.76226979 6.00016192,2.40270552 5.50042074,2.25340675 Z" id="Path-114"></path>
                </g>
            </g>
        </g>
    </g>
</svg>