<?xml version="1.0" encoding="UTF-8"?>
<svg width="32px" height="24px" viewBox="0 0 32 24" version="1.1" xmlns="http://www.w3.org/2000/svg" xmlns:xlink="http://www.w3.org/1999/xlink">
    <title>flags/L/MD - Moldova</title>
    <defs>
        <rect id="path-1" x="0" y="0" width="32" height="24"></rect>
        <path d="M0,0 L10.56,0 L10.56,7.63888889 C8.76860751,8.17845535 7.00860751,8.89095271 5.28,9.77638098 C4.00397868,8.82977686 2.24397868,8.1172795 0,7.63888889 L0,0 Z" id="path-3"></path>
    </defs>
    <g id="Symbols" stroke="none" stroke-width="1" fill="none" fill-rule="evenodd">
        <g id="flag">
            <mask id="mask-2" fill="white">
                <use xlink:href="#path-1"></use>
            </mask>
            <g id="mask"></g>
            <g id="contents" mask="url(#mask-2)">
                <polygon id="bottom" fill="#D9071E" points="22 0 32 0 32 24 22 24"></polygon>
                <polygon id="left" fill="#3D58DB" points="0 0 12 0 12 24 0 24"></polygon>
                <polygon id="middle" fill="#FBCD17" points="10 0 22 0 22 24 10 24"></polygon>
                <g id="mark" transform="translate(4.000000, 2.000000)">
                    <g id="pins" transform="translate(5.040000, 10.833333)" fill="#FD1900" fill-rule="nonzero">
                        <path d="M4.96401934,0.545656132 L6.01709451,1.12101053 L2.52653758,7.50980116 L1.47346242,6.93444676 L4.96401934,0.545656132 Z M9.18784106,0.392036879 L12.678398,6.78082751 L11.6253228,7.35618191 L8.13476589,0.967391282 L9.18784106,0.392036879 Z" id="Combined-Shape"></path>
                    </g>
                    <path d="M11.8139259,13.9701414 L12.339236,14.0921728 C12.8739523,15.4866047 13.9274207,16.7332725 15.4996412,17.8321761 C13.8237761,18.2794198 12.7703077,18.9520746 12.339236,19.8501406 C12.339236,19.1316878 11.2762225,18.459033 9.15019529,17.8321761 C9.87125274,17.3626926 10.7591629,16.0753477 11.8139259,13.9701414 L11.8139259,13.9701414 Z M12.1217176,0.850879776 C13.7763318,0.850879776 13.9692184,1.63269807 13.9692184,2.25592561 C13.9692184,2.87915315 13.0161652,4.22151702 13.0161652,4.73500623 C13.0161652,5.24849543 13.4030763,6.24350424 13.9692184,6.24350424 C14.3033341,6.24350424 15.4408445,5.84945642 17.3817498,5.06136079 L17.3815288,3.40831828 L17.3815288,3.40831828 C17.5612389,2.08268058 18.093701,1.33229775 18.9789152,1.15716977 C20.0450205,1.5408889 20.5780731,2.29127174 20.5780731,3.40831828 L20.5780731,18.3462333 L20.5780731,18.3462333 C19.8689897,17.4330385 19.335937,16.7771443 18.9789152,16.3785506 C18.4433824,15.78066 17.3815288,14.1735356 17.3815288,12.9403444 L17.3815288,7.38887978 L7.3775288,7.38887978 L7.37807312,12.9403444 C7.37807312,14.105025 6.43092591,15.6032447 5.87454321,16.2697945 L5.78068672,16.3785506 C5.42366487,16.7771443 4.89061223,17.4330385 4.1815288,18.3462333 L4.1815288,18.3462333 L4.1815288,3.40831828 C4.1815288,2.29127174 4.71458144,1.5408889 5.78068672,1.15716977 C6.66590088,1.33229775 7.19836301,2.08268058 7.37807312,3.40831828 L7.37807312,3.40831828 L7.3775288,5.34787978 L7.45986875,5.41719935 C8.52478488,6.28022891 9.38747853,6.55566387 10.0479497,6.24350424 C10.7497003,5.91183464 11.2217699,5.27034731 11.4641583,4.31904226 C11.3985351,3.35911619 11.2217066,2.87915315 10.9336728,2.87915315 C10.501622,2.87915315 10.4671034,0.850879776 12.1217176,0.850879776 Z M8.97601074,13.3333333 C9.70502661,13.3333333 10.2960107,13.8929774 10.2960107,14.5833333 C10.2960107,15.2736893 9.70502661,15.8333333 8.97601074,15.8333333 C8.24699487,15.8333333 7.65601074,15.2736893 7.65601074,14.5833333 C7.65601074,13.8929774 8.24699487,13.3333333 8.97601074,13.3333333 Z M15.4,13.3333333 C16.1290159,13.3333333 16.72,13.8929774 16.72,14.5833333 C16.72,15.2736893 16.1290159,15.8333333 15.4,15.8333333 C14.6709841,15.8333333 14.08,15.2736893 14.08,14.5833333 C14.08,13.8929774 14.6709841,13.3333333 15.4,13.3333333 Z" id="Combined-Shape" fill="#A77B3B"></path>
                    <polygon id="Path-148" fill="#FDFF00" fill-rule="nonzero" points="21.1399914 8.40764611 22.0579177 8.80439699 18.3183456 17.4563039 17.4004192 17.0595531"></polygon>
                    <g id="shield" transform="translate(7.040000, 5.833333)">
                        <mask id="mask-4" fill="white">
                            <use xlink:href="#path-3"></use>
                        </mask>
                        <use fill="#E1E5E8" opacity="0.300000012" xlink:href="#path-3"></use>
                        <rect id="Rectangle-37" fill="#3D58DB" mask="url(#mask-4)" x="0" y="5" width="10.56" height="5"></rect>
                        <rect id="Rectangle-37" fill="#FD1900" mask="url(#mask-4)" x="0" y="0" width="10.56" height="5"></rect>
                        <polygon id="Star-18" fill="#FDFF00" mask="url(#mask-4)" transform="translate(5.059164, 1.707532) rotate(-330.000000) translate(-5.059164, -1.707532) " points="5.05916428 2.33253175 4.39916428 2.79006351 4.48758751 2.02003175 3.73916428 1.70753175 4.48758751 1.39503175 4.39916428 0.625 5.05916428 1.08253175 5.71916428 0.625 5.63074104 1.39503175 6.37916428 1.70753175 5.63074104 2.02003175 5.71916428 2.79006351"></polygon>
                        <path d="M3.31001708,0.838351426 C1.87674166,1.71034917 1.39898319,2.45932625 1.87674166,3.08528266 C2.35450014,3.71123906 2.89407398,4.06428125 3.4954632,4.14440921 C2.02932932,6.34394487 2.58649068,8.07200713 5.16694727,9.32859601 C7.92961902,8.11553486 8.58450231,6.38747259 7.13159716,4.14440921 C7.98201578,3.95627014 8.49235839,3.52379274 8.662625,2.84697702 C8.83289161,2.17016129 8.27710189,1.44361196 6.99525585,0.667329028 C7.79501512,1.82652894 8.1036043,2.55307827 7.92102339,2.84697702 C7.64715202,3.28782513 6.18004274,3.73663986 5.16694727,3.73663986 C4.15385181,3.73663986 2.58944733,3.45217982 2.33697359,2.68184298 C2.16865776,2.16828509 2.49300559,1.55378791 3.31001708,0.838351426 Z" id="Path-145" fill="#FDFF00" mask="url(#mask-4)"></path>
                        <polygon id="Rectangle-39" fill="#FDFF00" mask="url(#mask-4)" points="1.32 4.16666667 2.64 5 1.32 5.83333333 0 5"></polygon>
                        <polygon id="Rectangle-39" fill="#FDFF00" mask="url(#mask-4)" points="9.24 4.16666667 10.56 5 9.24 5.83333333 7.92 5"></polygon>
                        <circle id="Oval-30" fill="#FDFF00" mask="url(#mask-4)" cx="1.88" cy="7.66666667" r="1"></circle>
                        <path d="M10.227164,7.2259418 C10.227164,6.784114 9.83317454,6.4259418 9.34716396,6.4259418 C8.86115338,6.4259418 8.46716396,6.784114 8.46716396,7.2259418 C8.46716396,7.46607966 8.87249694,7.01252406 9.34716396,6.99162723 C9.74583314,6.97407614 10.227164,7.42763174 10.227164,7.2259418 Z" id="Oval-30" fill="#FDFF00" mask="url(#mask-4)" transform="translate(9.467164, 7.425942) rotate(-51.000000) translate(-9.467164, -7.425942) "></path>
                    </g>
                    <path d="M5.55761146,12.1535162 C5.70251706,13.1646882 5.48643921,13.7758241 4.90937791,13.9869238 C4.33231661,14.1980235 3.61552498,13.9300634 2.75900303,13.1830437 L2.75900303,13.1830437 L3.6657306,13.1830437 L3.6657306,12.8356441 L4.16563109,13.1830437 L4.16563109,12.8356441 L4.80569103,12.8356441 Z M4.24818034,10.4145211 C4.39308594,11.4256932 4.17700809,12.036829 3.59994679,12.2479287 C3.02288549,12.4590284 2.30609387,12.1910684 1.44957191,11.4440486 L1.44957191,11.4440486 L2.35629948,11.4440486 L2.35629948,11.096649 L2.85619997,11.4440486 L2.85619997,11.096649 L3.49625991,11.096649 Z M3.53525505,8.49945162 C3.6956846,9.4733364 3.44504446,10.0960979 2.78333462,10.3677361 C2.12162478,10.6393742 1.43939544,10.3597886 0.736646615,9.52897912 L0.736646615,9.52897912 L1.64337419,9.52897912 L1.64337419,9.18157958 L2.14327467,9.52897912 L2.14327467,9.18157958 L2.78333462,9.18157958 Z" id="Combined-Shape" fill="#048F02"></path>
                    <g id="cross" transform="translate(7.920000, 0.000000)" fill="#FDFF00" fill-rule="nonzero">
                        <path d="M2.05934204,0.248486355 L2.05866523,0.843486355 L2.63150319,0.844073674 L2.63150319,1.84407367 L2.05866523,1.84348635 L2.05934204,3.58870473 L1.05934204,3.58870473 L1.05866523,1.84348635 L0.588665231,1.84407367 L0.588665231,0.844073674 L1.05866523,0.843486355 L1.05934204,0.248486355 L2.05934204,0.248486355 Z" id="Combined-Shape"></path>
                    </g>
                    <polygon id="beak" fill="#DB4400" points="11.1581077 1.38455009 8.84196391 1.98120202 11.1581077 2.71307963"></polygon>
                </g>
            </g>
        </g>
    </g>
</svg>