<?xml version="1.0" encoding="UTF-8"?>
<svg width="32px" height="24px" viewBox="0 0 32 24" version="1.1" xmlns="http://www.w3.org/2000/svg" xmlns:xlink="http://www.w3.org/1999/xlink">
    <title>flags/L/ME - Montenegro</title>
    <defs>
        <rect id="path-1" x="0" y="0" width="32" height="24"></rect>
        <polygon id="path-3" points="4 4 28 4 28 20 4 20"></polygon>
        <path d="M0.184615385,0.283783784 C0.943076295,0.140653224 1.52769168,0.0690879448 1.93846154,0.0690879448 C2.30717886,0.0690879448 2.89179424,0.140653224 3.69230769,0.283783784 C3.69230769,1.64383657 4.07503632,2.47648547 3.69230769,3.40540541 C3.30957907,4.33432534 2.37427185,3.88780232 1.950943,4.77671943 C1.40993091,3.93356155 0.679289941,4.39767515 0.184615385,3.19705145 C-0.310059172,1.99642775 0.485351942,1.44344271 0.184615385,0.283783784 Z" id="path-5"></path>
    </defs>
    <g id="Symbols" stroke="none" stroke-width="1" fill="none" fill-rule="evenodd">
        <g id="flag">
            <mask id="mask-2" fill="white">
                <use xlink:href="#path-1"></use>
            </mask>
            <g id="mask"></g>
            <g id="contents" mask="url(#mask-2)">
                <path d="M0,0 L32,0 L32,22 C32,23.1045695 31.1045695,24 30,24 L2,24 C0.8954305,24 1.3527075e-16,23.1045695 0,22 L0,0 L0,0 Z" id="background" fill="#E8AA00"></path>
                <mask id="mask-4" fill="white">
                    <use xlink:href="#path-3"></use>
                </mask>
                <use id="top" fill="#C51918" xlink:href="#path-3"></use>
                <g id="mark" mask="url(#mask-4)">
                    <g transform="translate(9.799988, 4.399994)">
                        <ellipse id="Oval-32" fill="#1E5E91" fill-rule="evenodd" cx="10.4307692" cy="10.5945946" rx="1" ry="1"></ellipse>
                        <path d="M10.278028,1.77322119 C12.1290266,4.37800697 12.40878,6.43088268 11.1172883,7.93184832 C9.82579652,9.43281396 8.70575201,9.95699317 7.75715471,9.50438598 L8.55147528,10.2166728 L8.32658369,10.411284 L8.98840475,10.411284 L8.74505408,10.5740047 L8.92420821,10.6524742 L9.11384922,10.735537 C8.77301653,10.9861711 8.77301653,11.1114882 9.11384922,11.1114882 C9.28304755,11.1114882 9.47332125,11.101042 9.66334972,11.1014096 C9.71656633,11.1015125 9.42780831,10.5196951 9.48051819,10.5219612 C9.57979595,10.5262292 9.85132079,10.9461232 9.98774515,11.0373735 C10.0147102,11.0554097 10.095906,11.0356465 10.1901004,11.0055287 L10.383604,10.9396188 C10.4768047,10.9078926 10.5555162,10.8841085 10.5785066,10.8957113 C10.7279514,10.9711333 10.6415005,11.1436253 10.6185842,11.2796275 C10.6098469,11.3314812 11.25899,10.861869 11.2853201,10.8957113 C11.3389297,10.9646164 11.4815835,11.0573172 10.763703,11.6106317 C10.763703,12.034875 10.8272006,12.1303991 10.6366755,12.1303991 C10.4059853,12.1303991 9.84718716,12.5381417 9.48051819,12.1303991 C9.23607221,11.8585707 8.92639124,11.5189337 8.55147528,11.1114882 L8.55147528,11.4118728 L7.88511194,10.735537 L7.75715471,11.1114882 L6.86048769,10.081584 L6.61829675,10.2166728 C7.1685257,11.7351353 7.59079743,12.4996486 7.88511194,12.5102128 C8.32658369,12.526059 6.53064025,13.3721472 6.11835511,13.9410259 C6.06058074,14.0207441 6.01202544,13.9592068 5.97268921,13.756414 C5.93284695,13.9592068 5.88429165,14.0207441 5.82651728,13.9410259 C5.41423215,13.3721472 3.6182887,12.526059 4.05976046,12.5102128 C4.35407496,12.4996486 4.77634669,11.7351353 5.32657565,10.2166728 L5.32657565,10.2166728 L5.08438471,10.081584 L4.18771768,11.1114882 L4.05976046,10.735537 L3.39339711,11.4118728 L3.39339711,11.1114882 C3.01848115,11.5189337 2.70880018,11.8585707 2.4643542,12.1303991 C2.09768524,12.5381417 1.53888714,12.1303991 1.30819689,12.1303991 C1.07750663,12.1303991 1.00028773,11.8076317 1.30819689,11.4118728 C1.61610604,11.0161138 2.31977414,11.1114882 2.83102317,11.1114882 C3.17185586,11.1114882 3.17185586,10.9861711 2.83102317,10.735537 L2.83102317,10.735537 L3.02066419,10.6524742 L3.19981832,10.5740047 L2.95646764,10.411284 L3.6182887,10.411284 L3.39339711,10.2166728 L4.18771768,9.50438598 C3.23912039,9.95699317 2.11907587,9.43281396 0.827584135,7.93184832 C-0.4639076,6.43088268 -0.18415419,4.37800697 1.66684437,1.77322119 C1.94356958,3.32892225 2.59405103,4.63019271 3.6182887,5.67703255 C3.6182887,5.86639469 3.19981832,6.20867269 3.06474389,6.45418981 C2.92966946,6.69970693 3.39339711,6.83964872 3.6182887,6.83964872 C3.84318029,6.83964872 3.8438568,7.5662962 4.05976046,7.24283557 C4.20369623,7.02719514 4.13172834,6.68247418 3.8438568,6.20867269 L3.8438568,6.20867269 L4.52742285,5.48767041 L4.75859633,5.02159394 L4.52742285,5.02159394 L4.52742285,4.54175108 L4.36544679,4.67476015 C4.24696072,4.38873617 4.07309739,4.24572419 3.8438568,4.24572419 C3.61461621,4.24572419 3.46446298,4.18032558 3.39339711,4.04952837 L3.39339711,4.04952837 L3.8438568,4.04952837 C4.0694249,4.04952837 3.80780843,3.75062935 3.6182887,3.5949404 C3.42876897,3.43925145 3.02066419,3.75062935 3.02066419,3.46113902 C3.02066419,3.17164868 3.39339711,3.29742792 3.6182887,3.13549953 C3.84318029,2.97357113 4.18771768,3.13549953 4.52742285,3.13549953 L4.52742285,3.13549953 L5.08438471,3.13549953 C5.21846274,3.13549953 5.10986662,3.24404602 4.75859633,3.46113902 L4.75859633,3.46113902 L5.08438471,3.75062935 L5.56886323,4.24572419 L5.32657565,4.38952849 L5.82651728,4.87432328 C5.71337887,5.0582713 5.71337887,5.15024531 5.82651728,5.15024531 C5.88982092,5.15024531 5.93843014,5.18545752 5.97234495,5.25588194 C6.00644225,5.18545752 6.05505147,5.15024531 6.11835511,5.15024531 C6.23149352,5.15024531 6.23149352,5.0582713 6.11835511,4.87432328 L6.61829675,4.38952849 L6.37600916,4.24572419 L6.86048769,3.75062935 L7.18627606,3.46113902 C6.83500577,3.24404602 6.72640965,3.13549953 6.86048769,3.13549953 L7.41744954,3.13549953 L7.41744954,3.13549953 C7.75715471,3.13549953 8.1016921,2.97357113 8.32658369,3.13549953 C8.55147528,3.29742792 8.92420821,3.17164868 8.92420821,3.46113902 C8.92420821,3.75062935 8.51610342,3.43925145 8.32658369,3.5949404 C8.13706397,3.75062935 7.87544749,4.04952837 8.10101559,4.04952837 L8.55147528,4.04952837 L8.55147528,4.04952837 C8.48040941,4.18032558 8.33025618,4.24572419 8.10101559,4.24572419 C7.871775,4.24572419 7.69791167,4.38873617 7.5794256,4.67476015 L7.41744954,4.54175108 L7.41744954,5.02159394 L7.18627606,5.02159394 L7.41744954,5.48767041 L8.10101559,6.20867269 C7.81314405,6.68247418 7.74117616,7.02719514 7.88511194,7.24283557 C8.10101559,7.5662962 8.1016921,6.83964872 8.32658369,6.83964872 C8.55147528,6.83964872 9.01520293,6.69970693 8.8801285,6.45418981 C8.74505408,6.20867269 8.32658369,5.86639469 8.32658369,5.67703255 C9.35082136,4.63019271 10.0013028,3.32892225 10.278028,1.77322119 Z" id="Combined-Shape" fill="#F6C540" fill-rule="evenodd"></path>
                        <path d="M2.63309538,12.6303468 L1.75798006,11.0961372 C0.995197791,9.3374066 0.613806655,8.35127753 0.613806655,8.13774993 C0.613806655,7.81745854 0.153199301,6.8689642 0.153199301,7.14429199 C0.153199301,7.32784385 0.153199301,7.6589965 0.153199301,8.13774993 L2.08367179,12.4867406 L2.08367179,12.8294147 L2.34364531,12.8294147 L2.63309538,12.6303468 Z" id="Path-155" fill="#F6C540" fill-rule="evenodd"></path>
                        <polygon id="Path-156" fill="#F6C540" fill-rule="nonzero" points="9.64186967 10.5649319 9.77500825 10.1230135 11.4008835 10.6128477 11.2677449 11.0547661"></polygon>
                        <polygon id="Path-157" fill="#F6C540" fill-rule="nonzero" points="10.5078852 9.76034782 10.9475372 9.90426886 10.517987 11.282289 10.078335 11.138368"></polygon>
                        <path d="" id="Combined-Shape" fill="#F6C540" fill-rule="nonzero"></path>
                        <path d="M6.13386202,0.822430377 C6.25455335,0.858760353 6.36400142,0.900121572 6.46203202,0.946313928 L6.46405574,0.909374755 C7.23588167,0.979874848 7.63640498,1.30295393 7.59347563,1.87098884 C7.55797784,2.34069046 7.32043442,2.58700057 6.92434327,2.58123854 L6.92307692,2.93243243 C6.49230769,3.09779354 6.16923077,3.18047409 5.95384615,3.18047409 C5.73846154,3.18047409 5.41538462,3.09779354 4.98461538,2.93243243 L4.98319521,2.57509876 C4.65727234,2.53416986 4.46265676,2.29255465 4.43079684,1.87098884 C4.38786749,1.30295393 4.78839079,0.979874848 5.56021673,0.909374755 L5.5632075,0.947749035 C5.66201352,0.900977859 5.7724763,0.85913618 5.89441617,0.822430377 L5.94086742,0.987430377 L6.08586742,0.987430377 Z M6.91738314,1.28833817 L6.97075576,1.3638552 C7.13135775,1.62711252 7.1166308,1.95474178 6.91664698,2.33533897 L6.9348174,2.29919359 C7.17925603,2.30299884 7.29374754,2.16209085 7.31727604,1.85076518 C7.33750716,1.58306991 7.2123981,1.39645942 6.91738314,1.28833817 Z M5.11133665,1.28632992 L5.09935405,1.29113071 C4.8097441,1.39965869 4.68693841,1.58536035 4.70699643,1.85076518 C4.7271589,2.11755204 4.81411943,2.25919385 4.99241019,2.29186609 L5.07686742,2.26543038 L5.05181768,2.21045066 C4.89454158,1.84562045 4.91758782,1.53389689 5.11133665,1.28632992 Z M6.13086742,1.11943038 L6.13043896,2.11033228 C6.29563468,2.12982774 6.5017919,2.1739996 6.7489106,2.24284787 L6.6728246,2.20079641 C6.95977177,1.65469578 6.77640507,1.31161912 6.05581642,1.09471069 L6.13086742,1.11943038 Z M5.85386742,1.13343038 L5.97246177,1.09471069 C5.2559138,1.31040281 5.07057975,1.65085216 5.35067082,2.1916288 C5.55182695,2.14275908 5.71906604,2.11306368 5.85401096,2.10282324 L5.85386742,1.13343038 Z" id="Combined-Shape" fill="#F6C540" fill-rule="nonzero"></path>
                        <ellipse id="Oval-33" fill="#3D58DB" fill-rule="evenodd" cx="5.95384615" cy="0.804054054" rx="1" ry="1"></ellipse>
                        <path d="" id="Combined-Shape" fill="#F6C540" fill-rule="nonzero" transform="translate(5.952091, 0.319594) rotate(-14.000000) translate(-5.952091, -0.319594) "></path>
                        <g id="shield" stroke-width="1" fill="none" fill-rule="evenodd" transform="translate(3.969231, 5.675676)">
                            <mask id="mask-6" fill="white">
                                <use xlink:href="#path-5"></use>
                            </mask>
                            <use fill="#1E5E91" xlink:href="#path-5"></use>
                            <rect id="Rectangle-44" fill="#5EAA22" mask="url(#mask-6)" x="0.184615385" y="3.12162162" width="3.50769231" height="1.7027027"></rect>
                            <path d="M1.92602133,0.636019728 C2.04654508,0.84801583 2.04654508,1.10484298 1.92602133,1.40650118 C1.74523571,1.85898849 2.22763349,1.63380652 2.67778519,1.63380652 C3.12793688,1.63380652 3.06770608,1.55480738 3.48860326,2.19860921 C3.60073418,2.37012398 3.59557274,2.48294701 3.52765613,2.55029622 C3.53394886,2.72397943 3.34435838,2.8683337 2.99417061,2.9607326 L2.94813787,2.77751896 C3.13447927,2.72835179 3.24817112,2.68133733 3.30047482,2.62931535 C3.03561426,2.64636773 2.67778519,2.515876 2.67778519,2.34823168 C2.67778519,2.26806668 2.58941746,2.21928556 2.45263995,2.19103597 L2.45116914,2.23092299 C2.45354757,2.23092299 2.47201296,2.2127874 2.47560587,2.2013119 L2.47485825,2.20301973 L2.47691606,2.1978426 L2.4769402,2.20020044 L2.47485825,2.20401973 L2.47823675,2.21826596 C2.4796388,2.22605945 2.48161477,2.23595048 2.48431117,2.24780528 C2.48806182,2.26429515 2.50540054,2.33310953 2.50709915,2.34008758 C2.53123866,2.43925495 2.54347683,2.51716423 2.54347683,2.60264557 C2.54347683,2.84142094 2.34013263,2.98174888 1.97227513,3.03581009 L1.94606767,2.84853686 C2.23420715,2.8061912 2.35886145,2.7201672 2.35886145,2.60264557 C2.35886145,2.53552968 2.34878242,2.47136568 2.32797287,2.38587812 C2.3267427,2.38082444 2.30885505,2.30983147 2.3045153,2.29075161 C2.29595351,2.25310941 2.29159519,2.22483786 2.29159519,2.1978426 L2.29701644,2.16883134 C2.06084954,2.14669879 1.75366167,2.15894477 1.49219055,2.1738639 C1.44264007,2.6212276 1.21148161,2.90722419 0.806540795,3.01498228 L0.760139736,2.83186623 C1.07722955,2.74748602 1.25771455,2.53725284 1.30681542,2.1856463 C1.1839208,2.19262031 1.08375516,2.19860921 1.02082519,2.19860921 C0.837521308,2.19860921 0.854951149,2.05975709 0.943833638,1.87586218 L0.98133494,1.8780293 C0.606808391,1.8780293 0.509804547,1.49614347 0.647244146,0.805356355 L0.828137835,0.843152536 C0.711124993,1.43127244 0.776550449,1.68884011 0.98133494,1.68884011 L0.981305433,1.80304479 C1.05003189,1.67623347 1.1422223,1.53530647 1.22171823,1.40650118 C1.43837114,1.05546385 1.35576769,1.23887204 1.22171823,0.954013881 C1.13235192,0.764108441 1.36711962,0.65811039 1.92602133,0.636019728 Z M3.23282147,0.909913029 L3.20456427,1.09687299 C2.79881703,1.03247195 2.62680488,1.07956228 2.62680488,1.19069955 C2.62680488,1.31285973 2.80804121,1.38974171 3.21794749,1.38634964 L3.23203513,1.38623306 L3.24551535,1.39042815 C3.56025817,1.48837731 3.56025817,1.68787496 3.2493315,1.79999013 L3.18805423,1.62152644 C3.21446755,1.61200222 3.23697795,1.60276471 3.25540989,1.59403641 C3.24098908,1.58805441 3.22413813,1.58187993 3.20494601,1.57561928 C2.71179914,1.57742264 2.44218949,1.4604466 2.44218949,1.19069955 C2.44218949,0.907298827 2.72630779,0.829518132 3.23282147,0.909913029 Z" id="lion" fill="#F6C540" fill-rule="nonzero" mask="url(#mask-6)"></path>
                        </g>
                    </g>
                </g>
            </g>
        </g>
    </g>
</svg>