<?xml version="1.0" encoding="UTF-8"?>
<svg width="32px" height="24px" viewBox="0 0 32 24" version="1.1" xmlns="http://www.w3.org/2000/svg" xmlns:xlink="http://www.w3.org/1999/xlink">
    <title>flags/L/MH - Marshall Islands</title>
    <defs>
        <rect id="path-1" x="0" y="0" width="32" height="24"></rect>
        <rect id="path-3" x="0" y="0" width="32" height="24"></rect>
    </defs>
    <g id="Symbols" stroke="none" stroke-width="1" fill="none" fill-rule="evenodd">
        <g id="flag">
            <mask id="mask-2" fill="white">
                <use xlink:href="#path-1"></use>
            </mask>
            <g id="mask"></g>
            <g id="contents" mask="url(#mask-2)">
                <mask id="mask-4" fill="white">
                    <use xlink:href="#path-3"></use>
                </mask>
                <use id="background" fill="#3D58DB" xlink:href="#path-3"></use>
                <polygon id="Star-16" fill="#F7FCFF" mask="url(#mask-4)" points="8 11 7.18300011 13.9441157 7.19060969 10.8887519 5.60959346 13.5032678 6.44124815 10.5632582 4.21347233 12.6542677 5.80749211 10.0476594 3.09818064 11.4600819 5.33634434 9.38019511 2.34643447 10.0092777 5.06274774 8.61036804 2.01398738 8.40945448 5.00699369 7.79527276 2.12549547 6.77926392 5.17321723 6.99536116 2.67268869 5.23960977 5.54909032 6.26995903 3.61498421 3.90468114 6.10673617 5.67286613 4.8824963 2.87348357 6.80479673 5.2483661 6.38121937 2.22249628 7.59150005 5.02794216 8 2 8.40849995 5.02794216 9.61878063 2.22249628 9.19520327 5.2483661 11.1175037 2.87348357 9.89326383 5.67286613 12.3850158 3.90468114 10.4509097 6.26995903 13.3273113 5.23960977 10.8267828 6.99536116 13.8745045 6.77926392 10.9930063 7.79527276 13.9860126 8.40945448 10.9372523 8.61036804 13.6535655 10.0092777 10.6636557 9.38019511 12.9018194 11.4600819 10.1925079 10.0476594 11.7865277 12.6542677 9.55875185 10.5632582 10.3904065 13.5032678 8.80939031 10.8887519 8.81699989 13.9441157"></polygon>
                <polygon id="white" fill="#FFFFFF" fill-rule="nonzero" mask="url(#mask-4)" points="-0.781995104 24.7452664 33.2582633 1.21483789 33.2582633 8.88560566"></polygon>
                <polygon id="gold" fill="#E2AE57" fill-rule="nonzero" mask="url(#mask-4)" points="-0.781995104 24.7452664 33.2582633 -4.78516211 33.2582633 2.88560566"></polygon>
            </g>
        </g>
    </g>
</svg>