<?xml version="1.0" encoding="UTF-8"?>
<svg width="32px" height="24px" viewBox="0 0 32 24" version="1.1" xmlns="http://www.w3.org/2000/svg" xmlns:xlink="http://www.w3.org/1999/xlink">
    <title>flags/L/MO - Macao</title>
    <defs>
        <rect id="path-1" x="0" y="0" width="32" height="24"></rect>
        <rect id="path-3" x="0" y="0" width="32" height="24"></rect>
        <circle id="path-5" cx="8" cy="8" r="8"></circle>
    </defs>
    <g id="Symbols" stroke="none" stroke-width="1" fill="none" fill-rule="evenodd">
        <g id="flag">
            <mask id="mask-2" fill="white">
                <use xlink:href="#path-1"></use>
            </mask>
            <g id="mask"></g>
            <g id="contents" mask="url(#mask-2)">
                <mask id="mask-4" fill="white">
                    <use xlink:href="#path-3"></use>
                </mask>
                <use id="background" fill="#1C9975" xlink:href="#path-3"></use>
                <g id="mark-2" mask="url(#mask-4)" fill="#FECA00">
                    <g transform="translate(6.000000, 2.000000)" id="Star-5">
                        <polygon points="10.0215914 4.85373171 8.38787181 5.84000587 8.76051291 3.91539035 7.40002441 2.47500491 9.24220204 2.39712215 10.0215914 0.600006104 10.8009808 2.39712215 12.6400242 2.39712215 11.2826699 3.91539035 11.691314 5.84000587"></polygon>
                        <polygon points="5.38261807 5.58447343 4.3724556 6.19430706 4.60286727 5.00427765 3.76164921 4.11365766 4.90070557 4.06550115 5.38261807 2.95430729 5.86453057 4.06550115 7.00164898 4.06550115 6.16236888 5.00427765 6.41504192 6.19430706"></polygon>
                        <polygon points="14.5809908 5.58447343 13.5708284 6.19430706 13.80124 5.00427765 12.960022 4.11365766 14.0990783 4.06550115 14.5809908 2.95430729 15.0629033 4.06550115 16.2000217 4.06550115 15.3607416 5.00427765 15.6134147 6.19430706"></polygon>
                        <polygon points="2.7664947 7.61062722 1.95587047 8.0999999 2.14076873 7.145038 1.46571718 6.43034292 2.37977478 6.39169881 2.7664947 5.5 3.15321462 6.39169881 4.06571708 6.39169881 3.39222068 7.145038 3.59498301 8.0999999"></polygon>
                        <polygon points="17.5607873 7.61062722 16.7501631 8.0999999 16.9350613 7.145038 16.2600098 6.43034292 17.1740674 6.39169881 17.5607873 5.5 17.9475072 6.39169881 18.8600097 6.39169881 18.1865133 7.145038 18.3892756 8.0999999"></polygon>
                    </g>
                </g>
                <g id="mark" mask="url(#mask-4)">
                    <g transform="translate(8.000000, 6.000000)">
                        <g id="stripes" stroke-width="1" fill="none">
                            <mask id="mask-6" fill="white">
                                <use xlink:href="#path-5"></use>
                            </mask>
                            <g id="Oval-29"></g>
                            <polygon id="Rectangle-35" fill="#F7FCFF" mask="url(#mask-6)" points="4.68085106 15.0638298 11.3191489 15.0638298 11.3191489 16.1361703 4.68085106 16.1361703"></polygon>
                            <polygon id="Rectangle-35" fill="#F7FCFF" mask="url(#mask-6)" points="1.95744681 13.4599915 14.7234043 13.4599915 14.7234043 14.4429702 1.95744681 14.4429702"></polygon>
                            <path d="M4.6202731,13.0205862 L0.715562171,13.0205862 L0.715562171,12.0205862 L4.61324244,12.0206356 C5.99394749,12.0012192 7.00286256,11.6068643 7.6760312,10.8481528 L8.01146516,10.4700936 L8.38588911,10.8095806 C9.2849513,11.6247526 10.1829852,12.0205862 11.0914655,12.0205862 L15.3957211,12.0205862 L15.3957211,13.0205862 L11.0914655,13.0205862 C10.0477717,13.0205862 9.04016369,12.6279846 8.07667599,11.8592396 C7.22340945,12.6155728 6.06479961,13.0003155 4.6202731,13.0205862 Z" id="Path-132" fill="#F7FCFF" fill-rule="nonzero" mask="url(#mask-6)"></path>
                        </g>
                        <path d="M8.03469952,1.60779355 C9.221795,2.64941537 9.81534274,3.98427582 9.81534274,5.61237491 C9.81534274,5.94253122 9.79093468,6.26104444 9.74211857,6.56791455 C10.1193138,5.47063623 10.0992608,4.29199981 9.68051579,3.02003912 L10.3272229,2.80713523 C10.8580521,4.41955751 10.8084063,5.92604484 10.1773627,7.30904281 C11.249763,6.47054225 12.5325323,5.96930722 14.0155863,5.80536727 L14.0903934,6.48209622 C13.7597416,6.51864717 13.4406441,6.57315514 13.1330006,6.64564836 C14.0364341,6.64887359 14.9267355,6.88739666 15.8039249,7.36070381 C15.1548902,8.8004696 14.0518933,9.75835755 12.4949344,10.2343677 C11.9317343,10.4065552 11.381256,10.4936394 10.8434996,10.4956202 C11.1916689,10.597456 11.5464181,10.6481674 11.9075043,10.6481674 C13.0379042,10.6481674 14.0891149,10.186009 15.0734877,9.24705271 L15.5434227,9.73971814 C14.4377562,10.7943719 13.2216663,11.3290185 11.9075043,11.3290185 C10.8593923,11.3290185 9.53932239,10.7236052 8.47174037,9.90995528 C8.35261871,9.84928823 8.23381107,9.78269632 8.11573361,9.71121978 C8.12687062,9.69041436 8.13808384,9.66971273 8.1493733,9.64911488 C8.13466261,9.63899903 8.12087865,9.62727925 8.10715371,9.61552909 C7.99029272,9.70358227 7.87199372,9.78688779 7.75203373,9.86470268 L7.885772,9.74024881 C6.77544912,10.7945595 5.55724325,11.3290185 4.24329753,11.3290185 C2.92913549,11.3290185 1.71304561,10.7943719 0.607379103,9.73971814 L1.07731415,9.24705271 C2.06168695,10.186009 3.11289767,10.6481674 4.24329753,10.6481674 C4.13471566,10.6359371 4.02321936,10.6197666 3.91080639,10.6005659 C2.33021191,10.3305925 1.13188455,9.28019665 0.31582432,7.44937831 C1.73051018,6.92753526 3.15883714,6.85062608 4.6008052,7.21865076 C4.81692238,7.27380902 5.02691616,7.33863053 5.23078651,7.41311527 C4.36537032,6.9237973 3.38436005,6.59314859 2.37974429,6.48209622 L2.45455135,5.80536727 C3.62732056,5.93500767 4.76989317,6.3371755 5.76285653,6.93573004 C5.28153976,5.65579644 5.28359465,4.27538473 5.76696035,2.80713523 L6.41366747,3.02003912 C5.96005674,4.39790633 5.97429416,5.66626148 6.45559206,6.84008766 C6.36897583,6.44629123 6.32594463,6.03686604 6.32594463,5.61237491 C6.32594463,4.06798788 6.8955296,2.73312742 8.03469952,1.60779355 Z" id="peddles" fill="#F7FCFF"></path>
                    </g>
                </g>
            </g>
        </g>
    </g>
</svg>