<?xml version="1.0" encoding="UTF-8"?>
<svg width="32px" height="24px" viewBox="0 0 32 24" version="1.1" xmlns="http://www.w3.org/2000/svg" xmlns:xlink="http://www.w3.org/1999/xlink">
    <title>flags/L/MQ-UNF - Martinique</title>
    <g id="Symbols" stroke="none" stroke-width="1" fill="none" fill-rule="evenodd">
        <g id="flag">
            <rect id="bg" fill="#21428E" x="0" y="0" width="32" height="24"></rect>
            <path d="M12.0891484,4.27294422 C12.0891484,4.49431893 12.4367483,4.49431893 11.9898342,4.64190207 C11.5677486,4.78948521 10.4256347,4.98626274 9.63112075,4.96166555 C9.35800656,4.96166555 8.71246395,4.78948521 8.53866401,4.78948521 C8.34003552,4.8140824 9.38283513,5.23223464 8.98557813,5.13384588 C8.43934976,4.98626274 8.11657846,4.93706836 8.53866401,5.20763745 C8.86143532,5.40441497 9.58146362,5.40441497 10.5994347,5.28142902 C10.9966917,5.23223464 12.0394913,5.01085993 12.4119197,4.96166555 C12.6602053,4.93706836 12.6602053,5.15844307 12.8091767,5.15844307 C14.1499191,5.23223464 16.533461,5.18304026 17.5762606,5.03545712 C18.4452603,4.91247117 18.7680316,4.96166555 19.0163172,5.25683183 C19.5128885,5.8225672 18.9914887,6.314511 17.5762606,6.60967728 C15.8382613,6.97863513 15.118233,7.29839861 14.4478618,8.01171712 C12.8340053,9.73352043 14.720976,11.6766984 18.2466318,11.9472675 C20.3074025,12.1194479 21.6481448,12.5130029 21.3253735,12.8327664 C21.2012307,12.9557523 19.8356598,13.1525299 18.2714604,13.2755158 C14.8699474,13.5460849 13.3554051,14.0134315 12.0643198,15.243291 C11.3442915,15.9320123 11.0960059,16.3501646 11.0960059,16.9158999 C11.0960059,17.70301 11.0960059,17.70301 9.78009212,17.70301 C9.08489238,17.70301 8.11657846,17.6046213 7.66966434,17.4570381 C6.9744646,17.2848578 6.87515035,17.2848578 7.12343597,17.5800241 C7.62000721,18.1703566 9.03523526,18.6868976 10.2021777,18.6868976 C11.0960059,18.6868976 11.5925772,18.859078 12.3870911,19.4248133 C13.9761191,20.5808813 15.7886042,21.0236307 18.7928602,20.9990335 C22.7406016,20.9744363 25,19.9413543 25,18.1949538 C25,16.8913027 23.510287,16.1287899 20.4067167,15.8582208 C18.8425173,15.7106376 15.7637756,15.9566095 14.4230332,16.3501646 C14.1747476,16.4239561 14.4478618,16.2517758 15.0437473,15.9566095 C15.7637756,15.6122489 16.9555466,15.366277 18.5694031,15.2186938 C22.1447161,14.9235275 23.7585726,14.1364175 23.7585726,12.660586 C23.7585726,11.233949 22.1695446,10.4222417 18.7680316,10.1024783 C15.4161757,9.807312 15.1678901,9.21697943 17.9983462,8.35607778 C20.0094597,7.76574522 21.0274308,6.88024637 21.0274308,5.67498406 C21.0274308,3.8301948 20.0094597,3.21526505 16.6079467,3.04308472 C14.5471761,2.94469596 14.0506048,2.99389034 13.1567766,3.41204257 C12.5608911,3.68261166 12.0891484,4.0761667 12.0891484,4.27294422 Z M15.0366594,4.08 C14.9206617,4.305 14.6113344,4.53 14.4180049,4.53 C14.1860094,4.53 14.1473435,4.305 14.2633412,4.08 C14.3793389,3.81 14.6886662,3.63 14.8819958,3.63 C15.1139912,3.63 15.1526571,3.81 15.0366594,4.08 Z M22.2487826,18.4070504 C21.8320527,18.888897 19.1355652,19.3140557 17.4931592,19.1723361 C15.6791585,18.9739287 13.7180767,18.2936747 14.3064012,18.0102356 C15.9488073,17.2732938 19.2501166,17.0835393 20.9177346,17.5993439 C21.3834915,17.7977513 22.3958637,18.2369869 22.2487826,18.4070504 Z" id="snake" fill="#FFFFFF" fill-rule="nonzero"></path>
        </g>
    </g>
</svg>