<?xml version="1.0" encoding="UTF-8"?>
<svg width="32px" height="24px" viewBox="0 0 32 24" version="1.1" xmlns="http://www.w3.org/2000/svg" xmlns:xlink="http://www.w3.org/1999/xlink">
    <title>flags/L/MS - Montserrat</title>
    <defs>
        <rect id="path-1" x="0" y="0" width="32" height="24"></rect>
        <rect id="path-3" x="0" y="0" width="32" height="24"></rect>
        <path d="M1.04668039,0.0326909109 C1.04668039,7.10497254 0.596478842,11.9639885 5.92864831,11.9639885 C11.2608178,11.9639885 11.2608178,5.9983397 10.9073639,0.0326909109 L1.04668039,0.0326909109 Z" id="path-5"></path>
        <rect id="path-7" x="0" y="0" width="18" height="14"></rect>
    </defs>
    <g id="Symbols" stroke="none" stroke-width="1" fill="none" fill-rule="evenodd">
        <g id="flag">
            <mask id="mask-2" fill="white">
                <use xlink:href="#path-1"></use>
            </mask>
            <g id="mask"></g>
            <g id="contents" mask="url(#mask-2)">
                <mask id="mask-4" fill="white">
                    <use xlink:href="#path-3"></use>
                </mask>
                <use id="background" fill="#2E42A5" xlink:href="#path-3"></use>
                <g id="masked" mask="url(#mask-4)">
                    <g transform="translate(20.000000, 10.000000)">
                        <mask id="mask-6" fill="white">
                            <use xlink:href="#path-5"></use>
                        </mask>
                        <path stroke="#F7FCFF" stroke-width="0.5" d="M10.6715584,0.282690911 C10.8611529,3.56981951 10.9315365,6.83534744 10.0071838,9.05052265 C9.65291209,9.89952087 9.15059671,10.5906168 8.44062234,11.0547652 C7.78849944,11.481093 6.96365397,11.7139885 5.92864831,11.7139885 C4.98896604,11.7139885 4.2364291,11.5595037 3.63568904,11.2584088 C3.01643842,10.9480363 2.56285796,10.4813933 2.22943038,9.87919741 C1.38986209,8.36287235 1.29151849,6.02236408 1.2874082,3.13021489 L1.2874082,3.13021489 L1.28784049,2.5391154 C1.28864363,2.22157323 1.29020667,1.89794462 1.29179736,1.5685402 C1.29382302,1.14906394 1.29589318,0.720234265 1.29650197,0.282690911 L1.29650197,0.282690911 Z"></path>
                        <g id="mark" stroke="none" stroke-width="1" fill="none" fill-rule="evenodd" mask="url(#mask-6)">
                            <g transform="translate(0.800049, 0.000000)">
                                <rect id="bg" fill="#2EBED7" x="0.132500005" y="0" width="10.0700004" height="7.97837838"></rect>
                                <rect id="bg" fill="#A95601" x="0" y="7.91351351" width="10.6000004" height="4.08648649"></rect>
                                <g id="inside" stroke-width="1" fill="none" transform="translate(2.451250, 0.324324)">
                                    <path d="M3.49443678,3.13949413 C2.24975491,3.42182038 1.68758282,3.42182038 1.80792049,3.13949413 C1.92825817,2.85716789 2.14938679,2.20698323 2.47130633,1.18894015" id="Path-170" stroke="#FFC6B5"></path>
                                    <path d="M4.05603413,3.44146193 C3.82895174,3.30231077 3.71541054,3.1060247 3.71541054,2.85260372 C3.71541054,2.47247226 2.88473884,2.33024933 3.47038649,1.73632271 C4.05603413,1.14239609 4.30877041,1.40395725 4.30877041,1.73632271 C4.30877041,2.06868816 4.77953793,2.85260372 4.77953793,2.85260372 C4.77953793,2.85260372 4.53837,3.04888979 4.05603413,3.44146193 Z" id="Path-171" fill="#FFC6B5"></path>
                                    <path d="M3.11375011,0 L3.11325001,0.908 L4.96875018,0.908108108 L4.96875018,1.81621622 L3.11325001,1.816 L3.11375011,9.72972973 L2.18625008,9.72972973 L2.18625001,1.816 L0.331250012,1.81621622 L0.331250012,0.908108108 L2.18625001,0.908 L2.18625008,0 L3.11375011,0 Z" id="Combined-Shape" fill="#272727"></path>
                                    <path d="M5.11079946,9.99690751 C4.88586557,8.95587327 4.77339863,8.079057 4.77339863,7.36645869 C4.77339863,6.29756122 4.20797416,5.53302583 4.36955189,4.96776831 C4.53112961,4.4025108 4.92018404,3.77745082 4.72565683,3.39054986 C4.53112961,3.00364891 4.91546214,2.81526158 4.36955189,3.00364891 C3.82364164,3.19203624 3.67689472,2.81526158 3.14981569,3.00364891 C2.62273667,3.19203624 2.55599804,4.08143077 2.55599804,4.33516137 C2.55599804,4.58889197 2.7903638,6.29956737 2.7903638,6.83301303 C2.7903638,7.36645869 2.59727061,10.64671 3.14981569,10.64671 C3.70236078,10.64671 4.30479422,9.79304414 4.51522552,9.79304414 C4.65551306,9.79304414 4.8540377,9.8609986 5.11079946,9.99690751 Z" id="Path-169" fill="#0C7C38"></path>
                                    <path d="M1.7785516,5.81703979 C1.44173619,5.81703979 1.7515244,6.59943949 0.894459951,6.94249167 C0.037395498,7.28554385 -0.130817061,7.76864461 0.139162145,7.76864461 C0.319148282,7.76864461 1.12072731,8.56814438 2.54389923,10.1671439 L3.06736812,9.35789998 L3.06736812,6.80234754 C2.43270071,6.14547571 2.0030952,5.81703979 1.7785516,5.81703979 Z" id="Path-172" stroke="#FF9A06"></path>
                                    <path d="M4.2918876,9.8334538 C4.55855427,10.4056867 4.55855427,10.6918032 4.2918876,10.6918032" id="Path-173" stroke="#979797"></path>
                                    <path d="M4.16318903,3.4659239 C4.04603868,4.1078292 3.87593974,4.49597206 3.65289223,4.63035247 C3.31832097,4.83192309 1.94383702,5.22216763 1.94383702,5.55538011 C1.94383702,5.77752175 1.89836889,5.92830167 1.80743264,6.00771986" id="Path-174" stroke="#FFC6B5"></path>
                                    <path d="M3.49658335,1.47820832 C3.72080171,1.7446764 3.89568163,2.09753643 4.0212231,2.53678843 C4.2095353,3.19566642 4.75505526,3.42006897 4.75505526,3.11169458 C4.75505526,2.8033202 5.15831658,1.47820832 4.75505526,1.47820832 C4.48621439,1.47820832 4.06672375,1.47820832 3.49658335,1.47820832 Z" id="Path-175" fill="#FF9A06"></path>
                                </g>
                            </g>
                        </g>
                    </g>
                </g>
                <g id="gb---large" mask="url(#mask-4)">
                    <g id="flag">
                        <mask id="mask-8" fill="white">
                            <use xlink:href="#path-7"></use>
                        </mask>
                        <use id="mask" fill="#2B409A" xlink:href="#path-7"></use>
                        <g id="contents" mask="url(#mask-8)">
                            <g transform="translate(-3.000000, -2.000000)">
                                <g id="stripe">
                                    <polygon id="white" fill="#F7FCFF" fill-rule="nonzero" transform="translate(12.087462, 8.731805) scale(1, -1) translate(-12.087462, -8.731805) " points="0.995733743 2.46378897 4.95668418 0.726588534 21.0898804 13.5748663 23.1791912 16.1563978 18.9435246 16.7370214 12.3631795 11.2003309 7.066678 7.46989524"></polygon>
                                    <polygon id="red" fill="#F50100" fill-rule="nonzero" transform="translate(11.983464, 9.146214) scale(1, -1) translate(-11.983464, -9.146214) " points="1.53799381 2.07548339 3.55591517 1.0673567 22.4289341 17.2250722 19.5955377 17.2250722"></polygon>
                                </g>
                                <g id="stripe" transform="translate(12.000000, 8.500000) scale(-1, 1) translate(-12.000000, -8.500000) ">
                                    <polygon id="white" fill="#F7FCFF" fill-rule="nonzero" transform="translate(12.087462, 8.731805) scale(1, -1) translate(-12.087462, -8.731805) " points="0.995733743 2.46378897 4.95668418 0.726588534 21.0898804 13.5748663 23.1791912 16.1563978 18.9435246 16.7370214 12.3631795 11.2003309 7.066678 7.46989524"></polygon>
                                    <polygon id="red" fill="#F50100" fill-rule="nonzero" transform="translate(12.255557, 9.098760) scale(1, -1) translate(-12.255557, -9.098760) " points="1.13088612 2.32417911 3.14880748 1.31605242 11.1851345 8.23400982 13.567733 9.00693659 23.3802288 16.8814684 20.5468324 16.8814684 10.7398496 9.19384456 8.134898 8.26702255"></polygon>
                                </g>
                                <g id="cross" transform="translate(3.000000, 2.000000)">
                                    <path d="M10.7345755,-0.75 L10.7340639,5.25 L18.75,5.25 L18.75,8.75 L10.7340639,8.75 L10.7345755,14.75 L7.23457546,14.75 L7.23406394,8.75 L-0.75,8.75 L-0.75,5.25 L7.23406394,5.25 L7.23457546,-0.75 L10.7345755,-0.75 Z" id="red" stroke="#F7FCFF" stroke-width="1.5" fill="#F50100"></path>
                                </g>
                            </g>
                        </g>
                    </g>
                </g>
            </g>
        </g>
    </g>
</svg>