<?xml version="1.0" encoding="UTF-8"?>
<svg width="32px" height="24px" viewBox="0 0 32 24" version="1.1" xmlns="http://www.w3.org/2000/svg" xmlns:xlink="http://www.w3.org/1999/xlink">
    <title>flags/L/MT - Malta</title>
    <defs>
        <rect id="path-1" x="0" y="0" width="32" height="24"></rect>
        <rect id="path-3" x="0" y="0" width="16" height="24"></rect>
    </defs>
    <g id="Symbols" stroke="none" stroke-width="1" fill="none" fill-rule="evenodd">
        <g id="flag">
            <mask id="mask-2" fill="white">
                <use xlink:href="#path-1"></use>
            </mask>
            <use id="mask" fill="#F7FCFF" xlink:href="#path-1"></use>
            <path d="M6.50005784,4.5 L9.50018891,4.5 L9.50128544,7.40177128 L13.5,8.49459476 L13.5,11.5000723 L10.3280648,11.500531 C10.3794655,11.9119654 9.92865803,12.2457229 9.50132009,11.9568486 L9.50132009,11.9568486 L9.50016323,15.5 L6.50005001,15.5 L6.50040061,11.9943233 C6.09249488,12.2133603 5.6864395,11.8923386 5.73523093,11.5005298 L5.73523093,11.5005298 L2.5,11.5000709 L2.5,8.5 L5.91467231,8.5 C5.68476561,8.18725509 5.68772271,7.85937454 5.84152484,7.65742827 L5.84152484,7.65742827 L6.50005784,4.5 Z" id="Combined-Shape" stroke="#FECA00" fill="#A0A0A0" mask="url(#mask-2)"></path>
            <g id="contents" mask="url(#mask-2)">
                <g transform="translate(16.000000, 0.000000)">
                    <mask id="mask-4" fill="white">
                        <use xlink:href="#path-3"></use>
                    </mask>
                    <use id="background" stroke="none" fill="#E31D1C" fill-rule="evenodd" xlink:href="#path-3"></use>
                    <rect id="right" stroke="none" fill="#FFFFFF" fill-rule="evenodd" mask="url(#mask-4)" x="-16" y="0" width="12" height="24"></rect>
                </g>
            </g>
        </g>
    </g>
</svg>