<?xml version="1.0" encoding="UTF-8"?>
<svg width="32px" height="24px" viewBox="0 0 32 24" version="1.1" xmlns="http://www.w3.org/2000/svg" xmlns:xlink="http://www.w3.org/1999/xlink">
    <title>flags/L/MV - Maldives</title>
    <defs>
        <rect id="path-1" x="0" y="0" width="32" height="24"></rect>
        <polygon id="path-3" points="6 6 26 6 26 18 6 18"></polygon>
    </defs>
    <g id="Symbols" stroke="none" stroke-width="1" fill="none" fill-rule="evenodd">
        <g id="flag">
            <mask id="mask-2" fill="white">
                <use xlink:href="#path-1"></use>
            </mask>
            <g id="mask"></g>
            <g id="contents" mask="url(#mask-2)">
                <path d="M0,0 L32,0 L32,22 C32,23.1045695 31.1045695,24 30,24 L2,24 C0.8954305,24 1.3527075e-16,23.1045695 0,22 L0,0 L0,0 Z" id="background" fill="#C51918"></path>
                <polygon id="background" fill="#C51918" points="0 0 32 0 32 24 0 24"></polygon>
                <mask id="mask-4" fill="white">
                    <use xlink:href="#path-3"></use>
                </mask>
                <path stroke-opacity="0.238111413" stroke="#B6EB9A" stroke-width="2" d="M25,7 L25,17 L7,17 L7,7 L25,7 Z"></path>
                <path d="M16.0329911,12.4624875 C16.0159969,15.5281805 18.4294638,17.162713 18.4294638,17.162713 C15.6755335,17.4860684 13.8432773,14.9894965 13.8432773,12.4923673 C13.8432773,9.9952381 16.3408703,7.93249939 18.4294638,7.00105517 C18.4294638,7.00105517 16.0499853,9.39679443 16.0329911,12.4624875 Z" id="Shape-sp-1695-0" fill="#F9FAFA" mask="url(#mask-4)"></path>
            </g>
        </g>
    </g>
</svg>