<?xml version="1.0" encoding="UTF-8"?>
<svg width="32px" height="24px" viewBox="0 0 32 24" version="1.1" xmlns="http://www.w3.org/2000/svg" xmlns:xlink="http://www.w3.org/1999/xlink">
    <title>flags/L/MW - Malawi</title>
    <defs>
        <rect id="path-1" x="0" y="0" width="32" height="24"></rect>
        <rect id="path-3" x="0" y="0" width="32" height="24"></rect>
    </defs>
    <g id="Symbols" stroke="none" stroke-width="1" fill="none" fill-rule="evenodd">
        <g id="flag">
            <mask id="mask-2" fill="white">
                <use xlink:href="#path-1"></use>
            </mask>
            <g id="mask"></g>
            <g id="contents" mask="url(#mask-2)">
                <mask id="mask-4" fill="white">
                    <use xlink:href="#path-3"></use>
                </mask>
                <use id="background" fill="#E11C1B" xlink:href="#path-3"></use>
                <rect id="top" fill="#272727" mask="url(#mask-4)" x="0" y="0" width="32" height="10"></rect>
                <rect id="bottom" fill="#5EAA22" mask="url(#mask-4)" x="0" y="16" width="32" height="8"></rect>
                <g id="mark" mask="url(#mask-4)" fill="#E11C1B">
                    <g transform="translate(2.000000, 0.000000)">
                        <path d="M14.140918,0.600006104 L14.5882846,3.34444851 C14.836865,3.35473737 15.0829128,3.37337081 15.3260605,3.40003156 L16.3123251,0.774497141 L16.2041695,3.53322829 C16.4492644,3.58090754 16.6907321,3.6368609 16.9281585,3.70073079 L18.4139415,1.29236197 L17.7610075,3.96289862 C17.9979935,4.04872266 18.2300436,4.14269652 18.4566881,4.24441431 L20.3782194,2.13695598 L19.2184927,4.62658616 C19.4409621,4.75059552 19.6569767,4.88250108 19.8660051,5.02184392 L22.1420252,3.28113324 L20.5299877,5.50826743 C20.730836,5.66972477 20.9234859,5.83868893 21.1073388,6.01464277 L23.6486689,4.68811894 L21.6539786,6.588295 C21.8238954,6.78415901 21.9837981,6.98687744 22.1330308,7.19588368 L24.8497257,6.3126914 L22.5458155,7.83729756 C22.6006822,7.93247447 22.6534481,8.02871363 22.7040605,8.12596976 L20.7390603,8.12608513 C19.384849,6.24948339 16.9102018,4.99318017 14.0818279,4.99318017 C11.253454,4.99318017 8.77880681,6.24948339 7.42459553,8.12608513 L5.55806028,8.12596976 C5.61027792,8.02562915 5.66478767,7.92637103 5.72153195,7.82824513 L3.43211028,6.3126914 L6.13266881,7.19087541 C6.28365027,6.97976286 6.44552297,6.7750763 6.6176099,6.57740046 L4.63316703,4.68811894 L7.16157201,6.0081515 C7.34713061,5.83094742 7.54162175,5.66085306 7.74443203,5.49839821 L6.13981073,3.28113324 L8.40618197,5.01514286 C8.61705131,4.87496393 8.83500655,4.74234514 9.05950394,4.61775611 L7.90361659,2.13695598 L9.81836551,4.23862113 C10.0463446,4.13669303 10.2797744,4.04259394 10.5181779,3.95673586 L9.86789445,1.29236197 L11.3504615,3.69630682 C11.588917,3.63257868 11.8314328,3.57683161 12.0775904,3.52942703 L11.9695108,0.774497141 L12.9554131,3.39792717 C13.1987792,3.37168547 13.445037,3.35348378 13.693819,3.3436396 L14.140918,0.600006104 Z M14.122011,5.95106474 C16.3864862,5.95106474 18.4004153,6.80318544 19.6833583,8.12578506 L8.56066366,8.12578506 C9.84360664,6.80318544 11.8575358,5.95106474 14.122011,5.95106474 Z"></path>
                    </g>
                </g>
            </g>
        </g>
    </g>
</svg>