<?xml version="1.0" encoding="UTF-8"?>
<svg width="32px" height="24px" viewBox="0 0 32 24" version="1.1" xmlns="http://www.w3.org/2000/svg" xmlns:xlink="http://www.w3.org/1999/xlink">
    <title>flags/L/MY - Malaysia</title>
    <defs>
        <rect id="path-1" x="0" y="0" width="32" height="24"></rect>
    </defs>
    <g id="Symbols" stroke="none" stroke-width="1" fill="none" fill-rule="evenodd">
        <g id="flag">
            <mask id="mask-2" fill="white">
                <use xlink:href="#path-1"></use>
            </mask>
            <g id="mask"></g>
            <g id="contents" mask="url(#mask-2)">
                <polygon id="background" fill="#F7FCFF" points="0 0 32 0 32 24 0 24"></polygon>
                <g id="mark">
                    <rect id="lines" fill="#E31D1C" x="0.0271584307" y="5" width="32" height="2.9000001"></rect>
                    <rect id="lines" fill="#E31D1C" x="0.0271584307" y="10.2000122" width="32" height="2.9000001"></rect>
                    <rect id="lines" fill="#E31D1C" x="0.111664225" y="15.2000122" width="32" height="2.5"></rect>
                    <rect id="lines" fill="#E31D1C" x="0.111664225" y="20.2000122" width="32" height="2.70000005"></rect>
                    <rect id="lines" fill="#E31D1C" x="0" y="0" width="32" height="2.5"></rect>
                    <polygon id="square" fill="#3D58DB" points="0 0 16 0 16 12 0 12"></polygon>
                    <path d="M3.59354691,6.2022212 C3.59354691,7.57844376 4.24177007,8.87985625 5.5605153,8.87985625 C7.53909865,8.87985625 7.92402977,8.45803575 8.84727918,7.87605977 C9.06555806,8.36633473 8.32930002,10.4644377 5.53351597,10.4644377 C3.29725896,10.4194172 1.49003036,8.6228787 1.49003036,6.20222008 C1.49003036,3.42370665 3.53360568,1.92315985 5.47739666,1.94014734 C7.19342444,1.94014734 9.01345464,2.91390189 8.95767981,4.15612778 C8.14913476,3.36628366 7.27119017,3.36628366 5.80970279,3.36628366 C4.34821542,3.36628366 3.59354691,4.82582543 3.59354691,6.2022212 Z" id="Shape-sp-1695-0" fill="#FECA00"></path>
                    <polygon id="Star-15" fill="#FECA00" points="11 7.29998779 10.072949 8.65315734 10.1183221 7.01351328 8.57294902 7.56334355 9.57341523 6.26351328 8 5.79998779 9.57341523 5.3364623 8.57294902 4.03663204 10.1183221 4.5864623 10.072949 2.94681824 11 4.29998779 11.927051 2.94681824 11.8816779 4.5864623 13.427051 4.03663204 12.4265848 5.3364623 14 5.79998779 12.4265848 6.26351328 13.427051 7.56334355 11.8816779 7.01351328 11.927051 8.65315734"></polygon>
                </g>
            </g>
        </g>
    </g>
</svg>