<?xml version="1.0" encoding="UTF-8"?>
<svg width="32px" height="24px" viewBox="0 0 32 24" version="1.1" xmlns="http://www.w3.org/2000/svg" xmlns:xlink="http://www.w3.org/1999/xlink">
    <title>flags/L/NA - Namibia</title>
    <defs>
        <rect id="path-1" x="0" y="0" width="32" height="24"></rect>
        <rect id="path-3" x="0" y="0" width="32" height="24"></rect>
    </defs>
    <g id="Symbols" stroke="none" stroke-width="1" fill="none" fill-rule="evenodd">
        <g id="flag">
            <mask id="mask-2" fill="white">
                <use xlink:href="#path-1"></use>
            </mask>
            <g id="mask"></g>
            <g id="contents" mask="url(#mask-2)">
                <mask id="mask-4" fill="white">
                    <use xlink:href="#path-3"></use>
                </mask>
                <use id="background" fill="#009933" xlink:href="#path-3"></use>
                <polygon id="background" fill="#3195F9" mask="url(#mask-4)" points="0 0 0 24 32 0"></polygon>
                <g id="marks" mask="url(#mask-4)">
                    <g transform="translate(-4.000000, -4.000000)">
                        <path d="M36.7686373,0.383294383 L39.9596885,7.24976535 L3.518099,32.0548177 L-0.32268543,25.0961725 L36.7686373,0.383294383 Z" id="Path-14" stroke="#F7FCFF" stroke-width="2" fill="#E31D1C" fill-rule="nonzero"></path>
                        <path d="M11.5237488,5.20001221 L11.8372149,7.24526335 L13.7651875,6.49410743 L13.0140315,8.42207995 L15.0592827,8.73554611 L13.4447763,10.0296413 L15.0592827,11.3237366 L13.0140315,11.6372027 L13.7651875,13.5651752 L11.8372149,12.8140193 L11.5237488,14.8592705 L10.2296535,13.2447641 L8.93555832,14.8592705 L8.62209216,12.8140193 L6.69411964,13.5651752 L7.44527555,11.6372027 L5.40002441,11.3237366 L7.01453078,10.0296413 L5.40002441,8.73554611 L7.44527555,8.42207995 L6.69411964,6.49410743 L8.62209216,7.24526335 L8.93555832,5.20001221 L10.2296535,6.81451857 L11.5237488,5.20001221 Z M10.2296535,7.52964134 C8.84894167,7.52964134 7.72965355,8.64892946 7.72965355,10.0296413 C7.72965355,11.4103532 8.84894167,12.5296413 10.2296535,12.5296413 C11.6103654,12.5296413 12.7296535,11.4103532 12.7296535,10.0296413 C12.7296535,8.64892946 11.6103654,7.52964134 10.2296535,7.52964134 Z M10.2296535,8.02964134 C11.334223,8.02964134 12.2296535,8.92507184 12.2296535,10.0296413 C12.2296535,11.1342108 11.334223,12.0296413 10.2296535,12.0296413 C9.12508405,12.0296413 8.22965355,11.1342108 8.22965355,10.0296413 C8.22965355,8.92507184 9.12508405,8.02964134 10.2296535,8.02964134 Z" id="Star-19" stroke="none" fill="#FECA00" fill-rule="evenodd"></path>
                    </g>
                </g>
            </g>
        </g>
    </g>
</svg>