<?xml version="1.0" encoding="UTF-8"?>
<svg width="32px" height="24px" viewBox="0 0 32 24" version="1.1" xmlns="http://www.w3.org/2000/svg" xmlns:xlink="http://www.w3.org/1999/xlink">
    <title>flags/L/NF - Norfolk Island</title>
    <defs>
        <rect id="path-1" x="0" y="0" width="32" height="24"></rect>
    </defs>
    <g id="Symbols" stroke="none" stroke-width="1" fill="none" fill-rule="evenodd">
        <g id="flag">
            <mask id="mask-2" fill="white">
                <use xlink:href="#path-1"></use>
            </mask>
            <g id="mask"></g>
            <g id="contents" mask="url(#mask-2)">
                <polygon id="bottom" fill="#409100" points="22 0 32 0 32 24 22 24"></polygon>
                <polygon id="left" fill="#409100" points="0 0 10 0 10 24 0 24"></polygon>
                <polygon id="middle" fill="#FFFFFF" points="10 0 22 0 22 24 10 24"></polygon>
                <g id="mark" transform="translate(10.000000, 0.600006)" fill="#409100">
                    <path d="M5.99170995,1.19998169 C6.21364514,2.03850189 6.32461274,2.51414289 6.32461274,2.62690468 L6.32461274,2.62690468 L6.32461274,3.5121806 C6.32461274,3.68720223 6.2218675,3.81828762 6.12993755,3.91405445 L6.05643773,3.98769185 C5.94718125,4.0966751 5.92621284,4.13860452 6.32461274,4.13860452 C7.08157254,4.13860452 7.04937228,4.38050116 6.58858018,4.38050116 C6.12778807,4.38050116 6.72089987,4.68487577 7.54825588,4.68487577 C8.37561189,4.68487577 6.85444665,5.04278826 6.32461274,5.04278826 C5.79477882,5.04278826 6.85444665,5.20833434 7.54825588,5.20833434 C7.97057454,5.20833434 7.62170261,5.33991665 7.22404699,5.47529308 L7.05274254,5.53317128 C6.85431714,5.60009755 6.66949606,5.66340848 6.58858018,5.70713055 C6.46096776,5.77608462 6.6410244,5.79539312 7.12875008,5.76505605 C6.94787681,5.81856503 6.76823079,5.87319815 6.63076303,5.91522626 C6.10923843,6.07467233 6.63076303,5.91522626 6.68915092,6.10620445 C6.7396735,6.27145637 7.26233862,5.94812144 7.67575454,5.72173316 L7.8374368,5.70713055 C8.06601379,5.97088078 8.18030229,6.18328535 8.18030229,6.34434425 C8.18030229,6.49005649 7.69798116,6.52949149 7.19890393,6.57560832 C7.2223534,6.54426373 7.12240685,6.56034567 6.97526746,6.59656866 C6.72197105,6.6232027 6.48624969,6.65498784 6.32461274,6.70749749 C6.17061109,6.75752672 6.19621589,6.77847293 6.32099435,6.78301605 L6.28768771,6.79345498 C5.92794487,6.9034394 6.28768771,6.79345498 6.3460756,6.98443317 C6.39104925,7.13153534 6.67043309,6.93419619 6.92629393,6.75891305 C7.27205821,6.73689084 7.65290176,6.70749749 7.8374368,6.70749749 C8.28399021,6.70749749 7.39088338,6.92277933 7.04937228,6.92277933 C6.70786118,6.92277933 8.18030229,7.10456147 8.45189511,7.26527784 C8.72348794,7.42599422 7.4379213,7.26527784 7.04937228,7.26527784 C6.66082327,7.26527784 6.58858018,7.58280571 6.85444665,7.58280571 L6.85444665,7.58280571 L7.8374368,7.58280571 C8.20924083,7.58280571 8.59628106,8.15158137 8.45189511,8.15158137 C8.30750917,8.15158137 7.61881275,8.47095892 6.85444665,8.47095892 L6.85444665,8.47095892 L6.68101404,8.47099017 C6.67229619,8.47099664 6.66684519,8.47100395 6.66441039,8.47101195 L8.13266751,8.47104983 L8.13266751,8.47104983 L8.18030229,8.47095892 C8.52316778,8.47013684 9.50135188,8.471781 9.50135188,8.80986083 C9.50135188,9.14794067 9.02279223,9.06193069 8.59628106,9.29314031 C8.16976989,9.52434993 9.87182658,9.73439102 9.87182658,9.73439102 C9.87182658,9.73439102 9.19816185,9.94391831 8.87032804,9.94391831 C8.54249423,9.94391831 9.02279223,10.2536364 9.87182658,10.2536364 C10.7208609,10.2536364 10.1502706,10.8499517 10.1502706,10.9844643 C10.1502706,11.118977 9.50135188,11.211358 9.02279223,11.6290767 C8.71825427,11.8948977 9.07718077,11.8224011 9.4934859,11.7345264 L9.67364835,11.6968658 C9.85378975,11.6601467 10.028567,11.6290767 10.1502706,11.6290767 C10.5965172,11.6290767 10.7866118,11.6476763 10.6413055,11.8640885 C10.4959993,12.0805007 9.19816185,12.4228964 8.87032804,12.4228964 L8.87032804,12.4228964 L10.6413055,12.4228964 C11.1323404,12.4228964 10.5037707,12.8108148 9.87182658,12.8108148 C9.23988243,12.8108148 9.02279223,13.1655417 8.87032804,13.1655417 L8.87032804,13.1655417 L10.1502706,13.1655417 C10.2728576,13.1655417 10.4182085,12.7973861 10.5037707,12.8108148 C11.0827533,12.9016839 10.822982,13.6304272 10.5037707,13.6304272 C10.1373863,13.6304272 9.02279223,13.8761259 9.19816185,14.1240854 C9.37353146,14.3720449 9.7525957,13.8761259 10.6413055,13.8761259 C11.5300153,13.8761259 10.7267918,14.1240854 10.5037707,14.1240854 C10.2807497,14.1240854 9.33723046,14.3042234 9.02279223,14.4599045 C8.82626834,14.5572052 9.45390654,14.5328801 10.1308704,14.5009533 L10.4024501,14.4880474 C10.7180766,14.4731482 11.0219462,14.4599045 11.2353126,14.4599045 C11.9668544,14.4599045 9.50135188,15.0823208 8.59628106,15.0823208 C8.07412482,15.0823208 8.35478669,15.1618761 8.74395222,15.2291921 L8.90375951,15.2552481 C9.14721338,15.2927003 9.39640148,15.3213402 9.50135188,15.3213402 C9.80454191,15.3213402 10.850931,15.5278874 11.6338055,15.5278874 C12.41668,15.5278874 10.850931,16.043639 10.1502706,16.043639 C9.44961017,16.043639 8.87032804,16.0069537 9.19816185,16.417171 C9.52599566,16.8273882 11.3412501,16.2202832 11.9257473,16.5603154 C12.2959289,16.7756692 11.212416,16.8216578 10.2155866,16.8264296 L9.75595116,16.8261117 C9.36392891,16.8239857 9.03039329,16.8181398 8.87032804,16.8181398 C8.27008335,16.8181398 9.47057272,17.0408204 10.5037707,17.0408204 L10.5037707,17.0408204 L10.8363626,17.0407791 C11.5899354,17.0419838 11.7761463,17.0635847 11.7761463,17.3437564 C11.7761463,17.6612842 8.9294322,17.5033424 8.59628106,17.5033424 C8.26312992,17.5033424 8.22028452,17.9204445 7.8374368,17.9204445 C7.45458908,17.9204445 7.54825588,17.3454005 7.08746378,17.6642643 C6.78026904,17.8768401 6.93386641,19.0554126 7.54825588,21.1999817 L7.54825588,21.1999817 L5.06056376,21.1999817 L5.06056376,18.1704592 C4.52085483,18.0017275 3.73245848,18.0017275 2.69537473,18.1704592 C1.65829098,18.3391908 0.97624123,18.1704592 0.649225471,17.6642643 C0.649225471,17.6642643 0.714533184,17.6106236 0.845148609,17.5033424 C0.959437106,17.4094713 1.30883919,17.4251165 1.6807598,17.4544512 L2.00010515,17.4807127 C2.15757671,17.4932848 2.30802774,17.5033424 2.43472334,17.5033424 C2.94150573,17.5033424 3.60780801,17.3437564 4.20692788,17.3437564 C4.80604775,17.3437564 2.43472334,16.5603154 1.92794094,17.0408204 C1.42115854,17.5213253 0,16.8181398 0,16.417171 C0,16.0162021 1.12379712,16.417171 1.57965586,16.417171 C2.0355146,16.417171 1.12379712,15.5278874 0.649225471,15.5278874 C0.17465382,15.5278874 1.12379712,15.3213402 1.57965586,15.3213402 C2.0355146,15.3213402 2.43472334,15.5278874 2.69537473,15.5278874 C2.95602613,15.5278874 1.38649365,14.8532691 1.12379712,14.8532691 L1.12379712,14.8532691 L2.43472334,14.8532691 C3.28979081,14.8532691 2.9144078,15.0823208 3.60780801,15.0823208 C4.30120822,15.0823208 3.92153045,14.7030343 3.92153045,14.7030343 C3.92153045,14.7030343 1.57965586,14.4599045 1.12379712,14.1240854 C0.66793838,13.7882663 2.69537473,14.1240854 3.38693433,14.1240854 C4.07849392,14.1240854 1.92794094,13.6304272 1.57965586,13.6304272 L1.57965586,13.6304272 L3.1645268,13.6304272 C3.89433026,13.6304272 4.77434828,14.1240854 5.66305809,14.1240854 C6.14550056,14.1240854 5.22959023,13.8416084 4.19841614,13.5265958 L3.87044727,13.4263281 C3.10323026,13.191207 2.34676244,12.9527056 2.11435424,12.8108148 C1.53333374,12.4560879 3.1645268,13.1655417 3.92153045,13.1655417 C4.6785341,13.1655417 2.9144078,12.4228964 2.43472334,12.4228964 C1.95503887,12.4228964 1.49580567,12.206998 1.92794094,12.0074384 C2.36007621,11.8078788 3.92153045,12.4228964 4.38771708,12.4228964 C4.85390371,12.4228964 5.06056376,12.8108148 5.66305809,12.8108148 C6.26555242,12.8108148 4.38771708,12.0074384 3.60780801,12.0074384 C2.82789894,12.0074384 2.69537473,11.6290767 3.1645268,11.6290767 C3.63367886,11.6290767 2.11435424,10.9844643 2.11435424,10.9844643 C2.11435424,10.9844643 1.89409409,10.5272859 2.43472334,10.5272859 L2.43472334,10.5272859 L3.1645268,10.5272859 C3.41464579,10.5272859 2.9144078,9.73439102 2.43472334,9.73439102 C1.95503887,9.73439102 2.37336954,9.49485785 3.1645268,9.49485785 C3.95568406,9.49485785 4.20692788,9.94391831 5.06056376,10.2536364 C5.91419965,10.5633546 5.27029151,9.73439102 5.06056376,9.73439102 C4.85083602,9.73439102 2.69537473,9.05874514 2.69537473,9.05874514 C2.69537473,9.05874514 2.9144078,8.80986083 2.69537473,8.47095892 C2.47634166,8.132057 3.75546616,8.47095892 3.92153045,8.47095892 C4.08759474,8.47095892 4.77434828,8.66949091 5.41477971,8.80986083 C6.05521113,8.95023076 3.23927618,7.77578867 2.9144078,7.77578867 C2.58953943,7.77578867 3.60780801,7.58280571 4.20692788,7.58280571 C4.80604775,7.58280571 4.77434828,7.77578867 5.41477971,7.77578867 C6.05521113,7.77578867 4.20692788,7.08935302 3.60780801,7.08935302 C3.00868814,7.08935302 3.36290409,6.49827848 3.60780801,6.49827848 C3.85271193,6.49827848 5.06056376,6.70749749 5.66305809,6.70749749 C6.26555242,6.70749749 4.38771708,6.34434425 4.20692788,6.04418279 C4.08100629,5.83511717 4.40576707,5.91728437 4.91477965,5.9864143 C5.17459387,6.12188729 5.39066478,6.20950331 5.42224641,6.10620445 C5.43148356,6.07599111 5.4523122,6.05454826 5.47876852,6.03922572 C5.53945009,6.04271494 5.60091055,6.04418279 5.66305809,6.04418279 C6.02093727,6.04418279 5.85445292,5.98952525 5.50925034,5.92423082 L5.4806343,5.91522626 L5.4806343,5.91522626 C5.38129628,5.88485558 5.25993317,5.84790269 5.13145713,5.80943062 L4.9352724,5.75121601 C4.44079396,5.60599546 3.95114134,5.47501108 4.25269903,5.62525941 C4.33510407,5.66631696 4.42767378,5.71694598 4.52373476,5.77042553 C4.23953994,5.73319749 4.00089863,5.70713055 3.92153045,5.70713055 C3.63613302,5.70713055 3.34991753,5.48660796 3.92153045,5.48660796 L3.92153045,5.48660796 L4.96935774,5.48644692 C4.62657936,5.48467551 4.20692788,5.46341849 4.20692788,5.20833434 C4.20692788,4.93006073 5.06056376,5.20833434 5.41477971,5.20833434 C5.76899565,5.20833434 5.85714061,5.20833434 5.66305809,5.04278826 C5.46897557,4.87724217 4.77434828,4.8869016 4.38771708,4.8869016 C4.00108588,4.8869016 5.20750612,4.68487577 5.66305809,4.68487577 L5.66305809,4.68487577 L5.7536697,4.68461284 C5.92057131,4.68211501 4.99648313,4.65588772 4.38771708,4.38050116 C3.71487039,4.07612655 5.06056376,4.38050116 5.66305809,4.38050116 C6.26555242,4.38050116 5.41477971,3.97531915 4.77434828,3.97531915 C4.13391686,3.97531915 4.67158066,3.75736556 5.06056376,3.5121806 C5.44954686,3.26699565 5.66305809,4.13860452 5.66305809,3.75736556 C5.66305809,3.61073518 5.62633052,3.51612318 5.59525334,3.46463101 L5.591,3.458 L5.61423867,3.477491 L5.61423867,3.477491 L5.66305809,3.5121806 C5.82857701,3.62261317 5.82857701,3.47775606 5.66305809,3.07760929 C5.49753917,2.96710822 5.49753917,2.91185768 5.66305809,2.91185768 C5.91133647,2.91185768 5.58319589,2.62690468 5.41477971,2.62690468 C5.30250225,2.62690468 5.44995589,2.53603073 5.85714061,2.35428285 L5.85714061,2.35428285 Z M5.89004697,15.2689567 L5.58083656,15.2685192 C5.08664418,15.2714782 4.33844089,15.2921012 4.68783942,15.4236338 C5.08091277,15.5716079 5.75161208,16.0284781 5.75161208,15.6482668 C5.75161208,15.3187503 6.09769932,15.2748147 5.89004697,15.2689567 Z M6.77993973,15.0179123 L6.52888836,15.0175612 C6.20778493,15.0191384 6.60916422,15.042796 6.60916422,15.3976599 C6.60916422,15.6590552 6.92617444,15.5247987 7.25203547,15.3672771 L7.42880342,15.2812872 C7.51577408,15.2393769 7.59923562,15.2007721 7.67293687,15.1730269 C8.02233541,15.0414943 7.27413212,15.0208713 6.77993973,15.0179123 Z M6.69058533,14.2657211 L6.52888836,14.2657406 C6.20778493,14.2673178 6.60916422,14.2909754 6.60916422,14.6458393 C6.60916422,14.9072346 6.92617444,14.7729781 7.25203547,14.6154565 L7.42880342,14.5294666 C7.51577408,14.4875563 7.59923562,14.4489515 7.67293687,14.4212063 C8.06601022,14.2732322 7.06993126,14.2656279 6.60916422,14.2656279 Z M5.58250897,14.2657406 L5.50223311,14.2656279 C5.04146607,14.2656279 4.04538711,14.2732322 4.43846046,14.4212063 C4.83153381,14.5691805 5.50223311,15.0260507 5.50223311,14.6458393 C5.50223311,14.2909754 5.9036124,14.2673178 5.58250897,14.2657406 Z M5.61379626,13.5138982 L5.5398273,13.5138073 C5.16364718,13.5138073 4.35042691,13.5178014 4.67134044,13.5955242 C4.99225398,13.673247 5.5398273,13.913216 5.5398273,13.7135117 C5.5398273,13.5291692 5.86035947,13.514989 5.61379626,13.5138982 Z M8.27836611,12.6908389 L8.21597753,12.7046462 C7.88513575,12.7806974 6.85818345,13.0125936 6.57157003,13.0125936 C6.19538991,13.0125936 6.57157003,13.0125936 6.57157003,13.2122979 C6.57157003,13.4120022 7.95745258,12.7685617 8.27836611,12.6908389 L8.27836611,12.6908389 Z M7.86729565,11.2788161 C7.08897155,11.2788161 6.94259161,11.5339687 6.72989843,11.5339687 L6.51720526,11.5339687 C6.24179486,11.7516141 6.24179486,11.8604367 6.51720526,11.8604367 C6.93032085,11.8604367 8.64561974,11.2788161 7.86729565,11.2788161 Z M7.8586983,10.6373967 C8.28087906,10.4270491 7.15228762,10.7679175 6.63076303,10.9273636 C6.10923843,11.0868097 6.63076303,10.9273636 6.68915092,11.1183418 C6.74753881,11.30932 7.43651755,10.8477444 7.8586983,10.6373967 Z M4.25269903,10.136183 C4.67487978,10.3465307 5.36385852,10.8081062 5.42224641,10.6171281 C5.4806343,10.4261499 6.0021589,10.5855959 5.4806343,10.4261499 C5.38129628,10.3957792 5.25993317,10.3588263 5.13145713,10.3203542 L4.9352724,10.2621396 C4.44079396,10.1169191 3.95114134,9.98593468 4.25269903,10.136183 Z M7.8586983,9.63496928 C8.28087906,9.42462162 7.15228762,9.76549006 6.63076303,9.92493613 C6.10923843,10.0843822 6.63076303,9.92493613 6.68915092,10.1159143 C6.74753881,10.3068925 7.43651755,9.84531694 7.8586983,9.63496928 Z M4.25269903,9.13375554 C4.33713518,9.17582508 4.43224325,9.22794373 4.53084413,9.28288124 L4.73057582,9.39437245 C5.06413329,9.57931428 5.38332115,9.74201938 5.42224641,9.61470059 C5.4806343,9.4237224 6.0021589,9.58316847 5.4806343,9.4237224 C5.38129628,9.39335172 5.25993317,9.35639882 5.13145713,9.31792675 L4.9352724,9.25971215 C4.44079396,9.11449159 3.95114134,8.98350721 4.25269903,9.13375554 Z M7.8586983,8.63254181 C8.28087906,8.42219415 7.15228762,8.76306259 6.63076303,8.92250866 C6.10923843,9.08195474 6.63076303,8.92250866 6.68915092,9.11348685 C6.74753881,9.30446505 7.43651755,8.84288947 7.8586983,8.63254181 Z M4.25269903,7.88072121 C4.33713518,7.92279074 4.43224325,7.97490939 4.53084413,8.0298469 L4.73057582,8.14133811 C5.06413329,8.32627995 5.38332115,8.48898505 5.42224641,8.36166625 C5.4806343,8.17068806 6.0021589,8.33013414 5.4806343,8.17068806 C5.38129628,8.14031738 5.25993317,8.10336449 5.13145713,8.06489242 L4.9352724,8.00667781 C4.44079396,7.86145726 3.95114134,7.73047288 4.25269903,7.88072121 Z M7.14211752,7.87071454 C7.42628472,7.70256185 6.64743055,7.93650489 6.28768771,8.04648931 C5.92794487,8.15647373 6.28768771,8.04648931 6.3460756,8.2374675 C6.40446349,8.42844569 6.85795031,8.03886722 7.14211752,7.87071454 Z" id="Path-191"></path>
                </g>
            </g>
        </g>
    </g>
</svg>