<?xml version="1.0" encoding="UTF-8"?>
<svg width="32px" height="24px" viewBox="0 0 32 24" version="1.1" xmlns="http://www.w3.org/2000/svg" xmlns:xlink="http://www.w3.org/1999/xlink">
    <title>flags/L/NP - Nepal</title>
    <defs>
        <polygon id="path-1" points="0 0 1.27213454e-15 24 22 24 12 12 22 12"></polygon>
    </defs>
    <g id="Symbols" stroke="none" stroke-width="1" fill="none" fill-rule="evenodd">
        <g id="flags/L/NP---Nepal">
            <rect id="bg" fill="#FFFFFF" x="0" y="0" width="32" height="24"></rect>
            <g id="contents">
                <mask id="mask-2" fill="white">
                    <use xlink:href="#path-1"></use>
                </mask>
                <path stroke="#4857A1" d="M0.5,0.842271095 L20.0391697,11.5 L10.9324792,11.5 L20.9324792,23.5 L0.5,23.5 L0.5,0.842271095 Z"></path>
                <polygon id="Star-19" fill="#F7FCFF" mask="url(#mask-2)" points="5.82962913 20.0102273 4.60446209 21.6003056 4.5479057 19.5937701 2.62210018 20.1600353 3.75575705 18.503471 1.86490531 17.8296291 3.75575705 17.1557872 2.62210018 15.4992229 4.5479057 16.0654882 4.60446209 14.0589527 5.82962913 15.649031 7.05479617 14.0589527 7.11135256 16.0654882 9.03715808 15.4992229 7.90350121 17.1557872 9.79435295 17.8296291 7.90350121 18.503471 9.03715808 20.1600353 7.11135256 19.5937701 7.05479617 21.6003056"></polygon>
                <polygon id="Star-19" fill="#F7FCFF" mask="url(#mask-2)" points="5.80004883 8.13880382 5.16021296 8.96921232 5.13067674 7.92131165 4.12493678 8.21704014 4.71698203 7.35190973 3.72949647 7 4.71698203 6.64809027 4.12493678 5.78295986 5.13067674 6.07868835 5.16021296 5.03078768 5.80004883 5.86119618 6.4398847 5.03078768 6.46942092 6.07868835 7.47516088 5.78295986 6.88311562 6.64809027 7.87060119 7 6.88311562 7.35190973 7.47516088 8.21704014 6.46942092 7.92131165 6.4398847 8.96921232"></polygon>
                <path d="M5.54587602,7.90607767 C5.53698278,10.1323947 6.79997563,11.3193979 6.79997563,11.3193979 C5.35881464,11.5542197 4.39997554,9.74120049 4.39997554,7.92777651 C4.39997554,6.11435253 5.70699248,5.01641439 6.79997563,4.33999634 C6.79997563,4.33999634 5.55476925,5.67976064 5.54587602,7.90607767 Z" id="Shape-sp-1695-0" fill="#F9FAFA" mask="url(#mask-2)" transform="translate(5.599976, 7.839996) rotate(-90.000000) translate(-5.599976, -7.839996) "></path>
            </g>
        </g>
    </g>
</svg>