<?xml version="1.0" encoding="UTF-8"?>
<svg width="32px" height="24px" viewBox="0 0 32 24" version="1.1" xmlns="http://www.w3.org/2000/svg" xmlns:xlink="http://www.w3.org/1999/xlink">
    <title>flags/L/NU - Niue</title>
    <defs>
        <rect id="path-1" x="0" y="0" width="32" height="24"></rect>
        <rect id="path-3" x="0" y="0" width="32" height="24"></rect>
        <rect id="path-5" x="0" y="0" width="32" height="16"></rect>
    </defs>
    <g id="Symbols" stroke="none" stroke-width="1" fill="none" fill-rule="evenodd">
        <g id="flag">
            <mask id="mask-2" fill="white">
                <use xlink:href="#path-1"></use>
            </mask>
            <g id="mask"></g>
            <g id="contents" mask="url(#mask-2)">
                <mask id="mask-4" fill="white">
                    <use xlink:href="#path-3"></use>
                </mask>
                <use id="background" fill="#2E42A5" xlink:href="#path-3"></use>
                <rect id="bottom" fill="#FECA00" mask="url(#mask-4)" x="0" y="16" width="32" height="8"></rect>
                <g id="mark-1" mask="url(#mask-4)">
                    <mask id="mask-6" fill="white">
                        <use xlink:href="#path-5"></use>
                    </mask>
                    <g id="mask"></g>
                    <g id="contents" mask="url(#mask-6)">
                        <g transform="translate(-6.000000, -2.000000)">
                            <g id="stripe" transform="translate(2.000000, 0.000000)">
                                <polygon id="white" fill="#FFFFFF" fill-rule="nonzero" transform="translate(20.328227, 9.703645) scale(1, -1) translate(-20.328227, -9.703645) " points="1.73782319 2.27790733 8.08054247 0.810599366 21.6016192 8.28152432 23.0323662 9.11814818 35.8759347 15.8338031 38.9186313 17.9548319 31.9589563 18.5966905 20.7373576 12.2666839 12.6279787 8.28152432"></polygon>
                                <polygon id="red" fill="#F50100" fill-rule="nonzero" transform="translate(19.972016, 10.162460) scale(1, -1) translate(-19.972016, -10.162460) " points="2.29506645 2.30609266 5.71001029 1.18595189 37.6489655 19.1389691 32.8539869 19.1389691"></polygon>
                            </g>
                            <g id="stripe" transform="translate(21.000000, 10.000000) scale(-1, 1) translate(-21.000000, -10.000000) ">
                                <polygon id="white" fill="#FFFFFF" fill-rule="nonzero" transform="translate(20.728902, 9.702006) scale(1, -1) translate(-20.728902, -9.702006) " points="1.62923494 2.67321147 1.37739557 1.16319615 8.08054247 0.807320593 18.8866583 7.13666611 19.905515 6.78857651 40.0804091 16.9933533 31.7505801 18.5966905 20.6146114 12.4448122 11.9031406 8.23555177"></polygon>
                                <polygon id="red" fill="#F50100" fill-rule="nonzero" transform="translate(20.432482, 10.109734) scale(1, -1) translate(-20.432482, -10.109734) " points="1.60611498 2.58242123 5.02105881 1.46228046 18.6209969 9.1488998 22.6530867 10.0077073 39.2588487 18.7571872 34.4638701 18.7571872 17.8674378 10.2153828 13.4590582 9.18558061"></polygon>
                            </g>
                            <g id="cross" transform="translate(4.769231, 0.666667)">
                                <path d="M18.8583183,1.33333333 L18.8577692,7.33333333 L33.2307692,7.33333333 L33.2307692,11.3333333 L18.8577692,11.3333333 L18.8583183,19.3333333 L15.6697725,19.3333333 L15.6697692,11.3333333 L1.23076923,11.3333333 L1.23076923,7.33333333 L15.6697692,7.33333333 L15.6697725,1.33333333 L18.8583183,1.33333333 Z" id="white" stroke="#FFFFFF" stroke-width="2.5"></path>
                                <path d="M18.9230769,0 L18.9227692,7.333 L35.2307692,7.33333333 L35.2307692,11.3333333 L18.9227692,11.333 L18.9230769,20.6666667 L15.5384615,20.6666667 L15.5377692,11.333 L1.23076923,11.3333333 L1.23076923,7.33333333 L15.5377692,7.333 L15.5384615,0 L18.9230769,0 Z" id="red" fill="#F50100"></path>
                            </g>
                        </g>
                    </g>
                </g>
                <g id="mark-2" mask="url(#mask-4)">
                    <g transform="translate(4.000000, 0.000000)">
                        <circle id="Oval-37" fill="#2E42A5" cx="12.0500488" cy="7.8500061" r="2.75"></circle>
                        <g id="stars" stroke-width="1" fill="none" transform="translate(0.000000, 1.200012)">
                            <polygon id="Star-10" fill="#FECA00" points="12.0999999 7.49129271 10.8021286 8.39443108 11.2599999 6.880997 10 5.92573314 11.5808514 5.89351781 12.0999999 4.3999939 12.6191484 5.89351781 14.1999998 5.92573314 12.9399999 6.880997 13.3978712 8.39443108"></polygon>
                            <polygon id="Star-10" fill="#FECA00" points="3.0999999 7.37607025 2.01844042 8.1286856 2.39999989 6.86749048 1.3499999 6.07143722 2.66737611 6.04459111 3.0999999 4.79998779 3.5326237 6.04459111 4.8499999 6.07143722 3.79999992 6.86749048 4.18155938 8.1286856"></polygon>
                            <polygon id="Star-10" fill="#FECA00" points="21.0999999 7.37607025 20.0184404 8.1286856 20.3999999 6.86749048 19.3499999 6.07143722 20.6673761 6.04459111 21.0999999 4.79998779 21.5326237 6.04459111 22.8499999 6.07143722 21.7999999 6.86749048 22.1815594 8.1286856"></polygon>
                            <polygon id="Star-10" fill="#FECA00" points="12.0999999 2.57608246 11.0184404 3.32869781 11.3999999 2.06750268 10.3499999 1.27144942 11.6673761 1.24460332 12.0999999 0 12.5326237 1.24460332 13.8499999 1.27144942 12.7999999 2.06750268 13.1815594 3.32869781"></polygon>
                            <polygon id="Star-10" fill="#FECA00" points="12.0999999 13.1760886 11.0184404 13.9287039 11.3999999 12.6675088 10.3499999 11.8714555 11.6673761 11.8446094 12.0999999 10.6000061 12.5326237 11.8446094 13.8499999 11.8714555 12.7999999 12.6675088 13.1815594 13.9287039"></polygon>
                        </g>
                    </g>
                </g>
            </g>
        </g>
    </g>
</svg>