<?xml version="1.0" encoding="UTF-8"?>
<svg width="32px" height="24px" viewBox="0 0 32 24" version="1.1" xmlns="http://www.w3.org/2000/svg" xmlns:xlink="http://www.w3.org/1999/xlink">
    <title>flags/L/NZ - New Zealand (Aotearoa)</title>
    <defs>
        <rect id="path-1" x="0" y="0" width="32" height="24"></rect>
        <rect id="path-3" x="0" y="0" width="32" height="24"></rect>
        <rect id="path-5" x="0" y="0" width="18" height="14"></rect>
    </defs>
    <g id="Symbols" stroke="none" stroke-width="1" fill="none" fill-rule="evenodd">
        <g id="flag">
            <mask id="mask-2" fill="white">
                <use xlink:href="#path-1"></use>
            </mask>
            <g id="mask"></g>
            <g id="contents" mask="url(#mask-2)">
                <mask id="mask-4" fill="white">
                    <use xlink:href="#path-3"></use>
                </mask>
                <use id="background" fill="#2E42A5" xlink:href="#path-3"></use>
                <g id="gb---large" mask="url(#mask-4)">
                    <g id="flag">
                        <mask id="mask-6" fill="white">
                            <use xlink:href="#path-5"></use>
                        </mask>
                        <use id="mask" fill="#2B409A" xlink:href="#path-5"></use>
                        <g id="contents" mask="url(#mask-6)">
                            <g transform="translate(-3.000000, -2.000000)">
                                <g id="stripe">
                                    <polygon id="white" fill="#F7FCFF" fill-rule="nonzero" transform="translate(12.087462, 8.731805) scale(1, -1) translate(-12.087462, -8.731805) " points="0.995733743 2.46378897 4.95668418 0.726588534 21.0898804 13.5748663 23.1791912 16.1563978 18.9435246 16.7370214 12.3631795 11.2003309 7.066678 7.46989524"></polygon>
                                    <polygon id="red" fill="#F50100" fill-rule="nonzero" transform="translate(11.983464, 9.146214) scale(1, -1) translate(-11.983464, -9.146214) " points="1.53799381 2.07548339 3.55591517 1.0673567 22.4289341 17.2250722 19.5955377 17.2250722"></polygon>
                                </g>
                                <g id="stripe" transform="translate(12.000000, 8.500000) scale(-1, 1) translate(-12.000000, -8.500000) ">
                                    <polygon id="white" fill="#F7FCFF" fill-rule="nonzero" transform="translate(12.087462, 8.731805) scale(1, -1) translate(-12.087462, -8.731805) " points="0.995733743 2.46378897 4.95668418 0.726588534 21.0898804 13.5748663 23.1791912 16.1563978 18.9435246 16.7370214 12.3631795 11.2003309 7.066678 7.46989524"></polygon>
                                    <polygon id="red" fill="#F50100" fill-rule="nonzero" transform="translate(12.255557, 9.098760) scale(1, -1) translate(-12.255557, -9.098760) " points="1.13088612 2.32417911 3.14880748 1.31605242 11.1851345 8.23400982 13.567733 9.00693659 23.3802288 16.8814684 20.5468324 16.8814684 10.7398496 9.19384456 8.134898 8.26702255"></polygon>
                                </g>
                                <g id="cross" transform="translate(3.000000, 2.000000)">
                                    <path d="M10.7345755,-0.75 L10.7340639,5.25 L18.75,5.25 L18.75,8.75 L10.7340639,8.75 L10.7345755,14.75 L7.23457546,14.75 L7.23406394,8.75 L-0.75,8.75 L-0.75,5.25 L7.23406394,5.25 L7.23457546,-0.75 L10.7345755,-0.75 Z" id="red" stroke="#F7FCFF" stroke-width="1.5" fill="#F50100"></path>
                                </g>
                            </g>
                        </g>
                    </g>
                </g>
                <g id="mark-2" mask="url(#mask-4)" fill="#F50100" stroke="#F7FCFF" stroke-width="0.4">
                    <g transform="translate(19.000000, 4.000000)" id="Combined-Shape">
                        <path d="M5.85316955,12 L6.73484743,13.7864745 L8.7063391,14.072949 L7.27975432,15.4635255 L7.61652531,17.427051 L5.85316955,16.5 L4.08981379,17.427051 L4.42658477,15.4635255 L3,14.072949 L4.97149167,13.7864745 L5.85316955,12 Z M2.20000005,6.3999939 L2.87983745,7.77749493 L4.4000001,7.99838749 L3.30000007,9.07062251 L3.55967485,10.5846427 L2.20000005,9.86981931 L0.840325243,10.5846427 L1.10000002,9.07062251 L-5.05470665e-13,7.99838749 L1.52016265,7.77749493 L2.20000005,6.3999939 Z M9.19755596,6.3999939 L9.8766381,7.7759646 L11.3951119,7.99661176 L10.2963339,9.06765558 L10.5557202,10.5799937 L9.19755596,9.86596451 L7.83939168,10.5799937 L8.09877798,9.06765558 L7,7.99661176 L8.51847382,7.7759646 L9.19755596,6.3999939 Z M6.20000005,0.799987793 L6.87983745,2.17748883 L8.4000001,2.39838139 L7.30000007,3.47061641 L7.55967485,4.98463656 L6.20000005,4.26981321 L4.84032524,4.98463656 L5.10000002,3.47061641 L4,2.39838139 L5.52016265,2.17748883 L6.20000005,0.799987793 Z"></path>
                    </g>
                </g>
            </g>
        </g>
    </g>
</svg>