<?xml version="1.0" encoding="UTF-8"?>
<svg width="32px" height="24px" viewBox="0 0 32 24" version="1.1" xmlns="http://www.w3.org/2000/svg" xmlns:xlink="http://www.w3.org/1999/xlink">
    <title>flags/L/OM - Oman</title>
    <defs>
        <rect id="path-1" x="0" y="0" width="32" height="24"></rect>
        <rect id="path-3" x="0" y="0" width="32" height="24"></rect>
    </defs>
    <g id="Symbols" stroke="none" stroke-width="1" fill="none" fill-rule="evenodd">
        <g id="flag">
            <mask id="mask-2" fill="white">
                <use xlink:href="#path-1"></use>
            </mask>
            <g id="mask"></g>
            <g id="contents" mask="url(#mask-2)">
                <mask id="mask-4" fill="white">
                    <use xlink:href="#path-3"></use>
                </mask>
                <use id="background" fill="#F50101" xlink:href="#path-3"></use>
                <rect id="top" fill="#F7FCFF" mask="url(#mask-4)" x="0" y="0" width="32" height="8"></rect>
                <rect id="bottom" fill="#5EAA22" mask="url(#mask-4)" x="0" y="16" width="32" height="8"></rect>
                <rect id="left" fill="#F50101" mask="url(#mask-4)" x="0" y="0" width="12" height="24"></rect>
                <g id="mark" mask="url(#mask-4)" fill="#F7FCFF">
                    <path d="M10.699496,1.94848245 C10.7472893,1.95166742 10.7834514,1.99299344 10.7802665,2.0407867 L10.7802665,2.0407867 L10.7484253,2.41906816 C10.616395,3.69989375 10.250278,4.91926262 9.65007438,6.07717476 L11.7488757,6.07697285 C11.7969005,6.07697285 11.8358323,6.11590461 11.8358323,6.16392937 L11.8358323,6.16392937 L11.8358323,7.49001633 C11.8358323,7.53804109 11.7969005,7.57697285 11.7488757,7.57697285 L11.7488757,7.57697285 L9.64018008,7.57697285 C9.59215532,7.57697285 9.55322356,7.53804109 9.55322356,7.49001633 L9.55322356,7.49001633 L9.55322356,6.79381873 L9.28734633,6.79453288 C9.24424751,6.89354766 9.1745941,6.97858917 9.08725794,7.04088094 C8.80624779,7.47209759 8.49048741,7.89456164 8.14018008,8.30795578 C8.12294692,8.32829245 8.1056579,8.34855344 8.08831302,8.36873876 C9.37270986,9.74920749 10.7225421,10.9109306 12.1383807,11.8532892 L12.1382345,11.8535088 C12.1780922,11.8800374 12.1888976,11.9338542 12.162369,11.9737119 C12.1422432,12.0039497 12.105401,12.018435 12.0700706,12.0100009 C10.2520178,11.5759971 8.66959357,10.7858701 7.32279788,9.63961993 C7.05891122,9.9320491 6.69511141,10.0816569 6.23208159,10.0898813 C4.945813,11.026997 3.45003926,11.6803603 1.74403991,12.0489338 C1.71359808,12.0555106 1.68196356,12.0453032 1.66110677,12.0221742 C1.62894825,11.9865121 1.63178846,11.9315326 1.66745054,11.8993741 L1.66745054,11.8993741 L1.95075024,11.643858 C2.66739192,10.9974267 3.30777078,10.4190159 3.87188682,9.90862536 C2.94859948,9.73025877 2.21271315,9.38294875 2.21271315,8.72639618 C2.21271315,7.94048299 3.37113786,7.67463802 5.68798728,7.92886129 C5.48547607,7.67320506 5.2949502,7.41329284 5.11648151,7.14997956 L5.15104964,7.15224167 C4.90478149,7.15224167 4.69329262,7.00493504 4.60170947,6.79453288 L4.33583225,6.79381873 L4.33583225,7.49001633 C4.33583225,7.53804109 4.29690049,7.57697285 4.24887573,7.57697285 L2.14018008,7.57697285 C2.09215532,7.57697285 2.05322356,7.53804109 2.05322356,7.49001633 L2.05322356,6.16392937 C2.05322356,6.11590461 2.09215532,6.07697285 2.14018008,6.07697285 L4.24887573,6.07697285 C4.29690049,6.07697285 4.33583225,6.11590461 4.33583225,6.16392937 L4.33583225,6.19644716 L4.53154744,6.19727198 C3.88367489,5.02371594 3.46125505,3.78656454 3.26428792,2.48581781 L3.21163803,2.08864012 C3.20615916,2.04107193 3.2402793,1.9980688 3.28784748,1.99258993 C3.32249667,1.98859906 3.35616381,2.00575973 3.37329224,2.03614246 C4.01914172,3.18176218 4.89552078,4.46436487 6.00242944,5.88395052 L6.10373135,5.06845659 C6.46799413,4.97952521 6.65012552,4.78859279 6.65012552,4.49565931 L6.65012552,3.57934013 L6.65012552,3.57934013 L5.74887573,2.83395059 L6.94122041,2 L8.0724891,2.83395059 L7.24880268,3.57934013 L7.24880268,4.49565931 C7.55234499,4.77404692 7.75172207,4.96497935 7.8469339,5.06845659 L7.84910527,5.98966739 C9.03159168,4.49118049 9.95467189,3.15866878 10.6183459,1.99213227 C10.6347905,1.96322772 10.6663146,1.94627123 10.699496,1.94848245 Z M5.15104964,6.07697285 C4.88091036,6.07697285 4.66191921,6.29360926 4.66191921,6.56084382 C4.66191921,6.82807837 4.88091036,7.04471478 5.15104964,7.04471478 C5.42118892,7.04471478 5.64018008,6.82807837 5.64018008,6.56084382 C5.64018008,6.29360926 5.42118892,6.07697285 5.15104964,6.07697285 Z M8.73800616,6.07697285 C8.46786688,6.07697285 8.24887573,6.29360926 8.24887573,6.56084382 C8.24887573,6.82807837 8.46786688,7.04471478 8.73800616,7.04471478 C9.00814544,7.04471478 9.2271366,6.82807837 9.2271366,6.56084382 C9.2271366,6.29360926 9.00814544,6.07697285 8.73800616,6.07697285 Z" id="Combined-Shape"></path>
                </g>
            </g>
        </g>
    </g>
</svg>