<?xml version="1.0" encoding="UTF-8"?>
<svg width="32px" height="24px" viewBox="0 0 32 24" version="1.1" xmlns="http://www.w3.org/2000/svg" xmlns:xlink="http://www.w3.org/1999/xlink">
    <title>flags/L/PF - French Polynesia</title>
    <defs>
        <rect id="path-1" x="0" y="0" width="32" height="24"></rect>
        <rect id="path-3" x="0" y="0" width="32" height="24"></rect>
    </defs>
    <g id="Symbols" stroke="none" stroke-width="1" fill="none" fill-rule="evenodd">
        <g id="flag">
            <mask id="mask-2" fill="white">
                <use xlink:href="#path-1"></use>
            </mask>
            <g id="mask"></g>
            <g id="contents" mask="url(#mask-2)">
                <mask id="mask-4" fill="white">
                    <use xlink:href="#path-3"></use>
                </mask>
                <use id="background" fill="#F7FCFF" xlink:href="#path-3"></use>
                <rect id="top" fill="#BF2714" mask="url(#mask-4)" x="0" y="0" width="32" height="6"></rect>
                <rect id="bottom" fill="#BF2714" mask="url(#mask-4)" x="0" y="18" width="32" height="6"></rect>
                <g id="mark" mask="url(#mask-4)">
                    <g transform="translate(10.000000, 6.000000)">
                        <g id="waves" stroke-width="1" fill="none" transform="translate(0.196721, 7.278689)">
                            <path d="M0.638043155,0.256098356 L1.01173939,0.472953682 C1.06747998,0.505299852 1.13552923,0.50829263 1.19389425,0.480964776 L2.1163534,0.0490480463 C2.18101458,0.0187721852 2.2570038,0.0259077701 2.31489836,0.0676919334 L3.31138541,0.786885246 L3.31138541,0.786885246 L4.68884274,0.0452619901 C4.74192682,0.0166815131 4.80518522,0.0140206549 4.86048192,0.0380422769 L5.89791245,0.48871592 C5.95035072,0.511495802 6.01010508,0.510335825 6.06161975,0.485537964 L6.99231397,0.0375252612 C7.04198774,0.0136135645 7.09941571,0.0116426775 7.15061193,0.0320925879 L8.30205508,0.492027072 C8.35393713,0.512750929 8.41218372,0.510437575 8.46225878,0.485664333 L9.3541822,0.044410061 C9.41058302,0.0165073269 9.47692861,0.0172697229 9.53267334,0.0464611533 L10.3507632,0.47486419 C10.4099599,0.505863287 10.4808449,0.504693019 10.5389861,0.471756747 L10.9644369,0.23074397 C11.0589687,0.177192824 11.1790137,0.210414234 11.2325649,0.304946066 C11.2579375,0.349735418 11.2647432,0.402685745 11.2515217,0.452435609 L11.1626387,0.786885246 L11.1626387,0.786885246 L0.447939226,0.786885246 L0.351903974,0.486075795 C0.318861105,0.382576223 0.375977547,0.271886705 0.479477118,0.238843835 C0.532397828,0.221948576 0.589994958,0.228216064 0.638043155,0.256098356 Z" id="Path-57" fill="#5277B9"></path>
                            <path d="M0.632807973,1.44262295 L0.977529131,1.649964 C1.03452318,1.68424448 1.10497943,1.68740574 1.1648145,1.6583672 L2.04204461,1.23263903 C2.10824803,1.20050988 2.18684774,1.20801668 2.2457727,1.25209644 L3.20172659,1.96721311 L3.20172659,1.96721311 L4.52538964,1.22854626 C4.57974877,1.19821129 4.64525811,1.19539509 4.70202004,1.22095305 L5.69177093,1.66660418 C5.74562268,1.69085179 5.8075191,1.68962221 5.86036538,1.66325503 L6.74803633,1.2203595 C6.79900283,1.19493022 6.8584892,1.19283937 6.91111531,1.21462754 L8.01128182,1.67011652 C8.06460722,1.69219421 8.12493772,1.68974092 8.17629448,1.66340643 L9.02601005,1.22769303 C9.08381318,1.198053 9.15252193,1.19885904 9.20961381,1.22984692 L9.98723836,1.65191983 C10.0478361,1.68481057 10.1212304,1.68357567 10.1806873,1.64866493 L10.5707755,1.41962061 C10.6644654,1.36460965 10.7850112,1.39596508 10.8400222,1.48965493 C10.8663193,1.53444197 10.8738383,1.5878111 10.8609389,1.6381204 L10.7765587,1.96721311 L10.7765587,1.96721311 L0.43909453,1.96721311 L0.34652281,1.66667116 C0.314885032,1.56395643 0.372504289,1.4550422 0.475219021,1.42340442 C0.528092376,1.40711859 0.585398324,1.41410725 0.632807973,1.44262295 Z" id="Path-57" fill="#5277B9"></path>
                            <path d="M0.829529284,2.2295082 L1.17425044,2.43684924 C1.23124449,2.47112972 1.30170074,2.47429098 1.36153582,2.44525245 L2.23876592,2.01952428 C2.30496934,1.98739513 2.38356906,1.99490193 2.44249401,2.03898169 L3.3984479,2.75409836 L3.3984479,2.75409836 L4.72211095,2.01543151 C4.77647008,1.98509653 4.84197942,1.98228033 4.89874135,2.0078383 L5.88849224,2.45348943 C5.94234399,2.47773704 6.00424041,2.47650746 6.05708669,2.45014028 L6.94475764,2.00724474 C6.99572414,1.98181546 7.05521051,1.97972462 7.10783662,2.00151279 L8.20800313,2.45700176 C8.26132854,2.47907945 8.32165903,2.47662617 8.37301579,2.45029167 L9.22273136,2.01457828 C9.28053449,1.98493825 9.34924324,1.98574428 9.40633513,2.01673217 L10.1839597,2.43880507 C10.2445574,2.47169581 10.3179517,2.47046091 10.3774086,2.43555018 L10.7674968,2.20650585 C10.8611867,2.15149489 10.9817325,2.18285033 11.0367435,2.27654017 C11.0630406,2.32132722 11.0705596,2.37469634 11.0576602,2.42500564 L10.97328,2.75409836 L10.97328,2.75409836 L0.635815841,2.75409836 L0.543244121,2.45355641 C0.511606344,2.35084167 0.5692256,2.24192745 0.671940332,2.21028967 C0.724813687,2.19400383 0.782119636,2.20099249 0.829529284,2.2295082 Z" id="Path-57" fill="#5277B9"></path>
                            <path d="M2.00985715,3.01639344 L2.35457831,3.22373449 C2.41157236,3.25801497 2.48202861,3.26117623 2.54186368,3.23213769 L3.41909379,2.80640953 C3.48529721,2.77428037 3.56389693,2.78178718 3.62282188,2.82586694 L4.57877577,3.54098361 L4.57877577,3.54098361 L5.90243882,2.80231676 C5.95679795,2.77198178 6.02230729,2.76916558 6.07906922,2.79472354 L7.06882011,3.24037467 C7.12267186,3.26462228 7.18456828,3.2633927 7.23741456,3.23702552 L8.12508551,2.79412999 C8.17605201,2.76870071 8.23553838,2.76660986 8.28816449,2.78839803 L9.388331,3.24388701 C9.44165641,3.2659647 9.5019869,3.26351141 9.55334366,3.23717692 L10.4030592,2.80146352 C10.4608624,2.77182349 10.5295711,2.77262953 10.586663,2.80361741 L11.3642875,3.22569032 C11.4248852,3.25858106 11.4982796,3.25734616 11.5577365,3.22243542 L11.9478247,2.9933911 C12.0415146,2.93838014 12.1620604,2.96973558 12.2170713,3.06342542 C12.2433685,3.10821247 12.2508875,3.16158159 12.237988,3.21189089 L12.1536079,3.54098361 L12.1536079,3.54098361 L1.81614371,3.54098361 L1.72357199,3.24044165 C1.69193421,3.13772692 1.74955347,3.02881269 1.8522682,2.99717491 C1.90514156,2.98088908 1.9624475,2.98787774 2.00985715,3.01639344 Z" id="Path-57" fill="#5277B9"></path>
                            <path d="M0.436086662,4 L0.780807819,4.20734105 C0.837801872,4.24162152 0.908258114,4.24478279 0.968093193,4.21574425 L1.8453233,3.79001608 C1.91152672,3.75788693 1.99012643,3.76539373 2.04905139,3.80947349 L3.00500528,4.52459016 L3.00500528,4.52459016 L4.32866833,3.78592331 C4.38302746,3.75558834 4.4485368,3.75277214 4.50529873,3.7783301 L5.49504962,4.22398123 C5.54890137,4.24822884 5.61079779,4.24699926 5.66364406,4.22063208 L6.55131502,3.77773655 C6.60228152,3.75230727 6.66176788,3.75021642 6.714394,3.77200459 L7.81456051,4.22749357 C7.86788591,4.24957125 7.92821641,4.24711797 7.97957317,4.22078347 L8.82928874,3.78507008 C8.88709187,3.75543005 8.95580061,3.75623609 9.0128925,3.78722397 L9.79051705,4.20929687 C9.85111475,4.24218762 9.92450907,4.24095271 9.98396597,4.20604198 L10.3740542,3.97699765 C10.4677441,3.9219867 10.5882899,3.95334213 10.6433008,4.04703198 C10.669598,4.09181902 10.677117,4.14518815 10.6642176,4.19549745 L10.5798374,4.52459016 L10.5798374,4.52459016 L0.242373218,4.52459016 L0.149801498,4.22404821 C0.118163721,4.12133348 0.175782977,4.01241925 0.27849771,3.98078147 C0.331371064,3.96449563 0.388677013,3.9714843 0.436086662,4 Z" id="Path-57" fill="#5277B9"></path>
                        </g>
                        <g id="boat" stroke-width="1" fill="none" transform="translate(3.147541, 0.590164)">
                            <path d="M1.27497172,7.5477886 L1.27497172,8.5477886 C0.430648954,8.5477886 -0.166707624,8.02930346 -0.457169698,7.10866197 L-0.480338699,6.95822195 L-0.480338699,2.85567486 L0.519661301,2.85567486 L0.519661301,6.87784376 C0.686257369,7.35823412 0.920635361,7.5477886 1.27497172,7.5477886 Z" id="Path-59" fill="#FF0000" fill-rule="nonzero"></path>
                            <path d="M5.79956189,7.5477886 L5.79956189,8.5477886 C4.95523912,8.5477886 4.35788254,8.02930346 4.06742047,7.10866197 L4.04425147,6.95822195 L4.04425147,2.85567486 L5.04425147,2.85567486 L5.04425147,6.87784376 C5.21084753,7.35823412 5.44522552,7.5477886 5.79956189,7.5477886 Z" id="Path-59" fill="#FF0000" fill-rule="nonzero" transform="translate(4.921907, 5.701732) scale(-1, 1) translate(-4.921907, -5.701732) "></path>
                            <path d="M3.57716291,0.318471682 C2.47124386,0.0292881143 1.91828433,0.251344577 1.91828433,0.98464107 C1.91828433,1.71793756 1.91828433,2.87198675 1.91828433,4.44678863 L3.85224979,5.02112814 L3.85224979,2.19131791 C3.20759464,1.79741605 2.88526706,1.44644199 2.88526706,1.1383957 C2.88526706,0.830349419 3.11589901,0.557041412 3.57716291,0.318471682 Z" id="Path-60" fill="#FF0000"></path>
                        </g>
                        <g id="cross" stroke-width="1" fill="none" transform="translate(3.737705, 5.901639)">
                            <line x1="0.19595465" y1="0.989028216" x2="0.826645685" y2="0.183094362" id="Path-61" stroke="#000000"></line>
                            <line x1="0.771088504" y1="0.962456505" x2="0.166776528" y2="0.151712063" id="Path-62" stroke="#000000"></line>
                        </g>
                        <g id="cross" stroke-width="1" fill="none" transform="translate(4.642624, 5.901639)">
                            <line x1="0.19595465" y1="0.989028216" x2="0.826645685" y2="0.183094362" id="Path-61" stroke="#000000"></line>
                            <line x1="0.771088504" y1="0.962456505" x2="0.166776528" y2="0.151712063" id="Path-62" stroke="#000000"></line>
                        </g>
                        <g id="cross" stroke-width="1" fill="none" transform="translate(5.508197, 5.901639)">
                            <line x1="0.19595465" y1="0.989028216" x2="0.826645685" y2="0.183094362" id="Path-61" stroke="#000000"></line>
                            <line x1="0.771088504" y1="0.962456505" x2="0.166776528" y2="0.151712063" id="Path-62" stroke="#000000"></line>
                        </g>
                        <g id="cross" stroke-width="1" fill="none" transform="translate(6.413116, 5.901639)">
                            <line x1="0.19595465" y1="0.989028216" x2="0.826645685" y2="0.183094362" id="Path-61" stroke="#000000"></line>
                            <line x1="0.771088504" y1="0.962456505" x2="0.166776528" y2="0.151712063" id="Path-62" stroke="#000000"></line>
                        </g>
                        <g id="cross" stroke-width="1" fill="none" transform="translate(7.318032, 5.901639)">
                            <line x1="0.19595465" y1="0.989028216" x2="0.826645685" y2="0.183094362" id="Path-61" stroke="#000000"></line>
                            <line x1="0.771088504" y1="0.962456505" x2="0.166776528" y2="0.151712063" id="Path-62" stroke="#000000"></line>
                        </g>
                        <path d="M0.2381148,5.91817134 L2.57011991,6.03444989 L2.57011991,7.15886229 L0.483656139,7.15886229 L0.2381148,5.91817134 Z M11.8805661,5.91817134 L11.6350247,7.15886229 L9.54856096,7.15886229 L9.54856096,6.03444989 L11.8805661,5.91817134 Z M0.53970866,4.05487428 L2.60860892,4.85068095 L2.60860892,5.72561036 L0.53970866,5.51397877 L0.53970866,4.05487428 Z M11.5789722,4.05487428 L11.5789722,5.51397877 L9.51007195,5.72561036 L9.51007195,4.85068095 L11.5789722,4.05487428 Z M3.76716292,4.41999819 L4.63930999,5.12027792 L4.54465253,5.49003906 L3.76716292,5.12027792 L3.76716292,4.41999819 Z M8.35151794,4.41999819 L8.35151794,5.12027792 L7.57402833,5.49003906 L7.47937087,5.12027792 L8.35151794,4.41999819 Z M2.85478788,1.14837431 L4.6672493,4.04571575 L4.6672493,4.78216587 L3.79573985,4.04571575 L3.79573985,3.09021446 L2.85478788,3.09021446 L1.99249492,2.17592656 L2.85478788,1.14837431 Z M9.26389299,1.14837431 L10.1261859,2.17592656 L9.26389299,3.09021446 L8.32294101,3.09021446 L8.32294101,4.04571575 L7.45143156,4.78216587 L7.45143156,4.04571575 L9.26389299,1.14837431 Z M1.34264507,2.26536714 L2.65214092,3.38427283 L2.52925432,4.54757999 L0.956421759,3.79460973 L1.34264507,2.26536714 Z M10.7760358,2.26536714 L11.1622591,3.79460973 L9.58942655,4.54757999 L9.46653995,3.38427283 L10.7760358,2.26536714 Z M4.65125086,0.634221414 L4.79859885,1.09481431 L4.65125086,3.43307967 L3.45438174,1.09481431 L4.65125086,0.634221414 Z M7.46743,0.634221414 L8.66429912,1.09481431 L7.46743,3.43307967 L7.32008201,1.09481431 L7.46743,0.634221414 Z" id="Combined-Shape" fill="#FA8F21"></path>
                    </g>
                </g>
            </g>
        </g>
    </g>
</svg>