<?xml version="1.0" encoding="UTF-8"?>
<svg width="32px" height="24px" viewBox="0 0 32 24" version="1.1" xmlns="http://www.w3.org/2000/svg" xmlns:xlink="http://www.w3.org/1999/xlink">
    <title>flags/L/PG - Papua New Guinea</title>
    <defs>
        <rect id="path-1" x="0" y="0" width="32" height="24"></rect>
    </defs>
    <g id="Symbols" stroke="none" stroke-width="1" fill="none" fill-rule="evenodd">
        <g id="flag">
            <mask id="mask-2" fill="white">
                <use xlink:href="#path-1"></use>
            </mask>
            <g id="mask"></g>
            <g id="contents" mask="url(#mask-2)">
                <rect id="background" fill="#E11C1B" x="0" y="0" width="32" height="24" rx="2"></rect>
                <polygon id="left" fill="#1D1D1D" points="0 0 32 24 0 24"></polygon>
                <g id="mark" transform="translate(2.000000, 2.000000)">
                    <polygon id="stars" fill="#EEEEF6" points="5.08338514 16.2684581 6.41520514 16.2684581 7.04859018 14.7751669 7.79307514 16.2583961 9.15759514 16.3330242 7.99146028 17.6022729 8.59022374 19.1313429 7.10795374 18.2801809 5.73917374 19.1389609 6.25550556 17.6543222"></polygon>
                    <polygon id="stars" fill="#EEEEF6" points="1.08338514 12.2684581 2.41520514 12.2684581 3.04859018 10.7751669 3.79307514 12.2583961 5.15759514 12.3330242 3.99146028 13.6022729 4.59022374 15.1313429 3.10795374 14.2801809 1.73917374 15.1389609 2.25550556 13.6543222"></polygon>
                    <polygon id="stars" fill="#EEEEF6" points="5.08338514 10.2684581 6.41520514 10.2684581 7.04859018 8.77516689 7.79307514 10.2583961 9.15759514 10.3330242 7.99146028 11.6022729 8.59022374 13.1313429 7.10795374 12.2801809 5.73917374 13.1389609 6.25550556 11.6543222"></polygon>
                    <polygon id="stars" fill="#EEEEF6" points="7.71122705 14.564213 8.62670081 14.5337804 8.95716937 13.5895702 9.32818446 14.5287331 10.1705837 14.6097123 9.41200598 15.1460587 10.0238085 16.0958231 8.96235789 15.6988018 8.04239407 16.1085948 8.52821878 15.1721674"></polygon>
                    <polygon id="stars" fill="#EEEEF6" points="9.71122705 12.564213 10.6267008 12.5337804 10.9571694 11.5895702 11.3281845 12.5287331 12.1705837 12.6097123 11.412006 13.1460587 12.0238085 14.0958231 10.9623579 13.6988018 10.0423941 14.1085948 10.5282188 13.1721674"></polygon>
                    <path d="M19.0838982,0 C17.0247064,0.410797649 16.2840734,2.04741276 16.8619991,4.90984534 L16.4213473,4.90984534 C16.4453723,4.76047983 16.3161619,4.64200776 16.0337162,4.55442913 C15.6100476,4.42306118 15.6948807,4.4723773 15.4762531,4.55442913 C15.3305014,4.60913035 14.8142399,4.60913035 13.9274685,4.55442913 L13.9274685,4.71878787 L14.8687518,5.12530578 C14.8532874,5.35096957 14.9767263,5.52632524 15.2390683,5.65137279 C15.5014104,5.77642034 15.7278254,5.8690723 15.9183133,5.92932867 C15.9571399,6.17834676 15.8536391,6.3028558 15.6078108,6.3028558 C15.2390683,6.3028558 13.7559796,5.82211025 13.2285064,7.00323062 C12.8768576,7.79064419 12.4673555,8.47321876 12,9.05095433 L12.7909199,9.05095433 L12.5786713,9.31471056 L13.4692536,9.31471056 L13.2285064,9.45135024 C13.9630089,9.44318757 14.3588969,9.39764101 14.4161703,9.31471056 C14.4734437,9.23178012 14.4734437,9.34418687 14.4161703,9.65193082 C15.1276972,9.32701125 15.5029568,9.12668575 15.5419491,9.05095433 L16.0400952,9.39268106 L16.1820085,8.81440698 L16.7165235,9.05095433 L16.8619991,8.49997418 C17.8700553,10.1858487 18.7563573,10.9804052 19.5209049,10.8836435 L19.5209049,10.4639463 L20.567484,10.8836435 L20.7003671,10.6970075 C21.5432307,11.0406899 22.0943699,11.2284596 22.3537848,11.2603167 L22.0761717,10.6970075 L22.3537848,10.6970075 L22.0761717,9.65193082 L22.3537848,9.65193082 C21.983634,9.0935816 21.7985586,8.81440698 21.7985586,8.81440698 C21.9022803,8.66322755 21.9541412,8.58763784 21.9541412,8.58763784 C21.8854904,8.38895621 21.8511651,8.2896154 21.8511651,8.2896154 C23.2081638,8.72189674 23.8560659,9.28191818 23.7948711,9.96967971 C23.7336764,10.6574413 23.4008886,11.1400874 22.7965077,11.4176181 C22.2169803,11.5951562 21.6654821,11.6648223 21.1420131,11.6266165 C21.5575629,12.1174536 22.2049402,12.279715 23.0841451,12.1134006 C23.96335,11.9470863 24.5486489,11.4376847 24.8400419,10.585196 C25.243165,11.4225497 25.2787883,12.0613636 24.9469117,12.5016376 C24.6150352,12.9419115 23.7102589,13.3166007 22.2325828,13.6257051 C22.7672083,13.9391743 23.2879711,14.0557474 23.7948711,13.9754244 C24.5552213,13.8549401 25.7376659,13.1931687 25.9668977,12.1134006 C26.1961294,11.0336326 25.1760606,9.04117613 24.713952,8.81440698 L24.5314448,8.12313096 C24.8084228,8.23412058 24.9469117,8.2896154 24.9469117,8.2896154 C24.3786512,6.8999777 24.094521,6.20515886 24.094521,6.20515886 C24.370063,6.26552859 24.507834,6.29571346 24.507834,6.29571346 C23.7038523,5.29561647 23.3018614,4.79556797 23.3018614,4.79556797 C23.5232228,4.72737568 23.6339036,4.69327953 23.6339036,4.69327953 C22.5231749,3.89486848 21.9678106,3.49566295 21.9678106,3.49566295 L22.466371,3.36395489 C21.6453784,2.94788552 20.7666154,2.9917882 19.8300819,3.49566295 C19.8389187,3.3215827 19.843337,3.23454258 19.843337,3.23454258 C19.5972326,3.27614951 19.4741804,3.29695298 19.4741804,3.29695298 C19.488761,3.10547037 19.4960514,3.00972907 19.4960514,3.00972907 C19.7406646,2.63912123 19.8629713,2.45381731 19.8629713,2.45381731 C19.4957476,2.31233105 19.3121358,2.24158792 19.3121358,2.24158792 C19.6089966,1.79564544 19.7351417,1.57573521 19.6905711,1.58185721 C19.359744,1.67680492 19.2037195,1.70438227 19.2224977,1.66458926 C19.3894024,1.23480207 19.4509009,1.02566202 19.4069932,1.03716912 C19.023311,1.16765845 18.8598581,1.20025244 18.9166344,1.13495109 L19.1378302,0.741102313 L19.0838982,0 Z" id="Path-197" fill="#FBCD17"></path>
                </g>
            </g>
        </g>
    </g>
</svg>