<?xml version="1.0" encoding="UTF-8"?>
<svg width="32px" height="24px" viewBox="0 0 32 24" version="1.1" xmlns="http://www.w3.org/2000/svg" xmlns:xlink="http://www.w3.org/1999/xlink">
    <title>flags/L/PM-UNF - St. Pierre &amp; Miquelon</title>
    <g id="Symbols" stroke="none" stroke-width="1" fill="none" fill-rule="evenodd">
        <g id="flag" transform="translate(-0.973362, -0.977873)">
            <g id="shape" fill-rule="nonzero">
                <rect id="Rectangle" fill="#CC0000" x="0.973362058" y="0.97787293" width="8" height="8"></rect>
                <polygon id="Path" fill="#08672F" points="8.97336206 2.01787297 8.97336206 0.97787293 7.99496815 0.97787293 0.973362058 7.93787315 0.973362058 8.97787293 1.95175304 8.97787293"></polygon>
                <polygon id="Path" fill="#08672F" points="0.973362058 2.01787287 0.973362058 0.97787293 1.95175588 0.97787293 8.97336206 7.93787247 8.9733615 8.97787293 7.97540099 8.97787191"></polygon>
                <polygon id="Path" fill="#FFFFFF" points="0.973362058 3.98856169 8.97235624 3.97787293 8.97336206 5.96718417 0.97436788 5.97787293"></polygon>
                <polygon id="Path" fill="#FFFFFF" points="3.97336206 0.978873301 5.96267807 0.97787293 5.97336206 8.97687256 3.98404604 8.97787293"></polygon>
            </g>
            <polygon id="bg-white" fill="#FFFFFF" fill-rule="nonzero" points="0.973362058 8.97787293 8.97336206 8.97787293 8.97336206 16.9778729 0.973362058 16.9778729"></polygon>
            <path d="M7.35529289,13.2076577 C7.30487089,13.2445396 7.25119173,13.2528484 7.21172153,13.2302633 C7.18104484,13.2124063 7.17776747,13.223138 7.20296744,13.2587919 C7.21611696,13.2766489 7.2456952,13.2956717 7.27199505,13.3028101 C7.29721647,13.3099573 7.34104288,13.3265882 7.36954127,13.3384749 C7.4352913,13.3682187 7.49446596,13.3682187 7.53939205,13.3384749 C7.6303631,13.279012 7.57336593,13.1719705 7.45171839,13.1719705 C7.41666547,13.1719705 7.39036542,13.1814856 7.35529207,13.2076577 L7.35529289,13.2076577 Z M7.61939189,13.3373044 C7.61391558,13.3503816 7.60843927,13.3860511 7.60843927,13.418158 C7.60624053,13.6310455 7.52844025,13.8320444 7.38159172,14.0056867 C7.34981597,14.0425467 7.32351591,14.0758462 7.32351591,14.0806189 C7.32351591,14.0925015 7.487891,14.0889389 7.50981442,14.0758397 C7.52953951,14.065152 7.53171741,14.0686925 7.53829258,14.1103339 C7.54706505,14.1674338 7.57666352,14.222126 7.61281611,14.2482894 C7.63583859,14.2649514 7.64461188,14.2661461 7.66981247,14.2518742 C7.71363908,14.2292664 7.74213767,14.1805199 7.74761337,14.1186693 C7.75308967,14.0722858 7.7574851,14.0639549 7.77171509,14.0722858 C7.78158683,14.0770434 7.83091039,14.0829735 7.88131176,14.0853633 L7.97336206,14.0901204 L7.92513817,14.0282922 C7.83418755,13.9117272 7.80461054,13.8677336 7.76843752,13.7904137 C7.71803635,13.6845651 7.69721199,13.6013241 7.6884385,13.4752578 C7.68514029,13.4157947 7.67748772,13.3563295 7.67309045,13.3408626 C7.66213762,13.3087536 7.63473953,13.3063681 7.61939128,13.3373 L7.61939189,13.3373044 Z M3.89395345,12.8101899 C3.87970432,12.8292195 3.86327692,12.8649043 3.85997923,12.8875097 C3.85560265,12.9112856 3.84245269,12.9529183 3.83150117,12.9802744 C3.80300269,13.049241 3.80410195,13.1075334 3.8347786,13.1574751 C3.87312934,13.2205182 3.93780043,13.2193254 3.968477,13.1563678 C3.9969754,13.0980976 3.9893012,13.0160272 3.95095046,12.9541989 C3.91697622,12.9006771 3.91259964,12.8519082 3.93450264,12.796001 C3.94875195,12.7638942 3.92355118,12.7722253 3.89395345,12.8102733 L3.89395345,12.8101899 Z M4.02985042,13.1872186 C4.00902623,13.1967113 3.9860034,13.2133822 3.97834956,13.2252689 C3.91697612,13.3120904 4.05615068,13.4072204 4.15697386,13.3489502 C4.26547187,13.284734 4.26874863,13.2835415 4.32024947,13.3025667 C4.36409631,13.3180336 4.36627442,13.3180336 4.35752156,13.2990041 C4.33997477,13.2633171 4.31259567,13.2466771 4.20627617,13.2074321 C4.08464886,13.1634142 4.08025159,13.1634142 4.02985042,13.1872076 L4.02985042,13.1872186 Z M3.61122857,13.2157453 C3.56080668,13.2526272 3.50710747,13.260936 3.46765751,13.2383508 C3.43698094,13.220516 3.43368329,13.2312256 3.45890436,13.2669016 C3.47205431,13.2847362 3.50163167,13.3037592 3.52793168,13.3108974 C3.55313241,13.3180448 3.59697929,13.3346757 3.62547772,13.3465846 C3.69122771,13.3763062 3.7504027,13.3763062 3.79532844,13.3465846 C3.88627918,13.2871217 3.8293027,13.1800802 3.70765505,13.1800802 C3.67260197,13.1800802 3.6462816,13.1895731 3.61122857,13.2157453 L3.61122857,13.2157453 Z M3.87532769,13.3453919 C3.86985197,13.3584692 3.86437623,13.3941387 3.86437623,13.4262677 C3.86217772,13.6391552 3.78437705,13.840132 3.63752866,14.0137744 C3.60575291,14.0506564 3.57943255,14.0839559 3.57943255,14.0887067 C3.57943255,14.1005891 3.74382784,14.0970486 3.76575128,14.0839494 C3.78547633,14.0732396 3.78765437,14.0768022 3.79422936,14.1184215 C3.80300273,14.1755213 3.8326005,14.2302357 3.86875278,14.2563991 C3.89177545,14.273039 3.90052858,14.2742339 3.92574965,14.2599617 C3.96957619,14.2373761 3.99807477,14.1886076 4.00355069,14.1267568 C4.00902704,14.0803734 4.01340403,14.0720446 4.0276525,14.0803734 C4.03752608,14.0851309 4.08682717,14.0910832 4.13724897,14.0934509 L4.22929926,14.098208 L4.18107558,14.0363798 C4.09012476,13.919817 4.06052732,13.8758212 4.02437493,13.7985234 C3.97395278,13.692677 3.95312852,13.6094138 3.94437546,13.4833454 C3.9410778,13.4238822 3.93340357,13.3644171 3.929027,13.3489502 C3.91807534,13.3168411 3.89067622,13.3144556 3.87532777,13.3453875 L3.87532769,13.3453919 Z M5.74661679,12.8053949 C5.732368,12.8244245 5.71593989,12.8601093 5.71264271,12.8827146 C5.70826566,12.9064905 5.69511635,12.9481232 5.68414392,12.9754793 C5.65566596,13.0444462 5.656745,13.1027385 5.68744212,13.15268 C5.72579284,13.2157233 5.7904432,13.2145304 5.82114052,13.1515728 C5.84961868,13.0933004 5.84196488,13.0112297 5.80359374,12.9494013 C5.76961966,12.8958818 5.76524302,12.8471131 5.78716685,12.791206 C5.80141563,12.7590992 5.77619585,12.7674299 5.7466176,12.8054782 L5.74661679,12.8053949 Z M5.88251331,13.1824235 C5.86168915,13.1919165 5.83866667,13.2085871 5.83099244,13.2204739 C5.76961884,13.3072951 5.90881336,13.4024253 6.00961672,13.3441551 C6.11811433,13.2799392 6.12141233,13.2787463 6.17291257,13.2977717 C6.21673939,13.3132386 6.21893751,13.3132386 6.21016422,13.294209 C6.19263786,13.258522 6.16523834,13.2418823 6.05893926,13.2026371 C5.93729173,13.1586189 5.93291509,13.1586189 5.88251331,13.1824126 L5.88251331,13.1824235 Z M5.46387174,13.2109502 C5.41346996,13.2478324 5.35977078,13.256139 5.3203206,13.2335558 C5.28962389,13.2157209 5.28634652,13.2264305 5.31154629,13.2621068 C5.3246956,13.2799414 5.35429386,13.2989642 5.38059433,13.3061026 C5.40579491,13.3132495 5.44962132,13.3298785 5.4781197,13.3417896 C5.54386994,13.371511 5.60304481,13.371511 5.64799092,13.3417896 C5.73894195,13.2823267 5.6819652,13.1752853 5.56031746,13.1752853 C5.52524412,13.1752853 5.49894406,13.1847781 5.46387092,13.2109502 L5.46387174,13.2109502 Z M5.72799076,13.3405971 C5.72251424,13.3536742 5.71701955,13.3893436 5.71701955,13.4214726 C5.71484124,13.6343603 5.63702032,13.8353369 5.49017179,14.0089794 C5.45839625,14.0458613 5.43209619,14.0791609 5.43209619,14.0839117 C5.43209619,14.095794 5.59647128,14.0922314 5.61839449,14.0791543 C5.63811959,14.0684445 5.64031812,14.0720291 5.64689308,14.1136265 C5.65566535,14.1707261 5.6852438,14.2254407 5.7214162,14.251604 C5.74441846,14.268244 5.75319236,14.2694387 5.77839274,14.2551667 C5.82223979,14.2325813 5.85071795,14.1838124 5.85619385,14.121962 C5.86169058,14.0755785 5.86606559,14.0672476 5.8803158,14.0755785 C5.8901669,14.0803359 5.93949087,14.0862881 5.98989184,14.0886556 L6.08196256,14.0934132 L6.03373908,14.0315849 C5.94278806,13.9150219 5.91319061,13.871024 5.8770178,13.7937286 C5.82661642,13.6878798 5.80579206,13.6046168 5.79701877,13.4785523 C5.7937412,13.4190874 5.7860682,13.359622 5.78169115,13.3441551 C5.77071994,13.3120461 5.74332042,13.3096606 5.72799198,13.3405925 L5.72799076,13.3405971 Z M2.07911164,12.8021024 C2.06486242,12.8211319 2.0484351,12.8568168 2.04513742,12.8794 C2.04076088,12.903198 2.02761088,12.9448307 2.01663898,12.9721647 C1.98816089,13.0411535 1.98926012,13.0994239 2.01993666,13.1493875 C2.05828742,13.2124085 2.12295852,13.2112379 2.15363506,13.1482803 C2.1821335,13.0900079 2.17445928,13.0079396 2.13610852,12.946087 C2.10213431,12.8925674 2.09773741,12.8438206 2.11966084,12.7879135 C2.13391006,12.7558066 2.10870931,12.7641378 2.07911164,12.8021857 L2.07911164,12.8021024 Z M2.21500851,13.1791089 C2.19418432,13.1886238 2.17116163,13.2052725 2.16348737,13.2171814 C2.1021343,13.3040026 2.24130847,13.3991328 2.34213189,13.3408626 C2.45060919,13.2766467 2.45390682,13.2754538 2.50540763,13.2944791 C2.54925451,13.3099461 2.55143259,13.3099461 2.5426795,13.2909165 C2.52513254,13.2552295 2.4977334,13.2385674 2.39143418,13.1993224 C2.26980691,13.1553266 2.26541003,13.1553266 2.21500851,13.1790979 L2.21500851,13.1791089 Z M7.59335639,9.99978691 C7.58788008,10.012864 7.58238538,10.0485335 7.58238538,10.0806403 C7.58020707,10.293528 7.50238636,10.4945268 7.35553804,10.6681692 C7.32376208,10.7050292 7.29746202,10.7383286 7.29746202,10.7431015 C7.29746202,10.7549841 7.46183691,10.7514214 7.48376033,10.738322 C7.50348542,10.7276343 7.50568375,10.731197 7.51225892,10.7728165 C7.52103139,10.8299163 7.55060963,10.8846086 7.58678244,10.9107719 C7.6097847,10.9274338 7.61855799,10.9286287 7.64375858,10.9143567 C7.68760542,10.8917511 7.71608419,10.8430044 7.72155988,10.781154 C7.72705662,10.7347706 7.73143162,10.7264418 7.74568143,10.7347706 C7.75553274,10.7395281 7.80485691,10.7454582 7.85525747,10.7478478 L7.9473286,10.7526052 L7.89910512,10.6907769 C7.80813366,10.5742142 7.77855665,10.5302162 7.74238383,10.4528984 C7.69198226,10.3470518 7.6711581,10.2638088 7.66238461,10.1377423 C7.65910683,10.0782794 7.65143383,10.0188143 7.64705699,10.0033471 C7.63608578,9.97123808 7.60868564,9.96885262 7.59335761,9.99978471 L7.59335639,9.99978691 Z M3.84927196,10.0078745 C3.84379622,10.0209515 3.8383205,10.0566212 3.8383205,10.0887524 C3.83612201,10.3016377 3.75832132,10.5026143 3.61147293,10.676257 C3.57969714,10.7131389 3.55339719,10.7464383 3.55339719,10.7511892 C3.55339719,10.7630716 3.71777211,10.759509 3.73969559,10.7464317 C3.75942062,10.7357219 3.76161903,10.7393067 3.768194,10.7809041 C3.77694714,10.8380039 3.80654477,10.892718 3.84269708,10.9188814 C3.86571972,10.9355213 3.87449318,10.9367163 3.89969394,10.9224443 C3.94352046,10.8998608 3.97201888,10.8510897 3.97749468,10.7892394 C3.9829704,10.7428559 3.98736742,10.7345272 4.00161661,10.7428559 C4.0114679,10.7476135 4.06079187,10.7535657 4.11119304,10.7559332 L4.20324333,10.7606905 L4.15504008,10.6988601 C4.06406883,10.5822973 4.03449161,10.5383015 3.99831855,10.4610038 C3.94791736,10.3551572 3.92709312,10.271892 3.91831969,10.1458253 C3.91504246,10.0863626 3.90736823,10.0268974 3.90297121,10.0114303 C3.89201955,9.97932125 3.86462044,9.97693579 3.84927198,10.0078679 L3.84927196,10.0078745 Z M5.70193523,10.0030794 C5.69645872,10.0161567 5.69098445,10.051826 5.69098445,10.083955 C5.68878572,10.2968427 5.61098543,10.4978195 5.46413711,10.6714617 C5.43236095,10.7083417 5.4060611,10.7416434 5.4060611,10.746394 C5.4060611,10.7582764 5.57043618,10.7547139 5.5923594,10.7416369 C5.61208449,10.7309271 5.61426239,10.7345116 5.62083776,10.7761088 C5.62961207,10.8332086 5.6592089,10.8879232 5.69536109,10.9140866 C5.71838398,10.9307265 5.72713684,10.9319212 5.75235806,10.917649 C5.79618426,10.8950636 5.82468305,10.8462949 5.83015896,10.7844443 C5.83563527,10.7380609 5.84001027,10.7297299 5.85426027,10.7380609 C5.86413181,10.7428182 5.91343535,10.7487707 5.96385694,10.7511382 L6.05590683,10.7558955 L6.00768376,10.6940673 C5.91673294,10.5775023 5.8871355,10.5335087 5.85098291,10.4562109 C5.8005609,10.3503623 5.77973674,10.2670991 5.77098368,10.1410348 C5.76768568,10.0815697 5.76001247,10.0221046 5.75563563,10.0066377 C5.74468485,9.97452862 5.71728492,9.97214316 5.70193625,10.0030748 L5.70193523,10.0030794 Z M2.05446048,9.99978691 C2.04898472,10.012864 2.04350895,10.0485335 2.04350895,10.0806403 C2.0424098,10.1870842 2.01425733,10.3082672 1.9761712,10.4068226 L1.97336206,10.7728231 C1.9821355,10.8299229 2.01173317,10.8846151 2.04788548,10.9107787 C2.07090815,10.9274404 2.07966125,10.9286355 2.10488236,10.9143633 C2.14870889,10.8917577 2.17720736,10.8430112 2.18268313,10.7811606 C2.18815887,10.7347771 2.19255587,10.7264484 2.20678467,10.7347771 C2.21665739,10.7395347 2.26595964,10.7454648 2.31638151,10.7478544 L2.40843149,10.752612 L2.36020804,10.6907835 C2.26925732,10.5742208 2.23965965,10.5302228 2.20350736,10.452905 C2.15308544,10.3470586 2.13228158,10.2638154 2.12350813,10.1377489 C2.12021046,10.078286 2.1125566,10.0188208 2.10815969,10.0033537 C2.09720815,9.97124466 2.06980893,9.9688592 2.05446048,9.99979129 L2.05446048,9.99978691 Z M6.70455095,14.5269887 C6.69030237,14.546018 6.67387447,14.5817028 6.67057687,14.604286 C6.66619983,14.6280863 6.65305052,14.6696949 6.64209892,14.6970507 C6.61360033,14.7660397 6.61469939,14.8243121 6.64537649,14.8742736 C6.683727,14.9372948 6.7483982,14.9361018 6.77907489,14.8731663 C6.80757327,14.8148961 6.79989884,14.7328255 6.76154853,14.6709751 C6.72757384,14.6174534 6.72319741,14.5687067 6.74510102,14.5127996 C6.7593498,14.4806927 6.7341484,14.4890236 6.70455156,14.5270716 L6.70455095,14.5269887 Z M6.84044809,14.903995 C6.81962393,14.9135101 6.79662147,14.9301585 6.78894745,14.9420696 C6.72757364,15.0288667 6.86674794,15.1240189 6.96757173,15.0657487 C7.07606933,15.0015328 7.0793463,15.0003398 7.13084693,15.0193652 C7.17469398,15.0348321 7.17687188,15.0348321 7.16811902,15.0157807 C7.15057223,14.9801156 7.12319313,14.9634537 7.01687363,14.9242085 C6.89524652,14.8802127 6.89084946,14.8802127 6.84044809,14.903984 L6.84044809,14.903995 Z M6.42182613,14.9325438 C6.37140453,14.9694038 6.31770536,14.9777347 6.27825517,14.9551493 C6.24757848,14.9372926 6.24428089,14.9480241 6.26950129,14.9836782 C6.2826506,15.001535 6.31222905,15.0205599 6.3385289,15.0276961 C6.36372948,15.0348433 6.40757632,15.0514743 6.43607471,15.063361 C6.50182495,15.0931048 6.56099981,15.0931048 6.60592549,15.063361 C6.69687631,15.0038983 6.63989977,14.8968568 6.51825224,14.8968568 C6.48319912,14.8968568 6.45687884,14.9063716 6.42182551,14.9325438 L6.42182613,14.9325438 Z M6.70586554,15.0539369 C6.70039066,15.0668932 6.69491578,15.1022546 6.69491578,15.134067 C6.69271765,15.344984 6.6149382,15.5441264 6.4681287,15.7161613 C6.43636173,15.7526801 6.41006882,15.7856719 6.41006882,15.7904029 C6.41006882,15.8021754 6.57439958,15.7986457 6.59631728,15.7856675 C6.61603706,15.7750787 6.61821476,15.7785863 6.62478788,15.819843 C6.6335579,15.8764146 6.66314861,15.9306013 6.69929119,15.9565228 C6.72230754,15.9730307 6.73105815,15.9742145 6.75627304,15.9600743 C6.80008821,15.9376781 6.82857863,15.8893821 6.8340531,15.8281013 C6.83952798,15.7821489 6.84390175,15.773895 6.85814809,15.7821489 C6.86801921,15.7868622 6.91730702,15.7927375 6.96771575,15.7951052 L7.05974112,15.7998187 L7.01153031,15.7385401 C6.9206042,15.6230747 6.89101432,15.5794856 6.85487153,15.5028809 C6.80446342,15.398013 6.78364458,15.3155418 6.77489396,15.1906408 C6.77159678,15.1317256 6.76392377,15.0728101 6.75955,15.0574861 C6.74860024,15.0256762 6.72120991,15.0233107 6.70586533,15.0539347 L6.70586554,15.0539369 Z M2.96048701,14.5350762 C2.9462379,14.5541056 2.92981049,14.5897904 2.92651281,14.6123957 C2.92213624,14.6361738 2.90898627,14.6778046 2.89801439,14.7051604 C2.86953629,14.7741273 2.87063552,14.8323997 2.90131204,14.8823611 C2.93966278,14.9453823 3.00433389,14.9442115 3.03501042,14.8812539 C3.06350888,14.8229837 3.05583462,14.740913 3.01748388,14.6790848 C2.9835097,14.6255653 2.97911278,14.5767942 3.00103626,14.5208893 C3.01528539,14.48878 2.9900848,14.4971112 2.96048705,14.5351613 L2.96048701,14.5350762 Z M3.09638386,14.9120827 C3.07555963,14.9215976 3.05253698,14.9382682 3.04486275,14.9501572 C2.9835097,15.0369786 3.1226839,15.1321064 3.22350728,15.0738362 C3.33198458,15.0096203 3.33528223,15.0084276 3.38678298,15.0274528 C3.43062988,15.0429197 3.43280798,15.0429197 3.42405487,15.0238904 C3.4065079,14.9882031 3.37910875,14.9715656 3.27280961,14.932296 C3.15116197,14.8883002 3.14678538,14.8883002 3.09638386,14.9120715 L3.09638386,14.9120827 Z M2.67776211,14.9406313 C2.62734024,14.9775135 2.57364105,14.9858223 2.53419107,14.9632391 C2.50351448,14.9453823 2.50021681,14.9560917 2.52541768,14.9917658 C2.53856765,15.0096225 2.56816533,15.0286475 2.59446533,15.0357837 C2.61966612,15.0429309 2.66351296,15.0595618 2.69199105,15.0714486 C2.75776137,15.1011923 2.81693639,15.1011923 2.86186212,15.0714486 C2.95281289,15.0119858 2.89583635,14.9049665 2.77418867,14.9049665 C2.73911526,14.9049665 2.71281529,14.9144592 2.67776211,14.9406313 Z M2.96280048,15.0619716 C2.95732621,15.0749279 2.95185194,15.1102674 2.95185194,15.1420798 C2.94965402,15.352999 2.87187409,15.5521392 2.72506488,15.7241741 C2.69327722,15.7607148 2.66698428,15.7937088 2.66698428,15.7984157 C2.66698428,15.8101882 2.83133569,15.8066585 2.85323294,15.7937022 C2.87295272,15.7830915 2.87515054,15.786621 2.88172376,15.8278536 C2.8904948,15.8844252 2.92006432,15.9386338 2.95622729,15.9645553 C2.9792235,15.9810413 2.98799461,15.9822251 3.01318863,15.9680849 C3.05702383,15.9456887 3.08549431,15.8973927 3.09098898,15.8361119 C3.09646325,15.7901595 3.10083866,15.7819056 3.11508409,15.7901595 C3.12495419,15.7948728 3.17424329,15.8007481 3.22465169,15.8031158 L3.31667712,15.8078293 L3.26846656,15.7465726 C3.17753998,15.6310853 3.14795024,15.5874962 3.11180752,15.5108915 C3.06139912,15.4060236 3.04058048,15.3235524 3.0318297,15.1986514 C3.02853292,15.1397362 3.02086074,15.0808207 3.01648533,15.0654967 C3.00551637,15.0336868 2.97814477,15.0313213 2.96280044,15.0619672 L2.96280048,15.0619716 Z M4.81315064,14.530281 C4.79890185,14.5493105 4.78245352,14.5849956 4.77917574,14.6076007 C4.77477827,14.6313768 4.76162895,14.6730093 4.75067756,14.7003654 C4.72217938,14.7693323 4.72327824,14.8276047 4.75397556,14.8775661 C4.79232607,14.9405873 4.85697684,14.9394167 4.88767376,14.8764589 C4.91615212,14.8181886 4.90847789,14.7361182 4.87012697,14.6742873 C4.83615269,14.6207679 4.83177605,14.5719992 4.85370009,14.5160921 C4.86794866,14.4839852 4.84272888,14.4923161 4.81315125,14.5303643 L4.81315064,14.530281 Z M4.94902673,14.9072877 C4.92820257,14.9168026 4.90520032,14.9334734 4.89752629,14.9453602 C4.83615248,15.0321814 4.97532658,15.1273114 5.07614996,15.0690412 C5.18464818,15.0048253 5.18794537,15.0036326 5.23944601,15.0226577 C5.28327303,15.0381249 5.28547136,15.0381249 5.27669786,15.0190951 C5.25917151,14.9834081 5.23177198,14.9667684 5.1254729,14.9275012 C5.00382557,14.883505 4.99944874,14.883505 4.94902673,14.9072767 L4.94902673,14.9072877 Z M4.53040518,14.9358363 C4.4800036,14.9727184 4.42630463,14.9810272 4.38685445,14.958444 C4.35615774,14.9405873 4.35288037,14.9512969 4.37808198,14.9869707 C4.39123129,15.0048275 4.42082975,15.0238505 4.44712981,15.0309887 C4.4723306,15.0381358 4.51615721,15.0547668 4.5446556,15.0666535 C4.61040543,15.0963973 4.66958009,15.0963973 4.7145266,15.0666535 C4.80547702,15.0071906 4.74848005,14.9001714 4.62685295,14.9001714 C4.5917794,14.9001714 4.56547955,14.9096642 4.5304062,14.9358363 L4.53040518,14.9358363 Z M4.8149694,15.0572209 C4.80947409,15.0701773 4.80399921,15.1055168 4.80399921,15.137329 C4.80180109,15.3482483 4.72402164,15.5473862 4.57721213,15.7194233 C4.54544557,15.7559643 4.51915246,15.7889558 4.51915246,15.7936649 C4.51915246,15.8054375 4.68348302,15.8019079 4.70540092,15.7889515 C4.7251207,15.778341 4.72731842,15.7818924 4.73389174,15.823105 C4.74264338,15.8796769 4.77223204,15.9338855 4.80839525,15.959807 C4.83139138,15.9762928 4.84016243,15.9774767 4.86535627,15.9633365 C4.90917124,15.9409401 4.93766206,15.8926419 4.94313653,15.8313634 C4.94861141,15.785411 4.95300766,15.777157 4.96725195,15.785411 C4.9771006,15.7901245 5.02641109,15.7959998 5.07679918,15.7983675 L5.16882455,15.8030807 L5.12063438,15.7418219 C5.02968764,15.626337 5.00011839,15.5827479 4.96395517,15.5061429 C4.91356728,15.4012753 4.89274824,15.3188016 4.88397719,15.1939031 C4.88070044,15.1349876 4.87302948,15.0760724 4.86863323,15.0607482 C4.85768347,15.0289382 4.83029252,15.0265727 4.81496879,15.0572187 L4.8149694,15.0572209 Z M6.69860723,11.146161 C6.68435845,11.1651906 6.66793095,11.200873 6.66463275,11.2234586 C6.6602557,11.2472565 6.64710639,11.2888672 6.63613457,11.3162233 C6.60765661,11.3852121 6.60875568,11.4434825 6.63943257,11.4934437 C6.67778308,11.5564671 6.74245448,11.5552744 6.77313138,11.4923365 C6.80162935,11.4340442 6.79395533,11.3519954 6.75560502,11.290145 C6.72163094,11.2366256 6.71723388,11.1878788 6.73915771,11.1319719 C6.75340628,11.0998629 6.72820693,11.1081714 6.69860866,11.1462441 L6.69860723,11.146161 Z M6.83450416,11.5231653 C6.81368001,11.5326802 6.79065732,11.5493287 6.78298289,11.5612179 C6.72162992,11.6480391 6.86080402,11.7431915 6.9616274,11.6849188 C7.07010498,11.620683 7.07340237,11.6195104 7.12490281,11.6385376 C7.16875026,11.6539826 7.17092836,11.6539826 7.16217489,11.634953 C7.14462811,11.5992882 7.11722878,11.5826261 7.01092991,11.5433808 C6.88930281,11.499385 6.88490574,11.499385 6.83450416,11.5231566 L6.83450416,11.5231653 Z M6.41588221,11.5517164 C6.3654604,11.588574 6.31176144,11.5969051 6.27231146,11.5742995 C6.24163456,11.5564649 6.23833676,11.5671526 6.26353694,11.6028506 C6.27668625,11.6206852 6.30628472,11.6397303 6.33258457,11.6468466 C6.35778515,11.6539714 6.4016324,11.6706444 6.43011015,11.6825336 C6.49588062,11.7122771 6.55505569,11.7122771 6.59998157,11.6825336 C6.69093219,11.6230685 6.63395565,11.5160293 6.51230811,11.5160293 C6.47723436,11.5160293 6.45093431,11.525544 6.41588139,11.5517164 L6.41588221,11.5517164 Z M6.67998141,11.6813387 C6.6745051,11.694416 6.66902879,11.7301098 6.66902879,11.7622164 C6.66683005,11.9751041 6.58902936,12.1761026 6.44218124,12.3497453 C6.41038526,12.3866029 6.38408521,12.4199047 6.38408521,12.4246554 C6.38408521,12.4365599 6.54848032,12.4329754 6.57038331,12.4198979 C6.5901084,12.4092104 6.59230714,12.4127509 6.5988821,12.4543924 C6.60765457,12.5114701 6.6372324,12.566182 6.67340542,12.5923456 C6.69640768,12.6090075 6.70518097,12.6101805 6.73038176,12.5959304 C6.77422901,12.573325 6.80272739,12.5245561 6.80820329,12.4627279 C6.8136796,12.4163445 6.8180546,12.4080133 6.83230441,12.4163445 C6.84217615,12.4211016 6.89147948,12.4270317 6.94190128,12.4294215 L7.03395158,12.4341791 L6.9857279,12.3723285 C6.89477728,12.2557859 6.86517942,12.2117675 6.82902724,12.1344702 C6.77860564,12.0286236 6.75778088,11.9453825 6.74902802,11.8192939 C6.74573001,11.7598309 6.73805701,11.700366 6.73367997,11.6849188 C6.72272735,11.652812 6.69532946,11.6504245 6.679981,11.6813343 L6.67998141,11.6813387 Z M2.95454307,11.1542486 C2.94029376,11.1732781 2.92384618,11.2089606 2.92056885,11.2315462 C2.91619228,11.255344 2.90304231,11.2969769 2.89207041,11.3243109 C2.86359235,11.3932997 2.86467119,11.4515701 2.89536806,11.5015315 C2.93371877,11.5645547 2.99836956,11.5633619 3.02906646,11.5004243 C3.05754456,11.4421541 3.04989067,11.3600834 3.01151947,11.2982328 C2.97754525,11.2447133 2.97316869,11.1959666 2.99509209,11.1400597 C3.0093412,11.1079507 2.98412019,11.1162814 2.95454287,11.1543319 L2.95454307,11.1542486 Z M3.09043988,11.5312529 C3.06961572,11.5407899 3.04659302,11.5574163 3.03891881,11.5693276 C2.97754537,11.6561266 3.11673991,11.7512788 3.21754301,11.6930064 C3.32604056,11.6287927 3.32933827,11.627598 3.38083899,11.6466251 C3.42466555,11.6620923 3.426864,11.6620923 3.41809054,11.6430406 C3.40056402,11.6073801 3.37316481,11.5907182 3.26686563,11.551473 C3.14521801,11.507477 3.14084144,11.507477 3.09043988,11.5312529 L3.09043988,11.5312529 Z M2.6717978,11.5598039 C2.6213963,11.5966615 2.56769709,11.6049927 2.52824707,11.5824092 C2.49755019,11.5645525 2.49427285,11.5752623 2.5194737,11.6109381 C2.53262366,11.6287949 2.56222135,11.6478179 2.58852133,11.6549563 C2.61372209,11.6620811 2.65754859,11.678732 2.68604707,11.6906211 C2.75179702,11.7203647 2.81097199,11.7203647 2.85591814,11.6906211 C2.9468689,11.631156 2.88989236,11.5241169 2.76824471,11.5241169 C2.73317128,11.5241169 2.70687129,11.5336316 2.6717978,11.5598039 L2.6717978,11.5598039 Z M2.93591731,11.6894262 C2.93044157,11.7025035 2.9249454,11.7381973 2.9249454,11.770304 C2.92276734,11.9831917 2.84494618,12.1841902 2.69809779,12.3578329 C2.66632206,12.3946905 2.64002205,12.4279922 2.64002205,12.4327651 C2.64002205,12.4446475 2.80439699,12.4410849 2.82632041,12.4279854 C2.84604546,12.417298 2.84824387,12.4208385 2.85481885,12.4624799 C2.86359225,12.5195798 2.89316965,12.5742698 2.9293423,12.6004332 C2.9523446,12.6170952 2.96111805,12.6182899 2.9863188,12.6040179 C3.0301657,12.5814126 3.0586438,12.5326658 3.06411958,12.4708155 C3.06961572,12.424432 3.0739923,12.4161009 3.08824149,12.424432 C3.09809378,12.4291891 3.14741644,12.4351192 3.19781798,12.4375091 L3.28988831,12.4422666 L3.24166486,12.380416 C3.15069377,12.2638734 3.12111647,12.2198772 3.08494381,12.1425599 C3.03454226,12.0367111 3.01371806,11.9534701 3.00494461,11.8274036 C3.00166718,11.7679406 2.99399313,11.7084757 2.98961656,11.6930064 C2.97864468,11.6608995 2.95124542,11.6585121 2.93591735,11.6894218 L2.93591731,11.6894262 Z M4.80720631,11.1494536 C4.79295752,11.1684831 4.7765096,11.2041657 4.77323202,11.2267491 C4.76883475,11.2505492 4.75568544,11.2921797 4.74473364,11.319516 C4.71623546,11.3885046 4.71733452,11.4467748 4.74801142,11.4967365 C4.78638256,11.5597596 4.85103313,11.5585671 4.88170982,11.4956292 C4.9102082,11.4373588 4.90253397,11.3552883 4.86418346,11.2934378 C4.83020897,11.2399183 4.82583254,11.1911715 4.84773614,11.1352646 C4.86198472,11.1031554 4.83678536,11.1114865 4.80720733,11.1495366 L4.80720631,11.1494536 Z M4.94308281,11.5264581 C4.92225845,11.5359727 4.8992564,11.5526214 4.89158196,11.5645325 C4.83020836,11.6513318 4.96938307,11.746484 5.07020624,11.6882113 C5.17870406,11.6239976 5.18198122,11.6228029 5.23350208,11.6418301 C5.2773289,11.6572972 5.27952744,11.6572972 5.27075374,11.6382455 C5.25322738,11.6025807 5.22582826,11.5859186 5.11952857,11.5466736 C4.99788145,11.5026778 4.99350441,11.5026778 4.94308281,11.5264491 L4.94308281,11.5264581 Z M4.52446126,11.5550091 C4.47403945,11.5918665 4.42036051,11.6001974 4.38088989,11.5776142 C4.35021341,11.5597574 4.34693645,11.5704672 4.37213601,11.6061409 C4.38528532,11.6239976 4.41486336,11.6430228 4.44116382,11.650161 C4.46638443,11.6572863 4.51021104,11.6739369 4.53870943,11.6858263 C4.60445946,11.7155698 4.66363413,11.7155698 4.70856001,11.6858263 C4.79953106,11.626361 4.74253409,11.5193218 4.62088676,11.5193218 C4.58583364,11.5193218 4.55953358,11.5288367 4.52446024,11.5550091 L4.52446126,11.5550091 Z M4.78856026,11.6846334 C4.78308395,11.6977109 4.77760764,11.7334023 4.77760764,11.7655089 C4.7754089,11.9783966 4.69760861,12.1793951 4.55076029,12.3530378 C4.51898454,12.3898954 4.49268469,12.4231972 4.49268469,12.4279701 C4.49268469,12.4398525 4.65705916,12.43629 4.67898279,12.4231904 C4.69870788,12.4125032 4.70088598,12.4160434 4.70746115,12.4576849 C4.71623546,12.5147847 4.74583188,12.5694748 4.78198448,12.5956383 C4.80500696,12.6123 4.81378025,12.6134951 4.83898083,12.5992229 C4.88280786,12.5766176 4.91130644,12.5278708 4.91678234,12.4660202 C4.92225865,12.4196367 4.92665408,12.4113058 4.94088346,12.4196367 C4.9507552,12.4243943 5.00007916,12.4303244 5.05048054,12.4327143 L5.14253063,12.4374716 L5.09430695,12.3756431 C5.00335633,12.2590782 4.9737789,12.2150824 4.93760609,12.1377624 C4.88720451,12.0319163 4.86638036,11.948675 4.85760707,11.8226087 C4.85430886,11.7631456 4.84665629,11.7036807 4.84225902,11.6882113 C4.83130824,11.6561045 4.80390851,11.6537171 4.78856005,11.6846268 L4.78856026,11.6846334 Z M2.05728997,13.3451045 C2.0518142,13.3581815 2.04633843,13.3938508 2.04633843,13.425982 C2.04523929,13.5324037 2.01708682,13.6535868 1.97900068,13.75214 L1.9762119,14.1181406 C1.98496499,14.1752403 2.01456266,14.2299546 2.05071497,14.2561182 C2.07373764,14.2727579 2.08251108,14.2739528 2.10771185,14.2596806 C2.15153838,14.2370753 2.18003688,14.1883265 2.18551262,14.1264757 C2.19098836,14.0800945 2.19538536,14.0717638 2.20963451,14.0800945 C2.2194868,14.084852 2.26880946,14.0907821 2.31921102,14.093172 L2.41126096,14.0979295 L2.36305792,14.0361009 C2.27208679,13.9195359 2.24250949,13.8755401 2.20633681,13.7982423 C2.15593528,13.692374 2.13511107,13.6091327 2.12633762,13.4830665 C2.12306029,13.4236013 2.11538608,13.364136 2.11098917,13.3486691 C2.10003763,13.3165622 2.07263841,13.3141746 2.05728996,13.3451067 L2.05728997,13.3451045 Z" id="Shape" fill="#000000" fill-rule="nonzero" transform="translate(4.973362, 12.977873) rotate(-1.000000) translate(-4.973362, -12.977873) "></path>
            <polygon id="bg-red" fill="#CC0000" fill-rule="nonzero" points="0.973362058 24.9778729 8.97336206 24.9778729 8.97336206 16.9778729 0.973362058 16.9778729"></polygon>
            <polygon id="bg-blue" fill="#0092C8" fill-rule="nonzero" points="8.97336206 0.97787293 32.9733621 0.97787293 32.9733621 24.9778729 8.97336206 24.9778729"></polygon>
            <g id="lions" transform="translate(2.373362, 17.977873)" fill="#FFCF00" fill-rule="nonzero" stroke="#650000" stroke-width="0.1">
                <path d="M1.074191,0.766088802 C0.995113992,0.669117021 1.07325806,0.492259967 1.14416082,0.567698067 C1.10702128,0.495326176 1.16775064,0.438027861 1.19529432,0.474284025 C1.18247762,0.415370684 1.24071917,0.376329185 1.26928463,0.430701728 C1.25902239,0.365000596 1.34538514,0.326544252 1.36777548,0.398354395 C1.36928594,0.33377676 1.45369398,0.282798112 1.47233038,0.377359056 C1.48876774,0.304565854 1.58286049,0.295039541 1.59065713,0.39844802 C1.61811195,0.338294151 1.6886593,0.342694512 1.69276864,0.430093168 C1.7232666,0.388991925 1.80207705,0.450503352 1.78866061,0.523226336 C1.83732851,0.512108403 1.89681396,0.615961599 1.837484,0.692523196 C1.94272749,0.633352386 1.96760565,0.825165986 1.90363324,0.912260361 C1.93673008,0.933536574 1.93963994,0.914741416 1.96882735,0.930704427 C1.99801476,0.946667438 2.05094748,0.972952572 2.09937104,0.98428116 C2.14315216,0.98428116 2.30368292,0.978967959 2.3365132,0.973631351 C2.36934349,0.968318149 2.41423524,0.950248582 2.46785655,0.931055519 C2.52403232,0.911885863 2.60524174,0.911160271 2.67936533,0.89220127 C2.73809555,0.885249636 4.3868733,0.92040571 4.43429729,0.915092508 C4.48174349,0.909779307 4.55095808,0.861726431 4.54731521,0.803187588 C4.54365012,0.744648746 4.48902924,0.702213352 4.43429729,0.69690015 C4.37958755,0.691586949 4.09866427,0.691586949 4.0475752,0.702213352 C3.99650833,0.712863161 3.92353981,0.739475981 3.88706665,0.776738611 C3.86951866,0.788628948 3.84055338,0.833685834 3.8159862,0.863294644 C3.79299611,0.883728235 3.72809077,0.886747631 3.72809077,0.860134811 C3.72809077,0.842720617 3.72264868,0.863458488 3.7067,0.870222872 C3.68599782,0.883868672 3.59261587,0.88761366 3.59674742,0.870222872 C3.60405538,0.850514873 3.59625875,0.844312237 3.57171378,0.864886264 C3.55345499,0.880849275 3.42442175,0.886747631 3.40072086,0.870925057 C3.41493695,0.845903857 3.41504802,0.847331633 3.37626474,0.867905661 C3.35171977,0.879281062 3.25005251,0.888175408 3.24274456,0.866314041 C3.2417672,0.849087096 3.23026105,0.857536725 3.21591168,0.862428616 C3.10069471,0.894190795 3.08963282,0.857419695 3.1078694,0.841456684 C3.12612819,0.825493673 3.1537385,0.73416278 3.12455109,0.739475981 C3.09536368,0.744789183 2.91295347,0.782051813 2.85093577,0.792701622 C2.78891808,0.803328025 2.34015608,0.792701622 2.27813838,0.787365014 C2.21612069,0.782051813 2.14681724,0.720540386 2.14315216,0.633048106 C2.13666607,0.492681278 2.2453081,0.457408173 2.31096867,0.436131961 C2.37665145,0.414832342 2.54082508,0.38290632 2.60648565,0.38290632 C2.67216843,0.38290632 2.85946542,0.407389178 2.9105545,0.386112966 C2.96162136,0.364813347 3.11673224,0.305361664 3.16057999,0.300961303 C3.22524099,0.29461823 3.41047221,0.317696718 3.49874525,0.429554826 C3.45278729,0.45155663 3.43117439,0.464500244 3.48332968,0.444651808 C3.53077588,0.434001999 3.73435474,0.389296205 3.78177873,0.377593118 C3.94595236,0.370126549 3.90290426,0.396762775 3.82262778,0.418038988 C3.79583933,0.508012322 3.55458783,0.633609854 3.47797643,0.649596272 C3.40136503,0.665559283 3.23876849,0.653856195 3.20242861,0.646881155 C3.16593324,0.64397879 2.9933188,0.634897194 2.93045703,0.591993676 C2.82892304,0.519411129 2.64131507,0.471709346 2.55906166,0.473371184 C2.48211707,0.475009616 2.26261175,0.499305225 2.26354468,0.579822466 C2.26241183,0.721219165 2.46785655,0.728826172 2.55541879,0.72351297 C2.64298102,0.718176363 2.8618866,0.70754996 2.9239043,0.680937139 C2.98592199,0.654324319 3.12006414,0.647793996 3.19303266,0.647793996 C3.26600119,0.647793996 3.37264408,0.664974128 3.40547437,0.65963752 C3.43830465,0.654324319 3.51493827,0.653107198 3.55141142,0.626494377 C3.58788458,0.599881557 3.66722814,0.572075022 3.74748241,0.572075022 C3.82773668,0.572075022 4.42336867,0.547896444 4.50362294,0.553209645 C4.61981727,0.552367023 4.70189298,0.686180122 4.70329238,0.799980942 C4.70395876,0.853206583 4.67923609,0.931851329 4.65822293,0.94402254 C4.69427404,0.947533466 4.78447958,0.958253494 4.81424452,0.964783817 C4.87013153,0.976463498 4.96071468,1.04136882 4.9711102,1.10049282 C4.92866184,1.07334165 4.86015805,1.03231063 4.79840691,1.02781664 C4.78632323,1.02795708 3.48617289,1.02552284 3.38399474,1.02617821 C3.66180825,1.06079594 3.87413889,1.28626762 3.92718268,1.41535268 C3.97460667,1.49516773 4.09135631,1.46324171 4.13513743,1.4525919 C4.17891855,1.4419655 4.23000762,1.39405306 4.26648078,1.35681383 C4.30297615,1.3195512 4.36001821,1.31009511 4.38576267,1.3195512 C4.44247154,1.314238 4.45255608,1.37809005 4.43065441,1.41003947 C4.40877496,1.4419655 4.43429729,1.42883463 4.49267211,1.42883463 C4.55102472,1.42883463 4.60249141,1.45174928 4.636921,1.50008303 C4.60409072,1.53200905 4.5875423,1.50581754 4.63496629,1.51115415 C4.68239028,1.51646735 4.73965447,1.60812593 4.70429195,1.63398975 C4.67337195,1.65014001 4.6641537,1.64419484 4.70429195,1.64950804 C4.76411059,1.65484465 4.78041467,1.69566502 4.78818909,1.76822416 C4.73754427,1.77800794 4.76266677,1.76127253 4.78818909,1.78788535 C4.81373363,1.81449817 4.85093981,1.93232485 4.75900168,1.93688905 C4.7261714,1.92092604 4.72677114,1.91783643 4.73376812,1.95404578 C4.74025421,1.99130841 4.72252852,2.08057956 4.67143945,2.08057956 C4.60066997,2.09495095 4.53645323,2.05396674 4.52916748,2.00607771 C4.52185952,1.95818867 4.52281466,2.09850869 4.42250237,2.12065093 C4.32776546,2.14286339 4.27743161,2.08591617 4.27012365,2.05930335 C4.26283791,2.03269053 4.26648078,2.05396674 4.23000762,2.04865354 C4.19351225,2.04334034 4.1475543,2.04284881 4.12785168,1.97946489 C4.12785168,1.94222566 4.13495973,1.89311951 4.19995392,1.88649556 C4.22914133,1.88115895 4.23729337,1.84111099 4.21541392,1.83577438 C4.19351225,1.83046118 4.21174883,1.75062272 4.25919503,1.77192234 C4.30661902,1.79319855 4.41606071,1.79853516 4.44160525,1.82512457 C4.46714978,1.85173739 4.47443553,1.80384836 4.43429729,1.76127253 C4.39418126,1.7186967 4.14973114,1.63354503 4.08407057,1.66547106 C3.93115874,1.74666707 3.67544681,1.73465971 3.6316657,1.7240099 C3.58788458,1.71338349 3.46145022,1.74240715 3.40183149,1.54839337 C3.35347457,1.35028351 3.16968718,1.25237548 3.08579003,1.24172567 C2.67183524,1.20067124 2.69433665,1.23224617 2.96277642,1.24565791 C2.96077728,1.28263967 2.95104815,1.35835864 2.99456271,1.36945317 C3.06753124,1.35882676 3.21942128,1.32488781 3.25589444,1.35681383 C3.29238981,1.38873985 3.32886297,1.41535268 3.32157722,1.48985453 C3.31426926,1.56435638 3.32522009,1.54308017 3.29238981,1.57500619 C3.25953731,1.60693221 3.27413102,1.67080766 3.32522009,1.69208388 C3.37628696,1.71338349 3.39818862,1.73999631 3.43101891,1.77192234 C3.46384919,1.80384836 3.4164252,1.8677004 3.38723779,1.84642419 C3.35805038,1.82512457 3.35805038,1.82512457 3.3544075,1.8677004 C3.35074242,1.91027623 3.31449139,1.99086369 3.25282909,1.99676205 C3.23987912,1.99161269 3.24347757,1.96958748 3.24494361,1.95285207 C3.24860869,1.91561284 3.23261559,1.99912607 3.21355714,2.02229818 C3.20140683,2.03793351 3.09811805,2.06854879 3.06895285,2.05258577 C3.08196946,2.01925538 3.07443937,2.03285437 3.04889483,2.04881738 C3.02397225,2.05930335 2.88951913,2.07898794 2.94942662,2.01139091 C2.96499768,1.98676761 2.92805806,2.04217003 2.90771128,2.05181337 C2.89058534,2.06304833 2.81079753,2.06995316 2.81079753,2.03800373 C2.78547512,2.06148012 2.72519001,2.06148012 2.71594955,2.04334034 C2.69771297,2.02204072 2.69598038,2.05930335 2.6631501,2.06461655 C2.63031981,2.06995316 2.55906166,2.05930335 2.55541879,2.01672752 C2.55177591,1.97415168 2.56270453,2.0007645 2.5225885,2.00607771 C2.42487509,2.07437692 2.37665145,1.97946489 2.37665145,1.94753886 C2.37665145,1.91561284 2.37300857,1.87835021 2.38393719,1.857074 C2.39488803,1.83577438 2.31596651,1.82936109 2.34015608,1.78744063 C2.36736656,1.73620451 2.39593202,1.6986142 2.44961997,1.70804689 C2.47516451,1.71338349 2.47149943,1.69742048 2.46057081,1.67612086 C2.44961997,1.65484465 2.48975822,1.64419484 2.53718221,1.66547106 C2.5846062,1.68677067 2.61743648,1.73999631 2.63203019,1.78788535 C2.64662389,1.83577438 2.75973066,1.79853516 2.80715465,1.80384836 C2.85457864,1.80916156 2.85822152,1.7240099 2.82903411,1.69742048 C2.79984669,1.67080766 2.71959242,1.57500619 2.68676214,1.54308017 C2.65393185,1.51115415 2.6758113,1.39938966 2.70499872,1.37277684 C2.87490321,1.25174352 2.78161012,1.21312333 2.71959242,1.22377314 C2.65757473,1.23439954 2.49819902,1.30162207 2.44710995,1.36016092 C2.39604308,1.41869976 1.99921424,1.70561264 1.96271887,1.73756207 C1.92624571,1.76948809 1.87317971,1.77723554 1.85130026,1.73999631 C1.8293986,1.70273369 1.81480489,1.72934651 1.81844776,1.78254874 C1.84743526,1.98356097 1.67615358,2.04762367 1.64612209,2.0450958 C1.62522,2.04280199 1.59527735,2.03056056 1.57370888,2.01162497 C1.55240696,2.1239512 1.45826978,2.13513935 1.37319536,2.12404483 C1.37190703,2.11077352 1.3890774,2.08600979 1.37970367,2.09548929 C1.35158246,2.13408607 1.26517529,2.13003681 1.19098507,2.12416186 C1.18605386,2.10068546 1.21657403,2.07222355 1.20198032,2.08818657 C1.17707995,2.13757359 1.13425398,2.12872606 1.06486169,2.12348308 C1.06406203,2.11306733 1.09702559,2.07826235 1.08165444,2.09909384 C1.05126755,2.13408607 0.988028159,2.12313198 0.938916009,2.12399801 C0.933096296,2.11615694 0.964305058,2.06115243 0.935761813,2.09750222 C0.90848469,2.12853881 0.850709609,2.13371158 0.795488982,2.12537898 C0.785670994,2.09923428 0.806972918,2.09895341 0.812837055,2.08254568 C0.827430761,2.05593286 0.805551309,2.08254568 0.78731473,2.08254568 C0.769055938,2.08254568 0.743533613,2.08785888 0.732582781,2.06124606 C0.721631949,2.03465664 0.727918126,2.08785888 0.717322696,2.10237071 C0.706727266,2.11491642 0.694776865,2.14445501 0.658281495,2.15508141 C0.621808337,2.16573122 0.526938145,2.17638103 0.51234444,2.128492 C0.492686252,2.10644338 0.483157029,2.05930335 0.497750734,2.03269053 C0.51234444,2.00607771 0.428291804,2.08402027 0.391951922,2.09122937 C0.285109116,2.1129737 0.271559405,1.93688905 0.318983395,1.92092604 C0.366429597,1.90496303 0.359121638,1.87835021 0.3335771,1.857074 C0.308054775,1.83577438 0.29346107,1.75062272 0.326291354,1.7240099 C0.359121638,1.69742048 0.435111085,1.68265119 0.483157029,1.71338349 C0.511278233,1.73372346 0.571474492,1.80352067 0.559790642,1.75062272 C0.551660815,1.7179477 0.572451848,1.67635493 0.595752909,1.65849602 C0.615966413,1.63885823 0.678184022,1.63387272 0.694776865,1.67612086 C0.733226948,1.7740523 0.760437434,1.81623022 0.807861423,1.81449817 C0.90890673,1.78538089 1.04544784,1.75242499 1.08558608,1.75242499 C1.13707498,1.73952819 1.40969073,1.71134716 1.40969073,1.68473434 C1.24618348,1.74437327 1.18010087,1.66717971 1.16184208,1.67251631 C1.1436055,1.67782952 1.09869154,1.65521915 1.09869154,1.64037964 C1.09869154,1.60845361 1.13987378,1.61226882 1.08149895,1.62289522 C1.04653626,1.61987583 1.01541635,1.61816718 0.986006809,1.57973424 C0.981186666,1.56009646 1.02465681,1.49259305 1.04042778,1.43585648 C1.00275514,1.42511305 0.919457735,1.49659551 0.892158398,1.55960493 C0.873033314,1.53542635 0.865281102,1.55740475 0.796932804,1.57500619 C0.764680048,1.5898223 0.712213789,1.5845091 0.683026378,1.56854609 C0.653861179,1.55255967 0.5395105,1.46125218 0.594819978,1.44950228 C0.580248485,1.4419889 0.563522366,1.43768217 0.552504896,1.43447552 C0.512366652,1.41642936 0.474427461,1.3813201 0.486089097,1.37170016 C0.47593792,1.35571374 0.497728522,1.35576055 0.481646569,1.35255391 C0.459767117,1.34724071 0.405857036,1.30581178 0.419695512,1.28980196 C0.405879249,1.28018202 0.373071177,1.2653425 0.359166063,1.25787593 C0.333621526,1.24191292 0.308054775,1.18651051 0.304389689,1.15989769 C0.280866502,1.16228512 0.230643719,1.11535574 0.253322826,1.10135884 C0.214983807,1.07135213 0.182353436,1.0219651 0.207897974,1.00600209 C0.185507632,0.987417587 0.169892144,0.953478635 0.185463206,0.966188187 C0.162206571,0.936181472 0.169403466,0.904442699 0.187662258,0.904442699 C0.205898836,0.904442699 0.198590877,0.819314443 0.165760593,0.819314443 C0.132930309,0.819314443 0.0801308599,0.846161325 0.0417252026,0.819314443 C0.0101388263,0.793848525 -0.0166496195,0.680937139 0.0125377915,0.633048106 C0.0417252026,0.585135667 0.100100025,0.531910026 0.129287436,0.537246634 C0.158474847,0.542559836 0.143881141,0.553209645 0.136573182,0.505320612 C0.129287436,0.457408173 0.177777632,0.421432883 0.20954171,0.40951914 C0.24805843,0.390958044 0.322648481,0.404205939 0.344527933,0.425482151 C0.366429597,0.44678177 0.373715344,0.44678177 0.373715344,0.40951914 C0.373715344,0.383351037 0.401903186,0.369705237 0.426981258,0.362847228 C0.468741024,0.352454887 0.50141582,0.364953784 0.516009526,0.38290632 C0.53866642,0.417149553 0.552482683,0.457408173 0.523295272,0.489357601 C0.494107861,0.521283623 0.519430272,0.494202679 0.566876475,0.483576276 C0.597418857,0.472926467 0.652528421,0.486642485 0.661924368,0.521283623 C0.674585574,0.558522847 0.683826033,0.622398297 0.650995748,0.654324319 C0.618165464,0.686250341 0.570719262,0.766088802 0.5962638,0.792701622 C0.621808337,0.819314443 0.702062611,0.936392127 0.72029919,0.952355138 C0.738557982,0.968318149 0.760437434,1.00555737 0.789624845,1.00024417 C0.818812256,0.994930969 0.85164254,0.989594362 0.877187078,0.98428116 C0.978543361,0.962794292 1.02423476,0.951629547 0.894135323,0.956006501 C0.923344947,0.912517829 0.984518562,0.899691246 1.01106267,0.892037427 C0.987672757,0.854985452 1.074191,0.776738611 1.074191,0.766088802 L1.074191,0.766088802 Z" id="Path"></path>
                <path d="M1.074191,3.6660888 C0.995113992,3.56911702 1.07325806,3.39225997 1.14416082,3.46769807 C1.10702128,3.39532618 1.16775064,3.33802786 1.19529432,3.37428402 C1.18247762,3.31537068 1.24071917,3.27632918 1.26928463,3.33070173 C1.25902239,3.2650006 1.34538514,3.22654425 1.36777548,3.29835439 C1.36928594,3.23377676 1.45369398,3.18279811 1.47233038,3.27735906 C1.48876774,3.20456585 1.58286049,3.19503954 1.59065713,3.29844802 C1.61811195,3.23829415 1.6886593,3.24269451 1.69276864,3.33009317 C1.7232666,3.28899193 1.80207705,3.35050335 1.78866061,3.42322634 C1.83732851,3.4121084 1.89681396,3.5159616 1.837484,3.5925232 C1.94272749,3.53335239 1.96760565,3.72516599 1.90363324,3.81226036 C1.93673008,3.83353657 1.93963994,3.81474142 1.96882735,3.83070443 C1.99801476,3.84666744 2.05094748,3.87295257 2.09937104,3.88428116 C2.14315216,3.88428116 2.30368292,3.87896796 2.3365132,3.87363135 C2.36934349,3.86831815 2.41423524,3.85024858 2.46785655,3.83105552 C2.52403232,3.81188586 2.60524174,3.81116027 2.67936533,3.79220127 C2.73809555,3.78524964 4.3868733,3.82040571 4.43429729,3.81509251 C4.48174349,3.80977931 4.55095808,3.76172643 4.54731521,3.70318759 C4.54365012,3.64464875 4.48902924,3.60221335 4.43429729,3.59690015 C4.37958755,3.59158695 4.09866427,3.59158695 4.0475752,3.60221335 C3.99650833,3.61286316 3.92353981,3.63947598 3.88706665,3.67673861 C3.86951866,3.68862895 3.84055338,3.73368583 3.8159862,3.76329464 C3.79299611,3.78372823 3.72809077,3.78674763 3.72809077,3.76013481 C3.72809077,3.74272062 3.72264868,3.76345849 3.7067,3.77022287 C3.68599782,3.78386867 3.59261587,3.78761366 3.59674742,3.77022287 C3.60405538,3.75051487 3.59625875,3.74431224 3.57171378,3.76488626 C3.55345499,3.78084928 3.42442175,3.78674763 3.40072086,3.77092506 C3.41493695,3.74590386 3.41504802,3.74733163 3.37626474,3.76790566 C3.35171977,3.77928106 3.25005251,3.78817541 3.24274456,3.76631404 C3.2417672,3.7490871 3.23026105,3.75753673 3.21591168,3.76242862 C3.10069471,3.79419079 3.08963282,3.75741969 3.1078694,3.74145668 C3.12612819,3.72549367 3.1537385,3.63416278 3.12455109,3.63947598 C3.09536368,3.64478918 2.91295347,3.68205181 2.85093577,3.69270162 C2.78891808,3.70332803 2.34015608,3.69270162 2.27813838,3.68736501 C2.21612069,3.68205181 2.14681724,3.62054039 2.14315216,3.53304811 C2.13666607,3.39268128 2.2453081,3.35740817 2.31096867,3.33613196 C2.37665145,3.31483234 2.54082508,3.28290632 2.60648565,3.28290632 C2.67216843,3.28290632 2.85946542,3.30738918 2.9105545,3.28611297 C2.96162136,3.26481335 3.11673224,3.20536166 3.16057999,3.2009613 C3.22524099,3.19461823 3.41047221,3.21769672 3.49874525,3.32955483 C3.45278729,3.35155663 3.43117439,3.36450024 3.48332968,3.34465181 C3.53077588,3.334002 3.73435474,3.28929621 3.78177873,3.27759312 C3.94595236,3.27012655 3.90290426,3.29676278 3.82262778,3.31803899 C3.79583933,3.40801232 3.55458783,3.53360985 3.47797643,3.54959627 C3.40136503,3.56555928 3.23876849,3.5538562 3.20242861,3.54688116 C3.16593324,3.54397879 2.9933188,3.53489719 2.93045703,3.49199368 C2.82892304,3.41941113 2.64131507,3.37170935 2.55906166,3.37337118 C2.48211707,3.37500962 2.26261175,3.39930523 2.26354468,3.47982247 C2.26241183,3.62121917 2.46785655,3.62882617 2.55541879,3.62351297 C2.64298102,3.61817636 2.8618866,3.60754996 2.9239043,3.58093714 C2.98592199,3.55432432 3.12006414,3.547794 3.19303266,3.547794 C3.26600119,3.547794 3.37264408,3.56497413 3.40547437,3.55963752 C3.43830465,3.55432432 3.51493827,3.5531072 3.55141142,3.52649438 C3.58788458,3.49988156 3.66722814,3.47207502 3.74748241,3.47207502 C3.82773668,3.47207502 4.42336867,3.44789644 4.50362294,3.45320965 C4.61981727,3.45236702 4.70189298,3.58618012 4.70329238,3.69998094 C4.70395876,3.75320658 4.67923609,3.83185133 4.65822293,3.84402254 C4.69427404,3.84753347 4.78447958,3.85825349 4.81424452,3.86478382 C4.87013153,3.8764635 4.96071468,3.94136882 4.9711102,4.00049282 C4.92866184,3.97334165 4.86015805,3.93231063 4.79840691,3.92781664 C4.78632323,3.92795708 3.48617289,3.92552284 3.38399474,3.92617821 C3.66180825,3.96079594 3.87413889,4.18626762 3.92718268,4.31535268 C3.97460667,4.39516773 4.09135631,4.36324171 4.13513743,4.3525919 C4.17891855,4.3419655 4.23000762,4.29405306 4.26648078,4.25681383 C4.30297615,4.2195512 4.36001821,4.21009511 4.38576267,4.2195512 C4.44247154,4.214238 4.45255608,4.27809005 4.43065441,4.31003947 C4.40877496,4.3419655 4.43429729,4.32883463 4.49267211,4.32883463 C4.55102472,4.32883463 4.60249141,4.35174928 4.636921,4.40008303 C4.60409072,4.43200905 4.5875423,4.40581754 4.63496629,4.41115415 C4.68239028,4.41646735 4.73965447,4.50812593 4.70429195,4.53398975 C4.67337195,4.55014001 4.6641537,4.54419484 4.70429195,4.54950804 C4.76411059,4.55484465 4.78041467,4.59566502 4.78818909,4.66822416 C4.73754427,4.67800794 4.76266677,4.66127253 4.78818909,4.68788535 C4.81373363,4.71449817 4.85093981,4.83232485 4.75900168,4.83688905 C4.7261714,4.82092604 4.72677114,4.81783643 4.73376812,4.85404578 C4.74025421,4.89130841 4.72252852,4.98057956 4.67143945,4.98057956 C4.60066997,4.99495095 4.53645323,4.95396674 4.52916748,4.90607771 C4.52185952,4.85818867 4.52281466,4.99850869 4.42250237,5.02065093 C4.32776546,5.04286339 4.27743161,4.98591617 4.27012365,4.95930335 C4.26283791,4.93269053 4.26648078,4.95396674 4.23000762,4.94865354 C4.19351225,4.94334034 4.1475543,4.94284881 4.12785168,4.87946489 C4.12785168,4.84222566 4.13495973,4.79311951 4.19995392,4.78649556 C4.22914133,4.78115895 4.23729337,4.74111099 4.21541392,4.73577438 C4.19351225,4.73046118 4.21174883,4.65062272 4.25919503,4.67192234 C4.30661902,4.69319855 4.41606071,4.69853516 4.44160525,4.72512457 C4.46714978,4.75173739 4.47443553,4.70384836 4.43429729,4.66127253 C4.39418126,4.6186967 4.14973114,4.53354503 4.08407057,4.56547106 C3.93115874,4.64666707 3.67544681,4.63465971 3.6316657,4.6240099 C3.58788458,4.61338349 3.46145022,4.64240715 3.40183149,4.44839337 C3.35347457,4.25028351 3.16968718,4.15237548 3.08579003,4.14172567 C2.67183524,4.10067124 2.69433665,4.13224617 2.96277642,4.14565791 C2.96077728,4.18263967 2.95104815,4.25835864 2.99456271,4.26945317 C3.06753124,4.25882676 3.21942128,4.22488781 3.25589444,4.25681383 C3.29238981,4.28873985 3.32886297,4.31535268 3.32157722,4.38985453 C3.31426926,4.46435638 3.32522009,4.44308017 3.29238981,4.47500619 C3.25953731,4.50693221 3.27413102,4.57080766 3.32522009,4.59208388 C3.37628696,4.61338349 3.39818862,4.63999631 3.43101891,4.67192234 C3.46384919,4.70384836 3.4164252,4.7677004 3.38723779,4.74642419 C3.35805038,4.72512457 3.35805038,4.72512457 3.3544075,4.7677004 C3.35074242,4.81027623 3.31449139,4.89086369 3.25282909,4.89676205 C3.23987912,4.89161269 3.24347757,4.86958748 3.24494361,4.85285207 C3.24860869,4.81561284 3.23261559,4.89912607 3.21355714,4.92229818 C3.20140683,4.93793351 3.09811805,4.96854879 3.06895285,4.95258577 C3.08196946,4.91925538 3.07443937,4.93285437 3.04889483,4.94881738 C3.02397225,4.95930335 2.88951913,4.97898794 2.94942662,4.91139091 C2.96499768,4.88676761 2.92805806,4.94217003 2.90771128,4.95181337 C2.89058534,4.96304833 2.81079753,4.96995316 2.81079753,4.93800373 C2.78547512,4.96148012 2.72519001,4.96148012 2.71594955,4.94334034 C2.69771297,4.92204072 2.69598038,4.95930335 2.6631501,4.96461655 C2.63031981,4.96995316 2.55906166,4.95930335 2.55541879,4.91672752 C2.55177591,4.87415168 2.56270453,4.9007645 2.5225885,4.90607771 C2.42487509,4.97437692 2.37665145,4.87946489 2.37665145,4.84753886 C2.37665145,4.81561284 2.37300857,4.77835021 2.38393719,4.757074 C2.39488803,4.73577438 2.31596651,4.72936109 2.34015608,4.68744063 C2.36736656,4.63620451 2.39593202,4.5986142 2.44961997,4.60804689 C2.47516451,4.61338349 2.47149943,4.59742048 2.46057081,4.57612086 C2.44961997,4.55484465 2.48975822,4.54419484 2.53718221,4.56547106 C2.5846062,4.58677067 2.61743648,4.63999631 2.63203019,4.68788535 C2.64662389,4.73577438 2.75973066,4.69853516 2.80715465,4.70384836 C2.85457864,4.70916156 2.85822152,4.6240099 2.82903411,4.59742048 C2.79984669,4.57080766 2.71959242,4.47500619 2.68676214,4.44308017 C2.65393185,4.41115415 2.6758113,4.29938966 2.70499872,4.27277684 C2.87490321,4.15174352 2.78161012,4.11312333 2.71959242,4.12377314 C2.65757473,4.13439954 2.49819902,4.20162207 2.44710995,4.26016092 C2.39604308,4.31869976 1.99921424,4.60561264 1.96271887,4.63756207 C1.92624571,4.66948809 1.87317971,4.67723554 1.85130026,4.63999631 C1.8293986,4.60273369 1.81480489,4.62934651 1.81844776,4.68254874 C1.84743526,4.88356097 1.67615358,4.94762367 1.64612209,4.9450958 C1.62522,4.94280199 1.59527735,4.93056056 1.57370888,4.91162497 C1.55240696,5.0239512 1.45826978,5.03513935 1.37319536,5.02404483 C1.37190703,5.01077352 1.3890774,4.98600979 1.37970367,4.99548929 C1.35158246,5.03408607 1.26517529,5.03003681 1.19098507,5.02416186 C1.18605386,5.00068546 1.21657403,4.97222355 1.20198032,4.98818657 C1.17707995,5.03757359 1.13425398,5.02872606 1.06486169,5.02348308 C1.06406203,5.01306733 1.09702559,4.97826235 1.08165444,4.99909384 C1.05126755,5.03408607 0.988028159,5.02313198 0.938916009,5.02399801 C0.933096296,5.01615694 0.964305058,4.96115243 0.935761813,4.99750222 C0.90848469,5.02853881 0.850709609,5.03371158 0.795488982,5.02537898 C0.785670994,4.99923428 0.806972918,4.99895341 0.812837055,4.98254568 C0.827430761,4.95593286 0.805551309,4.98254568 0.78731473,4.98254568 C0.769055938,4.98254568 0.743533613,4.98785888 0.732582781,4.96124606 C0.721631949,4.93465664 0.727918126,4.98785888 0.717322696,5.00237071 C0.706727266,5.01491642 0.694776865,5.04445501 0.658281495,5.05508141 C0.621808337,5.06573122 0.526938145,5.07638103 0.51234444,5.028492 C0.492686252,5.00644338 0.483157029,4.95930335 0.497750734,4.93269053 C0.51234444,4.90607771 0.428291804,4.98402027 0.391951922,4.99122937 C0.285109116,5.0129737 0.271559405,4.83688905 0.318983395,4.82092604 C0.366429597,4.80496303 0.359121638,4.77835021 0.3335771,4.757074 C0.308054775,4.73577438 0.29346107,4.65062272 0.326291354,4.6240099 C0.359121638,4.59742048 0.435111085,4.58265119 0.483157029,4.61338349 C0.511278233,4.63372346 0.571474492,4.70352067 0.559790642,4.65062272 C0.551660815,4.6179477 0.572451848,4.57635493 0.595752909,4.55849602 C0.615966413,4.53885823 0.678184022,4.53387272 0.694776865,4.57612086 C0.733226948,4.6740523 0.760437434,4.71623022 0.807861423,4.71449817 C0.90890673,4.68538089 1.04544784,4.65242499 1.08558608,4.65242499 C1.13707498,4.63952819 1.40969073,4.61134716 1.40969073,4.58473434 C1.24618348,4.64437327 1.18010087,4.56717971 1.16184208,4.57251631 C1.1436055,4.57782952 1.09869154,4.55521915 1.09869154,4.54037964 C1.09869154,4.50845361 1.13987378,4.51226882 1.08149895,4.52289522 C1.04653626,4.51987583 1.01541635,4.51816718 0.986006809,4.47973424 C0.981186666,4.46009646 1.02465681,4.39259305 1.04042778,4.33585648 C1.00275514,4.32511305 0.919457735,4.39659551 0.892158398,4.45960493 C0.873033314,4.43542635 0.865281102,4.45740475 0.796932804,4.47500619 C0.764680048,4.4898223 0.712213789,4.4845091 0.683026378,4.46854609 C0.653861179,4.45255967 0.5395105,4.36125218 0.594819978,4.34950228 C0.580248485,4.3419889 0.563522366,4.33768217 0.552504896,4.33447552 C0.512366652,4.31642936 0.474427461,4.2813201 0.486089097,4.27170016 C0.47593792,4.25571374 0.497728522,4.25576055 0.481646569,4.25255391 C0.459767117,4.24724071 0.405857036,4.20581178 0.419695512,4.18980196 C0.405879249,4.18018202 0.373071177,4.1653425 0.359166063,4.15787593 C0.333621526,4.14191292 0.308054775,4.08651051 0.304389689,4.05989769 C0.280866502,4.06228512 0.230643719,4.01535574 0.253322826,4.00135884 C0.214983807,3.97135213 0.182353436,3.9219651 0.207897974,3.90600209 C0.185507632,3.88741759 0.169892144,3.85347863 0.185463206,3.86618819 C0.162206571,3.83618147 0.169403466,3.8044427 0.187662258,3.8044427 C0.205898836,3.8044427 0.198590877,3.71931444 0.165760593,3.71931444 C0.132930309,3.71931444 0.0801308599,3.74616132 0.0417252026,3.71931444 C0.0101388263,3.69384852 -0.0166496195,3.58093714 0.0125377915,3.53304811 C0.0417252026,3.48513567 0.100100025,3.43191003 0.129287436,3.43724663 C0.158474847,3.44255984 0.143881141,3.45320965 0.136573182,3.40532061 C0.129287436,3.35740817 0.177777632,3.32143288 0.20954171,3.30951914 C0.24805843,3.29095804 0.322648481,3.30420594 0.344527933,3.32548215 C0.366429597,3.34678177 0.373715344,3.34678177 0.373715344,3.30951914 C0.373715344,3.28335104 0.401903186,3.26970524 0.426981258,3.26284723 C0.468741024,3.25245489 0.50141582,3.26495378 0.516009526,3.28290632 C0.53866642,3.31714955 0.552482683,3.35740817 0.523295272,3.3893576 C0.494107861,3.42128362 0.519430272,3.39420268 0.566876475,3.38357628 C0.597418857,3.37292647 0.652528421,3.38664249 0.661924368,3.42128362 C0.674585574,3.45852285 0.683826033,3.5223983 0.650995748,3.55432432 C0.618165464,3.58625034 0.570719262,3.6660888 0.5962638,3.69270162 C0.621808337,3.71931444 0.702062611,3.83639213 0.72029919,3.85235514 C0.738557982,3.86831815 0.760437434,3.90555737 0.789624845,3.90024417 C0.818812256,3.89493097 0.85164254,3.88959436 0.877187078,3.88428116 C0.978543361,3.86279429 1.02423476,3.85162955 0.894135323,3.8560065 C0.923344947,3.81251783 0.984518562,3.79969125 1.01106267,3.79203743 C0.987672757,3.75498545 1.074191,3.67673861 1.074191,3.6660888 L1.074191,3.6660888 Z" id="Path"></path>
            </g>
            <path d="M21.8095466,3.15672839 C21.4754356,3.09945671 20.8511272,3.13027055 20.4642363,3.22719862 C19.9410378,3.35936942 19.6904544,3.35057241 19.0837286,3.16552843 C19.0368403,3.15084651 19.165804,3.40638095 19.4706196,3.93213175 C19.2771744,3.98500795 18.9694233,4.10835136 19.1760633,4.17884893 C19.4750079,4.28016933 19.7915658,4.26697389 20.4378463,4.11274986 C20.8951001,4.00703086 21.0885452,3.98057907 21.374295,3.99380495 C21.5721589,3.99820956 21.7480209,4.02465525 21.7656041,4.04227963 C21.7875747,4.05989794 21.6820461,4.18324731 21.5413806,4.31541804 C21.3259329,4.50926209 21.2467937,4.55333825 21.1193236,4.55773663 C21.0313776,4.55773663 20.8951001,4.5709506 20.8203486,4.58416427 C20.6884598,4.61062199 20.6840717,4.61941298 20.6840717,4.86613025 L20.6840717,5.12167465 L19.664065,6.08212214 C19.1013121,6.61080842 18.5737557,7.07782139 18.4946161,7.12626554 C18.4154766,7.17474341 18.3231428,7.53160852 18.4154766,7.56685723 C18.4726142,7.58888012 18.4374472,7.66377926 18.2396143,7.93691779 C17.9538348,8.33343303 17.7339993,8.75639718 17.5625558,9.22780883 L17.4394431,9.55822199 L17.3691106,9.31590341 C17.2548047,8.92821835 17.1668584,8.36428336 17.1668584,7.99419242 C17.1668584,7.65495182 17.1668584,7.65495182 17.3954705,7.32893703 C17.6724737,6.93242452 18.3231425,6.25394331 18.6836432,5.98080478 C18.8287271,5.87065663 19.0749519,5.72085865 19.2332009,5.64596255 C19.5849258,5.48293845 19.6728715,5.40804235 19.6728715,5.28469875 C19.6728715,5.13929916 19.5673423,5.06880174 19.4002868,5.10405045 C19.3035644,5.12166858 18.9122851,5.06000468 18.244003,4.92340488 C17.6900565,4.81328741 17.228415,4.71633501 17.2240267,4.71633501 C17.2240267,4.71193055 17.2679998,4.52249095 17.3295258,4.2933982 C17.3998886,4.02465829 17.4746095,3.83521277 17.5449729,3.7603167 C17.632899,3.66631589 17.3778963,3.67512303 16.779965,3.78673811 C16.6216865,3.80435642 16.2436024,3.88366011 15.9446277,3.96738356 C15.337932,4.13480617 14.863095,4.16122746 14.5509556,4.05107967 C14.4542328,4.0158309 14.3707046,3.98501099 14.3662865,3.98501099 C14.3575098,3.98501099 14.353123,4.03345529 14.353123,4.09515586 C14.353123,4.28460113 14.4630105,4.68990463 14.2827601,4.67669065 C14.1025095,4.66347698 13.9574256,4.66347698 13.9574256,4.67669065 C13.9574256,4.76921126 14.1728426,5.01592852 14.3135382,5.08642898 C14.6212892,5.24505166 15.263182,5.18774939 15.9754072,4.93663374 C16.3315195,4.81329045 16.7931617,4.7780387 16.762383,4.87496073 C16.7447992,4.92783698 16.1249096,5.39481956 15.0609598,6.15702432 C14.5245668,6.5403107 14.4410392,6.64606017 14.5245668,6.83110716 C14.56854,6.93242756 14.5553445,6.97207495 14.423456,7.19237065 C14.1376765,7.67697774 13.8695096,8.50968326 13.8695096,8.93262007 C13.8695096,9.14408528 13.8563157,9.16171283 13.5661466,9.47013045 C12.9726153,10.0957357 11.5379674,12.483505 11.9336649,12.6861762 C12.1625902,12.8353225 12.3342842,12.9471823 12.4487469,13.0217555 C12.4635569,13.0314043 12.4491327,13.085536 12.4054744,13.1841505 C12.194446,13.4132433 12.1504728,13.5938581 12.2603904,13.7480551 C12.31314,13.8185525 12.3790847,13.8317783 12.6252794,13.8317783 C12.889088,13.8317783 12.9770034,13.8538012 13.2803667,14.0035995 C13.5793414,14.1533948 13.6936476,14.2459181 14.1332878,14.7041039 C15.4917939,16.1271657 15.8259349,16.4223271 16.6392709,16.9245918 C17.1097192,17.2153549 17.9670284,17.638322 18.3890854,17.7925157 C19.7607866,18.2859502 21.2731827,18.3784732 22.702051,18.0568574 C23.3615269,17.9070622 23.8451406,17.735241 24.4782263,17.4180263 C24.8299505,17.2374081 25.0014241,17.1757075 25.0102005,17.2109565 C25.0233945,17.2418068 25.0629504,17.3695789 25.1025349,17.4929224 C25.177256,17.735241 25.3970912,18.105335 25.4894256,18.1405533 C25.5202039,18.1493929 26.2236223,18.0524588 27.0589602,17.9246867 C27.8942976,17.7969143 28.5889396,17.6911953 28.6065231,17.6867665 C28.690051,17.6823617 28.7911921,17.2021594 28.7911921,16.8276698 C28.7911921,16.44435 28.782385,16.4179287 28.5977464,16.0566649 C28.360328,15.5984794 27.9998277,15.2195914 27.6524912,15.060969 L27.4062967,14.9464225 L27.5117953,14.8098531 C27.9998277,14.1621918 28.5757447,13.2325947 28.7999685,12.7347617 L28.927469,12.400679 L29.1560802,12.3962442 C29.2791929,12.3962442 29.3934992,12.3786257 29.406694,12.3565937 C29.4198879,12.3389753 29.4023041,12.2016406 29.3671098,11.9990025 C29.3319425,11.7963314 29.3011645,11.6245132 29.3011645,11.6156828 C29.3011645,11.6112783 29.3803037,11.6068735 29.4770268,11.6068735 L29.652889,11.6068735 L29.652889,10.606779 L30.4134755,9.15729592 C30.8267561,8.35986979 30.7388401,7.3377189 30.7783949,7.43467131 C30.7915888,7.46988964 30.7564242,7.56684204 30.7080618,7.65493663 C30.6289226,7.79153612 30.5937562,7.80913025 30.4970331,7.79153612 C30.4310887,7.77832245 29.9298624,7.69458402 29.3803037,7.60209075 L28.3867183,7.43467131 L27.8986859,8.3157906 C27.6305199,8.80042777 27.4150725,9.20134169 27.4194913,9.21016913 C27.428268,9.21457389 27.9382707,9.2542149 28.5537732,9.29386533 C29.1692757,9.33351273 29.6836665,9.37758888 29.6924736,9.38638594 C29.7012503,9.3907904 29.551778,9.66835465 29.3627211,9.9987985 L29.0198037,10.5935531 L28.008605,10.5935531 C27.1293243,10.5935531 26.9974051,10.6023927 26.9490439,10.6640505 C26.9051005,10.7257239 26.8830992,10.6596461 26.7995716,10.2807645 C26.6632941,9.64193339 26.5313749,8.80042777 26.5313749,8.58013511 C26.5313749,8.36426817 26.7248204,7.91927809 27.0765443,7.32012478 C27.5997425,6.43014463 28.3471341,5.56664954 28.6461094,5.5093749 C28.9011106,5.46090037 29.0813612,5.32433095 29.0813612,5.1789344 C29.0813612,5.02913612 29.0109981,4.9586384 28.8351361,4.93661551 C28.7164419,4.92340184 27.1644904,4.31100751 27.0941278,4.24933723 C27.050185,4.21408852 26.7687929,3.27566419 26.8523211,3.36378614 C26.9103802,3.43324786 26.8510452,3.41785918 26.6193209,3.38140445 C26.1752617,3.32853127 25.7532053,3.35055419 25.357538,3.45187468 C24.9178677,3.56642106 24.5749496,3.57084994 24.188059,3.46071422 C24.0210038,3.41666841 23.8935027,3.39904403 23.8935027,3.42106694 C23.8935027,3.52238741 24.0825301,3.79555638 24.2144496,3.883651 C24.2935885,3.93652418 24.6848678,4.49166189 25.2476204,4.35066371 C25.5685666,4.2713662 25.8455394,4.23611749 26.122513,4.2317188 C26.4698486,4.22731435 26.6369041,4.25814645 26.5709597,4.3066149 C25.9818171,4.77359749 23.9550591,6.31120579 23.7264168,6.46540245 C23.374723,6.70332265 23.321943,6.77382037 23.321943,6.98089025 C23.321943,7.09543647 23.198861,7.84881409 23.1153027,8.0338307 L22.9614424,8.36867293 C23.354184,6.70918736 23.6296945,5.80601268 23.7879738,5.65914888 C23.8890846,5.56665561 23.9858067,5.46530483 24.0034203,5.43888356 C24.038587,5.37721025 23.9066982,5.21858756 23.8187515,5.21858756 C23.7528068,5.21858756 22.1788543,4.12596967 22.1788543,4.08192086 C22.1788543,3.95854707 22.4162729,3.32414492 22.4866057,3.25804281 C22.5349666,3.21399704 21.9854098,3.1919802 21.8095466,3.15672839 Z M23.7150788,5.37721632 C23.7063021,5.36837703 21.9942156,4.61501156 22.0513539,4.42556589 L22.1041335,4.24934939 C23.1927445,5.0159426 23.7297263,5.39189825 23.7150788,5.37721632 Z M18.0021963,5.02474959 C18.9254502,5.21419526 18.9430327,5.21859364 18.7715898,5.26706847 C18.7012264,5.28909136 18.2571981,5.41243769 17.7911676,5.54460842 L16.9382471,5.78252863 L16.9690248,5.66358371 C17.0657473,5.25824103 17.1800532,4.86612721 17.202025,4.86612721 C17.2196392,4.86612721 17.5757506,4.93662766 18.0021963,5.02474959 Z M16.5513562,5.59748164 L16.4634399,5.91469966 L16.1204924,6.00722301 C15.9358537,6.05566746 15.6456855,6.13939374 15.4785996,6.18786858 C15.3115438,6.23191739 15.1884317,6.26273733 15.1972388,6.24954159 C15.2324046,6.21869156 16.6568857,5.17454787 16.6700502,5.17454787 C16.6744674,5.17454787 16.6744674,5.20097551 16.6612735,5.22742108 C16.6524664,5.25824103 16.6041055,5.42566351 16.5513562,5.59748164 Z M22.8866915,8.56694878 L22.7767736,8.92821531 C22.6448845,9.37760103 22.5525808,9.82256073 22.4822173,10.3688709 C22.4382445,10.7213376 22.4030781,10.822658 22.2536055,11.0693753 C22.1612711,11.2279977 22.0601603,11.4130447 22.0381885,11.483512 C21.9212672,11.7533607 21.9088883,11.5614063 21.8886864,10.9460317 C21.8579078,10.285175 21.9150773,9.61549085 22.0513539,8.98548721 C22.1436879,8.56694878 22.7108289,8.20568528 22.7723856,8.33342999 L22.8866915,8.56694878 Z M17.2767759,9.49215333 C17.3647223,9.75209946 17.3778873,9.84458969 17.3427203,9.99438797 C17.3207497,10.091337 17.2811643,10.3908999 17.2548047,10.650843 C17.1712768,11.4923455 17.6900565,13.0034718 18.0505578,13.7480551 C18.1604754,13.963919 17.0525527,12.7832062 16.8415244,12.2765458 C16.709635,11.9637569 16.7008285,11.9152823 16.7931629,11.9152823 C16.8503306,11.9152823 16.8591073,11.8227587 16.8591073,11.3645732 L16.8591073,10.8138671 L16.7272182,10.8138671 C16.6129125,10.8138671 16.590941,10.7918442 16.5425494,10.6244217 C16.5073827,10.5142735 16.4854112,10.2014548 16.4854112,9.84458969 C16.4854112,9.19256316 16.5469681,8.9193909 16.8283286,8.28938726 C16.993826,7.87001065 17.0392267,7.8988866 17.0305809,8.33786513 C17.0349677,8.59337916 17.1448868,9.10003951 17.2767759,9.49215333 Z M26.7687929,10.7962395 C26.8259612,11.0209339 26.8259612,11.0605843 26.7468223,11.2896771 C26.6984617,11.4262465 26.6061273,11.7478626 26.4918211,11.8756319 C26.2851805,12.1047277 26.280793,12.1091565 26.2280432,12.0122044 C26.0170145,11.6112904 25.9378753,10.5935714 26.0697641,9.90186432 C26.126902,9.59787242 26.3511252,8.78722017 26.3775149,8.78722017 C26.3862916,8.78722017 26.4126816,8.95024427 26.4434596,9.14851435 C26.500627,9.55382665 26.6720705,10.4261486 26.7687929,10.7962395 Z M14.1332878,10.3688709 L13.8475092,9.3952465 L13.7332027,9.47013045 C13.7390741,9.52594594 13.8724358,9.82552609 14.1332878,10.3688709 Z M16.4194668,10.7742166 C16.4194668,10.7962395 16.2392167,10.8138671 16.0193813,10.8138671 L15.6192952,10.8138671 L14.5245668,10.8304112 C14.5421506,10.7643426 16.2620849,10.1371871 16.2972513,10.0094451 L15.8083539,10.1089342 L14.5245668,10.3688709 C14.6125128,10.4349396 16.1864377,10.434976 16.269996,10.5406951 C16.3535224,10.650843 16.4194668,10.7565924 16.4194668,10.7742166 Z M14.3091513,11.4658936 L14.5949309,11.9152823 L14.6037076,12.3029975 C14.6080944,12.514466 14.6520682,12.8449096 14.70043,13.0343553 C14.788376,13.4088142 14.7707931,13.5894598 14.6300966,13.5894598 C14.5905121,13.5894598 14.3575119,13.4705149 14.1113172,13.3251183 C13.8695105,13.1797214 13.6100906,13.0431523 13.5353691,13.0167277 L13.4034803,12.9682532 L13.7332027,11.7610884 C13.9134536,11.095833 14.0592901,10.5031284 14.0724846,10.5031284 C14.0900684,10.5031284 14.1596787,10.6552413 14.212428,10.7830137 C14.2915681,10.9680607 14.3091513,11.1002314 14.3091513,11.4658936 Z M22.5569685,12.2809746 C22.6580796,12.7920333 22.8427484,13.2722451 23.1284976,13.7745068 C23.2648051,14.0123966 23.3703045,14.215065 23.3615281,14.2238952 C23.317555,14.2635426 22.8691077,14.3340403 22.8295532,14.3119871 C22.7679972,14.2723397 22.5218022,13.739255 22.3547166,13.2810722 C22.1656592,12.7655817 21.9942156,12.0518818 22.0249937,11.9196807 C22.0381876,11.8580104 22.1349118,11.6377451 22.2360223,11.4306753 L22.4162729,11.0561856 L22.4514387,11.4879469 C22.4690225,11.7258367 22.5129957,12.0827018 22.5569685,12.2809746 Z M25.8499274,12.135578 C26.021402,12.223703 26.0697632,12.2677488 26.0609564,12.3426479 C26.0521797,12.4219424 26.0741503,12.4395669 26.1928452,12.4527958 C26.4258758,12.4748187 26.386291,12.5805681 26.021402,12.8977524 C25.8323445,13.0607765 25.6608706,13.1929473 25.634511,13.1929473 C25.5334002,13.1929473 25.1508961,12.6870072 25.0102005,12.3962442 C25.4176108,12.1461064 25.6975197,12.0592177 25.8499274,12.135578 Z M25.5113983,13.3030954 L25.3970924,13.3823899 C25.2432317,13.4881394 24.2320321,13.985972 24.2100308,13.9683478 C24.2012541,13.9595385 24.3111717,13.5630382 24.4474488,13.0871981 L24.6617371,12.7788075 C24.7452644,12.9373998 25.115731,12.9065799 25.2563968,13.0475507 L25.5113983,13.3030954 Z M23.7616136,13.3339454 C23.6341131,13.7260292 23.5153885,14.0696985 23.4978056,14.0917214 C23.4406674,14.1489961 23.3966942,13.8317783 23.4274725,13.5982872 C23.4802227,13.2414221 23.8846962,12.9374029 23.7616136,13.3339454 Z M18.7056451,13.3030954 C18.6045039,13.615881 18.5033928,13.8934517 18.4858097,13.9110762 C18.4682259,13.9330991 18.3758924,13.9110762 18.2791693,13.8626287 C18.1340851,13.7877326 18.0989184,13.7436564 18.0505578,13.5498124 C17.9978082,13.3339454 17.9978082,13.3163212 18.1077252,13.1268756 C18.248391,12.8889554 18.4550316,12.7259343 18.6880616,12.6686597 C18.9254502,12.6113881 18.938645,12.6113881 18.9166735,12.6730641 C18.9034795,12.7039114 18.8111436,12.9858774 18.7056451,13.3030954 Z M19.8311503,13.1224468 C19.8839002,13.3515396 19.9938181,13.642333 20.1432901,13.9375278 L20.3719019,14.391315 L20.1432901,14.3648569 C20.0157893,14.3516433 19.7124263,14.2943565 19.4706196,14.245912 L19.0221726,14.1533887 L19.1277018,13.8141481 C19.1848397,13.6291041 19.2859809,13.3074877 19.3519253,13.0916208 C19.4662315,12.708304 19.4838144,12.6862781 19.659677,12.7347557 C19.7388162,12.7567846 19.7695946,12.8228563 19.8311503,13.1224468 Z M20.6312915,13.1048223 L21.0885452,13.3251183 L20.886293,13.5542111 C20.7719877,13.6819831 20.648875,13.8758272 20.6093199,13.985972 C20.5697351,14.0961201 20.5257923,14.2018693 20.5082095,14.2194664 C20.4290699,14.3075884 19.9366498,13.1620972 19.9366498,12.893354 C19.9366498,12.8008304 20.0993172,12.8537067 20.6312915,13.1048223 Z M22.5965233,14.3868859 C22.5745526,14.3868859 22.323938,14.4045043 22.0469649,14.4265333 C21.7699921,14.4441517 21.339128,14.4529913 21.0929333,14.439747 L20.6444863,14.4133196 L20.6708772,14.2767502 C20.7104322,14.0652516 20.8467395,13.8185343 21.044573,13.607066 C21.1412954,13.5013166 21.2292117,13.413225 21.2380182,13.413225 C21.2512121,13.413225 21.3918785,13.4925195 21.554576,13.5938399 C22.0381885,13.8890533 22.6844693,14.3780891 22.5965233,14.3868859 Z" id="boat" stroke="#000000" stroke-width="0.5" fill="#FFCF00" fill-rule="nonzero"></path>
            <g id="water" transform="translate(8.899796, 15.611174)">
                <path d="M23.6940378,1.48731461 L23.6940378,6.85403572 L0.51430338,6.85403572 L0.51430338,1.15776696 C0.537151987,1.24866225 0.892036038,1.36072372 1.14327199,1.45164635 C1.60001629,1.61074904 1.63430318,1.61074904 2.07963897,1.31529294 C2.6848491,0.917538203 3.06167189,0.928911165 3.74680414,1.36072372 C4.77453244,2.00847339 5.0485851,2.01984635 5.35689457,1.45164635 C5.58528222,1.00846387 6.09913133,1.00846387 6.97839411,1.46303754 C7.3552172,1.65619501 7.74347887,1.80392473 7.85765659,1.80392473 C7.96042703,1.80392473 8.21166206,1.62210681 8.40579351,1.40620038 C8.83972019,0.90621081 9.09092546,0.940299013 10.2099844,1.5880183 C11.1120949,2.1221298 11.4204046,2.1562183 11.5117657,1.71303248 C11.6373835,1.15620544 11.740153,1.06528281 12.2654109,1.06528281 C12.5851593,1.07664362 13.0647519,1.21300949 13.5557831,1.44029192 C13.9782715,1.64485273 14.4121985,1.80392473 14.4921203,1.80392473 C14.583481,1.80392473 14.6862514,1.64485273 14.7319471,1.45166154 C14.7662039,1.2584737 14.9146388,1.03119461 15.0402566,0.940299013 C15.3485661,0.747108127 15.6682837,0.826661139 16.6731646,1.33802367 C17.6780453,1.83801324 17.9635374,1.79258215 17.9635374,1.12211724 C17.9635374,0.917553392 18.1804856,0.781196633 18.511643,0.781196633 C18.6144128,0.781196633 19.0369307,0.985763519 19.4594191,1.24710073 C20.3729384,1.79258215 20.6241744,1.79258215 20.7040962,1.23577061 C20.7840174,0.667570608 21.1608709,0.656197646 22.1429035,1.16759056 C22.8737056,1.56531491 23.6940378,1.72596362 23.6940378,1.48734195 L23.6940378,1.48731461 Z" id="Path" fill="#0091C8" fill-rule="nonzero"></path>
                <path d="M0.60000038,1.35232972 C0.622788228,1.44327666 0.861962506,1.5796638 1.11251522,1.67057732 C1.56810448,1.82971949 1.60227197,1.82971949 2.04645213,1.53419018 C2.65009101,1.13637165 3.02593587,1.14774765 3.70928878,1.5796638 C4.73435005,2.22753499 5.00769091,2.23891068 5.31520048,1.67057732 C5.54299542,1.2272882 6.05551025,1.2272882 6.93249091,1.68196851 C7.30836585,1.87520496 7.69558914,2.0229681 7.80950165,2.0229681 C7.91200473,2.0229681 8.16255744,1.84110734 8.35618458,1.62515261 C8.78898539,1.12501387 9.03953841,1.15910846 10.1556927,1.80701306 C11.0554612,2.34121843 11.3629708,2.37531301 11.4540939,1.9320242 C11.5793864,1.37509691 11.6818895,1.28415301 12.2057834,1.28415301 C12.5247017,1.2955442 13.0030491,1.43191585 13.4928065,1.65924992 C13.9141975,1.86382896 14.3469984,2.0229681 14.4267428,2.0229681 C14.5178361,2.0229681 14.6203699,1.86382896 14.6659164,1.67059251 C14.7000842,1.47738643 14.8481345,1.25005539 14.9734257,1.15910846 C15.2809347,0.96590238 15.5998536,1.04544294 16.6021258,1.55695737 C17.6043671,2.05706542 17.8891183,2.0115921 17.8891183,1.34096891 C17.8891183,1.13638684 18.1055035,1 18.4358009,1 C18.538304,1 18.9597257,1.20458208 19.3811174,1.46601347 C20.292265,2.0115921 20.5428481,2.0115921 20.6225627,1.45462228 C20.7023071,0.886319291 21.0781517,0.874943291 22.0576351,1.38642734 C22.7865652,1.78424587 23.4699182,1.92066339 23.4699182,1.68195332" id="Path" stroke="#FFFFFF" stroke-width="0.5" stroke-linecap="round" stroke-linejoin="round"></path>
                <path d="M2.45706176,4.71113215 C2.26195178,4.83629519 2.28362105,4.84594289 2.63050277,4.79779919 C2.92318308,4.75927585 3.11832282,4.80742866 3.50857254,5.02889367 C4.25653923,5.46217387 4.57091827,5.49108597 5.06957295,5.18293873 C5.66579705,4.82667818 5.90427472,4.75927585 6.37039604,4.8555599 C6.72814277,4.92296527 6.76064606,4.92296527 6.61973811,4.79779919 C6.31622378,4.51856435 5.71999968,4.51856435 5.18881163,4.79779919 C4.5817529,5.10591635 4.2890729,5.11553337 3.60614318,4.80742866 C2.98824951,4.52819048 2.76060647,4.50892911 2.45706176,4.7111443 L2.45706176,4.71113215 Z M13.6442377,4.99998461 C13.2323187,5.24072678 12.7770323,5.43329489 12.6252602,5.43329489 C12.4734879,5.43329489 12.0073666,5.2503438 11.5954178,5.02889367 C10.8908197,4.6533441 10.8257828,4.63410977 10.5005694,4.74965853 C9.60083097,5.07703737 9.01544059,5.18293873 8.58182196,5.07703737 C8.08316819,4.96148861 8.03983057,5.03851099 8.47341852,5.26960547 C8.89620161,5.49108597 9.26478267,5.48143858 10.08862,5.22146511 C10.7715804,5.009632 10.7824148,5.009632 11.1184625,5.19257701 C12.4734879,5.91474278 12.8637376,5.95323878 13.5683667,5.45255352 C14.3814001,4.87481549 14.7174478,4.8266721 15.8773335,5.16366795 C16.5711279,5.36588344 16.6253299,5.36588344 16.9613779,5.22145904 L17.319094,5.05776658 L16.8746416,5.05776658 C16.6253299,5.04813711 16.0941419,4.94222086 15.7038918,4.80741043 C15.3028078,4.6725997 14.8475211,4.56669863 14.6849138,4.56669863 C14.5114731,4.56669863 14.067021,4.74965246 13.6442377,4.99997853 L13.6442377,4.99998461 Z M20.0183405,4.95184395 C19.8882672,4.99998461 19.7473295,5.07703737 19.7039618,5.13479504 C19.6172565,5.26960547 19.0535655,5.26960547 18.750021,5.13479504 C18.5657457,5.05777266 18.57658,5.08665468 18.8150574,5.27922278 C19.1836385,5.57772263 19.4546495,5.5969843 19.9316055,5.33701084 C20.2676528,5.14444273 20.3110205,5.14444273 20.6904362,5.28887018 C21.3300283,5.51996496 21.449267,5.45255959 20.939778,5.14444273 C20.4302592,4.83629519 20.3652229,4.82667818 20.0183405,4.95184395 L20.0183405,4.95184395 Z M16.6144953,6.20360101 C16.3001165,6.41543413 15.9207008,6.58877094 15.7797929,6.58877094 C15.6496895,6.58877094 15.2377708,6.45396051 14.8908885,6.29027109 L14.2404618,5.98215423 L13.8285434,6.193984 C13.6009,6.30953276 13.286521,6.45396051 13.1239143,6.51174856 C12.950473,6.57912354 12.8204003,6.66579028 12.8204003,6.70431666 C12.8204003,6.84874441 13.1672823,6.78133904 13.6442377,6.53097985 C14.1754257,6.25174471 14.4789397,6.27100638 14.9992935,6.58877094 C15.7147568,7.0509602 15.9423999,7.03169549 16.7337343,6.47322218 C17.2323893,6.11696466 17.5792707,6.10731696 18.4248077,6.4346958 C19.0535655,6.66579028 19.1294361,6.67543797 19.4546495,6.55024456 L19.8123656,6.41543413 L19.4329508,6.40580466 C19.2270068,6.39617549 18.7391864,6.26137722 18.3706054,6.10730481 C17.99122,5.94361539 17.5684369,5.81845266 17.438363,5.81845266 C17.3082593,5.81845266 16.9288445,5.99175909 16.6144953,6.20358886 L16.6144953,6.20360101 Z M7.73628586,6.25174471 C7.22679715,6.66579028 6.90158409,6.67543797 6.37039604,6.29988537 C5.88260606,5.95324486 5.557393,5.94362754 4.90696596,6.25174471 C4.53841497,6.42508152 4.46251421,6.49248385 4.60345194,6.54062724 C4.70099158,6.57912354 4.9286647,6.5309677 5.11294064,6.45396051 C5.58989599,6.23248 5.82840373,6.26138937 6.43546277,6.63691159 C6.7389771,6.81986542 7.03165649,6.97390744 7.0750251,6.97390744 C7.1183928,6.97390744 7.35687016,6.83912709 7.60621254,6.68505499 C8.36501356,6.193984 8.51678591,6.17472233 9.25391796,6.44434319 C9.92601366,6.70431666 10.121154,6.68505499 10.4463671,6.33841175 C10.587275,6.18433934 10.5764404,6.18433934 10.3596314,6.28065408 C10.0127494,6.44434319 9.76343766,6.42508152 9.11301032,6.15546066 C8.36501356,5.84734349 8.23494085,5.84734349 7.73628586,6.25174471 L7.73628586,6.25174471 Z" fill="#FFFFFF" fill-rule="nonzero"></path>
            </g>
        </g>
    </g>
</svg>