<?xml version="1.0" encoding="UTF-8"?>
<svg width="32px" height="24px" viewBox="0 0 32 24" version="1.1" xmlns="http://www.w3.org/2000/svg" xmlns:xlink="http://www.w3.org/1999/xlink">
    <title>flags/L/PT - Portugal</title>
    <defs>
        <rect id="path-1" x="0" y="0" width="32" height="24"></rect>
        <path d="M7.9047619,15.8072289 C3.64427955,15.8072289 0.19047619,12.3118135 0.19047619,8 C0.19047619,3.68818653 3.64427955,0.192771084 7.9047619,0.192771084 C12.1652443,0.192771084 15.6190476,3.68818653 15.6190476,8 C15.6190476,12.3118135 12.1652443,15.8072289 7.9047619,15.8072289 Z" id="path-3"></path>
    </defs>
    <g id="Symbols" stroke="none" stroke-width="1" fill="none" fill-rule="evenodd">
        <g id="flag">
            <mask id="mask-2" fill="white">
                <use xlink:href="#path-1"></use>
            </mask>
            <g id="mask"></g>
            <g id="contents" mask="url(#mask-2)">
                <polygon id="right" fill="#EF0000" points="8 0 32 0 32 24 8 24"></polygon>
                <polygon id="left" fill="#2F8D00" points="0 0 12 0 12 24 0 24"></polygon>
                <g id="mark" transform="translate(4.000000, 4.000000)">
                    <g id="stripes">
                        <mask id="mask-4" fill="white">
                            <use xlink:href="#path-3"></use>
                        </mask>
                        <g id="Path"></g>
                        <polygon id="Rectangle-53" fill="#FFE017" mask="url(#mask-4)" points="7.42857143 0 8.42857143 0 8.42857143 2.69879518 7.42857143 2.69879518"></polygon>
                        <polygon id="Rectangle-53" fill="#FFE017" mask="url(#mask-4)" points="7.42857143 13.4939759 8.42857143 13.4939759 8.42857143 16 7.42857143 16"></polygon>
                        <path d="M0.314453882,8.4037772 L0.0348708703,7.68648401 C3.12005646,6.45480439 5.44861631,5.66049518 7.02860724,5.30252129 C9.34672833,4.77731143 11.8937997,4.38872645 14.6699978,4.13647099 L14.738129,4.90446622 C11.9937833,5.15382745 9.47936642,5.53743062 7.19505474,6.05498038 C5.66210077,6.40229724 3.36588154,7.18557455 0.314453882,8.4037772 Z" id="Path-194" fill="#FFE017" fill-rule="nonzero" mask="url(#mask-4)"></path>
                        <path d="M15.1408477,3.66389131 L14.913963,4.39999358 C12.5822514,3.6638811 10.6828299,3.34746309 9.22279897,3.44547011 L9.17237449,2.67607633 C10.7399658,2.57084914 12.7270901,2.90187727 15.1408477,3.66389131 Z" id="Path-204" fill="#FFE017" fill-rule="nonzero" mask="url(#mask-4)"></path>
                        <path d="M15.9476484,7.77977354 L15.5166404,8.41561935 C14.3279721,7.59034839 12.8635273,7.17581609 11.1133294,7.17581609 L11.1133294,6.40473175 C13.0107126,6.40473175 14.6254779,6.86181446 15.9476484,7.77977354 Z" id="Path-207" fill="#FFE017" fill-rule="nonzero" mask="url(#mask-4)"></path>
                        <path d="M15.302005,8.01055487 L15.4989911,8.75542191 C12.9363577,9.44955941 10.5304134,9.84337985 8.28096503,9.93612016 C6.01600703,10.0294999 3.37614455,9.63426606 0.359119664,8.75342445 L0.570303072,8.01255233 C3.51400389,8.87198647 6.07463981,9.2553587 8.24995288,9.16567484 C10.4407756,9.07535155 12.7915241,8.69056591 15.302005,8.01055487 Z" id="Path-208" fill="#FFE017" fill-rule="nonzero" mask="url(#mask-4)"></path>
                        <path d="M15.0117273,11.6358849 L13.8073932,12.870565 C11.5186926,10.5839984 9.50376553,8.94902906 7.77499851,7.96665959 C6.01669151,6.96750407 3.72370048,5.95292948 0.89958114,4.92702914 L1.47872766,3.29409485 C4.38613342,4.35025013 6.76346967,5.40214476 8.61429215,6.45387207 C10.4946546,7.52238544 12.6230041,9.24938889 15.0117273,11.6358849 Z" id="Path-209" fill="#FFE017" fill-rule="nonzero" mask="url(#mask-4)"></path>
                        <path d="M1.45830375,12.3353019 L1.00244479,11.717462 C1.06610405,11.6693539 1.17969122,11.5891274 1.33619242,11.4874549 C1.5945903,11.3195842 1.88152859,11.1519878 2.19025235,10.9953782 C3.04055706,10.5640351 3.89349385,10.2947245 4.70701263,10.2699868 C4.74679767,10.268777 4.7864162,10.2681684 4.82586445,10.2681684 L4.82586445,11.0392527 C4.7940857,11.0392527 4.76209451,11.0397442 4.72989469,11.0407233 C4.0443271,11.0615702 3.29145811,11.2992849 2.53166286,11.6847143 C2.24846199,11.8283766 1.98459054,11.9825 1.74777549,12.1363492 C1.66534556,12.1899006 1.59241295,12.2394203 1.52991656,12.2835614 C1.49347919,12.3092971 1.46929872,12.3269928 1.45830375,12.3353019 Z" id="Path-210" fill="#FFE017" fill-rule="nonzero" mask="url(#mask-4)"></path>
                        <path d="M1.81215118,12.6025801 L2.00402151,11.8563466 C4.54414099,12.5252904 6.50242586,12.8586406 7.86911403,12.8586406 C9.23069512,12.8586406 11.2572887,12.4654398 13.935723,11.6763013 L14.1486873,12.4166511 C11.4069012,13.2244547 9.31810078,13.6297249 7.86911403,13.6297249 C6.42523435,13.6297249 4.40950077,13.2865955 1.81215118,12.6025801 Z" id="Path-211" fill="#FFE017" fill-rule="nonzero" mask="url(#mask-4)"></path>
                        <polygon id="Path-212" fill="#FFE017" fill-rule="nonzero" mask="url(#mask-4)" points="0.822441648 5.69441286 2.02951821 4.46247885 3.79683911 6.23611762 2.58976255 7.46805163"></polygon>
                        <polygon id="Path-213" fill="#FFE017" fill-rule="nonzero" mask="url(#mask-4)" points="10.8359332 11.847751 11.7337715 10.3697927 14.5374023 12.1142452 13.6395639 13.5922035"></polygon>
                    </g>
                    <path d="M7.9047619,0.192771084 C12.1652443,0.192771084 15.6190476,3.68818653 15.6190476,8 C15.6190476,12.3118135 12.1652443,15.8072289 7.9047619,15.8072289 C3.64427955,15.8072289 0.19047619,12.3118135 0.19047619,8 C0.19047619,3.68818653 3.64427955,0.192771084 7.9047619,0.192771084 Z M8,1.34939759 C4.31810167,1.34939759 1.33333333,4.37012699 1.33333333,8.09638554 C1.33333333,11.8226441 4.31810167,14.8433735 8,14.8433735 C11.6818983,14.8433735 14.6666667,11.8226441 14.6666667,8.09638554 C14.6666667,4.37012699 11.6818983,1.34939759 8,1.34939759 Z" id="outer" fill="#F9E813" fill-rule="nonzero"></path>
                    <g id="center" transform="translate(3.047619, 2.506024)">
                        <path d="M0.609074551,0.679239156 L0.609074551,6.93994927 C1.02120897,9.41802711 2.40967147,10.657066 4.77446205,10.657066 C7.13925263,10.657066 8.52771513,9.41802711 8.93984955,6.93994927 L8.93984955,0.679239156 L0.609074551,0.679239156 Z" id="Path" fill="#FFFFFF" fill-rule="nonzero"></path>
                        <path d="M0.0376459792,0.100925903 L9.51127812,0.100925903 L9.51127812,6.98827902 L9.50335179,7.03593839 C9.04571523,9.78761106 7.42335143,11.2353793 4.77446205,11.2353793 C2.12557267,11.2353793 0.50320887,9.78761106 0.0455723098,7.03593839 L0.0376459792,6.98827902 L0.0376459792,0.100925903 Z" id="Path-214" fill="#C51918" fill-rule="nonzero"></path>
                        <path d="M2.2045999,2.20466875 L7.3443242,2.20466875 L7.3443242,6.64556668 C7.09005526,8.17443246 6.23343455,8.93886536 4.77446205,8.93886536 C3.31548955,8.93886536 2.45886884,8.17443246 2.2045999,6.64556668 L2.2045999,2.20466875 Z" id="Path-214" fill="#F7FCFF" fill-rule="nonzero"></path>
                        <g id="castles" transform="translate(0.571429, 0.578313)">
                            <g id="castle">
                                <polygon id="Rectangle-54" fill="#F9E813" points="0.380952381 0 1.10384395 0 1.10384395 0.481927711 0.380952381 0.481927711"></polygon>
                                <polygon id="Rectangle-55" fill="#060101" points="0 0.192771084 1.33333333 0.192771084 1.33333333 0.43373494 0 0.43373494"></polygon>
                                <polygon id="Rectangle-54" fill="#F9E813" points="0 0.385542169 0.722891566 0.385542169 0.722891566 0.626506024 0 0.626506024"></polygon>
                                <polygon id="Rectangle-54" fill="#F9E813" points="0.761904762 0.385542169 1.48479633 0.385542169 1.48479633 0.626506024 0.761904762 0.626506024"></polygon>
                                <polygon id="Rectangle-54" fill="#F9E813" points="0 0.963855422 0.481927711 0.963855422 0.481927711 1.68674699 0 1.68674699"></polygon>
                                <polygon id="Rectangle-54" fill="#F9E813" points="0.952380952 0.963855422 1.43430866 0.963855422 1.43430866 1.68674699 0.952380952 1.68674699"></polygon>
                                <polygon id="Rectangle-54" fill="#F9E813" points="0.571428571 0.963855422 0.812392427 0.963855422 0.812392427 1.68674699 0.571428571 1.68674699"></polygon>
                                <polygon id="Rectangle-55" fill="#060101" points="0 0.771084337 1.33333333 0.771084337 1.33333333 1.01204819 0 1.01204819"></polygon>
                                <polygon id="Rectangle-55" fill="#060101" points="0 1.34939759 1.33333333 1.34939759 1.33333333 1.59036145 0 1.59036145"></polygon>
                                <polygon id="Rectangle-54" fill="#F9E813" points="0.19047619 0.578313253 0.431440046 0.578313253 0.431440046 0.819277108 0.19047619 0.819277108"></polygon>
                                <polygon id="Rectangle-54" fill="#F9E813" points="0.952380952 0.578313253 1.19334481 0.578313253 1.19334481 0.819277108 0.952380952 0.819277108"></polygon>
                                <polygon id="Rectangle-54" fill="#F9E813" points="0.571428571 0.385542169 0.812392427 0.385542169 0.812392427 0.86746988 0.571428571 0.86746988"></polygon>
                            </g>
                            <g id="castle" transform="translate(3.619048, 0.000000)">
                                <polygon id="Rectangle-54" fill="#F9E813" points="0.380952381 0 1.10384395 0 1.10384395 0.481927711 0.380952381 0.481927711"></polygon>
                                <polygon id="Rectangle-55" fill="#060101" points="0 0.192771084 1.33333333 0.192771084 1.33333333 0.43373494 0 0.43373494"></polygon>
                                <polygon id="Rectangle-54" fill="#F9E813" points="0 0.385542169 0.722891566 0.385542169 0.722891566 0.626506024 0 0.626506024"></polygon>
                                <polygon id="Rectangle-54" fill="#F9E813" points="0.761904762 0.385542169 1.48479633 0.385542169 1.48479633 0.626506024 0.761904762 0.626506024"></polygon>
                                <polygon id="Rectangle-54" fill="#F9E813" points="0 0.963855422 0.481927711 0.963855422 0.481927711 1.68674699 0 1.68674699"></polygon>
                                <polygon id="Rectangle-54" fill="#F9E813" points="0.952380952 0.963855422 1.43430866 0.963855422 1.43430866 1.68674699 0.952380952 1.68674699"></polygon>
                                <polygon id="Rectangle-54" fill="#F9E813" points="0.571428571 0.963855422 0.812392427 0.963855422 0.812392427 1.68674699 0.571428571 1.68674699"></polygon>
                                <polygon id="Rectangle-55" fill="#060101" points="0 0.771084337 1.33333333 0.771084337 1.33333333 1.01204819 0 1.01204819"></polygon>
                                <polygon id="Rectangle-55" fill="#060101" points="0 1.34939759 1.33333333 1.34939759 1.33333333 1.59036145 0 1.59036145"></polygon>
                                <polygon id="Rectangle-54" fill="#F9E813" points="0.19047619 0.578313253 0.431440046 0.578313253 0.431440046 0.819277108 0.19047619 0.819277108"></polygon>
                                <polygon id="Rectangle-54" fill="#F9E813" points="0.952380952 0.578313253 1.19334481 0.578313253 1.19334481 0.819277108 0.952380952 0.819277108"></polygon>
                                <polygon id="Rectangle-54" fill="#F9E813" points="0.571428571 0.385542169 0.812392427 0.385542169 0.812392427 0.86746988 0.571428571 0.86746988"></polygon>
                            </g>
                            <g id="castle" transform="translate(7.047619, 0.000000)">
                                <polygon id="Rectangle-54" fill="#F9E813" points="0.380952381 0 1.10384395 0 1.10384395 0.481927711 0.380952381 0.481927711"></polygon>
                                <polygon id="Rectangle-55" fill="#060101" points="0 0.192771084 1.33333333 0.192771084 1.33333333 0.43373494 0 0.43373494"></polygon>
                                <polygon id="Rectangle-54" fill="#F9E813" points="0 0.385542169 0.722891566 0.385542169 0.722891566 0.626506024 0 0.626506024"></polygon>
                                <polygon id="Rectangle-54" fill="#F9E813" points="0.761904762 0.385542169 1.48479633 0.385542169 1.48479633 0.626506024 0.761904762 0.626506024"></polygon>
                                <polygon id="Rectangle-54" fill="#F9E813" points="0 0.963855422 0.481927711 0.963855422 0.481927711 1.68674699 0 1.68674699"></polygon>
                                <polygon id="Rectangle-54" fill="#F9E813" points="0.952380952 0.963855422 1.43430866 0.963855422 1.43430866 1.68674699 0.952380952 1.68674699"></polygon>
                                <polygon id="Rectangle-54" fill="#F9E813" points="0.571428571 0.963855422 0.812392427 0.963855422 0.812392427 1.68674699 0.571428571 1.68674699"></polygon>
                                <polygon id="Rectangle-55" fill="#060101" points="0 0.771084337 1.33333333 0.771084337 1.33333333 1.01204819 0 1.01204819"></polygon>
                                <polygon id="Rectangle-55" fill="#060101" points="0 1.34939759 1.33333333 1.34939759 1.33333333 1.59036145 0 1.59036145"></polygon>
                                <polygon id="Rectangle-54" fill="#F9E813" points="0.19047619 0.578313253 0.431440046 0.578313253 0.431440046 0.819277108 0.19047619 0.819277108"></polygon>
                                <polygon id="Rectangle-54" fill="#F9E813" points="0.952380952 0.578313253 1.19334481 0.578313253 1.19334481 0.819277108 0.952380952 0.819277108"></polygon>
                                <polygon id="Rectangle-54" fill="#F9E813" points="0.571428571 0.385542169 0.812392427 0.385542169 0.812392427 0.86746988 0.571428571 0.86746988"></polygon>
                            </g>
                            <g id="castle" transform="translate(7.047619, 3.469880)">
                                <polygon id="Rectangle-54" fill="#F9E813" points="0.380952381 0 1.10384395 0 1.10384395 0.481927711 0.380952381 0.481927711"></polygon>
                                <polygon id="Rectangle-55" fill="#060101" points="0 0.192771084 1.33333333 0.192771084 1.33333333 0.43373494 0 0.43373494"></polygon>
                                <polygon id="Rectangle-54" fill="#F9E813" points="0 0.385542169 0.722891566 0.385542169 0.722891566 0.626506024 0 0.626506024"></polygon>
                                <polygon id="Rectangle-54" fill="#F9E813" points="0.761904762 0.385542169 1.48479633 0.385542169 1.48479633 0.626506024 0.761904762 0.626506024"></polygon>
                                <polygon id="Rectangle-54" fill="#F9E813" points="0 0.963855422 0.481927711 0.963855422 0.481927711 1.68674699 0 1.68674699"></polygon>
                                <polygon id="Rectangle-54" fill="#F9E813" points="0.952380952 0.963855422 1.43430866 0.963855422 1.43430866 1.68674699 0.952380952 1.68674699"></polygon>
                                <polygon id="Rectangle-54" fill="#F9E813" points="0.571428571 0.963855422 0.812392427 0.963855422 0.812392427 1.68674699 0.571428571 1.68674699"></polygon>
                                <polygon id="Rectangle-55" fill="#060101" points="0 0.771084337 1.33333333 0.771084337 1.33333333 1.01204819 0 1.01204819"></polygon>
                                <polygon id="Rectangle-55" fill="#060101" points="0 1.34939759 1.33333333 1.34939759 1.33333333 1.59036145 0 1.59036145"></polygon>
                                <polygon id="Rectangle-54" fill="#F9E813" points="0.19047619 0.578313253 0.431440046 0.578313253 0.431440046 0.819277108 0.19047619 0.819277108"></polygon>
                                <polygon id="Rectangle-54" fill="#F9E813" points="0.952380952 0.578313253 1.19334481 0.578313253 1.19334481 0.819277108 0.952380952 0.819277108"></polygon>
                                <polygon id="Rectangle-54" fill="#F9E813" points="0.571428571 0.385542169 0.812392427 0.385542169 0.812392427 0.86746988 0.571428571 0.86746988"></polygon>
                            </g>
                            <g id="castle" transform="translate(0.000000, 3.469880)">
                                <polygon id="Rectangle-54" fill="#F9E813" points="0.380952381 0 1.10384395 0 1.10384395 0.481927711 0.380952381 0.481927711"></polygon>
                                <polygon id="Rectangle-55" fill="#060101" points="0 0.192771084 1.33333333 0.192771084 1.33333333 0.43373494 0 0.43373494"></polygon>
                                <polygon id="Rectangle-54" fill="#F9E813" points="0 0.385542169 0.722891566 0.385542169 0.722891566 0.626506024 0 0.626506024"></polygon>
                                <polygon id="Rectangle-54" fill="#F9E813" points="0.761904762 0.385542169 1.48479633 0.385542169 1.48479633 0.626506024 0.761904762 0.626506024"></polygon>
                                <polygon id="Rectangle-54" fill="#F9E813" points="0 0.963855422 0.481927711 0.963855422 0.481927711 1.68674699 0 1.68674699"></polygon>
                                <polygon id="Rectangle-54" fill="#F9E813" points="0.952380952 0.963855422 1.43430866 0.963855422 1.43430866 1.68674699 0.952380952 1.68674699"></polygon>
                                <polygon id="Rectangle-54" fill="#F9E813" points="0.571428571 0.963855422 0.812392427 0.963855422 0.812392427 1.68674699 0.571428571 1.68674699"></polygon>
                                <polygon id="Rectangle-55" fill="#060101" points="0 0.771084337 1.33333333 0.771084337 1.33333333 1.01204819 0 1.01204819"></polygon>
                                <polygon id="Rectangle-55" fill="#060101" points="0 1.34939759 1.33333333 1.34939759 1.33333333 1.59036145 0 1.59036145"></polygon>
                                <polygon id="Rectangle-54" fill="#F9E813" points="0.19047619 0.578313253 0.431440046 0.578313253 0.431440046 0.819277108 0.19047619 0.819277108"></polygon>
                                <polygon id="Rectangle-54" fill="#F9E813" points="0.952380952 0.578313253 1.19334481 0.578313253 1.19334481 0.819277108 0.952380952 0.819277108"></polygon>
                                <polygon id="Rectangle-54" fill="#F9E813" points="0.571428571 0.385542169 0.812392427 0.385542169 0.812392427 0.86746988 0.571428571 0.86746988"></polygon>
                            </g>
                            <g id="castle" transform="translate(1.619048, 8.096386) rotate(-50.000000) translate(-1.619048, -8.096386) translate(0.952381, 7.325301)">
                                <polygon id="Rectangle-54" fill="#F9E813" points="0.380952381 0 1.10384395 0 1.10384395 0.481927711 0.380952381 0.481927711"></polygon>
                                <polygon id="Rectangle-55" fill="#060101" points="0 0.192771084 1.33333333 0.192771084 1.33333333 0.43373494 0 0.43373494"></polygon>
                                <polygon id="Rectangle-54" fill="#F9E813" points="0 0.385542169 0.722891566 0.385542169 0.722891566 0.626506024 0 0.626506024"></polygon>
                                <polygon id="Rectangle-54" fill="#F9E813" points="0.761904762 0.385542169 1.48479633 0.385542169 1.48479633 0.626506024 0.761904762 0.626506024"></polygon>
                                <polygon id="Rectangle-54" fill="#F9E813" points="0 0.963855422 0.481927711 0.963855422 0.481927711 1.68674699 0 1.68674699"></polygon>
                                <polygon id="Rectangle-54" fill="#F9E813" points="0.952380952 0.963855422 1.43430866 0.963855422 1.43430866 1.68674699 0.952380952 1.68674699"></polygon>
                                <polygon id="Rectangle-54" fill="#F9E813" points="0.571428571 0.963855422 0.812392427 0.963855422 0.812392427 1.68674699 0.571428571 1.68674699"></polygon>
                                <polygon id="Rectangle-55" fill="#060101" points="0 0.771084337 1.33333333 0.771084337 1.33333333 1.01204819 0 1.01204819"></polygon>
                                <polygon id="Rectangle-55" fill="#060101" points="0 1.34939759 1.33333333 1.34939759 1.33333333 1.59036145 0 1.59036145"></polygon>
                                <polygon id="Rectangle-54" fill="#F9E813" points="0.19047619 0.578313253 0.431440046 0.578313253 0.431440046 0.819277108 0.19047619 0.819277108"></polygon>
                                <polygon id="Rectangle-54" fill="#F9E813" points="0.952380952 0.578313253 1.19334481 0.578313253 1.19334481 0.819277108 0.952380952 0.819277108"></polygon>
                                <polygon id="Rectangle-54" fill="#F9E813" points="0.571428571 0.385542169 0.812392427 0.385542169 0.812392427 0.86746988 0.571428571 0.86746988"></polygon>
                            </g>
                            <g id="castle" transform="translate(6.952381, 8.096386) rotate(50.000000) translate(-6.952381, -8.096386) translate(6.285714, 7.325301)">
                                <polygon id="Rectangle-54" fill="#F9E813" points="0.380952381 0 1.10384395 0 1.10384395 0.481927711 0.380952381 0.481927711"></polygon>
                                <polygon id="Rectangle-55" fill="#060101" points="0 0.192771084 1.33333333 0.192771084 1.33333333 0.43373494 0 0.43373494"></polygon>
                                <polygon id="Rectangle-54" fill="#F9E813" points="0 0.385542169 0.722891566 0.385542169 0.722891566 0.626506024 0 0.626506024"></polygon>
                                <polygon id="Rectangle-54" fill="#F9E813" points="0.761904762 0.385542169 1.48479633 0.385542169 1.48479633 0.626506024 0.761904762 0.626506024"></polygon>
                                <polygon id="Rectangle-54" fill="#F9E813" points="0 0.963855422 0.481927711 0.963855422 0.481927711 1.68674699 0 1.68674699"></polygon>
                                <polygon id="Rectangle-54" fill="#F9E813" points="0.952380952 0.963855422 1.43430866 0.963855422 1.43430866 1.68674699 0.952380952 1.68674699"></polygon>
                                <polygon id="Rectangle-54" fill="#F9E813" points="0.571428571 0.963855422 0.812392427 0.963855422 0.812392427 1.68674699 0.571428571 1.68674699"></polygon>
                                <polygon id="Rectangle-55" fill="#060101" points="0 0.771084337 1.33333333 0.771084337 1.33333333 1.01204819 0 1.01204819"></polygon>
                                <polygon id="Rectangle-55" fill="#060101" points="0 1.34939759 1.33333333 1.34939759 1.33333333 1.59036145 0 1.59036145"></polygon>
                                <polygon id="Rectangle-54" fill="#F9E813" points="0.19047619 0.578313253 0.431440046 0.578313253 0.431440046 0.819277108 0.19047619 0.819277108"></polygon>
                                <polygon id="Rectangle-54" fill="#F9E813" points="0.952380952 0.578313253 1.19334481 0.578313253 1.19334481 0.819277108 0.952380952 0.819277108"></polygon>
                                <polygon id="Rectangle-54" fill="#F9E813" points="0.571428571 0.385542169 0.812392427 0.385542169 0.812392427 0.86746988 0.571428571 0.86746988"></polygon>
                            </g>
                        </g>
                        <path d="M5.51080851,2.69879518 L5.51080851,3.66026824 C5.44548993,3.9912741 5.22543454,4.15677704 4.85064235,4.15677704 C4.47585016,4.15677704 4.25579477,3.9912741 4.19047619,3.66026824 L4.19047619,2.69879518 L5.51080851,2.69879518 Z M4.57142857,3.6626506 C4.46623148,3.6626506 4.38095238,3.74895716 4.38095238,3.85542169 C4.38095238,3.96188622 4.46623148,4.04819277 4.57142857,4.04819277 C4.67662567,4.04819277 4.76190476,3.96188622 4.76190476,3.85542169 C4.76190476,3.74895716 4.67662567,3.6626506 4.57142857,3.6626506 Z M5.14285714,3.6626506 C5.03766005,3.6626506 4.95238095,3.74895716 4.95238095,3.85542169 C4.95238095,3.96188622 5.03766005,4.04819277 5.14285714,4.04819277 C5.24805424,4.04819277 5.33333333,3.96188622 5.33333333,3.85542169 C5.33333333,3.74895716 5.24805424,3.6626506 5.14285714,3.6626506 Z M4.85714286,3.27710843 C4.75194576,3.27710843 4.66666667,3.36341499 4.66666667,3.46987952 C4.66666667,3.57634405 4.75194576,3.6626506 4.85714286,3.6626506 C4.96233995,3.6626506 5.04761905,3.57634405 5.04761905,3.46987952 C5.04761905,3.36341499 4.96233995,3.27710843 4.85714286,3.27710843 Z M4.57142857,2.89156627 C4.46623148,2.89156627 4.38095238,2.97787282 4.38095238,3.08433735 C4.38095238,3.19080188 4.46623148,3.27710843 4.57142857,3.27710843 C4.67662567,3.27710843 4.76190476,3.19080188 4.76190476,3.08433735 C4.76190476,2.97787282 4.67662567,2.89156627 4.57142857,2.89156627 Z M5.14285714,2.89156627 C5.03766005,2.89156627 4.95238095,2.97787282 4.95238095,3.08433735 C4.95238095,3.19080188 5.03766005,3.27710843 5.14285714,3.27710843 C5.24805424,3.27710843 5.33333333,3.19080188 5.33333333,3.08433735 C5.33333333,2.97787282 5.24805424,2.89156627 5.14285714,2.89156627 Z" id="Path-214" fill="#013399" fill-rule="nonzero"></path>
                        <path d="M5.51080851,4.81927711 L5.51080851,5.78075017 C5.44548993,6.11175603 5.22543454,6.27725896 4.85064235,6.27725896 C4.47585016,6.27725896 4.25579477,6.11175603 4.19047619,5.78075017 L4.19047619,4.81927711 L5.51080851,4.81927711 Z M4.57142857,5.78313253 C4.46623148,5.78313253 4.38095238,5.86943908 4.38095238,5.97590361 C4.38095238,6.08236814 4.46623148,6.1686747 4.57142857,6.1686747 C4.67662567,6.1686747 4.76190476,6.08236814 4.76190476,5.97590361 C4.76190476,5.86943908 4.67662567,5.78313253 4.57142857,5.78313253 Z M5.14285714,5.78313253 C5.03766005,5.78313253 4.95238095,5.86943908 4.95238095,5.97590361 C4.95238095,6.08236814 5.03766005,6.1686747 5.14285714,6.1686747 C5.24805424,6.1686747 5.33333333,6.08236814 5.33333333,5.97590361 C5.33333333,5.86943908 5.24805424,5.78313253 5.14285714,5.78313253 Z M4.85714286,5.39759036 C4.75194576,5.39759036 4.66666667,5.48389692 4.66666667,5.59036145 C4.66666667,5.69682598 4.75194576,5.78313253 4.85714286,5.78313253 C4.96233995,5.78313253 5.04761905,5.69682598 5.04761905,5.59036145 C5.04761905,5.48389692 4.96233995,5.39759036 4.85714286,5.39759036 Z M4.57142857,5.01204819 C4.46623148,5.01204819 4.38095238,5.09835475 4.38095238,5.20481928 C4.38095238,5.31128381 4.46623148,5.39759036 4.57142857,5.39759036 C4.67662567,5.39759036 4.76190476,5.31128381 4.76190476,5.20481928 C4.76190476,5.09835475 4.67662567,5.01204819 4.57142857,5.01204819 Z M5.14285714,5.01204819 C5.03766005,5.01204819 4.95238095,5.09835475 4.95238095,5.20481928 C4.95238095,5.31128381 5.03766005,5.39759036 5.14285714,5.39759036 C5.24805424,5.39759036 5.33333333,5.31128381 5.33333333,5.20481928 C5.33333333,5.09835475 5.24805424,5.01204819 5.14285714,5.01204819 Z" id="Path-214" fill="#013399" fill-rule="nonzero"></path>
                        <path d="M7.22509422,4.81927711 L7.22509422,5.78075017 C7.15977564,6.11175603 6.93972026,6.27725896 6.56492806,6.27725896 C6.19013587,6.27725896 5.97008048,6.11175603 5.9047619,5.78075017 L5.9047619,4.81927711 L7.22509422,4.81927711 Z M6.28571429,5.78313253 C6.18051719,5.78313253 6.0952381,5.86943908 6.0952381,5.97590361 C6.0952381,6.08236814 6.18051719,6.1686747 6.28571429,6.1686747 C6.39091138,6.1686747 6.47619048,6.08236814 6.47619048,5.97590361 C6.47619048,5.86943908 6.39091138,5.78313253 6.28571429,5.78313253 Z M6.85714286,5.78313253 C6.75194576,5.78313253 6.66666667,5.86943908 6.66666667,5.97590361 C6.66666667,6.08236814 6.75194576,6.1686747 6.85714286,6.1686747 C6.96233995,6.1686747 7.04761905,6.08236814 7.04761905,5.97590361 C7.04761905,5.86943908 6.96233995,5.78313253 6.85714286,5.78313253 Z M6.57142857,5.39759036 C6.46623148,5.39759036 6.38095238,5.48389692 6.38095238,5.59036145 C6.38095238,5.69682598 6.46623148,5.78313253 6.57142857,5.78313253 C6.67662567,5.78313253 6.76190476,5.69682598 6.76190476,5.59036145 C6.76190476,5.48389692 6.67662567,5.39759036 6.57142857,5.39759036 Z M6.28571429,5.01204819 C6.18051719,5.01204819 6.0952381,5.09835475 6.0952381,5.20481928 C6.0952381,5.31128381 6.18051719,5.39759036 6.28571429,5.39759036 C6.39091138,5.39759036 6.47619048,5.31128381 6.47619048,5.20481928 C6.47619048,5.09835475 6.39091138,5.01204819 6.28571429,5.01204819 Z M6.85714286,5.01204819 C6.75194576,5.01204819 6.66666667,5.09835475 6.66666667,5.20481928 C6.66666667,5.31128381 6.75194576,5.39759036 6.85714286,5.39759036 C6.96233995,5.39759036 7.04761905,5.31128381 7.04761905,5.20481928 C7.04761905,5.09835475 6.96233995,5.01204819 6.85714286,5.01204819 Z" id="Path-214" fill="#013399" fill-rule="nonzero"></path>
                        <path d="M3.7965228,4.81927711 L3.7965228,5.78075017 C3.73120422,6.11175603 3.51114883,6.27725896 3.13635664,6.27725896 C2.76156444,6.27725896 2.54150906,6.11175603 2.47619048,5.78075017 L2.47619048,4.81927711 L3.7965228,4.81927711 Z M2.85714286,5.78313253 C2.75194576,5.78313253 2.66666667,5.86943908 2.66666667,5.97590361 C2.66666667,6.08236814 2.75194576,6.1686747 2.85714286,6.1686747 C2.96233995,6.1686747 3.04761905,6.08236814 3.04761905,5.97590361 C3.04761905,5.86943908 2.96233995,5.78313253 2.85714286,5.78313253 Z M3.42857143,5.78313253 C3.32337433,5.78313253 3.23809524,5.86943908 3.23809524,5.97590361 C3.23809524,6.08236814 3.32337433,6.1686747 3.42857143,6.1686747 C3.53376852,6.1686747 3.61904762,6.08236814 3.61904762,5.97590361 C3.61904762,5.86943908 3.53376852,5.78313253 3.42857143,5.78313253 Z M3.14285714,5.39759036 C3.03766005,5.39759036 2.95238095,5.48389692 2.95238095,5.59036145 C2.95238095,5.69682598 3.03766005,5.78313253 3.14285714,5.78313253 C3.24805424,5.78313253 3.33333333,5.69682598 3.33333333,5.59036145 C3.33333333,5.48389692 3.24805424,5.39759036 3.14285714,5.39759036 Z M2.85714286,5.01204819 C2.75194576,5.01204819 2.66666667,5.09835475 2.66666667,5.20481928 C2.66666667,5.31128381 2.75194576,5.39759036 2.85714286,5.39759036 C2.96233995,5.39759036 3.04761905,5.31128381 3.04761905,5.20481928 C3.04761905,5.09835475 2.96233995,5.01204819 2.85714286,5.01204819 Z M3.42857143,5.01204819 C3.32337433,5.01204819 3.23809524,5.09835475 3.23809524,5.20481928 C3.23809524,5.31128381 3.32337433,5.39759036 3.42857143,5.39759036 C3.53376852,5.39759036 3.61904762,5.31128381 3.61904762,5.20481928 C3.61904762,5.09835475 3.53376852,5.01204819 3.42857143,5.01204819 Z" id="Path-214" fill="#013399" fill-rule="nonzero"></path>
                        <path d="M5.51080851,6.93975904 L5.51080851,7.90123209 C5.44548993,8.23223796 5.22543454,8.39774089 4.85064235,8.39774089 C4.47585016,8.39774089 4.25579477,8.23223796 4.19047619,7.90123209 L4.19047619,6.93975904 L5.51080851,6.93975904 Z M4.57142857,7.90361446 C4.46623148,7.90361446 4.38095238,7.98992101 4.38095238,8.09638554 C4.38095238,8.20285007 4.46623148,8.28915663 4.57142857,8.28915663 C4.67662567,8.28915663 4.76190476,8.20285007 4.76190476,8.09638554 C4.76190476,7.98992101 4.67662567,7.90361446 4.57142857,7.90361446 Z M5.14285714,7.90361446 C5.03766005,7.90361446 4.95238095,7.98992101 4.95238095,8.09638554 C4.95238095,8.20285007 5.03766005,8.28915663 5.14285714,8.28915663 C5.24805424,8.28915663 5.33333333,8.20285007 5.33333333,8.09638554 C5.33333333,7.98992101 5.24805424,7.90361446 5.14285714,7.90361446 Z M4.85714286,7.51807229 C4.75194576,7.51807229 4.66666667,7.60437884 4.66666667,7.71084337 C4.66666667,7.8173079 4.75194576,7.90361446 4.85714286,7.90361446 C4.96233995,7.90361446 5.04761905,7.8173079 5.04761905,7.71084337 C5.04761905,7.60437884 4.96233995,7.51807229 4.85714286,7.51807229 Z M4.57142857,7.13253012 C4.46623148,7.13253012 4.38095238,7.21883667 4.38095238,7.3253012 C4.38095238,7.43176573 4.46623148,7.51807229 4.57142857,7.51807229 C4.67662567,7.51807229 4.76190476,7.43176573 4.76190476,7.3253012 C4.76190476,7.21883667 4.67662567,7.13253012 4.57142857,7.13253012 Z M5.14285714,7.13253012 C5.03766005,7.13253012 4.95238095,7.21883667 4.95238095,7.3253012 C4.95238095,7.43176573 5.03766005,7.51807229 5.14285714,7.51807229 C5.24805424,7.51807229 5.33333333,7.43176573 5.33333333,7.3253012 C5.33333333,7.21883667 5.24805424,7.13253012 5.14285714,7.13253012 Z" id="Path-214" fill="#013399" fill-rule="nonzero"></path>
                    </g>
                </g>
            </g>
        </g>
    </g>
</svg>