<?xml version="1.0" encoding="UTF-8"?>
<svg width="32px" height="24px" viewBox="0 0 32 24" version="1.1" xmlns="http://www.w3.org/2000/svg" xmlns:xlink="http://www.w3.org/1999/xlink">
    <title>flags/L/RW - Rwanda</title>
    <defs>
        <rect id="path-1" x="0" y="0" width="32" height="24"></rect>
        <rect id="path-3" x="0" y="0" width="32" height="24"></rect>
    </defs>
    <g id="Symbols" stroke="none" stroke-width="1" fill="none" fill-rule="evenodd">
        <g id="flag">
            <mask id="mask-2" fill="white">
                <use xlink:href="#path-1"></use>
            </mask>
            <g id="mask"></g>
            <g id="contents" mask="url(#mask-2)">
                <mask id="mask-4" fill="white">
                    <use xlink:href="#path-3"></use>
                </mask>
                <use id="background" fill="#FECA00" xlink:href="#path-3"></use>
                <rect id="top" fill="#3CA5D9" mask="url(#mask-4)" x="0" y="0" width="32" height="14"></rect>
                <rect id="bottom" fill="#5A962A" mask="url(#mask-4)" x="0" y="18" width="32" height="6"></rect>
                <g id="mark" mask="url(#mask-4)" fill="#FFDC17">
                    <g transform="translate(16.000000, 2.000000)" id="sun">
                        <path d="M7.98922664,2.84217094e-14 L8.3563141,2.01714831 C8.4202763,2.02303843 8.48379929,2.0304229 8.54684694,2.03926602 L9.37408019,0.160112564 L9.26066746,2.20717067 C9.32132257,2.22747252 9.38132171,2.24917885 9.44062518,2.27225047 L10.6842759,0.631818545 L10.0952625,2.59898524 C10.1494024,2.63253527 10.2026671,2.6673362 10.255015,2.70334702 L11.8491808,1.38968815 L10.81753,3.17176267 C10.8619291,3.21623913 10.9052637,3.26175512 10.947493,3.30827035 L12.8059946,2.39286444 L11.3862906,3.89175053 C11.4191915,3.94516399 11.4508403,3.99941289 11.4811968,4.05445749 L13.5031352,3.58726591 L11.7717553,4.72243521 C11.7910504,4.78139734 11.8089745,4.84096848 11.8254903,4.90111194 L13.9030196,4.90850208 L11.9514388,5.61822255 C11.9597841,5.72219674 11.9640364,5.8273092 11.9640364,5.93340271 L11.9603635,5.804 L13.9840898,6.28534476 L11.9183078,6.53142966 C11.9088761,6.59250785 11.8980222,6.65312403 11.8857806,6.71324419 L13.7419754,7.643568 L11.6731118,7.41201851 C11.6496681,7.46906433 11.6249085,7.5254437 11.5988701,7.58111987 L13.1897289,8.90994964 L11.228654,8.21140168 C11.1929867,8.26091213 11.1561878,8.30957181 11.1182945,8.35734389 L12.3571219,10.0162187 L10.6103015,8.88836865 C10.564277,8.92834306 10.5173109,8.96728492 10.4694403,9.00515756 L11.2890405,10.902736 L9.85329661,9.4063084 C9.79851958,9.43516731 9.7429795,9.46279869 9.68671398,9.48916537 L10.0430654,11.521709 L8.99433793,9.738572 C8.93504314,9.75392191 8.87520882,9.76795533 8.8148689,9.78063871 L8.68636723,11.8397689 L8.08036346,9.864 L7.98201818,9.86680542 C7.95352235,9.86680542 7.92509642,9.86650975 7.89674338,9.86592136 L7.29208605,11.8397689 L7.16440308,9.7838103 C7.10334758,9.77122422 7.04280538,9.75725689 6.98281149,9.74194292 L5.93538791,11.521709 L6.28936579,9.49478459 C6.23231655,9.46828227 6.17600761,9.44048183 6.120478,9.41142178 L4.68941274,10.902736 L5.50518433,9.01350544 C5.4558455,8.97474132 5.40745925,8.93484483 5.36006588,8.89385576 L3.62133139,10.0162187 L4.85367789,8.36731589 C4.81400747,8.31763274 4.77552408,8.26698178 4.73826997,8.21540475 L2.78872441,8.90994964 L4.36937403,7.59008739 C4.34194394,7.53182238 4.31591594,7.47278298 4.29133284,7.41301151 L2.23647785,7.643568 L4.07967457,6.7201795 C4.06671764,6.65713627 4.05528714,6.59354549 4.04542284,6.52944643 L1.99436346,6.28534476 L4.00200225,5.80746802 C4.0040772,5.74230274 4.00775679,5.67753717 4.01300329,5.6132086 L2.0754337,4.90850208 L4.13854604,4.90111194 C4.15581241,4.83823543 4.17461787,4.77598445 4.19491999,4.71440089 L2.47531805,3.58726591 L4.48451622,4.05142043 C4.51610219,3.99426638 4.54908214,3.93797188 4.58341092,3.88258151 L3.17245864,2.39286444 L5.02100927,3.30335947 C5.06495976,3.25511058 5.11010151,3.20794158 5.15638876,3.16189767 L4.12927244,1.38968815 L5.71608378,2.69849982 C5.76964873,2.66182085 5.82416855,2.62640661 5.87959896,2.59230086 L5.29417736,0.631818545 L6.5344116,2.26798957 C6.59502705,2.24461396 6.65636462,2.22266312 6.71838212,2.20217872 L6.6043731,0.160112564 L7.43036615,2.03744004 C7.49400119,2.02872884 7.55811689,2.02150303 7.62267623,2.01579919 L7.98922664,2.84217094e-14 Z M7.94601638,3.41653854 C6.54541557,3.41653854 5.41000428,4.53544531 5.41000428,5.91568676 C5.41000428,7.29592821 6.54541557,8.41483498 7.94601638,8.41483498 C9.34661718,8.41483498 10.4820285,7.29592821 10.4820285,5.91568676 C10.4820285,4.53544531 9.34661718,3.41653854 7.94601638,3.41653854 Z M7.97540068,4.55961588 C8.76474374,4.55961588 9.40463272,5.19950486 9.40463272,5.98884792 C9.40463272,6.77819098 8.76474374,7.41807996 7.97540068,7.41807996 C7.18605763,7.41807996 6.54616865,6.77819098 6.54616865,5.98884792 C6.54616865,5.19950486 7.18605763,4.55961588 7.97540068,4.55961588 Z"></path>
                    </g>
                </g>
            </g>
        </g>
    </g>
</svg>