<?xml version="1.0" encoding="UTF-8"?>
<svg width="32px" height="24px" viewBox="0 0 32 24" version="1.1" xmlns="http://www.w3.org/2000/svg" xmlns:xlink="http://www.w3.org/1999/xlink">
    <title>flags/L/SA - Saudi Arabia</title>
    <defs>
        <rect id="path-1" x="0" y="0" width="32" height="24"></rect>
    </defs>
    <g id="Symbols" stroke="none" stroke-width="1" fill="none" fill-rule="evenodd">
        <g id="flag">
            <mask id="mask-2" fill="white">
                <use xlink:href="#path-1"></use>
            </mask>
            <g id="mask"></g>
            <g id="contents" mask="url(#mask-2)">
                <rect id="base" fill="#67BD23" x="0" y="0" width="32" height="24"></rect>
                <g id="mark" transform="translate(4.000000, 4.000000)" fill="#FFFFFF" stroke="#FFFFFF" stroke-width="0.5">
                    <path d="M20.6432682,0.471394308 C20.8465026,0.217673117 20.9842424,0.487251882 21.1141975,0.800072347 L21.1846569,0.972104726 C21.2198474,1.05737973 21.2552394,1.13937892 21.2920035,1.20836406 C21.4880786,1.5762848 21.205043,1.82079521 21.0959284,1.99175371 C20.9868137,2.16271221 21.2920035,2.43328009 21.2920035,3.06242027 C21.2920035,3.69156044 21.5435677,4.32268382 21.9143919,4.82986896 C22.2852161,5.33705411 22.3517305,5.93239548 22.4348606,6.52322848 C22.4947142,6.94862824 22.5146396,6.28017075 22.4877974,5.58696291 L22.4771084,5.35644349 C22.4667419,5.16602431 22.4527082,4.98286124 22.4348606,4.82986896 C22.4199876,4.7023754 22.3994969,4.52139537 22.3762212,4.30507782 L22.3267956,3.83070348 C22.2152977,2.7241086 22.0869612,1.18115146 22.1722711,0.67861836 C22.2903923,-0.0171967022 22.4254916,0.827387714 22.6973983,1.20836406 C22.969305,1.5893404 23,1.59782922 22.8573434,1.82079521 C22.7146869,2.0437612 22.6010172,1.78044643 22.6010172,1.99175371 C22.6010172,2.20306099 23,5.02430605 23,6.2434196 C23,7.46253315 22.3517305,7.9379611 21.7906803,8.14658205 C21.2296301,8.355203 20.925165,8.14658205 20.925165,7.9379611 C20.925165,7.72934016 20.6432682,8.14658205 20.439791,8.14658205 C20.2363139,8.14658205 20.3053647,7.9070145 20.439791,7.66927366 C20.5742174,7.43153282 20.439791,7.5520419 20.439791,7.41509243 C20.439791,7.27814296 20.439791,7.13894419 20.6432682,7.13894419 C20.8467453,7.13894419 21.0265153,7.13894419 20.8306472,7.41509243 C20.6347792,7.69124068 20.7820425,7.51771051 21.0265153,7.66927366 C21.2709881,7.8208368 21.1070055,7.70177834 21.2920035,7.80772748 C21.4770015,7.91367662 21.922208,7.54016829 22.3517305,7.13894419 C22.781253,6.73772008 22.3023494,6.77047896 22.1722711,6.61843227 C22.0421927,6.46638559 21.6635006,5.75477486 21.5435677,5.66376176 C21.4236347,5.57274865 21.6635006,6.34727339 21.5435677,6.52322848 C21.4236347,6.69918357 21.1510551,6.92402999 21.0265153,6.92402999 C20.9434888,6.92402999 20.9434888,6.17296593 21.0265153,4.6708378 C20.5613114,4.02493488 20.3657366,3.82317305 20.439791,4.0655523 C20.5508727,4.42912118 20.3287094,6.77047896 20.0126496,7.13894419 C19.6965897,7.50740942 19.0392101,7.03540553 18.8775568,6.77047896 C18.7159036,6.50555238 18.5211742,6.76301094 18.4477755,7.03540553 C18.3743767,7.30780012 18.2137069,7.90277009 17.8222814,8.14658205 C17.4308558,8.39039402 17.1718379,7.55870402 16.977885,7.29802186 C16.7839321,7.03733969 16.8678904,6.45290017 17.0462111,6.08707477 C17.2245318,5.72124937 17.1644876,6.08707477 17.1644876,6.52322848 C17.1644876,6.95938219 17.3267103,7.03540553 17.528531,7.29802186 C17.7303517,7.56063818 17.9004422,7.29802186 17.9004422,7.13894419 C17.9004422,6.97986652 18.2590506,6.2434196 18.5185861,5.96307345 C18.7781217,5.6827273 18.9933488,5.85132182 18.9933488,5.96307345 C18.9933488,6.07482508 19.2452753,6.43919985 19.5369552,6.52322848 C19.7314084,6.57924757 19.8635547,6.35527868 19.9333941,5.85132182 L19.9333941,5.85132182 L19.9333941,3.569547 C19.9333941,2.75306167 19.6823551,2.75080515 19.5369552,2.59338579 C19.3915552,2.43596643 18.8775568,1.99175371 18.713419,1.75181007 C18.5492811,1.51186643 18.5869122,1.02198598 18.5869122,0.574872017 C18.5869122,0.127758053 19.2045385,0.77398333 19.3505596,1.02198598 C19.4965807,1.26998863 19.3505596,1.38910082 19.3505596,1.63387987 C19.3505596,1.87865891 19.5369552,1.82079521 19.5369552,1.63387987 C19.5369552,1.44696453 19.4251489,0.67861836 19.6823551,0.574872017 C19.9395614,0.471125674 19.9333941,0.67861836 20.1627599,1.20836406 C20.3921257,1.73810975 20.1627599,1.82079521 20.1627599,2.30884895 C20.1627599,2.7969027 20.6432682,3.20560204 20.7611824,3.40444472 C20.8790966,3.6032874 20.6432682,2.11494913 20.439791,1.82079521 C20.2363139,1.52664129 20.3476544,0.840443313 20.6432682,0.471394308 Z M12.8202552,0.120181468 C13.0525044,-0.0740620734 13.5293903,0.4892881 13.6190934,0.752554895 C13.7087966,1.01582169 13.8524605,0.747725462 13.8524605,0.4892881 C13.8524605,0.230850738 14.136737,0.405306149 14.2710953,0.678859008 C14.4054536,0.952411868 14.6197259,1.07104657 14.7051086,1.34140071 C14.7904912,1.61175485 14.7051086,1.57239811 14.5278474,1.89380626 C14.3505863,2.21521441 14.9949744,3.29412219 15.3241175,3.8275236 C15.6532606,4.36092502 15.8902533,5.04645357 16.1644083,5.31730947 C16.4385633,5.58816538 15.9917698,2.34520141 15.8902533,1.93827467 C15.7887368,1.53134794 15.8872924,0.693127786 16.0971536,0.405306149 C16.3070148,0.117484512 16.3749946,0.693127786 16.6061864,0.988820772 C16.8373782,1.28451376 16.7118119,1.45404566 16.6061864,1.57239811 C16.5005609,1.69075057 16.4730064,1.45404566 16.3749946,1.68482354 C16.2769829,1.91560143 16.5134317,2.46637626 16.5134317,2.56951914 C16.5134317,2.67266202 16.9588052,6.16227201 16.4232754,7.17839717 C15.8877456,8.19452233 14.9762724,8.08369626 14.7678917,8.08369626 C14.5595109,8.08369626 14.5328326,7.75601612 14.7051086,7.71286483 C14.8773845,7.66971353 15.1963155,7.41265601 15.7942961,7.01498046 C16.3922766,6.61730491 16.314115,5.89329771 16.314115,5.61874133 C16.314115,5.34418495 16.2472833,5.46372909 16.1644083,5.61874133 C16.0815334,5.77375357 16.0663361,6.38182304 15.9419482,6.24898228 C15.8175603,6.11614152 14.8412797,4.1541375 14.7678917,4.09038272 C14.6945037,4.02662794 14.6596074,4.2743402 14.7678917,4.52797949 C14.8261986,4.66455449 14.8429916,5.09649125 14.8460725,5.51729665 L14.8460035,5.86811243 C14.8445834,6.09064087 14.8412797,6.28094048 14.8412797,6.38182304 C14.8412797,6.70969133 14.7095499,6.9251342 14.6197259,7.07704181 C14.5299019,7.22894941 14.2206089,7.31973647 14.2710953,7.17839717 C14.3215816,7.03705787 14.3361142,5.7702099 14.3361142,5.3908172 C14.3361142,5.35519155 14.3353235,5.30630273 14.3337998,5.24688676 C14.2217869,5.33162784 13.9629534,5.48449104 13.8925837,5.73819139 C13.759585,6.21768505 13.2241157,6.21066042 12.6772257,6.29890732 C12.1303357,6.38715423 11.8100451,6.46662035 11.6555044,6.70900141 C11.5009636,6.95138248 12.1080384,7.17864805 12.3378101,7.35489098 C12.5675818,7.53113391 12.3627965,7.80249157 11.5365246,7.73566351 C10.7102528,7.66883546 9.97456023,6.65920181 9.97456023,6.65920181 C9.97456023,6.65920181 8.78391664,7.96336812 8.24832643,8.11925844 C7.89126629,8.22318532 7.54178968,7.95319704 7.19989659,7.30929361 C6.90672739,7.38202779 6.69954509,7.47034787 6.57834969,7.57425384 C6.39655659,7.7301128 5.72854173,7.92071859 5.47006741,7.96336812 C5.2977512,7.99180115 5.39929792,7.83893183 5.77470757,7.50476019 C6.34499266,7.08152628 6.75759481,6.81627335 7.01251404,6.70900141 C7.39489288,6.5480935 7.48356875,6.11792904 7.59466286,5.87742957 C7.70575696,5.6369301 7.7674222,5.91208232 7.7674222,6.11792904 C7.7674222,6.32377576 8.07372408,5.91208232 8.5012113,5.50496742 C8.92869851,5.09785253 8.55514194,4.64169067 8.33594484,4.38547987 C8.11674774,4.12926906 7.96921647,3.87387361 8.33594484,3.4640304 C8.70267322,3.05418719 8.90072105,3.47274847 9.03946027,3.84176102 C9.1781995,4.21077358 9.01450413,4.14821047 8.90072105,4.14821047 C8.78693796,4.14821047 8.97126898,4.34204633 9.15463317,5.34315007 C9.33799735,6.34425381 8.13176373,6.70900141 7.88295765,6.86990932 C7.63415157,7.03081724 7.76527706,7.15490857 7.98459501,7.35489098 C8.20391296,7.55487339 9.02078849,6.93209611 9.5969853,6.29890732 C10.1731821,5.66571854 9.58674301,4.38547987 9.47317142,4.29491233 C9.35959982,4.20434479 9.04399226,3.62221 9.31122842,3.21048519 C9.52501735,2.88110535 9.68769996,3.10546699 9.82743018,3.39780295 L9.89551293,3.54738654 L9.89551293,3.54738654 L9.92836418,3.62221 C10.0908812,3.99216335 10.1632419,4.17649715 10.1632419,4.38547987 C10.1632419,4.59446258 10.0302432,5.73819139 10.4444971,5.13940447 C10.8587509,4.54061755 11.5365246,4.51107647 11.7576554,4.47391493 C11.9787861,4.43675339 12.0448927,4.51107647 12.0448927,4.09743871 C12.0448927,3.68380095 12.2139056,3.2563648 12.7514597,3.16165775 C13.2890137,3.06695069 13.3838833,3.38171053 13.4339164,4.09743871 C13.4839496,4.81316689 12.6772257,4.83370766 12.2139056,4.99684213 C11.7505855,5.1599766 12.2237853,5.13940447 12.5135606,5.23081873 C12.8033358,5.32223299 13.2596767,5.13940447 14.0457347,5.13940447 C14.1905777,5.13940447 14.2813574,5.1434549 14.3322478,5.153063 C14.3247482,4.9559077 14.3123395,4.67720323 14.295364,4.38775385 L14.271048,4.0138139 C14.2355521,3.52163028 14.1883625,3.08375594 14.136737,3.04455969 C14.0897208,3.0088631 13.9441645,2.7659566 13.785254,2.48603803 L13.6250472,2.20008574 C13.4666991,1.91440335 13.3233921,1.64844152 13.2803123,1.57239811 C13.1797928,1.39496351 12.6268904,0.548495689 12.6817577,0.809535927 C12.7366249,1.07057617 12.4698722,1.07104657 12.308745,1.07104657 C12.1476177,1.07104657 12.4698722,1.80220384 12.588006,2.03839501 C12.7061398,2.27458618 13.0464316,2.13819436 13.2803123,2.04888122 C13.514193,1.95956808 13.3337595,2.51206771 13.2118491,2.69367319 C13.0899386,2.87527867 12.9111367,2.80186502 12.8202552,2.69367319 C12.7293738,2.58548136 12.6961694,2.43670974 12.588006,2.56951914 C12.4798426,2.70232854 12.2637272,3.13484499 11.9320462,3.19590282 C11.6003652,3.25696064 11.3924981,2.69458263 11.1897068,2.62430498 C10.9869155,2.55402732 10.8368463,3.0479152 10.3741908,3.19590282 C9.9115354,3.34389043 9.70508829,2.71233236 9.66097695,2.56951914 C9.61686561,2.42670592 9.70508829,1.96524423 9.66097695,1.80220384 C9.61686561,1.63916345 9.44957487,1.89633954 9.40878699,2.04888122 C9.36799911,2.2014229 9.21533158,2.88067258 8.85736504,2.92997043 C8.4993985,2.97926827 8.36522148,2.57914665 8.15475601,2.13819436 C7.94429054,1.69724208 8.17227868,1.1427965 8.29222628,0.858582892 C8.41217387,0.574369284 8.60200269,0.988820772 8.49102943,1.34140071 C8.38005618,1.69398065 8.60200269,2.04888122 8.74324961,2.296029 C8.88449653,2.54317678 9.02090934,2.13819436 9.02090934,1.80220384 C9.02090934,1.46621332 9.40878699,0.809535927 9.75406396,0.604630003 C10.0993409,0.399724078 10.1743302,1.07104657 10.0609399,1.49321424 C9.94754959,1.91538191 10.1294938,2.36596169 10.3741908,2.52454897 C10.6188879,2.68313625 10.8486899,2.1951754 10.9266098,2.03839501 C11.0045298,1.88161463 10.9490583,1.42227802 10.8486899,1.14395845 C10.7483215,0.865638881 10.704059,0.244241437 11.1251108,0.120181468 C11.5461626,-0.00387850132 11.4482415,1.07104657 11.3840988,1.42227802 C11.3199561,1.77350948 11.4046136,2.04888122 11.5496674,2.296029 C11.6947212,2.54317678 11.9951617,2.37041481 12.1555638,2.13819436 C12.3159659,1.90597392 11.9951617,1.39897758 11.7817957,1.18689023 C11.5684298,0.974802873 11.6103658,0.604630003 11.9951617,0.244241437 C12.3799576,-0.116147129 12.4516234,0.405306149 12.5357371,0.604630003 C12.6198508,0.803953856 12.6817577,0.597887613 12.7443293,0.4892881 C12.806901,0.380688587 12.588006,0.314425009 12.8202552,0.120181468 Z M5.60652504,0.268486484 C5.85092416,0.213172488 5.9954874,0.584067582 6.04021474,1.38117176 C6.12736649,1.66521156 6.02533561,1.75128253 5.73412211,1.63938467 C5.59159193,1.62687272 5.66836248,2.20529801 5.96443374,3.37466053 C5.9859518,3.77500538 6.09402789,3.86906905 6.288662,3.65685154 C6.4382809,3.59772794 6.51839789,3.76040188 6.52901299,4.14487337 C6.62951458,4.29804197 6.77515731,4.11437784 6.9659412,3.59388099 C7.09972741,3.40321391 7.27162002,3.52517734 7.48161904,3.9597713 C7.58147292,4.0946762 7.73488807,3.96972483 7.94186448,3.58491721 C8.22096957,3.40620183 7.94186448,3.95495327 7.94186448,4.26560429 C7.94186448,4.57625531 7.89096598,4.59569551 7.55286613,4.75065686 C7.32746623,4.85396443 7.17977244,4.81949123 7.10978477,4.64723725 C7.05562978,4.58239923 6.83996338,4.66163532 6.46278558,4.8849455 C6.32025541,4.93794385 6.20509059,4.90586099 6.11729114,4.78869691 C6.05005844,4.70137008 6.03304786,4.94447323 6.02974453,5.32959683 L6.02948658,5.70946653 C6.02965004,5.75480443 6.02984104,5.80099731 6.03002305,5.84785675 L6.03071513,6.13550493 C6.03071513,6.91585805 4.8461782,7.89425469 3.74891896,8.08417479 C2.65165973,8.27409489 2.13425469,7.41525267 2.08713445,6.88364446 C2.04001421,6.35203625 2.16313135,5.84093269 2.39193168,5.84093269 C2.54446523,5.84093269 2.62073201,6.01047887 2.62073201,6.34957121 C2.70622852,7.04601961 3.10067835,7.40974368 3.80408149,7.44074342 C4.50748462,7.47174316 5.09394177,6.87658548 5.56345293,5.65527039 C5.60386227,5.44962632 5.61821964,5.21854753 5.60652504,4.96203401 C5.47892797,4.69177603 5.45361366,5.42322052 5.08793255,6.24357451 C4.72225143,7.0639285 3.94376897,7.01345121 3.48692396,7.00420731 C3.03007895,6.99496341 2.66110536,6.23433061 2.62073201,5.84093269 C2.59381644,5.57866741 2.62452826,5.34478744 2.71286746,5.13929277 C2.95539545,4.88569248 3.07237742,4.98033506 3.06381337,5.42322052 C3.05096731,6.0875487 3.3798914,6.19679478 3.96994688,6.24357451 C4.56000237,6.29035424 4.99568915,5.38534855 5.08793255,5.04197973 C5.14942815,4.81306718 4.99324228,4.87650461 4.61937495,5.232292 C4.46700332,5.3762167 4.13505663,5.24187204 3.96994688,4.8849455 C3.80483714,4.52801896 4.13505663,4.10638514 4.40660521,3.81567853 C4.58763761,3.62187413 4.78076041,3.60422668 4.98597364,3.7627362 C5.25153099,3.80863823 5.43819478,3.92227282 5.54596501,4.10363998 C5.67809598,4.20257771 5.67253655,3.9781844 5.52928671,3.43046006 C5.4379249,3.19968006 5.33650574,2.71557989 5.22502923,1.97815955 C5.19129356,1.85932072 5.16339758,1.72268223 5.14134128,1.56824407 C5.11512049,1.6084565 5.097273,1.69196194 5.08793255,1.81602717 C5.26292205,2.57712369 5.22529742,3.07611764 4.97505865,3.31300904 C4.5997005,3.66834614 4.5997005,3.66834614 4.17108885,3.31300904 C3.7424772,2.95767194 3.72022844,3.31300904 3.72022844,3.73892196 L3.72022844,5.45695069 C3.72022844,5.83320345 3.38447979,5.66983646 3.23912308,5.73261024 L3.214,5.749 L3.217682,5.71259673 C3.22920351,5.57674589 3.24262294,5.38170255 3.2579403,5.1274667 L3.26735846,4.9678221 C3.27692782,4.8102918 3.17668877,4.41611842 2.96664132,3.78530195 C2.78233544,3.62846694 2.58152241,3.35259027 2.36420224,2.95767194 C2.31415449,2.66456229 2.23578142,2.59548139 2.12908306,2.75042922 C2.12908306,3.05895364 2.03108374,3.71583767 1.52941003,3.52245086 C1.19496089,3.39352632 1.12164666,2.72984501 1.30946735,1.53140694 C1.44386145,1.54509017 1.51717568,1.70431605 1.52941003,2.00908459 C1.54164438,2.31385313 1.6288681,2.57966657 1.79108118,2.80652491 C1.87571409,3.02796764 1.93294566,2.78433956 1.96277588,2.07564066 C1.9636035,1.78555031 2.14236894,1.51114658 2.4990722,1.25242947 C2.69723268,1.14590988 2.79383006,1.31896686 2.78886436,1.77160043 C2.88353663,2.07140154 2.87984834,2.33394694 2.77779947,2.55923662 C2.76488143,2.85451849 2.86590478,2.92729318 3.0808695,2.7775607 C3.23214363,2.76994149 3.17573968,2.33949328 2.91165765,1.48621607 C2.78362878,1.18368848 2.754986,0.898789651 2.82572933,0.631519595 C2.83875532,0.470134196 2.94533809,0.36828324 3.14547766,0.325966726 C3.28286221,0.339561794 3.35218419,0.650773049 3.35344361,1.25960049 C3.35344361,1.83289028 3.51115877,2.34612274 3.65019856,2.45256763 C3.78923834,2.55901253 3.62688132,2.1302637 3.51115877,2.00998097 C3.39543622,1.88969824 3.51115877,1.53140694 3.51115877,1.18570533 C3.51115877,0.84000371 3.72022844,1.00631767 3.94895058,1.18570533 C4.17767272,1.36509298 4.09392762,1.69070231 4.09392762,2.00998097 C4.09392762,2.32925963 4.25358589,2.54573493 4.51790181,2.75042922 C4.78221774,2.95512351 4.72246733,2.54573493 4.72246733,2.34612274 C4.72246733,2.14651055 4.51790181,1.81602717 4.37702687,1.53140694 C4.23615194,1.24678672 4.35473517,1.18570533 4.51790181,0.912422067 C4.68106845,0.639138808 4.97505865,0.931974313 5.08793255,1.18570533 C5.09370451,1.19868021 5.09936646,1.2112321 5.1049037,1.22337033 L5.09789545,1.13797631 L5.09789545,1.13797631 L5.08679907,0.926259903 C5.04092026,0.78997309 5.21416225,0.570715284 5.60652504,0.268486484 Z M1.40251464,6.16693419 C1.43975744,6.55786706 1.44137669,6.85890069 1.40737239,7.07003507 C1.3733681,7.28116945 1.44693612,7.34850985 1.62807646,7.27205628 C1.79404981,7.08796263 1.94280511,7.4281381 1.94280511,7.4281381 C1.94280511,7.4281381 1.84349097,7.92327493 1.62807646,7.97470462 C1.41266195,8.02613431 1.08789394,7.92327493 1.01087151,7.4281381 C0.959523229,7.09804689 1.09007094,6.67764558 1.40251464,6.16693419 Z M11.0623579,5.70642375 C10.9427336,5.73343513 10.8072373,5.74694081 10.6558689,5.74694081 C10.4288164,5.74694081 10.2730671,5.67076749 10.3739189,5.92152166 C10.4747707,6.17227584 10.6858102,6.72521451 10.9040103,6.79376736 C11.1222104,6.86232022 11.1555658,6.72317611 11.1992239,6.52338186 C11.2428821,6.32358761 11.2371113,6.23841398 11.5278534,6.10055563 C11.8185955,5.96269728 11.8630392,5.74694081 11.6175868,5.74694081 C11.4539518,5.74694081 11.2688755,5.73343513 11.0623579,5.70642375 Z M6.63312914,5.29086714 C6.78773032,5.14981008 6.97556606,5.35591481 7.16364352,5.59164757 C7.35172098,5.82738033 7.17690713,6.00788821 7.08366906,6.17767099 C6.99043098,6.34745377 6.73709292,6.31703461 6.83184165,6.17767099 C6.92659039,6.03830736 6.80591869,5.68365767 6.63312914,5.59164757 C6.46033958,5.49963747 6.47852796,5.43192421 6.63312914,5.29086714 Z M19.3314707,4.78310583 C19.4860719,4.64204877 19.6565132,4.84859873 19.7344153,5.15339055 C19.8123174,5.45818237 19.6878955,5.65535325 19.5946574,5.82513603 C19.5014193,5.99491881 19.236722,5.84167079 19.3314707,5.70230717 C19.4262194,5.56294354 19.5042603,5.17589635 19.3314707,5.08388626 C19.1586811,4.99187616 19.1768695,4.92416289 19.3314707,4.78310583 Z M2.72494269,4.04280882 L2.81164184,4.05517954 C2.88195337,4.05517954 2.96279003,4.10390142 3.05415184,4.20134519 C3.19119454,4.34751083 2.71648379,4.64395292 2.40369824,4.7360347 C2.0909127,4.82811648 1.6777875,5.06663013 1.34362783,5.21968668 C1.00946816,5.37274323 1.51122043,4.81939785 1.99251615,4.39681163 C2.31337996,4.11508747 2.58642186,4.00121011 2.81164184,4.05517954 Z M19.1318126,4.03525042 C19.1318126,4.03525042 19.553105,3.71928344 19.6360797,3.86595745 C19.7190545,4.01263146 19.553105,4.24328037 19.3329087,4.48319715 C19.1127124,4.72311392 18.5162568,5.00797312 18.3679064,4.93114388 C18.2195561,4.85431463 18.258533,4.752395 18.3679064,4.61367255 C18.4772799,4.47495009 19.1318126,4.03525042 19.1318126,4.03525042 Z M4.59542416,4.30162336 C4.38526082,4.36768832 4.33271999,4.44962142 4.43780166,4.54742266 C4.59542416,4.69412451 4.8370697,4.71209376 4.8370697,4.54742266 C4.8370697,4.43764192 4.75652119,4.35570882 4.59542416,4.30162336 Z M11.0790817,3.49373635 C11.2465115,3.48788957 11.1981065,3.62021097 11.2454262,3.66675677 C11.2927458,3.71330258 11.2410381,3.54109786 11.3191502,3.53837012 C11.3972624,3.53564239 11.4159877,3.61592857 11.4205297,3.74599309 C11.4250717,3.87605761 11.5287862,3.76841421 11.5248955,3.65699749 C11.5210047,3.54558078 11.6202517,3.52785543 11.708609,3.52476992 C11.7969663,3.52168442 11.6396472,4.08327127 11.2604336,4.0965137 C11.0076246,4.10534199 10.8919804,3.92401599 10.9135011,3.5525357 C10.9122683,3.51723398 10.9674619,3.4976342 11.0790817,3.49373635 Z M18.7450457,2.25474612 C18.8508067,2.01410404 19.2110088,2.29530981 19.3039736,2.59338579 C19.3969385,2.89146177 19.2110088,2.77954896 19.0345515,2.85659311 C18.8580942,2.93363726 19.0345515,3.41852112 19.0345515,3.7149853 C19.0345515,4.01144947 18.3194571,3.34760182 18.0546935,3.03625534 C17.8781845,2.82869102 17.9244599,2.68106784 18.1935197,2.59338579 C18.3368664,2.59338579 18.4854547,2.65671171 18.6392846,2.78336356 C18.8700294,2.97334132 18.6392846,2.49538821 18.7450457,2.25474612 Z M7.45773643,2.18768037 C7.61155206,2.18768037 7.41785494,2.3993914 7.45773643,2.53696751 C7.48432408,2.62868492 7.53559596,2.67454362 7.61155206,2.67454362 L7.80929776,2.60304293 C7.96545995,2.63461195 7.99554227,2.70018561 7.89954472,2.79976391 C7.75554839,2.94913136 7.59034236,3.11527638 7.45773643,3.03220387 C7.32513049,2.94913136 7.084059,2.75909005 7.13623728,2.60304293 C7.18841555,2.44699581 7.30392079,2.18768037 7.45773643,2.18768037 Z M15.1624905,2.15210102 C15.3299203,2.14625424 15.2815153,2.27857563 15.328835,2.32512144 C15.3761546,2.37166725 15.3244469,2.19946253 15.402559,2.19673479 C15.4806712,2.19400705 15.4993965,2.27429324 15.5039385,2.40435776 C15.5084804,2.53442228 15.612195,2.42677888 15.6083043,2.31536216 C15.6044135,2.20394545 15.7036605,2.18622009 15.7920178,2.18313459 C15.8803751,2.18004908 15.723056,2.74163594 15.3438424,2.75487837 C15.0910334,2.76370665 14.9753892,2.58238065 14.9969099,2.21090037 C14.9956771,2.17559865 15.0508707,2.15599887 15.1624905,2.15210102 Z M21.5292606,1.23456588 C21.6838618,1.09350882 21.8543031,1.30005878 21.9322052,1.6048506 C22.0101072,1.90964242 21.8856854,2.1068133 21.7924473,2.27659608 C21.6992092,2.44637886 21.4345118,2.29313085 21.5292606,2.15376722 C21.6240093,2.0144036 21.7020501,1.62735641 21.5292606,1.53534631 C21.356471,1.44333621 21.3746594,1.37562295 21.5292606,1.23456588 Z M7.27944806,0.485650346 C7.21258615,0.264060927 7.76295064,0.171988108 7.95181364,0.246436634 C8.14067664,0.320885159 8.03692435,0.847387389 7.95181364,0.847387389 C7.86670292,0.847387389 7.76110763,0.761367041 7.76110763,0.704793689 C7.76110763,0.648220336 7.70131562,0.543634896 7.6273838,0.704793689 C7.55345199,0.865952481 7.89894046,0.940212846 7.95181364,0.98969885 C8.00468682,1.03918485 7.95181364,1.39076127 7.70131562,1.56772548 C7.45081759,1.74468969 7.12949982,2.24321884 6.97559345,2.29515092 C6.82168708,2.347083 6.48468863,2.29515092 6.28446545,2.29515092 C6.08424227,2.29515092 6.4305465,2.10460786 6.53269748,2.04201339 C6.63484846,1.97941893 7.27944806,1.43504153 7.48976247,1.18726655 C7.70007687,0.939491567 7.34630998,0.707239765 7.27944806,0.485650346 Z M14.9668708,0.415528287 C15.1214719,0.274471224 15.3093077,0.480575955 15.4973851,0.716308712 C15.6854626,0.95204147 15.5906232,1.36110292 15.4973851,1.5308857 C15.4041471,1.70066848 15.150809,1.67024933 15.2455577,1.5308857 C15.3403065,1.39152207 15.1396603,0.808318811 14.9668708,0.716308712 C14.7940812,0.624298614 14.8122696,0.55658535 14.9668708,0.415528287 Z M1.66090223,0.239223845 C1.70367924,0.181859672 1.83470906,0.110836202 2.02711699,0.239223845 C2.21952491,0.367611487 2.15380113,0.936951411 2.02711699,1.19893245 C1.90043285,1.46091349 1.96977225,0.878653261 1.85547554,0.594093059 C1.74117883,0.309532857 1.61812523,0.296588018 1.66090223,0.239223845 Z M10.4389378,0.0729847404 C10.5688548,-0.124802475 10.6747522,0.121498586 10.7160839,0.312857011 C10.7574156,0.504215437 10.5695195,0.751551377 10.3748857,0.962729292 C10.2289104,1.12111273 10.2053498,0.961253414 10.2026929,0.815567818 L10.2029045,0.724191815 L10.2029045,0.724191815 L10.2032443,0.686918516 C10.2032443,0.5545168 10.3090209,0.270771956 10.4389378,0.0729847404 Z M9.05154557,0.0450116635 C9.14278957,0.0450116635 9.05154557,0.28773769 8.88529349,0.391162811 C8.7190414,0.494587932 8.95652491,0.526637803 9.09689565,0.602905205 C9.23726639,0.679172608 9.05154557,0.876301265 8.83819474,0.940275566 C8.6248439,1.00424987 8.6248439,0.800159302 8.6248439,0.526637803 C8.6248439,0.253116303 8.96030157,0.0450116635 9.05154557,0.0450116635 Z M3.99780856,0.175416882 C4.16534039,0.175416882 4.11234698,0.305968361 4.15801337,0.354137247 C4.20367977,0.402306133 4.15801337,0.228401735 4.23617313,0.228401735 C4.31433288,0.228401735 4.33024491,0.309292516 4.33024491,0.439436316 C4.33024491,0.569580116 4.437653,0.465621876 4.437653,0.354137247 C4.437653,0.242652619 4.53745813,0.228401735 4.6258693,0.228401735 C4.71428047,0.228401735 4.53745813,0.784156128 4.15801337,0.784156128 C3.9050502,0.784156128 3.79580466,0.598904663 3.83027674,0.228401735 C3.83027674,0.1930785 3.88612068,0.175416882 3.99780856,0.175416882 Z" id="Combined-Shape"></path>
                    <path d="M17.2460382,11.3961506 C17.4160203,11.3961506 17.6202213,11.4265198 17.6202213,11.6410856 C17.6202213,11.8556514 17.3089519,11.9425752 17.4645866,11.9425752 C17.6202213,11.9425752 18.2804267,12.1297449 18.6238758,12.03616 C18.967325,11.9425752 20.0175634,13.112226 20.0175634,14.0053994 C20.0175634,14.8985727 19.6939661,13.5970489 19.5203137,13.5970489 C19.3466613,13.5970489 19.6180996,14.8885367 19.0346735,14.8885367 C18.4512474,14.8885367 18.7528972,14.6764527 18.2033367,14.8885367 C17.6537763,15.1006208 16.6450755,15.1561098 16.5094976,15.1006208 C16.3739198,15.0451317 16.0663219,14.4551781 16.1247475,14.1805035 C16.183173,13.9058289 16.2457902,13.7691843 15.873053,13.7691843 C15.5003157,13.7691843 12.3782654,13.4914253 10.4389378,13.5970489 C8.49961024,13.7026724 6.39292496,13.8356962 5.90581592,13.7691843 C5.41870688,13.7026724 4.02164032,13.413869 3.84367261,13.1256172 C3.66570489,12.8373655 3.50847334,11.5830816 3.78350613,11.6410856 C5.01111121,11.9372489 9.12049152,11.9541217 9.93369957,11.8556514 C10.1821798,11.8255633 10.9306156,11.8138623 11.8559387,11.8121211 L12.3762612,11.8121085 C14.4231898,11.8154579 16.9866486,11.8556514 17.1133914,11.8556514 C17.0279972,11.7832619 16.9853001,11.71174 16.9853001,11.6410856 C16.9853001,11.535104 17.0760561,11.3961506 17.2460382,11.3961506 Z M17.2339698,13.3741091 C16.8130731,13.8928632 16.793855,13.7176945 17.0139124,13.7176945 C17.2339698,13.7176945 17.5275121,13.9538298 17.5932241,13.9538298 C17.658936,13.9538298 17.7622333,13.7820371 17.9031161,13.7820371 C18.0439989,13.7820371 18.1087599,13.9538298 18.2453386,13.9538298 C18.3819173,13.9538298 18.8506933,13.7176945 18.6483026,13.5459018 C18.4459119,13.3741091 18.1346686,13.3741091 17.8990465,13.3741091 C17.6634245,13.3741091 17.6548664,12.855355 17.2339698,13.3741091 Z" id="Path-263"></path>
                </g>
            </g>
        </g>
    </g>
</svg>