<?xml version="1.0" encoding="UTF-8"?>
<svg width="32px" height="24px" viewBox="0 0 32 24" version="1.1" xmlns="http://www.w3.org/2000/svg" xmlns:xlink="http://www.w3.org/1999/xlink">
    <title>flags/L/SB - Solomon Islands</title>
    <defs>
        <rect id="path-1" x="0" y="0" width="32" height="24"></rect>
        <rect id="path-3" x="0" y="0" width="32" height="24"></rect>
    </defs>
    <g id="Symbols" stroke="none" stroke-width="1" fill="none" fill-rule="evenodd">
        <g id="flag">
            <mask id="mask-2" fill="white">
                <use xlink:href="#path-1"></use>
            </mask>
            <g id="mask"></g>
            <g id="contents" mask="url(#mask-2)">
                <mask id="mask-4" fill="white">
                    <use xlink:href="#path-3"></use>
                </mask>
                <use id="background" fill="#3D58DB" xlink:href="#path-3"></use>
                <polygon id="green" fill="#579D20" mask="url(#mask-4)" points="0 24 32 24 32 0"></polygon>
                <polygon id="Path-14" fill="#FECA00" fill-rule="nonzero" mask="url(#mask-4)" points="-0.781995104 24.7452664 -2.58574374 22.2491779 33.6751904 -1.95430011 35.478939 0.541788393"></polygon>
                <g id="mark" mask="url(#mask-4)" fill="#F7FCFF">
                    <g transform="translate(2.000000, 2.000000)" id="Combined-Shape">
                        <path d="M3.01685017,0.234016864 L3.59029844,1.83588377 L4.9434042,1.83588377 L3.94470896,2.92664719 L4.44487142,4.45096182 L3.01685017,3.60077606 L1.65328072,4.54657389 L2.08899139,2.92664719 L1.08799009,1.89183677 L2.44340191,1.83588377 L3.01685017,0.234016864 Z M8.67502933,0.234016864 L9.2484776,1.83588377 L10.6015834,1.83588377 L9.60288812,2.92664719 L10.1030506,4.45096182 L8.67502933,3.60077606 L7.31145988,4.54657389 L7.74717055,2.92664719 L6.74616925,1.89183677 L8.10158107,1.83588377 L8.67502933,0.234016864 Z"></path>
                        <path d="M3.01685017,6.23401686 L3.59029844,7.83588377 L4.9434042,7.83588377 L3.94470896,8.92664719 L4.44487142,10.4509618 L3.01685017,9.60077606 L1.65328072,10.5465739 L2.08899139,8.92664719 L1.08799009,7.89183677 L2.44340191,7.83588377 L3.01685017,6.23401686 Z M8.67502933,6.23401686 L9.2484776,7.83588377 L10.6015834,7.83588377 L9.60288812,8.92664719 L10.1030506,10.4509618 L8.67502933,9.60077606 L7.31145988,10.5465739 L7.74717055,8.92664719 L6.74616925,7.89183677 L8.10158107,7.83588377 L8.67502933,6.23401686 Z M6.01155573,3.14198616 L6.58500399,4.74385307 L7.93810976,4.74385307 L6.93941451,5.83461649 L7.43957698,7.35893111 L6.01155573,6.50874536 L4.64798627,7.45454319 L5.08369694,5.83461649 L4.08269564,4.79980607 L5.43810746,4.74385307 L6.01155573,3.14198616 Z"></path>
                    </g>
                </g>
            </g>
        </g>
    </g>
</svg>