<?xml version="1.0" encoding="UTF-8"?>
<svg width="32px" height="24px" viewBox="0 0 32 24" version="1.1" xmlns="http://www.w3.org/2000/svg" xmlns:xlink="http://www.w3.org/1999/xlink">
    <title>flags/L/SH - Saint Helena</title>
    <defs>
        <rect id="path-1" x="0" y="0" width="32" height="24"></rect>
        <rect id="path-3" x="0" y="0" width="32" height="24"></rect>
        <rect id="path-5" x="0" y="0" width="18" height="14"></rect>
        <path d="M0.0379462781,0.0326909109 C0.0379462781,5.9194717 -0.322833339,9.96398849 3.95022629,9.96398849 C8.22328593,9.96398849 8.22328593,4.9983397 7.9400373,0.0326909109 L0.0379462781,0.0326909109 Z" id="path-7"></path>
        <rect id="path-9" x="0" y="0" width="12" height="6"></rect>
        <filter x="-4.2%" y="-8.3%" width="108.3%" height="133.3%" filterUnits="objectBoundingBox" id="filter-10">
            <feOffset dx="0" dy="1" in="SourceAlpha" result="shadowOffsetOuter1"></feOffset>
            <feColorMatrix values="0 0 0 0 0   0 0 0 0 0   0 0 0 0 0  0 0 0 0.5 0" type="matrix" in="shadowOffsetOuter1"></feColorMatrix>
        </filter>
    </defs>
    <g id="Symbols" stroke="none" stroke-width="1" fill="none" fill-rule="evenodd">
        <g id="flag">
            <mask id="mask-2" fill="white">
                <use xlink:href="#path-1"></use>
            </mask>
            <g id="mask"></g>
            <g id="contents" mask="url(#mask-2)">
                <mask id="mask-4" fill="white">
                    <use xlink:href="#path-3"></use>
                </mask>
                <use id="background" fill="#2E42A5" xlink:href="#path-3"></use>
                <g id="gb---large" mask="url(#mask-4)">
                    <g id="flag">
                        <mask id="mask-6" fill="white">
                            <use xlink:href="#path-5"></use>
                        </mask>
                        <use id="mask" fill="#2B409A" xlink:href="#path-5"></use>
                        <g id="contents" mask="url(#mask-6)">
                            <g transform="translate(-3.000000, -2.000000)">
                                <g id="stripe">
                                    <polygon id="white" fill="#F7FCFF" fill-rule="nonzero" transform="translate(12.087462, 8.731805) scale(1, -1) translate(-12.087462, -8.731805) " points="0.995733743 2.46378897 4.95668418 0.726588534 21.0898804 13.5748663 23.1791912 16.1563978 18.9435246 16.7370214 12.3631795 11.2003309 7.066678 7.46989524"></polygon>
                                    <polygon id="red" fill="#F50100" fill-rule="nonzero" transform="translate(11.983464, 9.146214) scale(1, -1) translate(-11.983464, -9.146214) " points="1.53799381 2.07548339 3.55591517 1.0673567 22.4289341 17.2250722 19.5955377 17.2250722"></polygon>
                                </g>
                                <g id="stripe" transform="translate(12.000000, 8.500000) scale(-1, 1) translate(-12.000000, -8.500000) ">
                                    <polygon id="white" fill="#F7FCFF" fill-rule="nonzero" transform="translate(12.087462, 8.731805) scale(1, -1) translate(-12.087462, -8.731805) " points="0.995733743 2.46378897 4.95668418 0.726588534 21.0898804 13.5748663 23.1791912 16.1563978 18.9435246 16.7370214 12.3631795 11.2003309 7.066678 7.46989524"></polygon>
                                    <polygon id="red" fill="#F50100" fill-rule="nonzero" transform="translate(12.255557, 9.098760) scale(1, -1) translate(-12.255557, -9.098760) " points="1.13088612 2.32417911 3.14880748 1.31605242 11.1851345 8.23400982 13.567733 9.00693659 23.3802288 16.8814684 20.5468324 16.8814684 10.7398496 9.19384456 8.134898 8.26702255"></polygon>
                                </g>
                                <g id="cross" transform="translate(3.000000, 2.000000)">
                                    <path d="M10.7345755,-0.75 L10.7340639,5.25 L18.75,5.25 L18.75,8.75 L10.7340639,8.75 L10.7345755,14.75 L7.23457546,14.75 L7.23406394,8.75 L-0.75,8.75 L-0.75,5.25 L7.23406394,5.25 L7.23457546,-0.75 L10.7345755,-0.75 Z" id="red" stroke="#F7FCFF" stroke-width="1.5" fill="#F50100"></path>
                                </g>
                            </g>
                        </g>
                    </g>
                </g>
                <g id="masked" mask="url(#mask-4)">
                    <g transform="translate(22.000000, 10.000000)">
                        <mask id="mask-8" fill="white">
                            <use xlink:href="#path-7"></use>
                        </mask>
                        <path stroke="#F7FCFF" stroke-width="0.5" d="M8.17596493,-0.217309089 C8.34996254,2.74005177 8.43531259,5.72143381 7.63552834,7.7122287 C7.31501183,8.51004716 6.85424075,9.15296426 6.21332498,9.58817384 C5.62581155,9.98712091 4.88473287,10.2139885 3.95022629,10.2139885 C3.11262578,10.2139885 2.44430636,10.0634469 1.90945428,9.7854847 C1.33097307,9.4848485 0.904287986,9.03519089 0.59210502,8.45121729 C-0.106790905,7.14385331 -0.215511862,5.13176394 -0.219453251,2.63159605 L-0.219453251,2.63159605 L-0.219037821,2.07907451 C-0.218369616,1.82686209 -0.217175926,1.57007104 -0.215961813,1.30892422 C-0.213666716,0.815265746 -0.211297928,0.306017966 -0.212283033,-0.217309089 L-0.212283033,-0.217309089 Z"></path>
                        <rect id="Rectangle-58" stroke="none" fill="#2E42A5" fill-rule="evenodd" mask="url(#mask-8)" x="2" y="8" width="6" height="2"></rect>
                        <g id="mark" stroke="none" stroke-width="1" fill="none" fill-rule="evenodd" mask="url(#mask-8)">
                            <g transform="translate(-2.000000, -2.000000)">
                                <g id="Rectangle-56" fill="none">
                                    <use fill="black" fill-opacity="1" filter="url(#filter-10)" xlink:href="#path-9"></use>
                                    <use fill="#FDFF00" fill-rule="evenodd" xlink:href="#path-9"></use>
                                </g>
                                <g id="top" stroke-width="1" fill="none" fill-rule="evenodd" transform="translate(4.000000, 2.000000)">
                                    <path d="" id="Path-215" stroke="#272727" fill="#F7FCFF"></path>
                                </g>
                                <g id="mast" stroke-width="1" fill="none" fill-rule="evenodd" transform="translate(4.000000, 6.000000)">
                                    <polygon id="Path-217" fill="#FDFF00" fill-rule="nonzero" points="0.82628507 0.0440717015 1.02628507 0.0440717015 1.02628507 3.99926493 0.82628507 3.99926493"></polygon>
                                    <g id="sail" transform="translate(0.000000, 2.666667)">
                                        <path d="M0.100309747,0.145917093 L1.88309784,0.145917093 C1.89456444,0.488877274 1.81008312,0.628631333 1.62965387,0.565179268 C1.35901001,0.470001171 1.65682007,0.660357365 1.2450406,0.565179268 C0.833261128,0.470001171 0.470402238,0.863873658 0.378080049,0.666937415 C0.285757859,0.470001171 -0.0724393764,0.722870132 0.0139351851,0.434393613 C0.0715182261,0.242075933 0.100309747,0.145917093 0.100309747,0.145917093 Z" id="Path-218" fill="#F7FCFF"></path>
                                        <rect id="Rectangle-57" fill="#212123" x="0.133333333" y="0.0972499177" width="1.73333333" height="1"></rect>
                                    </g>
                                    <g id="sail" transform="translate(0.266667, 1.948718)">
                                        <path d="M0.0802477973,0.116733675 L1.50647827,0.116733675 C1.51565155,0.391101819 1.44806649,0.502905066 1.3037231,0.452143414 C1.08720801,0.376000937 1.32545605,0.528285892 0.996032478,0.452143414 C0.666608902,0.376000937 0.37632179,0.691098927 0.302464039,0.533549932 C0.228606287,0.376000937 -0.0579515011,0.578296105 0.0111481481,0.34751489 C0.0572145809,0.193660746 0.0802477973,0.116733675 0.0802477973,0.116733675 Z" id="Path-218" fill="#F7FCFF"></path>
                                        <rect id="Rectangle-57" fill="#212123" x="0.106666667" y="0.0777999342" width="1.38666667" height="1"></rect>
                                    </g>
                                    <g id="sail" transform="translate(0.000000, 1.128205)">
                                        <path d="M0.0869351137,0.116733675 L1.63201813,0.116733675 C1.64195585,0.391101819 1.5687387,0.502905066 1.41236669,0.452143414 C1.17780868,0.376000937 1.43591072,0.528285892 1.07903518,0.452143414 C0.722159644,0.376000937 0.40768194,0.691098927 0.327669375,0.533549932 C0.247656811,0.376000937 -0.0627807929,0.578296105 0.0120771604,0.34751489 C0.0619824626,0.193660746 0.0869351137,0.116733675 0.0869351137,0.116733675 Z" id="Path-218" fill="#F7FCFF"></path>
                                        <rect id="Rectangle-57" fill="#212123" x="0.115555556" y="0.0777999342" width="1.50222222" height="1"></rect>
                                    </g>
                                    <g id="sail" transform="translate(0.133333, 0.410256)">
                                        <path d="M0.0802477973,0.145917093 L1.50647827,0.145917093 C1.51565155,0.488877274 1.44806649,0.628631333 1.3037231,0.565179268 C1.08720801,0.470001171 1.32545605,0.660357365 0.996032478,0.565179268 C0.666608902,0.470001171 0.37632179,0.863873658 0.302464039,0.666937415 C0.228606287,0.470001171 -0.0579515011,0.722870132 0.0111481481,0.434393613 C0.0572145809,0.242075933 0.0802477973,0.145917093 0.0802477973,0.145917093 Z" id="Path-218" fill="#F7FCFF"></path>
                                        <rect id="Rectangle-57" fill="#212123" x="0.106666667" y="0.0972499177" width="1.38666667" height="1"></rect>
                                    </g>
                                </g>
                                <g id="mast" stroke-width="1" fill="none" fill-rule="evenodd" transform="translate(6.000000, 6.500000)">
                                    <polygon id="Path-217" fill="#FDFF00" fill-rule="nonzero" points="0.742448289 0.0440717015 0.942448289 0.0440717015 0.942448289 3.99926493 0.742448289 3.99926493"></polygon>
                                    <g id="sail" transform="translate(0.000000, 2.358974)">
                                        <path d="M0.100309747,0.116733675 L1.88309784,0.116733675 C1.89456444,0.391101819 1.81008312,0.502905066 1.62965387,0.452143414 C1.35901001,0.376000937 1.65682007,0.528285892 1.2450406,0.452143414 C0.833261128,0.376000937 0.470402238,0.691098927 0.378080049,0.533549932 C0.285757859,0.376000937 -0.0724393764,0.578296105 0.0139351851,0.34751489 C0.0715182261,0.193660746 0.100309747,0.116733675 0.100309747,0.116733675 Z" id="Path-218" fill="#F7FCFF"></path>
                                        <rect id="Rectangle-57" fill="#212123" x="0.133333333" y="0.0777999342" width="1.73333333" height="1"></rect>
                                    </g>
                                    <g id="sail" transform="translate(0.285714, 1.641026)">
                                        <path d="M0.0788148009,0.089336996 L1.47957688,0.089336996 C1.48858635,0.295113105 1.42220816,0.378965539 1.28044233,0.340894301 C1.06779358,0.283787443 1.3017872,0.398001159 0.978246184,0.340894301 C0.654705172,0.283787443 0.369601758,0.520110935 0.297062895,0.401949189 C0.224524032,0.283787443 -0.0569166529,0.435508819 0.010949074,0.262422907 C0.0561928919,0.1470323 0.0788148009,0.089336996 0.0788148009,0.089336996 Z" id="Path-218" fill="#F7FCFF"></path>
                                        <rect id="Rectangle-57" fill="#212123" x="0.104761905" y="0.059540766" width="1.36190476" height="1"></rect>
                                    </g>
                                    <g id="sail" transform="translate(0.000000, 0.820513)">
                                        <path d="M0.0859797828,0.089336996 L1.61408386,0.089336996 C1.62391238,0.295113105 1.55149982,0.378965539 1.39684618,0.340894301 C1.16486572,0.283787443 1.42013149,0.398001159 1.06717766,0.340894301 C0.714223824,0.283787443 0.403201918,0.520110935 0.324068613,0.401949189 C0.244935308,0.283787443 -0.0620908941,0.435508819 0.0119444444,0.262422907 C0.0613013367,0.1470323 0.0859797828,0.089336996 0.0859797828,0.089336996 Z" id="Path-218" fill="#F7FCFF"></path>
                                        <rect id="Rectangle-57" fill="#212123" x="0.114285714" y="0.059540766" width="1.48571429" height="1"></rect>
                                    </g>
                                    <g id="sail" transform="translate(0.142857, 0.102564)">
                                        <path d="M0.0788148009,0.116733675 L1.47957688,0.116733675 C1.48858635,0.391101819 1.42220816,0.502905066 1.28044233,0.452143414 C1.06779358,0.376000937 1.3017872,0.528285892 0.978246184,0.452143414 C0.654705172,0.376000937 0.369601758,0.691098927 0.297062895,0.533549932 C0.224524032,0.376000937 -0.0569166529,0.578296105 0.010949074,0.34751489 C0.0561928919,0.193660746 0.0788148009,0.116733675 0.0788148009,0.116733675 Z" id="Path-218" fill="#F7FCFF"></path>
                                        <rect id="Rectangle-57" fill="#212123" x="0.104761905" y="0.0777999342" width="1.36190476" height="1"></rect>
                                    </g>
                                </g>
                                <g id="mast" stroke-width="1" fill="none" fill-rule="evenodd" transform="translate(8.000000, 6.000000)">
                                    <polygon id="Path-217" fill="#FDFF00" fill-rule="nonzero" points="1.49038873 0.0585953304 1.69038873 0.0585953304 1.69038873 5.3172045 1.49038873 5.3172045"></polygon>
                                    <g id="sail" transform="translate(0.545455, 3.136364)">
                                        <path d="M0.12766695,0.116733675 L2.39666998,0.116733675 C2.41126383,0.391101819 2.30374215,0.502905066 2.07410493,0.452143414 C1.7296491,0.376000937 2.10868009,0.528285892 1.58459712,0.452143414 C1.06051416,0.376000937 0.598693758,0.691098927 0.481192789,0.533549932 C0.363691821,0.376000937 -0.09219557,0.578296105 0.0177356901,0.34751489 C0.0910231968,0.193660746 0.12766695,0.116733675 0.12766695,0.116733675 Z" id="Path-218" fill="#F7FCFF"></path>
                                        <rect id="Rectangle-57" fill="#212123" x="0.16969697" y="0.0777999342" width="2.20606061" height="1"></rect>
                                    </g>
                                    <g id="sail" transform="translate(0.909091, 2.181818)">
                                        <path d="M0.100309747,0.0736576743 L1.88309784,0.0736576743 C1.89456444,0.279433783 1.81008312,0.363286218 1.62965387,0.325214979 C1.35901001,0.268108121 1.65682007,0.382321837 1.2450406,0.325214979 C0.833261128,0.268108121 0.470402238,0.504431613 0.378080049,0.386269867 C0.285757859,0.268108121 -0.0724393764,0.419829497 0.0139351851,0.246743586 C0.0715182261,0.131352978 0.100309747,0.0736576743 0.100309747,0.0736576743 Z" id="Path-218" fill="#F7FCFF"></path>
                                        <rect id="Rectangle-57" fill="#212123" x="0.133333333" y="0.0490909091" width="1.73333333" height="1"></rect>
                                    </g>
                                    <g id="sail" transform="translate(0.727273, 0.818182)">
                                        <path d="M0.100309747,0.116733675 L1.88309784,0.116733675 C1.89456444,0.391101819 1.81008312,0.502905066 1.62965387,0.452143414 C1.35901001,0.376000937 1.65682007,0.528285892 1.2450406,0.452143414 C0.833261128,0.376000937 0.470402238,0.691098927 0.378080049,0.533549932 C0.285757859,0.376000937 -0.0724393764,0.578296105 0.0139351851,0.34751489 C0.0715182261,0.193660746 0.100309747,0.116733675 0.100309747,0.116733675 Z" id="Path-218" fill="#F7FCFF"></path>
                                        <rect id="Rectangle-57" fill="#212123" x="0.133333333" y="0.0777999342" width="1.73333333" height="1"></rect>
                                    </g>
                                </g>
                                <path d="M4.18505047,9.68678833 C4.80217167,10.0221009 5.58115993,10.1608799 6.52201525,10.1031254 C7.93329824,10.0164937 7.83195475,10.2888777 8.19801883,9.9013214 C8.56408291,9.51376513 8.59623225,9.60015658 9.05282595,9.39673416 C9.50941965,9.19331175 9.5748874,9.00136414 9.81030825,9.00136414 C9.96725549,9.00136414 10.8812953,8.96782087 12.5524278,8.90073432 C12.3994749,9.03803144 12.3229984,9.20336472 12.3229984,9.39673416 C12.3229984,9.68678833 12.475927,9.7165267 12.3229984,9.97954599 C12.1700698,10.2425653 11.9973402,10.594259 11.7753636,10.6963306 C11.553387,10.7984023 8.55743384,10.8629256 7.7934486,10.8629256 C7.02946337,10.8629256 5.46042942,10.9479953 5.27988164,10.8629256 C5.15951646,10.8062124 4.79457274,10.4141667 4.18505047,9.68678833 Z" id="ship-base" fill="#272727" fill-rule="evenodd"></path>
                                <path d="M2.1176577,7.68638873 L3.01086345,6.86361041 C3.03686365,6.86361041 3.10519678,7.00074013 3.21586285,7.27499957 C3.38186196,7.68638873 3.38971159,8.24906853 3.56240355,8.10853651 C3.7350955,7.96800449 4.00082628,8.09777789 4.11270422,7.68638873 C4.22458217,7.27499957 4.21755881,6.7422705 4.35984376,7.00863504 C4.50212871,7.27499957 4.41760054,6.88561481 4.64466154,7.49707566 C4.87172254,8.10853651 4.96162151,7.23436903 5.08647201,8.10853651 C5.21132251,8.982704 5.31700338,9.28433947 5.31700338,9.48768922 C5.31700338,9.69103898 6.45420881,10.2969109 6.01801703,10.714172 C5.58182525,11.1314331 5.70527108,10.9347828 5.31700338,11.1971671 C4.92873568,11.4595513 4.53088316,11.3069602 5.08647201,11.5130685 C5.64206086,11.7191769 5.56249036,12.092773 5.56249036,12.3682409 C5.56249036,12.6437089 5.52828248,12.7671375 5.08647201,12.7054232 C4.64466154,12.6437089 4.10733342,12.8636104 4,12.8636104 C3.89266658,12.8636104 2.5973943,12.5996498 2.5973943,12.0563592 C2.5973943,11.6941654 2.4374821,10.2375086 2.1176577,7.68638873 Z" id="cliffs" fill="#CE6201" fill-rule="evenodd"></path>
                            </g>
                        </g>
                    </g>
                </g>
            </g>
        </g>
    </g>
</svg>