<?xml version="1.0" encoding="UTF-8"?>
<svg width="32px" height="24px" viewBox="0 0 32 24" version="1.1" xmlns="http://www.w3.org/2000/svg" xmlns:xlink="http://www.w3.org/1999/xlink">
    <title>flags/L/SI - Slovenia</title>
    <defs>
        <rect id="path-1" x="0" y="0" width="32" height="24" rx="2"></rect>
        <rect id="path-3" x="0" y="0" width="32" height="24"></rect>
    </defs>
    <g id="Symbols" stroke="none" stroke-width="1" fill="none" fill-rule="evenodd">
        <g id="flag">
            <mask id="mask-2" fill="white">
                <use xlink:href="#path-1"></use>
            </mask>
            <g id="mask"></g>
            <g id="contents" mask="url(#mask-2)">
                <mask id="mask-4" fill="white">
                    <use xlink:href="#path-3"></use>
                </mask>
                <use id="background" fill="#2E42A5" xlink:href="#path-3"></use>
                <rect id="top" fill="#F7FCFF" mask="url(#mask-4)" x="0" y="0" width="32" height="8"></rect>
                <rect id="bottom" fill="#C51918" mask="url(#mask-4)" x="0" y="16" width="32" height="8"></rect>
                <g id="mark" mask="url(#mask-4)">
                    <g transform="translate(2.000000, 4.000000)">
                        <path d="M11.7402274,1.03625041 C10.3370688,0.373627712 8.76288935,0.04231636 7.0176891,0.04231636 C5.27248886,0.04231636 3.69830943,0.373627712 2.29515083,1.03625041 C2.45130149,3.69939446 2.65277733,5.73636775 2.89957835,7.14717029 C3.0576426,8.05072186 3.81737636,9.36856355 4.50518075,9.99231208 C5.02782425,10.4662813 5.86532704,10.9840297 7.0176891,11.5455571 C7.51789651,11.2008721 8.45315823,11.0458742 9.64859584,9.99231208 C10.4455543,9.28993732 10.9430751,8.34155672 11.1411584,7.14717029 L11.7402274,1.03625041 Z" id="Path-267" fill="#2E42A5" fill-rule="evenodd"></path>
                        <path d="M11.461973,0.905678673 L12.3384949,1.34340193 L11.7367901,7.3660227 C11.5260412,8.64069063 10.9987164,9.64588392 10.1554396,10.3890799 C9.69798632,10.7922423 9.25145836,11.0934737 8.77272404,11.3437692 C8.50249776,11.4850509 7.37215527,12.0673118 7.38199984,12.062567 C7.26874927,12.1171504 7.18286596,12.1649535 7.11310841,12.2130223 L7.00377737,12.2883606 L6.88574628,12.230846 C5.71498641,11.6603535 4.62267757,10.8926116 4.07986863,10.400355 C3.338885,9.72837986 2.55760051,8.35332185 2.39103507,7.40117448 C2.14198629,5.97752292 1.91864384,4.01661372 1.76190287,1.34340193 L2.54930348,0.931465791 C2.70486383,3.58454209 2.89264716,5.69945505 3.13720041,7.09740855 C3.28188852,7.92449731 4.00233897,9.19248764 4.65957165,9.78851163 C5.14530178,10.2290053 5.92783793,10.7174464 7.00377737,11.2486489 C7.06796077,11.2110406 7.1390864,11.1738142 7.22045029,11.1345992 C7.22274529,11.1334931 7.95465617,10.8084612 8.20902407,10.6754707 C8.65516971,10.4422135 9.06986766,10.1624549 9.49682814,9.78616643 C10.2454006,9.1264351 10.7126064,8.23795475 10.9015508,7.10926786 L11.461973,0.905678673 Z" id="Path-267" fill="#C51918" fill-rule="nonzero"></path>
                        <path d="M8.15017095,9.00161068 C8.2383627,8.99409284 8.32145235,9.0125928 8.41797406,9.06529854 C8.68116374,9.20901345 8.98441413,9.2987089 9.26009246,9.31205102 L9.21646735,9.36763428 L9.21646735,9.36763428 L9.06533326,9.54535056 C8.56215056,10.1101831 7.86726705,10.5267382 6.9806827,10.7950158 C6.23632852,10.5072383 5.56308794,10.0697952 4.96096096,9.48268636 C4.9412191,9.46343689 4.92161606,9.44393761 4.90215187,9.42418852 C5.14177293,9.43046413 5.31623243,9.36723664 5.42754114,9.22435755 C5.49384851,9.13924349 5.69436204,9.05512078 5.92395995,9.01972412 C6.0311175,9.00320385 6.13361888,8.99909958 6.21124105,9.00759854 C6.24533522,9.01133156 6.27224181,9.01728499 6.28938647,9.02402929 C6.48286681,9.31578721 6.97892735,9.46958504 7.44613389,9.27478515 L7.44613389,9.27478515 L7.38869854,9.28635312 C7.54976833,9.23157519 7.83650423,9.09968001 7.86141039,9.08890243 C7.98676629,9.03465748 8.07217645,9.00825926 8.15017095,9.00161068 Z M8.39564246,8.29585568 C8.50473923,8.2877465 8.6076701,8.3077299 8.72444382,8.36333032 C9.04753135,8.5171646 9.42381198,8.60784158 9.75359119,8.60775475 C9.68135469,8.7226024 9.60956598,8.83227095 9.53789672,8.93643138 C9.28644782,9.00286418 8.88482987,8.92577058 8.56202371,8.74950205 C8.41395648,8.66864984 8.27255714,8.6371672 8.12511418,8.64973586 C8.00853536,8.65967353 7.89548478,8.69461473 7.74277057,8.76069838 C7.71278215,8.7736752 7.42859897,8.90439615 7.33126319,8.94497992 L7.33126319,8.94497992 L7.38869854,8.93341195 C6.99225157,9.08632945 6.64523578,8.97359465 6.54615957,8.80994666 C6.36935588,8.51791319 5.44273878,8.66076795 5.18204074,8.99540751 C5.11187329,9.0854765 4.89876386,9.10122138 4.54682243,9.01200561 C4.46126282,8.90490198 4.38164466,8.7920904 4.3050612,8.67381847 C4.76725337,8.76164271 5.07897722,8.72017046 5.25124246,8.52735708 C5.3314025,8.4376354 5.56924351,8.35062798 5.83984718,8.31425088 C5.9660085,8.29729108 6.08704597,8.29306511 6.1798481,8.3019252 C6.22243421,8.30599102 6.25675185,8.31263773 6.27985426,8.32062837 C6.28804953,8.32346294 6.28698439,8.32278835 6.27690521,8.30827187 L6.27903847,8.31210798 L6.33563127,8.37948605 C6.55465497,8.60649598 6.99888614,8.72565113 7.44348993,8.6125047 L7.57665741,8.57146728 L7.52579684,8.58047077 C7.56804307,8.56748348 7.62026177,8.54950693 7.67528172,8.52967562 L7.84157414,8.46775187 C7.94847666,8.42693918 8.03789936,8.39124542 8.05247256,8.3857466 C8.19963358,8.3302192 8.3010517,8.30288662 8.39564246,8.29585568 Z M6.9806827,4.44410798 L8.13985381,6.09668588 L8.8375141,5.33961235 L10.59281,7.02420114 C10.3857691,7.47271243 10.1796935,7.87671232 9.9745834,8.2362008 C9.67289415,8.2937356 9.2194436,8.21410526 8.853164,8.03970558 C8.68943516,7.96174803 8.53491475,7.93174884 8.37377797,7.94372616 C8.24522572,7.95328147 8.1190426,7.98728831 7.94730377,8.05208951 C7.91349529,8.06484627 7.5872911,8.19568501 7.47493627,8.23653308 L7.47493627,8.23653308 L7.52579684,8.22752959 C7.06963701,8.38388493 6.65245669,8.26570803 6.53377008,8.09476829 C6.34139094,7.81769207 5.31034793,7.9562946 5.02056513,8.28064328 C4.91353622,8.40043881 4.55909076,8.40043881 3.9763858,8.23329819 L4.06050166,8.25838226 C3.86353169,7.89043998 3.69071063,7.47904627 3.54203847,7.02420114 L3.54203847,7.02420114 L5.2660804,5.33961235 L6.01022494,6.09668588 L6.9806827,4.44410798 Z" id="Path-268" fill="#FFFFFF" fill-rule="evenodd"></path>
                        <polygon id="Star-5" fill="#FECA00" fill-rule="evenodd" points="5.14680614 1.88619555 4.44368488 1.88619555 4.98902484 1.37531195 4.44368488 0.835458016 5.14680614 0.835458016 5.44368488 0.311432616 5.74175989 0.835458016 6.44368488 0.835458016 5.9256107 1.3428897 6.38562945 1.88619555 5.74175989 1.88619555 5.44368488 2.43919129"></polygon>
                        <polygon id="Star-5" fill="#FECA00" fill-rule="evenodd" points="8.460554 1.88619555 7.75743274 1.88619555 8.3027727 1.37531195 7.75743274 0.835458016 8.460554 0.835458016 8.75743274 0.311432616 9.05550775 0.835458016 9.75743274 0.835458016 9.23935857 1.3428897 9.69937731 1.88619555 9.05550775 1.88619555 8.75743274 2.43919129"></polygon>
                        <polygon id="Star-5" fill="#FECA00" fill-rule="evenodd" points="6.59990618 3.56748987 5.89678492 3.56748987 6.44212488 3.05660627 5.89678492 2.51675234 6.59990618 2.51675234 6.89678492 1.99272694 7.19485993 2.51675234 7.89678492 2.51675234 7.37871074 3.02418402 7.83872949 3.56748987 7.19485993 3.56748987 6.89678492 4.12048561"></polygon>
                    </g>
                </g>
            </g>
        </g>
    </g>
</svg>