<?xml version="1.0" encoding="UTF-8"?>
<svg width="32px" height="24px" viewBox="0 0 32 24" version="1.1" xmlns="http://www.w3.org/2000/svg" xmlns:xlink="http://www.w3.org/1999/xlink">
    <title>flags/L/SK - Slovakia</title>
    <defs>
        <rect id="path-1" x="0" y="0" width="32" height="24"></rect>
        <rect id="path-3" x="0" y="0" width="32" height="24"></rect>
        <path d="M9.87346213,7.04073245 C10.0531603,5.74508569 9.96331119,3.4082926 9.60391493,0.0303531768 L0.344828681,0.0303531768 C0.100598525,3.6522398 0.0484608724,5.98903289 0.188415724,7.04073245 C0.398348001,8.6182818 1.35145517,12.0816888 4.97809012,13.648232 C8.43929063,12.1005759 9.60391493,8.98420259 9.87346213,7.04073245 Z" id="path-5"></path>
    </defs>
    <g id="Symbols" stroke="none" stroke-width="1" fill="none" fill-rule="evenodd">
        <g id="flag">
            <mask id="mask-2" fill="white">
                <use xlink:href="#path-1"></use>
            </mask>
            <g id="mask"></g>
            <g id="contents" mask="url(#mask-2)">
                <mask id="mask-4" fill="white">
                    <use xlink:href="#path-3"></use>
                </mask>
                <use id="background" fill="#3D58DB" xlink:href="#path-3"></use>
                <rect id="top" fill="#F7FCFF" mask="url(#mask-4)" x="0" y="0" width="32" height="8"></rect>
                <rect id="bottom" fill="#E31D1C" mask="url(#mask-4)" x="0" y="16" width="32" height="8"></rect>
                <g id="mark" mask="url(#mask-4)">
                    <g transform="translate(6.000000, 6.000000)">
                        <mask id="mask-6" fill="white">
                            <use xlink:href="#path-5"></use>
                        </mask>
                        <path stroke="#FFFFFF" stroke-width="1" d="M10.0526143,-0.469646823 C10.459043,3.20902727 10.5593415,5.73502669 10.3687214,7.10942183 C10.0832228,9.16790392 8.84676283,12.4660855 5.18218791,14.1046792 C0.936622168,12.447152 -0.0844530074,8.78064744 -0.307214988,7.10668848 C-0.455069239,5.99562838 -0.397482645,3.47054644 -0.122003808,-0.469646821 L-0.122003808,-0.469646821 Z"></path>
                        <path d="M4.25710319,0.589764947 C4.39476055,0.799511319 4.4944032,1.06474614 4.55603115,1.38546942 C4.6176591,1.7061927 4.65378565,2.14752606 4.66441082,2.70946949 L2.70553055,2.46828516 L2.70553055,3.95357301 L4.70817719,3.69852907 L4.67562672,5.10826847 C4.27621206,5.14967481 3.91271143,5.14967481 3.58512485,5.10826847 C3.25753826,5.06686214 2.77106917,4.95942754 2.12571759,4.78596468 L2.12571759,6.48634819 C2.78138423,6.27658398 3.26785332,6.14763529 3.58512485,6.09950211 C3.90239638,6.05136892 4.265897,6.05136892 4.67562672,6.09950211 L4.67562672,8.18781872 L5.48865712,8.18781872 L5.48865712,6.09950211 C6.08116358,6.04799723 6.55414108,6.05012599 6.90758963,6.1058884 C7.26103817,6.1616508 7.60539863,6.28847073 7.940671,6.48634819 L7.940671,4.78596468 C7.60100742,4.95519049 7.27099193,5.06085867 6.95062453,5.10296921 C6.63025712,5.14507975 6.14293466,5.14684617 5.48865712,5.10826847 L5.5212076,3.69852907 C5.96469304,3.65261456 6.31084154,3.64654532 6.55965309,3.68032135 C6.80846464,3.71409739 7.08857753,3.80518127 7.39999176,3.95357301 L7.39999176,2.46828516 C7.09646649,2.63344666 6.8252938,2.73100742 6.58647371,2.76096744 C6.34765361,2.79092747 5.97797612,2.77376149 5.47744123,2.70946949 C5.48631389,2.12955755 5.51642613,1.69841508 5.56777794,1.41604209 C5.61912975,1.13366909 5.71751265,0.858243377 5.86292663,0.589764947 L4.25710319,0.589764947 Z" id="Path-266" stroke="none" fill="#F7FCFF" fill-rule="evenodd" mask="url(#mask-6)"></path>
                        <path d="M0.897333373,10.2452909 C1.19032829,9.61644523 1.57520413,9.24223585 2.0519609,9.12266278 C2.52871767,9.0030897 3.01705607,9.19019439 3.5169761,9.68397685 C3.82224348,8.68635693 4.34691162,8.18754696 5.09098053,8.18754696 C5.83504944,8.18754696 6.33765153,8.68635693 6.59878681,9.68397685 C6.91624537,9.30976747 7.30323435,9.12266278 7.75975375,9.12266278 C8.21627315,9.12266278 8.65600934,9.49687216 9.07896233,10.2452909 C7.7153575,12.7209065 6.35175268,13.9587144 4.98814785,13.9587144 C3.62454302,13.9587144 2.2609382,12.7209065 0.897333373,10.2452909 Z" id="Path-265" stroke="none" fill="#2E42A5" fill-rule="evenodd" mask="url(#mask-6)"></path>
                    </g>
                </g>
            </g>
        </g>
    </g>
</svg>