<?xml version="1.0" encoding="UTF-8"?>
<svg width="32px" height="24px" viewBox="0 0 32 24" version="1.1" xmlns="http://www.w3.org/2000/svg" xmlns:xlink="http://www.w3.org/1999/xlink">
    <title>flags/L/SM - San Marino</title>
    <defs>
        <rect id="path-1" x="0" y="0" width="32" height="24"></rect>
        <rect id="path-3" x="0" y="0" width="32" height="24"></rect>
    </defs>
    <g id="Symbols" stroke="none" stroke-width="1" fill="none" fill-rule="evenodd">
        <g id="flag">
            <mask id="mask-2" fill="white">
                <use xlink:href="#path-1"></use>
            </mask>
            <g id="mask"></g>
            <g id="contents" mask="url(#mask-2)">
                <mask id="mask-4" fill="white">
                    <use xlink:href="#path-3"></use>
                </mask>
                <use id="background" fill="#F7FCFF" xlink:href="#path-3"></use>
                <rect id="top" fill="#56C6F5" mask="url(#mask-4)" x="0" y="12" width="32" height="12"></rect>
                <g id="mark" mask="url(#mask-4)">
                    <g transform="translate(7.000000, 2.000000)">
                        <path d="M4.70484862,13.8160991 C5.15360217,14.0322219 5.49904604,14.2868965 5.74118026,14.580123 C4.80061799,15.4566774 4.11269769,15.7106253 3.67741935,15.3419667 C3.02450185,14.7889787 2.07667614,14.7353477 1.75018526,14.7621632 C1.53252467,14.7800402 1.83369801,14.6286307 2.65370526,14.3079347 L1.54869977,13.8160991 C3.20404547,13.5999764 4.25609508,13.5999764 4.70484862,13.8160991 Z M4.20731241,10.2 C4.27074694,10.6392946 4.48225396,11.0059185 4.84183347,11.2998717 C5.20141298,11.5938248 5.26147183,12.3712927 5.02201002,13.6322754 C4.79830559,13.4666588 4.52673972,13.2027913 4.20731241,12.840673 C3.88788511,12.4785547 3.88788511,11.5983304 4.20731241,10.2 Z M3.67741935,12.5327702 C4.11251877,12.9304342 4.34375665,13.1420349 4.37113298,13.1675724 C4.35734692,13.1553908 4.34210676,13.1415814 4.32012738,13.1216212 C3.57199383,13.4000228 3.08051693,13.4000228 2.84569667,13.1216212 C2.49346628,12.7040188 1.95124879,12.2331124 1.46388599,12.2331124 C0.976523184,12.2331124 2.78744327,11.7193666 3.67741935,12.5327702 Z M1.0043796,9.78543739 C1.31215662,10.047775 1.66781684,10.1777574 2.07136025,10.1753847 C2.47490366,10.173012 2.98708119,10.6665891 3.60789283,11.6561158 C3.36737685,11.6692974 3.03704358,11.6426971 2.61689302,11.576315 C2.19674245,11.5099328 1.65923798,10.9129736 1.0043796,9.78543739 Z M4.33470739,7.80580751 C4.34861974,9.10002637 4.22295784,9.89342439 3.95772169,10.1860016 C3.69248554,10.4785787 3.47327155,10.6876643 3.30007973,10.8132582 C3.30250202,10.6720864 3.30686103,10.5378159 3.31315678,10.4104468 C3.10763216,10.3719856 2.83254561,10.2827069 2.48901762,10.1452632 C2.12236755,9.99856846 1.66162059,9.34055359 1.10677671,8.17121861 C1.37189262,8.47498833 1.68106624,8.66694807 2.03429757,8.74709782 C2.38752891,8.82724757 2.82778755,9.38513045 3.3550735,10.4207465 L3.31655941,10.3456577 C3.36568498,9.46315583 3.51133385,8.92460416 3.75350599,8.73000269 C4.03585287,8.50311815 4.22958667,8.19505309 4.33470739,7.80580751 Z M5.09742562,4.75172112 C4.88934917,5.00069187 4.75725764,5.26651709 4.70115104,5.54919676 C4.90162252,5.39381401 5.13046166,5.22778414 5.3877482,5.05172112 C5.12919166,5.36109306 4.98796068,5.69648936 4.96405526,6.05791001 C4.94014984,6.41933066 4.45800705,6.9414411 3.51762689,7.62424132 C3.52008816,7.47558976 3.54283014,7.28560518 3.58585284,7.05428758 C3.47585676,7.14055482 3.35586261,7.23089648 3.2273043,7.32424132 L3.26630315,7.29526065 C3.2502989,7.51126869 3.1932711,7.77852684 3.09521974,8.09703511 C3.15870003,8.45210037 3.17976509,8.93326254 3.1583987,9.53995759 C2.99201731,9.40547165 2.78404644,9.18519989 2.53448609,8.87914229 C2.28492574,8.57308469 2.2009593,7.77419736 2.28258676,6.48248029 C2.33140839,6.70996245 2.41111161,6.91199365 2.52169642,7.08857389 C2.62376147,6.72075132 2.79139659,6.26957215 3.02461657,5.73615584 C2.96929034,6.13553222 3.02725263,6.49480543 3.19850345,6.81397547 C3.22577673,6.86480625 3.24535333,6.92525238 3.25723326,6.99531386 C3.27816717,6.83485637 3.3142929,6.64405768 3.36391491,6.42575295 C3.45144689,6.04066884 4.0292838,5.48265823 5.09742562,4.75172112 Z" id="leafs" stroke="none" fill="#006923" fill-rule="evenodd"></path>
                        <path d="M12.2134594,14.1963943 C11.8392143,13.5674894 11.8392143,13.1011189 12.2134594,12.7972829 C12.7748271,12.3415288 12.9969961,12.6446643 12.9969961,12.1206846 C12.9969961,11.5967049 13.05379,11.7527186 13.3296236,11.492588 C13.6054573,11.2324574 13.4100425,10.6006423 13.7794375,10.9165498 C14.1488325,11.2324574 14.21783,10.6266715 14.21783,11.8851281 C14.21783,13.1435848 14.21783,10.7437222 14.21783,10.0368912 C14.21783,9.33006023 13.7794375,9.49739099 13.7794375,9.02336801 C13.7794375,8.54934503 13.341045,7.84138234 13.7794375,7.84138234 C14.21783,7.84138234 14.4755147,8.36811046 14.4755147,8.36811046 C14.4755147,8.36811046 14.9062408,9.10226406 14.9062408,8.36811046 C14.9062408,7.63395687 14.1393668,7.85221438 13.7794375,7.04207484 C13.4195082,6.23193529 13.4763803,7.13293463 12.9969961,6.08901704 C12.5176118,5.04509946 11.9468567,4.71383306 12.4719264,4.71383306 C12.9969961,4.71383306 12.8798098,4.71383306 13.3296236,4.71383306 C13.7794375,4.71383306 14.4755147,4.34020853 14.4755147,4.71383306 C14.4755147,5.08745758 14.4755147,4.91624669 14.4755147,5.50263187 C14.4755147,6.08901704 14.9062408,6.08901704 14.9062408,6.08901704 C14.9062408,6.08901704 15.1404569,4.91624669 15.4345961,5.50263187 C15.7287352,6.08901704 15.5284703,7.04207484 15.7437551,7.04207484 C15.9590399,7.04207484 15.7808354,6.05716761 16.2509887,6.81153024 C16.721142,7.56589286 16.2509887,8.07710045 16.2509887,8.36811046 C16.2509887,8.65912048 15.7437551,9.37208603 15.7437551,9.37208603 C15.7437551,9.37208603 15.8427924,9.72080404 16.2509887,9.37208603 C16.659185,9.02336801 17.046416,8.67464999 17.046416,9.02336801 C17.046416,9.37208603 17.8418434,9.4804154 17.046416,10.0368912 C16.2509887,10.593367 16.7582223,11.1504895 16.2509887,11.1504895 C15.7437551,11.1504895 15.1461241,11.8851281 14.9062408,11.8851281 C14.6663574,11.8851281 13.7693026,12.4475858 14.21783,12.4475858 C14.6663574,12.4475858 15.125437,11.3226705 15.4345961,11.8851281 C15.7437551,12.4475858 15.7396872,11.7937833 15.9953379,12.1206846 C16.2509887,12.4475858 16.5066394,14.2212919 16.2509887,13.5092874 C15.9953379,12.7972829 15.5946516,12.7972829 14.9062408,12.7972829 C14.21783,12.7972829 12.8798098,12.8486946 13.3296236,13.178991 C13.7794375,13.5092874 14.2846719,12.8486946 14.4755147,13.178991 C14.6663574,13.5092874 14.61085,13.8395837 14.9062408,13.5092874 C15.2016316,13.178991 15.4921722,13.5092874 15.7437551,13.5092874 C15.9953379,13.5092874 15.4921722,13.8790318 15.7437551,14.1963943 C15.9953379,14.5137569 16.5560798,14.9365298 15.9953379,14.9365298 C15.4345961,14.9365298 15.1461241,14.4882127 14.9062408,14.9365298 C14.6663574,15.3848469 14.6562225,16.1634702 14.21783,15.55 C13.7794375,14.9365298 12.9969961,15.2479105 12.9969961,14.9365298 C12.9969961,14.6251491 13.16816,14.574869 12.6908097,14.574869 C12.3725762,14.574869 12.2134594,14.4487108 12.2134594,14.1963943 Z" id="leafs-right" stroke="none" fill="#009933" fill-rule="evenodd"></path>
                        <path d="M5.75806452,14.3 C5.89168179,14.3 6,14.4119288 6,14.55 C6,14.6880712 5.89168179,14.8 5.75806452,14.8 C5.62444724,14.8 5.51612903,14.6880712 5.51612903,14.55 C5.51612903,14.4119288 5.62444724,14.3 5.75806452,14.3 Z M12.1451613,14 C12.2787786,14 12.3870968,14.1119288 12.3870968,14.25 C12.3870968,14.3880712 12.2787786,14.5 12.1451613,14.5 C12.011544,14.5 11.9032258,14.3880712 11.9032258,14.25 C11.9032258,14.1119288 12.011544,14 12.1451613,14 Z M5.66129032,13.6 C5.7949076,13.6 5.90322581,13.7119288 5.90322581,13.85 C5.90322581,13.9880712 5.7949076,14.1 5.66129032,14.1 C5.52767304,14.1 5.41935484,13.9880712 5.41935484,13.85 C5.41935484,13.7119288 5.52767304,13.6 5.66129032,13.6 Z M14.1774194,11.8 C14.3110366,11.8 14.4193548,11.9119288 14.4193548,12.05 C14.4193548,12.1880712 14.3110366,12.3 14.1774194,12.3 C14.0438021,12.3 13.9354839,12.1880712 13.9354839,12.05 C13.9354839,11.9119288 14.0438021,11.8 14.1774194,11.8 Z M3.72580645,11.1 C3.85942373,11.1 3.96774194,11.2119288 3.96774194,11.35 C3.96774194,11.4880712 3.85942373,11.6 3.72580645,11.6 C3.59218917,11.6 3.48387097,11.4880712 3.48387097,11.35 C3.48387097,11.2119288 3.59218917,11.1 3.72580645,11.1 Z M14.9516129,9.8 C15.0852302,9.8 15.1935484,9.91192881 15.1935484,10.05 C15.1935484,10.1880712 15.0852302,10.3 14.9516129,10.3 C14.8179956,10.3 14.7096774,10.1880712 14.7096774,10.05 C14.7096774,9.91192881 14.8179956,9.8 14.9516129,9.8 Z M3.33870968,8.8 C3.47232696,8.8 3.58064516,8.91192881 3.58064516,9.05 C3.58064516,9.18807119 3.47232696,9.3 3.33870968,9.3 C3.2050924,9.3 3.09677419,9.18807119 3.09677419,9.05 C3.09677419,8.91192881 3.2050924,8.8 3.33870968,8.8 Z M3.33870968,7.5 C3.47232696,7.5 3.58064516,7.61192881 3.58064516,7.75 C3.58064516,7.88807119 3.47232696,8 3.33870968,8 C3.2050924,8 3.09677419,7.88807119 3.09677419,7.75 C3.09677419,7.61192881 3.2050924,7.5 3.33870968,7.5 Z M14.2741935,7.2 C14.4078108,7.2 14.516129,7.31192881 14.516129,7.45 C14.516129,7.58807119 14.4078108,7.7 14.2741935,7.7 C14.1405763,7.7 14.0322581,7.58807119 14.0322581,7.45 C14.0322581,7.31192881 14.1405763,7.2 14.2741935,7.2 Z" id="Combined-Shape" stroke="none" fill="#C51918" fill-rule="evenodd"></path>
                        <path d="M11.0377882,17.8198419 C11.0377882,17.6149996 7.93725346,15.4782209 7.10505968,15.0069127 C6.27286591,14.5356044 2.20905902,11.9415829 3.31574287,8.00023365 L3.14826632,8.00023365 C2.64897011,11.2378713 4.11933453,13.8629508 7.55935957,15.875472 C9.12568272,16.9262083 9.94782439,17.5743316 10.0257846,17.8198419 C10.7004536,17.9564035 11.0377882,17.9564035 11.0377882,17.8198419 Z" id="Path-273" stroke="none" fill="#FECA00" fill-rule="evenodd"></path>
                        <path d="M14.9087559,17.8198419 C14.9087559,17.6149996 11.8082212,15.4782209 10.9760274,15.0069127 C10.1438337,14.5356044 6.08002676,11.9415829 7.18671061,8.00023365 L7.01923406,8.00023365 C6.51993785,11.2378713 7.99030227,13.8629508 11.4303273,15.875472 C12.9966505,16.9262083 13.8187921,17.5743316 13.8967523,17.8198419 C14.5714214,17.9564035 14.9087559,17.9564035 14.9087559,17.8198419 Z" id="Path-273" stroke="none" fill="#FECA00" fill-rule="evenodd" transform="translate(10.916532, 12.961248) scale(-1, 1) translate(-10.916532, -12.961248) "></path>
                        <path d="M9.0483871,14.8856777 C11.212987,14.8856777 12.9677419,12.0838095 12.9677419,9.35 C12.9677419,6.61619049 11.212987,5.2 9.0483871,5.2 C6.88378719,5.2 5.12903226,6.61619049 5.12903226,9.35 C5.12903226,12.0838095 6.88378719,14.8856777 9.0483871,14.8856777 Z" id="Oval-51" stroke="none" fill="#56C6F5" fill-rule="evenodd"></path>
                        <g id="1" stroke="none" stroke-width="1" fill="none" fill-rule="evenodd" transform="translate(6.387097, 6.900000)">
                            <path d="M0.285980241,0.638873268 C0.285980241,-0.19742161 0.926092251,0.106487425 1.22789852,0.106487425 C1.5297048,0.106487425 0.926092251,0.638873268 0.926092251,0.638873268 L0.926092251,0.638873268 L0.926484146,1.52688004 C0.927434928,1.58904116 0.930115743,1.67956865 0.93452659,1.79846249 L1.06129032,1.8 C1.1165188,1.8 1.16129032,1.84477153 1.16129032,1.9 C1.16129032,1.95522847 1.1165188,2 1.06129032,2 L0.942441667,1.99810879 C0.953411758,2.26117175 0.969902362,2.61475144 0.991913481,3.05884787 L1.04292281,3.05478777 C1.10208228,3.04961198 1.15423632,3.09337441 1.1594121,3.15253389 L1.16681565,3.23715688 C1.17199144,3.29631636 1.12822901,3.34847039 1.06906953,3.35364618 L1.0068047,3.35642592 C1.02423532,3.70171928 1.04448917,4.09330357 1.06756626,4.53117879 C0.455376757,4.56606755 0.149282005,4.5384576 0.149282005,4.44834893 C0.149282005,4.3943523 0.165644212,4.05539084 0.198368626,3.43146455 L0.126433687,3.43611613 C0.0672742095,3.44129191 0.0151201758,3.39752948 0.00994439216,3.33837 L0.00254083982,3.25374701 C-0.00263494379,3.19458754 0.0411274867,3.1424335 0.100286964,3.13725772 L0.214403653,3.12760611 C0.233889546,2.76032429 0.257748408,2.31688265 0.285980241,1.7972812 L0.274651318,1.99964948 L0.196774194,2 C0.141545719,2 0.0967741935,1.95522847 0.0967741935,1.9 C0.0967741935,1.84477153 0.141545719,1.8 0.196774194,1.8 L0.285651318,1.79964948 Z" id="Combined-Shape" fill="#FFFFFF"></path>
                            <polygon id="Rectangle-67" fill="#000000" points="0.483870968 2.1 0.806451613 2.1 0.806451613 2.53010753 0.483870968 2.53010753"></polygon>
                            <polygon id="Rectangle-67" fill="#000000" points="0.387096774 3.6 0.924731183 3.6 0.924731183 4.6 0.387096774 4.6"></polygon>
                        </g>
                        <g id="2" stroke="none" stroke-width="1" fill="none" fill-rule="evenodd" transform="translate(8.419355, 6.900000)">
                            <path d="M0.285980241,0.638873268 C0.285980241,-0.19742161 0.926092251,0.106487425 1.22789852,0.106487425 C1.5297048,0.106487425 0.926092251,0.638873268 0.926092251,0.638873268 L0.926092251,0.638873268 L0.926484146,1.52688004 C0.927434928,1.58904116 0.930115743,1.67956865 0.93452659,1.79846249 L1.06129032,1.8 C1.1165188,1.8 1.16129032,1.84477153 1.16129032,1.9 C1.16129032,1.95522847 1.1165188,2 1.06129032,2 L0.942441667,1.99810879 C0.953411758,2.26117175 0.969902362,2.61475144 0.991913481,3.05884787 L1.04292281,3.05478777 C1.10208228,3.04961198 1.15423632,3.09337441 1.1594121,3.15253389 L1.16681565,3.23715688 C1.17199144,3.29631636 1.12822901,3.34847039 1.06906953,3.35364618 L1.0068047,3.35642592 C1.02423532,3.70171928 1.04448917,4.09330357 1.06756626,4.53117879 C0.455376757,4.56606755 0.149282005,4.5384576 0.149282005,4.44834893 C0.149282005,4.3943523 0.165644212,4.05539084 0.198368626,3.43146455 L0.126433687,3.43611613 C0.0672742095,3.44129191 0.0151201758,3.39752948 0.00994439216,3.33837 L0.00254083982,3.25374701 C-0.00263494379,3.19458754 0.0411274867,3.1424335 0.100286964,3.13725772 L0.214403653,3.12760611 C0.233889546,2.76032429 0.257748408,2.31688265 0.285980241,1.7972812 L0.274651318,1.99964948 L0.196774194,2 C0.141545719,2 0.0967741935,1.95522847 0.0967741935,1.9 C0.0967741935,1.84477153 0.141545719,1.8 0.196774194,1.8 L0.285651318,1.79964948 Z" id="Combined-Shape" fill="#FFFFFF"></path>
                            <polygon id="Rectangle-67" fill="#000000" points="0.483870968 2.1 0.806451613 2.1 0.806451613 2.53010753 0.483870968 2.53010753"></polygon>
                            <polygon id="Rectangle-67" fill="#000000" points="0.387096774 3.6 0.924731183 3.6 0.924731183 4.6 0.387096774 4.6"></polygon>
                        </g>
                        <g id="3" stroke="none" stroke-width="1" fill="none" fill-rule="evenodd" transform="translate(10.354839, 6.900000)">
                            <path d="M0.285980241,0.638873268 C0.285980241,-0.19742161 0.926092251,0.106487425 1.22789852,0.106487425 C1.5297048,0.106487425 0.926092251,0.638873268 0.926092251,0.638873268 L0.926092251,0.638873268 L0.926484146,1.52688004 C0.927434928,1.58904116 0.930115743,1.67956865 0.93452659,1.79846249 L1.06129032,1.8 C1.1165188,1.8 1.16129032,1.84477153 1.16129032,1.9 C1.16129032,1.95522847 1.1165188,2 1.06129032,2 L0.942441667,1.99810879 C0.953411758,2.26117175 0.969902362,2.61475144 0.991913481,3.05884787 L1.04292281,3.05478777 C1.10208228,3.04961198 1.15423632,3.09337441 1.1594121,3.15253389 L1.16681565,3.23715688 C1.17199144,3.29631636 1.12822901,3.34847039 1.06906953,3.35364618 L1.0068047,3.35642592 C1.02423532,3.70171928 1.04448917,4.09330357 1.06756626,4.53117879 C0.455376757,4.56606755 0.149282005,4.5384576 0.149282005,4.44834893 C0.149282005,4.3943523 0.165644212,4.05539084 0.198368626,3.43146455 L0.126433687,3.43611613 C0.0672742095,3.44129191 0.0151201758,3.39752948 0.00994439216,3.33837 L0.00254083982,3.25374701 C-0.00263494379,3.19458754 0.0411274867,3.1424335 0.100286964,3.13725772 L0.214403653,3.12760611 C0.233889546,2.76032429 0.257748408,2.31688265 0.285980241,1.7972812 L0.274651318,1.99964948 L0.196774194,2 C0.141545719,2 0.0967741935,1.95522847 0.0967741935,1.9 C0.0967741935,1.84477153 0.141545719,1.8 0.196774194,1.8 L0.285651318,1.79964948 Z" id="Combined-Shape" fill="#FFFFFF"></path>
                            <polygon id="Rectangle-67" fill="#000000" points="0.483870968 2.1 0.806451613 2.1 0.806451613 2.53010753 0.483870968 2.53010753"></polygon>
                            <polygon id="Rectangle-67" fill="#000000" points="0.387096774 3.6 0.924731183 3.6 0.924731183 4.6 0.387096774 4.6"></polygon>
                        </g>
                        <path d="M11.516129,4.4 L11.5156968,5.154 L11.678024,5.16871372 C13.3532892,6.47053137 13.9584535,8.09650503 13.4935169,10.0466347 C13.0285803,11.9967644 11.8727249,13.6949293 10.0259506,15.1411296 L9.88629733,14.6363098 C11.6460486,12.2435355 12.5259242,10.569088 12.5259242,9.61296753 C12.5259242,8.17878679 12.0279112,6.83267499 11.5006033,6.62337215 C10.9732954,6.41406932 11.1714667,6.62337215 10.7431726,6.62337215 C10.4576433,6.62337215 10.1720182,6.52118152 9.88629733,6.31680025 C9.68764739,6.52118152 9.49605791,6.62337215 9.31152887,6.62337215 C9.12699983,6.62337215 9.03344289,6.52118152 9.03085805,6.31680025 L9.03069676,5.299 L8.99969676,5.299 L8.99985957,6.31680025 C8.997644,6.4919842 8.92859177,6.59208931 8.79270291,6.61711558 L8.71918875,6.62337215 C8.53465972,6.62337215 8.34307023,6.52118152 8.14442029,6.31680025 C7.85869946,6.52118152 7.57307436,6.62337215 7.28754499,6.62337215 C6.85925094,6.62337215 7.0574222,6.41406932 6.53011432,6.62337215 C6.00280644,6.83267499 5.50479345,8.17878679 5.50479345,9.61296753 C5.50479345,10.569088 6.38466906,12.2435355 8.14442029,14.6363098 L8.14442029,14.6363098 L8.004767,15.1411296 C6.15799273,13.6949293 5.00213731,11.9967644 4.53720072,10.0466347 C4.07226414,8.09650503 4.67742843,6.47053137 6.3526936,5.16871372 L6.3526936,5.16871372 L6.38669676,5.165 L6.38709677,4.4 L11.516129,4.4 Z" id="Combined-Shape" stroke="#FFD018" stroke-width="1" fill="#E8AA00" fill-rule="nonzero"></path>
                        <path d="M6.10350081,11.7848914 C6.31315318,11.2219487 6.60129482,11.0343011 6.96792571,11.2219487 C7.51787205,11.50342 7.46983976,12.4833154 7.97018923,12.1341034 C8.4705387,11.7848914 8.18688217,11.2219487 8.92833188,11.2219487 C9.66978158,11.2219487 9.5605746,12.1341034 10.0052254,12.1341034 C10.4498762,12.1341034 10.4883646,11.2219487 10.9854285,11.2219487 C11.3168044,11.2219487 11.6505272,11.4095962 11.9865968,11.7848914 L9.0450488,15.7874108 L6.10350081,11.7848914 Z" id="Path-281" stroke="none" fill="#8FC753" fill-rule="evenodd"></path>
                        <path d="M6.51907976,15.1584462 C6.81362391,15.1584462 7.66135959,15.1939077 9.06228679,15.2648306 L9.034,15.2634462 L9.27336115,15.2519481 C10.5786069,15.1896135 11.3692973,15.1584462 11.6454325,15.1584462 C12.0872487,15.1584462 13.1097807,15.4884786 12.8751481,15.7597625 C12.7187263,15.9406185 12.95559,16.0310464 13.585739,16.0310464 C13.1822511,15.5964948 13.2238633,15.379219 13.7105756,15.379219 C14.440644,15.379219 15.2793052,15.55 15.5663541,15.55 C15.8534031,15.55 15.9790669,15.8556561 15.7727105,16.0310464 C15.5663541,16.2064368 15.0707679,16.698105 15.5663541,16.698105 C16.0619403,16.698105 15.8839354,16.64806 16.0619403,16.3395532 C16.180424,16.1342049 16.675741,16.0313696 17.5478912,16.0310472 C17.5275862,15.9954903 17.516129,15.9533508 17.516129,15.9084462 C17.516129,15.770375 17.6244472,15.6584462 17.7580645,15.6584462 C17.8916818,15.6584462 18,15.770375 18,15.9084462 C18,16.0465174 17.8916818,16.1584462 17.7580645,16.1584462 C17.6691217,16.1584462 17.5913888,16.1088512 17.549352,16.0349636 L17.2356299,16.4573609 L17.5617434,16.8623128 C17.6056801,16.7993964 17.6772443,16.7584462 17.7580645,16.7584462 C17.8916818,16.7584462 18,16.870375 18,17.0084462 C18,17.1465174 17.8916818,17.2584462 17.7580645,17.2584462 C17.6244472,17.2584462 17.516129,17.1465174 17.516129,17.0084462 C17.516129,16.9792389 17.5209761,16.9512013 17.5298844,16.9251457 L17.67519,17.0015607 C17.3075488,16.7992569 17.0216028,16.698105 16.8173521,16.698105 L16.2399453,16.698105 L16.2399453,16.698105 C16.3851618,16.698105 17.1848271,17.2256749 16.9426571,17.4542963 C16.700487,17.6829177 16.3713997,18.0229746 16.0619403,17.8529462 C15.8556341,17.7395939 15.6904387,17.6067106 15.5663541,17.4542963 L15.3239004,16.698105 C14.3711316,16.4521802 13.8947471,16.4143357 13.8947471,16.5845714 C13.8947471,16.8399249 13.8906862,16.9649666 13.3838948,16.9649666 C12.8771033,16.9649666 12.4009947,16.8113278 12.0872487,16.8113278 C11.7735028,16.8113278 11.1884253,16.9649666 11.0802085,16.9649666 C10.9719918,16.9649666 10.3933065,16.9388491 10.7899259,16.698105 C11.0543388,16.5376089 11.2170024,16.3737195 11.2779166,16.2064368 C10.2027913,16.3660792 9.46381206,16.4495461 9.06097896,16.4568374 L9.06228679,16.4573609 L9.00545127,16.4573609 L9.00545127,16.4573609 C8.60693994,16.4495461 7.9001515,16.3660792 6.88659566,16.2064368 C6.9475099,16.3737195 7.11017347,16.5376089 7.37458639,16.698105 C7.77120576,16.9388491 7.1925205,16.9649666 7.08430372,16.9649666 C6.97608695,16.9649666 6.39100945,16.8113278 6.07726353,16.8113278 C5.7635176,16.8113278 5.28740891,16.9649666 4.78061749,16.9649666 C4.27382607,16.9649666 4.26976512,16.8399249 4.26976512,16.5845714 C4.26976512,16.4143357 3.79338069,16.4521802 2.84061182,16.698105 L2.84061182,16.698105 L2.59815811,17.4542963 C2.47407355,17.6067106 2.30887815,17.7395939 2.1025719,17.8529462 C1.79311253,18.0229746 1.46402524,17.6829177 1.2218552,17.4542963 C0.979685148,17.2256749 1.77935043,16.698105 1.92456696,16.698105 L1.92456696,16.698105 L1.34716015,16.698105 C1.14290945,16.698105 0.856963475,16.7992569 0.489322236,17.0015607 L0.489322236,17.0015607 L0.928882384,16.4573609 L0.612504361,16.0310464 C1.48721276,16.0310464 1.98390194,16.133882 2.1025719,16.3395532 C2.28057684,16.64806 2.1025719,16.698105 2.59815811,16.698105 C3.09374432,16.698105 2.59815811,16.2064368 2.39180173,16.0310464 C2.18544535,15.8556561 2.31110916,15.55 2.59815811,15.55 C2.88520706,15.55 3.72386827,15.379219 4.45393669,15.379219 C4.94064897,15.379219 4.98226116,15.5964948 4.57877327,16.0310464 C5.20892229,16.0310464 5.44578593,15.9406185 5.28936418,15.7597625 C5.05473156,15.4884786 6.07726353,15.1584462 6.51907976,15.1584462 Z M0.241935484,16.7584462 C0.375552762,16.7584462 0.483870968,16.870375 0.483870968,17.0084462 C0.483870968,17.1465174 0.375552762,17.2584462 0.241935484,17.2584462 C0.108318206,17.2584462 0,17.1465174 0,17.0084462 C0,16.870375 0.108318206,16.7584462 0.241935484,16.7584462 Z M0.241935484,15.6584462 C0.375552762,15.6584462 0.483870968,15.770375 0.483870968,15.9084462 C0.483870968,16.0465174 0.375552762,16.1584462 0.241935484,16.1584462 C0.108318206,16.1584462 0,16.0465174 0,15.9084462 C0,15.770375 0.108318206,15.6584462 0.241935484,15.6584462 Z" id="Combined-Shape" stroke="none" fill="#FFFFFF" fill-rule="evenodd"></path>
                        <path d="M9.09439744,0.0294795082 L9.09435484,0.243479508 L9.34005357,0.243841836 L9.34005357,0.443841836 L9.09435484,0.443479508 L9.09520518,0.808026129 C9.33995758,0.849742431 9.53310083,1.04961793 9.5730455,1.30267688 L9.58064516,1.4 C9.58064516,1.73137085 9.32068147,2 9,2 C8.67931853,2 8.41935484,1.73137085 8.41935484,1.4 C8.41935484,1.10586183 8.62418168,0.861158194 8.89448738,0.80988201 L8.89435484,0.443479508 L8.66864072,0.443841836 L8.66864072,0.243841836 L8.89435484,0.243479508 L8.89439744,0.0294795082 L9.09439744,0.0294795082 Z" id="Combined-Shape" stroke="none" fill="#FFD018" fill-rule="nonzero"></path>
                        <path d="M9.28656494,2.45571564 C9.69389305,2.45571564 9.94167893,2.65975066 10.1837207,2.85072744 C10.4257625,3.04170423 10.5448089,2.85072744 11.0015362,2.85072744 C11.4582635,2.85072744 11.1816135,3.22585511 11.4615663,3.22585511 C11.6482015,3.22585511 11.9383023,3.32564679 12.3318685,3.52523014 L12.3318685,3.52523014 L11.8728435,4.54317943 L9.10450817,4.43871564 L6.33553312,4.54317943 L5.87650817,3.52523014 C6.27007438,3.32564679 6.56017509,3.22585511 6.74681029,3.22585511 C7.0267631,3.22585511 6.75011314,2.85072744 7.20684046,2.85072744 C7.66356778,2.85072744 7.78261414,3.04170423 8.02465592,2.85072744 C8.26669771,2.65975066 8.51448359,2.45571564 8.92181169,2.45571564 C8.99575424,2.45571564 9.05660756,2.50464482 9.10437166,2.6025032 C9.15176907,2.50464482 9.2126224,2.45571564 9.28656494,2.45571564 Z" id="Combined-Shape" stroke="none" fill="#E31D1C" fill-rule="evenodd"></path>
                        <path d="M8.41371461,1.63589661 L8.60805503,1.56847694 L8.60506049,1.7802879 C8.58975026,2.86321537 8.6735165,3.71688256 8.85447543,4.33915818 L8.87578291,4.41242966 L8.83089203,4.47327138 C8.67834497,4.68002215 8.25120328,4.74767825 7.56209727,4.75089471 C7.32379108,4.75200702 7.07605756,4.74448464 6.7950131,4.73025584 C6.78202105,4.72959808 6.42603271,4.7098732 6.39685133,4.7098732 C6.2057626,4.7098732 6.04239509,4.42052391 5.80898486,3.8468998 C5.64077113,3.43350124 5.4790186,2.94573249 5.42360245,2.68747278 C5.29714934,2.09815461 6.30633919,1.69573343 7.07976809,1.81492725 C7.45542749,1.87282046 7.90015603,1.81405797 8.41371461,1.63589661 Z M7.03694315,2.1116455 C6.43441862,2.01878991 5.64503544,2.33356172 5.70704124,2.62253164 C5.75813354,2.86064064 5.91458706,3.33243007 6.07661235,3.73062005 C6.16406587,3.94554399 6.24809435,4.12719402 6.32005278,4.2546436 C6.35655277,4.31929078 6.38894286,4.36811619 6.41486684,4.3983143 C6.41915535,4.40330986 6.42299732,4.40747778 6.4262633,4.41079452 C6.52456964,4.41482989 6.81167784,4.43073969 6.80922044,4.43061527 C7.08553516,4.44460461 7.32849395,4.45198201 7.5607859,4.45089777 C8.04996274,4.4486145 8.4120469,4.40213617 8.54983894,4.33004369 C8.38900286,3.72735251 8.31050474,2.94547219 8.31301938,1.98290341 C7.83758825,2.12594777 7.41228423,2.16948966 7.03694315,2.1116455 Z" id="Path-275" stroke="none" fill="#FFD018" fill-rule="nonzero"></path>
                        <path d="M12.1879082,1.63589661 L12.3822486,1.56847694 L12.379254,1.7802879 C12.3639438,2.86321537 12.4477101,3.71688256 12.628669,4.33915818 L12.6499765,4.41242966 L12.6050856,4.47327138 C12.4525385,4.68002215 12.0253968,4.74767825 11.3362908,4.75089471 C11.0979846,4.75200702 10.8502511,4.74448464 10.5692066,4.73025584 C10.5562146,4.72959808 10.2002263,4.7098732 10.1710449,4.7098732 C9.97995615,4.7098732 9.81658864,4.42052391 9.58317841,3.8468998 C9.41496468,3.43350124 9.25321215,2.94573249 9.197796,2.68747278 C9.07134289,2.09815461 10.0805327,1.69573343 10.8539616,1.81492725 C11.229621,1.87282046 11.6743496,1.81405797 12.1879082,1.63589661 Z M10.8111367,2.1116455 C10.2086122,2.01878991 9.41922899,2.33356172 9.48123479,2.62253164 C9.53232709,2.86064064 9.68878061,3.33243007 9.8508059,3.73062005 C9.93825942,3.94554399 10.0222879,4.12719402 10.0942463,4.2546436 C10.1307463,4.31929078 10.1631364,4.36811619 10.1890604,4.3983143 C10.1933489,4.40330986 10.1971909,4.40747778 10.2004568,4.41079452 C10.2987632,4.41482989 10.5858714,4.43073969 10.583414,4.43061527 C10.8597287,4.44460461 11.1026875,4.45198201 11.3349794,4.45089777 C11.8241563,4.4486145 12.1862404,4.40213617 12.3240325,4.33004369 C12.1631964,3.72735251 12.0846983,2.94547219 12.0872129,1.98290341 C11.6117818,2.12594777 11.1864778,2.16948966 10.8111367,2.1116455 Z" id="Path-275" stroke="none" fill="#FFD018" fill-rule="nonzero" transform="translate(10.918481, 3.159740) scale(-1, 1) translate(-10.918481, -3.159740) "></path>
                        <path d="M5.82054938,4.51938627 C5.79759138,4.5424748 5.7707576,4.53791049 5.75148543,4.52336053 C5.74479274,4.51779675 5.74479274,4.51779675 5.73922566,4.51103188 C5.73609413,4.50682901 5.73609413,4.50682901 5.73131847,4.4958582 C5.72668234,4.47369795 5.72501916,4.4657481 5.73902352,4.45450614 C5.73763612,4.44704148 5.73557032,4.43776143 5.73275638,4.42668571 C5.7191439,4.37310675 5.69070018,4.28744937 5.64485826,4.16536387 C5.55661937,3.93036735 5.50545213,3.86997018 5.3837448,3.79562922 C5.29114934,3.73907031 5.24752821,3.6799656 5.20760147,3.5254409 C5.18213489,3.42688002 5.15658208,3.35090183 5.127423,3.28108612 C5.11569301,3.25300097 5.07286265,3.15985479 5.06382319,3.1371085 C5.03735858,3.07051471 5.02603007,3.00927913 5.02603007,2.9180961 C5.02603007,2.80917643 5.05315897,2.72612463 5.12092844,2.58313357 C5.15655984,2.50795263 5.16112194,2.49805724 5.17305948,2.46817055 C5.19518308,2.41278216 5.20596383,2.36743954 5.20596383,2.32364933 L5.20596383,1.9385054 C5.20596383,1.6614867 5.25176806,1.59097158 5.43459725,1.61566868 C5.44710747,1.6173586 5.45916402,1.61928616 5.47171713,1.62154625 C5.55574633,1.63667504 5.54438232,1.63532878 5.55269,1.63157984 C5.56841259,1.62448484 5.59267402,1.59521105 5.65015545,1.50921618 C5.72267613,1.40072189 5.79718641,1.41086659 5.96456333,1.49240626 C5.98177013,1.50078876 5.99176484,1.50557596 6.00239833,1.5104584 C6.09582078,1.55335402 6.14223637,1.5542456 6.18227332,1.5053398 C6.34015821,1.31248074 6.47970898,1.32893669 6.65690106,1.50121754 C6.71161919,1.55441905 6.73641145,1.57249003 6.75372755,1.57503412 C6.77319941,1.57789494 6.77824392,1.57528648 6.90964629,1.49464267 C6.96054766,1.46340366 7.01683782,1.404759 7.02609817,1.402025 C7.05800697,1.3926043 7.13224098,1.46528172 7.16401994,1.49185158 C7.22998069,1.48908496 7.3116857,1.48763222 7.4097506,1.48763222 L7.4097506,1.58763222 C7.33319994,1.58763222 7.26698373,1.58853575 7.21100393,1.59022467 C7.19452286,1.6245529 7.16956623,1.63541108 7.13438914,1.64090763 C7.0921081,1.64751419 7.02902713,1.64415687 6.98659883,1.63426064 C6.95481995,1.62684835 6.93518115,1.61959582 6.92614307,1.60081788 C6.79026872,1.68407307 6.79075106,1.68147935 6.7401051,1.67403842 C6.69549743,1.66748465 6.66029928,1.64182884 6.59058507,1.5740469 C6.44943822,1.43681221 6.37255243,1.42774577 6.2561571,1.56992463 C6.18040993,1.66245107 6.09137585,1.66074085 5.96310188,1.6018429 C5.95162853,1.59657482 5.94111806,1.59154059 5.92329563,1.58285818 C5.79790679,1.52177351 5.7625905,1.51696513 5.72978194,1.56604825 C5.66012387,1.67025994 5.63105229,1.70533764 5.59141974,1.7232223 C5.56960789,1.73306516 5.54799815,1.73517377 5.52172845,1.73206167 C5.50818409,1.73045711 5.45097335,1.71931802 5.45510599,1.72006207 C5.4438408,1.71803386 5.43312432,1.71632055 5.42205313,1.71482502 C5.31163651,1.69990962 5.30273802,1.71360875 5.30273802,1.9385054 L5.30273802,2.32364933 C5.30273802,2.38235121 5.28907046,2.43983541 5.26251368,2.50632266 C5.24942441,2.53909283 5.24466576,2.54941454 5.20783965,2.62711627 C5.14617613,2.75722401 5.12280426,2.8287741 5.12280426,2.9180961 C5.12280426,2.99644496 5.13174489,3.04477302 5.15334324,3.09912167 C5.16115206,3.11877126 5.20347999,3.21082476 5.21627544,3.24146096 C5.2473044,3.3157537 5.2744115,3.3963534 5.30110038,3.49964484 C5.33446374,3.62876791 5.36214039,3.66626854 5.43298929,3.70954428 C5.57295258,3.79503629 5.63878665,3.87274601 5.73507913,4.1291907 C5.80497186,4.31532799 5.83697904,4.41556056 5.83665762,4.47105666 C5.84183811,4.47763528 5.84769299,4.4852498 5.85443733,4.49406334 C5.91154763,4.56869539 5.96281252,4.56869539 6.0377495,4.49000587 L6.10672687,4.56014604 C5.99258741,4.68000115 5.87334842,4.68000115 5.77852743,4.55608857 C5.76879386,4.5433687 5.76100555,4.53366694 5.75518381,4.52686393 C5.75994911,4.53016179 5.76247315,4.52878691 5.77505482,4.5293794 C5.83006423,4.49766839 5.83006423,4.49766839 5.82293753,4.46365544 C5.81847623,4.45340808 5.81847623,4.45340808 5.81603904,4.45020594 C5.81236656,4.44573792 5.81236656,4.44573792 5.80857616,4.44261564 C5.79439591,4.43190993 5.77248388,4.42818279 5.75305375,4.44772339 C5.74385414,4.45697531 5.74151659,4.4630686 5.74114011,4.46708129 C5.74073292,4.46475081 5.74007191,4.46014677 5.73902352,4.45450614 C5.7468581,4.44821695 5.75959618,4.44089742 5.77946042,4.42948307 C5.80078399,4.43048722 5.8093547,4.43638511 5.83665762,4.47105666 C5.8365267,4.49366144 5.83103211,4.50884393 5.82054938,4.51938627 Z M7.02053048,1.49607747 C7.01801473,1.49359913 7.0161852,1.49181672 7.01574881,1.4914385 C7.01584579,1.49152255 7.01743968,1.49306887 7.02053048,1.49607747 Z M11.2950086,1.50121754 C11.4722007,1.32893669 11.6117515,1.31248074 11.7696364,1.5053398 C11.8096733,1.5542456 11.8560889,1.55335402 11.9495114,1.5104584 C11.9601449,1.50557596 11.9701396,1.50078876 11.9873464,1.49240626 C12.1547233,1.41086659 12.2292336,1.40072189 12.3017543,1.50921618 C12.3592357,1.59521105 12.3834971,1.62448484 12.3992197,1.63157984 C12.4075274,1.63532878 12.3961634,1.63667504 12.4801926,1.62154625 C12.4927457,1.61928616 12.5048022,1.6173586 12.5173125,1.61566868 C12.7001416,1.59097158 12.7459459,1.6614867 12.7459459,1.9385054 L12.7459459,1.9385054 L12.7459459,2.32364933 C12.7459459,2.36743954 12.7567266,2.41278216 12.7788502,2.46817055 C12.7907878,2.49805724 12.7953499,2.50795263 12.8309813,2.58313357 C12.8987507,2.72612463 12.9258796,2.80917643 12.9258796,2.9180961 C12.9258796,3.00927913 12.9145511,3.07051471 12.8880865,3.1371085 C12.8790471,3.15985479 12.8362167,3.25300097 12.8244867,3.28108612 C12.7953276,3.35090183 12.7697748,3.42688002 12.7443082,3.5254409 C12.7043815,3.6799656 12.6607604,3.73907031 12.5681649,3.79562922 C12.4464576,3.86997018 12.3952903,3.93036735 12.3070514,4.16536387 C12.2612095,4.28744937 12.2327658,4.37310675 12.2191533,4.42668571 C12.2163394,4.43776143 12.2142736,4.44704148 12.2128862,4.45450614 L12.2128862,4.45450614 C12.2050516,4.44821695 12.1923135,4.44089742 12.1724493,4.42948307 C12.1511257,4.43048722 12.142555,4.43638511 12.1152521,4.47105666 L12.1189831,4.43206128 C12.129249,4.37203135 12.1609164,4.27810053 12.2168306,4.1291907 C12.313123,3.87274601 12.3789571,3.79503629 12.5189204,3.70954428 C12.5897693,3.66626854 12.617446,3.62876791 12.6508093,3.49964484 C12.6774982,3.3963534 12.7046053,3.3157537 12.7356343,3.24146096 C12.7484297,3.21082476 12.7907576,3.11877126 12.7985665,3.09912167 C12.8201648,3.04477302 12.8291054,2.99644496 12.8291054,2.9180961 C12.8291054,2.8287741 12.8057336,2.75722401 12.7440701,2.62711627 C12.7072439,2.54941454 12.7024853,2.53909283 12.689396,2.50632266 C12.6628392,2.43983541 12.6491717,2.38235121 12.6491717,2.32364933 L12.6491717,2.32364933 L12.6491717,1.9385054 C12.6491717,1.71360875 12.6402732,1.69990962 12.5298566,1.71482502 C12.5187854,1.71632055 12.5080689,1.71803386 12.4968037,1.72006207 C12.4981813,1.71981406 12.4927429,1.72088639 12.4843778,1.72248582 L12.4301812,1.73206167 C12.4039116,1.73517377 12.3823018,1.73306516 12.36049,1.7232223 C12.3208574,1.70533764 12.2917858,1.67025994 12.2221278,1.56604825 C12.1893192,1.51696513 12.1540029,1.52177351 12.0286141,1.58285818 C12.0107916,1.59154059 12.0002812,1.59657482 11.9888078,1.6018429 C11.8605339,1.66074085 11.7714998,1.66245107 11.6957526,1.56992463 C11.5793573,1.42774577 11.5024715,1.43681221 11.3613246,1.5740469 C11.2916104,1.64182884 11.2564123,1.66748465 11.2118046,1.67403842 C11.1611586,1.68147935 11.161641,1.68407307 11.0257666,1.60081788 C11.0167286,1.61959582 10.9970898,1.62684835 10.9653109,1.63426064 C10.9228826,1.64415687 10.8598016,1.64751419 10.8175206,1.64090763 C10.7823435,1.63541108 10.7573868,1.6245529 10.7409058,1.59022467 C10.684926,1.58853575 10.6187098,1.58763222 10.5421591,1.58763222 L10.5421591,1.58763222 L10.5421591,1.48763222 C10.640224,1.48763222 10.721929,1.48908496 10.7878898,1.49185158 C10.8196687,1.46528172 10.8939027,1.3926043 10.9258115,1.402025 C10.9350719,1.404759 10.991362,1.46340366 11.0422634,1.49464267 C11.0390814,1.49171537 11.0392776,1.49153306 11.0393867,1.4914385 L11.0381185,1.49266128 C11.1736658,1.57528648 11.1787103,1.57789494 11.1981822,1.57503412 C11.2154983,1.57249003 11.2402905,1.55441905 11.2950086,1.50121754 Z" id="Combined-Shape" stroke="none" fill="#5E5E5E" fill-rule="nonzero"></path>
                        <path d="M6.77398122,15.885054 L6.83473094,15.3887582 C7.90929561,15.5202917 8.62679063,15.5860573 8.98830417,15.5863098 C9.53350202,15.6108286 10.1833089,15.5713395 10.9367022,15.4672431 L11.0051371,15.9625376 C10.2235872,16.0705244 9.54416263,16.1118134 8.97707245,16.0860573 C8.59969066,16.0860573 7.8687081,16.0190555 6.77398122,15.885054 Z" id="Path-389" stroke="none" fill="#272727" fill-rule="nonzero"></path>
                    </g>
                </g>
            </g>
        </g>
    </g>
</svg>