<?xml version="1.0" encoding="UTF-8"?>
<svg width="32px" height="24px" viewBox="0 0 32 24" version="1.1" xmlns="http://www.w3.org/2000/svg" xmlns:xlink="http://www.w3.org/1999/xlink">
    <title>flags/L/SX - Sint Maarten</title>
    <defs>
        <rect id="path-1" x="0" y="0" width="32" height="24"></rect>
        <rect id="path-3" x="0" y="0" width="32" height="24"></rect>
        <polygon id="path-5" points="0 -2 0 26 20 12"></polygon>
    </defs>
    <g id="Symbols" stroke="none" stroke-width="1" fill="none" fill-rule="evenodd">
        <g id="flag">
            <mask id="mask-2" fill="white">
                <use xlink:href="#path-1"></use>
            </mask>
            <g id="mask"></g>
            <g id="contents" mask="url(#mask-2)">
                <mask id="mask-4" fill="white">
                    <use xlink:href="#path-3"></use>
                </mask>
                <use id="background" fill="#E31D1C" xlink:href="#path-3"></use>
                <rect id="top" fill="#2E42A5" mask="url(#mask-4)" x="0" y="12" width="32" height="12"></rect>
                <mask id="mask-6" fill="white">
                    <use xlink:href="#path-5"></use>
                </mask>
                <use id="triangle" fill="#F7FCFF" xlink:href="#path-5"></use>
                <g id="mark" mask="url(#mask-6)">
                    <g transform="translate(2.000000, 6.000000)">
                        <g id="Group-7" stroke="none" stroke-width="1" fill="none" fill-rule="evenodd" transform="translate(2.020979, 0.000000)">
                            <ellipse id="Oval-52" fill="#FBCD17" cx="4.1048951" cy="2.09440559" rx="2.6013986" ry="2.09440559"></ellipse>
                            <path d="M3.96919334,0.728114994 C3.96919334,0.522181141 4.12008985,0.385365427 4.33245838,0.385365427 L5.1797358,0.385365427 C5.20323992,0.385341602 5.20323992,0.385341602 5.21766828,0.385400481 L5.2205995,0.885147065 L5.19713476,0.885703249 C5.14349154,0.887134222 5.14349154,0.887134222 5.04740816,0.891605074 C4.88847466,0.900078674 4.73808271,0.914644753 4.61459365,0.936108656 C4.62862884,0.94664027 4.64299298,0.957666253 4.6574392,0.968847459 C5.42422588,0.854518385 5.78577414,0.854518385 6.1755849,0.926035815 C6.22166558,0.934586663 6.22166558,0.934586663 6.26372337,0.942236617 C6.35850339,0.95908921 6.42410667,0.966114043 6.50716724,0.966114043 C6.58170842,0.966023453 6.58170842,0.966023453 6.62183264,0.966266544 C6.63073826,0.966412802 6.63073826,0.966412802 6.64629409,0.967327436 C6.65696584,0.967439188 6.65696584,0.967439188 6.74176825,0.99408939 L6.8683829,1.14720383 L6.74578707,1.43759162 C6.74989888,1.43573579 6.74989888,1.43573579 6.70402787,1.45523679 C6.64247209,1.46810682 6.64247209,1.46810682 6.62995621,1.46822386 C6.52402359,1.47599732 6.41462366,1.48449869 6.27850004,1.49688592 C5.89882131,1.53143664 5.47215473,1.5815195 4.9923302,1.65201941 C4.97789746,1.67103226 4.96048384,1.69238571 4.9401332,1.71734069 C4.88128144,1.76017268 4.84398775,1.76856577 4.7036629,1.79156861 C4.55920813,1.81524845 4.32411675,1.84387834 4.11639345,1.86352579 C4.01047347,1.87354421 3.91867758,1.88055132 3.85080328,1.88357683 C3.37261621,1.9048921 3.51544307,1.9110743 3.48459868,1.65894984 C3.46178979,1.47250819 3.38249934,1.44771744 3.54757385,1.40336069 C3.48655715,1.35570138 3.42681516,1.30329588 3.3696662,1.24540856 C3.26997438,1.14442875 3.2523287,1.13515837 3.26243765,1.13346061 C3.25641923,1.13447138 3.24924042,1.13705486 3.16718342,1.16792261 C2.97674471,1.23650173 2.78668316,1.25376065 2.51296372,1.20151351 C2.11450299,1.12545595 1.65834183,1.20334646 1.14129626,1.44294331 L0.931072719,0.989284778 C1.53689832,0.708547623 2.09650553,0.612993471 2.6067104,0.710380577 C2.79031329,0.745426408 2.8897522,0.736396659 2.99777736,0.697495585 C3.06553275,0.670358725 3.12196551,0.650049915 3.17962442,0.64036633 C3.3697863,0.608429395 3.52277026,0.688801436 3.72548151,0.894131652 C3.96522034,1.13696785 4.06853123,1.1633134 4.08113024,1.20659652 C4.08190416,1.19522052 4.07916192,1.1751671 4.07389621,1.15097287 C3.9882759,1.06715085 3.94747399,0.975764182 3.95042319,0.866201732 C3.95157552,0.823392607 3.95797913,0.785144539 3.96938379,0.750825226 C3.96924292,0.743703001 3.96919334,0.736196909 3.96919334,0.728114994 Z M3.96609808,1.82296052 C3.94881633,1.82644848 3.932879,1.82976045 3.91828147,1.83289593 C3.95814907,1.82433255 3.98927684,1.81798091 4.01319186,1.81291406 L3.96609808,1.82296052 Z" id="Path-301" fill="#DA610A" fill-rule="nonzero"></path>
                        </g>
                        <path d="M5.92500333,2.5807351 C6.98789691,2.43299866 7.66531893,2.41399981 8.1125624,2.56401358 C8.49776653,2.69321821 8.97313729,2.68247822 9.53980774,2.49386511 C9.37618086,3.22237552 9.29529012,3.90178347 9.29529012,4.53184378 C9.29529012,5.26552837 9.43804317,5.8555022 9.57856506,6.42181296 C9.69037931,6.87243042 9.80232679,7.30551753 9.80232679,7.80441351 C9.80232679,8.15351837 9.70393525,8.41524726 9.48799866,8.58176851 C9.20418294,8.80063533 8.77799699,8.87045155 8.27156565,8.87045155 C7.46921011,8.87045155 6.71727149,9.08330579 6.01670352,9.51227698 C5.29248586,9.08238509 4.54135805,8.87045155 3.74023164,8.87045155 C3.23380031,8.87045155 2.80761435,8.80063533 2.52379863,8.58176851 C2.30786205,8.41524726 2.2094705,8.15351837 2.2094705,7.80441351 C2.2094705,7.30551753 2.32141799,6.87243042 2.43323224,6.42181296 C2.57375413,5.8555022 2.71650718,5.26552837 2.71650718,4.53184378 C2.71650718,3.90172697 2.63560193,3.22225367 2.47206061,2.49375738 C3.03874993,2.68248025 3.5140672,2.69320599 3.8992349,2.56401358 C4.34647837,2.41399981 5.02390038,2.43299866 5.92500333,2.5807351 Z" id="shield" stroke="#E31D1C" stroke-width="1" fill="#56C6F5" fill-rule="evenodd"></path>
                        <path d="M6.01338661,3.938462 L6.78481518,4.62417629 L6.49895804,4.623462 L6.49895804,4.983462 L7.75624376,5.76703343 L7.75595804,7.595462 L8.04195804,7.59560486 L8.04195804,7.938462 L4.04195804,7.938462 L4.04195804,7.59560486 L4.26995804,7.595462 L4.27052947,5.76703343 L5.46995804,5.018462 L5.46995804,4.623462 L5.24195804,4.62417629 L6.01338661,3.938462 Z" id="Combined-Shape" stroke="#3B3B3B" stroke-width="0.25" fill="#F7FCFF" fill-rule="evenodd"></path>
                        <path d="M5.95187389,11.0203872 C7.01291618,11.0203872 7.74336447,10.9045532 8.11950038,10.7071034 C8.21810903,10.5394207 8.39104979,10.4447556 8.57507733,10.4515661 C9.40152701,10.4821474 10.0416034,10.1339866 10.5447884,9.36876495 C11.0884782,8.54194541 11.1977235,7.36747887 10.8433681,5.82588289 L11.7429845,5.61909463 C12.1489985,7.38542725 12.0164086,8.8108656 11.3160584,9.87592722 C10.6884911,10.8303039 9.83282264,11.3400611 8.78855429,11.3746092 C8.25520246,11.7695409 7.3205215,11.9434641 5.95187389,11.9434641 C4.62782001,11.9434641 3.64610755,11.6863764 3.01647228,11.1401369 C1.58658789,10.8023314 0.67792704,10.232016 0.320637526,9.38667964 C-0.0602283056,8.48556245 -0.0602283056,7.23459162 0.295048225,5.62312091 L1.19647772,5.8218566 C0.878594194,7.26371933 0.878594194,8.33575353 1.17088842,9.02731293 C1.37485492,9.50989158 1.96749744,9.90371771 2.97153246,10.1767592 L3.90434441,10.3762178 L3.85956231,10.6117715 C4.31462941,10.8777621 5.01011731,11.0203872 5.95187389,11.0203872 Z" id="Path-302" stroke="none" fill="#FBCD17" fill-rule="nonzero"></path>
                        <path d="M3.0439849,3.82667818 C2.78779673,3.72361397 2.66366523,3.43238237 2.76672944,3.1761942 C2.86979364,2.92000602 3.16102524,2.79587452 3.41721341,2.89893873 L3.92856388,3.10465444 C4.00366044,3.1348657 4.06722274,3.18109363 4.11707145,3.23771927 C4.19144573,3.22454163 4.26519051,3.22924028 4.33397192,3.24853532 L4.84986745,3.09046207 C5.11389385,3.00956292 5.39351125,3.15801689 5.4744104,3.42204329 C5.5156354,3.5565872 5.49730268,3.69517973 5.43446857,3.80946188 C5.64251312,4.16098539 5.32353684,4.68112686 4.85197767,4.53891087 L4.82904068,4.53199338 L4.77220489,4.77250448 C4.71145211,5.02959109 4.50930975,5.15261317 4.30368451,5.15764392 C3.98189444,5.41418255 3.39997928,5.16213458 3.50262355,4.65787426 L3.51414306,4.60128235 C3.16031649,4.62346309 2.86047328,4.24760837 3.03568944,3.8833364 L3.05986864,3.83306818 L3.0439849,3.82667818 Z M4.95124959,4.01484383 L4.32028107,4.37855824 L4.82904068,4.53199338 L4.95124959,4.01484383 Z" id="Path-303" stroke="none" fill="#73BE4A" fill-rule="nonzero"></path>
                        <path d="M4.20540776,4.47593949 C4.48155013,4.47593949 4.70540776,4.25208187 4.70540776,3.97593949 C4.70540776,3.69979712 4.48155013,3.47593949 4.20540776,3.47593949 C3.92926538,3.47593949 3.70540776,3.69979712 3.70540776,3.97593949 C3.70540776,4.25208187 3.92926538,4.47593949 4.20540776,4.47593949 Z" id="Oval-53" stroke="none" fill="#FBCD17" fill-rule="evenodd"></path>
                        <path d="M8.0249015,2.969231 C8.16102202,2.969231 8.23352956,3.33576942 8.24242412,4.06884625 C8.43185017,4.11793363 8.61002142,4.23844406 8.77757311,4.42996733 L8.77757311,4.42996733 L7.306032,4.42996733 C7.306032,4.42996733 7.52780825,4.1764616 7.82262635,4.07958619 L7.82377645,4.22797226 C7.8122229,3.38881142 7.87926459,2.969231 8.0249015,2.969231 Z" id="Combined-Shape" stroke="none" fill="#F7FCFF" fill-rule="evenodd"></path>
                        <path d="M0.55046674,6.56851971 L0.796767557,6.6113672 C0.597392874,7.75743548 0.597392874,8.57918072 0.789959436,9.0692982 C1.01409136,9.63975537 2.33635777,10.4049786 2.71040804,10.4049786 L2.71040804,10.6549786 C2.23996934,10.6549786 0.821936943,9.83433359 0.55727486,9.16071969 C0.34389044,8.61761691 0.34389044,7.75598515 0.55046674,6.56851971 Z" id="Path-2" stroke="none" fill="#73BE4A" fill-rule="nonzero"></path>
                        <path d="M9.31736113,6.50880977 L9.56391457,6.55017887 C9.38348088,7.62553593 9.42392027,8.464481 9.68026019,9.06600425 C9.98923918,9.79104951 11.1824999,10.7147805 11.4954156,10.7147805 L11.4954156,10.9647805 C11.0741635,10.9647805 9.79602089,9.97534049 9.45027289,9.16401364 C9.17236289,8.51187439 9.12971649,7.62714305 9.31736113,6.50880977 Z" id="Path-2" stroke="none" fill="#73BE4A" fill-rule="nonzero" transform="translate(10.349220, 8.736795) scale(-1, 1) translate(-10.349220, -8.736795) "></path>
                        <path d="M4.39307008,11.4238778 L4.44016535,11.1783538 C5.23674277,11.3311495 5.78090306,11.4074815 6.06599207,11.4074815 C6.35048592,11.4074815 6.86519205,11.3313059 7.60400648,11.1786999 L7.65457774,11.4235316 C6.89990431,11.5794133 6.37241041,11.6574815 6.06599207,11.6574815 C5.76016889,11.6574815 5.20474628,11.5795697 4.39307008,11.4238778 Z" id="Path-3" stroke="none" fill="#73BE4A" fill-rule="nonzero"></path>
                    </g>
                </g>
            </g>
        </g>
    </g>
</svg>