<?xml version="1.0" encoding="UTF-8"?>
<svg width="32px" height="24px" viewBox="0 0 32 24" version="1.1" xmlns="http://www.w3.org/2000/svg" xmlns:xlink="http://www.w3.org/1999/xlink">
    <title>flags/L/TC - Turks and Caicos Islands</title>
    <defs>
        <rect id="path-1" x="0" y="0" width="32" height="24"></rect>
        <rect id="path-3" x="0" y="0" width="32" height="24"></rect>
        <rect id="path-5" x="0" y="0" width="18" height="14"></rect>
    </defs>
    <g id="Symbols" stroke="none" stroke-width="1" fill="none" fill-rule="evenodd">
        <g id="flag">
            <mask id="mask-2" fill="white">
                <use xlink:href="#path-1"></use>
            </mask>
            <g id="mask"></g>
            <g id="contents" mask="url(#mask-2)">
                <mask id="mask-4" fill="white">
                    <use xlink:href="#path-3"></use>
                </mask>
                <use id="background" fill="#2E42A5" xlink:href="#path-3"></use>
                <g id="masked" mask="url(#mask-4)">
                    <g transform="translate(20.000000, 10.000000)">
                        <path d="M1.04668039,0.0326909109 C1.63738334,7.9868893 3.26470598,11.9639885 5.92864831,11.9639885 C8.59259064,11.9639885 10.2521625,7.9868893 10.9073639,0.0326909109 L1.04668039,0.0326909109 Z" id="Path-2" stroke="#F7FCFF" stroke-width="0.5" fill="#FECA00"></path>
                        <g id="mark" stroke="none" stroke-width="1" fill="none" transform="translate(0.800049, 0.000000)">
                            <path d="M7.64633983,0 L7.88785678,0.0281360316 L7.76675839,0.779450005 C7.78240729,0.774386308 7.7979018,0.769517244 7.81324116,0.764842692 L8.29398447,0.186420837 L8.50013218,0.296225323 L8.24725208,0.681644253 C8.49732224,0.669729075 8.67612108,0.742175301 8.77665555,0.897902212 L9.47102577,0.456557052 L9.61746044,0.621826572 L8.85616764,1.10709477 C8.86650837,1.16185778 8.87173434,1.22186215 8.87173434,1.28709069 L8.87173434,1.28709069 L8.87157625,1.399 L9.92250189,1.16928615 L10,1.36472377 L8.87157625,1.764 L8.87157625,1.901 L9.94141633,1.81433351 L9.97362327,2.01909281 L8.87157625,2.179 L8.87157625,2.414 L9.97631672,2.5977415 L9.93184259,2.80098088 L8.87157625,2.641 L8.87173434,4.94063308 L8.70921057,4.94063308 L8.70857625,2.617 L7.99543047,2.51202885 C7.88120246,3.29795623 7.82978383,3.80666143 7.8411746,4.03814445 C7.86329898,4.48775569 8.44285841,4.48057473 8.27264997,4.64723653 C8.10244152,4.81389833 7.67706119,4.97355473 7.25149374,4.97355473 C6.82592628,4.97355473 6.40624765,4.81389833 6.31525284,4.64723653 C6.22425803,4.48057473 6.70914519,5.32366253 6.74077395,4.03814445 C6.75401994,3.4997751 6.70297084,2.99789089 6.58762667,2.53249182 L6.01857625,2.617 L6.01936568,4.94063308 L5.85684191,4.94063308 L5.85657625,2.642 L4.79673366,2.80098088 L4.75225953,2.5977415 L5.85657625,2.414 L5.85657625,2.179 L4.75495298,2.01909281 L4.78715992,1.81433351 L5.85657625,1.901 L5.85657625,1.764 L4.72857625,1.36472377 L4.80607436,1.16928615 L5.85657625,1.399 L5.85684191,1.28709069 C5.85684191,1.22186215 5.86206788,1.16185778 5.87240861,1.10709477 L5.11111581,0.621826572 L5.25755048,0.456557052 L5.9519207,0.897902212 C6.05245517,0.742175301 6.23125401,0.669729075 6.48132417,0.681644253 L6.22844407,0.296225323 L6.43459178,0.186420837 L6.91533509,0.764842692 C6.93067444,0.769517244 6.94616896,0.774386308 6.96181786,0.779450005 L6.84071946,0.0281360316 L7.08223642,0 L7.24076169,0.973756459 C7.24436323,0.973621971 7.24794057,0.973554727 7.25149374,0.973554727 C7.32013434,0.973554727 7.39536409,0.998649706 7.47718298,1.04883967 L7.64633983,0 Z M8.6446051,0.982868675 C8.56297073,0.841213695 8.4021694,0.789681533 8.15200879,0.826697051 L7.80911848,1.34807352 C7.83897521,1.3821667 7.86944311,1.41858756 7.90052219,1.45733609 Z M6.08397115,0.982868675 L6.65743371,1.34813674 C6.71389466,1.29009763 6.76792966,1.23880311 6.81953869,1.19425319 L6.57596423,0.826607939 C6.32614833,0.789764456 6.16553989,0.841327587 6.08397115,0.982868675 Z" id="Combined-Shape" fill="#CF6900"></path>
                            <path d="M4.07797021,5.84278704 C3.20216198,7.30952966 2.76425786,8.48741643 2.76425786,9.37644733 C3.36104222,9.84976039 4.17266342,10.0864169 5.19912146,10.0864169 C6.22557949,10.0864169 7.0028932,9.84976039 7.53106258,9.37644733 C7.24205268,8.32257382 6.85159745,7.14468706 6.35969689,5.84278704 L4.07797021,5.84278704 Z" id="Path-340" fill="#00A727"></path>
                            <path d="M5.23895661,4.1380925 C5.84483256,4.1380925 6.33599206,4.629252 6.33599206,5.23512795 L6.33599206,5.98561299 L6.33599206,5.98561299 L4.14192117,5.98561299 L4.14192117,5.23512795 C4.14192117,4.629252 4.63308067,4.1380925 5.23895661,4.1380925 Z" id="Rectangle-86" fill="#E31D1C"></path>
                            <path d="M0.719110074,2.83348244 C1.8750343,3.0716184 2.45299641,3.37843329 2.45299641,3.75392713 C2.45299641,4.31716788 3.15116487,4.52026656 3.3226668,4.36799764 C3.49416874,4.21572872 4.70237214,4.10922127 4.70237214,3.37505444 C4.70237214,2.6408876 4.80323459,2.44102087 4.50976778,1.97481208 C4.21630097,1.50860328 3.60433056,-0.0673396395 3.46349868,0.564065876 C3.3226668,1.19547139 3.11067588,1.66322271 2.71911007,1.28684743 C2.32754427,0.910472159 1.82457327,0.113649564 1.64806398,0.564065876 C1.47155469,1.01448219 2.20754657,1.46658793 1.64806398,1.46658793 C1.08858139,1.46658793 1.48291066,1.4961162 1.48291066,1.87748631 C1.48291066,2.25885641 1.54925812,2.6183374 1.1341841,2.6183374 C0.857468082,2.6183374 0.719110074,2.69005242 0.719110074,2.83348244 Z" id="Path-343" fill="#FF927F"></path>
                        </g>
                    </g>
                </g>
                <g id="gb---large" mask="url(#mask-4)">
                    <g id="flag">
                        <mask id="mask-6" fill="white">
                            <use xlink:href="#path-5"></use>
                        </mask>
                        <use id="mask" fill="#2B409A" xlink:href="#path-5"></use>
                        <g id="contents" mask="url(#mask-6)">
                            <g transform="translate(-3.000000, -2.000000)">
                                <g id="stripe">
                                    <polygon id="white" fill="#F7FCFF" fill-rule="nonzero" transform="translate(12.087462, 8.731805) scale(1, -1) translate(-12.087462, -8.731805) " points="0.995733743 2.46378897 4.95668418 0.726588534 21.0898804 13.5748663 23.1791912 16.1563978 18.9435246 16.7370214 12.3631795 11.2003309 7.066678 7.46989524"></polygon>
                                    <polygon id="red" fill="#F50100" fill-rule="nonzero" transform="translate(11.983464, 9.146214) scale(1, -1) translate(-11.983464, -9.146214) " points="1.53799381 2.07548339 3.55591517 1.0673567 22.4289341 17.2250722 19.5955377 17.2250722"></polygon>
                                </g>
                                <g id="stripe" transform="translate(12.000000, 8.500000) scale(-1, 1) translate(-12.000000, -8.500000) ">
                                    <polygon id="white" fill="#F7FCFF" fill-rule="nonzero" transform="translate(12.087462, 8.731805) scale(1, -1) translate(-12.087462, -8.731805) " points="0.995733743 2.46378897 4.95668418 0.726588534 21.0898804 13.5748663 23.1791912 16.1563978 18.9435246 16.7370214 12.3631795 11.2003309 7.066678 7.46989524"></polygon>
                                    <polygon id="red" fill="#F50100" fill-rule="nonzero" transform="translate(12.255557, 9.098760) scale(1, -1) translate(-12.255557, -9.098760) " points="1.13088612 2.32417911 3.14880748 1.31605242 11.1851345 8.23400982 13.567733 9.00693659 23.3802288 16.8814684 20.5468324 16.8814684 10.7398496 9.19384456 8.134898 8.26702255"></polygon>
                                </g>
                                <g id="cross" transform="translate(3.000000, 2.000000)">
                                    <path d="M10.7345755,-0.75 L10.7340639,5.25 L18.75,5.25 L18.75,8.75 L10.7340639,8.75 L10.7345755,14.75 L7.23457546,14.75 L7.23406394,8.75 L-0.75,8.75 L-0.75,5.25 L7.23406394,5.25 L7.23457546,-0.75 L10.7345755,-0.75 Z" id="red" stroke="#F7FCFF" stroke-width="1.5" fill="#F50100"></path>
                                </g>
                            </g>
                        </g>
                    </g>
                </g>
            </g>
        </g>
    </g>
</svg>