<?xml version="1.0" encoding="UTF-8"?>
<svg width="32px" height="24px" viewBox="0 0 32 24" version="1.1" xmlns="http://www.w3.org/2000/svg" xmlns:xlink="http://www.w3.org/1999/xlink">
    <title>flags/L/TR - Turkey</title>
    <defs>
        <rect id="path-1" x="0" y="0" width="32" height="24"></rect>
        <rect id="path-3" x="0" y="0" width="32" height="24"></rect>
    </defs>
    <g id="Symbols" stroke="none" stroke-width="1" fill="none" fill-rule="evenodd">
        <g id="flag">
            <mask id="mask-2" fill="white">
                <use xlink:href="#path-1"></use>
            </mask>
            <g id="mask"></g>
            <g id="contents" mask="url(#mask-2)">
                <mask id="mask-4" fill="white">
                    <use xlink:href="#path-3"></use>
                </mask>
                <use id="background" fill="#E31D1C" xlink:href="#path-3"></use>
                <path d="M15.8726302,4.06560696 C17.7253974,4.09484297 19.9664307,5.21307855 20.5900755,6.76000776 C20.5900755,6.76000776 18.5388114,5.52940721 16.1753984,6.05100403 C13.8119855,6.57260085 12.2868775,8.62515234 12.2257362,11.0838656 C12.1604198,13.7104698 13.8060137,15.5317952 15.9377996,16.0966008 C18.0695856,16.6614064 20.3481481,15.4466404 20.3481481,15.4466404 C20.0589457,16.2564139 18.6979607,18.1480905 15.8990415,18.1039246 C12.4076568,18.0488317 8.48209137,15.4541819 8.59234609,11.0204445 C8.69869353,6.74383306 12.4238307,4.01118612 15.8726302,4.06560696 Z M20.8750765,8.14648241 L22.4304124,9.93748994 L24.6625907,9.22936333 L23.2664795,11.1090843 L25.3113095,12.9297966 L22.6949424,12.6937125 L21.0757999,14.5693499 L21.1611207,12.0330666 L18.7691114,11.1419906 L20.9159368,10.3956759 L20.8750765,8.14648241 Z" id="Combined-shape-1695" fill="#F7FCFF" mask="url(#mask-4)" transform="translate(16.950693, 11.084747) rotate(-1.000000) translate(-16.950693, -11.084747) "></path>
            </g>
        </g>
    </g>
</svg>