<?xml version="1.0" encoding="UTF-8"?>
<svg width="32px" height="24px" viewBox="0 0 32 24" version="1.1" xmlns="http://www.w3.org/2000/svg" xmlns:xlink="http://www.w3.org/1999/xlink">
    <title>flags/L/TV - Tuvalu</title>
    <defs>
        <rect id="path-1" x="0" y="0" width="32" height="24"></rect>
        <rect id="path-3" x="0" y="0" width="32" height="24"></rect>
        <rect id="path-5" x="0" y="0" width="18" height="14"></rect>
    </defs>
    <g id="Symbols" stroke="none" stroke-width="1" fill="none" fill-rule="evenodd">
        <g id="flag">
            <mask id="mask-2" fill="white">
                <use xlink:href="#path-1"></use>
            </mask>
            <g id="mask"></g>
            <g id="contents" mask="url(#mask-2)">
                <mask id="mask-4" fill="white">
                    <use xlink:href="#path-3"></use>
                </mask>
                <use id="background" fill="#00B4FF" xlink:href="#path-3"></use>
                <g id="gb---large" mask="url(#mask-4)">
                    <g id="flag">
                        <mask id="mask-6" fill="white">
                            <use xlink:href="#path-5"></use>
                        </mask>
                        <use id="mask" fill="#2B409A" xlink:href="#path-5"></use>
                        <g id="contents" mask="url(#mask-6)">
                            <g transform="translate(-3.000000, -2.000000)">
                                <g id="stripe">
                                    <polygon id="white" fill="#F7FCFF" fill-rule="nonzero" transform="translate(12.087462, 8.731805) scale(1, -1) translate(-12.087462, -8.731805) " points="0.995733743 2.46378897 4.95668418 0.726588534 21.0898804 13.5748663 23.1791912 16.1563978 18.9435246 16.7370214 12.3631795 11.2003309 7.066678 7.46989524"></polygon>
                                    <polygon id="red" fill="#F50100" fill-rule="nonzero" transform="translate(11.983464, 9.146214) scale(1, -1) translate(-11.983464, -9.146214) " points="1.53799381 2.07548339 3.55591517 1.0673567 22.4289341 17.2250722 19.5955377 17.2250722"></polygon>
                                </g>
                                <g id="stripe" transform="translate(12.000000, 8.500000) scale(-1, 1) translate(-12.000000, -8.500000) ">
                                    <polygon id="white" fill="#F7FCFF" fill-rule="nonzero" transform="translate(12.087462, 8.731805) scale(1, -1) translate(-12.087462, -8.731805) " points="0.995733743 2.46378897 4.95668418 0.726588534 21.0898804 13.5748663 23.1791912 16.1563978 18.9435246 16.7370214 12.3631795 11.2003309 7.066678 7.46989524"></polygon>
                                    <polygon id="red" fill="#F50100" fill-rule="nonzero" transform="translate(12.255557, 9.098760) scale(1, -1) translate(-12.255557, -9.098760) " points="1.13088612 2.32417911 3.14880748 1.31605242 11.1851345 8.23400982 13.567733 9.00693659 23.3802288 16.8814684 20.5468324 16.8814684 10.7398496 9.19384456 8.134898 8.26702255"></polygon>
                                </g>
                                <g id="cross" transform="translate(3.000000, 2.000000)">
                                    <path d="M10.7345755,-0.75 L10.7340639,5.25 L18.75,5.25 L18.75,8.75 L10.7340639,8.75 L10.7345755,14.75 L7.23457546,14.75 L7.23406394,8.75 L-0.75,8.75 L-0.75,5.25 L7.23406394,5.25 L7.23457546,-0.75 L10.7345755,-0.75 Z" id="red" stroke="#F7FCFF" stroke-width="1.5" fill="#F50100"></path>
                                </g>
                            </g>
                        </g>
                    </g>
                </g>
                <g id="mark-2" mask="url(#mask-4)" fill="#FFD018">
                    <g transform="translate(10.000000, 6.000000)" id="Combined-Shape">
                        <path d="M6.10705693,13.3482053 L7.23110148,14.0298598 L8.12021352,13.4956274 L7.76462649,14.6582285 L8.79601132,15.5196166 L7.46391122,15.559413 L6.85671613,16.6848627 L6.51612413,15.4084044 L5.2087928,15.2449855 L6.21587897,14.6398671 L6.10705693,13.3482053 Z M2.94995037,13.1414042 L3.56236655,14.3046219 L4.59963435,14.3046219 L3.69605295,15.1180247 L4.13647464,16.3875808 L2.97414535,15.7356107 L1.8740281,16.3875808 L2.23950841,15.1180247 L1.20307371,14.3046219 L2.37797406,14.3046219 L2.94995037,13.1414042 Z M10.1070569,11.3482053 L11.2311015,12.0298598 L12.1202135,11.4956274 L11.7646265,12.6582285 L12.7960113,13.5196166 L11.4639112,13.559413 L10.8567161,14.6848627 L10.5161241,13.4084044 L9.2087928,13.2449855 L10.215879,12.6398671 L10.1070569,11.3482053 Z M6.10705693,9.34820528 L7.23110148,10.0298598 L8.12021352,9.49562742 L7.76462649,10.6582285 L8.79601132,11.5196166 L7.46391122,11.559413 L6.85671613,12.6848627 L6.51612413,11.4084044 L5.2087928,11.2449855 L6.21587897,10.6398671 L6.10705693,9.34820528 Z M14.1070569,9.34820528 L15.2311015,10.0298598 L16.1202135,9.49562742 L15.7646265,10.6582285 L16.7960113,11.5196166 L15.4639112,11.559413 L14.8567161,12.6848627 L14.5161241,11.4084044 L13.2087928,11.2449855 L14.215879,10.6398671 L14.1070569,9.34820528 Z M16.1070569,7.34820528 L17.2311015,8.02985983 L18.1202135,7.49562742 L17.7646265,8.65822849 L18.7960113,9.51961659 L17.4639112,9.55941295 L16.8567161,10.6848627 L16.5161241,9.40840439 L15.2087928,9.24498547 L16.215879,8.63986706 L16.1070569,7.34820528 Z M10.1070569,5.34820528 L11.2311015,6.02985983 L12.1202135,5.49562742 L11.7646265,6.65822849 L12.7960113,7.51961659 L11.4639112,7.55941295 L10.8567161,8.6848627 L10.5161241,7.40840439 L9.2087928,7.24498547 L10.215879,6.63986706 L10.1070569,5.34820528 Z M12.1070569,3.34820528 L13.2311015,4.02985983 L14.1202135,3.49562742 L13.7646265,4.65822849 L14.7960113,5.51961659 L13.4639112,5.55941295 L12.8567161,6.6848627 L12.5161241,5.40840439 L11.2087928,5.24498547 L12.215879,4.63986706 L12.1070569,3.34820528 Z M16.1070569,1.34820528 L17.2311015,2.02985983 L18.1202135,1.49562742 L17.7646265,2.65822849 L18.7960113,3.51961659 L17.4639112,3.55941295 L16.8567161,4.6848627 L16.5161241,3.40840439 L15.2087928,3.24498547 L16.215879,2.63986706 L16.1070569,1.34820528 Z"></path>
                    </g>
                </g>
            </g>
        </g>
    </g>
</svg>