<?xml version="1.0" encoding="UTF-8"?>
<svg width="32px" height="24px" viewBox="0 0 32 24" version="1.1" xmlns="http://www.w3.org/2000/svg" xmlns:xlink="http://www.w3.org/1999/xlink">
    <title>flags/L/TW - Taiwan</title>
    <defs>
        <rect id="path-1" x="0" y="0" width="32" height="24"></rect>
        <rect id="path-3" x="0" y="0" width="32" height="24"></rect>
    </defs>
    <g id="Symbols" stroke="none" stroke-width="1" fill="none" fill-rule="evenodd">
        <g id="flag">
            <mask id="mask-2" fill="white">
                <use xlink:href="#path-1"></use>
            </mask>
            <g id="mask"></g>
            <g id="contents" mask="url(#mask-2)">
                <mask id="mask-4" fill="white">
                    <use xlink:href="#path-3"></use>
                </mask>
                <use id="background" fill="#EF0000" xlink:href="#path-3"></use>
                <g id="mark" mask="url(#mask-4)">
                    <rect id="top" fill="#2E42A5" x="0" y="0" width="18" height="14"></rect>
                    <path d="M10.2112886,1.6 L10.5701881,3.94168705 L12.7775984,3.08165962 L11.9175709,5.28906986 L14.259258,5.64796938 L12.4107473,7.129629 L14.259258,8.61128862 L11.9175709,8.97018814 L12.7775984,11.1775984 L10.5701881,10.3175709 L10.2112886,12.659258 L8.729629,10.8107473 L7.24796938,12.659258 L6.88906986,10.3175709 L4.68165962,11.1775984 L5.54168705,8.97018814 L3.2,8.61128862 L5.04851072,7.129629 L3.2,5.64796938 L5.54168705,5.28906986 L4.68165962,3.08165962 L6.88906986,3.94168705 L7.24796938,1.6 L8.729629,3.44851072 L10.2112886,1.6 Z M8.729629,4.2672824 C7.14879863,4.2672824 5.8672824,5.54879863 5.8672824,7.129629 C5.8672824,8.71045937 7.14879863,9.9919756 8.729629,9.9919756 C10.3104594,9.9919756 11.5919756,8.71045937 11.5919756,7.129629 C11.5919756,5.54879863 10.3104594,4.2672824 8.729629,4.2672824 Z M8.729629,4.83975172 C9.9942933,4.83975172 11.0195063,5.8649647 11.0195063,7.129629 C11.0195063,8.3942933 9.9942933,9.41950628 8.729629,9.41950628 C7.4649647,9.41950628 6.43975172,8.3942933 6.43975172,7.129629 C6.43975172,5.8649647 7.4649647,4.83975172 8.729629,4.83975172 Z" id="Star-19" fill="#FEFFFF"></path>
                </g>
            </g>
        </g>
    </g>
</svg>