<?xml version="1.0" encoding="UTF-8"?>
<svg width="32px" height="24px" viewBox="0 0 32 24" version="1.1" xmlns="http://www.w3.org/2000/svg" xmlns:xlink="http://www.w3.org/1999/xlink">
    <title>flags/L/UM - United States Minor Outlying Islands</title>
    <defs>
        <rect id="path-1" x="0" y="0" width="32" height="24"></rect>
    </defs>
    <g id="Symbols" stroke="none" stroke-width="1" fill="none" fill-rule="evenodd">
        <g id="flag">
            <mask id="mask-2" fill="white">
                <use xlink:href="#path-1"></use>
            </mask>
            <g id="mask"></g>
            <g id="contents" mask="url(#mask-2)">
                <polygon id="middle" fill="#F7FCFF" points="0 0 32 0 32 24 0 24"></polygon>
                <rect id="Combined-Shape" fill="#E31D1C" x="0" y="14.6666667" width="32" height="2"></rect>
                <rect id="Combined-Shape" fill="#E31D1C" x="0" y="18.3333333" width="32" height="2"></rect>
                <rect id="Combined-Shape" fill="#E31D1C" x="0" y="7.33333333" width="32" height="2"></rect>
                <rect id="Combined-Shape" fill="#E31D1C" x="0" y="22" width="32" height="2"></rect>
                <rect id="Combined-Shape" fill="#E31D1C" x="0" y="11" width="32" height="2"></rect>
                <rect id="Combined-Shape" fill="#E31D1C" x="0" y="0" width="32" height="2"></rect>
                <rect id="Combined-Shape" fill="#E31D1C" x="0" y="3.66666667" width="32" height="2"></rect>
                <rect id="Rectangle-82" fill="#2E42A5" x="0" y="0" width="20" height="13"></rect>
                <path d="M1.72102556,9.228967 L2.05219672,9.9680344 L2.77005299,9.9680344 L2.20601656,10.5419464 L2.42437805,11.4475563 L1.72204002,10.9386687 L0.996160538,11.4475563 L1.24122547,10.5419464 L0.596509,9.9680344 L1.4385963,9.9680344 L1.72102556,9.228967 Z M5.72102556,9.228967 L6.05219672,9.9680344 L6.77005299,9.9680344 L6.20601656,10.5419464 L6.42437805,11.4475563 L5.72204002,10.9386687 L4.99616054,11.4475563 L5.24122547,10.5419464 L4.596509,9.9680344 L5.4385963,9.9680344 L5.72102556,9.228967 Z M9.72102556,9.228967 L10.0521967,9.9680344 L10.770053,9.9680344 L10.2060166,10.5419464 L10.424378,11.4475563 L9.72204002,10.9386687 L8.99616054,11.4475563 L9.24122547,10.5419464 L8.596509,9.9680344 L9.4385963,9.9680344 L9.72102556,9.228967 Z M13.7210256,9.228967 L14.0521967,9.9680344 L14.770053,9.9680344 L14.2060166,10.5419464 L14.424378,11.4475563 L13.72204,10.9386687 L12.9961605,11.4475563 L13.2412255,10.5419464 L12.596509,9.9680344 L13.4385963,9.9680344 L13.7210256,9.228967 Z M17.7210256,9.228967 L18.0521967,9.9680344 L18.770053,9.9680344 L18.2060166,10.5419464 L18.424378,11.4475563 L17.72204,10.9386687 L16.9961605,11.4475563 L17.2412255,10.5419464 L16.596509,9.9680344 L17.4385963,9.9680344 L17.7210256,9.228967 Z M3.72102556,7.228967 L4.05219672,7.9680344 L4.77005299,7.9680344 L4.20601656,8.54194635 L4.42437805,9.44755626 L3.72204002,8.93866865 L2.99616054,9.44755626 L3.24122547,8.54194635 L2.596509,7.9680344 L3.4385963,7.9680344 L3.72102556,7.228967 Z M7.72102556,7.228967 L8.05219672,7.9680344 L8.77005299,7.9680344 L8.20601656,8.54194635 L8.42437805,9.44755626 L7.72204002,8.93866865 L6.99616054,9.44755626 L7.24122547,8.54194635 L6.596509,7.9680344 L7.4385963,7.9680344 L7.72102556,7.228967 Z M11.7210256,7.228967 L12.0521967,7.9680344 L12.770053,7.9680344 L12.2060166,8.54194635 L12.424378,9.44755626 L11.72204,8.93866865 L10.9961605,9.44755626 L11.2412255,8.54194635 L10.596509,7.9680344 L11.4385963,7.9680344 L11.7210256,7.228967 Z M15.7210256,7.228967 L16.0521967,7.9680344 L16.770053,7.9680344 L16.2060166,8.54194635 L16.424378,9.44755626 L15.72204,8.93866865 L14.9961605,9.44755626 L15.2412255,8.54194635 L14.596509,7.9680344 L15.4385963,7.9680344 L15.7210256,7.228967 Z M9.72102556,5.228967 L10.0521967,5.9680344 L10.770053,5.9680344 L10.2060166,6.54194635 L10.424378,7.44755626 L9.72204002,6.93866865 L8.99616054,7.44755626 L9.24122547,6.54194635 L8.596509,5.9680344 L9.4385963,5.9680344 L9.72102556,5.228967 Z M13.7210256,5.228967 L14.0521967,5.9680344 L14.770053,5.9680344 L14.2060166,6.54194635 L14.424378,7.44755626 L13.72204,6.93866865 L12.9961605,7.44755626 L13.2412255,6.54194635 L12.596509,5.9680344 L13.4385963,5.9680344 L13.7210256,5.228967 Z M1.72102556,5.228967 L2.05219672,5.9680344 L2.77005299,5.9680344 L2.20601656,6.54194635 L2.42437805,7.44755626 L1.72204002,6.93866865 L0.996160538,7.44755626 L1.24122547,6.54194635 L0.596509,5.9680344 L1.4385963,5.9680344 L1.72102556,5.228967 Z M5.72102556,5.228967 L6.05219672,5.9680344 L6.77005299,5.9680344 L6.20601656,6.54194635 L6.42437805,7.44755626 L5.72204002,6.93866865 L4.99616054,7.44755626 L5.24122547,6.54194635 L4.596509,5.9680344 L5.4385963,5.9680344 L5.72102556,5.228967 Z M17.7210256,5.228967 L18.0521967,5.9680344 L18.770053,5.9680344 L18.2060166,6.54194635 L18.424378,7.44755626 L17.72204,6.93866865 L16.9961605,7.44755626 L17.2412255,6.54194635 L16.596509,5.9680344 L17.4385963,5.9680344 L17.7210256,5.228967 Z M3.72102556,3.228967 L4.05219672,3.9680344 L4.77005299,3.9680344 L4.20601656,4.54194635 L4.42437805,5.44755626 L3.72204002,4.93866865 L2.99616054,5.44755626 L3.24122547,4.54194635 L2.596509,3.9680344 L3.4385963,3.9680344 L3.72102556,3.228967 Z M7.72102556,3.228967 L8.05219672,3.9680344 L8.77005299,3.9680344 L8.20601656,4.54194635 L8.42437805,5.44755626 L7.72204002,4.93866865 L6.99616054,5.44755626 L7.24122547,4.54194635 L6.596509,3.9680344 L7.4385963,3.9680344 L7.72102556,3.228967 Z M11.7210256,3.228967 L12.0521967,3.9680344 L12.770053,3.9680344 L12.2060166,4.54194635 L12.424378,5.44755626 L11.72204,4.93866865 L10.9961605,5.44755626 L11.2412255,4.54194635 L10.596509,3.9680344 L11.4385963,3.9680344 L11.7210256,3.228967 Z M15.7210256,3.228967 L16.0521967,3.9680344 L16.770053,3.9680344 L16.2060166,4.54194635 L16.424378,5.44755626 L15.72204,4.93866865 L14.9961605,5.44755626 L15.2412255,4.54194635 L14.596509,3.9680344 L15.4385963,3.9680344 L15.7210256,3.228967 Z M1.72102556,1.228967 L2.05219672,1.9680344 L2.77005299,1.9680344 L2.20601656,2.54194635 L2.42437805,3.44755626 L1.72204002,2.93866865 L0.996160538,3.44755626 L1.24122547,2.54194635 L0.596509,1.9680344 L1.4385963,1.9680344 L1.72102556,1.228967 Z M5.72102556,1.228967 L6.05219672,1.9680344 L6.77005299,1.9680344 L6.20601656,2.54194635 L6.42437805,3.44755626 L5.72204002,2.93866865 L4.99616054,3.44755626 L5.24122547,2.54194635 L4.596509,1.9680344 L5.4385963,1.9680344 L5.72102556,1.228967 Z M9.72102556,1.228967 L10.0521967,1.9680344 L10.770053,1.9680344 L10.2060166,2.54194635 L10.424378,3.44755626 L9.72204002,2.93866865 L8.99616054,3.44755626 L9.24122547,2.54194635 L8.596509,1.9680344 L9.4385963,1.9680344 L9.72102556,1.228967 Z M13.7210256,1.228967 L14.0521967,1.9680344 L14.770053,1.9680344 L14.2060166,2.54194635 L14.424378,3.44755626 L13.72204,2.93866865 L12.9961605,3.44755626 L13.2412255,2.54194635 L12.596509,1.9680344 L13.4385963,1.9680344 L13.7210256,1.228967 Z M17.7210256,1.228967 L18.0521967,1.9680344 L18.770053,1.9680344 L18.2060166,2.54194635 L18.424378,3.44755626 L17.72204,2.93866865 L16.9961605,3.44755626 L17.2412255,2.54194635 L16.596509,1.9680344 L17.4385963,1.9680344 L17.7210256,1.228967 Z" id="Combined-Shape" fill="#F7FCFF"></path>
            </g>
        </g>
    </g>
</svg>