<?xml version="1.0" encoding="UTF-8"?>
<svg width="32px" height="24px" viewBox="0 0 32 24" version="1.1" xmlns="http://www.w3.org/2000/svg" xmlns:xlink="http://www.w3.org/1999/xlink">
    <title>flags/L/Union of South American nations</title>
    <defs>
        <rect id="path-1" x="0" y="0" width="32" height="24"></rect>
    </defs>
    <g id="Symbols" stroke="none" stroke-width="1" fill="none" fill-rule="evenodd">
        <g id="flag">
            <mask id="mask-2" fill="white">
                <use xlink:href="#path-1"></use>
            </mask>
            <g id="mask"></g>
            <g id="contents" mask="url(#mask-2)">
                <polygon id="bg" fill="#2E42A5" points="0 0 32 0 32 24 0 24"></polygon>
                <g id="Group-2" transform="translate(5.000000, 6.000000)" fill="#F7FCFF">
                    <path d="M10.5932549,11.7365301 C11.2336285,11.8591445 11.7036267,12.0878897 11.6501455,12.4032016 C11.5952059,12.7256294 11.0753428,12.766058 10.4312285,12.6428556 C9.79092339,12.5202422 9.32086149,12.2914376 9.37434148,11.976133 C9.42883428,11.6537221 9.94877517,11.6132699 10.5932549,11.7365301 Z M0.312193972,0.918922408 C0.366675882,0.955831643 0.474870449,1.02627376 0.633996195,1.12545992 C0.90039904,1.29151398 1.21218633,1.47674754 1.56657326,1.67637302 C2.58024574,2.24737279 3.73103266,2.81860138 4.99660231,3.35179455 C8.80512394,4.95635083 12.8154547,5.881278 16.8237492,5.7803665 L16.8319781,5.78031717 C17.3772261,5.78244331 18.1645247,5.71423792 18.94021,5.50851562 C19.0668107,5.47493941 19.1883752,5.43860612 19.3046276,5.39948427 C19.1854961,5.08643569 18.9845554,4.73578273 18.6949919,4.34536533 C18.5615476,4.16544287 18.7795335,3.93572561 18.9661976,4.05956412 C19.0211154,4.0959982 19.1139184,4.16272222 19.232113,4.25645776 C19.4281789,4.41194994 19.6241794,4.58771644 19.8076729,4.78081092 C19.8964002,4.87418069 19.9792398,4.96815673 20.0557605,5.06261734 C20.3971123,4.85985408 20.6497186,4.61411347 20.7981747,4.32423124 C21.1457736,3.64549366 20.9306177,2.70477525 20.0013523,1.45183316 C19.8679089,1.27190937 20.0858977,1.04219328 20.2725608,1.16603429 C20.340586,1.21116535 20.4563269,1.2943835 20.6040132,1.41151057 C20.8492319,1.60598861 21.0943851,1.82583883 21.3237544,2.06721516 C22.3544609,3.15187671 22.7433769,4.2955492 22.0635866,5.37831754 C21.9986513,5.4817464 21.9240994,5.58351428 21.8398045,5.68355862 C21.7118358,5.84670992 21.4419554,6.08729181 21.0172374,6.32393211 C20.9081692,6.38470169 20.7944819,6.44164515 20.676123,6.49446952 C20.6854986,6.81870954 20.5991286,7.14203688 20.3999173,7.45931758 C20.3473699,7.54300896 20.2870984,7.62528511 20.2190171,7.7060947 C20.1150988,7.83859332 19.8967991,8.03316535 19.5546187,8.22379641 C19.2839531,8.37458611 18.9780472,8.49596517 18.6357388,8.58103288 C18.6419879,8.84803501 18.5696552,9.115031 18.4049502,9.37741086 C18.3612411,9.44704075 18.3111489,9.51542855 18.2546165,9.58253084 C18.1679432,9.69305962 17.9866153,9.85466312 17.7035907,10.012326 C17.2853798,10.2452963 16.7656558,10.3928583 16.1386128,10.4177856 C16.116707,10.5436318 16.0673083,10.6717755 15.9875871,10.7986727 C15.9568506,10.847598 15.9217217,10.8955413 15.8821859,10.9424713 C15.8206972,11.0209492 15.693314,11.1344831 15.4965846,11.2440749 C15.1876189,11.4161901 14.7993488,11.5201724 14.3279466,11.52493 C14.3202852,11.5258424 14.2865063,11.5277072 14.2366255,11.5295912 C13.6151748,11.5530639 12.7811123,11.5082698 11.8103397,11.3397678 C10.3406764,11.0846707 8.88775837,10.5943348 7.5284382,9.81250541 C7.12817715,9.58229043 6.74025201,9.32875602 6.36595183,9.05099411 C6.27840607,8.98602786 6.25919959,8.86315687 6.32199829,8.77468675 C6.38474472,8.68615461 6.50705655,8.66366051 6.59731218,8.7248062 C6.69022896,8.78775476 6.87066737,8.90022791 7.12899196,9.04574489 C7.56146357,9.28936073 8.05269724,9.53320539 8.59299053,9.76084022 C10.2177084,10.4453617 11.9276646,10.8397518 13.6341591,10.7967926 L13.6410162,10.7967362 C13.8664588,10.7976168 14.1962152,10.7690516 14.518348,10.6836214 C14.7516041,10.6217615 14.9396984,10.5379019 15.0724396,10.433687 C14.269068,10.4160176 13.3085482,10.3309692 12.2359869,10.1447913 C10.040743,9.76373525 7.87072945,9.0313679 5.84105268,7.86394102 C5.24363687,7.52032016 4.66465538,7.14191488 4.1060224,6.72736783 C4.01847625,6.66240211 3.99926904,6.53953124 4.06206721,6.45106074 C4.12481311,6.36252823 4.2471248,6.3400334 4.33738079,6.40117855 C4.47905805,6.49715973 4.75223883,6.66743998 5.14250912,6.88728034 C5.79489025,7.2547685 6.53567961,7.62248547 7.35039617,7.96573446 C9.80139187,8.99836574 12.3817315,9.59349477 14.9591483,9.52861332 L14.966522,9.52855958 C15.0286032,9.52880171 15.0957077,9.52760156 15.1668829,9.52471479 C15.1077715,9.40103757 15.0227244,9.26495884 14.9125009,9.11634666 C14.779056,8.93642566 14.9970386,8.70670746 15.1837037,8.83054303 C15.30454,8.91070712 15.4796379,9.04956787 15.6555744,9.23470914 C15.7243845,9.30711938 15.7870973,9.38041923 15.843041,9.45441597 C15.9950618,9.42976144 16.1528098,9.39698452 16.3096367,9.35539224 C16.8286397,9.21774671 17.2096352,9.00795566 17.4053115,8.72560224 C17.3791469,8.72636356 17.3451281,8.72785531 17.3058252,8.72933983 C16.1704443,8.77222455 14.6432736,8.69019902 12.8647104,8.38146384 C10.171665,7.91398658 7.50967377,7.01555187 5.02008509,5.58354667 C4.28749339,5.16216176 3.57751432,4.69813534 2.89249011,4.18980234 C2.80494363,4.1248371 2.78573574,4.00196636 2.8485334,3.91349553 C2.91127878,3.82496268 3.03359032,3.80246714 3.12384665,3.86361174 C3.1666647,3.89261904 3.25210292,3.94824498 3.37795125,4.02668848 C3.58889169,4.1581714 3.83583838,4.30488281 4.11657795,4.4630229 C4.91982933,4.91549295 5.83182526,5.3681918 6.83480548,5.79075719 C9.85267953,7.0622171 13.0301307,7.79506294 16.2049918,7.71512861 L16.2127237,7.7150767 C16.5331438,7.71632641 16.9605456,7.68666573 17.4108878,7.60417085 C17.3261476,7.40801915 17.2037264,7.19488731 17.040581,6.96289914 C15.7946734,6.9383503 14.2975774,6.80746064 12.6231502,6.51680619 C9.23583882,5.92882173 5.88769629,4.79884463 2.75667883,2.99796045 C1.83529374,2.46800242 0.942366078,1.88441862 0.0808376563,1.2451132 C-0.00670925456,1.18014818 -0.0259175301,1.05727716 0.036880227,0.968806038 C0.099625712,0.880272915 0.221937607,0.857777462 0.312193972,0.918922408 Z M19.0780439,6.9061383 L19.0348515,6.91124684 C18.8398587,6.93035993 18.6372813,6.94125908 18.4270174,6.94337694 C18.3982958,6.94581758 18.3203849,6.95011765 18.2075167,6.95437971 C18.0537484,6.96018622 17.8942494,6.96416915 17.7292414,6.96616819 C17.7928794,7.02467605 17.8565476,7.0874489 17.9184968,7.1526449 C18.0019658,7.24048851 18.079152,7.32905428 18.1495149,7.418189 C18.5431202,7.28786639 18.8577981,7.11740805 19.0780439,6.9061383 Z M3.33663767,0.0376494247 C3.49388045,0.1441778 3.79666676,0.332915666 4.22905707,0.576487279 C4.95163821,0.983527522 5.77209102,1.39079658 6.67440895,1.77096086 C9.38914104,2.91473082 12.2472925,3.57395376 15.1092567,3.5020303 C15.4952423,3.50353057 16.0534184,3.45516742 16.6019977,3.30966668 C17.2467171,3.13866655 17.7016999,2.86720574 17.8936139,2.49246035 C18.1304011,2.03009246 17.9815846,1.3795076 17.3290835,0.499801746 C17.1956313,0.319880774 17.413618,0.0901550632 17.6002852,0.213995224 C17.6501763,0.247094332 17.7341823,0.307493523 17.8410667,0.392259599 C18.0182819,0.532802622 18.1954318,0.691665755 18.3613313,0.866247898 C19.1138711,1.65817283 19.4003421,2.50081129 18.8968085,3.30249945 C18.8490365,3.37855849 18.7942778,3.4532989 18.7368025,3.52133869 C18.6377912,3.6474201 18.439281,3.82437665 18.1287513,3.99739157 C17.6346799,4.27266876 17.0113227,4.43962352 16.2626999,4.44677093 C16.2327486,4.44892023 16.1764246,4.45202918 16.0951081,4.45510012 C15.071566,4.49375439 13.6951889,4.41981739 12.0923506,4.14156896 C9.66540437,3.72025762 7.26639628,2.91054566 5.02265102,1.61989934 C4.3624517,1.24013973 3.72262327,0.821952482 3.10527797,0.363837843 C2.89568345,0.208303631 3.12055707,-0.10874022 3.33663767,0.0376494247 Z" id="Combined-Shape"></path>
                </g>
            </g>
        </g>
    </g>
</svg>