<?xml version="1.0" encoding="UTF-8"?>
<svg width="32px" height="24px" viewBox="0 0 32 24" version="1.1" xmlns="http://www.w3.org/2000/svg" xmlns:xlink="http://www.w3.org/1999/xlink">
    <title>flags/L/VA - Vatican City State</title>
    <defs>
        <rect id="path-1" x="0" y="0" width="32" height="24"></rect>
    </defs>
    <g id="Symbols" stroke="none" stroke-width="1" fill="none" fill-rule="evenodd">
        <g id="flag">
            <mask id="mask-2" fill="white">
                <use xlink:href="#path-1"></use>
            </mask>
            <g id="mask"></g>
            <g id="contents" mask="url(#mask-2)">
                <rect id="base" fill="#F7FCFF" x="0" y="0" width="32" height="24"></rect>
                <rect id="left" fill="#FFDC17" x="0" y="0" width="14" height="24"></rect>
                <g id="mark" transform="translate(12.000000, 2.000000)">
                    <path d="M13.1615391,10.7511473 L13.5067042,10.7736347 C13.4242636,11.9594056 13.1695191,12.8753754 12.7372037,13.5217762 C12.0400167,14.5642146 11.1199427,15.3702035 10.5042793,15.3702035 C10.3644397,15.3702035 10.3319173,15.4221401 10.3780349,15.5503477 C10.4436096,15.7326462 10.6510125,15.9119435 10.9178374,15.9807518 C11.3616237,16.0951947 12.3709181,16.1544331 13.9286036,16.1544331 L13.9286036,16.4893169 C12.3397425,16.4893169 11.3121751,16.4290059 10.8287843,16.3043499 C10.4533669,16.2075379 10.1554825,15.9500205 10.0513288,15.6604717 C9.93087861,15.3256183 10.1126617,15.0353198 10.5042793,15.0353198 C10.961531,15.0353198 11.8098018,14.2922308 12.4468053,13.339779 C12.8427181,12.7478077 13.0827183,11.8848531 13.1615391,10.7511473 Z" id="Path-286" fill="#AF0100" fill-rule="nonzero" transform="translate(11.971582, 13.620232) scale(-1, 1) translate(-11.971582, -13.620232) "></path>
                    <path d="M9.14697955,10.7511473 L9.49214466,10.7736347 C9.40970412,11.9594056 9.1549596,12.8753754 8.72264415,13.5217762 C8.02545719,14.5642146 7.10538317,15.3702035 6.48971976,15.3702035 C6.34988016,15.3702035 6.31735779,15.4221401 6.36347541,15.5503477 C6.42905005,15.7326462 6.63645295,15.9119435 6.90327785,15.9807518 C7.34706419,16.0951947 8.35635863,16.1544331 9.91404409,16.1544331 L9.91404409,16.4893169 C8.325183,16.4893169 7.29761558,16.4290059 6.81422474,16.3043499 C6.43880735,16.2075379 6.14092302,15.9500205 6.0367693,15.6604717 C5.91631909,15.3256183 6.09810221,15.0353198 6.48971976,15.0353198 C6.9469715,15.0353198 7.79524226,14.2922308 8.43224582,13.339779 C8.82815861,12.7478077 9.06815883,11.8848531 9.14697955,10.7511473 Z" id="Path-286" fill="#AF0100" fill-rule="nonzero"></path>
                    <g id="left" transform="translate(3.124324, 2.939535)">
                        <path d="M12.9425113,1.85860033 L13.6593144,2.73630703 L12.7542432,3.50360033 L12.9568534,3.71263101 L12.8382432,3.81960033 L13.7092432,4.48760033 L14.1055334,4.18350587 L14.8059531,5.03488076 L14.6142432,5.18160033 L14.634643,5.1979216 L14.4952432,5.27360033 L13.2855702,6.20697378 L12.5851505,5.35559889 L12.9182432,5.09660033 L12.1232432,4.46760033 L11.87093,4.69755107 L11.6342432,4.45360033 L11.1902432,4.82960033 L11.4865832,5.13588682 L11.3782432,5.23360033 L12.2962432,5.86760033 L12.6352631,5.60676168 L13.3356828,6.45813657 L13.2482432,6.52460033 L13.2522495,6.52852453 L13.2282432,6.53960033 L11.8152999,7.6302296 L11.1148802,6.77885471 L11.4582432,6.51360033 L10.6372432,5.90560033 L10.4006597,6.12080688 L10.0712432,5.78060033 L5.15909371,9.95086816 C5.37081029,10.25955 5.49189189,10.6160174 5.49189189,11 C5.49189189,11.9380554 4.76926843,12.7118985 3.76792664,13.0259897 C3.52351887,12.9505092 3.33690425,12.781984 3.27533222,12.6108128 C3.2292146,12.4826052 3.26173697,12.4306686 3.40157658,12.4306686 C4.01723998,12.4306686 4.72916784,11.2137063 4.41234829,11.5086837 C4.38691971,11.5323592 4.3615682,11.5554508 4.33632199,11.5779336 C4.46761278,11.4022672 4.54054054,11.2047637 4.54054054,11 C4.54054054,10.3336505 3.7682312,9.74418605 2.76756757,9.74418605 C1.76690393,9.74418605 0.994594595,10.3336505 0.994594595,11 C0.994594595,11.6663495 1.76690393,12.255814 2.76756757,12.255814 C2.85269347,12.255814 2.93616681,12.2515481 3.01765272,12.243332 C2.9088248,12.3578462 2.88077993,12.5323234 2.94862611,12.7209368 C3.00471825,12.8768737 3.11699954,13.0235203 3.26731992,13.1407777 C3.10574218,13.1641964 2.93825705,13.1767442 2.76756757,13.1767442 C1.28444249,13.1767442 0.0432432432,12.2294 0.0432432432,11 C0.0432432432,9.77060003 1.28444249,8.82325581 2.76756757,8.82325581 C3.13155517,8.82325581 3.48097141,8.88031498 3.80104528,8.98459917 L12.9425113,1.85860033 Z" id="Combined-Shape" fill="#F4B300" fill-rule="nonzero"></path>
                        <path d="M0.735135135,12.4651163 C0.997843557,12.4651163 1.21081081,12.6337904 1.21081081,12.8418605 C1.21081081,13.0499305 0.997843557,13.2186047 0.735135135,13.2186047 C0.472426714,13.2186047 0.259459459,13.0499305 0.259459459,12.8418605 C0.259459459,12.6337904 0.472426714,12.4651163 0.735135135,12.4651163 Z M4.97297297,12.4651163 C5.23568139,12.4651163 5.44864865,12.6337904 5.44864865,12.8418605 C5.44864865,13.0499305 5.23568139,13.2186047 4.97297297,13.2186047 C4.71026455,13.2186047 4.4972973,13.0499305 4.4972973,12.8418605 C4.4972973,12.6337904 4.71026455,12.4651163 4.97297297,12.4651163 Z M0.562162162,9.03255814 C0.824870584,9.03255814 1.03783784,9.20123226 1.03783784,9.40930233 C1.03783784,9.61737239 0.824870584,9.78604651 0.562162162,9.78604651 C0.299453741,9.78604651 0.0864864865,9.61737239 0.0864864865,9.40930233 C0.0864864865,9.20123226 0.299453741,9.03255814 0.562162162,9.03255814 Z" id="Combined-Shape" fill="#BFBFBF"></path>
                    </g>
                    <g id="right" transform="translate(8.875676, 10.939535) scale(-1, 1) translate(-8.875676, -10.939535) translate(0.875676, 4.939535)">
                        <path d="M13.0650099,0.0171813389 L13.6593144,0.736307033 L12.7172432,1.46518134 L12.9568534,1.71263101 L12.8382432,1.81918134 L13.7102432,2.48818134 L14.1055334,2.18350587 L14.8059531,3.03488076 L14.6142432,3.18118134 L14.634643,3.1979216 L14.4562432,3.30318134 L13.2855702,4.20697378 L12.5851505,3.35559889 L12.8992432,3.11218134 L12.1142432,2.47618134 L11.87093,2.69755107 L11.5522432,2.36818134 L11.0892432,2.72618134 L11.4865832,3.13588682 L11.3782432,3.23318134 L12.2962432,3.86718134 L12.6352631,3.60676168 L13.3356828,4.45813657 L13.2472432,4.52518134 L13.2522495,4.52852453 L13.2082432,4.55518134 L11.8152999,5.6302296 L11.1148802,4.77885471 L11.4222432,4.54118134 L10.6182432,3.92218134 L10.4006597,4.12080688 L9.98672764,3.69314661 L10.1392432,3.55318134 L10.0802432,3.50818134 L4.83065176,7.57387477 C5.24125302,7.95204694 5.49189189,8.44754531 5.49189189,9 C5.49189189,9.93805537 4.76926843,10.7118985 3.76792664,11.0259897 C3.52351887,10.9505092 3.33690425,10.781984 3.27533222,10.6108128 C3.2292146,10.4826052 3.26173697,10.4306686 3.40157658,10.4306686 C4.01723998,10.4306686 4.72916784,9.21370629 4.41234829,9.50868369 C4.3872543,9.53204766 4.36223536,9.55484306 4.33731861,9.57704584 C4.4680199,9.40116305 4.54054054,9.20419132 4.54054054,9 C4.54054054,8.33365046 3.7682312,7.74418605 2.76756757,7.74418605 C1.76690393,7.74418605 0.994594595,8.33365046 0.994594595,9 C0.994594595,9.66634954 1.76690393,10.255814 2.76756757,10.255814 C2.85269347,10.255814 2.93616681,10.2515481 3.01765272,10.243332 C2.90894411,10.3571066 2.88063614,10.5319237 2.94862611,10.7209368 C3.00471825,10.8768737 3.11699954,11.0235203 3.26731992,11.1407777 C3.10574218,11.1641964 2.93825705,11.1767442 2.76756757,11.1767442 C1.28444249,11.1767442 0.0432432432,10.2294 0.0432432432,9 C0.0432432432,7.77060003 1.28444249,6.82325581 2.76756757,6.82325581 C3.20182659,6.82325581 3.61534487,6.90447338 3.98303835,7.05020824 L13.0650099,0.0171813389 Z" id="Combined-Shape" fill="#BFBFBF" fill-rule="nonzero"></path>
                        <path d="M0.735135135,10.4651163 C0.997843557,10.4651163 1.21081081,10.6337904 1.21081081,10.8418605 C1.21081081,11.0499305 0.997843557,11.2186047 0.735135135,11.2186047 C0.472426714,11.2186047 0.259459459,11.0499305 0.259459459,10.8418605 C0.259459459,10.6337904 0.472426714,10.4651163 0.735135135,10.4651163 Z M4.97297297,10.4651163 C5.23568139,10.4651163 5.44864865,10.6337904 5.44864865,10.8418605 C5.44864865,11.0499305 5.23568139,11.2186047 4.97297297,11.2186047 C4.71026455,11.2186047 4.4972973,11.0499305 4.4972973,10.8418605 C4.4972973,10.6337904 4.71026455,10.4651163 4.97297297,10.4651163 Z M0.562162162,7.03255814 C0.824870584,7.03255814 1.03783784,7.20123226 1.03783784,7.40930233 C1.03783784,7.61737239 0.824870584,7.78604651 0.562162162,7.78604651 C0.299453741,7.78604651 0.0864864865,7.61737239 0.0864864865,7.40930233 C0.0864864865,7.20123226 0.299453741,7.03255814 0.562162162,7.03255814 Z" id="Combined-Shape" fill="#F4B300"></path>
                    </g>
                    <path d="M10,9.79534884 C10.0716478,9.79534884 10.1297297,9.85343082 10.1297297,9.92507857 L10.1294054,10.4643488 L10.8690132,10.4651163 C10.9383699,10.4651163 10.9945946,10.521341 10.9945946,10.5906977 C10.9945946,10.6600544 10.9383699,10.7162791 10.8690132,10.7162791 L10.1294054,10.7153488 L10.1297297,17.8702703 C10.1297297,17.941918 10.0716478,18 10,18 L9.74054054,18 C9.66889279,18 9.61081081,17.941918 9.61081081,17.8702703 L9.61040541,10.7153488 L9.1309868,10.7162791 C9.06163011,10.7162791 9.00540541,10.6600544 9.00540541,10.5906977 C9.00540541,10.521341 9.06163011,10.4651163 9.1309868,10.4651163 L9.61040541,10.4643488 L9.61081081,9.92507857 C9.61081081,9.85343082 9.66889279,9.79534884 9.74054054,9.79534884 L10,9.79534884 Z" id="Combined-Shape" fill="#AF0100"></path>
                    <path d="M6.51818226,5.08826033 C7.42682186,5.79969055 7.50384043,7.49793745 6.5047841,8.09542677 C5.62157505,8.6236332 5.18224603,9.63459617 5.52593453,10.126602 C5.81382162,10.5387255 6.64367479,10.3522528 7.50738341,9.69976175 C7.6631306,9.5821021 7.81186817,9.45693678 7.95210168,9.32579141 L8.15660086,9.4837526 C8.00264349,9.62936944 7.83884257,9.76795446 7.66701106,9.89776504 C6.69866264,10.6293065 5.71784175,10.8497025 5.31100241,10.2672934 C4.87010614,9.63613024 5.37407473,8.47642178 6.3684141,7.88175346 C7.20213876,7.38314136 7.13460019,5.89392678 6.35501594,5.28354199 C5.90346176,4.92999226 5.45950758,5.06530293 4.96619504,5.73894182 L4.75452568,5.593689 C5.32523995,4.81435481 5.93211159,4.62938931 6.51818226,5.08826033 Z M9.21839407,7.19268107 L9.47488895,7.23054042 C9.39163071,7.75911264 9.14078215,8.29578715 8.77355808,8.7913361 L8.56256059,8.64482012 C8.90719327,8.17974731 9.14172005,7.67945279 9.21839407,7.19268107 Z" id="Path-391" fill="#979797" fill-rule="nonzero"></path>
                    <path d="M12.3127769,5.08826033 C13.2214165,5.79969055 13.298435,7.49793745 12.2993787,8.09542677 C11.4161696,8.6236332 10.9768406,9.63459617 11.3205291,10.126602 C11.6084162,10.5387255 12.4382694,10.3522528 13.301978,9.69976175 C13.4577252,9.5821021 13.6064628,9.45693678 13.7466963,9.32579141 L13.9511955,9.4837526 C13.7972381,9.62936944 13.6334372,9.76795446 13.4616057,9.89776504 C12.4932572,10.6293065 11.5124363,10.8497025 11.105597,10.2672934 C10.6647007,9.63613024 11.1686693,8.47642178 12.1630087,7.88175346 C12.9967334,7.38314136 12.9291948,5.89392678 12.1496105,5.28354199 C11.6980564,4.92999226 11.2541022,5.06530293 10.7607896,5.73894182 L10.5491203,5.593689 C11.1198345,4.81435481 11.7267062,4.62938931 12.3127769,5.08826033 Z M15.0129887,7.19268107 L15.2694835,7.23054042 C15.1862253,7.75911264 14.9353767,8.29578715 14.5681527,8.7913361 L14.3571552,8.64482012 C14.7017879,8.17974731 14.9363146,7.67945279 15.0129887,7.19268107 Z" id="Path-391" fill="#979797" fill-rule="nonzero" transform="translate(12.909302, 7.720193) scale(-1, 1) translate(-12.909302, -7.720193) "></path>
                    <ellipse id="Oval-69" fill="#AF0100" cx="9.87027027" cy="17.7488372" rx="1" ry="1"></ellipse>
                    <ellipse id="Oval-70" fill="#AF0100" cx="9.78378378" cy="6.90697674" rx="1.81621622" ry="1"></ellipse>
                    <path d="M9.83378378,6.37096657 C10.6122021,6.37096657 11.2470747,6.48988349 11.7372061,6.73009711 L11.6064876,6.91843067 C11.1599824,6.69959825 10.5694795,6.58899215 9.83378378,6.58899215 C9.09585269,6.58899215 8.46335729,6.70028392 7.93506418,6.92180666 L7.8192151,6.72672112 C8.38566674,6.48919782 9.05760076,6.37096657 9.83378378,6.37096657 Z M9.83378378,4.94771076 C10.6122021,4.94771076 11.2470747,5.06662768 11.7372061,5.3068413 L11.6064876,5.49517486 C11.1599824,5.27634244 10.5694795,5.16573634 9.83378378,5.16573634 C9.10630369,5.16573634 8.48129395,5.27389807 7.95757284,5.48920519 L8.26074506,6.15320753 C8.33519703,6.13174953 8.4111717,6.11201478 8.48866691,6.09400143 C8.4331406,6.03482055 8.4,5.95192449 8.4,5.86046512 C8.4,5.67551394 8.53552462,5.5255814 8.7027027,5.5255814 C8.86988079,5.5255814 9.00540541,5.67551394 9.00540541,5.86046512 C9.00540541,5.91256404 8.99465162,5.96188426 8.97546576,6.00585722 C9.17983577,5.97893877 9.3947081,5.96201631 9.61872813,5.9554657 L9.61891521,5.67137209 L9.29436937,5.67165831 L9.29436937,5.46965276 L9.61891521,5.46937209 L9.61932599,5.22906977 L9.9624516,5.22906977 L9.96191521,5.46937209 L10.3584459,5.46965276 L10.3584459,5.67165831 L9.96191521,5.67137209 L9.96191521,5.95437209 L10.1189596,5.9579408 C10.3045879,5.9653824 10.4812353,5.9802749 10.648883,6.00265549 L10.6794157,6.00773849 C10.6597119,5.96329284 10.6486486,5.91330831 10.6486486,5.86046512 C10.6486486,5.67551394 10.7841733,5.5255814 10.9513514,5.5255814 C11.1185294,5.5255814 11.2540541,5.67551394 11.2540541,5.86046512 C11.2540541,5.95598935 11.2179022,6.04217218 11.1599092,6.10318138 C11.2574414,6.12662976 11.3513075,6.15535232 11.4412419,6.18736248 L11.6884152,5.64230581 L11.925774,5.7437407 L11.6797831,6.28420907 C11.6991398,6.29312278 11.7182808,6.3022172 11.7372061,6.31149246 L11.6064876,6.49982602 L11.5839152,6.48937209 L11.5457064,6.5771346 L11.3083476,6.4756997 L11.3481085,6.39101523 C10.9699197,6.25511317 10.5088974,6.18162255 9.96452104,6.17157931 L9.9624516,6.26119186 L9.61932599,6.26119186 L9.61891521,6.17437209 L9.56199951,6.17560223 C8.939357,6.1999328 8.39732065,6.30936961 7.93506418,6.50320201 L7.8192151,6.30811647 L8.01391521,6.23237209 L7.67591521,5.49257791 L7.87891521,5.40437209 L7.8192151,5.30346531 C8.38566674,5.06594201 9.05760076,4.94771076 9.83378378,4.94771076 Z M9.83378378,3.52445494 C10.6122021,3.52445494 11.2470747,3.64337186 11.7372061,3.88358549 L11.6064876,4.07191905 C11.1599824,3.85308662 10.5694795,3.74248052 9.83378378,3.74248052 C9.10630369,3.74248052 8.48129395,3.85064226 7.95757284,4.06594938 L8.26176735,4.72965722 C8.33589246,4.70831312 8.41152636,4.68867653 8.48866691,4.67074562 C8.4331406,4.61156474 8.4,4.52866867 8.4,4.4372093 C8.4,4.25225813 8.53552462,4.10232558 8.7027027,4.10232558 C8.86988079,4.10232558 9.00540541,4.25225813 9.00540541,4.4372093 C9.00540541,4.48930822 8.99465162,4.53862844 8.97546576,4.58260141 C9.17983577,4.55568295 9.3947081,4.53876049 9.61872813,4.53220988 L9.61891521,4.24837209 L9.29436937,4.2484025 L9.29436937,4.04639695 L9.61891521,4.04637209 L9.61932599,3.80581395 L9.9624516,3.80581395 L9.96191521,4.04637209 L10.3584459,4.04639695 L10.3584459,4.2484025 L9.96191521,4.24837209 L9.96191521,4.53137209 L10.1189596,4.53468498 C10.3045879,4.54212659 10.4812353,4.55701909 10.648883,4.57939968 L10.6794157,4.58448268 C10.6597119,4.54003702 10.6486486,4.49005249 10.6486486,4.4372093 C10.6486486,4.25225813 10.7841733,4.10232558 10.9513514,4.10232558 C11.1185294,4.10232558 11.2540541,4.25225813 11.2540541,4.4372093 C11.2540541,4.53273353 11.2179022,4.61891637 11.1599092,4.67992557 C11.2574414,4.70337394 11.3513075,4.73209651 11.4412419,4.76410667 L11.6884152,4.21905 L11.925774,4.32048489 L11.6797831,4.86095325 C11.6991398,4.86986696 11.7182808,4.87896138 11.7372061,4.88823665 L11.6064876,5.07657021 L11.5839152,5.06637209 L11.5457064,5.15387878 L11.3083476,5.05244389 L11.3481085,4.96775942 C10.9699197,4.83185736 10.5088974,4.75836674 9.96452104,4.7483235 L9.9624516,4.83793605 L9.61932599,4.83793605 L9.61891521,4.75037209 L9.56199951,4.75234641 C8.939357,4.77667699 8.39732065,4.8861138 7.93506418,5.0799462 L7.8192151,4.88486066 L8.01391521,4.80937209 L7.67591521,4.0693221 L7.87991521,3.98137209 L7.8192151,3.8802095 C8.38566674,3.6426862 9.05760076,3.52445494 9.83378378,3.52445494 Z M9.9624516,2.38255814 L9.96191521,2.62237209 L10.3584459,2.62314114 L10.3584459,2.82514668 L9.96191521,2.82437209 L9.96191521,3.10837209 L10.1189596,3.11142917 C10.3045879,3.11887077 10.4812353,3.13376328 10.648883,3.15614386 L10.6794157,3.16122687 C10.6597119,3.11678121 10.6486486,3.06679668 10.6486486,3.01395349 C10.6486486,2.82900232 10.7841733,2.67906977 10.9513514,2.67906977 C11.1185294,2.67906977 11.2540541,2.82900232 11.2540541,3.01395349 C11.2540541,3.10979653 11.2176604,3.19623572 11.1593278,3.25727977 C11.2574414,3.28011813 11.3513075,3.30884069 11.4412419,3.34085086 L11.6884152,2.79579418 L11.925774,2.89722907 L11.6797831,3.43769744 C11.6991398,3.44661115 11.7182808,3.45570557 11.7372061,3.46498083 L11.6064876,3.65331439 L11.5849152,3.64337209 L11.5457064,3.73062297 L11.3083476,3.62918808 L11.3481085,3.5445036 C10.9699197,3.40860154 10.5088974,3.33511093 9.96452104,3.32506768 L9.9624516,3.41468023 L9.61932599,3.41468023 L9.61891521,3.32737209 L9.56199951,3.3290906 C8.939357,3.35342117 8.39732065,3.46285798 7.93506418,3.65669038 L7.8192151,3.46160484 L8.01291521,3.38637209 L7.67591521,2.64606628 L7.91327398,2.54463139 L8.26176735,3.30640141 C8.33589246,3.28505731 8.41152636,3.26542072 8.48866691,3.2474898 C8.43331412,3.18874231 8.4,3.10565197 8.4,3.01395349 C8.4,2.82900232 8.53552462,2.67906977 8.7027027,2.67906977 C8.86988079,2.67906977 9.00540541,2.82900232 9.00540541,3.01395349 C9.00540541,3.06679668 8.99434217,3.11678121 8.97463835,3.16122687 L9.00462297,3.15578504 C9.20103814,3.13078427 9.40574903,3.11518183 9.61872813,3.10895407 L9.61891521,2.82437209 L9.29436937,2.82514668 L9.29436937,2.62314114 L9.61891521,2.62237209 L9.61932599,2.38255814 L9.9624516,2.38255814 Z M9.88603604,0.038372093 L9.88591521,0.337372093 L10.185473,0.3375 L10.185473,0.588662791 L9.88591521,0.588372093 L9.88603604,1.32165698 L9.62657658,1.32165698 L9.62591521,0.588372093 L9.38085586,0.588662791 L9.38085586,0.3375 L9.62591521,0.337372093 L9.62657658,0.038372093 L9.88603604,0.038372093 Z" id="Combined-Shape" fill="#F4B300" fill-rule="nonzero"></path>
                </g>
            </g>
        </g>
    </g>
</svg>