<?xml version="1.0" encoding="UTF-8"?>
<svg width="32px" height="24px" viewBox="0 0 32 24" version="1.1" xmlns="http://www.w3.org/2000/svg" xmlns:xlink="http://www.w3.org/1999/xlink">
    <title>flags/L/VC - Saint Vincent and the Grenadines</title>
    <defs>
        <rect id="path-1" x="0" y="0" width="32" height="24"></rect>
    </defs>
    <g id="Symbols" stroke="none" stroke-width="1" fill="none" fill-rule="evenodd">
        <g id="flag">
            <mask id="mask-2" fill="white">
                <use xlink:href="#path-1"></use>
            </mask>
            <g id="mask"></g>
            <g id="contents" mask="url(#mask-2)">
                <rect id="middle" fill="#FFDC17" x="8" y="0" width="16" height="24"></rect>
                <rect id="right" fill="#5FBF2B" x="24" y="0" width="8" height="24"></rect>
                <rect id="left" fill="#2E42A5" x="0" y="0" width="8" height="24"></rect>
                <g id="mark" transform="translate(9.000000, 5.000000)" fill="#5FBF2B">
                    <path d="M7.12036697,5.60477145 C7.12036697,5.60477145 8.05470017,7.06611481 9.92336657,9.98880152 L9.92336657,9.98880152 L7.12036697,14.5011335 L3.84313725,9.98880152 C3.97968849,9.8061336 4.11197251,9.62917405 4.23998929,9.45792288 L4.61123797,8.96129447 C5.80606131,7.36295018 6.57416202,6.33544313 6.91554012,5.87877333 L7.00515187,5.75889751 C7.08196194,5.65614681 7.12036697,5.60477145 7.12036697,5.60477145 Z M10.7263892,0.6 C10.7263892,0.6 11.7397607,2.0876252 13.7665038,5.06287559 L13.7665038,5.06287559 L10.7263892,9.36789869 L7.68627451,5.06287559 C9.71301762,2.0876252 10.7263892,0.6 10.7263892,0.6 Z M3.27722972,0.678845527 C3.27722972,0.678845527 4.21156292,2.14018888 6.08022932,5.06287559 L6.08022932,5.06287559 L3.04011466,9.28922569 L0,5.06287559 C0.136551238,4.88020767 0.26883525,4.70324812 0.396852036,4.53199695 L0.768100716,4.03536854 C1.96292405,2.43702425 2.73102477,1.4095172 3.07240286,0.952847406 L3.16201461,0.832971584 C3.23882468,0.73022088 3.27722972,0.678845527 3.27722972,0.678845527 Z" id="Combined-Shape"></path>
                </g>
            </g>
        </g>
    </g>
</svg>