<?xml version="1.0" encoding="UTF-8"?>
<svg width="32px" height="24px" viewBox="0 0 32 24" version="1.1" xmlns="http://www.w3.org/2000/svg" xmlns:xlink="http://www.w3.org/1999/xlink">
    <title>flags/L/VE - Venezuela</title>
    <defs>
        <rect id="path-1" x="0" y="0" width="32" height="24"></rect>
        <rect id="path-3" x="0" y="0" width="32" height="24"></rect>
    </defs>
    <g id="Symbols" stroke="none" stroke-width="1" fill="none" fill-rule="evenodd">
        <g id="flag">
            <mask id="mask-2" fill="white">
                <use xlink:href="#path-1"></use>
            </mask>
            <g id="mask"></g>
            <g id="contents" mask="url(#mask-2)">
                <mask id="mask-4" fill="white">
                    <use xlink:href="#path-3"></use>
                </mask>
                <use id="background" fill="#2E42A5" xlink:href="#path-3"></use>
                <rect id="top" fill="#FECA00" mask="url(#mask-4)" x="0" y="0" width="32" height="8"></rect>
                <rect id="bottom" fill="#E31D1C" mask="url(#mask-4)" x="0" y="16" width="32" height="8"></rect>
                <g id="mark" mask="url(#mask-4)" fill="#F7FCFF">
                    <g transform="translate(5.000000, 8.000000)">
                        <path d="M8.71799551,0.821619133 L9.20153128,1.89381147 L10.2496575,1.89381147 L9.42612026,2.7264067 L9.82209884,3.85942985 L8.71947671,3.30194637 L7.73678972,3.85942985 L8.01744992,2.7264067 L8.006118,2.71561913 L7.18836327,3.54410957 L7.58434185,4.67713272 L6.48171972,4.11964924 L5.49903273,4.67713272 L5.511118,4.62561913 L5.03979662,5.10303919 L5.43577521,6.23606234 L4.33315308,5.67857886 L4.108118,5.80561913 L4.16166199,5.8058834 L3.33812474,6.63847863 L3.73410333,7.77150178 L2.6314812,7.2140183 L1.64879421,7.77150178 L1.92945441,6.63847863 L0.988118,5.8058834 L2.21763123,5.8058834 L2.63,4.73369106 L3.11353577,5.8058834 L3.457118,5.80561913 L3.63112629,5.10303919 L2.68978988,4.27044395 L3.91930311,4.27044395 L4.33167188,3.19825162 L4.81520765,4.27044395 L5.599118,4.26961913 L5.77969293,3.54410957 L4.83835652,2.71151433 L6.06786975,2.71151433 L6.48023852,1.639322 L6.96377429,2.71151433 L8.000118,2.71061913 L7.07611351,1.89381147 L8.30562674,1.89381147 L8.71799551,0.821619133 Z" id="Combined-Shape"></path>
                        <path d="M19.444816,0.777782723 L19.9283518,1.84997506 L20.976478,1.84997506 L20.1529407,2.68257029 L20.5489193,3.81559344 L19.4462972,3.25810996 L18.4636102,3.81559344 L18.7442704,2.68257029 L18.7300486,2.66978272 L17.9102933,3.50027357 L18.3062719,4.63329672 L17.2036498,4.07581324 L16.2209628,4.63329672 L16.2330486,4.58178272 L15.7617267,5.05920278 L16.1577052,6.19222593 L15.0550831,5.63474245 L14.8300486,5.76178272 L14.8835925,5.76204699 L14.0600553,6.59464222 L14.4560339,7.72766537 L13.3534118,7.17018189 L12.3707248,7.72766537 L12.651385,6.59464222 L11.7100486,5.76204699 L12.9395618,5.76204699 L13.3519306,4.68985465 L13.8354663,5.76204699 L14.1790486,5.76178272 L14.3530563,5.05920278 L13.4117199,4.22660754 L14.6412331,4.22660754 L15.0536019,3.15441521 L15.5371377,4.22660754 L16.3210486,4.22578272 L16.501623,3.50027357 L15.5602866,2.66767833 L16.7897998,2.66767833 L17.2021686,1.595486 L17.6857043,2.66767833 L18.7270486,2.66678272 L17.802934,1.84997506 L19.0324472,1.84997506 L19.444816,0.777782723 Z" id="Combined-Shape" transform="translate(16.343263, 4.252724) scale(-1, 1) translate(-16.343263, -4.252724) "></path>
                        <polygon id="Star-21" points="10.832913 2.53473637 9.85022604 3.09221986 10.1308862 1.9591967 9.18954983 1.12660147 10.4190631 1.12660147 10.8314318 0.0544091364 11.3149676 1.12660147 12.3630938 1.12660147 11.5395566 1.9591967 11.9355352 3.09221986"></polygon>
                    </g>
                </g>
            </g>
        </g>
    </g>
</svg>