<?xml version="1.0" encoding="UTF-8"?>
<svg width="32px" height="24px" viewBox="0 0 32 24" version="1.1" xmlns="http://www.w3.org/2000/svg" xmlns:xlink="http://www.w3.org/1999/xlink">
    <title>flags/L/VG - Virgin Islands (British)</title>
    <defs>
        <rect id="path-1" x="0" y="0" width="32" height="24"></rect>
        <rect id="path-3" x="0" y="0" width="32" height="24"></rect>
        <rect id="path-5" x="0" y="0" width="18" height="14"></rect>
    </defs>
    <g id="Symbols" stroke="none" stroke-width="1" fill="none" fill-rule="evenodd">
        <g id="flag">
            <mask id="mask-2" fill="white">
                <use xlink:href="#path-1"></use>
            </mask>
            <g id="mask"></g>
            <g id="contents" mask="url(#mask-2)">
                <mask id="mask-4" fill="white">
                    <use xlink:href="#path-3"></use>
                </mask>
                <use id="background" fill="#2E42A5" xlink:href="#path-3"></use>
                <g id="gb---large" mask="url(#mask-4)">
                    <g id="flag">
                        <mask id="mask-6" fill="white">
                            <use xlink:href="#path-5"></use>
                        </mask>
                        <use id="mask" fill="#2B409A" xlink:href="#path-5"></use>
                        <g id="contents" mask="url(#mask-6)">
                            <g transform="translate(-3.000000, -2.000000)">
                                <g id="stripe">
                                    <polygon id="white" fill="#F7FCFF" fill-rule="nonzero" transform="translate(12.087462, 8.731805) scale(1, -1) translate(-12.087462, -8.731805) " points="0.995733743 2.46378897 4.95668418 0.726588534 21.0898804 13.5748663 23.1791912 16.1563978 18.9435246 16.7370214 12.3631795 11.2003309 7.066678 7.46989524"></polygon>
                                    <polygon id="red" fill="#F50100" fill-rule="nonzero" transform="translate(11.983464, 9.146214) scale(1, -1) translate(-11.983464, -9.146214) " points="1.53799381 2.07548339 3.55591517 1.0673567 22.4289341 17.2250722 19.5955377 17.2250722"></polygon>
                                </g>
                                <g id="stripe" transform="translate(12.000000, 8.500000) scale(-1, 1) translate(-12.000000, -8.500000) ">
                                    <polygon id="white" fill="#F7FCFF" fill-rule="nonzero" transform="translate(12.087462, 8.731805) scale(1, -1) translate(-12.087462, -8.731805) " points="0.995733743 2.46378897 4.95668418 0.726588534 21.0898804 13.5748663 23.1791912 16.1563978 18.9435246 16.7370214 12.3631795 11.2003309 7.066678 7.46989524"></polygon>
                                    <polygon id="red" fill="#F50100" fill-rule="nonzero" transform="translate(12.255557, 9.098760) scale(1, -1) translate(-12.255557, -9.098760) " points="1.13088612 2.32417911 3.14880748 1.31605242 11.1851345 8.23400982 13.567733 9.00693659 23.3802288 16.8814684 20.5468324 16.8814684 10.7398496 9.19384456 8.134898 8.26702255"></polygon>
                                </g>
                                <g id="cross" transform="translate(3.000000, 2.000000)">
                                    <path d="M10.7345755,-0.75 L10.7340639,5.25 L18.75,5.25 L18.75,8.75 L10.7340639,8.75 L10.7345755,14.75 L7.23457546,14.75 L7.23406394,8.75 L-0.75,8.75 L-0.75,5.25 L7.23406394,5.25 L7.23457546,-0.75 L10.7345755,-0.75 Z" id="red" stroke="#F7FCFF" stroke-width="1.5" fill="#F50100"></path>
                                </g>
                            </g>
                        </g>
                    </g>
                </g>
                <g id="masked" mask="url(#mask-4)">
                    <g transform="translate(19.200000, 10.000000)">
                        <path d="M1.04668039,0.0326909109 L1.04668039,6.56183682 C0.982181971,10.1632713 2.60950461,11.9639885 5.92864831,11.9639885 C9.24779201,11.9639885 10.9073639,10.1632713 10.9073639,6.56183682 L10.9073639,0.0326909109 L1.04668039,0.0326909109 Z" id="Path-2" stroke="#F7FCFF" stroke-width="0.5" fill="#3B7E05"></path>
                        <g id="mark" stroke="none" stroke-width="1" fill="none" transform="translate(0.800000, 0.600000)">
                            <path d="M8.88647141,8.49275648 L9.33716423,8.94444069 L9.35708649,8.9169462 C9.6331014,9.1506093 9.81507063,9.36924718 9.90242957,9.6225044 C10.044722,10.0350161 9.89273205,10.4313951 9.5591875,10.6411103 C9.47647027,10.6931185 9.41080465,10.730586 9.35239924,10.7577754 C9.21703088,10.820793 9.10851204,10.8482055 8.94738946,10.8027733 C8.78302804,10.7564279 8.64492258,10.6297384 8.5737409,10.4554748 C7.44979434,11.4514077 6.24222223,11.9576474 4.95992114,11.9576474 C3.68870602,11.9576474 2.4904204,11.4601251 1.37254974,10.4817092 C1.29934431,10.6520503 1.15958946,10.7753527 0.995216795,10.8186192 C0.833325857,10.8612325 0.725301964,10.8319303 0.591054027,10.7665597 C0.533132034,10.7383553 0.468130309,10.6997474 0.386333342,10.6463035 C0.0564996294,10.4307991 -0.0885493822,10.0318278 0.0609206818,9.62186234 C0.101437064,9.51073427 0.166410939,9.40759567 0.25045108,9.3073611 C0.247582863,9.30172654 0.242322595,9.29524413 0.237064365,9.28875004 L1.03023963,8.49244069 C2.26980451,10.0233434 3.57359528,10.7684582 4.95992114,10.7684582 C6.34613382,10.7684582 7.64884311,10.0234663 8.88647141,8.49275648 Z" id="Combined-Shape" stroke="#FFFFFF" stroke-width="0.5" fill="#FFD018" fill-rule="nonzero"></path>
                            <path d="M1.87045201,7.36757505 L1.9214566,7.47220518 C1.84692672,7.62469621 1.89764127,7.69266329 1.9214566,7.73033085 C2.02740705,7.83203315 2.01237117,7.99044489 1.9214566,8.19836598 L1.81020245,8.15758167 C1.87675939,8.00536634 1.85707774,7.88738211 1.81020245,7.84517246 L1.80531963,7.84077564 L1.80118493,7.83551288 C1.7201867,7.73241606 1.76687994,7.57948753 1.87045201,7.36757505 Z M6.67627725,7.36757505 L6.72728185,7.47220518 C6.65275196,7.62469621 6.70346651,7.69266329 6.72728185,7.73033085 C6.83323229,7.83203315 6.81819641,7.99044489 6.72728185,8.19836598 L6.61602769,8.15758167 C6.68258463,8.00536634 6.66290298,7.88738211 6.61602769,7.84517246 L6.61114487,7.84077564 L6.60701017,7.83551288 C6.52601194,7.73241606 6.57270518,7.57948753 6.67627725,7.36757505 Z M6.67627725,5.90811559 L6.72728185,6.01274572 C6.65275196,6.16523675 6.70346651,6.23320383 6.72728185,6.27087139 C6.83323229,6.37257369 6.81819641,6.53098543 6.72728185,6.73890652 L6.61602769,6.69812221 C6.68258463,6.54590688 6.66290298,6.42792265 6.61602769,6.385713 L6.61114487,6.38131618 L6.60701017,6.37605342 C6.52601194,6.2729566 6.57270518,6.12002807 6.67627725,5.90811559 Z M1.87045201,5.85406154 L1.9214566,5.95869166 C1.84692672,6.1111827 1.89764127,6.17914977 1.9214566,6.21681734 C2.02740705,6.31851963 2.01237117,6.47693138 1.9214566,6.68485247 L1.81020245,6.64406815 C1.87675939,6.49185282 1.85707774,6.37386859 1.81020245,6.33165895 L1.80531963,6.32726213 L1.80118493,6.32199936 C1.7201867,6.21890254 1.76687994,6.06597402 1.87045201,5.85406154 Z M2.7927821,4.55676424 L2.8437867,4.66139437 C2.76925682,4.8138854 2.81997136,4.88185247 2.8437867,4.91952004 C2.94973715,5.02122234 2.93470127,5.17963408 2.8437867,5.38755517 L2.73253255,5.34677086 C2.79908948,5.19455553 2.77940784,5.0765713 2.73253255,5.03436165 L2.72764973,5.02996483 L2.72351502,5.02470207 C2.6425168,4.92160525 2.68921003,4.76867672 2.7927821,4.55676424 Z M6.67627725,4.44865613 L6.72728185,4.55328626 C6.65275196,4.70577729 6.70346651,4.77374437 6.72728185,4.81141193 C6.83323229,4.91311423 6.81819641,5.07152597 6.72728185,5.27944706 L6.61602769,5.23866275 C6.68258463,5.08644742 6.66290298,4.96846319 6.61602769,4.92625354 L6.61114487,4.92185672 L6.60701017,4.91659396 C6.52601194,4.81349714 6.57270518,4.66056861 6.67627725,4.44865613 Z M6.62773356,3.04325073 L6.67873816,3.14788085 C6.60420828,3.30037189 6.65492282,3.36833896 6.67873816,3.40600653 C6.7846886,3.50770882 6.76965272,3.66612057 6.67873816,3.87404165 L6.567484,3.83325734 C6.63404094,3.68104201 6.61435929,3.56305778 6.567484,3.52084814 L6.56260118,3.51645132 L6.55846648,3.51118855 C6.47746826,3.40809173 6.52416149,3.25516321 6.62773356,3.04325073 Z M2.01608307,2.93514262 L2.06708767,3.03977274 C1.99255779,3.19226378 2.04327233,3.26023085 2.06708767,3.29789842 C2.17303812,3.39960071 2.15800224,3.55801246 2.06708767,3.76593355 L1.95583352,3.72514924 C2.02239045,3.5729339 2.00270881,3.45494968 1.95583352,3.41274003 L1.9509507,3.40834321 L1.94681599,3.40308045 C1.86581777,3.29998363 1.912511,3.1470551 2.01608307,2.93514262 Z M2.01608307,1.58379127 L2.06708767,1.68842139 C1.99255779,1.84091243 2.04327233,1.9088795 2.06708767,1.94654707 C2.17303812,2.04824936 2.15800224,2.20666111 2.06708767,2.41458219 L1.95583352,2.37379788 C2.02239045,2.22158255 2.00270881,2.10359832 1.95583352,2.06138868 L1.9509507,2.05699186 L1.94681599,2.05172909 C1.86581777,1.94863227 1.912511,1.79570375 2.01608307,1.58379127 Z M6.62773356,1.52973721 L6.67873816,1.63436734 C6.60420828,1.78685838 6.65492282,1.85482545 6.67873816,1.89249301 C6.7846886,1.99419531 6.76965272,2.15260705 6.67873816,2.36052814 L6.567484,2.31974383 C6.63404094,2.1675285 6.61435929,2.04954427 6.567484,2.00733462 L6.56260118,2.00293781 L6.55846648,1.99767504 C6.47746826,1.89457822 6.52416149,1.74164969 6.62773356,1.52973721 Z M6.62773356,0.124331809 L6.67873816,0.228961934 C6.60420828,0.38145297 6.65492282,0.449420042 6.67873816,0.487087606 C6.7846886,0.588789904 6.76965272,0.747201648 6.67873816,0.955122735 L6.567484,0.914338424 C6.63404094,0.762123093 6.61435929,0.644138864 6.567484,0.601929219 L6.56260118,0.5975324 L6.55846648,0.592269634 C6.47746826,0.489172815 6.52416149,0.336244287 6.62773356,0.124331809 Z M2.01608307,0.0702777546 L2.06708767,0.17490788 C1.99255779,0.327398916 2.04327233,0.395365988 2.06708767,0.433033552 C2.17303812,0.534735849 2.15800224,0.693147594 2.06708767,0.901068681 L1.95583352,0.86028437 C2.02239045,0.708069039 2.00270881,0.59008481 1.95583352,0.547875165 L1.9509507,0.543478346 L1.94681599,0.53821558 C1.86581777,0.435118761 1.912511,0.282190233 2.01608307,0.0702777546 Z" id="Combined-Shape" fill="#F50100" fill-rule="nonzero"></path>
                            <path d="M7.33300971,7.83783784 C7.38823818,7.83783784 7.43300971,7.88623949 7.43300971,7.94594595 C7.43300971,7.97409328 7.42305947,7.99972817 7.40675421,8.0189639 L7.53676092,8.14817955 L7.826921,8.14817955 C8.11197036,7.88954315 8.25449504,7.82488404 8.25449504,7.95420225 C8.25449504,8.08352045 8.18634298,8.21602737 8.05003885,8.35172299 C7.96791109,8.40841794 7.92684722,8.40841794 7.92684722,8.35172299 C7.92684722,8.26668055 7.89877251,8.53183169 7.66036361,8.53361676 L7.66036361,8.65216353 L6.96778574,8.65216353 L7.06536897,8.53361676 C6.95128894,8.45473815 6.87197003,8.39410689 6.82741222,8.35172299 C6.68135252,8.32337551 6.58486542,8.2555277 6.53795093,8.14817955 L7.18038072,8.14817955 L7.27556453,8.03444775 C7.24982815,8.01488785 7.23300971,7.98254023 7.23300971,7.94594595 C7.23300971,7.88623949 7.27778123,7.83783784 7.33300971,7.83783784 Z M2.52718447,7.83783784 C2.58241294,7.83783784 2.62718447,7.88623949 2.62718447,7.94594595 C2.62718447,7.97409328 2.61723422,7.99972817 2.60092896,8.0189639 L2.73093568,8.14817955 L3.02109576,8.14817955 C3.30614512,7.88954315 3.4486698,7.82488404 3.4486698,7.95420225 C3.4486698,8.08352045 3.38051773,8.21602737 3.24421361,8.35172299 C3.16208585,8.40841794 3.12102197,8.40841794 3.12102197,8.35172299 C3.12102197,8.26668055 3.09294727,8.53183169 2.85453837,8.53361676 L2.85453837,8.65216353 L2.1619605,8.65216353 L2.25954373,8.53361676 C2.1454637,8.45473815 2.06614478,8.39410689 2.02158698,8.35172299 C1.87552727,8.32337551 1.77904018,8.2555277 1.73212569,8.14817955 L2.37455547,8.14817955 L2.46929572,8.03410868 C2.44380983,8.01451529 2.42718447,7.98232957 2.42718447,7.94594595 C2.42718447,7.88623949 2.47195599,7.83783784 2.52718447,7.83783784 Z M2.52718447,7.35135135 C2.58241294,7.35135135 2.62718447,7.399753 2.62718447,7.45945946 C2.62718447,7.47833724 2.62270877,7.4960849 2.61484196,7.51152992 L3.0170391,8.1129333 L2.97812832,8.14525283 L2.58108345,7.55053608 C2.56552941,7.56131648 2.5470322,7.56756757 2.52718447,7.56756757 C2.51337735,7.56756757 2.50022379,7.56454246 2.48825995,7.5590719 L2.11043136,8.14487215 L2.07101977,8.11331398 L2.44966118,7.52775403 C2.43561059,7.509136 2.42718447,7.48536153 2.42718447,7.45945946 C2.42718447,7.399753 2.47195599,7.35135135 2.52718447,7.35135135 Z M7.33300971,7.35135135 C7.38823818,7.35135135 7.43300971,7.399753 7.43300971,7.45945946 C7.43300971,7.47833724 7.42853401,7.4960849 7.4206672,7.51152992 L7.82286434,8.1129333 L7.78395356,8.14525283 L7.38589014,7.55123271 C7.37054979,7.56158531 7.35242597,7.56756757 7.33300971,7.56756757 C7.31920259,7.56756757 7.30604903,7.56454246 7.2940852,7.5590719 L6.9162566,8.14487215 L6.87684501,8.11331398 L7.25548642,7.52775403 C7.24143584,7.509136 7.23300971,7.48536153 7.23300971,7.45945946 C7.23300971,7.399753 7.27778123,7.35135135 7.33300971,7.35135135 Z M7.33300971,6.37837838 C7.38823818,6.37837838 7.43300971,6.42678003 7.43300971,6.48648649 C7.43300971,6.51458364 7.42309491,6.54017731 7.40684134,6.55940151 L7.53676092,6.68872009 L7.826921,6.68872009 C8.11197036,6.43008369 8.25449504,6.36542459 8.25449504,6.49474279 C8.25449504,6.62406099 8.18634298,6.75656791 8.05003885,6.89226353 C7.96791109,6.94895848 7.92684722,6.94895848 7.92684722,6.89226353 C7.92684722,6.8072211 7.89877251,7.07237224 7.66036361,7.0741573 L7.66036361,7.19270407 L6.96778574,7.19270407 L7.06536897,7.0741573 C6.95128894,6.99527869 6.87197003,6.93464743 6.82741222,6.89226353 C6.68135252,6.86391605 6.58486542,6.79606824 6.53795093,6.68872009 L7.18038072,6.68872009 L7.27556453,6.57498829 C7.24982815,6.55542839 7.23300971,6.52308077 7.23300971,6.48648649 C7.23300971,6.42678003 7.27778123,6.37837838 7.33300971,6.37837838 Z M2.52718447,6.32432432 C2.58241294,6.32432432 2.62718447,6.37272597 2.62718447,6.43243243 C2.62718447,6.46052959 2.61726966,6.48612326 2.6010161,6.50534746 L2.73093568,6.63466604 L3.02109576,6.63466604 C3.30614512,6.37602963 3.4486698,6.31137053 3.4486698,6.44068873 C3.4486698,6.57000694 3.38051773,6.70251385 3.24421361,6.83820947 C3.16208585,6.89490443 3.12102197,6.89490443 3.12102197,6.83820947 C3.12102197,6.75316704 3.09294727,7.01831818 2.85453837,7.02010325 L2.85453837,7.13865002 L2.1619605,7.13865002 L2.25954373,7.02010325 C2.1454637,6.94122464 2.06614478,6.88059338 2.02158698,6.83820947 C1.87552727,6.809862 1.77904018,6.74201419 1.73212569,6.63466604 L2.37455547,6.63466604 L2.46929572,6.52059517 C2.44380983,6.50100178 2.42718447,6.46881606 2.42718447,6.43243243 C2.42718447,6.37272597 2.47195599,6.32432432 2.52718447,6.32432432 Z M7.33300971,5.89189189 C7.38823818,5.89189189 7.43300971,5.94029354 7.43300971,6 C7.43300971,6.01887778 7.42853401,6.03662544 7.4206672,6.05207046 L7.82286434,6.65347384 L7.78395356,6.68579337 L7.38589014,6.09177325 C7.37054979,6.10212585 7.35242597,6.10810811 7.33300971,6.10810811 C7.31955662,6.10810811 7.306724,6.10523615 7.29500783,6.10002842 L6.9162566,6.68541269 L6.87684501,6.65385453 L7.25477684,6.06734346 C7.24115263,6.04887001 7.23300971,6.02546305 7.23300971,6 C7.23300971,5.94029354 7.27778123,5.89189189 7.33300971,5.89189189 Z M2.52718447,5.83783784 C2.58241294,5.83783784 2.62718447,5.88623949 2.62718447,5.94594595 C2.62718447,5.96513731 2.62255884,5.9831607 2.61444712,5.99878418 L3.0170391,6.59941978 L2.97812832,6.63173932 L2.58108345,6.03702257 C2.56552941,6.04780296 2.5470322,6.05405405 2.52718447,6.05405405 C2.51337735,6.05405405 2.50022379,6.05102895 2.48825995,6.04555838 L2.11043136,6.63135863 L2.07101977,6.59980047 L2.44915334,6.01356205 C2.43540781,5.99504652 2.42718447,5.97153443 2.42718447,5.94594595 C2.42718447,5.88623949 2.47195599,5.83783784 2.52718447,5.83783784 Z M3.44951456,5.02702703 C3.50474304,5.02702703 3.54951456,5.07542868 3.54951456,5.13513514 C3.54951456,5.16323229 3.53959976,5.18882596 3.52334619,5.20805016 L3.65326578,5.33736874 L3.94342586,5.33736874 C4.22847521,5.07873234 4.37099989,5.01407323 4.37099989,5.14339144 C4.37099989,5.27270964 4.30284783,5.40521655 4.16654371,5.54091218 C4.08441595,5.59760713 4.04335207,5.59760713 4.04335207,5.54091218 C4.04335207,5.45586974 4.01527737,5.72102088 3.77686846,5.72280595 L3.77686846,5.84135272 L3.0842906,5.84135272 L3.18187383,5.72280595 C3.0677938,5.64392734 2.98847488,5.58329608 2.94391708,5.54091218 C2.79785737,5.5125647 2.70137027,5.44471689 2.65445578,5.33736874 L3.29688557,5.33736874 L3.39261039,5.22404524 C3.36656895,5.20452906 3.34951456,5.17198522 3.34951456,5.13513514 C3.34951456,5.07542868 3.39428609,5.02702703 3.44951456,5.02702703 Z M7.33300971,4.91891892 C7.38823818,4.91891892 7.43300971,4.96732057 7.43300971,5.02702703 C7.43300971,5.05512418 7.42309491,5.08071785 7.40684134,5.09994205 L7.53676092,5.22926063 L7.826921,5.22926063 C8.11197036,4.97062423 8.25449504,4.90596513 8.25449504,5.03528333 C8.25449504,5.16460153 8.18634298,5.29710845 8.05003885,5.43280407 C7.96791109,5.48949903 7.92684722,5.48949903 7.92684722,5.43280407 C7.92684722,5.41390575 7.92546081,5.41230094 7.9206879,5.42125648 L7.89420952,5.47307096 C7.86034443,5.53142861 7.792813,5.61370614 7.66036361,5.61469784 L7.66036361,5.73324462 L6.96778574,5.73324462 L7.06536897,5.61469784 C6.95128894,5.53581923 6.87197003,5.47518797 6.82741222,5.43280407 C6.68135252,5.40445659 6.58486542,5.33660878 6.53795093,5.22926063 L7.18038072,5.22926063 L7.27556453,5.11552883 C7.24982815,5.09596893 7.23300971,5.06362131 7.23300971,5.02702703 C7.23300971,4.96732057 7.27778123,4.91891892 7.33300971,4.91891892 Z M3.44951456,4.54054054 C3.50474304,4.54054054 3.54951456,4.58894219 3.54951456,4.64864865 C3.54951456,4.66784001 3.54488893,4.6858634 3.53677722,4.70148688 L3.9393692,5.30212249 L3.90045841,5.33444202 L3.502395,4.7404219 C3.48705465,4.7507745 3.46893082,4.75675676 3.44951456,4.75675676 C3.43570744,4.75675676 3.42255388,4.75373165 3.41059005,4.74826109 L3.03276146,5.33406134 L2.99334986,5.30250317 L3.37148344,4.71626476 C3.3577379,4.69774922 3.34951456,4.67423713 3.34951456,4.64864865 C3.34951456,4.58894219 3.39428609,4.54054054 3.44951456,4.54054054 Z M7.33300971,4.43243243 C7.38823818,4.43243243 7.43300971,4.48083408 7.43300971,4.54054054 C7.43300971,4.55941832 7.42853401,4.57716598 7.4206672,4.592611 L7.82286434,5.19401438 L7.78395356,5.22633391 L7.38589014,4.63231379 C7.37054979,4.64266639 7.35242597,4.64864865 7.33300971,4.64864865 C7.31920259,4.64864865 7.30604903,4.64562355 7.2940852,4.64015298 L6.9162566,5.22595323 L6.87684501,5.19439507 L7.25477684,4.607884 C7.24115263,4.58941055 7.23300971,4.56600359 7.23300971,4.54054054 C7.23300971,4.48083408 7.27778123,4.43243243 7.33300971,4.43243243 Z M7.28446602,3.51351351 C7.33969449,3.51351351 7.38446602,3.56191516 7.38446602,3.62162162 C7.38446602,3.64976895 7.37451578,3.67540385 7.35821052,3.69463957 L7.48821723,3.82385523 L7.77837731,3.82385523 C8.06342667,3.56521882 8.20595135,3.50055972 8.20595135,3.62987792 C8.20595135,3.75919613 8.13779929,3.89170304 8.00149516,4.02739866 C7.91936741,4.08409362 7.87830353,4.08409362 7.87830353,4.02739866 C7.87830353,3.94235623 7.85022882,4.20750737 7.61181992,4.20929244 L7.61181992,4.32783921 L6.91924205,4.32783921 L7.01682528,4.20929244 C6.90274525,4.13041383 6.82342634,4.06978257 6.77886853,4.02739866 C6.63280883,3.99905119 6.53632173,3.93120337 6.48940724,3.82385523 L7.13183703,3.82385523 L7.22657727,3.70978436 C7.20109138,3.69019096 7.18446602,3.65800525 7.18446602,3.62162162 C7.18446602,3.56191516 7.22923754,3.51351351 7.28446602,3.51351351 Z M2.67281553,3.40540541 C2.72804401,3.40540541 2.77281553,3.45380705 2.77281553,3.51351351 C2.77281553,3.54161067 2.76290073,3.56720434 2.74664717,3.58642854 L2.87656675,3.71574712 L3.16672683,3.71574712 C3.45177619,3.45711071 3.59430086,3.39245161 3.59430086,3.52176982 C3.59430086,3.65108802 3.5261488,3.78359493 3.38984468,3.91929056 C3.30771692,3.97598551 3.26665304,3.97598551 3.26665304,3.91929056 C3.26665304,3.83424812 3.23857834,4.09939926 3.00016943,4.10118433 L3.00016943,4.2197311 L2.30759157,4.2197311 L2.4051748,4.10118433 C2.29109477,4.02230572 2.21177585,3.96167446 2.16721805,3.91929056 C2.02115834,3.89094308 1.92467124,3.82309527 1.87775676,3.71574712 L2.52018654,3.71574712 L2.61591136,3.60242361 C2.58986992,3.58290744 2.57281553,3.55036359 2.57281553,3.51351351 C2.57281553,3.45380705 2.61758706,3.40540541 2.67281553,3.40540541 Z M7.28446602,3.02702703 C7.33969449,3.02702703 7.38446602,3.07542868 7.38446602,3.13513514 C7.38446602,3.15401291 7.37999032,3.17176058 7.37212351,3.18720559 L7.77432065,3.78860897 L7.73540987,3.82092851 L7.33734645,3.22690839 C7.3220061,3.23726098 7.30388228,3.24324324 7.28446602,3.24324324 C7.27101293,3.24324324 7.25818031,3.24037128 7.24646414,3.23516355 L6.86771291,3.82054782 L6.82830132,3.78898966 L7.20623315,3.2024786 C7.19260894,3.18400515 7.18446602,3.16059818 7.18446602,3.13513514 C7.18446602,3.07542868 7.22923754,3.02702703 7.28446602,3.02702703 Z M2.67281553,2.91891892 C2.72804401,2.91891892 2.77281553,2.96732057 2.77281553,3.02702703 C2.77281553,3.0459048 2.76833983,3.06365247 2.76047303,3.07909748 L3.16267017,3.68050087 L3.12375938,3.7128204 L2.72569597,3.11880028 C2.71035562,3.12915288 2.69223179,3.13513514 2.67281553,3.13513514 C2.65936244,3.13513514 2.64652983,3.13226318 2.63481365,3.12705544 L2.25606243,3.71243971 L2.21665083,3.68088155 L2.59458267,3.09437049 C2.58095845,3.07589704 2.57281553,3.05249008 2.57281553,3.02702703 C2.57281553,2.96732057 2.61758706,2.91891892 2.67281553,2.91891892 Z M2.67281553,2.05405405 C2.72804401,2.05405405 2.77281553,2.1024557 2.77281553,2.16216216 C2.77281553,2.19025932 2.76290073,2.21585299 2.74664717,2.23507719 L2.87656675,2.36439577 L3.16672683,2.36439577 C3.45177619,2.10575936 3.59430086,2.04110026 3.59430086,2.17041846 C3.59430086,2.29973667 3.5261488,2.43224358 3.38984468,2.5679392 C3.30771692,2.62463416 3.26665304,2.62463416 3.26665304,2.5679392 C3.26665304,2.48289677 3.23857834,2.74804791 3.00016943,2.74983298 L3.00016943,2.86837975 L2.30759157,2.86837975 L2.4051748,2.74983298 C2.29109477,2.67095437 2.21177585,2.61032311 2.16721805,2.5679392 C2.02115834,2.53959173 1.92467124,2.47174392 1.87775676,2.36439577 L2.52018654,2.36439577 L2.61591136,2.25107226 C2.58986992,2.23155609 2.57281553,2.19901224 2.57281553,2.16216216 C2.57281553,2.1024557 2.61758706,2.05405405 2.67281553,2.05405405 Z M7.28446602,2 C7.33969449,2 7.38446602,2.04840165 7.38446602,2.10810811 C7.38446602,2.13620527 7.37455122,2.16179894 7.35829765,2.18102313 L7.48821723,2.31034172 L7.77837731,2.31034172 C8.06342667,2.05170531 8.20595135,1.98704621 8.20595135,2.11636441 C8.20595135,2.24568261 8.13779929,2.37818953 8.00149516,2.51388515 C7.91936741,2.57058011 7.87830353,2.57058011 7.87830353,2.51388515 C7.87830353,2.42884272 7.85022882,2.69399386 7.61181992,2.69577892 L7.61181992,2.8143257 L6.91924205,2.8143257 L7.01682528,2.69577892 C6.90274525,2.61690031 6.82342634,2.55626905 6.77886853,2.51388515 C6.63280883,2.48553767 6.53632173,2.41768986 6.48940724,2.31034172 L7.13183703,2.31034172 L7.22657727,2.19627084 C7.20109138,2.17667745 7.18446602,2.14449173 7.18446602,2.10810811 C7.18446602,2.04840165 7.22923754,2 7.28446602,2 Z M2.67281553,1.56756757 C2.72804401,1.56756757 2.77281553,1.61596922 2.77281553,1.67567568 C2.77281553,1.69486704 2.7681899,1.71289043 2.76007819,1.7285139 L3.16267017,2.32914951 L3.12375938,2.36146905 L2.72569597,1.76744893 C2.71035562,1.77780152 2.69223179,1.78378378 2.67281553,1.78378378 C2.65900842,1.78378378 2.64585486,1.78075868 2.63389102,1.77528811 L2.25606243,2.36108836 L2.21665083,2.3295302 L2.59478441,1.74329178 C2.58103888,1.72477625 2.57281553,1.70126416 2.57281553,1.67567568 C2.57281553,1.61596922 2.61758706,1.56756757 2.67281553,1.56756757 Z M6.86771291,2.30703431 L6.82830132,2.27547615 L7.2064349,1.68923773 C7.19268936,1.67072219 7.18446602,1.6472101 7.18446602,1.62162162 C7.18446602,1.56191516 7.22923754,1.51351351 7.28446602,1.51351351 C7.33969449,1.51351351 7.38446602,1.56191516 7.38446602,1.62162162 C7.38446602,1.64081298 7.37984039,1.65883637 7.37172868,1.67445985 L7.77432065,2.27509546 L7.73540987,2.307415 L7.33734645,1.71339488 C7.3220061,1.72374747 7.30388228,1.72972973 7.28446602,1.72972973 C7.2706589,1.72972973 7.25750534,1.72670463 7.24554151,1.72123406 L6.86771291,2.30703431 Z M2.67281553,0.540540541 C2.72804401,0.540540541 2.77281553,0.588942189 2.77281553,0.648648649 C2.77281553,0.676369505 2.76316453,0.701653482 2.74729679,0.720787855 L2.87656675,0.850882256 L3.16672683,0.850882256 C3.45177619,0.592245849 3.59430086,0.527586747 3.59430086,0.656904951 C3.59430086,0.786223155 3.5261488,0.918730068 3.38984468,1.05442569 C3.30771692,1.11112065 3.26665304,1.11112065 3.26665304,1.05442569 C3.26665304,0.969383258 3.23857834,1.2345344 3.00016943,1.23631946 L3.00016943,1.35486624 L2.30759157,1.35486624 L2.4051748,1.23631946 C2.29109477,1.15744085 2.21177585,1.0968096 2.16721805,1.05442569 C2.02115834,1.02607821 1.92467124,0.958230402 1.87775676,0.850882256 L2.52018654,0.850882256 L2.61492678,0.736811384 C2.5894409,0.717217992 2.57281553,0.685032272 2.57281553,0.648648649 C2.57281553,0.588942189 2.61758706,0.540540541 2.67281553,0.540540541 Z M2.67281553,0.0540540541 C2.72804401,0.0540540541 2.77281553,0.102455703 2.77281553,0.162162162 C2.77281553,0.18103994 2.76833983,0.198787603 2.76047303,0.214232618 L3.16267017,0.815636 L3.12375938,0.847955536 L2.72569597,0.253935416 C2.71035562,0.264288011 2.69223179,0.27027027 2.67281553,0.27027027 C2.65936244,0.27027027 2.64652983,0.267398312 2.63481365,0.262190579 L2.25606243,0.847574849 L2.21665083,0.816016687 L2.59458267,0.229505622 C2.58095845,0.211032173 2.57281553,0.187625211 2.57281553,0.162162162 C2.57281553,0.102455703 2.61758706,0.0540540541 2.67281553,0.0540540541 Z" id="Combined-Shape" fill="#FFD018"></path>
                            <path d="M4.63979256,1.98563481 C4.63979256,1.98563481 4.52767009,2.35012089 4.30342517,3.07909304 C3.92776302,3.56510705 3.7052876,3.92719937 3.63599893,4.16537 C3.53206593,4.52262596 3.47511995,4.75999868 3.50359294,4.75999868 C3.53206593,4.75999868 3.76230671,4.65828845 3.76230671,4.41182922 C3.76230671,4.24752308 4.05480199,3.90118558 4.63979256,3.37281674 L4.90170899,1.98563481 C4.72709803,1.98563481 4.63979256,1.98563481 4.63979256,1.98563481 Z" id="Path-382" fill="#FFC6B5"></path>
                            <path d="M7.28446602,0.594594595 C7.33969449,0.594594595 7.38446602,0.642996243 7.38446602,0.702702703 C7.38446602,0.730423559 7.37481501,0.755707536 7.35894728,0.774841909 L7.48821723,0.90493631 L7.77837731,0.90493631 C8.06342667,0.646299903 8.20595135,0.581640801 8.20595135,0.710959005 C8.20595135,0.840277209 8.13779929,0.972784122 8.00149516,1.10847975 C7.91936741,1.1651747 7.87830353,1.1651747 7.87830353,1.10847975 C7.87830353,1.02343731 7.85022882,1.28858845 7.61181992,1.29037352 L7.61181992,1.40892029 L6.91924205,1.40892029 L7.01682528,1.29037352 C6.90274525,1.21149491 6.82342634,1.15086365 6.77886853,1.10847975 C6.63280883,1.08013227 6.53632173,1.01228446 6.48940724,0.90493631 L7.13183703,0.90493631 L7.22657727,0.790865438 C7.20109138,0.771272046 7.18446602,0.739086326 7.18446602,0.702702703 C7.18446602,0.642996243 7.22923754,0.594594595 7.28446602,0.594594595 Z M7.28446602,0.108108108 C7.33969449,0.108108108 7.38446602,0.156509757 7.38446602,0.216216216 C7.38446602,0.235093994 7.37999032,0.252841657 7.37212351,0.268286672 L7.77432065,0.869690054 L7.73540987,0.90200959 L7.33734645,0.30798947 C7.3220061,0.318342065 7.30388228,0.324324324 7.28446602,0.324324324 C7.27101293,0.324324324 7.25818031,0.321452366 7.24646414,0.316244633 L6.86771291,0.901628903 L6.82830132,0.870070741 L7.20623315,0.283559676 C7.19260894,0.265086227 7.18446602,0.241679265 7.18446602,0.216216216 C7.18446602,0.156509757 7.22923754,0.108108108 7.28446602,0.108108108 Z" id="Combined-Shape" fill="#FFD018"></path>
                            <path d="M5.83105165,1.86863385 C5.96394024,1.86863385 6.17027072,2.94421219 6.24485329,3.37543033 C6.31943586,3.80664848 6.17027072,3.6887473 5.83105165,4.24973771 C5.49183259,4.81072811 5.75493356,4.98364393 5.60129916,5.19839809 C5.47559828,5.37410604 5.415085,5.24921081 5.3634266,5.09106586 L5.32968131,4.98364393 C5.26795327,4.78843064 5.59462491,4.14480324 5.75493356,3.8025449 C5.91524221,3.46028656 5.90015021,3.34084299 5.83105165,3.19751071 C5.78498595,3.10195586 5.74068975,2.938985 5.69816307,2.70859815 L5.69816307,2.70859815 L5.75493356,2.09359812 C5.71708657,1.94362194 5.74245926,1.86863385 5.83105165,1.86863385 Z M4.79781986,0.551579216 C4.79781986,0.26325368 4.92184628,0.486459267 5.15252577,0.486459267 C5.38320527,0.486459267 5.26360993,0.571901721 5.41325766,0.839904752 L5.45622292,0.925640701 C5.5278317,1.09428032 5.41325766,1.06433164 5.41325766,1.28284742 C5.41325766,1.53257974 5.47665284,1.54098231 5.47665284,1.60405047 C5.47665284,1.66711863 5.20938401,1.7596935 5.01661001,1.7596935 C4.82383601,1.7596935 4.89942764,1.60405047 5.01661001,1.51772868 C5.13379239,1.43140689 5.00713364,1.28284742 4.89942764,1.28284742 C4.79172163,1.28284742 4.79781986,1.12266114 4.79781986,1.00405634 Z" id="Combined-Shape" fill="#FFC6B5"></path>
                            <path d="M5.75242718,8.48648649 C5.89988185,8.48648649 6.01941748,8.61325271 6.01941748,8.76962677 C6.01941748,8.92600083 5.89988185,9.05276705 5.75242718,9.05276705 C5.60497252,9.05276705 5.48543689,8.92600083 5.48543689,8.76962677 C5.48543689,8.61325271 5.60497252,8.48648649 5.75242718,8.48648649 Z M4.38107978,8.58799354 C4.50086926,8.48747823 4.64687346,8.46426603 4.7071893,8.53614765 C4.76750514,8.60802927 4.71929223,8.74778459 4.59950275,8.8482999 C4.47971327,8.94881521 4.33370906,8.9720274 4.27339322,8.90014578 C4.21307738,8.82826417 4.2612903,8.68850884 4.38107978,8.58799354 Z" id="Combined-Shape" fill="#FFD018"></path>
                            <path d="M4.9510651,0.18465053 C4.76596871,0.222234137 4.70426992,0.28737037 4.76596871,0.38005923 C4.8585169,0.51909252 4.64536431,0.483137319 4.9510651,0.501114919 C5.25676588,0.51909252 5.34047385,0.630377774 5.29861986,0.712595984 C5.25676588,0.794814195 5.22390568,0.998967434 5.29861986,1.12197721 C5.37333405,1.24498699 5.39702498,1.45905722 5.52899225,1.3520221 C5.66095953,1.24498699 5.91445251,1.09794194 5.8367989,0.905268962 C5.75914528,0.712595984 5.86812358,0.488462206 5.69855792,0.38005923 C5.52899225,0.271656254 5.4911098,0.337948655 5.39408555,0.18465053 C5.2970613,0.0313524054 5.15410517,-0.0108558738 5.05258513,0.0868973282 C4.98490511,0.15206613 4.9510651,0.18465053 4.9510651,0.18465053 Z" id="Path-385" fill="#A95601"></path>
                            <path d="M4.89600561,1.57752374 C4.52397021,2.02546562 4.36841438,2.3283491 4.4293381,2.48617419 C4.52072368,2.72291183 4.65725365,2.73536914 4.58898866,3.07196062 C4.52072368,3.40855211 4.63053554,3.92892548 4.4293381,4.5909213 C4.22814065,5.25291712 4.09591015,6.80612317 4.1620254,6.80612317 C4.22814065,6.80612317 4.31996495,7.66411392 4.24099518,8.0490202 C4.1620254,8.43392649 3.6112112,8.75596003 4.1620254,8.75596003 C4.7128396,8.75596003 4.77816515,8.83226712 4.99827147,8.75596003 C5.21837779,8.67965293 5.53070327,8.9755017 5.53070327,8.75596003 C5.53070327,8.53641835 5.55426258,8.49147435 5.72202949,8.49147435 C5.88979639,8.49147435 5.88132908,8.49147435 6.02988001,8.49147435 C6.17843093,8.49147435 6.37313531,8.62972601 6.37313531,8.3017325 C6.37313531,7.973739 6.40937366,7.26894867 6.21962683,6.72165776 C6.02988001,6.17436684 6.09432812,6.5238553 5.9081788,5.79200087 C5.79791369,5.35848862 5.71275564,5.18642869 5.6457017,5.03500141 C5.59955533,4.93078949 5.46783384,5.11373218 5.43655374,4.95057101 C5.42594735,4.89524668 5.5160782,4.57063872 5.51702869,4.52896069 C5.52295457,4.26911749 5.72202949,4.22489424 5.72202949,3.7779234 C5.72202949,3.25925986 5.59769596,2.68944809 5.72202949,2.4043468 C5.84636302,2.11924551 6.15158121,2.29066779 6.02988001,2.01338285 C5.9081788,1.7360979 5.8685623,1.57752374 5.63954994,1.57752374 C5.48687504,1.57752374 5.23902693,1.57752374 4.89600561,1.57752374 Z" id="Path-386" fill="#F7FCFF"></path>
                            <path d="M0.986786569,9.54546264 L1.08022549,9.42107977 C2.41626716,10.665532 3.65142427,11.2856369 4.78505307,11.2856369 C5.91984935,11.2856369 7.3014843,10.6274495 8.92724463,9.30749665 L9.01304377,9.43852704 C7.36465861,10.776849 5.95623281,11.447799 4.78505307,11.447799 C3.61270587,11.447799 2.34683162,10.8122728 0.986786569,9.54546264 Z" id="Path-387" fill="#272727" fill-rule="nonzero"></path>
                        </g>
                    </g>
                </g>
            </g>
        </g>
    </g>
</svg>