<?xml version="1.0" encoding="UTF-8"?>
<svg width="32px" height="24px" viewBox="0 0 32 24" version="1.1" xmlns="http://www.w3.org/2000/svg" xmlns:xlink="http://www.w3.org/1999/xlink">
    <title>flags/L/VI - Virgin Islands (U.S.)</title>
    <defs>
        <rect id="path-1" x="0" y="0" width="32" height="24"></rect>
        <rect id="path-3" x="0" y="0" width="32" height="24"></rect>
        <path d="M0.0658823529,0 C0.68627451,0.428380187 1.30666667,0.642570281 1.92705882,0.642570281 C2.54745098,0.642570281 3.16784314,0.428380187 3.78823529,0 C4.40862745,0.428380187 5.02901961,0.642570281 5.64941176,0.642570281 C6.26980392,0.642570281 6.89019608,0.428380187 7.51058824,0 L7.51058824,2.90088212 C7.51058824,4.90048948 6.26980392,6.67516197 3.78823529,8.2248996 C1.18651302,6.80194912 -0.0542712909,5.01540451 0.0658823529,2.86526577 L0.0658823529,0 Z" id="path-5"></path>
    </defs>
    <g id="Symbols" stroke="none" stroke-width="1" fill="none" fill-rule="evenodd">
        <g id="flag">
            <mask id="mask-2" fill="white">
                <use xlink:href="#path-1"></use>
            </mask>
            <g id="mask"></g>
            <g id="contents" mask="url(#mask-2)">
                <mask id="mask-4" fill="white">
                    <use xlink:href="#path-3"></use>
                </mask>
                <use id="background" fill="#F7FCFF" xlink:href="#path-3"></use>
                <g id="mark" mask="url(#mask-4)">
                    <g transform="translate(2.000000, 4.800000)">
                        <path d="M14.0320915,9.26307486 L15.8667564,10.0373185 C16.2730933,10.2107052 16.4762618,10.4123814 16.4762618,10.642347 C16.4762618,10.9872954 17.5088122,11.8610082 17.5088122,12.2029582 C17.5088122,12.5449082 16.6099253,13.3722107 16.2383408,13.7398428 C15.8667564,14.1074749 15.3790183,14.8140585 14.9916616,14.8140585 C14.6043048,14.8140585 14.3594333,15.3314811 14.0320915,15.3314811 C14.0238901,15.3314811 14.0159969,15.3286242 14.008412,15.3229102 L14.0038303,15.3262316 L13.9851413,15.3314811 C13.6577994,15.3314811 13.4129279,14.8140585 13.0255712,14.8140585 C12.6382144,14.8140585 12.1504764,14.1074749 11.7788919,13.7398428 C11.4073074,13.3722107 10.5084205,12.5449082 10.5084205,12.2029582 C10.5084205,11.8610082 11.5409709,10.9872954 11.5409709,10.642347 C11.5409709,10.4123814 11.7441394,10.2107052 12.1504764,10.0373185 L12.1504764,10.0373185 L13.9851413,9.26307486 C13.9933479,9.41521247 14.0012459,9.56448946 14.0088352,9.71090583 C14.0159869,9.56448946 14.0238849,9.41521247 14.0320915,9.26307486 Z M10.8437822,8.03189849 C11.6724067,9.22057555 12.0867189,9.81491408 12.0867189,9.81491408 C12.0867189,9.81491408 11.0363913,9.75900546 11.0363913,10.5419652 C11.0363913,11.3249249 10.0730786,11.681755 9.53414745,11.681755 C8.9952163,11.681755 8.69861704,12.0346557 8.69861704,12.6558496 C8.69861704,13.2770436 7.59589335,12.895332 7.33270996,12.6558496 C7.06952657,12.4163673 7.59589335,11.3815221 7.87003714,11.3815221 C8.14418094,11.3815221 8.45695348,11.1691559 9.03919159,11.1691559 C9.6214297,11.1691559 9.09926888,10.4097741 9.70002382,9.40791147 C10.1005271,8.74000307 10.4817799,8.28133208 10.8437822,8.03189849 Z M17.3832109,8.03189849 C17.7452132,8.28133208 18.126466,8.74000307 18.5269693,9.40791147 C19.1277242,10.4097741 18.6055634,11.1691559 19.1878015,11.1691559 C19.7700397,11.1691559 20.0828122,11.3815221 20.356956,11.3815221 C20.6310998,11.3815221 21.1574666,12.4163673 20.8942832,12.6558496 C20.6310998,12.895332 19.5283761,13.2770436 19.5283761,12.6558496 C19.5283761,12.0346557 19.2317768,11.681755 18.6928457,11.681755 C18.1539145,11.681755 17.1906018,11.3249249 17.1906018,10.5419652 C17.1906018,9.75900546 16.1402742,9.81491408 16.1402742,9.81491408 C16.1402742,9.81491408 16.5545865,9.22057555 17.3832109,8.03189849 Z M9.29275121,2.33568711 C9.6913357,2.33568711 10.4411878,3.3007865 10.0662618,3.70700691 C9.6913357,4.11322733 9.56448906,4.35062379 9.81537541,4.35062379 C9.98263297,4.35062379 10.4880591,4.24115981 11.3316539,4.02223187 L11.3316539,7.79398057 C10.5231681,7.9858793 10.0177419,7.9858793 9.81537541,7.79398057 C9.51182565,7.50613247 8.87906274,7.77703299 8.87906274,7.46337243 C8.87906274,7.14971187 8.18027007,7.10040161 8.18027007,7.10040161 C8.18027007,7.10040161 7.53360617,6.88715477 7.53360617,6.68652152 C7.53360617,6.55276602 7.39254664,6.29685759 7.11042759,5.91879623 C6.03523857,5.31006927 5.04055952,4.67170932 4.12639044,4.00371636 C2.75513682,3.00172693 1.46341296,2.2866695 1.27120488,1.42299484 C0.555035963,0.713803881 0.283206885,0.281496138 0.777205882,0.0695281124 C1.27120488,-0.142439913 8.89416671,2.33568711 9.29275121,2.33568711 Z M18.9342419,2.33568711 C19.3328264,2.33568711 26.9557882,-0.142439913 27.4497872,0.0695281124 C27.9437862,0.281496138 27.6719572,0.713803881 26.9557882,1.42299484 C26.7635802,2.2866695 25.4718563,3.00172693 24.1006027,4.00371636 C23.1864336,4.67170932 22.1917546,5.31006927 21.1165655,5.91879623 C20.8344465,6.29685759 20.693387,6.55276602 20.693387,6.68652152 C20.693387,6.88715477 20.0467231,7.10040161 20.0467231,7.10040161 C20.0467231,7.10040161 19.3479304,7.14971187 19.3479304,7.46337243 C19.3479304,7.77703299 18.7151675,7.50613247 18.4116177,7.79398057 C18.2092512,7.9858793 17.7038251,7.9858793 16.8953392,7.79398057 L16.8953392,7.79398057 L16.8953392,4.02223187 C17.738934,4.24115981 18.2443602,4.35062379 18.4116177,4.35062379 C18.6625041,4.35062379 18.5356574,4.11322733 18.1607314,3.70700691 C17.7858053,3.3007865 18.5356574,2.33568711 18.9342419,2.33568711 Z M14.0751293,0.00322280371 C14.8615291,0.00322280371 15.1472319,0.942481205 15.1472319,1.12699054 C15.1472319,1.24999677 15.2368839,1.63839901 15.416188,2.29219727 C15.2368839,2.29219727 15.1472319,2.33436723 15.1472319,2.41870715 C15.1472319,2.50304708 15.4280244,2.72745782 15.9896094,3.09193939 C15.5702168,3.21539932 15.4411789,3.32302977 15.6024957,3.41483073 C15.7638124,3.50663169 15.8928503,3.67004344 15.9896094,3.90506599 L15.9896094,3.90506599 L11.9016172,3.90506599 L12.1838311,3.41483073 C11.9956885,3.32943214 11.9489371,3.28673285 12.043577,3.28673285 C12.1382168,3.28673285 12.3205187,3.09735872 12.5904827,2.71861045 L12.5904827,2.71861045 L12.421542,2.71861045 C12.3636003,2.6243897 12.4199139,2.57727932 12.5904827,2.57727932 C12.7610515,2.57727932 12.9144601,2.27246082 13.0507084,1.66282381 C13.1626119,1.37759052 13.0815917,1.19897943 12.8076478,1.12699054 C12.5337039,1.05500165 12.2316937,1.17422695 11.9016172,1.48466643 C11.9821464,0.988003591 12.0762177,0.685882152 12.1838311,0.578302116 C12.3452512,0.416932063 12.8076478,0.547600972 12.8076478,0.351748846 C12.8076478,0.15589672 13.2887295,0.00322280371 14.0751293,0.00322280371 Z" id="Combined-Shape" fill="#E8AA00"></path>
                        <path d="M7.00091289,7.67727397 C7.00091289,7.97935054 6.43532654,8.51746126 6.265105,8.51746126 C6.24140007,8.51746126 6.22264684,8.50963451 6.20884531,8.49398103 C6.46653542,9.00488131 6.76778071,9.55269065 7.11182986,10.1355844 C7.1253951,10.0581648 7.15036401,9.96006707 7.18745794,9.84280436 C7.27040703,9.65872304 7.42145666,9.45733865 7.64060683,9.2386512 C7.88167203,8.99809501 7.92118267,9.11035457 7.92511259,9.3064626 L7.92472511,9.42012954 L7.92472511,9.42012954 L7.92326583,9.54072778 L7.92326583,9.54072778 C7.92326583,9.81323602 7.46298374,10.2778321 7.24790662,10.3661739 C7.34157355,10.5203572 7.43760123,10.6779215 7.5365687,10.8378953 C7.54860887,10.7908966 7.56415696,10.7369292 7.58275206,10.6781457 C7.66570115,10.4940644 7.81675078,10.29268 8.03590095,10.0739926 C8.36462621,9.74596139 8.31855995,10.0739926 8.31855995,10.3760691 C8.31855995,10.6153855 7.96357524,11.0028464 7.73142921,11.153516 C7.7982776,11.256047 7.86580751,11.3622773 7.93456129,11.4695107 C7.94612704,11.4257763 7.96077184,11.3753243 7.97804618,11.320716 C8.06099526,11.1366347 8.21204489,10.9352503 8.43119507,10.7165628 C8.75992033,10.3885317 8.71385407,10.7165628 8.71385407,11.0186394 C8.71385407,11.2537013 8.37137891,11.631687 8.1392183,11.7878281 C8.56157888,12.4344003 9.02758512,13.1187485 9.53682072,13.8385299 L9.53682072,13.8385299 L8.83228052,13.8385299 C8.47926425,13.6183256 8.01890379,12.9039298 7.45119915,11.6953425 C7.37664776,11.7276513 7.27799885,11.7581549 7.18377338,11.7924501 C6.89991425,11.8957664 6.20081366,11.5483338 6.14259447,11.3883779 C6.10378167,11.2817406 6.27233456,11.2203924 6.64825313,11.2043332 C6.83560696,11.2182785 7.05720462,11.2825061 7.31304611,11.397016 C7.25719686,11.2732331 7.19868867,11.1419826 7.13914327,11.0059569 C7.09149243,11.0434161 7.00087759,11.0759214 6.90230365,11.1100041 L6.78847927,11.1498799 L6.78847927,11.1498799 C6.50462013,11.2531961 5.80551955,10.9057635 5.74730035,10.7458076 C5.70848755,10.6391703 5.87704044,10.5778221 6.25295901,10.5617629 C6.45430913,10.57675 6.69521057,10.6498127 6.97566333,10.780951 C7.0092175,10.7966408 7.03803402,10.8115175 7.06251115,10.8256634 C6.96716683,10.6084799 6.87111032,10.3800396 6.77256855,10.1401577 C6.74321495,10.1911209 6.63145483,10.2316348 6.50700953,10.2746627 L6.39318515,10.3145385 L6.39318515,10.3145385 C6.10932602,10.4178548 5.41022543,10.0704222 5.35200623,9.91046623 C5.31319343,9.80382895 5.48174632,9.74248071 5.8576649,9.72642153 C6.05901501,9.74140865 6.29991645,9.81447136 6.58036921,9.94560965 C6.64940373,9.97788984 6.6983842,10.0067284 6.73077894,10.0328421 C6.51584922,9.5114225 6.29196875,8.93828751 6.05670346,8.31273902 C6.05669959,8.37801768 5.92822186,8.4250136 5.78230365,8.47546596 L5.66847927,8.51534172 L5.66847927,8.51534172 C5.38462013,8.61865799 4.68551955,8.27122537 4.62730035,8.11126944 C4.58848755,8.00463216 4.75704044,7.94328392 5.13295901,7.92722474 C5.33430913,7.94221187 5.57521057,8.01527457 5.85566333,8.14641286 C5.95914072,8.19479837 6.01756129,8.23545124 6.04260545,8.27078565 C5.9840483,8.11928864 5.9261986,7.96393399 5.86767923,7.80549633 L5.81869068,7.67302441 L5.85749585,7.76036063 C5.95816471,7.982918 6.06810589,8.21307547 6.18731937,8.45083303 C6.16535324,8.37098121 6.19109563,8.21331172 6.265105,7.97935054 C6.34805409,7.79526922 6.49910372,7.59388483 6.71825389,7.37519739 C7.04697916,7.04716621 7.00091289,7.37519739 7.00091289,7.67727397 Z M7.52797172,8.64112939 C7.52797172,8.94320597 6.96238537,9.48131668 6.79216382,9.48131668 C6.67868279,9.48131668 6.67868279,9.30194644 6.79216382,8.94320597 C6.87511291,8.75912464 7.02616254,8.55774026 7.24531272,8.33905281 C7.57403798,8.01102164 7.52797172,8.33905281 7.52797172,8.64112939 Z M5.46237078,8.82682314 C5.6637209,8.84181026 5.90462233,8.91487297 6.18507509,9.04601126 C6.60575422,9.24271869 6.28175016,9.31162383 5.99789103,9.41494011 C5.7140319,9.51825638 5.01493131,9.17082377 4.95671211,9.01086784 C4.91789932,8.90423055 5.0864522,8.84288232 5.46237078,8.82682314 Z M5.42333849,5.85083065 C5.65474257,6.04500173 5.7034074,6.82415691 5.5939911,6.95455418 C5.58562474,6.96452482 5.57641039,6.97183514 5.56634804,6.97648514 C5.62363105,7.13798239 5.68063816,7.29524312 5.73704361,7.44973389 L5.81869068,7.67302441 L5.74572843,7.50757133 C5.66763059,7.32665169 5.5959943,7.15102829 5.53081958,6.98070114 C5.45314,6.9763773 5.33635717,6.8518134 5.18177438,6.60866328 C5.09407855,6.4267954 5.03690199,6.18163728 5.0102447,5.87318893 C4.97025877,5.41051639 5.1919344,5.65665957 5.42333849,5.85083065 Z M4.97497443,6.84478197 C5.15905576,6.92773106 5.36044014,7.07878069 5.57912759,7.29793087 C5.81968379,7.53899606 5.70742423,7.5785067 5.51131619,7.58243663 L5.39764926,7.58204915 L5.39764926,7.58204915 L5.27705101,7.58058987 L5.27705101,7.58058987 C4.97497443,7.58058987 4.43686372,7.01500352 4.43686372,6.84478197 C4.43686372,6.73130095 4.61623396,6.73130095 4.97497443,6.84478197 Z M6.34061771,6.40743829 L6.38049347,6.52126267 L6.38049347,6.52126267 C6.48380974,6.80512181 6.13637713,7.5042224 5.9764212,7.56244159 C5.86978391,7.60125439 5.80843568,7.4327015 5.79237649,7.05678293 C5.80736362,6.85543281 5.88042632,6.61453137 6.01156461,6.33407861 C6.18204439,5.96949003 6.25653045,6.16424127 6.34061771,6.40743829 Z" id="Combined-Shape" fill="#46A000"></path>
                        <path d="M20.0228419,12.6599593 L20.1974779,13.3080867 L20.0228419,13.4607754 L20.3628453,13.710369 L19.8577006,15.9633257 L19.1808587,15.3772659 L18.4728197,15.702818 L18.4728197,15.3772659 L18.1107748,15.702818 L17.8399477,14.7802919 L17.0603587,14.7802919 L18.4728197,13.141838 L18.9715215,13.141838 L18.9715215,12.6599593 L20.0228419,12.6599593 Z M23.2528286,6.06178356 L22.7187155,8.35627818 L22.4148704,8.08866402 C22.4148704,8.08866402 21.8159929,9.2060798 20.6182379,11.4409114 L20.6182379,11.4409114 L22.6235846,9.14324076 L22.2370137,8.95018652 L24.2173178,7.65363032 L23.3551699,9.76648911 L22.8741658,9.42023162 L20.8393959,11.9819623 L19.9953516,11.6574074 L20.8393959,8.65663518 L20.266556,8.65663518 L21.4122358,6.54574248 L21.4458844,8.89438 L21.0910237,8.7792129 C21.0910237,8.7792129 21.0071478,9.30198936 20.8393959,10.3475423 C20.8393959,10.3475423 21.2617088,9.53766728 22.1063347,7.91791726 L22.1063347,7.91791726 L21.6845257,7.75942071 L23.2528286,6.06178356 Z M26.6916423,5.53858362 C26.3209642,5.60553873 26.1356251,5.75144558 26.1356251,5.97630419 L26.1356251,9.96044702 L26.1356251,9.96044702 C26.2026391,10.2144807 26.3879782,10.3441356 26.6916423,10.3494116 C26.7444535,10.3503292 26.7665322,10.3510872 26.7578784,10.3516856 L26.7218485,10.3524635 C26.7120019,10.3525732 26.7002346,10.3526729 26.6865465,10.3527627 L25.8502186,10.3527627 C25.8019565,10.3526729 25.7517736,10.3525732 25.69967,10.3524635 L25.3639987,10.3516856 C25.1248516,10.3510872 24.854972,10.3503292 24.55436,10.3494116 C24.8826623,10.2835871 25.0502858,10.1539322 25.0572304,9.96044702 C25.0594527,9.89853177 25.0609639,9.72043732 25.0617639,9.42616367 L25.0617639,7.99187225 C25.0609639,7.43619543 25.0594527,6.76433941 25.0572304,5.97630419 C25.0240443,5.68449048 24.8564208,5.53858362 24.55436,5.53858362 L26.6916423,5.53858362 Z M2.3084281,5.60415187 C2.13716758,5.60415187 2.01974391,5.71315004 1.95615708,5.93114639 L1.95615708,5.93114639 L2.991932,8.88440039 C3.65967395,7.27696662 3.99354492,6.33072485 3.99354492,6.04567506 C3.99354492,5.76062528 3.85339303,5.61345088 3.57308926,5.60415187 L3.57308926,5.60415187 L5.500944,5.60415187 L5.03519496,5.75969469 C4.00680528,8.11734518 3.49261045,9.54853341 3.49261045,10.0532594 C3.44360911,10.1651338 3.68034776,10.2582795 4.20282638,10.3326966 L4.20282638,10.3326966 L2.13263498,10.3326966 L2.56531887,10.0532594 C2.4040362,9.63685913 1.82549391,8.15382329 0.829692,5.60415187 L0.829692,5.60415187 Z" id="Path-397" fill="#0093E1"></path>
                        <g id="main" stroke-width="1" fill="none" transform="translate(10.277647, 3.212851)">
                            <mask id="mask-6" fill="white">
                                <use xlink:href="#path-5"></use>
                            </mask>
                            <use id="Rectangle-105" fill="#F7FCFF" xlink:href="#path-5"></use>
                            <polygon id="Rectangle-107" fill="#2E42A5" mask="url(#mask-6)" points="-0.197647059 -0.192771084 7.64235294 -0.192771084 7.64235294 2.82730924 -0.197647059 2.82730924"></polygon>
                            <path d="M1.31764706,2.82730924 L1.31764706,8.93172691 L0.658823529,8.93172691 L0.658823529,2.82730924 L1.31764706,2.82730924 Z M2.43764706,2.82730924 L2.43764706,8.93172691 L1.77882353,8.93172691 L1.77882353,2.82730924 L2.43764706,2.82730924 Z M3.55764706,2.82730924 L3.55764706,8.93172691 L2.89882353,8.93172691 L2.89882353,2.82730924 L3.55764706,2.82730924 Z M4.67764706,2.82730924 L4.67764706,8.93172691 L4.01882353,8.93172691 L4.01882353,2.82730924 L4.67764706,2.82730924 Z M5.79764706,2.82730924 L5.79764706,8.93172691 L5.13882353,8.93172691 L5.13882353,2.82730924 L5.79764706,2.82730924 Z M6.91764706,2.82730924 L6.91764706,8.93172691 L6.25882353,8.93172691 L6.25882353,2.82730924 L6.91764706,2.82730924 Z" id="Combined-Shape" fill="#AF0100" mask="url(#mask-6)"></path>
                        </g>
                    </g>
                </g>
            </g>
        </g>
    </g>
</svg>