<?xml version="1.0" encoding="UTF-8"?>
<svg width="32px" height="24px" viewBox="0 0 32 24" version="1.1" xmlns="http://www.w3.org/2000/svg" xmlns:xlink="http://www.w3.org/1999/xlink">
    <title>flags/L/VU - Vanuatu</title>
    <defs>
        <rect id="path-1" x="0" y="0" width="32" height="24"></rect>
    </defs>
    <g id="Symbols" stroke="none" stroke-width="1" fill="none" fill-rule="evenodd">
        <g id="flag">
            <mask id="mask-2" fill="white">
                <use xlink:href="#path-1"></use>
            </mask>
            <g id="mask"></g>
            <g id="contents" mask="url(#mask-2)">
                <g transform="translate(0.000000, -72.000000)">
                    <polygon id="middle" stroke="none" fill="#F7FCFF" points="0 72 32 72 32 96 0 96"></polygon>
                    <rect id="top" stroke="none" fill="#C51918" x="0" y="72" width="32" height="8"></rect>
                    <rect id="bottom" stroke="none" fill="#5EAA22" x="0" y="88" width="32" height="8"></rect>
                    <polygon id="triangle" stroke="none" fill="#272727" points="0 70 16.669589 84 0 98"></polygon>
                    <path d="M-1,66.6175175 L17.7464253,80.9990745 L33,81.0000649 L33,87.0000639 L17.5019563,86.9990737 L-1,100.805461 L-1,93.8355913 L12.3233476,83.9951658 L-1,74.035492 L-1,66.6175175 Z" id="Combined-Shape" stroke="#272727" stroke-width="2" fill="#FFD018"></path>
                    <g id="mark" stroke="none" stroke-width="1" fill="none" transform="translate(1.000000, 79.000000)">
                        <path d="M3.8736872,9.76806673 L3.87568541,8.1877118 C5.28401315,7.87702335 6.21696215,7.47289006 6.6710798,6.98689244 C7.78931796,5.60873636 7.04595536,2.37985927 4.74858618,2.40097121 C3.61040348,2.40097121 2.43341271,2.94335367 2.43341271,4.219891 C2.43341271,5.80533363 2.75967555,6.48307633 3.87568541,6.48307633 C4.98473702,6.48307633 5.39134827,6.54236186 6.12189122,5.54665058 L6.91467607,5.79160707 C6.13183038,6.85860564 5.07657989,7.70146989 3.8736872,7.70146989 C1.8921414,7.70146989 0.813786001,6.20741534 0.813786001,4.47949472 C0.813786001,2.34638573 2.54546576,0.8524433 4.63340842,0.8524433 C6.19131943,0.8524433 8.65546316,2.76064654 8.65546316,4.47949472 C8.65546316,6.1983429 8.65546316,6.98689244 7.30429887,8.1877118 C6.76006932,8.67138458 5.41161559,9.53517078 3.8736872,9.76806673 Z" id="Path-290" fill="#FFD018" fill-rule="nonzero"></path>
                        <path d="M3.99142046,2.8798362 C4.06770367,2.89997915 4.11321434,2.97814799 4.0930714,3.0544312 L3.98281777,3.47480429 C4.07960235,3.60087891 4.17154867,3.72119923 4.2587378,3.83590776 L4.39630647,3.53031305 C4.42893252,3.45847707 4.51361572,3.42669115 4.58545169,3.45931721 C4.65728767,3.49194326 4.68907359,3.57662646 4.65644754,3.64846243 L4.45450873,4.09467238 C4.50443053,4.16099724 4.55251545,4.22516956 4.59878334,4.28722423 L4.68202075,4.10174162 C4.71464681,4.02990565 4.79933001,3.99811972 4.87116598,4.03074578 C4.94300195,4.06337183 4.97478787,4.14805503 4.94216182,4.219891 L4.79357271,4.55063093 C4.91414574,4.71520382 5.01918228,4.86182192 5.10919098,4.99137913 L5.25344932,4.67317019 C5.28607538,4.60133422 5.37075858,4.5695483 5.44259455,4.60217435 C5.51443052,4.6348004 5.54621645,4.7194836 5.51359039,4.79131958 L5.3021971,5.25676488 L5.29552609,5.26832268 C5.4529899,5.51242372 5.52833781,5.66471165 5.52833781,5.737081 C5.52833781,5.81597882 5.46437849,5.87993814 5.38548066,5.87993814 C5.30658284,5.87993814 5.24262352,5.81597882 5.24262352,5.737081 C5.24262352,5.70869471 5.18025337,5.60096172 5.05978413,5.42138824 L4.76855224,5.57649403 C4.69903847,5.61381296 4.61243346,5.58771389 4.57511453,5.51820013 C4.53779559,5.44868636 4.56389466,5.36208135 4.63340842,5.32476242 L4.89622928,5.18413798 C4.81445525,5.06794982 4.71869437,4.93467755 4.60947318,4.78524658 L4.19712367,5.00506545 C4.1276099,5.04238439 4.04100489,5.01628532 4.00368595,4.94677156 C3.96636702,4.87725779 3.99246609,4.79065278 4.06197985,4.75333384 L4.43853047,4.55303514 C4.40925303,4.51352263 4.37921955,4.47311079 4.34843725,4.43181229 L4.22739939,4.27000256 L4.22739939,4.27000256 L3.91140938,4.43363688 C3.84189562,4.47095582 3.7552906,4.44485675 3.71797167,4.37534298 C3.68065274,4.30582922 3.7067518,4.21922421 3.77626557,4.18190527 L4.05085741,4.03584736 C3.9711961,3.93063648 3.88781434,3.82108396 3.80079566,3.70733661 L3.6550383,3.84129785 C3.59707306,3.89482259 3.50669258,3.89122285 3.45316784,3.83325762 C3.3996431,3.77529238 3.40324284,3.6849119 3.46120808,3.63138716 L3.62672559,3.48051663 C3.59422312,3.43829366 3.5612706,3.39555573 3.52787177,3.35230938 C3.4796469,3.28986559 3.49117361,3.2001509 3.55361741,3.15192603 C3.6160612,3.10370116 3.70577589,3.11522787 3.75400076,3.17767167 L3.76126534,3.1880669 L3.81682546,2.98148714 C3.83696841,2.90520393 3.91513725,2.85969325 3.99142046,2.8798362 Z" id="Combined-Shape" fill="#FFD018" fill-rule="nonzero"></path>
                        <path d="M3.99142046,2.8798362 C4.06770367,2.89997915 4.11321434,2.97814799 4.0930714,3.0544312 L3.98281777,3.47480429 C4.07960235,3.60087891 4.17154867,3.72119923 4.2587378,3.83590776 L4.39630647,3.53031305 C4.42893252,3.45847707 4.51361572,3.42669115 4.58545169,3.45931721 C4.65728767,3.49194326 4.68907359,3.57662646 4.65644754,3.64846243 L4.45450873,4.09467238 C4.50443053,4.16099724 4.55251545,4.22516956 4.59878334,4.28722423 L4.68202075,4.10174162 C4.71464681,4.02990565 4.79933001,3.99811972 4.87116598,4.03074578 C4.94300195,4.06337183 4.97478787,4.14805503 4.94216182,4.219891 L4.79357271,4.55063093 C4.91414574,4.71520382 5.01918228,4.86182192 5.10919098,4.99137913 L5.25344932,4.67317019 C5.28607538,4.60133422 5.37075858,4.5695483 5.44259455,4.60217435 C5.51443052,4.6348004 5.54621645,4.7194836 5.51359039,4.79131958 L5.3021971,5.25676488 L5.29552609,5.26832268 C5.4529899,5.51242372 5.52833781,5.66471165 5.52833781,5.737081 C5.52833781,5.81597882 5.46437849,5.87993814 5.38548066,5.87993814 C5.30658284,5.87993814 5.24262352,5.81597882 5.24262352,5.737081 C5.24262352,5.70869471 5.18025337,5.60096172 5.05978413,5.42138824 L4.76855224,5.57649403 C4.69903847,5.61381296 4.61243346,5.58771389 4.57511453,5.51820013 C4.53779559,5.44868636 4.56389466,5.36208135 4.63340842,5.32476242 L4.89622928,5.18413798 C4.81445525,5.06794982 4.71869437,4.93467755 4.60947318,4.78524658 L4.19712367,5.00506545 C4.1276099,5.04238439 4.04100489,5.01628532 4.00368595,4.94677156 C3.96636702,4.87725779 3.99246609,4.79065278 4.06197985,4.75333384 L4.43853047,4.55303514 C4.40925303,4.51352263 4.37921955,4.47311079 4.34843725,4.43181229 L4.22739939,4.27000256 L4.22739939,4.27000256 L3.91140938,4.43363688 C3.84189562,4.47095582 3.7552906,4.44485675 3.71797167,4.37534298 C3.68065274,4.30582922 3.7067518,4.21922421 3.77626557,4.18190527 L4.05085741,4.03584736 C3.9711961,3.93063648 3.88781434,3.82108396 3.80079566,3.70733661 L3.6550383,3.84129785 C3.59707306,3.89482259 3.50669258,3.89122285 3.45316784,3.83325762 C3.3996431,3.77529238 3.40324284,3.6849119 3.46120808,3.63138716 L3.62672559,3.48051663 C3.59422312,3.43829366 3.5612706,3.39555573 3.52787177,3.35230938 C3.4796469,3.28986559 3.49117361,3.2001509 3.55361741,3.15192603 C3.6160612,3.10370116 3.70577589,3.11522787 3.75400076,3.17767167 L3.76126534,3.1880669 L3.81682546,2.98148714 C3.83696841,2.90520393 3.91513725,2.85969325 3.99142046,2.8798362 Z" id="Combined-Shape" fill="#FFD018" fill-rule="nonzero" transform="translate(4.471802, 4.377503) scale(-1, 1) translate(-4.471802, -4.377503) "></path>
                    </g>
                </g>
            </g>
        </g>
    </g>
</svg>