<?xml version="1.0" encoding="UTF-8"?>
<svg width="32px" height="24px" viewBox="0 0 32 24" version="1.1" xmlns="http://www.w3.org/2000/svg" xmlns:xlink="http://www.w3.org/1999/xlink">
    <title>flags/L/ZM - Zambia</title>
    <defs>
        <rect id="path-1" x="0" y="0" width="32" height="24"></rect>
        <rect id="path-3" x="0" y="0" width="32" height="24"></rect>
    </defs>
    <g id="Symbols" stroke="none" stroke-width="1" fill="none" fill-rule="evenodd">
        <g id="flag">
            <mask id="mask-2" fill="white">
                <use xlink:href="#path-1"></use>
            </mask>
            <g id="mask"></g>
            <g id="contents" mask="url(#mask-2)">
                <polygon id="base" fill="#F7FCFF" points="0 0 32 0 32 24 0 24"></polygon>
                <mask id="mask-4" fill="white">
                    <use xlink:href="#path-3"></use>
                </mask>
                <use id="background" fill="#5EAA22" xlink:href="#path-3"></use>
                <g id="mark" mask="url(#mask-4)">
                    <g transform="translate(16.000000, 4.000000)">
                        <rect id="Rectangle-69" stroke="none" fill="#FF8126" x="11" y="6" width="5" height="14"></rect>
                        <rect id="Rectangle-69" stroke="none" fill="#272727" x="6" y="6" width="5" height="14"></rect>
                        <rect id="Rectangle-69" stroke="none" fill="#C51918" x="1" y="6" width="5" height="14"></rect>
                        <path d="M1.04810548,0.513675151 C0.782438836,0.366200635 0.842739659,-0.161762808 1.04810548,0.0490486243 C1.25347131,0.259860057 2.9343116,0.837682818 3.17560517,1.04448353 C3.36864001,1.20992411 3.22601232,0.978307305 3.05914297,0.713151036 L2.97512993,0.579460899 L2.97512993,0.579460899 L2.9343116,0.513675151 C2.73490364,0.189667484 4.25713833,1.05625393 4.86610442,1.21544506 C5.00939056,1.2529018 5.17538119,1.30872889 5.34545904,1.36790579 L5.60131407,1.45730596 C6.06746866,1.61892785 6.49413636,1.74908642 6.49413636,1.53540166 C6.49413636,1.20516158 6.96706452,0.688416483 7.47420527,0.513675151 C7.98134602,0.33893382 8.06565885,0.688416483 8.54689191,0.837682818 C8.86771395,0.937193709 8.86771395,1.06311446 8.54689191,1.21544506 C8.48355339,1.15333661 8.45188413,1.09634943 8.45188413,1.04448353 C8.45188413,0.966684687 8.08326004,1.04448353 7.89315876,1.32679705 C7.73230383,1.56567771 7.97977295,1.59066105 8.28304662,1.59269425 L8.45188413,1.59267491 C8.82050822,1.59267491 9.57790397,1.53540166 9.85645055,1.53540166 C10.1349971,1.53540166 10.266798,1.53540166 10.6342489,1.32679705 C11.0016998,1.11819243 12.6730813,0.837682818 12.904906,0.750889737 C13.0594557,0.693027683 12.9821808,0.816825231 12.6730813,1.12228238 C13.8654096,0.716544228 14.5810141,0.444400916 14.8198946,0.305852446 C15.1782153,0.0980297404 14.6938065,0.513675151 14.4615738,0.837682818 C14.2293411,1.16169049 15.0801808,0.513675151 15.4741551,0.305852446 C15.8681295,0.0980297404 15.3739783,0.661750221 15.1567926,0.837682818 C14.9396069,1.01361542 15.6667557,0.837682818 15.9185239,0.661750221 C16.1702921,0.485817623 15.7674426,0.966893495 15.6667557,1.12228238 C15.5660689,1.27767127 15.5308234,1.32679705 15.7674426,1.32679705 C16.0040618,1.32679705 15.1567926,1.88258744 15.1567926,1.88258744 C15.1567926,1.88258744 15.4091728,1.84878045 15.1567926,2.21885251 C14.9044124,2.58892456 12.9949835,2.96537945 12.904906,3.13503066 C12.8148284,3.30468187 11.6326504,3.51073722 11.7194635,3.51073722 C11.8062766,3.51073722 11.950574,3.6033983 11.793882,3.6033983 C11.63719,3.6033983 11.3620099,3.67814343 11.3620099,3.67814343 C11.3620099,3.67814343 11.5068174,3.67814343 11.3620099,3.85228463 C11.2172024,4.02642583 10.8445488,3.77943233 11.050309,4.02642583 C11.2560693,4.27341933 11.1839971,4.18612863 10.9739013,4.18612863 C10.7638055,4.18612863 10.5234628,4.02642583 10.266798,4.02642583 C10.0101332,4.02642583 10.2892408,4.18612863 10.4410362,4.27672079 C10.5928316,4.36731295 10.5079058,4.35798081 10.1905432,4.35798081 C9.87318068,4.35798081 9.85645055,4.29807025 9.85645055,4.35798081 C9.85645055,4.41789137 9.37311281,4.18612863 9.19025445,4.18612863 C9.06834888,4.18612863 9.19756538,4.29223033 9.57790397,4.50443374 C9.37979466,4.45037777 9.22709815,4.40156013 9.11981445,4.35798081 C8.95888889,4.29261183 9.44090047,4.88476234 9.37311281,4.88476234 C9.30532515,4.88476234 8.98831965,4.70001244 8.98831965,4.81565171 C8.98831965,4.93129097 9.11981445,5.01721706 9.28074001,5.01721706 C9.44166556,5.01721706 9.46813794,5.19782913 9.37311281,5.19782913 C9.27808767,5.19782913 9.11981445,5.09838905 9.11981445,5.19782913 C9.11981445,5.29726921 9.28074001,5.33741501 9.28074001,5.5248501 C9.28074001,5.7122852 9.04126442,5.73896102 9.11981445,5.61473795 C9.19836448,5.49051488 8.84725321,5.19065395 8.84725321,5.33741501 L8.84725321,5.33741501 L8.84725321,5.5248501 C8.84725321,5.73896102 8.7682019,5.62923063 8.66606049,5.73896102 C8.55042872,5.86318409 8.63040693,5.88083592 8.54689191,5.88083592 C8.46337689,5.88083592 8.41541447,5.61473795 8.15915774,5.5248501 C7.902901,5.43496225 8.06872319,5.61473795 7.89315876,5.73896102 C7.71759433,5.86318409 7.89315876,5.87352868 7.89315876,5.97310082 C7.89315876,6.07267296 7.69708971,5.87352868 7.69708971,5.73896102 C7.69708971,5.60439337 7.47420527,5.425366 7.47420527,5.5248501 C7.47420527,5.62433421 7.47420527,5.73896102 7.35963061,5.73896102 C7.24505594,5.73896102 7.35963061,5.88211248 7.2209949,5.97310082 C7.08235919,6.06408916 7.2209949,5.88211248 7.10821949,5.73896102 C6.99544409,5.59580956 7.2209949,5.32451729 7.10821949,5.425366 C6.99544409,5.52621471 6.85124867,5.5248501 6.7552034,5.5248501 C6.65915813,5.5248501 6.58718794,5.7296729 6.58718794,5.61473795 C6.58718794,5.499803 6.7293941,5.19782913 6.99697428,5.19782913 C7.26455446,5.19782913 7.35963061,5.07893242 7.47420527,5.01721706 C7.58877994,4.9555017 7.47420527,4.87499001 7.35963061,4.81565171 C7.31380074,4.79191638 7.32296671,4.72172463 7.35046463,4.65229916 L7.363,4.623 L7.29961232,4.65383315 C7.25365631,4.67264783 7.20539253,4.6869004 7.16400221,4.69431159 L7.10821949,4.70001244 C6.99544409,4.70001244 7.2209949,4.38245566 7.2209949,4.18612863 C7.2209949,3.98980159 7.30979724,3.85228463 7.2209949,3.91549665 C7.13219255,3.97870868 6.49413636,3.85228463 6.39876987,3.85228463 C6.30340337,3.85228463 6.59693018,3.51073722 6.39876987,3.6033983 C6.20060956,3.69605937 5.76797229,3.67814343 5.56343616,3.67814343 C5.35890004,3.67814343 5.69625713,3.43907345 5.56343616,3.51073722 C5.4306152,3.58240099 5.29855933,3.6033983 5.14916124,3.6033983 C4.99976316,3.6033983 5.08703531,3.4376208 4.86610442,3.43907345 C4.64517354,3.44052609 4.59563854,3.4376208 4.473988,3.35666892 C4.35233746,3.27571703 4.59563854,3.25885756 4.39375422,3.25885756 L4.39375422,3.25885756 L3.79437719,3.25885756 C3.49578504,3.25885756 3.7952953,3.06266258 3.90291905,3.06266258 C4.0105428,3.06266258 4.13530474,2.88610031 3.90291905,2.96537945 C3.67053337,3.0446586 3.41274644,2.96537945 3.05855719,2.96537945 C2.70436795,2.96537945 2.63647828,2.82729024 2.84591103,2.82729024 C3.05534378,2.82729024 3.06768736,2.72613339 2.74216378,2.72613339 C2.4166402,2.72613339 2.1833874,2.6072807 2.06852073,2.6072807 C1.95365406,2.6072807 1.82945319,2.47112834 2.06852073,2.47112834 C2.30758827,2.47112834 2.61423944,2.35764604 2.35262702,2.35764604 C2.0910146,2.35764604 1.52025169,2.14974187 1.36514088,2.14974187 C1.21003007,2.14974187 2.24571736,2.01821156 1.62874255,2.01821156 C1.01176774,2.01821156 0.353324631,1.42170312 0.107014168,1.32679705 C-0.139296295,1.23189097 0.107014168,1.04448353 0.177964231,1.12228238 C0.248914294,1.20008123 0.745698664,1.3197099 0.530521266,1.21544506 C0.315343868,1.11118022 0.177964231,0.933746801 0.107014168,0.837682818 C0.036064105,0.741618836 0.0906920831,0.675264211 0.177964231,0.750889737 C0.236145663,0.801306755 0.399485528,0.899171354 0.667983826,1.04448353 C0.524327578,0.90661639 0.395478467,0.729680263 0.281436493,0.513675151 C0.11037353,0.189667484 0.452499455,0.268585437 0.745698664,0.513675151 C1.03889787,0.758764865 1.31377213,0.823605758 1.45179602,0.837682818 C1.58981991,0.851759879 1.31377213,0.661149668 1.04810548,0.513675151 Z M8.08438219,3.71018964 C8.10526085,4.37916887 8.07754731,4.71365849 8.00124157,4.71365849 C7.88678294,4.71365849 7.37666678,5.048647 7.87494943,5.048647 C8.37323208,5.048647 8.6739665,5.3836355 8.52359929,5.048647 C8.37323208,4.71365849 8.42224934,4.85808652 8.42224934,4.59181247 C8.42224934,4.41429645 8.30962696,4.12042217 8.08438219,3.71018964 Z" id="Combined-Shape" stroke="#272727" stroke-width="0.25" fill="#FF8126"></path>
                    </g>
                </g>
            </g>
        </g>
    </g>
</svg>