<?xml version="1.0" encoding="UTF-8"?>
<svg width="32px" height="24px" viewBox="0 0 32 24" version="1.1" xmlns="http://www.w3.org/2000/svg" xmlns:xlink="http://www.w3.org/1999/xlink">
    <title>flags/L/ZW - Zimbabwe</title>
    <defs>
        <rect id="path-1" x="0" y="0" width="32" height="24"></rect>
        <rect id="path-3" x="0" y="0" width="32" height="24"></rect>
        <polygon id="path-5" points="0 0 0 24 16.3312915 12.1519538"></polygon>
    </defs>
    <g id="Symbols" stroke="none" stroke-width="1" fill="none" fill-rule="evenodd">
        <g id="flag">
            <mask id="mask-2" fill="white">
                <use xlink:href="#path-1"></use>
            </mask>
            <g id="mask"></g>
            <g id="contents" mask="url(#mask-2)">
                <mask id="mask-4" fill="white">
                    <use xlink:href="#path-3"></use>
                </mask>
                <use id="background" fill="#F7FCFF" xlink:href="#path-3"></use>
                <rect id="yellow" fill="#FECA00" mask="url(#mask-4)" x="0" y="2" width="32" height="20"></rect>
                <rect id="middle" stroke="#E31D1C" stroke-width="3.5" fill="#272727" mask="url(#mask-4)" x="-1.75" y="8.25" width="35.5" height="7.5"></rect>
                <path d="M32,20 L32,24 L0,24 L0,20 L32,20 Z M32,0 L32,4 L0,4 L0,0 L32,0 Z" id="top-n-bottom" fill="#5EAA22" mask="url(#mask-4)"></path>
                <mask id="mask-6" fill="white">
                    <use xlink:href="#path-5"></use>
                </mask>
                <path stroke="#272727" stroke-width="2" d="M-1,-1.99055327 L18.0201563,12.1621584 L-1,25.9609258 L-1,-1.99055327 Z"></path>
                <g id="mark" mask="url(#mask-6)">
                    <g transform="translate(2.000000, 6.000000)">
                        <polygon id="Star-5" stroke="none" fill="#E31D1C" fill-rule="evenodd" points="5.478442 8.27826244 1.69950778 11.3287162 3.43288076 7.25211067 0.454462969 4.38388429 3.97006927 4.38388429 5.41265317 0.925041213 6.944838 4.38388429 10.454463 4.38388429 7.31871284 7.25211067 8.88806703 11.3287162"></polygon>
                        <path d="M3.01760984,2.42149817 C2.98103722,2.33332866 3.07069145,2.2502639 3.28657251,2.17230388 C3.61039411,2.05536386 3.70917316,1.80757713 3.96301939,1.98994051 C4.21686562,2.17230388 4.37567068,1.80566285 4.44850443,2.33152699 C4.49706026,2.68210308 4.58825361,3.13379822 4.72208448,3.68661242 L8.00966251,6.15727302 L7.39197734,6.15727302 C6.75074718,7.09939934 6.48306712,7.98377819 6.58893716,8.81040959 C6.14651107,8.74310949 5.62546117,8.70945944 5.02578748,8.70945944 C4.42611378,8.70945944 3.92989149,8.78132003 3.53712061,8.92504121 L3.01760984,7.00135814 C3.14301215,6.78590774 3.23266638,6.59136429 3.28657251,6.41772778 C3.36743172,6.15727302 3.70224709,6.10919079 3.70224709,5.90199807 C3.70224709,5.69480535 3.37199413,5.52111254 3.53712061,4.98477616 C3.64720493,4.62721858 3.70224709,3.91364235 3.70224709,2.84404746 C3.3543308,2.69105515 3.21577261,2.614559 3.28657251,2.614559 C3.39277236,2.614559 3.63485526,2.42149817 3.46071388,2.42149817 C3.34461964,2.42149817 3.19691829,2.42149817 3.01760984,2.42149817 Z" id="Path-293" stroke="none" fill="#FECA00" fill-rule="evenodd"></path>
                        <path d="M3.82016456,2.09690337 C4.07155851,2.19198564 4.16042855,2.17298526 4.23545802,2.16196184 C4.25024773,2.15978891 4.26411494,2.15538494 4.27684176,2.15579269 C4.29889535,2.18811118 4.3108512,2.24878522 4.32468639,2.34867615 C4.37495125,2.71159147 4.47034902,3.18193007 4.61118945,3.75963688 L4.61118945,3.75963688 L7.63526675,6.03227302 L7.32621802,6.03227302 C6.67925327,6.96435998 6.39022666,7.84242145 6.44883976,8.66451311 C6.03668435,8.61123962 5.56234188,8.58445944 5.02578748,8.58445944 C4.47252539,8.58445944 4.00511067,8.64499254 3.62312233,8.76405374 L3.62312233,8.76405374 L3.15178044,7.01873393 C3.26903289,6.81181659 3.35350383,6.62372932 3.40595184,6.45478956 C3.43772904,6.35243236 3.52453927,6.29637208 3.59721831,6.24177798 C3.73160019,6.14083476 3.82724709,6.04282151 3.82724709,5.90199807 C3.82724709,5.81400791 3.78704346,5.72866372 3.73184644,5.63029834 C3.65813645,5.49894141 3.56160912,5.33004771 3.65658673,5.02155722 C3.76856247,4.65785624 3.82724709,3.93242487 3.82724709,2.84404746 L3.82724709,2.84404746 C3.82696311,2.83434569 3.82668529,2.83196921 3.82640788,2.82958724 C3.78432336,2.46823405 3.78029815,2.22747771 3.82016456,2.09690337 Z" id="Path-293" stroke="#0A0A0A" stroke-width="0.25" fill="none"></path>
                    </g>
                </g>
            </g>
        </g>
    </g>
</svg>